<?xml version="1.0" encoding="UTF-8" standalone="no"?>
<svg
   id="svg"
   version="1.1"
   width="170"
   height="400"
   viewBox="0 0 170 400"
   sodipodi:docname="traffic-light-icon-red.svg"
   inkscape:version="1.2.1 (9c6d41e410, 2022-07-14)"
   xmlns:inkscape="http://www.inkscape.org/namespaces/inkscape"
   xmlns:sodipodi="http://sodipodi.sourceforge.net/DTD/sodipodi-0.dtd"
   xmlns="http://www.w3.org/2000/svg"
   xmlns:svg="http://www.w3.org/2000/svg">
  <defs
     id="defs1150" />
  <sodipodi:namedview
     id="namedview1148"
     pagecolor="#ffffff"
     bordercolor="#000000"
     borderopacity="0.25"
     inkscape:showpageshadow="2"
     inkscape:pageopacity="0.0"
     inkscape:pagecheckerboard="0"
     inkscape:deskcolor="#d1d1d1"
     showgrid="false"
     inkscape:zoom="0.59"
     inkscape:cx="200"
     inkscape:cy="200"
     inkscape:window-width="5160"
     inkscape:window-height="2054"
     inkscape:window-x="-11"
     inkscape:window-y="-11"
     inkscape:window-maximized="1"
     inkscape:current-layer="svg" />
  <g
     id="svgg"
     transform="translate(-115.18375,-0.13661111)">
    <path
       id="path0"
       d="m 130,200 v 186.4 h 70 70 V 200 13.6 H 200 130 V 200 M 206,19.219 c 5.297,0.484 7.338,0.805 7.78,1.222 0.209,0.197 0.974,0.359 1.7,0.359 0.726,0 1.32,0.18 1.32,0.4 0,0.22 0.54,0.4 1.2,0.4 0.66,0 1.2,0.18 1.2,0.4 0,0.22 0.45,0.4 1,0.4 0.55,0 1,0.18 1,0.4 0,0.22 0.439,0.4 0.976,0.4 0.537,0 1.088,0.18 1.224,0.4 0.136,0.22 0.597,0.4 1.024,0.4 0.427,0 0.776,0.18 0.776,0.4 0,0.22 0.36,0.4 0.8,0.4 0.44,0 0.8,0.18 0.8,0.4 0,0.22 0.36,0.4 0.8,0.4 0.44,0 0.8,0.152 0.8,0.337 0,0.186 0.855,0.77 1.9,1.3 1.045,0.529 2.08,1.097 2.3,1.262 4.938,3.698 6.953,5.411 9.7,8.243 1.815,1.871 3.3,3.573 3.3,3.783 0,0.21 0.324,0.672 0.719,1.028 0.395,0.356 1.152,1.277 1.681,2.047 0.529,0.77 1.06,1.49 1.181,1.6 0.12,0.11 0.444,0.605 0.719,1.1 0.275,0.495 0.725,1.305 1,1.8 0.275,0.495 0.59,0.99 0.7,1.1 0.209,0.209 2.693,5.614 3.217,7 3.1,8.201 4.437,17.841 3.649,26.306 -0.412,4.419 -1.95,12.045 -2.843,14.094 -0.192,0.44 -0.616,1.52 -0.943,2.4 -1.105,2.974 -2.067,5 -2.374,5 -0.168,0 -0.306,0.36 -0.306,0.8 0,0.44 -0.159,0.8 -0.353,0.8 -0.195,0 -0.454,0.315 -0.576,0.7 -0.269,0.849 -1.485,2.874 -2.171,3.616 -0.275,0.298 -0.5,0.689 -0.5,0.87 0,0.181 -0.54,0.907 -1.2,1.614 -0.66,0.707 -1.2,1.432 -1.2,1.613 0,0.592 -8.226,8.629 -10.236,10 -1.08,0.737 -2.024,1.486 -2.097,1.664 -0.074,0.178 -0.389,0.323 -0.7,0.323 -0.312,0 -0.567,0.159 -0.567,0.353 0,0.195 -0.315,0.454 -0.7,0.576 -0.936,0.296 -3.066,1.595 -3.233,1.971 -0.074,0.165 -0.479,0.3 -0.9,0.3 -0.422,0 -0.767,0.18 -0.767,0.4 0,0.22 -0.36,0.4 -0.8,0.4 -0.44,0 -0.8,0.18 -0.8,0.4 0,0.22 -0.36,0.4 -0.8,0.4 -0.44,0 -0.8,0.18 -0.8,0.4 0,0.22 -0.349,0.4 -0.776,0.4 -0.427,0 -0.888,0.18 -1.024,0.4 -0.136,0.22 -0.687,0.4 -1.224,0.4 -0.537,0 -0.976,0.18 -0.976,0.4 0,0.22 -0.439,0.4 -0.976,0.4 -0.537,0 -1.088,0.18 -1.224,0.4 -0.136,0.22 -0.856,0.4 -1.6,0.4 -0.744,0 -1.452,0.161 -1.574,0.358 -0.121,0.197 -0.987,0.47 -1.923,0.607 -0.937,0.137 -3.143,0.457 -4.903,0.71 -4.161,0.6 -10.328,0.604 -14.6,0.01 -6.336,-0.881 -6.805,-0.969 -7.026,-1.327 -0.122,-0.197 -0.841,-0.358 -1.598,-0.358 -0.757,0 -1.376,-0.18 -1.376,-0.4 0,-0.22 -0.439,-0.4 -0.976,-0.4 -0.537,0 -1.088,-0.18 -1.224,-0.4 -0.136,-0.22 -0.676,-0.4 -1.2,-0.4 -0.524,0 -1.064,-0.18 -1.2,-0.4 -0.136,-0.22 -0.597,-0.4 -1.024,-0.4 -0.427,0 -0.776,-0.18 -0.776,-0.4 0,-0.22 -0.36,-0.4 -0.8,-0.4 -0.44,0 -0.8,-0.18 -0.8,-0.4 0,-0.22 -0.36,-0.4 -0.8,-0.4 -0.44,0 -0.8,-0.18 -0.8,-0.4 0,-0.22 -0.36,-0.4 -0.8,-0.4 -0.44,0 -0.8,-0.18 -0.8,-0.4 0,-0.22 -0.236,-0.4 -0.525,-0.4 -0.288,0 -0.911,-0.36 -1.383,-0.8 -0.472,-0.44 -1.136,-0.8 -1.475,-0.8 -0.339,0 -0.617,-0.138 -0.617,-0.306 0,-0.168 -0.72,-0.75 -1.6,-1.294 -0.88,-0.544 -1.6,-1.126 -1.6,-1.294 0,-0.168 -0.185,-0.306 -0.411,-0.306 -0.777,0 -7.466,-6.419 -9.425,-9.045 -0.638,-0.855 -1.272,-1.645 -1.41,-1.755 -0.138,-0.11 -1.172,-1.64 -2.298,-3.4 -1.126,-1.76 -2.23,-3.417 -2.452,-3.683 -0.222,-0.266 -0.404,-0.665 -0.404,-0.888 0,-0.223 -0.383,-1.085 -0.852,-1.917 -1.258,-2.235 -3.548,-8.773 -3.548,-10.132 0,-0.649 -0.18,-1.18 -0.4,-1.18 -0.22,0 -0.4,-0.709 -0.4,-1.576 0,-0.867 -0.18,-1.688 -0.4,-1.824 -0.22,-0.136 -0.4,-1.641 -0.4,-3.344 0,-1.703 -0.193,-3.289 -0.43,-3.526 -0.595,-0.595 0.187,-13.619 0.86,-14.31 0.204,-0.209 0.37,-1.154 0.37,-2.1 0,-0.946 0.18,-1.72 0.4,-1.72 0.22,0 0.4,-0.538 0.4,-1.195 0,-3.645 6.887,-17.632 10.07,-20.452 0.401,-0.356 0.73,-0.818 0.73,-1.028 0,-1.711 11.041,-11.104 16.1,-13.696 0.605,-0.31 1.1,-0.714 1.1,-0.897 0,-0.182 0.36,-0.332 0.8,-0.332 0.44,0 0.8,-0.18 0.8,-0.4 0,-0.22 0.36,-0.4 0.8,-0.4 0.44,0 0.8,-0.18 0.8,-0.4 0,-0.22 0.349,-0.4 0.776,-0.4 0.427,0 0.888,-0.18 1.024,-0.4 0.136,-0.22 0.687,-0.4 1.224,-0.4 0.537,0 0.976,-0.18 0.976,-0.4 0,-0.22 0.439,-0.4 0.976,-0.4 0.537,0 1.088,-0.18 1.224,-0.4 0.136,-0.22 0.687,-0.4 1.224,-0.4 0.537,0 0.976,-0.18 0.976,-0.4 0,-0.22 0.594,-0.4 1.32,-0.4 0.726,0 1.491,-0.162 1.7,-0.359 0.467,-0.441 2.724,-0.773 8.079,-1.188 2.254,-0.174 4.234,-0.455 4.4,-0.622 0.165,-0.168 1.021,-0.183 1.901,-0.033 0.88,0.15 3.31,0.43 5.4,0.621 M 204.2,141.6 c 0.136,0.22 1.587,0.4 3.224,0.4 1.717,0 2.976,0.169 2.976,0.4 0,0.22 0.799,0.4 1.776,0.4 0.977,0 1.888,0.18 2.024,0.4 0.136,0.22 0.783,0.4 1.439,0.4 2.102,0 15.161,5.576 15.161,6.473 0,0.18 0.193,0.327 0.428,0.327 0.404,0 3.235,1.828 4.927,3.182 1.716,1.373 9.321,9.11 10.24,10.418 0.541,0.77 1.274,1.718 1.63,2.107 0.356,0.388 0.901,1.198 1.21,1.8 0.31,0.601 0.654,1.183 0.764,1.293 0.72,0.718 3.333,5.929 4.714,9.4 5.203,13.082 5.246,29.514 0.111,42.6 -1.251,3.189 -4.525,9.6 -4.902,9.6 -0.177,0 -0.322,0.193 -0.322,0.428 0,0.402 -1.813,3.212 -3.182,4.93 -0.804,1.009 -9.251,9.456 -10.26,10.26 -1.718,1.369 -4.528,3.182 -4.93,3.182 -0.235,0 -0.428,0.145 -0.428,0.322 0,0.377 -6.411,3.651 -9.6,4.902 -13.086,5.135 -29.518,5.092 -42.6,-0.111 -3.471,-1.381 -8.682,-3.994 -9.4,-4.714 -0.11,-0.11 -0.695,-0.455 -1.3,-0.767 -0.605,-0.312 -1.1,-0.717 -1.1,-0.9 0,-0.182 -0.193,-0.332 -0.429,-0.332 -0.235,0 -0.665,-0.225 -0.955,-0.5 -0.954,-0.905 -2.222,-1.9 -2.422,-1.9 -0.29,0 -8.594,-8.304 -8.594,-8.595 0,-0.137 -0.539,-0.824 -1.198,-1.527 -0.659,-0.703 -1.199,-1.503 -1.2,-1.778 -0.001,-0.275 -0.152,-0.5 -0.334,-0.5 -0.183,0 -0.582,-0.495 -0.886,-1.1 -0.304,-0.605 -0.897,-1.609 -1.317,-2.231 -2.046,-3.031 -5.865,-12.296 -5.865,-14.23 0,-0.656 -0.18,-1.303 -0.4,-1.439 -0.22,-0.136 -0.4,-1.047 -0.4,-2.024 0,-0.977 -0.18,-1.776 -0.4,-1.776 -0.23,0 -0.4,-1.24 -0.4,-2.92 0,-1.606 -0.193,-3.113 -0.429,-3.349 -0.616,-0.616 0.207,-14.531 0.859,-14.531 0.204,0 0.37,-0.799 0.37,-1.776 0,-0.977 0.18,-1.888 0.4,-2.024 0.22,-0.136 0.4,-0.78 0.4,-1.432 0,-2.013 4.934,-13.706 6.401,-15.168 0.11,-0.11 0.454,-0.692 0.764,-1.293 0.309,-0.602 0.854,-1.412 1.21,-1.8 0.356,-0.389 1.091,-1.337 1.633,-2.107 1.277,-1.813 8.579,-9.115 10.392,-10.392 0.77,-0.542 1.718,-1.277 2.107,-1.633 0.388,-0.356 1.198,-0.894 1.8,-1.197 0.601,-0.302 1.602,-0.893 2.224,-1.313 2.963,-2.001 12.343,-5.865 14.237,-5.865 0.652,0 1.296,-0.18 1.432,-0.4 0.136,-0.22 1.047,-0.4 2.024,-0.4 0.977,0 1.776,-0.18 1.776,-0.4 0,-0.229 1.237,-0.403 2.9,-0.406 1.595,-0.003 3.17,-0.181 3.5,-0.394 0.794,-0.513 7.883,-0.513 8.2,0 m 3.4,122.813 c 3.831,0.438 5.598,0.755 6.6,1.184 0.746,0.32 1.54,0.518 4.3,1.073 0.605,0.121 1.1,0.38 1.1,0.575 0,0.195 0.439,0.355 0.976,0.355 0.537,0 1.088,0.18 1.224,0.4 0.136,0.22 0.597,0.4 1.024,0.4 0.427,0 0.776,0.18 0.776,0.4 0,0.22 0.36,0.4 0.8,0.4 0.44,0 0.8,0.18 0.8,0.4 0,0.22 0.36,0.4 0.8,0.4 0.44,0 0.8,0.18 0.8,0.4 0,0.22 0.36,0.4 0.8,0.4 0.44,0 0.8,0.159 0.8,0.353 0,0.195 0.315,0.454 0.7,0.576 0.841,0.266 2.871,1.482 3.602,2.157 0.29,0.267 1.061,0.801 1.713,1.186 0.652,0.385 1.185,0.842 1.185,1.014 0,0.173 0.185,0.314 0.411,0.314 0.782,0 8.01,6.942 9.579,9.2 0.534,0.77 1.252,1.67 1.594,2 0.342,0.33 0.876,1.095 1.186,1.7 0.311,0.605 0.715,1.1 0.898,1.1 0.182,0 0.332,0.278 0.332,0.617 0,0.339 0.36,1.003 0.8,1.475 0.44,0.472 0.8,1.095 0.8,1.383 0,0.289 0.18,0.525 0.4,0.525 0.22,0 0.4,0.36 0.4,0.8 0,0.44 0.18,0.8 0.4,0.8 0.22,0 0.4,0.253 0.4,0.562 0,0.309 0.386,1.344 0.857,2.3 2.37,4.808 4.11,11.523 4.783,18.461 0.839,8.657 -0.861,20.816 -3.687,26.372 -0.194,0.382 -0.353,0.869 -0.353,1.082 0,0.655 -2.488,5.727 -3.676,7.495 -0.618,0.92 -1.124,1.865 -1.124,2.1 0,0.235 -0.15,0.428 -0.332,0.428 -0.183,0 -0.588,0.495 -0.9,1.1 -0.313,0.605 -1.063,1.577 -1.668,2.16 -0.605,0.584 -1.1,1.252 -1.1,1.485 0,1.34 -11.04,11.062 -15,13.21 -0.88,0.477 -2.14,1.209 -2.8,1.627 -0.66,0.418 -1.515,0.773 -1.9,0.789 -0.385,0.016 -0.7,0.209 -0.7,0.429 0,0.22 -0.36,0.4 -0.8,0.4 -0.44,0 -0.8,0.18 -0.8,0.4 0,0.22 -0.54,0.4 -1.2,0.4 -0.66,0 -1.2,0.18 -1.2,0.4 0,0.22 -0.45,0.4 -1,0.4 -0.55,0 -1,0.18 -1,0.4 0,0.22 -0.54,0.4 -1.2,0.4 -0.66,0 -1.2,0.18 -1.2,0.4 0,0.22 -0.619,0.4 -1.376,0.4 -0.757,0 -1.488,0.18 -1.624,0.4 -0.136,0.22 -0.921,0.4 -1.744,0.4 -0.823,0 -1.667,0.168 -1.876,0.373 -1.059,1.038 -18.876,1.031 -19.96,-0.009 -0.209,-0.2 -1.143,-0.364 -2.076,-0.364 -0.933,0 -1.808,-0.18 -1.944,-0.4 -0.136,-0.22 -0.867,-0.4 -1.624,-0.4 -0.757,0 -1.376,-0.18 -1.376,-0.4 0,-0.22 -0.439,-0.4 -0.976,-0.4 -0.537,0 -1.088,-0.18 -1.224,-0.4 -0.136,-0.22 -0.687,-0.4 -1.224,-0.4 -0.537,0 -0.976,-0.18 -0.976,-0.4 0,-0.22 -0.343,-0.4 -0.762,-0.4 -0.419,0 -1.544,-0.386 -2.5,-0.857 -0.956,-0.471 -2.188,-1.056 -2.738,-1.3 -0.55,-0.244 -1.18,-0.584 -1.4,-0.756 -0.22,-0.173 -1.48,-0.951 -2.8,-1.73 -4.449,-2.626 -14.2,-11.318 -14.2,-12.658 0,-0.223 -0.328,-0.696 -0.728,-1.052 -0.936,-0.831 -4.072,-5.472 -4.072,-6.025 0,-0.232 -0.152,-0.422 -0.337,-0.422 -0.839,0 -5.663,-11.95 -5.663,-14.027 0,-0.645 -0.18,-1.173 -0.4,-1.173 -0.22,0 -0.4,-0.81 -0.4,-1.8 0,-0.99 -0.167,-1.8 -0.371,-1.8 -0.203,0 -0.475,-1.575 -0.604,-3.5 -0.653,-9.792 -0.672,-10.613 -0.255,-11.03 0.237,-0.237 0.43,-1.823 0.43,-3.526 0,-1.703 0.18,-3.208 0.4,-3.344 0.22,-0.136 0.4,-0.957 0.4,-1.824 0,-0.867 0.18,-1.576 0.4,-1.576 0.22,0 0.4,-0.536 0.4,-1.191 0,-1.269 2.437,-8.135 3.664,-10.321 0.405,-0.722 0.736,-1.577 0.736,-1.9 0,-0.323 0.158,-0.588 0.351,-0.588 0.194,0 0.576,-0.54 0.849,-1.2 0.273,-0.66 0.655,-1.2 0.849,-1.2 0.193,0 0.351,-0.36 0.351,-0.8 0,-0.44 0.141,-0.8 0.314,-0.8 0.172,0 0.629,-0.533 1.014,-1.185 0.385,-0.652 0.919,-1.417 1.186,-1.7 0.267,-0.283 0.981,-1.178 1.586,-1.988 2.25,-3.014 7.597,-7.995 11.5,-10.713 0.77,-0.537 1.49,-1.074 1.6,-1.195 0.353,-0.387 2.577,-1.661 3.3,-1.89 0.385,-0.122 0.7,-0.381 0.7,-0.576 0,-0.194 0.36,-0.353 0.8,-0.353 0.44,0 0.8,-0.18 0.8,-0.4 0,-0.22 0.36,-0.4 0.8,-0.4 0.44,0 0.8,-0.18 0.8,-0.4 0,-0.22 0.36,-0.4 0.8,-0.4 0.44,0 0.8,-0.18 0.8,-0.4 0,-0.22 0.349,-0.4 0.776,-0.4 0.427,0 0.888,-0.18 1.024,-0.4 0.136,-0.22 0.676,-0.4 1.2,-0.4 0.524,0 1.064,-0.18 1.2,-0.4 0.136,-0.22 0.676,-0.4 1.2,-0.4 0.524,0 1.064,-0.18 1.2,-0.4 0.136,-0.22 0.766,-0.4 1.4,-0.4 0.634,0 1.252,-0.161 1.374,-0.358 0.249,-0.403 1.916,-0.682 7.426,-1.245 2.09,-0.213 4.07,-0.469 4.4,-0.569 0.684,-0.208 5.566,0.078 10,0.585"
       stroke="none"
       fill="#444343"
       fill-rule="evenodd" />
    <path
       id="path1"
       d="m 195.6,32.441 c -8.935,1.408 -13.241,2.863 -19.402,6.558 C 171.176,42.012 162,51.037 162,52.965 c 0,0.16 -0.507,1.043 -1.128,1.963 -1.327,1.968 -2.872,5.219 -2.872,6.044 0,0.319 -0.18,0.692 -0.4,0.828 -0.22,0.136 -0.4,0.676 -0.4,1.2 0,0.524 -0.16,1.052 -0.356,1.173 -0.361,0.223 -0.429,0.523 -1.312,5.827 -0.564,3.39 -0.676,11.19 -0.204,14.2 0.504,3.217 1.831,8.193 2.342,8.78 0.181,0.209 0.33,0.625 0.33,0.925 0,2.402 5.425,10.722 9.995,15.327 21.866,22.037 58.173,16.233 72.485,-11.587 0.836,-1.626 1.52,-3.173 1.52,-3.439 0,-0.266 0.271,-1.026 0.602,-1.689 2.547,-5.107 3.238,-17.915 1.371,-25.417 -0.81,-3.256 -1.327,-4.917 -1.643,-5.28 C 242.149,61.611 242,61.115 242,60.718 242,58.628 236.291,49.792 232.276,45.667 223.16,36.302 207.332,30.594 195.6,32.441"
       stroke="none"
       fill="#fb244b"
       fill-rule="evenodd" />
    <path
       id="path2"
       d="m 194.6,155.441 c -2.436,0.353 -8.412,1.849 -8.78,2.198 -0.209,0.199 -0.706,0.361 -1.105,0.361 -0.399,0 -1.038,0.16 -1.42,0.356 -0.382,0.196 -1.595,0.775 -2.695,1.286 -8.156,3.789 -17.169,12.802 -20.958,20.958 -0.511,1.1 -1.09,2.313 -1.286,2.695 -0.196,0.382 -0.356,1.021 -0.356,1.42 0,0.399 -0.161,0.896 -0.357,1.105 -1.865,1.982 -2.961,16.549 -1.699,22.58 2.583,12.348 9.193,22.121 19.663,29.072 3.113,2.068 7.943,4.528 8.888,4.528 0.3,0 0.716,0.153 0.925,0.341 0.209,0.188 1.28,0.56 2.38,0.828 1.1,0.268 2.81,0.699 3.8,0.959 2.435,0.638 14.443,0.619 16.9,-0.028 1.045,-0.275 2.755,-0.707 3.8,-0.959 1.045,-0.252 2.071,-0.612 2.28,-0.8 0.209,-0.188 0.625,-0.341 0.925,-0.341 0.975,0 9.095,-4.184 10.095,-5.201 0.11,-0.112 0.92,-0.733 1.8,-1.381 2.059,-1.515 6.503,-5.959 8.018,-8.018 0.648,-0.88 1.269,-1.69 1.381,-1.8 1.017,-1 5.201,-9.12 5.201,-10.095 0,-0.3 0.153,-0.716 0.341,-0.925 0.188,-0.209 0.548,-1.235 0.8,-2.28 0.252,-1.045 0.684,-2.755 0.959,-3.8 0.685,-2.602 0.665,-14.474 -0.028,-17.1 -0.29,-1.1 -0.722,-2.81 -0.959,-3.8 -0.237,-0.99 -0.584,-1.971 -0.772,-2.18 -0.188,-0.209 -0.341,-0.625 -0.341,-0.925 0,-0.945 -2.46,-5.775 -4.528,-8.888 -6.822,-10.275 -16.241,-16.765 -28.272,-19.48 -2.547,-0.574 -12.228,-1.029 -14.6,-0.686"
       stroke="none"
       fill="#835b2c"
       fill-rule="evenodd" />
    <path
       id="path3"
       d="m 118.628,0.288 c -1.014,0.261 -1.828,1.1 -1.828,1.883 0,0.346 -0.18,0.629 -0.4,0.629 -0.22,0 -0.4,0.349 -0.4,0.776 0,0.427 -0.18,0.888 -0.4,1.024 -0.555,0.343 -0.555,390.457 0,390.8 0.22,0.136 0.4,0.597 0.4,1.024 0,0.427 0.18,0.776 0.4,0.776 0.22,0 0.4,0.283 0.4,0.629 0,2.106 -5.708,1.971 83.2,1.971 88.908,0 83.2,0.135 83.2,-1.971 0,-0.346 0.18,-0.629 0.4,-0.629 0.22,0 0.4,-0.349 0.4,-0.776 0,-0.427 0.18,-0.888 0.4,-1.024 0.266,-0.164 0.4,-65.73 0.4,-195.4 C 284.8,70.33 284.666,4.764 284.4,4.6 284.18,4.464 284,4.003 284,3.576 284,3.149 283.82,2.8 283.6,2.8 c -0.22,0 -0.4,-0.283 -0.4,-0.629 0,-2.105 5.635,-1.966 -82.571,-2.027 -44.676,-0.03 -81.576,0.034 -82.001,0.144 M 271,200 v 187 l -70.776,0.101 c -56.356,0.081 -70.84,-10e-4 -71.094,-0.4 -0.367,-0.578 -0.454,-372.313 -0.087,-373.269 0.221,-0.576 6.746,-0.625 71.1,-0.533 L 271,13 V 200 M 191.8,20.074 c -16.493,3 -29.15,10.6 -38.393,23.054 -32.176,43.355 8.794,103.798 61.193,90.278 42.991,-11.092 57.838,-65.044 26.577,-96.579 -9.309,-9.39 -18.931,-14.229 -33.401,-16.797 -2.854,-0.506 -13.106,-0.478 -15.976,0.044 m 14.6,11.892 c 3.941,0.546 8.032,1.481 9.807,2.239 4.857,2.076 9.573,4.669 11.088,6.095 0.526,0.495 1.121,0.9 1.323,0.9 0.521,0 7.382,6.894 7.382,7.417 0,0.238 0.54,0.951 1.2,1.583 0.66,0.632 1.2,1.364 1.2,1.626 0,0.262 0.26,0.692 0.577,0.955 0.746,0.619 4.223,7.617 4.223,8.498 0,0.371 0.18,0.785 0.4,0.921 0.22,0.136 0.4,0.676 0.4,1.2 0,0.524 0.18,1.064 0.4,1.2 0.22,0.136 0.4,0.831 0.4,1.544 0,0.713 0.166,1.467 0.369,1.676 0.678,0.699 1.457,12.914 0.862,13.509 -0.237,0.237 -0.431,1.554 -0.431,2.927 0,1.373 -0.18,2.608 -0.4,2.744 -0.22,0.136 -0.4,0.856 -0.4,1.6 0,0.744 -0.18,1.464 -0.4,1.6 -0.22,0.136 -0.4,0.676 -0.4,1.2 0,0.524 -0.18,1.064 -0.4,1.2 -0.22,0.136 -0.4,0.55 -0.4,0.921 0,0.881 -3.477,7.879 -4.223,8.498 -0.317,0.263 -0.577,0.699 -0.577,0.968 0,0.269 -0.36,0.815 -0.8,1.213 -0.44,0.398 -0.8,0.911 -0.8,1.14 0,0.6 -8.788,9.06 -9.411,9.06 -0.287,0 -0.582,0.145 -0.656,0.323 -0.68,1.65 -9.777,6.012 -15.333,7.352 -5.065,1.222 -14.859,1.921 -16.379,1.17 -0.451,-0.224 -1.721,-0.488 -2.821,-0.587 -2.205,-0.2 -3.977,-0.552 -5.2,-1.033 -0.44,-0.173 -1.52,-0.53 -2.4,-0.794 -2.161,-0.649 -9,-4.059 -9,-4.488 0,-0.189 -0.236,-0.343 -0.525,-0.343 -0.288,0 -0.911,-0.36 -1.383,-0.8 -0.472,-0.44 -1.031,-0.8 -1.241,-0.8 -1.453,0 -12.451,-12.657 -12.451,-14.329 0,-0.259 -0.18,-0.471 -0.4,-0.471 -0.22,0 -0.4,-0.36 -0.4,-0.8 0,-0.44 -0.18,-0.8 -0.4,-0.8 -0.22,0 -0.404,-0.315 -0.409,-0.7 -0.005,-0.385 -0.361,-1.15 -0.791,-1.7 -0.43,-0.55 -0.789,-1.27 -0.797,-1.6 -0.019,-0.753 -0.962,-3.492 -1.329,-3.859 -0.151,-0.151 -0.274,-0.864 -0.274,-1.584 0,-0.72 -0.18,-1.421 -0.4,-1.557 -0.22,-0.136 -0.4,-1.396 -0.4,-2.8 0,-1.404 -0.18,-2.664 -0.4,-2.8 -0.22,-0.136 -0.4,-1.756 -0.4,-3.6 0,-1.844 0.18,-3.464 0.4,-3.6 0.22,-0.136 0.4,-1.576 0.4,-3.2 0,-1.624 0.18,-3.064 0.4,-3.2 0.22,-0.136 0.4,-0.856 0.4,-1.6 0,-0.744 0.18,-1.464 0.4,-1.6 0.22,-0.136 0.4,-0.676 0.4,-1.2 0,-0.524 0.18,-1.064 0.4,-1.2 0.22,-0.136 0.4,-0.562 0.4,-0.947 0,-0.782 2.401,-5.726 3.291,-6.775 0.316,-0.373 0.863,-1.311 1.216,-2.084 0.353,-0.773 1.103,-1.84 1.667,-2.37 0.564,-0.53 1.026,-1.171 1.026,-1.425 0,-0.62 7.145,-7.399 7.799,-7.399 0.283,0 0.613,-0.255 0.733,-0.568 0.366,-0.952 6.07,-4.208 11.261,-6.427 1.934,-0.827 6.182,-1.752 10.145,-2.209 1.616,-0.186 3.056,-0.46 3.2,-0.608 0.287,-0.295 5.156,0.008 9.262,0.578 M 196,142.263 c -33.854,2.314 -58.814,34.106 -53.024,67.537 5.98,34.521 41.761,56.191 74.824,45.314 4.983,-1.639 13.03,-5.598 15.288,-7.52 0.392,-0.333 1.342,-1.046 2.112,-1.584 2.087,-1.459 5.262,-4.483 9.413,-8.964 0.227,-0.245 0.851,-1.076 1.387,-1.846 0.536,-0.77 1.204,-1.637 1.485,-1.926 7.355,-7.577 12.111,-29.236 9.546,-43.467 -1.253,-6.948 -6.495,-20.124 -8.331,-20.94 -0.165,-0.074 -0.3,-0.304 -0.3,-0.512 0,-0.438 -3.506,-5.032 -5.582,-7.314 -2.749,-3.022 -6.22,-6.083 -9.218,-8.129 -1.21,-0.826 -2.29,-1.594 -2.4,-1.707 -4.744,-4.871 -23.827,-9.719 -35.2,-8.942 m 12.2,12.872 c 4.463,0.926 5.624,1.247 7.8,2.155 0.55,0.229 1.36,0.553 1.8,0.72 2.227,0.844 6.919,3.387 7.4,4.011 0.11,0.142 0.406,0.331 0.658,0.419 4.099,1.431 13.331,12.732 16.142,19.76 0.22,0.55 0.562,1.405 0.76,1.9 0.743,1.861 1.194,3.36 1.591,5.3 0.226,1.1 0.613,2.99 0.861,4.2 0.802,3.912 0.154,13.919 -1.204,18.6 -0.255,0.88 -0.563,2.008 -0.684,2.506 -0.121,0.498 -0.378,1.004 -0.572,1.124 -0.193,0.119 -0.352,0.479 -0.352,0.798 0,2.175 -5.168,10.396 -9.377,14.914 -4.033,4.33 -13.89,10.858 -16.395,10.858 -0.319,0 -0.679,0.159 -0.798,0.352 -0.12,0.194 -0.626,0.451 -1.124,0.572 -0.498,0.121 -1.626,0.429 -2.506,0.684 -4.703,1.364 -15.601,1.846 -20.2,0.894 -4.617,-0.957 -5.704,-1.251 -7.9,-2.138 -0.495,-0.2 -1.305,-0.52 -1.8,-0.71 -6.814,-2.624 -18.428,-12.095 -19.86,-16.196 -0.088,-0.252 -0.277,-0.548 -0.419,-0.658 -0.624,-0.481 -3.167,-5.173 -4.011,-7.4 -0.167,-0.44 -0.491,-1.25 -0.72,-1.8 -0.918,-2.199 -1.216,-3.289 -2.191,-8 -0.579,-2.796 -0.592,-13.11 -0.021,-16 0.534,-2.697 1.609,-6.72 2.085,-7.8 1.504,-3.414 4.32,-8.885 4.838,-9.4 0.111,-0.11 0.741,-0.999 1.4,-1.976 1.546,-2.29 7.133,-7.877 9.423,-9.423 0.977,-0.659 1.866,-1.289 1.976,-1.4 0.515,-0.518 5.986,-3.334 9.4,-4.838 1.281,-0.565 5.418,-1.622 7.737,-1.977 1.176,-0.18 2.253,-0.443 2.394,-0.584 0.379,-0.379 11.543,0.05 13.869,0.533 m -16.6,110.132 c -8.228,1.694 -11.917,2.845 -16.8,5.24 -41.318,20.269 -43.821,78.147 -4.4,101.763 6.64,3.977 11.408,5.684 21.531,7.705 2.772,0.553 13.137,0.548 16.245,-0.009 3.216,-0.576 9.022,-1.94 10.024,-2.354 0.44,-0.182 1.43,-0.56 2.2,-0.84 44.014,-16.009 50.688,-76.644 11.294,-102.606 -11.27,-7.427 -28.582,-11.27 -40.094,-8.899 m 16.4,12.251 c 2.385,0.418 6.516,1.491 7.8,2.025 7.264,3.025 11.554,5.915 16.844,11.349 3.767,3.869 8.556,10.431 8.556,11.724 0,0.14 0.53,1.4 1.179,2.801 0.648,1.4 1.379,3.499 1.624,4.665 0.245,1.165 0.631,3.018 0.858,4.118 1.433,6.954 0.772,15.884 -1.745,23.6 -4.361,13.367 -17.97,25.845 -31.716,29.079 -5.697,1.341 -13.537,1.865 -17,1.136 -1.21,-0.255 -3.19,-0.656 -4.4,-0.893 -11.526,-2.252 -24.07,-11.53 -29.705,-21.972 -4.3,-7.969 -5.652,-13.362 -5.652,-22.55 0,-5.511 0.217,-7.521 1.297,-12 2.837,-11.766 12.777,-23.753 24.171,-29.149 2.537,-1.201 4.421,-1.901 9.317,-3.46 0.676,-0.215 1.846,-0.404 2.6,-0.419 0.755,-0.016 1.732,-0.19 2.172,-0.387 0.974,-0.437 10.753,-0.201 13.8,0.333"
       stroke="none"
       fill="#241c24"
       fill-rule="evenodd" />
    <path
       id="path4"
       d="m 193,278.188 c -32.754,5.706 -48.518,41.974 -30.257,69.612 10.946,16.566 32.759,23.879 51.764,17.354 7.142,-2.452 12.67,-5.972 17.937,-11.419 29.657,-30.679 2.423,-82.839 -39.444,-75.547"
       stroke="none"
       fill="#445b34"
       fill-rule="evenodd" />
    <path
       id="path5"
       d="m 129.7,13.529 c -0.4,0.255 -0.481,37.858 -0.4,186.695 L 129.4,386.6 H 200 270.6 V 200 13.4 l -70.2,-0.095 c -38.61,-0.052 -70.425,0.049 -70.7,0.224 M 270,200 V 386.4 H 200 130 V 200 13.6 h 70 70 V 200 M 198,18.8 c -0.689,0.221 -0.068,0.32 2,0.32 2.068,0 2.689,-0.099 2,-0.32 -0.55,-0.176 -1.45,-0.32 -2,-0.32 -0.55,0 -1.45,0.144 -2,0.32 m -8,0.823 c -0.426,0.291 -0.02,0.332 1.4,0.142 1.1,-0.147 2.075,-0.334 2.167,-0.416 0.401,-0.359 -3.028,-0.095 -3.567,0.274 m 16.433,-0.274 c 0.092,0.082 1.067,0.269 2.167,0.416 1.42,0.19 1.826,0.149 1.4,-0.142 -0.539,-0.369 -3.968,-0.633 -3.567,-0.274 M 186.2,20.4 c -0.284,0.46 0.364,0.46 1.8,0 0.955,-0.306 0.943,-0.322 -0.276,-0.36 -0.702,-0.022 -1.388,0.14 -1.524,0.36 m 25.033,-0.257 c 0.443,0.379 2.784,0.608 2.563,0.251 C 213.662,20.177 212.993,20 212.31,20 c -0.684,0 -1.168,0.064 -1.077,0.143 M 183.2,21.2 c 0,0.469 0.307,0.469 1.4,0 0.709,-0.305 0.675,-0.347 -0.3,-0.372 -0.605,-0.015 -1.1,0.152 -1.1,0.372 m 32.2,0 c 1.093,0.469 1.4,0.469 1.4,0 0,-0.22 -0.495,-0.387 -1.1,-0.372 -0.975,0.025 -1.009,0.067 -0.3,0.372 M 167,28.863 c -4.44,2.999 -12.6,10.548 -12.6,11.656 0,0.207 1.575,-1.23 3.5,-3.193 4.266,-4.35 5.651,-5.55 8.944,-7.753 2.986,-1.997 3.466,-2.381 2.936,-2.352 -0.209,0.011 -1.46,0.75 -2.78,1.642 m 63.8,-0.901 c 1.08,0.886 1.6,1.044 1.6,0.485 0,-0.195 -0.315,-0.465 -0.7,-0.601 -0.385,-0.135 -0.97,-0.35 -1.3,-0.476 -0.33,-0.126 -0.15,0.14 0.4,0.592 m 2.848,1.751 c 0.577,0.488 2.077,1.691 3.334,2.674 1.257,0.982 3.71,3.298 5.452,5.146 1.741,1.847 3.166,3.191 3.166,2.985 0,-0.663 -6.508,-7.107 -9.541,-9.448 -2.861,-2.208 -4.517,-3.14 -2.411,-1.357 M 153.379,41.74 c -2.762,3.015 -9.567,15.965 -7.822,14.886 0.244,-0.15 0.443,-0.503 0.443,-0.783 0,-1.275 4.627,-9.81 6.918,-12.761 1.087,-1.401 1.43,-2.399 0.461,-1.342 M 246,41.414 c 0,0.149 0.505,0.927 1.123,1.728 2.103,2.73 4.785,7.45 6.283,11.058 2.087,5.025 2.103,5.066 2.382,6.347 0.138,0.631 0.355,1.043 0.483,0.916 0.211,-0.212 -0.631,-3.311 -1.429,-5.263 -0.752,-1.838 -3.057,-6.815 -3.242,-7 -0.11,-0.11 -0.425,-0.605 -0.7,-1.1 -0.275,-0.495 -0.725,-1.305 -1,-1.8 -0.275,-0.495 -0.599,-0.99 -0.719,-1.1 -0.121,-0.11 -0.655,-0.83 -1.187,-1.6 C 246.877,41.984 246,41.023 246,41.414 M 144.2,59.2 c -0.375,1.129 -0.596,2.137 -0.492,2.241 0.104,0.105 0.493,-0.737 0.863,-1.87 0.371,-1.132 0.592,-2.141 0.492,-2.241 -0.1,-0.1 -0.488,0.741 -0.863,1.87 m 112.228,3.676 c -0.015,0.592 0.152,1.188 0.372,1.324 0.478,0.295 0.478,-0.489 0,-1.6 -0.307,-0.714 -0.347,-0.685 -0.372,0.276 M 142.806,64.1 c 0.005,0.728 0.08,0.785 0.394,0.3 0.501,-0.776 0.501,-1.2 0,-1.2 -0.22,0 -0.397,0.405 -0.394,0.9 M 257.275,66 c -0.01,0.77 0.136,1.76 0.325,2.2 0.457,1.064 0.457,-0.603 0,-2.4 l -0.305,-1.2 -0.02,1.4 m -114.983,1.042 c -0.161,0.16 -0.281,0.756 -0.267,1.325 l 0.026,1.033 0.386,-0.966 c 0.416,-1.04 0.33,-1.867 -0.145,-1.392 M 258.164,77.6 c -0.003,7.636 0.022,7.918 0.359,4.1 0.215,-2.433 0.217,-5.767 0.004,-8.2 -0.334,-3.817 -0.359,-3.533 -0.363,4.1 M 141.443,73.833 c -0.376,0.98 -0.287,7.293 0.107,7.536 0.193,0.119 0.35,-1.67 0.35,-3.976 0,-4.315 -0.042,-4.642 -0.457,-3.56 m 0.585,12.843 c -0.015,0.702 0.152,1.388 0.372,1.524 0.48,0.296 0.48,-0.884 0,-2 -0.29,-0.674 -0.348,-0.6 -0.372,0.476 M 257.489,86.8 c -0.153,0.55 -0.262,1.54 -0.243,2.2 0.031,1.092 0.068,1.058 0.406,-0.389 0.423,-1.805 0.279,-3.4 -0.163,-1.811 m -114.683,3.9 c -0.003,0.495 0.174,0.9 0.394,0.9 0.501,0 0.501,-0.424 0,-1.2 -0.314,-0.485 -0.389,-0.428 -0.394,0.3 m 113.867,0.253 c -0.15,0.392 -0.262,1.013 -0.248,1.38 0.017,0.442 0.156,0.341 0.412,-0.299 0.212,-0.531 0.324,-1.152 0.248,-1.38 -0.076,-0.227 -0.261,-0.093 -0.412,0.299 M 143.634,93.6 c 0.012,0.33 0.177,0.96 0.366,1.4 l 0.344,0.8 0.022,-0.8 c 0.012,-0.44 -0.153,-1.07 -0.366,-1.4 -0.345,-0.533 -0.385,-0.533 -0.366,0 m 112.168,0.9 c -0.139,0.495 -0.403,1.26 -0.588,1.7 -0.185,0.44 -0.743,1.88 -1.24,3.2 -0.498,1.32 -1.027,2.58 -1.177,2.8 -0.491,0.721 -0.778,1.8 -0.479,1.8 0.299,0 1.298,-2.122 2.355,-5 0.323,-0.88 0.731,-1.876 0.906,-2.213 0.432,-0.83 0.935,-3.187 0.68,-3.187 -0.113,0 -0.319,0.405 -0.457,0.9 M 144.4,96.129 c 0,0.488 2.057,5.549 2.776,6.828 0.453,0.807 0.824,1.649 0.824,1.872 0,0.223 0.182,0.622 0.404,0.888 0.222,0.266 1.326,1.923 2.452,3.683 1.126,1.76 2.16,3.29 2.298,3.4 0.138,0.11 0.772,0.9 1.41,1.755 2.059,2.759 8.918,9.296 9.327,8.887 0.127,-0.127 -0.291,-0.633 -0.93,-1.124 C 156.419,117.288 146,102.994 146,99.049 c 0,-0.331 -0.18,-0.713 -0.4,-0.849 -0.22,-0.136 -0.4,-0.586 -0.4,-1 0,-0.414 -0.18,-0.864 -0.4,-1 -0.22,-0.136 -0.4,-0.168 -0.4,-0.071 m 106.43,9.942 c -0.523,0.951 -1.743,2.854 -2.711,4.229 -0.968,1.375 -1.636,2.5 -1.486,2.5 0.353,0 1.767,-1.627 1.767,-2.033 0,-0.17 0.225,-0.555 0.5,-0.854 0.468,-0.51 0.745,-0.953 2,-3.213 0.275,-0.495 0.657,-1.014 0.849,-1.154 0.192,-0.139 0.277,-0.468 0.19,-0.729 -0.087,-0.262 -0.586,0.302 -1.109,1.254 m -6.955,9.729 c -2.679,2.996 -2.677,3.532 0.002,0.7 1.571,-1.66 2.782,-3.3 2.437,-3.3 -0.063,0 -1.16,1.17 -2.439,2.6 m -4.494,4.629 c -0.869,0.896 -2.718,2.444 -4.108,3.44 -1.39,0.995 -2.415,1.922 -2.278,2.059 0.137,0.137 0.374,0.062 0.527,-0.166 0.153,-0.228 1.088,-0.968 2.078,-1.644 2.102,-1.435 6.293,-5.318 5.741,-5.318 -0.208,0 -1.09,0.733 -1.96,1.629 m -74.976,3.467 c 0.003,0.167 0.633,0.711 1.4,1.208 0.767,0.497 1.393,0.767 1.39,0.6 -0.003,-0.167 -0.633,-0.711 -1.4,-1.208 -0.767,-0.497 -1.393,-0.767 -1.39,-0.6 m 4.795,3.199 c 0,0.389 1.614,1.424 1.851,1.187 0.096,-0.096 -0.282,-0.472 -0.839,-0.837 -0.556,-0.365 -1.012,-0.523 -1.012,-0.35 m 60.7,0.334 c -0.605,0.328 -1.1,0.681 -1.1,0.784 0,0.386 0.632,0.144 1.6,-0.613 1.189,-0.93 1.011,-0.991 -0.5,-0.171 m -53.5,3.771 c 0,0.22 0.349,0.4 0.776,0.4 0.427,0 0.888,0.18 1.024,0.4 0.136,0.22 0.642,0.387 1.124,0.37 0.667,-0.022 0.494,-0.206 -0.724,-0.77 -1.893,-0.876 -2.2,-0.932 -2.2,-0.4 m 44.2,0.8 c -0.771,0.331 -0.769,0.345 0.076,0.372 0.482,0.015 0.988,-0.152 1.124,-0.372 0.292,-0.473 -0.099,-0.473 -1.2,0 m -2.2,0.8 c -0.485,0.314 -0.428,0.389 0.3,0.394 0.495,0.003 0.9,-0.174 0.9,-0.394 0,-0.501 -0.424,-0.501 -1.2,0 m -35.6,0.792 c 0,0.225 0.57,0.408 1.267,0.408 1.456,0 1.403,-0.175 -0.167,-0.551 -0.653,-0.157 -1.1,-0.099 -1.1,0.143 m 32.8,0.008 c -0.955,0.306 -0.943,0.322 0.276,0.36 0.702,0.022 1.388,-0.14 1.524,-0.36 0.284,-0.46 -0.364,-0.46 -1.8,0 m -29.853,0.715 c 0.137,0.22 1.014,0.518 1.95,0.661 1.921,0.293 6.653,0.652 5.103,0.387 -2.746,-0.47 -5.88,-1.067 -6.55,-1.247 -0.44,-0.118 -0.648,-0.036 -0.503,0.199 M 212,134.47 c -0.99,0.21 -2.7,0.538 -3.8,0.728 l -2,0.345 2.2,-0.153 c 3.315,-0.232 5.579,-0.633 5.826,-1.032 0.252,-0.408 0.213,-0.406 -2.226,0.112 m -16.6,1.546 c 1.593,0.384 8.137,0.384 9.4,0.001 0.559,-0.17 -1.56,-0.301 -4.8,-0.297 -3.239,0.004 -5.27,0.135 -4.6,0.296 m 0.667,5.534 c -0.309,0.196 1.329,0.338 3.889,0.338 2.432,0 4.326,-0.155 4.209,-0.344 -0.274,-0.444 -7.397,-0.439 -8.098,0.006 m -6.467,0.858 c 0,0.242 0.447,0.3 1.1,0.143 1.57,-0.376 1.623,-0.551 0.167,-0.551 -0.697,0 -1.267,0.183 -1.267,0.408 M 209,142.4 c 1.093,0.469 1.4,0.469 1.4,0 0,-0.22 -0.495,-0.387 -1.1,-0.372 -0.975,0.025 -1.009,0.067 -0.3,0.372 m -23.2,0.8 c -0.136,0.22 0.023,0.4 0.353,0.4 0.33,0 0.711,-0.18 0.847,-0.4 0.136,-0.22 -0.023,-0.4 -0.353,-0.4 -0.33,0 -0.711,0.18 -0.847,0.4 m -5.486,1.497 c -1.477,0.586 -2.615,1.135 -2.53,1.221 0.195,0.194 3.081,-0.769 3.596,-1.2 0.209,-0.175 0.783,-0.318 1.276,-0.318 0.493,0 1.008,-0.18 1.144,-0.4 0.397,-0.643 -0.615,-0.44 -3.486,0.697 m 36.486,-0.664 c 0.55,0.247 1.313,0.611 1.695,0.808 0.382,0.198 1.012,0.344 1.4,0.326 0.864,-0.04 -1.266,-1.021 -2.939,-1.354 -1.142,-0.227 -1.144,-0.224 -0.156,0.22 m -42.876,3.347 c -1.472,0.732 -3.182,1.673 -3.8,2.09 -0.618,0.417 -1.616,1.006 -2.217,1.308 -0.602,0.303 -1.412,0.841 -1.8,1.197 -0.389,0.356 -1.337,1.089 -2.107,1.63 -1.611,1.132 -4.949,4.379 -4.729,4.599 0.082,0.082 1.054,-0.725 2.162,-1.793 2.631,-2.536 9.206,-6.979 12.867,-8.695 2.621,-1.229 3.438,-1.76 2.6,-1.691 -0.165,0.013 -1.504,0.623 -2.976,1.355 m 48.876,-1.202 c 0,0.099 1.343,0.808 2.985,1.577 3.816,1.787 9.16,5.305 11.999,7.9 1.219,1.114 2.216,1.859 2.216,1.657 0,-0.203 -0.829,-1.076 -1.842,-1.94 -1.013,-0.865 -2.048,-1.761 -2.3,-1.991 -0.931,-0.851 -4.215,-2.981 -4.597,-2.981 -0.217,0 -0.454,-0.166 -0.528,-0.369 -0.218,-0.603 -7.933,-4.35 -7.933,-3.853 m -23.5,8.498 c 0.385,0.1 1.015,0.1 1.4,0 0.385,-0.101 0.07,-0.183 -0.7,-0.183 -0.77,0 -1.085,0.082 -0.7,0.183 m -43.105,6.253 c -0.883,0.919 -2.048,2.301 -2.589,3.071 -0.541,0.77 -1.275,1.718 -1.631,2.107 -0.356,0.388 -0.901,1.198 -1.21,1.8 -0.31,0.601 -0.654,1.183 -0.764,1.293 -0.713,0.71 -4.101,7.634 -3.855,7.879 0.1,0.1 0.8,-1.136 1.556,-2.748 1.148,-2.45 6.197,-10.434 7.045,-11.142 1.036,-0.863 3.743,-3.983 3.436,-3.96 -0.211,0.016 -1.105,0.781 -1.988,1.7 m 87.869,0.971 c 0.975,1.045 2.563,3.022 3.528,4.393 0.966,1.371 1.832,2.416 1.925,2.323 0.157,-0.156 -1.369,-2.557 -1.917,-3.016 -0.131,-0.11 -0.677,-0.83 -1.213,-1.6 -1.092,-1.57 -3.418,-4 -3.828,-4 -0.148,0 0.53,0.855 1.505,1.9 m -76.283,6.2 -1.581,1.7 1.7,-1.581 c 1.581,-1.471 1.884,-1.819 1.581,-1.819 -0.065,0 -0.83,0.765 -1.7,1.7 m 84.14,5.6 c 2.464,4.958 2.558,5.179 3.51,8.2 0.693,2.203 1.241,2.889 0.797,1 -0.41,-1.749 -2.679,-7.297 -3.966,-9.7 -0.649,-1.21 -1.378,-2.604 -1.621,-3.097 -0.242,-0.493 -0.557,-0.898 -0.698,-0.9 -0.142,-0.002 0.749,2.022 1.978,4.497 m -107.24,6.706 c -1.155,2.97 -1.32,3.789 -0.681,3.394 0.22,-0.136 0.4,-0.651 0.4,-1.144 0,-0.493 0.143,-1.067 0.318,-1.276 0.432,-0.515 1.394,-3.401 1.2,-3.596 -0.086,-0.086 -0.643,1.094 -1.237,2.622 m 111.765,4.794 c -0.019,0.55 0.141,1.27 0.354,1.6 0.494,0.764 0.494,-0.058 0,-1.6 l -0.32,-1 -0.034,1 m -113.354,0.642 c -0.161,0.16 -0.292,0.567 -0.292,0.905 0,0.45 0.118,0.495 0.445,0.168 0.245,-0.245 0.376,-0.652 0.292,-0.905 -0.085,-0.253 -0.285,-0.329 -0.445,-0.168 m 114.183,2.958 c -0.01,0.77 0.136,1.76 0.325,2.2 0.457,1.064 0.457,-0.603 0,-2.4 l -0.305,-1.2 -0.02,1.4 M 142,190.867 c 0,1.456 0.175,1.403 0.551,-0.167 0.157,-0.653 0.099,-1.1 -0.143,-1.1 -0.225,0 -0.408,0.57 -0.408,1.267 M 258.176,200 c 0,7.683 0.023,7.941 0.367,4.1 0.222,-2.483 0.222,-5.717 0,-8.2 -0.344,-3.841 -0.367,-3.583 -0.367,4.1 m -116.733,-3.767 c -0.374,0.973 -0.288,7.692 0.101,7.932 0.189,0.117 0.344,-1.762 0.344,-4.176 0,-4.532 -0.035,-4.826 -0.445,-3.756 m 103.888,4.367 c 0.002,1.54 0.074,2.121 0.161,1.291 0.087,-0.83 0.085,-2.09 -0.003,-2.8 -0.089,-0.71 -0.16,-0.031 -0.158,1.509 M 154.493,200 c 0,0.77 0.082,1.085 0.183,0.7 0.1,-0.385 0.1,-1.015 0,-1.4 -0.101,-0.385 -0.183,-0.07 -0.183,0.7 m -12.465,9.3 c -0.015,0.605 0.152,1.1 0.372,1.1 0.469,0 0.469,-0.307 0,-1.4 -0.305,-0.709 -0.347,-0.675 -0.372,0.3 m 115.461,-0.1 c -0.153,0.55 -0.262,1.54 -0.243,2.2 0.031,1.092 0.068,1.058 0.406,-0.389 0.423,-1.805 0.279,-3.4 -0.163,-1.811 m -0.801,4.133 c -0.158,0.403 -0.277,1.123 -0.263,1.6 0.024,0.823 0.046,0.817 0.415,-0.108 0.214,-0.536 0.333,-1.256 0.263,-1.6 -0.104,-0.514 -0.178,-0.495 -0.415,0.108 m -112.875,3.623 c 0.333,1.673 1.314,3.803 1.354,2.939 0.018,-0.388 -0.128,-1.018 -0.326,-1.4 -0.197,-0.382 -0.561,-1.145 -0.808,-1.695 -0.444,-0.988 -0.447,-0.986 -0.22,0.156 m 111.618,1.144 c -0.952,3.021 -1.046,3.242 -3.51,8.2 -1.229,2.475 -2.11,4.5 -1.956,4.5 0.652,0 5.632,-10.856 6.231,-13.58 0.429,-1.953 -0.044,-1.409 -0.765,0.88 M 146,222.989 c 0,0.374 2.729,5.79 3.472,6.889 0.416,0.617 1.006,1.617 1.31,2.222 0.304,0.605 0.703,1.1 0.886,1.1 0.182,0 0.338,0.225 0.345,0.5 0.013,0.511 1.771,2.7 2.168,2.7 0.121,0 -0.945,-1.681 -2.368,-3.737 -1.423,-2.055 -3.233,-5.115 -4.022,-6.8 -1.255,-2.681 -1.791,-3.54 -1.791,-2.874 m 102.353,9.69 c -0.978,1.587 -4.995,6.505 -5.73,7.015 -0.296,0.206 -0.294,0.296 0.005,0.3 0.236,0.003 1.136,-0.823 2,-1.836 0.865,-1.013 1.761,-2.048 1.991,-2.3 0.957,-1.047 3.044,-4.329 2.865,-4.507 -0.106,-0.106 -0.615,0.491 -1.131,1.328 m -93.953,4.255 c 0,0.433 3.585,4.014 3.802,3.798 0.099,-0.099 -0.716,-1.063 -1.811,-2.141 -1.095,-1.079 -1.991,-1.824 -1.991,-1.657 m 4.8,4.798 c 0,0.47 3.636,3.965 3.876,3.726 0.12,-0.121 -0.038,-0.453 -0.352,-0.739 -0.314,-0.285 -1.236,-1.139 -2.048,-1.897 -0.812,-0.759 -1.476,-1.249 -1.476,-1.09 m 80.342,0.962 c -0.221,0.535 -5.166,4.613 -6.863,5.659 -0.837,0.516 -1.434,1.025 -1.328,1.131 0.183,0.183 3.171,-1.735 4.777,-3.066 2.356,-1.953 4.006,-3.617 3.796,-3.827 -0.132,-0.133 -0.304,-0.086 -0.382,0.103 m -40.451,2.795 c 0.71,0.088 1.97,0.09 2.8,0.003 0.83,-0.087 0.249,-0.159 -1.291,-0.161 -1.54,-0.002 -2.219,0.069 -1.509,0.158 m -35.491,0.396 c 0,0.209 0.45,0.621 1,0.915 0.55,0.294 1,0.685 1,0.868 0,0.182 0.27,0.332 0.6,0.332 0.33,0 0.6,0.15 0.6,0.332 0,0.183 0.495,0.588 1.1,0.9 0.605,0.312 1.19,0.657 1.3,0.767 1.186,1.191 10.741,5.535 13.7,6.229 1.889,0.444 1.203,-0.104 -1,-0.797 -2.505,-0.79 -2.717,-0.877 -7.211,-2.978 -3.351,-1.567 -6.7,-3.6 -9.705,-5.892 -0.761,-0.581 -1.384,-0.885 -1.384,-0.676 m 62.6,6.036 c -4.837,2.455 -5.065,2.554 -8.1,3.51 -2.289,0.721 -2.833,1.194 -0.88,0.765 2.832,-0.622 13.58,-5.588 13.58,-6.274 0,-0.177 -0.045,-0.302 -0.1,-0.278 -0.055,0.024 -2.08,1.049 -4.5,2.277 m -41,4.879 c 1.542,0.494 2.364,0.494 1.6,0 -0.33,-0.213 -1.05,-0.373 -1.6,-0.354 l -1,0.034 1,0.32 m 28,0 c -0.787,0.509 0.616,0.509 1.8,0 0.733,-0.315 0.716,-0.346 -0.2,-0.366 -0.55,-0.012 -1.27,0.153 -1.6,0.366 m -24.6,0.8 c 1.797,0.457 3.464,0.457 2.4,0 -0.44,-0.189 -1.43,-0.335 -2.2,-0.325 l -1.4,0.02 1.2,0.305 m 20.4,0 c -1.064,0.457 0.603,0.457 2.4,0 l 1.2,-0.305 -1.4,-0.02 c -0.77,-0.01 -1.76,0.136 -2.2,0.325 m -13.1,0.943 c 2.483,0.222 5.717,0.222 8.2,0 3.841,-0.344 3.583,-0.367 -4.1,-0.367 -7.683,0 -7.941,0.023 -4.1,0.367 m 1.7,5.285 c -0.33,0.1 -2.31,0.356 -4.4,0.569 -5.51,0.563 -7.177,0.842 -7.426,1.245 -0.122,0.197 -0.74,0.358 -1.374,0.358 -0.634,0 -1.276,0.199 -1.426,0.443 -0.176,0.284 -0.006,0.371 0.476,0.243 0.412,-0.11 1.56,-0.389 2.55,-0.619 0.99,-0.23 2.25,-0.529 2.8,-0.665 2.741,-0.678 11.375,-1.217 15.034,-0.937 4.917,0.375 11.938,1.752 15.075,2.955 0.38,0.146 0.691,0.087 0.691,-0.132 0,-0.218 -0.495,-0.497 -1.1,-0.618 -2.76,-0.555 -3.554,-0.753 -4.3,-1.073 -2.01,-0.861 -15.023,-2.248 -16.6,-1.769 m -17,3.372 c -0.136,0.22 -0.676,0.4 -1.2,0.4 -0.524,0 -1.064,0.18 -1.2,0.4 -0.136,0.22 -0.597,0.4 -1.024,0.4 -0.427,0 -0.776,0.169 -0.776,0.376 0,0.206 1.305,-0.088 2.9,-0.655 3.295,-1.169 3.569,-1.321 2.39,-1.321 -0.463,0 -0.954,0.18 -1.09,0.4 m 39.433,0.535 c 0.628,0.508 3.567,1.383 3.567,1.062 0,-0.218 -0.349,-0.397 -0.776,-0.397 -0.427,0 -0.888,-0.18 -1.024,-0.4 -0.136,-0.22 -0.627,-0.4 -1.09,-0.4 -0.464,0 -0.768,0.061 -0.677,0.135 M 169.6,272.4 c -0.55,0.43 -1.225,0.786 -1.5,0.791 -0.275,0.005 -0.5,0.194 -0.5,0.419 0,0.24 0.458,0.169 1.1,-0.169 1.49,-0.786 2.791,-1.815 2.3,-1.819 -0.22,-0.002 -0.85,0.348 -1.4,0.778 m 60,0 c 0.55,0.43 1.18,0.782 1.4,0.782 0.22,0 -0.05,-0.352 -0.6,-0.782 -0.55,-0.43 -1.18,-0.782 -1.4,-0.782 -0.22,0 0.05,0.352 0.6,0.782 m -63.895,2.525 c -1.751,1.184 -1.668,1.718 0.09,0.579 0.767,-0.497 1.397,-1.039 1.4,-1.204 0.006,-0.39 0.021,-0.396 -1.49,0.625 m 67.264,-0.576 c 0.39,0.633 2.632,2.15 2.626,1.778 -0.003,-0.18 -0.652,-0.746 -1.443,-1.259 -0.792,-0.513 -1.324,-0.746 -1.183,-0.519 m -71.412,3.94 c -2.968,2.633 -5.747,5.484 -7.057,7.238 -0.605,0.81 -1.319,1.705 -1.586,1.988 -0.267,0.283 -0.801,1.048 -1.186,1.7 -0.385,0.652 -0.842,1.185 -1.014,1.185 -0.173,0 -0.314,0.36 -0.314,0.8 0,0.44 -0.158,0.8 -0.351,0.8 -0.194,0 -0.576,0.54 -0.849,1.2 -0.273,0.66 -0.655,1.2 -0.849,1.2 -0.193,0 -0.351,0.228 -0.351,0.506 0,0.278 -0.519,1.583 -1.154,2.9 -1.445,2.999 -1.892,4.393 -1.289,4.02 0.244,-0.15 0.443,-0.532 0.443,-0.849 0,-0.745 2.649,-6.093 4.545,-9.177 3.019,-4.91 8.405,-11.035 12.416,-14.118 0.639,-0.491 1.069,-0.986 0.956,-1.099 -0.113,-0.113 -1.175,0.655 -2.36,1.706 M 236,276.8 c 0,0.22 0.165,0.4 0.368,0.4 0.202,0 1.352,0.9 2.556,2 1.203,1.1 2.317,2 2.474,2 0.276,0 -0.44,-0.708 -3.535,-3.5 -1.531,-1.381 -1.863,-1.541 -1.863,-0.9 m -43.4,0.884 c -4.36,0.816 -10.947,2.902 -10.518,3.331 0.106,0.107 0.986,-0.097 1.956,-0.451 36.184,-13.241 71.087,20.972 58.344,57.192 -4.495,12.778 -14.804,22.91 -27.875,27.398 -25.282,8.68 -52.599,-6.724 -58.439,-32.954 -4.412,-19.819 6.13,-41.66 24.132,-49.992 0.88,-0.408 1.395,-0.809 1.145,-0.893 -0.435,-0.145 -1.142,0.2 -4.745,2.316 -8.529,5.008 -16.585,15.052 -19.706,24.569 -1.958,5.973 -2.245,7.817 -2.241,14.4 0.007,9.377 1.487,14.678 6.701,24 2.209,3.948 8.52,10.54 12.884,13.456 35.116,23.467 79.897,-7.996 69.82,-49.056 -2.929,-11.938 -13.246,-24.375 -24.512,-29.553 -8.01,-3.681 -19.104,-5.23 -26.946,-3.763 m 50.222,5.408 c 0.758,0.82 1.485,1.585 1.616,1.7 0.131,0.114 1.346,1.709 2.7,3.543 1.354,1.834 2.462,3.049 2.462,2.7 0,-0.349 -0.15,-0.635 -0.332,-0.635 -0.183,0 -0.587,-0.495 -0.898,-1.1 -0.31,-0.605 -0.844,-1.37 -1.186,-1.7 -0.342,-0.33 -1.06,-1.23 -1.596,-2 -1.121,-1.61 -3.423,-4 -3.853,-4 -0.161,0 0.328,0.671 1.087,1.492 m 7.086,9.408 c 0.745,0.917 3.122,5.67 4.052,8.1 0.505,1.32 1.066,2.76 1.248,3.2 0.181,0.44 0.443,1.316 0.58,1.947 0.138,0.631 0.355,1.043 0.483,0.916 0.379,-0.38 -1.033,-4.594 -2.614,-7.801 -0.471,-0.956 -0.857,-1.991 -0.857,-2.3 0,-0.309 -0.18,-0.562 -0.4,-0.562 -0.22,0 -0.4,-0.36 -0.4,-0.8 0,-0.44 -0.136,-0.8 -0.302,-0.8 -0.167,0 -0.542,-0.54 -0.834,-1.2 -0.292,-0.66 -0.718,-1.2 -0.947,-1.2 -0.282,0 -0.285,0.16 -0.009,0.5 m -106.079,12.929 c -0.148,0.586 -0.178,1.155 -0.068,1.265 0.11,0.11 0.32,-0.279 0.468,-0.865 0.147,-0.587 0.177,-1.156 0.067,-1.266 -0.11,-0.11 -0.32,0.279 -0.467,0.866 m 112.76,2.771 c 0.384,2.695 0.995,5.516 1.246,5.751 0.396,0.369 -0.195,-3.275 -0.849,-5.245 -0.406,-1.22 -0.519,-1.364 -0.397,-0.506 m -113.783,1.1 c 0.005,0.728 0.08,0.785 0.394,0.3 0.501,-0.776 0.501,-1.2 0,-1.2 -0.22,0 -0.397,0.405 -0.394,0.9 m -0.506,2.531 c -0.165,0.166 -0.289,0.857 -0.275,1.536 0.025,1.206 0.034,1.212 0.415,0.258 0.429,-1.073 0.335,-2.273 -0.14,-1.794 M 258.167,322.6 c -10e-4,7.558 0.019,7.771 0.362,3.863 0.216,-2.471 0.217,-5.692 0,-8 -0.332,-3.552 -0.362,-3.219 -0.362,4.137 m -116.7,-3.933 c -0.383,0.382 -0.319,7.032 0.073,7.65 0.183,0.289 0.335,-1.346 0.343,-3.7 0.009,-2.319 -0.022,-4.217 -0.067,-4.217 -0.046,0 -0.203,0.12 -0.349,0.267 m 0.561,13.233 c -0.015,0.715 0.152,1.3 0.372,1.3 0.475,0 0.475,-0.695 0,-1.8 -0.288,-0.67 -0.348,-0.589 -0.372,0.5 m 115.461,0.1 c -0.153,0.55 -0.262,1.54 -0.243,2.2 0.031,1.092 0.068,1.058 0.406,-0.389 0.423,-1.805 0.279,-3.4 -0.163,-1.811 m -114.683,3.9 c -0.003,0.495 0.174,0.9 0.394,0.9 0.501,0 0.501,-0.424 0,-1.2 -0.314,-0.485 -0.389,-0.428 -0.394,0.3 m 113.886,-0.058 c -0.161,0.16 -0.281,0.756 -0.267,1.325 l 0.026,1.033 0.386,-0.966 c 0.416,-1.04 0.33,-1.867 -0.145,-1.392 M 143.634,338.8 c 0.012,0.33 0.177,0.96 0.366,1.4 l 0.344,0.8 0.022,-0.8 c 0.012,-0.44 -0.153,-1.07 -0.366,-1.4 -0.345,-0.533 -0.385,-0.533 -0.366,0 m 112.233,0.267 c -0.147,0.146 -0.267,0.65 -0.267,1.12 0,0.469 -0.143,1.024 -0.318,1.233 -0.175,0.209 -0.561,1.1 -0.857,1.98 -1.268,3.766 -4.408,9.606 -7.154,13.3 -0.531,0.715 -0.842,1.3 -0.69,1.3 0.414,0 1.149,-0.865 1.787,-2.1 0.312,-0.605 0.717,-1.1 0.9,-1.1 0.182,0 0.332,-0.193 0.332,-0.428 0,-0.235 0.506,-1.18 1.124,-2.1 1.188,-1.768 3.676,-6.84 3.676,-7.495 0,-0.213 0.18,-0.745 0.4,-1.182 0.971,-1.929 1.114,-2.292 1.381,-3.508 0.28,-1.276 0.2,-1.535 -0.314,-1.02 m -110.464,4.983 c 0.565,1.858 3.519,7.95 3.855,7.95 0.188,0 0.342,0.19 0.342,0.422 0,0.449 2.999,5.017 3.878,5.907 0.932,0.943 0.552,0.025 -0.608,-1.471 -2.368,-3.053 -6.87,-11.354 -6.87,-12.667 0,-0.299 -0.199,-0.667 -0.443,-0.817 -0.303,-0.188 -0.352,0.025 -0.154,0.676 m 8.997,15.515 c 0,1.351 10.826,10.832 14.9,13.051 2.999,1.632 2.234,0.923 -2,-1.854 -2.522,-1.653 -5.49,-4.144 -8.4,-7.047 -2.475,-2.469 -4.5,-4.337 -4.5,-4.15 m 89.14,1.745 c -1.022,1.149 -1.793,2.16 -1.712,2.245 0.201,0.21 3.772,-3.595 3.772,-4.019 0,-0.52 -0.079,-0.452 -2.06,1.774 m -4.54,4.564 c -3.549,3.27 -9.003,7.039 -12.2,8.431 -0.77,0.335 -1.196,0.682 -0.946,0.77 0.249,0.088 1.059,-0.203 1.8,-0.647 0.74,-0.444 2.066,-1.197 2.946,-1.674 3.088,-1.672 11.836,-8.789 10.742,-8.738 -0.188,0.009 -1.242,0.845 -2.342,1.858 m -67.4,8.028 c 0,0.388 2.38,1.451 2.648,1.183 0.111,-0.111 -0.377,-0.49 -1.085,-0.843 -1.468,-0.733 -1.563,-0.754 -1.563,-0.34 m 11.6,4.898 c 0,0.22 0.405,0.397 0.9,0.394 0.728,-0.005 0.785,-0.08 0.3,-0.394 -0.776,-0.501 -1.2,-0.501 -1.2,0 m 32.4,0 c -0.485,0.314 -0.428,0.389 0.3,0.394 0.495,0.003 0.9,-0.174 0.9,-0.394 0,-0.501 -0.424,-0.501 -1.2,0 m -29.4,0.8 c 0.136,0.22 0.732,0.387 1.324,0.372 0.961,-0.025 0.99,-0.065 0.276,-0.372 -1.111,-0.478 -1.895,-0.478 -1.6,0 m 26.4,0 c -0.771,0.331 -0.769,0.345 0.076,0.372 0.482,0.015 0.988,-0.152 1.124,-0.372 0.292,-0.473 -0.099,-0.473 -1.2,0 m -22.416,0.774 c 0.145,0.235 0.913,0.426 1.706,0.426 1.765,0 1.613,-0.203 -0.429,-0.572 -1.049,-0.19 -1.456,-0.143 -1.277,0.146 M 207.8,380.4 c -1.133,0.288 -1.107,0.308 0.476,0.353 0.922,0.026 1.788,-0.133 1.924,-0.353 0.279,-0.452 -0.625,-0.452 -2.4,0 m -10,0.8 c 1.098,0.472 3.87,0.472 4.6,0 0.415,-0.268 -0.324,-0.381 -2.4,-0.366 -2.043,0.015 -2.745,0.132 -2.2,0.366"
       stroke="none"
       fill="#3b3c3b"
       fill-rule="evenodd" />
    <path
       id="path6"
       d="m 195,32.014 c -1.54,0.163 -3.7,0.506 -4.8,0.761 -1.1,0.255 -2.63,0.609 -3.4,0.787 -3.902,0.899 -11.656,5.034 -15.441,8.235 -3.027,2.56 -7.359,6.976 -7.359,7.503 0,0.223 -0.339,0.7 -0.754,1.06 -1.536,1.332 -6.176,10.322 -7.04,13.64 -0.143,0.55 -0.449,1.63 -0.68,2.4 -1.558,5.194 -1.56,15.385 -0.003,21.8 1.061,4.374 4.443,12.223 5.889,13.669 0.294,0.295 0.65,0.895 0.789,1.333 0.139,0.439 0.409,0.798 0.599,0.798 0.19,0 0.453,0.336 0.583,0.748 0.399,1.255 7.734,8.326 10.764,10.376 15.81,10.698 35.863,10.731 51.64,0.085 3.211,-2.167 11.013,-9.689 11.013,-10.617 0,-0.326 0.142,-0.592 0.315,-0.592 0.297,0 1.862,-2.441 3.589,-5.6 10.301,-18.838 4.568,-43.955 -13.146,-57.6 -3.22,-2.48 -11.22,-6.514 -14.358,-7.24 -0.77,-0.178 -2.21,-0.52 -3.2,-0.761 -4.161,-1.012 -9.982,-1.317 -15,-0.785 m 9.123,0.404 c 14.802,2.148 24.575,7.686 32.427,18.375 2.436,3.315 5.45,8.805 5.45,9.925 0,0.397 0.149,0.893 0.33,1.102 0.316,0.363 0.833,2.024 1.643,5.28 1.867,7.502 1.176,20.31 -1.371,25.417 -0.331,0.663 -0.602,1.423 -0.602,1.689 0,0.266 -0.684,1.813 -1.52,3.439 -14.312,27.82 -50.619,33.624 -72.485,11.587 C 163.425,104.627 158,96.307 158,93.905 c 0,-0.3 -0.149,-0.716 -0.33,-0.925 -0.511,-0.587 -1.838,-5.563 -2.342,-8.78 -0.472,-3.01 -0.36,-10.81 0.204,-14.2 0.883,-5.304 0.951,-5.604 1.312,-5.827 0.196,-0.121 0.356,-0.649 0.356,-1.173 0,-0.524 0.18,-1.064 0.4,-1.2 0.22,-0.136 0.4,-0.509 0.4,-0.828 0,-0.825 1.545,-4.076 2.872,-6.044 0.621,-0.92 1.128,-1.803 1.128,-1.963 0,-1.122 7.437,-9.252 10.598,-11.585 5.416,-3.998 12.368,-7.082 18.402,-8.162 7.294,-1.307 8.942,-1.407 13.123,-0.8"
       stroke="none"
       fill="#ab243c"
       fill-rule="evenodd" />
    <path
       id="path7"
       d="m 198.9,31.487 c 0.605,0.091 1.595,0.091 2.2,0 0.605,-0.092 0.11,-0.167 -1.1,-0.167 -1.21,0 -1.705,0.075 -1.1,0.167 m -29.7,79.838 c 0,0.069 0.585,0.654 1.3,1.3 l 1.3,1.175 -1.175,-1.3 c -1.095,-1.212 -1.425,-1.484 -1.425,-1.175 m 28.5,12.171 c 1.265,0.079 3.335,0.079 4.6,0 1.265,-0.08 0.23,-0.145 -2.3,-0.145 -2.53,0 -3.565,0.065 -2.3,0.145 m -3.785,31.632 c -0.377,0.15 2.361,0.272 6.085,0.272 3.724,0 6.462,-0.122 6.085,-0.272 -0.377,-0.149 -3.115,-0.272 -6.085,-0.272 -2.97,0 -5.708,0.123 -6.085,0.272 M 189.6,156 c -0.758,0.49 0.47,0.49 2,0 0.98,-0.314 0.976,-0.321 -0.2,-0.354 -0.66,-0.019 -1.47,0.141 -1.8,0.354 m 18.8,0 c 1.53,0.49 2.758,0.49 2,0 -0.33,-0.213 -1.14,-0.373 -1.8,-0.354 -1.176,0.033 -1.18,0.04 -0.2,0.354 m -23,1.2 c -1.147,0.531 -1.364,0.749 -0.767,0.77 0.459,0.017 0.968,-0.105 1.133,-0.27 0.165,-0.165 0.96,-0.506 1.767,-0.758 1.186,-0.37 1.275,-0.46 0.467,-0.47 -0.55,-0.007 -1.72,0.321 -2.6,0.728 m 26.2,-0.646 c 0,0.19 3.826,1.457 4.275,1.416 0.553,-0.05 -2.832,-1.509 -3.575,-1.54 -0.385,-0.017 -0.7,0.039 -0.7,0.124 m -30.758,2.458 c -1.187,0.553 -2.063,1.1 -1.947,1.216 0.116,0.116 0.868,-0.158 1.67,-0.608 0.803,-0.451 1.713,-0.82 2.024,-0.82 0.31,0 0.675,-0.18 0.811,-0.4 0.384,-0.621 -0.219,-0.477 -2.558,0.612 M 216.6,158.4 c 0.136,0.22 0.488,0.4 0.783,0.4 0.768,0 6.986,3.368 8.617,4.667 7.749,6.173 16,17.024 16,21.041 0,0.307 0.135,0.693 0.3,0.858 0.165,0.165 0.506,0.96 0.758,1.767 0.252,0.807 0.477,1.173 0.5,0.815 0.325,-5.047 -8.907,-18.502 -16.698,-24.336 -3.947,-2.956 -11.117,-6.598 -10.26,-5.212 m -40.101,2.982 c -5.389,3.082 -12.924,10.743 -15.458,15.718 -1.086,2.133 -0.499,1.493 1.709,-1.861 2.664,-4.048 8.441,-9.825 12.489,-12.489 2.749,-1.81 3.475,-2.365 3.061,-2.345 -0.055,0.002 -0.865,0.442 -1.801,0.977 m -17.534,19.583 c -0.576,1.257 -0.943,2.39 -0.815,2.518 0.127,0.127 0.34,-0.109 0.474,-0.526 0.133,-0.416 0.592,-1.457 1.019,-2.314 0.427,-0.856 0.685,-1.648 0.573,-1.761 -0.113,-0.112 -0.676,0.825 -1.251,2.083 m -1.886,4.685 c -0.374,0.977 -0.665,2.131 -0.647,2.563 0.021,0.545 0.153,0.418 0.429,-0.413 0.219,-0.66 0.585,-1.587 0.815,-2.061 0.229,-0.473 0.341,-1.087 0.249,-1.363 -0.092,-0.277 -0.473,0.296 -0.846,1.274 m 86.577,3.95 c 0,0.55 0.155,1.36 0.344,1.8 0.313,0.729 0.344,0.712 0.344,-0.2 0,-0.55 -0.155,-1.36 -0.344,-1.8 -0.313,-0.729 -0.344,-0.712 -0.344,0.2 m -87.783,0.153 c -0.15,0.392 -0.257,1.193 -0.237,1.78 0.034,0.995 0.062,0.976 0.421,-0.27 0.416,-1.444 0.266,-2.681 -0.184,-1.51 M 244.6,200 c 0,3.986 0.117,6.832 0.26,6.324 0.143,-0.508 0.26,-3.354 0.26,-6.324 0,-2.97 -0.117,-5.816 -0.26,-6.324 -0.143,-0.508 -0.26,2.338 -0.26,6.324 m -89.548,-5.9 c -0.327,1.22 -0.264,11.128 0.076,11.985 0.15,0.377 0.272,-2.368 0.272,-6.1 0,-3.732 -0.024,-6.785 -0.053,-6.785 -0.03,0 -0.162,0.405 -0.295,0.9 m 0.594,14.5 c -0.019,0.66 0.141,1.47 0.354,1.8 0.49,0.758 0.49,-0.47 0,-2 -0.314,-0.98 -0.321,-0.976 -0.354,0.2 m 88.132,0.778 c -0.151,0.803 -0.174,1.559 -0.052,1.682 0.122,0.122 0.346,-0.435 0.496,-1.238 0.151,-0.803 0.174,-1.559 0.052,-1.682 -0.122,-0.122 -0.346,0.435 -0.496,1.238 M 156.43,212.3 c 0.031,0.743 1.49,4.128 1.54,3.575 0.041,-0.449 -1.226,-4.275 -1.416,-4.275 -0.085,0 -0.141,0.315 -0.124,0.7 m 86.576,0.604 c -0.163,0.828 -0.456,1.603 -0.651,1.724 -0.195,0.121 -0.355,0.49 -0.355,0.821 0,1.021 -4.148,9.116 -5.201,10.151 -0.112,0.11 -0.733,0.92 -1.381,1.8 -1.515,2.059 -5.959,6.503 -8.018,8.018 -0.88,0.648 -1.69,1.269 -1.8,1.381 -1.008,1.026 -9.122,5.201 -10.108,5.201 -0.307,0 -0.693,0.135 -0.858,0.3 -0.165,0.165 -0.96,0.506 -1.767,0.758 -0.807,0.252 -1.173,0.477 -0.815,0.5 3.464,0.223 14.61,-6.248 19.934,-11.572 5.405,-5.404 12.399,-17.602 11.506,-20.064 -0.104,-0.287 -0.323,0.155 -0.486,0.982 M 158,216.828 c 0,2.145 6.037,11.132 10.274,15.295 5.599,5.502 16.192,11.659 19.674,11.435 0.358,-0.023 -0.008,-0.248 -0.815,-0.5 -0.807,-0.252 -1.602,-0.593 -1.767,-0.758 -0.165,-0.165 -0.551,-0.3 -0.858,-0.3 -4.017,0 -14.868,-8.251 -21.041,-16 -1.299,-1.631 -4.667,-7.849 -4.667,-8.617 0,-0.295 -0.18,-0.647 -0.4,-0.783 -0.22,-0.136 -0.4,-0.033 -0.4,0.228 M 189.4,244 c 0.44,0.189 1.25,0.344 1.8,0.344 0.912,0 0.929,-0.031 0.2,-0.344 -0.44,-0.189 -1.25,-0.344 -1.8,-0.344 -0.912,0 -0.929,0.031 -0.2,0.344 m 19.2,0 c -0.729,0.313 -0.712,0.344 0.2,0.344 0.55,0 1.36,-0.155 1.8,-0.344 0.729,-0.313 0.712,-0.344 -0.2,-0.344 -0.55,0 -1.36,0.155 -1.8,0.344 m -14.924,0.86 c 0.508,0.143 3.354,0.26 6.324,0.26 2.97,0 5.816,-0.117 6.324,-0.26 0.508,-0.143 -2.338,-0.26 -6.324,-0.26 -3.986,0 -6.832,0.117 -6.324,0.26"
       stroke="none"
       fill="#674f2d"
       fill-rule="evenodd" />
    <path
       id="path8"
       d="m 129.043,13.432 c -0.367,0.956 -0.28,372.691 0.087,373.269 0.254,0.399 14.738,0.481 71.094,0.4 L 271,387 V 200 13 l -70.857,-0.101 c -64.354,-0.092 -70.879,-0.043 -71.1,0.533 M 270.6,200 V 386.6 H 200 129.4 l -0.1,-186.376 c -0.081,-148.837 0,-186.44 0.4,-186.695 0.275,-0.175 32.09,-0.276 70.7,-0.224 L 270.6,13.4 V 200 m -79.4,-180.167 -2.6,0.536 2.4,-0.265 c 3.12,-0.344 14.915,-0.342 18,0.004 l 2.4,0.269 -2.8,-0.564 c -3.561,-0.717 -13.879,-0.705 -17.4,0.02 m -4.6,0.836 c -6.708,1.481 -22.597,9.219 -22.6,11.006 0,0.152 1.692,-0.856 3.761,-2.239 5.474,-3.66 10.706,-6.064 17.039,-7.831 3.592,-1.002 4.692,-1.574 1.8,-0.936 m 26.2,0.18 c 9.552,2.935 11.837,3.879 17.189,7.096 4.174,2.509 7.108,4.81 10.816,8.484 2.74,2.715 4.342,4.666 8.518,10.381 0.398,0.546 0.32,0.271 -0.175,-0.61 -2.871,-5.112 -14.863,-17.4 -16.98,-17.4 -0.123,0 -0.976,-0.503 -1.896,-1.119 -4.158,-2.782 -13.224,-6.468 -17.326,-7.045 l -1.546,-0.218 1.4,0.431 M 196.4,31.6 c -0.824,0.264 -0.859,0.326 -0.2,0.354 0.44,0.019 1.07,-0.141 1.4,-0.354 0.701,-0.453 0.214,-0.453 -1.2,0 m 6,-0.018 c 0.33,0.223 0.945,0.409 1.367,0.412 1.023,0.008 0.704,-0.221 -0.767,-0.55 -0.876,-0.196 -1.038,-0.159 -0.6,0.138 M 159.293,35.9 c -5.327,5.273 -8.328,9.358 -11.448,15.587 -1.83,3.653 -1.113,2.859 1.061,-1.174 2.93,-5.44 6.066,-9.594 10.781,-14.283 2.229,-2.216 3.939,-4.03 3.8,-4.03 -0.139,0 -2.026,1.755 -4.194,3.9 m 72.88,9 c 1.995,2.035 3.708,3.649 3.806,3.587 0.212,-0.133 -6.854,-7.287 -7.198,-7.287 -0.129,0 1.397,1.665 3.392,3.7 m -67.169,2.296 c -0.63,0.658 -1.069,1.26 -0.975,1.338 0.094,0.078 0.684,-0.46 1.31,-1.196 1.415,-1.661 1.206,-1.75 -0.335,-0.142 m 85.009,1.08 c -0.007,0.262 0.144,0.574 0.336,0.692 0.191,0.119 1.033,1.658 1.87,3.42 0.837,1.763 1.582,3.144 1.657,3.07 0.198,-0.199 -2.494,-5.924 -3.225,-6.858 -0.344,-0.44 -0.631,-0.586 -0.638,-0.324 m -87.409,2.12 c -0.63,0.658 -1.062,1.279 -0.96,1.381 0.102,0.102 0.682,-0.436 1.288,-1.196 1.355,-1.698 1.204,-1.784 -0.328,-0.185 m 74.425,0.042 c 0.644,0.791 1.252,1.37 1.35,1.287 0.099,-0.083 -0.428,-0.73 -1.17,-1.438 L 235.858,49 l 1.171,1.438 m 16.983,5.962 c 0,0.33 0.175,0.87 0.388,1.2 0.345,0.533 0.388,0.533 0.388,0 0,-0.33 -0.175,-0.87 -0.388,-1.2 -0.345,-0.533 -0.388,-0.533 -0.388,0 m -108.635,0.643 c -0.133,0.416 -0.407,1.17 -0.61,1.676 -0.202,0.505 -0.357,1.135 -0.345,1.4 0.012,0.264 0.378,-0.398 0.814,-1.472 0.436,-1.074 0.7,-2.044 0.587,-2.157 -0.112,-0.112 -0.313,0.136 -0.446,0.553 m 109.451,1.633 c 0.09,1.039 0.716,1.92 0.744,1.048 0.015,-0.482 -0.152,-0.988 -0.372,-1.124 -0.22,-0.136 -0.387,-0.102 -0.372,0.076 m -110.979,2.739 c -0.137,0.358 -0.233,1.041 -0.213,1.518 0.026,0.614 0.149,0.475 0.423,-0.477 0.398,-1.384 0.235,-2.198 -0.21,-1.041 M 255.634,61.2 c 0.012,0.33 0.177,0.96 0.366,1.4 l 0.344,0.8 0.022,-0.8 c 0.012,-0.44 -0.153,-1.07 -0.366,-1.4 -0.345,-0.533 -0.385,-0.533 -0.366,0 m -112.585,3.415 c -0.137,0.358 -0.229,1.221 -0.205,1.918 0.038,1.104 0.089,1.038 0.392,-0.508 0.357,-1.82 0.258,-2.568 -0.187,-1.41 m 113.631,0.876 c 0.31,2.009 0.52,2.17 0.52,0.399 0,-0.793 -0.169,-1.547 -0.376,-1.675 -0.225,-0.139 -0.283,0.376 -0.144,1.276 m -101.324,-0.52 c -0.121,0.314 -0.152,0.989 -0.07,1.5 0.109,0.683 0.202,0.533 0.351,-0.571 0.21,-1.553 0.099,-1.919 -0.281,-0.929 m 88.996,0.716 c 0.185,1.111 0.241,1.168 0.367,0.367 0.082,-0.521 -0.016,-1.111 -0.218,-1.313 -0.222,-0.222 -0.28,0.152 -0.149,0.946 m -89.787,2.461 c -0.116,0.301 -0.152,1.516 -0.081,2.7 l 0.129,2.152 0.194,-2.701 c 0.194,-2.718 0.145,-3.16 -0.242,-2.151 m 90.628,1.571 0.192,2.081 0.133,-1.754 c 0.073,-0.965 -0.013,-1.902 -0.192,-2.081 -0.179,-0.18 -0.239,0.61 -0.133,1.754 m 12.289,0.881 c 0.126,1.76 0.295,3.275 0.374,3.367 0.308,0.356 0.068,-5.012 -0.258,-5.767 -0.209,-0.484 -0.255,0.462 -0.116,2.4 M 142.256,68.884 c -0.135,0.504 -0.22,2.266 -0.19,3.916 l 0.055,3 0.288,-3.8 c 0.3,-3.947 0.264,-4.672 -0.153,-3.116 m 11.611,5.383 c -0.368,0.368 -0.338,6.842 0.033,7.071 0.165,0.102 0.3,-1.507 0.3,-3.576 0,-2.069 -0.015,-3.762 -0.033,-3.762 -0.019,0 -0.154,0.12 -0.3,0.267 m 92.13,3.615 c -0.108,2.025 -0.054,3.538 0.12,3.363 0.175,-0.176 0.263,-1.833 0.197,-3.682 l -0.12,-3.363 -0.197,3.682 M 258.114,77.4 c 0.003,1.1 0.081,1.503 0.173,0.895 0.092,-0.609 0.09,-1.509 -0.005,-2 -0.095,-0.492 -0.171,0.005 -0.168,1.105 M 142.06,82.2 c -0.002,1.76 0.142,3.56 0.32,4 0.182,0.45 0.243,-0.773 0.139,-2.8 -0.24,-4.68 -0.455,-5.241 -0.459,-1.2 m 115.611,0.4 c -0.044,0.88 -0.172,2.32 -0.286,3.2 -0.179,1.39 -0.15,1.471 0.222,0.618 0.235,-0.54 0.364,-1.98 0.286,-3.2 -0.11,-1.73 -0.159,-1.866 -0.222,-0.618 m -103.225,1.876 c -0.025,1.252 0.089,2.36 0.254,2.462 0.165,0.102 0.246,-0.652 0.18,-1.676 -0.187,-2.921 -0.383,-3.276 -0.434,-0.786 m 90.747,0.605 c -0.106,1.144 -0.046,1.934 0.133,1.754 0.179,-0.179 0.265,-1.116 0.192,-2.081 L 245.385,83 l -0.192,2.081 m -102.387,3.352 c 0.003,0.752 0.186,1.637 0.406,1.967 0.279,0.419 0.321,0.058 0.138,-1.2 -0.325,-2.241 -0.552,-2.56 -0.544,-0.767 m 12.394,0.343 c 0,0.647 0.142,1.265 0.316,1.372 0.174,0.108 0.245,-0.421 0.157,-1.176 -0.197,-1.681 -0.473,-1.795 -0.473,-0.196 M 256.859,88.4 c -0.039,0.55 -0.17,1.45 -0.292,2 -0.191,0.862 -0.159,0.902 0.23,0.291 0.249,-0.389 0.38,-1.289 0.292,-2 -0.125,-1.004 -0.176,-1.069 -0.23,-0.291 m -12.507,0.713 c -0.131,0.794 -0.073,1.168 0.149,0.946 0.202,-0.202 0.3,-0.792 0.218,-1.313 -0.126,-0.801 -0.182,-0.744 -0.367,0.367 M 143.646,92 c -0.019,0.55 0.141,1.27 0.354,1.6 0.494,0.764 0.494,-0.058 0,-1.6 l -0.32,-1 -0.034,1 m 112.031,1.259 c -0.254,1.011 -0.582,2.176 -0.729,2.589 -0.173,0.491 -0.131,0.613 0.124,0.352 0.564,-0.58 1.456,-3.615 1.247,-4.243 -0.098,-0.295 -0.387,0.291 -0.642,1.302 m -111.255,1.646 c -0.012,0.388 0.145,1.018 0.349,1.4 0.204,0.382 0.478,1.036 0.609,1.452 0.131,0.417 0.331,0.665 0.443,0.553 0.113,-0.113 -0.151,-1.083 -0.587,-2.157 -0.436,-1.074 -0.802,-1.636 -0.814,-1.248 M 254.2,97.6 c -0.15,0.473 -0.183,0.95 -0.073,1.06 0.11,0.11 0.323,-0.187 0.473,-0.66 0.15,-0.473 0.183,-0.95 0.073,-1.06 -0.11,-0.11 -0.323,0.187 -0.473,0.66 M 146,99.222 c 0,3.487 9.726,17.121 15.738,22.062 1.198,0.984 0.441,0.076 -1.805,-2.166 -4.987,-4.979 -8.508,-9.754 -11.519,-15.621 C 147.086,100.91 146,98.986 146,99.222 m 106.278,3.056 c -0.807,1.686 -1.386,3.148 -1.285,3.248 0.101,0.101 0.828,-1.212 1.616,-2.917 0.787,-1.706 1.366,-3.168 1.285,-3.248 -0.081,-0.081 -0.808,1.232 -1.616,2.917 m -3.792,6.822 c -6.162,9.468 -18.175,19.357 -26.886,22.131 -2.863,0.912 -6.537,2.325 -6.099,2.346 1.647,0.077 10.243,-3.578 14.749,-6.272 7.396,-4.422 15.872,-12.918 19.755,-19.805 1.428,-2.532 0.608,-1.668 -1.519,1.6 m -71.286,8.279 c 0,0.11 0.54,0.48 1.2,0.821 0.66,0.341 1.2,0.531 1.2,0.421 0,-0.11 -0.54,-0.48 -1.2,-0.821 -0.66,-0.341 -1.2,-0.531 -1.2,-0.421 m -13.2,5.755 c 0,0.152 0.72,0.722 1.6,1.266 0.88,0.544 1.6,1.126 1.6,1.294 0,0.168 0.193,0.306 0.428,0.306 0.235,0 1.18,0.516 2.1,1.146 2.469,1.693 7.872,4.346 7.872,3.866 0,-0.093 -1.363,-0.807 -3.029,-1.587 -1.665,-0.78 -4.725,-2.577 -6.8,-3.994 -2.074,-1.416 -3.771,-2.45 -3.771,-2.297 m 15.8,8.931 c 2.102,0.863 7.057,2.335 7.862,2.335 1.07,0 -0.154,-0.491 -2.919,-1.17 -1.619,-0.398 -3.64,-1.018 -4.492,-1.377 -0.852,-0.359 -1.752,-0.643 -2,-0.631 -0.248,0.012 0.449,0.391 1.549,0.843 m 32.8,1.935 -0.8,0.344 h 0.8 c 0.44,0 1.16,-0.155 1.6,-0.344 l 0.8,-0.344 h -0.8 c -0.44,0 -1.16,0.155 -1.6,0.344 m -23,0.8 c 0.55,0.176 1.54,0.32 2.2,0.32 1.167,0 1.172,-0.009 0.2,-0.32 -0.55,-0.176 -1.54,-0.32 -2.2,-0.32 -1.167,0 -1.172,0.009 -0.2,0.32 m 18.4,0 c -0.972,0.311 -0.967,0.32 0.2,0.32 0.66,0 1.65,-0.144 2.2,-0.32 0.972,-0.311 0.967,-0.32 -0.2,-0.32 -0.66,0 -1.65,0.144 -2.2,0.32 m -11.3,0.777 c 1.815,0.139 4.785,0.139 6.6,0 2.526,-0.194 1.752,-0.253 -3.3,-0.253 -5.052,0 -5.826,0.059 -3.3,0.253 m 2.6,6.299 c 0.385,0.1 1.015,0.1 1.4,0 0.385,-0.101 0.07,-0.183 -0.7,-0.183 -0.77,0 -1.085,0.082 -0.7,0.183 m -8.1,0.524 c -0.55,0.176 -1.664,0.338 -2.476,0.36 -0.812,0.022 -1.592,0.227 -1.734,0.456 -0.161,0.261 0.092,0.342 0.676,0.219 2.004,-0.424 6.631,-1.06 8.534,-1.172 1.204,-0.072 0.806,-0.132 -1,-0.151 -1.65,-0.018 -3.45,0.112 -4,0.288 m 14,0.006 c 1.87,0.182 4.469,0.521 5.775,0.754 2.255,0.401 3.775,0.299 1.772,-0.119 -2.62,-0.547 -4.045,-0.708 -7.347,-0.832 l -3.6,-0.135 3.4,0.332 M 183.8,144 c -0.295,0.478 0.489,0.478 1.6,0 0.714,-0.307 0.685,-0.347 -0.276,-0.372 -0.592,-0.015 -1.188,0.152 -1.324,0.372 m 32.384,0.404 c 1.311,0.419 2.462,0.683 2.557,0.588 0.096,-0.095 -0.167,-0.282 -0.584,-0.415 -0.416,-0.133 -1.17,-0.407 -1.676,-0.61 -0.505,-0.202 -1.315,-0.357 -1.8,-0.345 -0.484,0.011 0.192,0.364 1.503,0.782 M 181.4,144.8 c -0.292,0.473 0.099,0.473 1.2,0 0.771,-0.331 0.769,-0.345 -0.076,-0.372 -0.482,-0.015 -0.988,0.152 -1.124,0.372 m 38.4,0.8 c 1.101,0.473 1.492,0.473 1.2,0 -0.136,-0.22 -0.642,-0.387 -1.124,-0.372 -0.845,0.027 -0.847,0.041 -0.076,0.372 m -46.059,2.371 c -8.764,4.564 -16.017,10.886 -21.524,18.763 -2.319,3.317 -6.235,10.524 -6.197,11.404 0.011,0.254 0.903,-1.29 1.981,-3.431 5.996,-11.902 14.804,-20.71 26.706,-26.706 2.141,-1.078 3.623,-1.955 3.293,-1.948 -0.33,0.006 -2.247,0.87 -4.259,1.918 m 51.046,-0.302 c 1.862,0.88 3.898,1.964 4.523,2.409 0.625,0.445 1.225,0.72 1.334,0.611 0.382,-0.382 -7.89,-4.736 -8.843,-4.655 -0.22,0.019 1.123,0.755 2.986,1.635 m 6.43,3.385 c 0.01,0.19 1.045,1.02 2.3,1.844 2.944,1.932 6.42,4.976 9.301,8.143 2.144,2.357 5.582,6.882 5.582,7.348 0,0.226 0.135,0.412 0.3,0.414 0.336,0.004 0.441,0.191 3.268,5.797 1.109,2.2 2.016,3.73 2.016,3.4 -0.005,-2.558 -7.323,-13.615 -12.432,-18.783 -4.157,-4.205 -10.383,-9.122 -10.335,-8.163 m -35.71,3.636 c 0.719,0.089 1.799,0.087 2.4,-0.004 0.601,-0.091 0.013,-0.164 -1.307,-0.162 -1.32,0.002 -1.812,0.077 -1.093,0.166 m 6.8,0 c 0.719,0.089 1.799,0.087 2.4,-0.004 0.601,-0.091 0.013,-0.164 -1.307,-0.162 -1.32,0.002 -1.812,0.077 -1.093,0.166 m -31.732,10.61 -1.175,1.3 1.3,-1.175 c 1.212,-1.095 1.484,-1.425 1.175,-1.425 -0.069,0 -0.654,0.585 -1.3,1.3 M 232,167.8 c 1.195,1.21 2.263,2.2 2.373,2.2 0.11,0 -0.778,-0.99 -1.973,-2.2 -1.195,-1.21 -2.263,-2.2 -2.373,-2.2 -0.11,0 0.778,0.99 1.973,2.2 m -64.422,0.1 -1.378,1.5 1.5,-1.378 c 1.396,-1.284 1.684,-1.622 1.378,-1.622 -0.066,0 -0.741,0.675 -1.5,1.5 m -2.603,3 -1.175,1.3 1.3,-1.175 c 0.715,-0.646 1.3,-1.231 1.3,-1.3 0,-0.309 -0.33,-0.037 -1.425,1.175 M 254,178.849 c 0,0.587 1.317,3.967 1.482,3.803 0.221,-0.222 -0.69,-3.067 -1.164,-3.632 -0.175,-0.209 -0.318,-0.286 -0.318,-0.171 m -109.333,2.618 c -0.147,0.146 -0.256,0.641 -0.242,1.1 0.024,0.766 0.057,0.756 0.409,-0.125 0.392,-0.979 0.31,-1.453 -0.167,-0.975 m 110.967,2.133 c 0.012,0.33 0.177,0.96 0.366,1.4 l 0.344,0.8 0.022,-0.8 c 0.012,-0.44 -0.153,-1.07 -0.366,-1.4 -0.345,-0.533 -0.385,-0.533 -0.366,0 m -111.742,0.242 c -0.161,0.16 -0.281,0.756 -0.267,1.325 l 0.026,1.033 0.386,-0.966 c 0.416,-1.04 0.33,-1.867 -0.145,-1.392 m 112.746,3.958 c 0.332,1.984 0.564,2.304 0.556,0.767 -0.003,-0.642 -0.19,-1.437 -0.415,-1.767 -0.293,-0.43 -0.333,-0.146 -0.141,1 m -113.601,-0.557 c -0.353,1.079 -0.653,3.795 -0.812,7.357 l -0.161,3.6 0.338,-3.4 c 0.186,-1.87 0.514,-4.39 0.728,-5.6 0.366,-2.066 0.312,-3.197 -0.093,-1.957 m 114.44,5.957 c 0.129,1.65 0.299,3.075 0.379,3.167 0.31,0.358 0.067,-4.614 -0.262,-5.367 -0.216,-0.494 -0.261,0.347 -0.117,2.2 m -102.953,3.4 c 0.002,1.32 0.077,1.812 0.166,1.093 0.089,-0.719 0.087,-1.799 -0.004,-2.4 -0.091,-0.601 -0.164,-0.013 -0.162,1.307 m 90.769,-1 c 0,0.77 0.082,1.085 0.183,0.7 0.1,-0.385 0.1,-1.015 0,-1.4 -0.101,-0.385 -0.183,-0.07 -0.183,0.7 m 12.827,4.4 c 0,1.21 0.075,1.705 0.167,1.1 0.091,-0.605 0.091,-1.595 0,-2.2 -0.092,-0.605 -0.167,-0.11 -0.167,1.1 m -116.427,0 c 0,0.77 0.082,1.085 0.183,0.7 0.1,-0.385 0.1,-1.015 0,-1.4 -0.101,-0.385 -0.183,-0.07 -0.183,0.7 m 12.831,3.4 c 0.002,1.32 0.077,1.812 0.166,1.093 0.089,-0.719 0.087,-1.799 -0.004,-2.4 -0.091,-0.601 -0.164,-0.013 -0.162,1.307 m -12.315,2 c 0.124,3.302 0.285,4.727 0.832,7.347 0.418,2.003 0.52,0.483 0.119,-1.772 -0.233,-1.306 -0.572,-3.905 -0.754,-5.775 l -0.332,-3.4 0.135,3.6 m 103.055,-1.133 c -0.035,0.697 -0.168,1.597 -0.294,2 -0.217,0.692 -0.205,0.693 0.224,0.024 0.251,-0.389 0.383,-1.289 0.295,-2 l -0.161,-1.291 -0.064,1.267 m 12.412,0.983 c -0.042,1.018 -0.171,2.457 -0.287,3.2 -0.192,1.232 -0.173,1.264 0.218,0.368 0.235,-0.54 0.364,-1.98 0.286,-3.2 -0.138,-2.153 -0.144,-2.163 -0.217,-0.368 m -13.23,4.017 c -0.025,0.367 -0.15,0.997 -0.276,1.4 -0.218,0.695 -0.207,0.696 0.227,0.02 0.251,-0.391 0.376,-1.021 0.276,-1.4 -0.162,-0.619 -0.185,-0.621 -0.227,-0.02 M 256.854,211 c -0.035,0.44 -0.165,1.25 -0.287,1.8 -0.192,0.863 -0.16,0.903 0.231,0.29 0.249,-0.391 0.379,-1.201 0.288,-1.8 -0.108,-0.711 -0.189,-0.811 -0.232,-0.29 m -113.232,3.681 c -0.012,0.485 0.143,1.295 0.345,1.8 0.203,0.506 0.477,1.26 0.61,1.676 0.133,0.417 0.32,0.68 0.415,0.584 0.095,-0.095 -0.169,-1.246 -0.588,-2.557 -0.418,-1.311 -0.771,-1.987 -0.782,-1.503 m 112.207,0.748 c -0.148,0.586 -0.178,1.155 -0.068,1.265 0.11,0.11 0.32,-0.279 0.468,-0.865 0.147,-0.587 0.177,-1.156 0.067,-1.266 -0.11,-0.11 -0.32,0.279 -0.467,0.866 m -1.152,3.648 c -0.377,1.016 -0.598,1.936 -0.49,2.043 0.107,0.107 0.305,-0.146 0.441,-0.563 0.136,-0.416 0.434,-1.258 0.663,-1.87 0.229,-0.612 0.339,-1.19 0.244,-1.286 -0.095,-0.095 -0.481,0.659 -0.858,1.676 m -109.449,0.799 c -0.015,0.482 0.152,0.988 0.372,1.124 0.473,0.292 0.473,-0.099 0,-1.2 -0.331,-0.771 -0.345,-0.769 -0.372,0.076 m 0.792,1.928 c -0.152,3.061 13.57,22.175 15.937,22.198 0.133,0.002 -1.467,-1.759 -3.557,-3.913 -4.223,-4.353 -7.452,-8.947 -10.399,-14.796 -1.078,-2.141 -1.97,-3.711 -1.981,-3.489 m 107.07,1.404 c -0.853,2.171 -4.58,8.919 -5.453,9.873 -0.362,0.395 -1.097,1.349 -1.633,2.119 -1.444,2.077 -4.462,5.248 -8.958,9.413 -0.245,0.227 -1.076,0.855 -1.846,1.394 -0.77,0.54 -1.72,1.254 -2.112,1.587 -1.098,0.935 -4.132,2.667 -8.088,4.616 -1.98,0.975 -3.371,1.777 -3.091,1.782 2.665,0.043 13.977,-7.44 19.31,-12.773 5.423,-5.423 13.311,-17.429 12.685,-19.308 -0.077,-0.23 -0.443,0.353 -0.814,1.297 m -21.102,9.092 -2.588,2.7 2.7,-2.588 c 1.485,-1.424 2.7,-2.639 2.7,-2.7 0,-0.295 -0.407,0.08 -2.812,2.588 M 167.6,232.2 c 1.195,1.21 2.263,2.2 2.373,2.2 0.11,0 -0.778,-0.99 -1.973,-2.2 -1.195,-1.21 -2.263,-2.2 -2.373,-2.2 -0.11,0 0.778,0.99 1.973,2.2 m 42,12.2 c -0.824,0.264 -0.859,0.326 -0.2,0.354 0.44,0.019 1.07,-0.141 1.4,-0.354 0.701,-0.453 0.214,-0.453 -1.2,0 m -46.729,0.5 c 2.709,2.562 12.82,8.742 13.383,8.18 0.095,-0.095 -0.868,-0.678 -2.141,-1.296 -2.56,-1.242 -9.799,-5.924 -10.539,-6.816 -0.26,-0.312 -0.643,-0.568 -0.852,-0.568 -0.208,0 -0.141,0.225 0.149,0.5 m 41.729,0.3 -1.6,0.286 1.4,0.051 c 0.77,0.028 1.67,-0.124 2,-0.337 0.655,-0.423 0.562,-0.423 -1.8,0 m -9.7,0.276 c 0.385,0.1 1.015,0.1 1.4,0 0.385,-0.101 0.07,-0.183 -0.7,-0.183 -0.77,0 -1.085,0.082 -0.7,0.183 m -15.88,8.842 c 0.565,0.474 3.41,1.385 3.632,1.164 0.105,-0.106 -0.66,-0.482 -1.702,-0.837 -2.131,-0.726 -2.477,-0.785 -1.93,-0.327 m 39.78,0.482 c -0.99,0.415 -1.62,0.763 -1.4,0.772 0.55,0.022 3.322,-0.961 3.659,-1.298 0.461,-0.46 -0.369,-0.267 -2.259,0.526 m -35.2,1.2 c 0.33,0.213 0.96,0.378 1.4,0.366 l 0.8,-0.022 L 185,256 c -1.196,-0.514 -2.195,-0.514 -1.4,0 m 31.4,0 -0.8,0.344 0.8,0.022 c 0.44,0.012 1.07,-0.153 1.4,-0.366 0.795,-0.514 -0.204,-0.514 -1.4,0 m -28.2,0.779 c 0.33,0.225 1.125,0.412 1.767,0.415 1.537,0.008 1.217,-0.224 -0.767,-0.556 -1.146,-0.192 -1.43,-0.152 -1,0.141 m 24.6,0.021 -1.2,0.305 1.2,0.042 c 0.66,0.022 1.47,-0.134 1.8,-0.347 0.743,-0.48 0.087,-0.48 -1.8,0 m -20.4,0.794 c 0.753,0.329 5.725,0.572 5.367,0.262 -0.092,-0.08 -1.517,-0.25 -3.167,-0.379 -1.853,-0.144 -2.694,-0.099 -2.2,0.117 m 14.8,0.006 -2.4,0.266 2.4,0.039 c 1.32,0.021 2.76,-0.116 3.2,-0.305 l 0.8,-0.344 -0.8,0.039 c -0.44,0.022 -1.88,0.159 -3.2,0.305 m -6.9,0.687 c 0.605,0.091 1.595,0.091 2.2,0 0.605,-0.092 0.11,-0.167 -1.1,-0.167 -1.21,0 -1.705,0.075 -1.1,0.167 m -1.7,6.144 c -1.798,0.16 -0.874,0.238 3,0.254 5.621,0.022 6.476,-0.132 2,-0.362 -1.32,-0.068 -3.57,-0.019 -5,0.108 M 190,265.2 c -0.972,0.311 -0.967,0.32 0.2,0.32 0.66,0 1.65,-0.144 2.2,-0.32 0.972,-0.311 0.967,-0.32 -0.2,-0.32 -0.66,0 -1.65,0.144 -2.2,0.32 m 17.8,0 c 0.66,0.168 1.65,0.309 2.2,0.313 l 1,0.007 -1,-0.32 c -0.55,-0.176 -1.54,-0.317 -2.2,-0.313 l -1.2,0.008 1.2,0.305 m -21.6,0.8 -0.8,0.344 h 0.8 c 0.44,0 1.16,-0.155 1.6,-0.344 l 0.8,-0.344 h -0.8 c -0.44,0 -1.16,0.155 -1.6,0.344 m 26,0 c 0.44,0.189 1.16,0.344 1.6,0.344 h 0.8 L 213.8,266 c -0.44,-0.189 -1.16,-0.344 -1.6,-0.344 h -0.8 l 0.8,0.344 m -30.125,1.073 c -0.949,0.336 -1.644,0.691 -1.545,0.79 0.099,0.099 1.235,-0.177 2.525,-0.613 1.29,-0.436 1.985,-0.792 1.545,-0.79 -0.44,0.002 -1.576,0.278 -2.525,0.613 M 215.4,266.8 c 0.44,0.189 1.16,0.344 1.6,0.344 h 0.8 L 217,266.8 c -0.44,-0.189 -1.16,-0.344 -1.6,-0.344 h -0.8 l 0.8,0.344 m 4,1.171 c 0.88,0.423 1.87,0.768 2.2,0.767 0.684,-0.004 -1.295,-0.913 -2.8,-1.288 -0.55,-0.136 -0.28,0.098 0.6,0.521 m -41,0.429 c -0.533,0.345 -0.533,0.388 0,0.388 0.33,0 0.87,-0.175 1.2,-0.388 0.533,-0.345 0.533,-0.388 0,-0.388 -0.33,0 -0.87,0.175 -1.2,0.388 m -4.6,2.147 c -5.262,2.834 -6.593,3.636 -6.597,3.977 -0.003,0.358 0.271,0.219 2.597,-1.317 0.88,-0.581 2.995,-1.736 4.7,-2.566 2.86,-1.393 3.573,-1.859 2.8,-1.829 -0.165,0.006 -1.74,0.787 -3.5,1.735 m 48.6,-1.563 c 0,0.101 1.215,0.743 2.7,1.426 2.82,1.298 6.84,3.738 9.4,5.705 0.825,0.634 1.493,1.002 1.485,0.819 -0.049,-1.07 -13.585,-8.991 -13.585,-7.95 m -57.095,6.741 c -0.712,0.481 -1.297,1.019 -1.3,1.195 -0.003,0.177 0.625,-0.16 1.395,-0.747 0.77,-0.587 1.4,-1.137 1.4,-1.22 0,-0.226 -0.081,-0.184 -1.495,0.772 m 31.995,1.372 c 1.485,0.077 3.915,0.077 5.4,0 1.485,-0.077 0.27,-0.14 -2.7,-0.14 -2.97,0 -4.185,0.063 -2.7,0.14 m -37.02,2.931 c -3.168,2.92 -7.866,8.463 -8.96,10.572 -0.825,1.593 -0.624,1.368 2.201,-2.452 1.323,-1.789 4.159,-4.984 6.303,-7.1 4.582,-4.523 4.809,-5.03 0.456,-1.02 m 79.928,0.989 c 4.233,4.207 7.219,7.952 9.64,12.092 0.807,1.38 1.542,2.434 1.633,2.344 0.745,-0.745 -6.927,-10.934 -11.565,-15.358 -3.812,-3.637 -3.591,-2.937 0.292,0.922 m -49.503,-3.134 c 0.497,0.096 1.217,0.092 1.6,-0.008 0.382,-0.1 -0.025,-0.179 -0.905,-0.174 -0.88,0.004 -1.193,0.086 -0.695,0.182 m 17.2,0 c 0.497,0.096 1.217,0.092 1.6,-0.008 0.382,-0.1 -0.025,-0.179 -0.905,-0.174 -0.88,0.004 -1.193,0.086 -0.695,0.182 m -31.605,5.546 c -1.495,0.811 -1.404,1.149 0.1,0.371 0.66,-0.341 1.2,-0.706 1.2,-0.81 0,-0.258 -0.043,-0.243 -1.3,0.439 m 49.874,1.853 c 0.646,0.505 1.906,1.543 2.8,2.307 1.318,1.125 1.437,1.174 0.626,0.257 -0.55,-0.622 -1.81,-1.66 -2.8,-2.306 -0.99,-0.646 -1.272,-0.762 -0.626,-0.258 M 170,288.2 c -0.972,0.99 -1.677,1.8 -1.567,1.8 0.11,0 0.995,-0.81 1.967,-1.8 0.972,-0.99 1.677,-1.8 1.567,-1.8 -0.11,0 -0.995,0.81 -1.967,1.8 m -4,4 c -0.972,0.99 -1.677,1.8 -1.567,1.8 0.11,0 0.995,-0.81 1.967,-1.8 0.972,-0.99 1.677,-1.8 1.567,-1.8 -0.11,0 -0.995,0.81 -1.967,1.8 m -16.466,1.3 c -1.2,1.851 -3.608,6.913 -3.45,7.252 0.064,0.136 1.137,-1.777 2.384,-4.252 2.406,-4.773 2.638,-5.425 1.066,-3 m 85.579,0.3 c 3.069,3.709 3.358,4.006 2.075,2.132 -0.703,-1.028 -1.83,-2.378 -2.504,-3 -0.902,-0.833 -0.789,-0.604 0.429,0.868 m -73.02,3.3 c -1.036,1.496 -1.372,2.1 -1.17,2.1 0.094,0 0.647,-0.72 1.23,-1.6 1.183,-1.788 1.131,-2.221 -0.06,-0.5 m 89.526,-0.8 c 0.027,0.436 2.34,4.754 2.362,4.412 0.028,-0.419 -1.97,-4.712 -2.193,-4.712 -0.103,0 -0.18,0.135 -0.169,0.3 m -92.103,5 c -0.638,0.996 -1.173,2.3 -0.944,2.3 0.081,0 0.523,-0.72 0.981,-1.6 0.907,-1.74 0.886,-2.142 -0.037,-0.7 m 80.957,0.575 c 0.706,1.66 1.221,2.113 0.698,0.615 -0.247,-0.71 -0.613,-1.393 -0.813,-1.516 -0.2,-0.124 -0.149,0.282 0.115,0.901 m 13.539,-0.275 c 0,0.33 0.175,0.87 0.388,1.2 0.345,0.533 0.388,0.533 0.388,0 0,-0.33 -0.175,-0.87 -0.388,-1.2 -0.345,-0.533 -0.388,-0.533 -0.388,0 m -108.632,0.643 c -0.131,0.416 -0.405,1.07 -0.609,1.452 -0.204,0.382 -0.361,1.012 -0.349,1.4 0.012,0.388 0.378,-0.174 0.814,-1.248 0.436,-1.074 0.7,-2.044 0.587,-2.157 -0.112,-0.112 -0.312,0.136 -0.443,0.553 m 109.448,1.633 c 0.09,1.039 0.716,1.92 0.744,1.048 0.015,-0.482 -0.152,-0.988 -0.372,-1.124 -0.22,-0.136 -0.387,-0.102 -0.372,0.076 m -110.979,2.739 c -0.137,0.358 -0.233,1.041 -0.213,1.518 0.026,0.614 0.149,0.475 0.423,-0.477 0.398,-1.384 0.235,-2.198 -0.21,-1.041 M 255.634,306.4 c 0.012,0.33 0.177,0.96 0.366,1.4 l 0.344,0.8 0.022,-0.8 c 0.012,-0.44 -0.153,-1.07 -0.366,-1.4 -0.345,-0.533 -0.385,-0.533 -0.366,0 m -112.585,3.415 c -0.137,0.358 -0.229,1.221 -0.205,1.918 0.038,1.104 0.089,1.038 0.392,-0.508 0.357,-1.82 0.258,-2.568 -0.187,-1.41 m 113.589,0.785 c 0.332,1.984 0.564,2.304 0.556,0.767 -0.003,-0.642 -0.19,-1.437 -0.415,-1.767 -0.293,-0.43 -0.333,-0.146 -0.141,1 m 0.839,5 c 0.129,1.65 0.299,3.075 0.379,3.167 0.31,0.358 0.067,-4.614 -0.262,-5.367 -0.216,-0.494 -0.261,0.347 -0.117,2.2 m -115.221,-1.516 c -0.135,0.504 -0.22,2.266 -0.19,3.916 l 0.055,3 0.288,-3.8 c 0.3,-3.947 0.264,-4.672 -0.153,-3.116 m 115.858,8.516 c 0.003,1.1 0.081,1.503 0.173,0.895 0.092,-0.609 0.09,-1.509 -0.005,-2 -0.095,-0.492 -0.171,0.005 -0.168,1.105 m -116.421,0.2 c 0,0.77 0.082,1.085 0.183,0.7 0.1,-0.385 0.1,-1.015 0,-1.4 -0.101,-0.385 -0.183,-0.07 -0.183,0.7 m 0.335,4.833 c 0.016,1.632 0.174,3.327 0.352,3.767 0.18,0.445 0.233,-0.798 0.119,-2.8 -0.252,-4.435 -0.509,-4.962 -0.471,-0.967 M 257.673,327.6 c -0.045,0.99 -0.174,2.52 -0.288,3.4 -0.178,1.389 -0.149,1.471 0.222,0.619 0.235,-0.539 0.364,-2.069 0.287,-3.4 -0.117,-2.017 -0.153,-2.12 -0.221,-0.619 m -114.867,6.033 c 0.003,0.752 0.186,1.637 0.406,1.967 0.279,0.419 0.321,0.058 0.138,-1.2 -0.325,-2.241 -0.552,-2.56 -0.544,-0.767 m 114.058,0.034 c -0.035,0.587 -0.18,1.397 -0.323,1.8 -0.198,0.562 -0.145,0.628 0.229,0.284 0.274,-0.252 0.416,-1.042 0.323,-1.8 -0.134,-1.098 -0.177,-1.151 -0.229,-0.284 M 143.646,337.2 c -0.019,0.55 0.141,1.27 0.354,1.6 0.494,0.764 0.494,-0.058 0,-1.6 l -0.32,-1 -0.034,1 m 112.216,0.547 c -0.165,0.631 -0.206,1.242 -0.091,1.357 0.322,0.323 0.716,-0.966 0.544,-1.781 -0.112,-0.533 -0.231,-0.422 -0.453,0.424 m -111.44,2.358 c -0.012,0.388 0.145,1.018 0.349,1.4 0.204,0.382 0.478,1.036 0.609,1.452 0.131,0.417 0.331,0.665 0.443,0.553 0.113,-0.113 -0.151,-1.083 -0.587,-2.157 -0.436,-1.074 -0.802,-1.636 -0.814,-1.248 m 110.824,-0.238 c -0.025,0.257 -0.162,0.797 -0.305,1.2 -0.201,0.569 -0.147,0.63 0.238,0.275 0.273,-0.251 0.41,-0.791 0.305,-1.2 -0.105,-0.408 -0.212,-0.532 -0.238,-0.275 M 254.2,342.8 c -0.15,0.473 -0.183,0.95 -0.073,1.06 0.11,0.11 0.323,-0.187 0.473,-0.66 0.15,-0.473 0.183,-0.95 0.073,-1.06 -0.11,-0.11 -0.323,0.187 -0.473,0.66 M 146,344.312 c 0,0.643 2.425,5.565 4.183,8.488 4.886,8.127 13.056,15.991 21.595,20.788 2.918,1.638 1.755,0.563 -1.496,-1.384 -9.373,-5.613 -16.88,-13.7 -21.874,-23.559 -1.324,-2.616 -2.408,-4.566 -2.408,-4.333 m 105.883,4.005 c -1.037,2.136 -1.596,3.523 -1.243,3.083 0.744,-0.928 3.468,-6.626 3.264,-6.829 -0.075,-0.076 -0.985,1.61 -2.021,3.746 m -16.908,3.383 -1.175,1.3 1.3,-1.175 c 0.715,-0.646 1.3,-1.231 1.3,-1.3 0,-0.309 -0.33,-0.037 -1.425,1.175 M 164,350.925 c 0,0.069 0.585,0.654 1.3,1.3 l 1.3,1.175 -1.175,-1.3 C 164.33,350.888 164,350.616 164,350.925 m 84.199,3.775 c -4.558,6.925 -11.193,13.198 -18.799,17.773 -1.76,1.059 -3.031,1.926 -2.824,1.926 1.766,0.004 12.517,-8.025 16.015,-11.959 0.665,-0.749 1.546,-1.739 1.957,-2.2 1.818,-2.04 5.77,-7.84 5.341,-7.84 -0.097,0 -0.857,1.035 -1.69,2.3 m -78.599,1.825 c 0,0.069 0.585,0.654 1.3,1.3 l 1.3,1.175 -1.175,-1.3 c -1.095,-1.212 -1.425,-1.484 -1.425,-1.175 m 27.9,11.771 c 1.375,0.078 3.625,0.078 5,0 1.375,-0.078 0.25,-0.142 -2.5,-0.142 -2.75,0 -3.875,0.064 -2.5,0.142 M 174,374.58 c 0,0.4 6.634,3.21 9.2,3.898 13.019,3.489 24.835,3.171 36.4,-0.98 2.483,-0.891 6.4,-2.675 6.4,-2.915 0,-0.19 -1.24,0.232 -1.8,0.614 -0.22,0.15 -1.48,0.679 -2.8,1.177 -1.32,0.497 -2.76,1.054 -3.2,1.236 -0.999,0.415 -6.797,1.778 -10.024,2.356 -3.108,0.557 -13.473,0.562 -16.245,0.009 -7.037,-1.405 -12.23,-2.885 -14.828,-4.226 -1.445,-0.746 -3.103,-1.37 -3.103,-1.169"
       stroke="none"
       fill="#3c343c"
       fill-rule="evenodd" />
  </g>
</svg>
