<?xml version="1.0" encoding="UTF-8" standalone="no"?>
<svg
   id="svg"
   version="1.1"
   width="400"
   height="400"
   viewBox="0, 0, 400,400"
   sodipodi:docname="traffic-light-icon-yellow-red-green.svg"
   inkscape:version="1.2.2 (732a01da63, 2022-12-09)"
   xmlns:inkscape="http://www.inkscape.org/namespaces/inkscape"
   xmlns:sodipodi="http://sodipodi.sourceforge.net/DTD/sodipodi-0.dtd"
   xmlns="http://www.w3.org/2000/svg"
   xmlns:svg="http://www.w3.org/2000/svg">
  <defs
     id="defs149" />
  <sodipodi:namedview
     id="namedview147"
     pagecolor="#ffffff"
     bordercolor="#000000"
     borderopacity="0.25"
     inkscape:showpageshadow="2"
     inkscape:pageopacity="0.0"
     inkscape:pagecheckerboard="0"
     inkscape:deskcolor="#d1d1d1"
     showgrid="false"
     inkscape:zoom="2.5675"
     inkscape:cx="201.55794"
     inkscape:cy="200.19474"
     inkscape:window-width="2560"
     inkscape:window-height="1369"
     inkscape:window-x="-8"
     inkscape:window-y="-8"
     inkscape:window-maximized="1"
     inkscape:current-layer="svgg" />
  <g
     id="svgg">
    <path
       id="path0"
       d="M194.000 155.421 C 191.910 155.712,189.480 156.156,188.600 156.408 C 187.720 156.660,186.503 156.962,185.895 157.079 C 185.287 157.196,184.692 157.451,184.571 157.646 C 184.451 157.841,184.099 158.000,183.788 158.000 C 182.506 158.000,177.521 160.760,172.135 164.453 C 167.173 167.855,158.000 180.392,158.000 183.772 C 158.000 184.091,157.841 184.451,157.646 184.571 C 157.451 184.692,157.202 185.287,157.091 185.895 C 156.980 186.503,156.617 187.990,156.283 189.200 C 154.266 196.517,155.106 212.612,157.651 215.380 C 157.843 215.589,158.000 216.005,158.000 216.305 C 158.000 217.140,160.367 221.926,162.047 224.489 C 177.920 248.699,211.427 252.221,231.824 231.824 C 251.151 212.497,249.110 180.838,227.457 164.074 C 224.467 161.759,217.566 158.000,216.305 158.000 C 216.005 158.000,215.589 157.843,215.380 157.651 C 213.288 155.728,201.001 154.447,194.000 155.421 "
       stroke="none"
       fill="#fbab43"
       fill-rule="evenodd" />
    <path
       id="path1"
       d="M130.000 200.000 L 130.000 386.400 200.000 386.400 L 270.000 386.400 270.000 200.000 L 270.000 13.600 200.000 13.600 L 130.000 13.600 130.000 200.000 M206.000 19.219 C 211.297 19.703,213.338 20.024,213.780 20.441 C 213.989 20.638,214.754 20.800,215.480 20.800 C 216.206 20.800,216.800 20.980,216.800 21.200 C 216.800 21.420,217.340 21.600,218.000 21.600 C 218.660 21.600,219.200 21.780,219.200 22.000 C 219.200 22.220,219.650 22.400,220.200 22.400 C 220.750 22.400,221.200 22.580,221.200 22.800 C 221.200 23.020,221.639 23.200,222.176 23.200 C 222.713 23.200,223.264 23.380,223.400 23.600 C 223.536 23.820,223.997 24.000,224.424 24.000 C 224.851 24.000,225.200 24.180,225.200 24.400 C 225.200 24.620,225.560 24.800,226.000 24.800 C 226.440 24.800,226.800 24.980,226.800 25.200 C 226.800 25.420,227.160 25.600,227.600 25.600 C 228.040 25.600,228.400 25.752,228.400 25.937 C 228.400 26.123,229.255 26.707,230.300 27.237 C 231.345 27.766,232.380 28.334,232.600 28.499 C 237.538 32.197,239.553 33.910,242.300 36.742 C 244.115 38.613,245.600 40.315,245.600 40.525 C 245.600 40.735,245.924 41.197,246.319 41.553 C 246.714 41.909,247.471 42.830,248.000 43.600 C 248.529 44.370,249.060 45.090,249.181 45.200 C 249.301 45.310,249.625 45.805,249.900 46.300 C 250.175 46.795,250.625 47.605,250.900 48.100 C 251.175 48.595,251.490 49.090,251.600 49.200 C 251.809 49.409,254.293 54.814,254.817 56.200 C 257.917 64.401,259.254 74.041,258.466 82.506 C 258.054 86.925,256.516 94.551,255.623 96.600 C 255.431 97.040,255.007 98.120,254.680 99.000 C 253.575 101.974,252.613 104.000,252.306 104.000 C 252.138 104.000,252.000 104.360,252.000 104.800 C 252.000 105.240,251.841 105.600,251.647 105.600 C 251.452 105.600,251.193 105.915,251.071 106.300 C 250.802 107.149,249.586 109.174,248.900 109.916 C 248.625 110.214,248.400 110.605,248.400 110.786 C 248.400 110.967,247.860 111.693,247.200 112.400 C 246.540 113.107,246.000 113.832,246.000 114.013 C 246.000 114.605,237.774 122.642,235.764 124.013 C 234.684 124.750,233.740 125.499,233.667 125.677 C 233.593 125.855,233.278 126.000,232.967 126.000 C 232.655 126.000,232.400 126.159,232.400 126.353 C 232.400 126.548,232.085 126.807,231.700 126.929 C 230.764 127.225,228.634 128.524,228.467 128.900 C 228.393 129.065,227.988 129.200,227.567 129.200 C 227.145 129.200,226.800 129.380,226.800 129.600 C 226.800 129.820,226.440 130.000,226.000 130.000 C 225.560 130.000,225.200 130.180,225.200 130.400 C 225.200 130.620,224.840 130.800,224.400 130.800 C 223.960 130.800,223.600 130.980,223.600 131.200 C 223.600 131.420,223.251 131.600,222.824 131.600 C 222.397 131.600,221.936 131.780,221.800 132.000 C 221.664 132.220,221.113 132.400,220.576 132.400 C 220.039 132.400,219.600 132.580,219.600 132.800 C 219.600 133.020,219.161 133.200,218.624 133.200 C 218.087 133.200,217.536 133.380,217.400 133.600 C 217.264 133.820,216.544 134.000,215.800 134.000 C 215.056 134.000,214.348 134.161,214.226 134.358 C 214.105 134.555,213.239 134.828,212.303 134.965 C 211.366 135.102,209.160 135.422,207.400 135.675 C 203.239 136.275,197.072 136.279,192.800 135.685 C 186.464 134.804,185.995 134.716,185.774 134.358 C 185.652 134.161,184.933 134.000,184.176 134.000 C 183.419 134.000,182.800 133.820,182.800 133.600 C 182.800 133.380,182.361 133.200,181.824 133.200 C 181.287 133.200,180.736 133.020,180.600 132.800 C 180.464 132.580,179.924 132.400,179.400 132.400 C 178.876 132.400,178.336 132.220,178.200 132.000 C 178.064 131.780,177.603 131.600,177.176 131.600 C 176.749 131.600,176.400 131.420,176.400 131.200 C 176.400 130.980,176.040 130.800,175.600 130.800 C 175.160 130.800,174.800 130.620,174.800 130.400 C 174.800 130.180,174.440 130.000,174.000 130.000 C 173.560 130.000,173.200 129.820,173.200 129.600 C 173.200 129.380,172.840 129.200,172.400 129.200 C 171.960 129.200,171.600 129.020,171.600 128.800 C 171.600 128.580,171.364 128.400,171.075 128.400 C 170.787 128.400,170.164 128.040,169.692 127.600 C 169.220 127.160,168.556 126.800,168.217 126.800 C 167.878 126.800,167.600 126.662,167.600 126.494 C 167.600 126.326,166.880 125.744,166.000 125.200 C 165.120 124.656,164.400 124.074,164.400 123.906 C 164.400 123.738,164.215 123.600,163.989 123.600 C 163.212 123.600,156.523 117.181,154.564 114.555 C 153.926 113.700,153.292 112.910,153.154 112.800 C 153.016 112.690,151.982 111.160,150.856 109.400 C 149.730 107.640,148.626 105.983,148.404 105.717 C 148.182 105.451,148.000 105.052,148.000 104.829 C 148.000 104.606,147.617 103.744,147.148 102.912 C 145.890 100.677,143.600 94.139,143.600 92.780 C 143.600 92.131,143.420 91.600,143.200 91.600 C 142.980 91.600,142.800 90.891,142.800 90.024 C 142.800 89.157,142.620 88.336,142.400 88.200 C 142.180 88.064,142.000 86.559,142.000 84.856 C 142.000 83.153,141.807 81.567,141.570 81.330 C 140.975 80.735,141.757 67.711,142.430 67.020 C 142.634 66.811,142.800 65.866,142.800 64.920 C 142.800 63.974,142.980 63.200,143.200 63.200 C 143.420 63.200,143.600 62.662,143.600 62.005 C 143.600 58.360,150.487 44.373,153.670 41.553 C 154.071 41.197,154.400 40.735,154.400 40.525 C 154.400 38.814,165.441 29.421,170.500 26.829 C 171.105 26.519,171.600 26.115,171.600 25.932 C 171.600 25.750,171.960 25.600,172.400 25.600 C 172.840 25.600,173.200 25.420,173.200 25.200 C 173.200 24.980,173.560 24.800,174.000 24.800 C 174.440 24.800,174.800 24.620,174.800 24.400 C 174.800 24.180,175.149 24.000,175.576 24.000 C 176.003 24.000,176.464 23.820,176.600 23.600 C 176.736 23.380,177.287 23.200,177.824 23.200 C 178.361 23.200,178.800 23.020,178.800 22.800 C 178.800 22.580,179.239 22.400,179.776 22.400 C 180.313 22.400,180.864 22.220,181.000 22.000 C 181.136 21.780,181.687 21.600,182.224 21.600 C 182.761 21.600,183.200 21.420,183.200 21.200 C 183.200 20.980,183.794 20.800,184.520 20.800 C 185.246 20.800,186.011 20.638,186.220 20.441 C 186.687 20.000,188.944 19.668,194.299 19.253 C 196.553 19.079,198.533 18.798,198.699 18.631 C 198.864 18.463,199.720 18.448,200.600 18.598 C 201.480 18.748,203.910 19.028,206.000 19.219 M204.200 141.600 C 204.336 141.820,205.787 142.000,207.424 142.000 C 209.141 142.000,210.400 142.169,210.400 142.400 C 210.400 142.620,211.199 142.800,212.176 142.800 C 213.153 142.800,214.064 142.980,214.200 143.200 C 214.336 143.420,214.983 143.600,215.639 143.600 C 217.741 143.600,230.800 149.176,230.800 150.073 C 230.800 150.253,230.993 150.400,231.228 150.400 C 231.632 150.400,234.463 152.228,236.155 153.582 C 237.871 154.955,245.476 162.692,246.395 164.000 C 246.936 164.770,247.669 165.718,248.025 166.107 C 248.381 166.495,248.926 167.305,249.235 167.907 C 249.545 168.508,249.889 169.090,249.999 169.200 C 250.719 169.918,253.332 175.129,254.713 178.600 C 259.916 191.682,259.959 208.114,254.824 221.200 C 253.573 224.389,250.299 230.800,249.922 230.800 C 249.745 230.800,249.600 230.993,249.600 231.228 C 249.600 231.630,247.787 234.440,246.418 236.158 C 245.614 237.167,237.167 245.614,236.158 246.418 C 234.440 247.787,231.630 249.600,231.228 249.600 C 230.993 249.600,230.800 249.745,230.800 249.922 C 230.800 250.299,224.389 253.573,221.200 254.824 C 208.114 259.959,191.682 259.916,178.600 254.713 C 175.129 253.332,169.918 250.719,169.200 249.999 C 169.090 249.889,168.505 249.544,167.900 249.232 C 167.295 248.920,166.800 248.515,166.800 248.332 C 166.800 248.150,166.607 248.000,166.371 248.000 C 166.136 248.000,165.706 247.775,165.416 247.500 C 164.462 246.595,163.194 245.600,162.994 245.600 C 162.704 245.600,154.400 237.296,154.400 237.005 C 154.400 236.868,153.861 236.181,153.202 235.478 C 152.543 234.775,152.003 233.975,152.002 233.700 C 152.001 233.425,151.850 233.200,151.668 233.200 C 151.485 233.200,151.086 232.705,150.782 232.100 C 150.478 231.495,149.885 230.491,149.465 229.869 C 147.419 226.838,143.600 217.573,143.600 215.639 C 143.600 214.983,143.420 214.336,143.200 214.200 C 142.980 214.064,142.800 213.153,142.800 212.176 C 142.800 211.199,142.620 210.400,142.400 210.400 C 142.170 210.400,142.000 209.160,142.000 207.480 C 142.000 205.874,141.807 204.367,141.571 204.131 C 140.955 203.515,141.778 189.600,142.430 189.600 C 142.634 189.600,142.800 188.801,142.800 187.824 C 142.800 186.847,142.980 185.936,143.200 185.800 C 143.420 185.664,143.600 185.020,143.600 184.368 C 143.600 182.355,148.534 170.662,150.001 169.200 C 150.111 169.090,150.455 168.508,150.765 167.907 C 151.074 167.305,151.619 166.495,151.975 166.107 C 152.331 165.718,153.066 164.770,153.608 164.000 C 154.885 162.187,162.187 154.885,164.000 153.608 C 164.770 153.066,165.718 152.331,166.107 151.975 C 166.495 151.619,167.305 151.081,167.907 150.778 C 168.508 150.476,169.509 149.885,170.131 149.465 C 173.094 147.464,182.474 143.600,184.368 143.600 C 185.020 143.600,185.664 143.420,185.800 143.200 C 185.936 142.980,186.847 142.800,187.824 142.800 C 188.801 142.800,189.600 142.620,189.600 142.400 C 189.600 142.171,190.837 141.997,192.500 141.994 C 194.095 141.991,195.670 141.813,196.000 141.600 C 196.794 141.087,203.883 141.087,204.200 141.600 M207.600 264.413 C 211.431 264.851,213.198 265.168,214.200 265.597 C 214.946 265.917,215.740 266.115,218.500 266.670 C 219.105 266.791,219.600 267.050,219.600 267.245 C 219.600 267.440,220.039 267.600,220.576 267.600 C 221.113 267.600,221.664 267.780,221.800 268.000 C 221.936 268.220,222.397 268.400,222.824 268.400 C 223.251 268.400,223.600 268.580,223.600 268.800 C 223.600 269.020,223.960 269.200,224.400 269.200 C 224.840 269.200,225.200 269.380,225.200 269.600 C 225.200 269.820,225.560 270.000,226.000 270.000 C 226.440 270.000,226.800 270.180,226.800 270.400 C 226.800 270.620,227.160 270.800,227.600 270.800 C 228.040 270.800,228.400 270.959,228.400 271.153 C 228.400 271.348,228.715 271.607,229.100 271.729 C 229.941 271.995,231.971 273.211,232.702 273.886 C 232.992 274.153,233.763 274.687,234.415 275.072 C 235.067 275.457,235.600 275.914,235.600 276.086 C 235.600 276.259,235.785 276.400,236.011 276.400 C 236.793 276.400,244.021 283.342,245.590 285.600 C 246.124 286.370,246.842 287.270,247.184 287.600 C 247.526 287.930,248.060 288.695,248.370 289.300 C 248.681 289.905,249.085 290.400,249.268 290.400 C 249.450 290.400,249.600 290.678,249.600 291.017 C 249.600 291.356,249.960 292.020,250.400 292.492 C 250.840 292.964,251.200 293.587,251.200 293.875 C 251.200 294.164,251.380 294.400,251.600 294.400 C 251.820 294.400,252.000 294.760,252.000 295.200 C 252.000 295.640,252.180 296.000,252.400 296.000 C 252.620 296.000,252.800 296.253,252.800 296.562 C 252.800 296.871,253.186 297.906,253.657 298.862 C 256.027 303.670,257.767 310.385,258.440 317.323 C 259.279 325.980,257.579 338.139,254.753 343.695 C 254.559 344.077,254.400 344.564,254.400 344.777 C 254.400 345.432,251.912 350.504,250.724 352.272 C 250.106 353.192,249.600 354.137,249.600 354.372 C 249.600 354.607,249.450 354.800,249.268 354.800 C 249.085 354.800,248.680 355.295,248.368 355.900 C 248.055 356.505,247.305 357.477,246.700 358.060 C 246.095 358.644,245.600 359.312,245.600 359.545 C 245.600 360.885,234.560 370.607,230.600 372.755 C 229.720 373.232,228.460 373.964,227.800 374.382 C 227.140 374.800,226.285 375.155,225.900 375.171 C 225.515 375.187,225.200 375.380,225.200 375.600 C 225.200 375.820,224.840 376.000,224.400 376.000 C 223.960 376.000,223.600 376.180,223.600 376.400 C 223.600 376.620,223.060 376.800,222.400 376.800 C 221.740 376.800,221.200 376.980,221.200 377.200 C 221.200 377.420,220.750 377.600,220.200 377.600 C 219.650 377.600,219.200 377.780,219.200 378.000 C 219.200 378.220,218.660 378.400,218.000 378.400 C 217.340 378.400,216.800 378.580,216.800 378.800 C 216.800 379.020,216.181 379.200,215.424 379.200 C 214.667 379.200,213.936 379.380,213.800 379.600 C 213.664 379.820,212.879 380.000,212.056 380.000 C 211.233 380.000,210.389 380.168,210.180 380.373 C 209.121 381.411,191.304 381.404,190.220 380.364 C 190.011 380.164,189.077 380.000,188.144 380.000 C 187.211 380.000,186.336 379.820,186.200 379.600 C 186.064 379.380,185.333 379.200,184.576 379.200 C 183.819 379.200,183.200 379.020,183.200 378.800 C 183.200 378.580,182.761 378.400,182.224 378.400 C 181.687 378.400,181.136 378.220,181.000 378.000 C 180.864 377.780,180.313 377.600,179.776 377.600 C 179.239 377.600,178.800 377.420,178.800 377.200 C 178.800 376.980,178.457 376.800,178.038 376.800 C 177.619 376.800,176.494 376.414,175.538 375.943 C 174.582 375.472,173.350 374.887,172.800 374.643 C 172.250 374.399,171.620 374.059,171.400 373.887 C 171.180 373.714,169.920 372.936,168.600 372.157 C 164.151 369.531,154.400 360.839,154.400 359.499 C 154.400 359.276,154.072 358.803,153.672 358.447 C 152.736 357.616,149.600 352.975,149.600 352.422 C 149.600 352.190,149.448 352.000,149.263 352.000 C 148.424 352.000,143.600 340.050,143.600 337.973 C 143.600 337.328,143.420 336.800,143.200 336.800 C 142.980 336.800,142.800 335.990,142.800 335.000 C 142.800 334.010,142.633 333.200,142.429 333.200 C 142.226 333.200,141.954 331.625,141.825 329.700 C 141.172 319.908,141.153 319.087,141.570 318.670 C 141.807 318.433,142.000 316.847,142.000 315.144 C 142.000 313.441,142.180 311.936,142.400 311.800 C 142.620 311.664,142.800 310.843,142.800 309.976 C 142.800 309.109,142.980 308.400,143.200 308.400 C 143.420 308.400,143.600 307.864,143.600 307.209 C 143.600 305.940,146.037 299.074,147.264 296.888 C 147.669 296.166,148.000 295.311,148.000 294.988 C 148.000 294.665,148.158 294.400,148.351 294.400 C 148.545 294.400,148.927 293.860,149.200 293.200 C 149.473 292.540,149.855 292.000,150.049 292.000 C 150.242 292.000,150.400 291.640,150.400 291.200 C 150.400 290.760,150.541 290.400,150.714 290.400 C 150.886 290.400,151.343 289.867,151.728 289.215 C 152.113 288.563,152.647 287.798,152.914 287.515 C 153.181 287.232,153.895 286.337,154.500 285.527 C 156.750 282.513,162.097 277.532,166.000 274.814 C 166.770 274.277,167.490 273.740,167.600 273.619 C 167.953 273.232,170.177 271.958,170.900 271.729 C 171.285 271.607,171.600 271.348,171.600 271.153 C 171.600 270.959,171.960 270.800,172.400 270.800 C 172.840 270.800,173.200 270.620,173.200 270.400 C 173.200 270.180,173.560 270.000,174.000 270.000 C 174.440 270.000,174.800 269.820,174.800 269.600 C 174.800 269.380,175.160 269.200,175.600 269.200 C 176.040 269.200,176.400 269.020,176.400 268.800 C 176.400 268.580,176.749 268.400,177.176 268.400 C 177.603 268.400,178.064 268.220,178.200 268.000 C 178.336 267.780,178.876 267.600,179.400 267.600 C 179.924 267.600,180.464 267.420,180.600 267.200 C 180.736 266.980,181.276 266.800,181.800 266.800 C 182.324 266.800,182.864 266.620,183.000 266.400 C 183.136 266.180,183.766 266.000,184.400 266.000 C 185.034 266.000,185.652 265.839,185.774 265.642 C 186.023 265.239,187.690 264.960,193.200 264.397 C 195.290 264.184,197.270 263.928,197.600 263.828 C 198.284 263.620,203.166 263.906,207.600 264.413 "
       stroke="none"
       fill="#444343"
       fill-rule="evenodd" />
    <path
       id="path2"
       d="M118.628 0.288 C 117.614 0.549,116.800 1.388,116.800 2.171 C 116.800 2.517,116.620 2.800,116.400 2.800 C 116.180 2.800,116.000 3.149,116.000 3.576 C 116.000 4.003,115.820 4.464,115.600 4.600 C 115.045 4.943,115.045 395.057,115.600 395.400 C 115.820 395.536,116.000 395.997,116.000 396.424 C 116.000 396.851,116.180 397.200,116.400 397.200 C 116.620 397.200,116.800 397.483,116.800 397.829 C 116.800 399.935,111.092 399.800,200.000 399.800 C 288.908 399.800,283.200 399.935,283.200 397.829 C 283.200 397.483,283.380 397.200,283.600 397.200 C 283.820 397.200,284.000 396.851,284.000 396.424 C 284.000 395.997,284.180 395.536,284.400 395.400 C 284.666 395.236,284.800 329.670,284.800 200.000 C 284.800 70.330,284.666 4.764,284.400 4.600 C 284.180 4.464,284.000 4.003,284.000 3.576 C 284.000 3.149,283.820 2.800,283.600 2.800 C 283.380 2.800,283.200 2.517,283.200 2.171 C 283.200 0.066,288.835 0.205,200.629 0.144 C 155.953 0.114,119.053 0.178,118.628 0.288 M271.001 13.700 C 271.121 14.195,271.169 98.390,271.109 200.800 L 271.000 387.000 200.224 387.101 C 143.868 387.182,129.384 387.100,129.130 386.701 C 128.764 386.123,128.676 14.388,129.043 13.433 C 129.263 12.859,135.890 12.800,200.035 12.800 L 270.785 12.800 271.001 13.700 M191.600 20.067 C 181.445 22.158,176.635 23.898,170.211 27.803 C 133.720 49.989,132.668 102.309,168.242 125.810 C 181.821 134.780,198.977 137.568,215.000 133.408 C 217.178 132.843,218.171 132.526,220.600 131.621 C 228.165 128.805,236.652 123.103,242.203 117.107 C 244.835 114.265,248.400 109.812,248.400 109.368 C 248.400 109.245,248.906 108.392,249.525 107.472 C 263.995 85.959,259.088 52.138,238.945 34.552 C 229.476 26.285,222.144 22.835,208.069 20.025 C 205.517 19.516,194.137 19.544,191.600 20.067 M204.036 32.024 C 250.323 37.863,261.250 98.581,219.600 118.505 C 179.033 137.910,137.914 92.155,161.262 53.590 C 165.498 46.594,178.204 35.600,182.053 35.600 C 182.266 35.600,182.943 35.340,183.558 35.022 C 187.901 32.776,198.128 31.279,204.036 32.024 M194.200 142.401 C 185.438 143.333,169.997 148.757,168.867 151.300 C 168.793 151.465,168.563 151.600,168.355 151.600 C 167.724 151.600,161.561 156.528,159.044 159.044 C 156.528 161.561,151.600 167.724,151.600 168.355 C 151.600 168.563,151.465 168.793,151.300 168.867 C 150.465 169.238,146.596 177.172,145.092 181.600 C 139.656 197.599,142.349 219.172,151.306 231.383 C 151.474 231.612,152.534 233.060,153.661 234.600 C 179.234 269.537,232.912 264.313,252.313 225.000 C 264.101 201.112,256.301 168.746,235.200 153.990 C 234.430 153.452,233.480 152.739,233.088 152.406 C 225.246 145.730,207.010 141.039,194.200 142.401 M201.800 154.000 C 201.936 154.220,203.556 154.400,205.400 154.400 C 207.244 154.400,208.852 154.560,208.973 154.756 C 209.094 154.951,209.869 155.227,210.696 155.367 C 214.324 155.985,214.819 156.108,215.027 156.444 C 215.148 156.640,215.597 156.800,216.024 156.800 C 216.451 156.800,216.800 156.980,216.800 157.200 C 216.800 157.420,217.205 157.616,217.700 157.636 C 218.195 157.656,219.500 158.188,220.600 158.817 C 221.700 159.447,223.410 160.410,224.400 160.956 C 225.390 161.503,226.723 162.411,227.362 162.975 C 228.001 163.539,228.646 164.000,228.795 164.000 C 229.185 164.000,236.000 170.764,236.000 171.151 C 236.000 171.329,236.461 171.999,237.025 172.638 C 237.589 173.277,238.504 174.610,239.059 175.600 C 239.613 176.590,240.577 178.300,241.201 179.400 C 241.825 180.500,242.350 181.805,242.367 182.300 C 242.385 182.795,242.580 183.200,242.800 183.200 C 243.020 183.200,243.200 183.549,243.200 183.976 C 243.200 184.403,243.380 184.864,243.600 185.000 C 243.820 185.136,244.000 185.766,244.000 186.400 C 244.000 187.034,244.180 187.664,244.400 187.800 C 244.620 187.936,244.800 188.656,244.800 189.400 C 244.800 190.144,244.980 190.864,245.200 191.000 C 245.420 191.136,245.600 192.756,245.600 194.600 C 245.600 196.444,245.780 198.064,246.000 198.200 C 246.220 198.336,246.400 199.146,246.400 200.000 C 246.400 200.854,246.220 201.664,246.000 201.800 C 245.780 201.936,245.600 203.556,245.600 205.400 C 245.600 207.244,245.420 208.864,245.200 209.000 C 244.980 209.136,244.800 209.856,244.800 210.600 C 244.800 211.344,244.620 212.064,244.400 212.200 C 244.180 212.336,244.000 212.829,244.000 213.295 C 244.000 214.410,243.127 216.800,242.720 216.800 C 242.544 216.800,242.400 217.162,242.400 217.605 C 242.400 218.048,242.246 218.723,242.057 219.105 C 240.997 221.253,240.228 222.623,239.984 222.800 C 239.832 222.910,239.307 223.789,238.818 224.754 C 238.329 225.718,237.495 226.941,236.964 227.472 C 236.434 228.002,236.000 228.606,236.000 228.812 C 236.000 229.303,229.303 236.000,228.812 236.000 C 228.606 236.000,228.002 236.434,227.472 236.964 C 226.941 237.495,225.718 238.329,224.754 238.818 C 223.789 239.307,222.910 239.832,222.800 239.984 C 222.623 240.228,221.253 240.997,219.105 242.057 C 218.723 242.246,218.048 242.400,217.605 242.400 C 217.162 242.400,216.800 242.544,216.800 242.720 C 216.800 243.127,214.410 244.000,213.295 244.000 C 212.829 244.000,212.336 244.180,212.200 244.400 C 212.064 244.620,211.344 244.800,210.600 244.800 C 209.856 244.800,209.136 244.980,209.000 245.200 C 208.864 245.420,207.244 245.600,205.400 245.600 C 203.556 245.600,201.936 245.780,201.800 246.000 C 201.664 246.220,200.854 246.400,200.000 246.400 C 199.146 246.400,198.336 246.220,198.200 246.000 C 198.064 245.780,196.444 245.600,194.600 245.600 C 192.756 245.600,191.136 245.420,191.000 245.200 C 190.864 244.980,190.144 244.800,189.400 244.800 C 188.656 244.800,187.936 244.620,187.800 244.400 C 187.664 244.180,187.034 244.000,186.400 244.000 C 185.766 244.000,185.136 243.820,185.000 243.600 C 184.864 243.380,184.403 243.200,183.976 243.200 C 183.549 243.200,183.200 243.020,183.200 242.800 C 183.200 242.580,182.795 242.385,182.300 242.367 C 181.805 242.350,180.500 241.825,179.400 241.201 C 178.300 240.577,176.590 239.613,175.600 239.059 C 174.610 238.504,173.277 237.589,172.638 237.025 C 171.999 236.461,171.329 236.000,171.151 236.000 C 170.764 236.000,164.000 229.185,164.000 228.795 C 164.000 228.646,163.539 228.001,162.975 227.362 C 162.411 226.723,161.503 225.390,160.956 224.400 C 160.410 223.410,159.447 221.700,158.817 220.600 C 158.188 219.500,157.656 218.195,157.636 217.700 C 157.616 217.205,157.420 216.800,157.200 216.800 C 156.980 216.800,156.800 216.451,156.800 216.024 C 156.800 215.597,156.640 215.148,156.444 215.027 C 156.108 214.819,155.985 214.324,155.367 210.696 C 155.227 209.869,154.951 209.094,154.756 208.973 C 154.560 208.852,154.400 207.244,154.400 205.400 C 154.400 203.556,154.220 201.936,154.000 201.800 C 153.496 201.489,153.474 198.689,153.971 198.180 C 154.175 197.971,154.430 196.360,154.538 194.600 C 154.775 190.735,155.165 188.469,155.644 188.173 C 155.840 188.052,156.000 187.429,156.000 186.789 C 156.000 186.148,156.360 184.983,156.800 184.200 C 157.240 183.417,157.616 182.466,157.636 182.088 C 157.656 181.710,158.187 180.500,158.817 179.400 C 159.446 178.300,160.354 176.680,160.835 175.800 C 163.157 171.549,171.549 163.157,175.800 160.835 C 176.680 160.354,178.300 159.446,179.400 158.817 C 180.500 158.187,181.710 157.656,182.088 157.636 C 182.466 157.616,183.417 157.240,184.200 156.800 C 184.983 156.360,186.148 156.000,186.789 156.000 C 187.429 156.000,188.052 155.840,188.173 155.644 C 188.469 155.165,190.735 154.775,194.600 154.538 C 196.360 154.430,197.971 154.175,198.180 153.971 C 198.689 153.474,201.489 153.496,201.800 154.000 M193.000 265.027 C 192.780 265.118,191.520 265.357,190.200 265.560 C 156.038 270.802,134.100 307.133,144.959 340.484 C 156.675 376.467,199.627 391.805,231.352 371.334 C 276.162 342.419,261.652 274.827,208.576 265.238 C 206.318 264.830,193.890 264.662,193.000 265.027 M210.600 277.967 C 211.260 278.208,213.205 278.856,214.923 279.407 C 221.588 281.546,227.133 285.174,232.885 291.158 C 239.587 298.131,242.839 304.386,244.863 314.200 C 245.498 317.278,245.734 326.705,245.236 329.100 C 244.996 330.255,244.592 332.235,244.339 333.500 C 241.186 349.217,226.176 363.775,209.600 367.192 C 208.390 367.441,206.632 367.815,205.694 368.023 C 203.414 368.527,196.977 368.502,194.331 367.979 C 189.112 366.947,188.031 366.682,185.272 365.761 C 174.977 362.323,165.049 354.039,160.152 344.800 C 155.920 336.816,154.642 331.711,154.645 322.800 C 154.647 315.992,154.803 314.807,156.505 308.600 C 160.545 293.865,176.952 279.703,192.600 277.441 C 194.904 277.108,209.409 277.532,210.600 277.967 "
       stroke="none"
       fill="#241c24"
       fill-rule="evenodd" />
    <path
       id="path3"
       d="M194.800 33.031 C 194.250 33.129,192.803 33.389,191.583 33.608 C 178.268 36.006,165.346 45.955,159.644 58.200 C 159.132 59.300,158.552 60.513,158.356 60.895 C 158.160 61.277,158.000 61.864,158.000 62.200 C 158.000 62.536,157.838 63.123,157.639 63.505 C 157.268 64.219,156.820 65.856,156.009 69.464 C 155.432 72.028,155.411 83.452,155.981 84.949 C 156.211 85.556,156.400 86.583,156.400 87.231 C 156.400 87.880,156.558 88.723,156.751 89.105 C 156.944 89.487,157.316 90.520,157.577 91.400 C 158.526 94.593,162.203 102.093,163.166 102.800 C 163.316 102.910,163.876 103.630,164.411 104.400 C 165.445 105.889,165.778 106.265,169.167 109.758 C 183.395 124.426,210.895 126.069,226.963 113.210 C 233.910 107.651,238.447 101.609,241.689 93.600 C 241.911 93.050,242.252 92.287,242.447 91.905 C 242.641 91.523,242.800 90.769,242.800 90.229 C 242.800 89.689,242.961 89.148,243.158 89.026 C 244.775 88.027,244.775 66.773,243.158 65.774 C 242.961 65.652,242.800 65.111,242.800 64.571 C 242.800 64.031,242.641 63.277,242.447 62.895 C 242.252 62.513,241.915 61.750,241.697 61.200 C 236.258 47.465,224.454 37.386,209.600 33.794 C 207.089 33.187,196.883 32.661,194.800 33.031 M245.293 196.000 C 245.293 196.770,245.375 197.085,245.476 196.700 C 245.576 196.315,245.576 195.685,245.476 195.300 C 245.375 194.915,245.293 195.230,245.293 196.000 M245.293 204.000 C 245.293 204.770,245.375 205.085,245.476 204.700 C 245.576 204.315,245.576 203.685,245.476 203.300 C 245.375 202.915,245.293 203.230,245.293 204.000 M195.300 245.476 C 195.685 245.576,196.315 245.576,196.700 245.476 C 197.085 245.375,196.770 245.293,196.000 245.293 C 195.230 245.293,194.915 245.375,195.300 245.476 M203.300 245.476 C 203.685 245.576,204.315 245.576,204.700 245.476 C 205.085 245.375,204.770 245.293,204.000 245.293 C 203.230 245.293,202.915 245.375,203.300 245.476 "
       stroke="none"
       fill="#742c34"
       fill-rule="evenodd"
       style="fill:#fb244b;fill-opacity:1" />
    <path
       id="path4"
       d="M193.000 278.188 C 160.246 283.894,144.482 320.162,162.743 347.800 C 173.689 364.366,195.502 371.679,214.507 365.154 C 221.649 362.702,227.177 359.182,232.444 353.735 C 262.101 323.056,234.867 270.896,193.000 278.188 "
       stroke="none"
       fill="#445b34"
       fill-rule="evenodd"
       style="fill:#63b224;fill-opacity:1" />
    <path
       id="path5"
       d="M129.043 13.433 C 128.676 14.388,128.764 386.123,129.130 386.701 C 129.384 387.100,143.868 387.182,200.224 387.101 L 271.000 387.000 271.109 200.800 C 271.169 98.390,271.121 14.195,271.001 13.700 L 270.785 12.800 200.035 12.800 C 135.890 12.800,129.263 12.859,129.043 13.433 M270.000 200.000 L 270.000 386.400 200.000 386.400 L 130.000 386.400 130.000 200.000 L 130.000 13.600 200.000 13.600 L 270.000 13.600 270.000 200.000 M198.699 18.631 C 198.533 18.798,196.553 19.079,194.299 19.253 C 188.944 19.668,186.687 20.000,186.220 20.441 C 186.011 20.638,185.246 20.800,184.520 20.800 C 183.794 20.800,183.200 20.980,183.200 21.200 C 183.200 21.420,182.761 21.600,182.224 21.600 C 181.687 21.600,181.136 21.780,181.000 22.000 C 180.864 22.220,180.313 22.400,179.776 22.400 C 179.239 22.400,178.800 22.580,178.800 22.800 C 178.800 23.020,178.361 23.200,177.824 23.200 C 177.287 23.200,176.736 23.380,176.600 23.600 C 176.464 23.820,176.003 24.000,175.576 24.000 C 175.149 24.000,174.800 24.180,174.800 24.400 C 174.800 24.620,174.440 24.800,174.000 24.800 C 173.560 24.800,173.200 24.980,173.200 25.200 C 173.200 25.420,172.840 25.600,172.400 25.600 C 171.960 25.600,171.600 25.750,171.600 25.932 C 171.600 26.115,171.105 26.519,170.500 26.829 C 165.441 29.421,154.400 38.814,154.400 40.525 C 154.400 40.735,154.071 41.197,153.670 41.553 C 150.487 44.373,143.600 58.360,143.600 62.005 C 143.600 62.662,143.420 63.200,143.200 63.200 C 142.980 63.200,142.800 63.974,142.800 64.920 C 142.800 65.866,142.634 66.811,142.430 67.020 C 141.757 67.711,140.975 80.735,141.570 81.330 C 141.807 81.567,142.000 83.153,142.000 84.856 C 142.000 86.559,142.180 88.064,142.400 88.200 C 142.620 88.336,142.800 89.157,142.800 90.024 C 142.800 90.891,142.980 91.600,143.200 91.600 C 143.420 91.600,143.600 92.131,143.600 92.780 C 143.600 94.139,145.890 100.677,147.148 102.912 C 147.617 103.744,148.000 104.606,148.000 104.829 C 148.000 105.052,148.182 105.451,148.404 105.717 C 148.626 105.983,149.730 107.640,150.856 109.400 C 151.982 111.160,153.016 112.690,153.154 112.800 C 153.292 112.910,153.926 113.700,154.564 114.555 C 156.523 117.181,163.212 123.600,163.989 123.600 C 164.215 123.600,164.400 123.738,164.400 123.906 C 164.400 124.074,165.120 124.656,166.000 125.200 C 166.880 125.744,167.600 126.326,167.600 126.494 C 167.600 126.662,167.878 126.800,168.217 126.800 C 168.556 126.800,169.220 127.160,169.692 127.600 C 170.164 128.040,170.787 128.400,171.075 128.400 C 171.364 128.400,171.600 128.580,171.600 128.800 C 171.600 129.020,171.960 129.200,172.400 129.200 C 172.840 129.200,173.200 129.380,173.200 129.600 C 173.200 129.820,173.560 130.000,174.000 130.000 C 174.440 130.000,174.800 130.180,174.800 130.400 C 174.800 130.620,175.160 130.800,175.600 130.800 C 176.040 130.800,176.400 130.980,176.400 131.200 C 176.400 131.420,176.749 131.600,177.176 131.600 C 177.603 131.600,178.064 131.780,178.200 132.000 C 178.336 132.220,178.876 132.400,179.400 132.400 C 179.924 132.400,180.464 132.580,180.600 132.800 C 180.736 133.020,181.287 133.200,181.824 133.200 C 182.361 133.200,182.800 133.380,182.800 133.600 C 182.800 133.820,183.419 134.000,184.176 134.000 C 184.933 134.000,185.652 134.161,185.774 134.358 C 185.995 134.716,186.464 134.804,192.800 135.685 C 197.072 136.279,203.239 136.275,207.400 135.675 C 209.160 135.422,211.366 135.102,212.303 134.965 C 213.239 134.828,214.105 134.555,214.226 134.358 C 214.348 134.161,215.056 134.000,215.800 134.000 C 216.544 134.000,217.264 133.820,217.400 133.600 C 217.536 133.380,218.087 133.200,218.624 133.200 C 219.161 133.200,219.600 133.020,219.600 132.800 C 219.600 132.580,220.039 132.400,220.576 132.400 C 221.113 132.400,221.664 132.220,221.800 132.000 C 221.936 131.780,222.397 131.600,222.824 131.600 C 223.251 131.600,223.600 131.420,223.600 131.200 C 223.600 130.980,223.960 130.800,224.400 130.800 C 224.840 130.800,225.200 130.620,225.200 130.400 C 225.200 130.180,225.560 130.000,226.000 130.000 C 226.440 130.000,226.800 129.820,226.800 129.600 C 226.800 129.380,227.145 129.200,227.567 129.200 C 227.988 129.200,228.393 129.065,228.467 128.900 C 228.634 128.524,230.764 127.225,231.700 126.929 C 232.085 126.807,232.400 126.548,232.400 126.353 C 232.400 126.159,232.655 126.000,232.967 126.000 C 233.278 126.000,233.593 125.855,233.667 125.677 C 233.740 125.499,234.684 124.750,235.764 124.013 C 237.774 122.642,246.000 114.605,246.000 114.013 C 246.000 113.832,246.540 113.107,247.200 112.400 C 247.860 111.693,248.400 110.967,248.400 110.786 C 248.400 110.605,248.625 110.214,248.900 109.916 C 249.586 109.174,250.802 107.149,251.071 106.300 C 251.193 105.915,251.452 105.600,251.647 105.600 C 251.841 105.600,252.000 105.240,252.000 104.800 C 252.000 104.360,252.138 104.000,252.306 104.000 C 252.613 104.000,253.575 101.974,254.680 99.000 C 255.007 98.120,255.431 97.040,255.623 96.600 C 256.516 94.551,258.054 86.925,258.466 82.506 C 259.254 74.041,257.917 64.401,254.817 56.200 C 254.293 54.814,251.809 49.409,251.600 49.200 C 251.490 49.090,251.175 48.595,250.900 48.100 C 250.625 47.605,250.175 46.795,249.900 46.300 C 249.625 45.805,249.301 45.310,249.181 45.200 C 249.060 45.090,248.529 44.370,248.000 43.600 C 247.471 42.830,246.714 41.909,246.319 41.553 C 245.924 41.197,245.600 40.735,245.600 40.525 C 245.600 40.315,244.115 38.613,242.300 36.742 C 239.553 33.910,237.538 32.197,232.600 28.499 C 232.380 28.334,231.345 27.766,230.300 27.237 C 229.255 26.707,228.400 26.123,228.400 25.937 C 228.400 25.752,228.040 25.600,227.600 25.600 C 227.160 25.600,226.800 25.420,226.800 25.200 C 226.800 24.980,226.440 24.800,226.000 24.800 C 225.560 24.800,225.200 24.620,225.200 24.400 C 225.200 24.180,224.851 24.000,224.424 24.000 C 223.997 24.000,223.536 23.820,223.400 23.600 C 223.264 23.380,222.713 23.200,222.176 23.200 C 221.639 23.200,221.200 23.020,221.200 22.800 C 221.200 22.580,220.750 22.400,220.200 22.400 C 219.650 22.400,219.200 22.220,219.200 22.000 C 219.200 21.780,218.660 21.600,218.000 21.600 C 217.340 21.600,216.800 21.420,216.800 21.200 C 216.800 20.980,216.206 20.800,215.480 20.800 C 214.754 20.800,213.989 20.638,213.780 20.441 C 213.338 20.024,211.297 19.703,206.000 19.219 C 203.910 19.028,201.480 18.748,200.600 18.598 C 199.720 18.448,198.864 18.463,198.699 18.631 M208.069 20.025 C 222.144 22.835,229.476 26.285,238.945 34.552 C 259.088 52.138,263.995 85.959,249.525 107.472 C 248.906 108.392,248.400 109.245,248.400 109.368 C 248.400 109.812,244.835 114.265,242.203 117.107 C 236.652 123.103,228.165 128.805,220.600 131.621 C 218.171 132.526,217.178 132.843,215.000 133.408 C 198.977 137.568,181.821 134.780,168.242 125.810 C 132.668 102.309,133.720 49.989,170.211 27.803 C 176.635 23.898,181.445 22.158,191.600 20.067 C 194.137 19.544,205.517 19.516,208.069 20.025 M198.900 31.887 C 199.505 31.978,200.495 31.978,201.100 31.887 C 201.705 31.795,201.210 31.720,200.000 31.720 C 198.790 31.720,198.295 31.795,198.900 31.887 M192.100 32.676 C 192.485 32.776,193.115 32.776,193.500 32.676 C 193.885 32.575,193.570 32.493,192.800 32.493 C 192.030 32.493,191.715 32.575,192.100 32.676 M206.500 32.676 C 206.885 32.776,207.515 32.776,207.900 32.676 C 208.285 32.575,207.970 32.493,207.200 32.493 C 206.430 32.493,206.115 32.575,206.500 32.676 M180.624 36.213 C 179.625 36.968,179.995 36.963,181.454 36.202 C 182.084 35.874,182.330 35.610,182.000 35.615 C 181.670 35.621,181.051 35.890,180.624 36.213 M218.400 36.124 C 219.728 36.813,220.800 37.212,220.800 37.017 C 220.800 36.776,218.337 35.600,217.839 35.602 C 217.597 35.604,217.850 35.838,218.400 36.124 M174.726 39.561 C 173.719 40.199,172.779 40.911,172.636 41.142 C 172.426 41.481,176.173 39.142,176.767 38.563 C 177.250 38.091,176.348 38.532,174.726 39.561 M224.200 39.076 C 225.534 40.303,227.754 41.695,227.001 40.833 C 226.561 40.330,225.661 39.646,225.001 39.313 C 224.340 38.981,223.980 38.874,224.200 39.076 M229.926 43.513 C 231.095 44.551,232.959 46.390,234.067 47.600 C 235.176 48.810,235.723 49.260,235.281 48.600 C 234.322 47.165,228.631 41.595,228.143 41.613 C 227.954 41.620,228.757 42.475,229.926 43.513 M167.766 45.308 C 166.895 46.239,165.825 47.450,165.390 48.000 C 164.954 48.550,165.716 47.838,167.082 46.417 C 168.449 44.996,169.519 43.785,169.459 43.725 C 169.399 43.666,168.637 44.378,167.766 45.308 M163.320 50.500 C 162.869 50.995,162.275 51.850,162.001 52.400 C 161.417 53.571,161.818 53.183,163.342 51.100 C 164.572 49.421,164.561 49.137,163.320 50.500 M237.650 52.400 C 239.721 55.594,240.432 56.380,239.178 54.090 C 238.663 53.149,237.729 51.799,237.103 51.090 C 236.303 50.183,236.465 50.573,237.650 52.400 M158.983 57.634 C 158.198 59.192,157.611 60.622,157.678 60.811 C 157.745 61.000,158.461 59.725,159.270 57.978 C 161.094 54.035,160.908 53.812,158.983 57.634 M155.293 69.200 C 155.293 69.970,155.375 70.285,155.476 69.900 C 155.576 69.515,155.576 68.885,155.476 68.500 C 155.375 68.115,155.293 68.430,155.293 69.200 M154.544 77.600 C 154.544 79.690,154.612 80.545,154.694 79.500 C 154.776 78.455,154.776 76.745,154.694 75.700 C 154.612 74.655,154.544 75.510,154.544 77.600 M245.346 77.800 C 245.347 80.000,245.414 80.849,245.495 79.687 C 245.576 78.524,245.576 76.724,245.493 75.687 C 245.411 74.649,245.345 75.600,245.346 77.800 M155.293 85.600 C 155.293 86.370,155.375 86.685,155.476 86.300 C 155.576 85.915,155.576 85.285,155.476 84.900 C 155.375 84.515,155.293 84.830,155.293 85.600 M157.619 94.000 C 157.638 94.603,159.946 99.230,159.981 98.736 C 159.992 98.591,159.460 97.331,158.800 95.936 C 158.140 94.541,157.609 93.670,157.619 94.000 M160.578 100.275 C 160.917 100.976,161.394 101.672,161.637 101.823 C 162.174 102.155,161.595 101.015,160.610 99.800 C 160.008 99.057,160.006 99.091,160.578 100.275 M163.375 104.532 C 163.991 105.339,164.576 106.000,164.675 106.000 C 164.953 106.000,163.221 103.660,162.709 103.344 C 162.459 103.189,162.759 103.724,163.375 104.532 M236.156 104.700 C 235.559 105.525,233.255 107.999,231.036 110.198 C 228.816 112.397,227.720 113.625,228.600 112.928 C 231.487 110.640,238.249 103.200,237.441 103.200 C 237.331 103.200,236.753 103.875,236.156 104.700 M165.200 106.644 C 165.200 106.852,166.505 108.277,168.100 109.811 L 171.000 112.600 168.200 109.611 C 166.660 107.967,165.355 106.542,165.300 106.444 C 165.245 106.347,165.200 106.436,165.200 106.644 M196.000 141.600 C 195.670 141.813,194.095 141.991,192.500 141.994 C 190.837 141.997,189.600 142.171,189.600 142.400 C 189.600 142.620,188.801 142.800,187.824 142.800 C 186.847 142.800,185.936 142.980,185.800 143.200 C 185.664 143.420,185.020 143.600,184.368 143.600 C 182.474 143.600,173.094 147.464,170.131 149.465 C 169.509 149.885,168.508 150.476,167.907 150.778 C 167.305 151.081,166.495 151.619,166.107 151.975 C 165.718 152.331,164.770 153.066,164.000 153.608 C 162.187 154.885,154.885 162.187,153.608 164.000 C 153.066 164.770,152.331 165.718,151.975 166.107 C 151.619 166.495,151.074 167.305,150.765 167.907 C 150.455 168.508,150.111 169.090,150.001 169.200 C 148.534 170.662,143.600 182.355,143.600 184.368 C 143.600 185.020,143.420 185.664,143.200 185.800 C 142.980 185.936,142.800 186.847,142.800 187.824 C 142.800 188.801,142.634 189.600,142.430 189.600 C 141.778 189.600,140.955 203.515,141.571 204.131 C 141.807 204.367,142.000 205.874,142.000 207.480 C 142.000 209.160,142.170 210.400,142.400 210.400 C 142.620 210.400,142.800 211.199,142.800 212.176 C 142.800 213.153,142.980 214.064,143.200 214.200 C 143.420 214.336,143.600 214.983,143.600 215.639 C 143.600 217.573,147.419 226.838,149.465 229.869 C 149.885 230.491,150.478 231.495,150.782 232.100 C 151.086 232.705,151.485 233.200,151.668 233.200 C 151.850 233.200,152.001 233.425,152.002 233.700 C 152.003 233.975,152.543 234.775,153.202 235.478 C 153.861 236.181,154.400 236.868,154.400 237.005 C 154.400 237.296,162.704 245.600,162.994 245.600 C 163.194 245.600,164.462 246.595,165.416 247.500 C 165.706 247.775,166.136 248.000,166.371 248.000 C 166.607 248.000,166.800 248.150,166.800 248.332 C 166.800 248.515,167.295 248.920,167.900 249.232 C 168.505 249.544,169.090 249.889,169.200 249.999 C 169.918 250.719,175.129 253.332,178.600 254.713 C 191.682 259.916,208.114 259.959,221.200 254.824 C 224.389 253.573,230.800 250.299,230.800 249.922 C 230.800 249.745,230.993 249.600,231.228 249.600 C 231.630 249.600,234.440 247.787,236.158 246.418 C 237.167 245.614,245.614 237.167,246.418 236.158 C 247.787 234.440,249.600 231.630,249.600 231.228 C 249.600 230.993,249.745 230.800,249.922 230.800 C 250.299 230.800,253.573 224.389,254.824 221.200 C 259.959 208.114,259.916 191.682,254.713 178.600 C 253.332 175.129,250.719 169.918,249.999 169.200 C 249.889 169.090,249.545 168.508,249.235 167.907 C 248.926 167.305,248.381 166.495,248.025 166.107 C 247.669 165.718,246.936 164.770,246.395 164.000 C 245.476 162.692,237.871 154.955,236.155 153.582 C 234.463 152.228,231.632 150.400,231.228 150.400 C 230.993 150.400,230.800 150.253,230.800 150.073 C 230.800 149.176,217.741 143.600,215.639 143.600 C 214.983 143.600,214.336 143.420,214.200 143.200 C 214.064 142.980,213.153 142.800,212.176 142.800 C 211.199 142.800,210.400 142.620,210.400 142.400 C 210.400 142.169,209.141 142.000,207.424 142.000 C 205.787 142.000,204.336 141.820,204.200 141.600 C 203.883 141.087,196.794 141.087,196.000 141.600 M211.400 143.260 C 218.771 144.723,229.260 149.147,233.088 152.406 C 233.480 152.739,234.430 153.452,235.200 153.990 C 256.301 168.746,264.101 201.112,252.313 225.000 C 232.912 264.313,179.234 269.537,153.661 234.600 C 152.534 233.060,151.474 231.612,151.306 231.383 C 142.349 219.172,139.656 197.599,145.092 181.600 C 146.596 177.172,150.465 169.238,151.300 168.867 C 151.465 168.793,151.600 168.563,151.600 168.355 C 151.600 167.724,156.528 161.561,159.044 159.044 C 161.561 156.528,167.724 151.600,168.355 151.600 C 168.563 151.600,168.793 151.465,168.867 151.300 C 169.238 150.465,177.172 146.596,181.600 145.092 C 190.593 142.036,201.778 141.349,211.400 143.260 M198.262 153.900 C 198.160 154.065,198.942 154.200,200.000 154.200 C 201.058 154.200,201.840 154.065,201.738 153.900 C 201.636 153.735,200.854 153.600,200.000 153.600 C 199.146 153.600,198.364 153.735,198.262 153.900 M206.400 154.556 C 206.400 154.642,207.017 154.785,207.772 154.873 C 208.527 154.961,209.056 154.890,208.948 154.716 C 208.755 154.403,206.400 154.255,206.400 154.556 M153.867 198.267 C 153.501 198.632,153.529 201.509,153.900 201.738 C 154.065 201.840,154.200 201.041,154.200 199.962 C 154.200 198.883,154.185 198.000,154.167 198.000 C 154.148 198.000,154.013 198.120,153.867 198.267 M245.800 200.000 C 245.800 201.058,245.935 201.840,246.100 201.738 C 246.265 201.636,246.400 200.854,246.400 200.000 C 246.400 199.146,246.265 198.364,246.100 198.262 C 245.935 198.160,245.800 198.942,245.800 200.000 M154.400 207.576 C 154.400 208.223,154.542 208.841,154.716 208.948 C 154.890 209.056,154.961 208.527,154.873 207.772 C 154.676 206.091,154.400 205.977,154.400 207.576 M198.262 246.100 C 198.364 246.265,199.146 246.400,200.000 246.400 C 200.854 246.400,201.636 246.265,201.738 246.100 C 201.840 245.935,201.058 245.800,200.000 245.800 C 198.942 245.800,198.160 245.935,198.262 246.100 M197.600 263.828 C 197.270 263.928,195.290 264.184,193.200 264.397 C 187.690 264.960,186.023 265.239,185.774 265.642 C 185.652 265.839,185.034 266.000,184.400 266.000 C 183.766 266.000,183.136 266.180,183.000 266.400 C 182.864 266.620,182.324 266.800,181.800 266.800 C 181.276 266.800,180.736 266.980,180.600 267.200 C 180.464 267.420,179.924 267.600,179.400 267.600 C 178.876 267.600,178.336 267.780,178.200 268.000 C 178.064 268.220,177.603 268.400,177.176 268.400 C 176.749 268.400,176.400 268.580,176.400 268.800 C 176.400 269.020,176.040 269.200,175.600 269.200 C 175.160 269.200,174.800 269.380,174.800 269.600 C 174.800 269.820,174.440 270.000,174.000 270.000 C 173.560 270.000,173.200 270.180,173.200 270.400 C 173.200 270.620,172.840 270.800,172.400 270.800 C 171.960 270.800,171.600 270.959,171.600 271.153 C 171.600 271.348,171.285 271.607,170.900 271.729 C 170.177 271.958,167.953 273.232,167.600 273.619 C 167.490 273.740,166.770 274.277,166.000 274.814 C 162.097 277.532,156.750 282.513,154.500 285.527 C 153.895 286.337,153.181 287.232,152.914 287.515 C 152.647 287.798,152.113 288.563,151.728 289.215 C 151.343 289.867,150.886 290.400,150.714 290.400 C 150.541 290.400,150.400 290.760,150.400 291.200 C 150.400 291.640,150.242 292.000,150.049 292.000 C 149.855 292.000,149.473 292.540,149.200 293.200 C 148.927 293.860,148.545 294.400,148.351 294.400 C 148.158 294.400,148.000 294.665,148.000 294.988 C 148.000 295.311,147.669 296.166,147.264 296.888 C 146.037 299.074,143.600 305.940,143.600 307.209 C 143.600 307.864,143.420 308.400,143.200 308.400 C 142.980 308.400,142.800 309.109,142.800 309.976 C 142.800 310.843,142.620 311.664,142.400 311.800 C 142.180 311.936,142.000 313.441,142.000 315.144 C 142.000 316.847,141.807 318.433,141.570 318.670 C 141.153 319.087,141.172 319.908,141.825 329.700 C 141.954 331.625,142.226 333.200,142.429 333.200 C 142.633 333.200,142.800 334.010,142.800 335.000 C 142.800 335.990,142.980 336.800,143.200 336.800 C 143.420 336.800,143.600 337.328,143.600 337.973 C 143.600 340.050,148.424 352.000,149.263 352.000 C 149.448 352.000,149.600 352.190,149.600 352.422 C 149.600 352.975,152.736 357.616,153.672 358.447 C 154.072 358.803,154.400 359.276,154.400 359.499 C 154.400 360.839,164.151 369.531,168.600 372.157 C 169.920 372.936,171.180 373.714,171.400 373.887 C 171.620 374.059,172.250 374.399,172.800 374.643 C 173.350 374.887,174.582 375.472,175.538 375.943 C 176.494 376.414,177.619 376.800,178.038 376.800 C 178.457 376.800,178.800 376.980,178.800 377.200 C 178.800 377.420,179.239 377.600,179.776 377.600 C 180.313 377.600,180.864 377.780,181.000 378.000 C 181.136 378.220,181.687 378.400,182.224 378.400 C 182.761 378.400,183.200 378.580,183.200 378.800 C 183.200 379.020,183.819 379.200,184.576 379.200 C 185.333 379.200,186.064 379.380,186.200 379.600 C 186.336 379.820,187.211 380.000,188.144 380.000 C 189.077 380.000,190.011 380.164,190.220 380.364 C 191.304 381.404,209.121 381.411,210.180 380.373 C 210.389 380.168,211.233 380.000,212.056 380.000 C 212.879 380.000,213.664 379.820,213.800 379.600 C 213.936 379.380,214.667 379.200,215.424 379.200 C 216.181 379.200,216.800 379.020,216.800 378.800 C 216.800 378.580,217.340 378.400,218.000 378.400 C 218.660 378.400,219.200 378.220,219.200 378.000 C 219.200 377.780,219.650 377.600,220.200 377.600 C 220.750 377.600,221.200 377.420,221.200 377.200 C 221.200 376.980,221.740 376.800,222.400 376.800 C 223.060 376.800,223.600 376.620,223.600 376.400 C 223.600 376.180,223.960 376.000,224.400 376.000 C 224.840 376.000,225.200 375.820,225.200 375.600 C 225.200 375.380,225.515 375.187,225.900 375.171 C 226.285 375.155,227.140 374.800,227.800 374.382 C 228.460 373.964,229.720 373.232,230.600 372.755 C 234.560 370.607,245.600 360.885,245.600 359.545 C 245.600 359.312,246.095 358.644,246.700 358.060 C 247.305 357.477,248.055 356.505,248.368 355.900 C 248.680 355.295,249.085 354.800,249.268 354.800 C 249.450 354.800,249.600 354.607,249.600 354.372 C 249.600 354.137,250.106 353.192,250.724 352.272 C 251.912 350.504,254.400 345.432,254.400 344.777 C 254.400 344.564,254.559 344.077,254.753 343.695 C 257.579 338.139,259.279 325.980,258.440 317.323 C 257.767 310.385,256.027 303.670,253.657 298.862 C 253.186 297.906,252.800 296.871,252.800 296.562 C 252.800 296.253,252.620 296.000,252.400 296.000 C 252.180 296.000,252.000 295.640,252.000 295.200 C 252.000 294.760,251.820 294.400,251.600 294.400 C 251.380 294.400,251.200 294.164,251.200 293.875 C 251.200 293.587,250.840 292.964,250.400 292.492 C 249.960 292.020,249.600 291.356,249.600 291.017 C 249.600 290.678,249.450 290.400,249.268 290.400 C 249.085 290.400,248.681 289.905,248.370 289.300 C 248.060 288.695,247.526 287.930,247.184 287.600 C 246.842 287.270,246.124 286.370,245.590 285.600 C 244.021 283.342,236.793 276.400,236.011 276.400 C 235.785 276.400,235.600 276.259,235.600 276.086 C 235.600 275.914,235.067 275.457,234.415 275.072 C 233.763 274.687,232.992 274.153,232.702 273.886 C 231.971 273.211,229.941 271.995,229.100 271.729 C 228.715 271.607,228.400 271.348,228.400 271.153 C 228.400 270.959,228.040 270.800,227.600 270.800 C 227.160 270.800,226.800 270.620,226.800 270.400 C 226.800 270.180,226.440 270.000,226.000 270.000 C 225.560 270.000,225.200 269.820,225.200 269.600 C 225.200 269.380,224.840 269.200,224.400 269.200 C 223.960 269.200,223.600 269.020,223.600 268.800 C 223.600 268.580,223.251 268.400,222.824 268.400 C 222.397 268.400,221.936 268.220,221.800 268.000 C 221.664 267.780,221.113 267.600,220.576 267.600 C 220.039 267.600,219.600 267.440,219.600 267.245 C 219.600 267.050,219.105 266.791,218.500 266.670 C 215.740 266.115,214.946 265.917,214.200 265.597 C 212.190 264.736,199.177 263.349,197.600 263.828 M208.576 265.238 C 251.582 273.008,271.747 319.360,247.787 355.368 C 226.046 388.041,176.653 388.812,153.379 356.842 C 128.104 322.124,148.330 271.985,190.200 265.560 C 191.520 265.357,192.780 265.118,193.000 265.027 C 193.890 264.662,206.318 264.830,208.576 265.238 M192.600 277.441 C 178.794 279.436,165.628 289.361,159.044 302.734 C 157.076 306.731,156.708 307.714,155.653 311.800 C 153.619 319.670,154.392 331.532,157.425 339.000 C 162.666 351.906,172.723 361.570,185.272 365.761 C 188.031 366.682,189.112 366.947,194.331 367.979 C 196.977 368.502,203.414 368.527,205.694 368.023 C 206.632 367.815,208.390 367.441,209.600 367.192 C 226.176 363.775,241.186 349.217,244.339 333.500 C 244.592 332.235,244.996 330.255,245.236 329.100 C 246.498 323.028,244.960 311.566,241.922 304.400 C 237.196 293.249,226.126 283.003,214.923 279.407 C 213.205 278.856,211.260 278.208,210.600 277.967 C 209.409 277.532,194.904 277.108,192.600 277.441 M207.000 278.192 C 235.416 283.317,251.820 310.931,242.382 337.756 C 237.887 350.534,227.578 360.666,214.507 365.154 C 189.225 373.834,161.908 358.430,156.068 332.200 C 149.275 301.686,176.602 272.709,207.000 278.192 "
       stroke="none"
       fill="#3b3c3b"
       fill-rule="evenodd" />
    <path
       id="path6"
       d="M194.000 32.463 C 189.254 33.429,188.028 33.732,185.800 34.486 C 171.109 39.460,159.019 52.667,156.034 67.000 C 155.759 68.320,155.369 70.155,155.167 71.077 C 154.965 72.000,154.800 74.922,154.800 77.571 C 154.800 81.931,155.015 83.689,156.000 87.400 L 156.318 88.600 156.359 87.326 C 156.382 86.625,156.211 85.556,155.981 84.949 C 155.411 83.452,155.432 72.028,156.009 69.464 C 156.820 65.856,157.268 64.219,157.639 63.505 C 157.838 63.123,158.000 62.536,158.000 62.200 C 158.000 61.864,158.160 61.277,158.356 60.895 C 158.552 60.513,159.132 59.300,159.644 58.200 C 175.902 23.288,227.430 25.172,241.697 61.200 C 241.915 61.750,242.252 62.513,242.447 62.895 C 242.641 63.277,242.800 64.031,242.800 64.571 C 242.800 65.111,242.980 65.664,243.200 65.800 C 244.975 66.897,241.204 57.775,237.687 52.466 C 231.454 43.056,220.296 35.327,210.000 33.288 C 208.790 33.048,206.841 32.660,205.669 32.426 C 203.151 31.922,196.551 31.943,194.000 32.463 M243.600 67.307 C 243.600 67.880,243.794 68.855,244.031 69.474 C 244.277 70.118,244.472 73.682,244.485 77.800 C 244.498 81.765,244.646 84.551,244.815 84.000 C 245.386 82.132,245.230 72.746,244.575 69.609 C 243.901 66.376,243.600 65.666,243.600 67.307 M243.896 85.733 C 243.733 86.136,243.600 86.980,243.600 87.609 C 243.600 88.238,243.420 88.864,243.200 89.000 C 242.980 89.136,242.800 89.689,242.800 90.229 C 242.800 90.769,242.641 91.523,242.447 91.905 C 242.252 92.287,241.911 93.050,241.689 93.600 C 238.447 101.609,233.910 107.651,226.963 113.210 C 210.895 126.069,183.395 124.426,169.167 109.758 C 165.778 106.265,165.445 105.889,164.411 104.400 C 163.876 103.630,163.316 102.910,163.166 102.800 C 162.210 102.098,158.546 94.633,157.570 91.400 C 156.686 88.470,156.724 88.553,156.510 89.129 C 156.402 89.420,156.710 90.744,157.194 92.071 C 170.470 128.482,217.816 133.668,238.713 101.000 C 241.054 97.340,244.601 87.790,244.323 85.892 C 244.206 85.090,244.163 85.074,243.896 85.733 M194.505 154.687 C 195.114 154.779,196.014 154.777,196.505 154.682 C 196.997 154.587,196.500 154.511,195.400 154.514 C 194.300 154.517,193.897 154.595,194.505 154.687 M203.705 154.687 C 204.314 154.779,205.214 154.777,205.705 154.682 C 206.197 154.587,205.700 154.511,204.600 154.514 C 203.500 154.517,203.097 154.595,203.705 154.687 M232.800 168.200 C 234.217 169.630,235.467 170.800,235.577 170.800 C 235.687 170.800,234.617 169.630,233.200 168.200 C 231.783 166.770,230.533 165.600,230.423 165.600 C 230.313 165.600,231.383 166.770,232.800 168.200 M154.514 195.400 C 154.517 196.500,154.595 196.903,154.687 196.295 C 154.779 195.686,154.777 194.786,154.682 194.295 C 154.587 193.803,154.511 194.300,154.514 195.400 M154.514 204.600 C 154.517 205.700,154.595 206.103,154.687 205.495 C 154.779 204.886,154.777 203.986,154.682 203.495 C 154.587 203.003,154.511 203.500,154.514 204.600 M232.191 232.500 L 229.000 235.800 232.300 232.609 C 235.365 229.646,235.782 229.200,235.491 229.200 C 235.430 229.200,233.945 230.685,232.191 232.500 M168.000 233.000 C 169.417 234.430,170.667 235.600,170.777 235.600 C 170.887 235.600,169.817 234.430,168.400 233.000 C 166.983 231.570,165.733 230.400,165.623 230.400 C 165.513 230.400,166.583 231.570,168.000 233.000 "
       stroke="none"
       fill="#662c34"
       fill-rule="evenodd" />
    <path
       id="path7"
       d="M199.300 154.276 C 199.685 154.376,200.315 154.376,200.700 154.276 C 201.085 154.175,200.770 154.093,200.000 154.093 C 199.230 154.093,198.915 154.175,199.300 154.276 M191.200 155.195 C 190.791 155.455,191.110 155.499,192.200 155.332 C 194.177 155.029,194.514 154.798,192.967 154.806 C 192.325 154.809,191.530 154.984,191.200 155.195 M206.033 154.943 C 206.125 155.022,206.920 155.197,207.800 155.332 C 208.890 155.499,209.209 155.455,208.800 155.195 C 208.253 154.846,205.645 154.609,206.033 154.943 M215.600 157.400 C 216.150 157.714,216.780 157.972,217.000 157.972 C 217.220 157.972,216.950 157.714,216.400 157.400 C 215.850 157.086,215.220 156.828,215.000 156.828 C 214.780 156.828,215.050 157.086,215.600 157.400 M232.399 168.200 C 234.259 170.180,235.854 171.890,235.944 172.000 C 236.034 172.110,235.917 171.840,235.682 171.400 C 235.448 170.960,233.853 169.250,232.137 167.600 L 229.019 164.600 232.399 168.200 M167.586 167.900 L 165.400 170.200 167.700 168.014 C 169.837 165.982,170.183 165.600,169.886 165.600 C 169.824 165.600,168.789 166.635,167.586 167.900 M155.049 191.415 C 154.912 191.773,154.821 192.546,154.846 193.133 C 154.880 193.932,154.970 193.798,155.204 192.600 C 155.535 190.900,155.462 190.340,155.049 191.415 M244.893 192.800 C 244.893 193.570,244.975 193.885,245.076 193.500 C 245.176 193.115,245.176 192.485,245.076 192.100 C 244.975 191.715,244.893 192.030,244.893 192.800 M154.093 200.000 C 154.093 200.770,154.175 201.085,154.276 200.700 C 154.376 200.315,154.376 199.685,154.276 199.300 C 154.175 198.915,154.093 199.230,154.093 200.000 M245.693 200.000 C 245.693 200.770,245.775 201.085,245.876 200.700 C 245.976 200.315,245.976 199.685,245.876 199.300 C 245.775 198.915,245.693 199.230,245.693 200.000 M154.806 207.033 C 154.809 207.675,154.984 208.470,155.195 208.800 C 155.455 209.209,155.499 208.890,155.332 207.800 C 155.029 205.823,154.798 205.486,154.806 207.033 M156.828 215.000 C 156.828 215.220,157.086 215.850,157.400 216.400 C 157.714 216.950,157.972 217.220,157.972 217.000 C 157.972 216.780,157.714 216.150,157.400 215.600 C 157.086 215.050,156.828 214.780,156.828 215.000 M231.991 232.300 L 228.600 235.800 232.100 232.409 C 235.351 229.259,235.782 228.800,235.491 228.800 C 235.431 228.800,233.856 230.375,231.991 232.300 M167.600 232.137 C 169.250 233.853,170.960 235.448,171.400 235.682 C 171.840 235.917,172.110 236.034,172.000 235.944 C 171.890 235.854,170.180 234.259,168.200 232.399 L 164.600 229.019 167.600 232.137 M192.100 245.076 C 192.485 245.176,193.115 245.176,193.500 245.076 C 193.885 244.975,193.570 244.893,192.800 244.893 C 192.030 244.893,191.715 244.975,192.100 245.076 M199.300 245.876 C 199.685 245.976,200.315 245.976,200.700 245.876 C 201.085 245.775,200.770 245.693,200.000 245.693 C 199.230 245.693,198.915 245.775,199.300 245.876 "
       stroke="none"
       fill="#9c6c34"
       fill-rule="evenodd" />
    <path
       id="path8"
       d="M199.100 154.682 C 199.595 154.778,200.405 154.778,200.900 154.682 C 201.395 154.587,200.990 154.509,200.000 154.509 C 199.010 154.509,198.605 154.587,199.100 154.682 M192.800 155.217 C 191.935 155.409,192.546 155.446,194.400 155.312 C 196.050 155.193,197.475 155.029,197.567 154.948 C 197.858 154.690,194.257 154.893,192.800 155.217 M202.833 154.951 C 202.925 155.034,204.260 155.202,205.800 155.326 C 207.952 155.498,208.230 155.469,207.000 155.198 C 205.383 154.842,202.526 154.673,202.833 154.951 M189.000 156.000 C 188.496 156.217,188.422 156.344,188.800 156.344 C 189.130 156.344,189.760 156.189,190.200 156.000 C 190.704 155.783,190.778 155.656,190.400 155.656 C 190.070 155.656,189.440 155.811,189.000 156.000 M209.800 156.000 C 210.240 156.189,210.870 156.344,211.200 156.344 C 211.578 156.344,211.504 156.217,211.000 156.000 C 210.560 155.811,209.930 155.656,209.600 155.656 C 209.222 155.656,209.296 155.783,209.800 156.000 M186.000 156.800 C 185.176 157.064,185.141 157.126,185.800 157.154 C 186.240 157.173,186.870 157.013,187.200 156.800 C 187.901 156.347,187.414 156.347,186.000 156.800 M213.000 156.800 C 213.440 156.989,214.070 157.144,214.400 157.144 C 214.778 157.144,214.704 157.017,214.200 156.800 C 213.760 156.611,213.130 156.456,212.800 156.456 C 212.422 156.456,212.496 156.583,213.000 156.800 M177.700 160.446 C 176.337 161.319,175.895 161.906,177.100 161.243 C 178.018 160.739,179.456 159.627,179.200 159.619 C 179.090 159.616,178.415 159.988,177.700 160.446 M173.355 163.235 C 171.431 164.763,171.173 165.036,172.200 164.460 C 173.213 163.891,175.481 162.005,175.155 162.002 C 175.020 162.001,174.210 162.556,173.355 163.235 M167.791 168.100 L 164.600 171.400 167.900 168.209 C 169.715 166.455,171.200 164.970,171.200 164.909 C 171.200 164.618,170.754 165.035,167.791 168.100 M231.800 168.000 C 233.550 169.760,235.071 171.200,235.181 171.200 C 235.291 171.200,233.950 169.760,232.200 168.000 C 230.450 166.240,228.929 164.800,228.819 164.800 C 228.709 164.800,230.050 166.240,231.800 168.000 M163.575 172.900 C 162.132 174.731,161.703 175.640,162.961 174.200 C 163.978 173.038,164.947 171.600,164.714 171.600 C 164.651 171.600,164.139 172.185,163.575 172.900 M238.200 176.000 C 238.541 176.660,238.911 177.200,239.021 177.200 C 239.131 177.200,238.941 176.660,238.600 176.000 C 238.259 175.340,237.889 174.800,237.779 174.800 C 237.669 174.800,237.859 175.340,238.200 176.000 M160.953 176.900 C 159.576 179.236,159.486 179.435,160.187 178.600 C 161.000 177.632,161.700 176.400,161.438 176.400 C 161.333 176.400,161.115 176.625,160.953 176.900 M156.846 185.667 C 156.821 186.034,156.696 186.664,156.570 187.067 C 156.352 187.762,156.363 187.763,156.797 187.087 C 157.048 186.696,157.173 186.066,157.073 185.687 C 156.911 185.068,156.888 185.066,156.846 185.667 M155.829 189.429 C 155.681 190.015,155.638 190.572,155.732 190.666 C 155.827 190.760,156.024 190.358,156.171 189.771 C 156.319 189.185,156.362 188.628,156.268 188.534 C 156.173 188.440,155.976 188.842,155.829 189.429 M244.447 192.433 C 244.473 193.185,244.641 194.340,244.820 195.000 C 245.035 195.789,245.070 195.378,244.923 193.800 C 244.677 191.155,244.373 190.281,244.447 192.433 M154.992 194.138 C 154.839 195.569,154.793 196.978,154.890 197.270 C 154.987 197.561,155.190 196.468,155.342 194.841 C 155.493 193.214,155.539 191.805,155.443 191.710 C 155.348 191.615,155.145 192.708,154.992 194.138 M154.509 200.000 C 154.509 200.990,154.587 201.395,154.682 200.900 C 154.778 200.405,154.778 199.595,154.682 199.100 C 154.587 198.605,154.509 199.010,154.509 200.000 M245.309 200.000 C 245.309 200.990,245.387 201.395,245.482 200.900 C 245.578 200.405,245.578 199.595,245.482 199.100 C 245.387 198.605,245.309 199.010,245.309 200.000 M154.823 204.033 C 154.836 204.785,155.005 206.120,155.198 207.000 C 155.469 208.230,155.498 207.952,155.326 205.800 C 155.087 202.820,154.785 201.758,154.823 204.033 M244.585 206.185 C 244.430 207.423,244.393 208.527,244.503 208.637 C 244.613 208.747,244.830 207.823,244.985 206.585 C 245.139 205.346,245.176 204.243,245.066 204.133 C 244.956 204.023,244.739 204.946,244.585 206.185 M155.656 209.600 C 155.656 209.930,155.811 210.560,156.000 211.000 C 156.217 211.504,156.344 211.578,156.344 211.200 C 156.344 210.870,156.189 210.240,156.000 209.800 C 155.783 209.296,155.656 209.222,155.656 209.600 M243.849 210.215 C 243.712 210.573,243.615 211.166,243.634 211.533 C 243.653 211.900,243.827 211.669,244.021 211.020 C 244.398 209.758,244.265 209.133,243.849 210.215 M156.456 212.800 C 156.456 213.130,156.611 213.760,156.800 214.200 C 157.017 214.704,157.144 214.778,157.144 214.400 C 157.144 214.070,156.989 213.440,156.800 213.000 C 156.583 212.496,156.456 212.422,156.456 212.800 M231.794 231.819 C 229.591 234.079,228.061 235.780,228.394 235.599 C 229.134 235.198,236.000 228.204,236.000 227.852 C 236.000 227.492,236.170 227.332,231.794 231.819 M167.800 232.000 C 169.550 233.760,171.071 235.200,171.181 235.200 C 171.291 235.200,169.950 233.760,168.200 232.000 C 166.450 230.240,164.929 228.800,164.819 228.800 C 164.709 228.800,166.050 230.240,167.800 232.000 M174.800 237.779 C 174.800 237.889,175.340 238.259,176.000 238.600 C 176.660 238.941,177.200 239.131,177.200 239.021 C 177.200 238.911,176.660 238.541,176.000 238.200 C 175.340 237.859,174.800 237.669,174.800 237.779 M210.000 244.018 C 209.562 244.315,209.724 244.352,210.600 244.156 C 212.071 243.827,212.390 243.598,211.367 243.606 C 210.945 243.609,210.330 243.795,210.000 244.018 M191.233 244.550 C 191.325 244.632,192.480 244.800,193.800 244.923 C 195.378 245.070,195.789 245.035,195.000 244.820 C 193.766 244.485,190.936 244.282,191.233 244.550 M205.000 244.800 C 203.234 245.249,205.245 245.269,207.400 244.823 L 209.000 244.492 207.600 244.493 C 206.830 244.494,205.660 244.632,205.000 244.800 M199.100 245.482 C 199.595 245.578,200.405 245.578,200.900 245.482 C 201.395 245.387,200.990 245.309,200.000 245.309 C 199.010 245.309,198.605 245.387,199.100 245.482 "
       stroke="none"
       fill="#a47434"
       fill-rule="evenodd" />
    <g
       id="g11563"
       transform="translate(142.16164,4.6738072)">
      <rect
         style="fill:#63b224;stroke-width:1.0768"
         id="rect8564"
         width="24"
         height="89.970787"
         x="188.12074"
         y="32.716652"
         rx="12"
         ry="12" />
      <rect
         style="fill:#63b224;stroke-width:0.918096"
         id="rect8564-8"
         width="22.58828"
         height="69.492088"
         x="161.49823"
         y="-119.55895"
         rx="13.383554"
         ry="13.381572"
         transform="matrix(0.71589715,0.69820575,-0.70506291,0.70914476,0,0)" />
      <rect
         style="fill:#63b224;stroke-width:0.918104"
         id="rect8564-8-6"
         width="22.588764"
         height="69.491882"
         x="-121.66687"
         y="-232.90294"
         rx="13.383842"
         ry="13.381532"
         transform="matrix(-0.69691043,0.71715818,-0.70943882,-0.70476703,0,0)" />
    </g>
    <g
       id="g14012"
       transform="translate(-0.38948393,1.5579352)">
      <rect
         style="fill:#63b224;stroke-width:1.09752"
         id="rect13760-9"
         width="18.695229"
         height="41.285294"
         x="191.6261"
         y="375.26776"
         rx="5"
         ry="6.0227275" />
      <rect
         style="fill:#63b224;stroke-width:1.08188"
         id="rect13760-9-0"
         width="18.695229"
         height="40.11684"
         x="191.23662"
         y="229.7955"
         rx="5"
         ry="5.852273" />
      <rect
         style="fill:#63b224;stroke-width:1.16288"
         id="rect13760-9-0-4"
         width="18.695229"
         height="46.348583"
         x="-95.78643"
         y="268.93198"
         rx="5"
         ry="5"
         transform="rotate(-44.884296)" />
      <rect
         style="fill:#63b224;stroke-width:1.16288"
         id="rect13760-9-0-4-8"
         width="18.695229"
         height="46.348583"
         x="-95.201248"
         y="422.33267"
         rx="5"
         ry="5"
         transform="rotate(-44.884296)" />
      <rect
         style="fill:#63b224;stroke-width:1.16288"
         id="rect13760-9-0-4-8-6"
         width="18.695229"
         height="46.348583"
         x="363.41428"
         y="-24.601465"
         rx="5"
         ry="5"
         transform="rotate(46.785821)" />
      <rect
         style="fill:#63b224;stroke-width:1.16288"
         id="rect13760-9-0-4-8-6-8"
         width="18.695229"
         height="46.348583"
         x="362.39688"
         y="128.35526"
         rx="5"
         ry="5"
         transform="rotate(46.785821)" />
      <rect
         style="fill:#63b224;stroke-width:0.959345"
         id="rect13760-9-3"
         width="18.695261"
         height="31.544302"
         x="314.72791"
         y="-145.92636"
         rx="5.0000086"
         ry="4.6017046"
         transform="matrix(0.00400304,0.99999199,-0.999995,0.00316368,0,0)" />
      <rect
         style="fill:#63b224;stroke-width:0.976932"
         id="rect13760-9-3-0"
         width="18.695271"
         height="32.711456"
         x="314.74023"
         y="-282.97656"
         rx="5.0000114"
         ry="4.7719703"
         transform="matrix(0.00415116,0.99999138,-0.99999535,0.0030508,0,0)" />
    </g>
    <path
       id="path2-0"
       d="M 48.346374,152.1711 C 45.910374,152.5241 39.934374,154.0201 39.566374,154.3691 39.357374,154.5681 38.860374,154.7301 38.461374,154.7301 38.062374,154.7301 37.423374,154.8901 37.041374,155.0861 36.659374,155.2821 35.446374,155.8611 34.346374,156.3721 26.190374,160.1611 17.177374,169.1741 13.388374,177.3301 12.877374,178.4301 12.298374,179.6431 12.102374,180.0251 11.906374,180.4071 11.746374,181.0461 11.746374,181.4451 11.746374,181.8441 11.585374,182.3411 11.389374,182.5501 9.5243739,184.5321 8.4283739,199.0991 9.6903739,205.1301 12.273374,217.4781 18.883374,227.2511 29.353374,234.2021 32.466374,236.2701 37.296374,238.7301 38.241374,238.7301 38.541374,238.7301 38.957374,238.8831 39.166374,239.0711 39.375374,239.2591 40.446374,239.6311 41.546374,239.8991 42.646374,240.1671 44.356374,240.5981 45.346374,240.8581 47.781374,241.4961 59.789374,241.4771 62.246374,240.8301 63.291374,240.5551 65.001374,240.1231 66.046374,239.8711 67.091374,239.6191 68.117374,239.2591 68.326374,239.0711 68.535374,238.8831 68.951374,238.7301 69.251374,238.7301 70.226374,238.7301 78.346374,234.5461 79.346374,233.5291 79.456374,233.4171 80.266374,232.7961 81.146374,232.1481 83.205374,230.6331 87.649374,226.1891 89.164374,224.1301 89.812374,223.2501 90.433374,222.4401 90.545374,222.3301 91.562374,221.3301 95.746374,213.2101 95.746374,212.2351 95.746374,211.9351 95.899374,211.5191 96.087374,211.3101 96.275374,211.1011 96.635374,210.0751 96.887374,209.0301 97.139374,207.9851 97.571374,206.2751 97.846374,205.2301 98.531374,202.6281 98.511374,190.7561 97.818374,188.1301 97.528374,187.0301 97.096374,185.3201 96.859374,184.3301 96.622374,183.3401 96.275374,182.3591 96.087374,182.1501 95.899374,181.9411 95.746374,181.5251 95.746374,181.2251 95.746374,180.2801 93.286374,175.4501 91.218374,172.3371 84.396374,162.0621 74.977374,155.5721 62.946374,152.8571 60.399374,152.2831 50.718374,151.8281 48.346374,152.1711"
       stroke="none"
       fill="#835b2c"
       fill-rule="evenodd" />
    <path
       id="path4-9"
       d="M 46.774627,281.67469 C 14.020627,287.38069 -1.7433731,323.64869 16.517627,351.28669 27.463627,367.85269 49.276627,375.16569 68.281627,368.64069 75.423627,366.18869 80.951627,362.66869 86.218627,357.22169 115.87563,326.54269 88.641627,274.38269 46.774627,281.67469"
       stroke="none"
       fill="#445b34"
       fill-rule="evenodd" />
    <path
       id="path4-5"
       d="M 43.910759,26.832357 C 30.251759,29.311357 18.398759,38.298357 12.177759,50.891357 11.076759,53.120357 10.176759,55.147357 10.176759,55.397357 10.176759,55.646357 10.014759,56.163357 9.8157585,56.545357 9.6167585,56.927357 9.2687585,57.960357 9.0407585,58.840357 8.8137585,59.720357 8.3907585,61.340357 8.1017585,62.440357 7.4127585,65.064357 7.4397585,75.982357 8.1437585,79.440357 15.324759,114.72436 58.843759,127.92336 83.976759,102.44036 88.170759,98.187357 94.176759,88.896357 94.176759,86.660357 94.176759,86.423357 94.338759,85.917357 94.537759,85.535357 94.736759,85.153357 95.084759,84.120357 95.312759,83.240357 95.539759,82.360357 95.962759,80.740357 96.251759,79.640357 96.970759,76.902357 96.953759,65.214357 96.226759,62.040357 90.617759,37.557357 68.146759,22.435357 43.910759,26.832357"
       stroke="none"
       fill="#732c34"
       fill-rule="evenodd" />
  </g>
</svg>
