<?xml version="1.0" encoding="UTF-8" standalone="no"?>
<svg
   id="svg"
   version="1.1"
   width="170"
   height="400"
   viewBox="0 0 170 400"
   sodipodi:docname="traffic-light-icon-green-1.svg"
   inkscape:version="1.2.1 (9c6d41e410, 2022-07-14)"
   xmlns:inkscape="http://www.inkscape.org/namespaces/inkscape"
   xmlns:sodipodi="http://sodipodi.sourceforge.net/DTD/sodipodi-0.dtd"
   xmlns="http://www.w3.org/2000/svg"
   xmlns:svg="http://www.w3.org/2000/svg">
  <defs
     id="defs405" />
  <sodipodi:namedview
     id="namedview403"
     pagecolor="#ffffff"
     bordercolor="#000000"
     borderopacity="0.25"
     inkscape:showpageshadow="2"
     inkscape:pageopacity="0.0"
     inkscape:pagecheckerboard="0"
     inkscape:deskcolor="#d1d1d1"
     showgrid="false"
     inkscape:zoom="0.59"
     inkscape:cx="200"
     inkscape:cy="200"
     inkscape:window-width="5160"
     inkscape:window-height="2054"
     inkscape:window-x="-11"
     inkscape:window-y="-11"
     inkscape:window-maximized="1"
     inkscape:current-layer="svg" />
  <g
     id="svgg"
     transform="translate(-115.18375,-0.13661111)">
    <path
       id="path0"
       d="m 194,155.428 c -15.565,2.688 -27.486,11.228 -34.144,24.459 -7.953,15.804 -5.475,36.434 5.919,49.28 4.97,5.604 15.291,12.833 18.32,12.833 0.3,0 0.716,0.149 0.925,0.33 0.453,0.394 2.818,1.086 5.58,1.632 1.1,0.217 2.959,0.585 4.131,0.817 2.74,0.542 7.816,0.539 10.538,-0.005 1.172,-0.234 3.121,-0.617 4.331,-0.85 16.346,-3.149 31.175,-17.978 34.324,-34.324 0.233,-1.21 0.616,-3.159 0.85,-4.331 0.544,-2.722 0.547,-7.798 0.005,-10.538 -0.232,-1.172 -0.6,-3.031 -0.817,-4.131 -0.546,-2.762 -1.238,-5.127 -1.632,-5.58 -0.181,-0.209 -0.33,-0.625 -0.33,-0.925 0,-1.031 -2.543,-5.899 -4.856,-9.295 -6.484,-9.522 -15.506,-15.738 -27.088,-18.662 -2.182,-0.551 -13.96,-1.072 -16.056,-0.71 m -2.9,122.054 c 0.495,0.096 1.305,0.096 1.8,0 0.495,-0.095 0.09,-0.173 -0.9,-0.173 -0.99,0 -1.395,0.078 -0.9,0.173 m 16.205,0.005 c 0.609,0.092 1.509,0.09 2,-0.005 0.492,-0.095 -0.005,-0.171 -1.105,-0.168 -1.1,0.003 -1.503,0.081 -0.895,0.173 M 232.2,290.4 c 1.528,1.54 2.869,2.8 2.979,2.8 0.11,0 -1.051,-1.26 -2.579,-2.8 -1.528,-1.54 -2.869,-2.8 -2.979,-2.8 -0.11,0 1.051,1.26 2.579,2.8"
       stroke="none"
       fill="#544c3c"
       fill-rule="evenodd" />
    <path
       id="path1"
       d="m 129.2,199.957 c 0,169.565 0.057,186.379 0.633,186.6 0.827,0.318 139.507,0.318 140.334,0 0.576,-0.221 0.633,-17.035 0.633,-186.6 V 13.6 H 200 129.2 v 186.357 m 79.776,-180.32 c 5.162,0.93 10.686,2.569 13.519,4.01 0.382,0.194 0.967,0.353 1.3,0.353 0.333,0 0.605,0.18 0.605,0.4 0,0.22 0.36,0.4 0.8,0.4 0.44,0 0.8,0.18 0.8,0.4 0,0.22 0.287,0.4 0.638,0.4 0.351,0 1.116,0.321 1.7,0.714 0.584,0.393 1.512,0.941 2.062,1.217 4.116,2.068 12.792,9.925 16.009,14.498 0.53,0.754 1.195,1.608 1.476,1.897 1.871,1.929 6.131,10.636 7.667,15.674 1.808,5.931 2.362,8.968 2.63,14.4 0.275,5.595 -0.606,16.116 -1.423,16.98 -0.197,0.209 -0.359,0.737 -0.359,1.173 0,0.675 -0.814,3.369 -1.947,6.447 -2.971,8.069 -11.208,19.352 -17.603,24.116 -0.798,0.594 -1.54,1.184 -1.65,1.312 -0.449,0.521 -5.184,3.572 -5.545,3.572 -0.213,0 -0.448,0.137 -0.522,0.304 -0.176,0.401 -6.348,3.396 -9.133,4.43 -14.628,5.436 -32.768,4.355 -46.2,-2.752 -7.777,-4.115 -11.715,-7.173 -17.846,-13.854 -2.394,-2.61 -6.714,-9.222 -8.417,-12.885 -0.88,-1.894 -1.767,-3.756 -1.969,-4.138 -0.202,-0.382 -0.368,-1.046 -0.368,-1.476 0,-0.43 -0.159,-0.88 -0.352,-0.999 -0.194,-0.12 -0.472,-0.716 -0.618,-1.324 -0.146,-0.608 -0.449,-1.826 -0.673,-2.706 -0.838,-3.294 -1.212,-5.724 -1.545,-10.055 -0.443,-5.751 0.326,-16.97 1.229,-17.925 0.197,-0.209 0.359,-0.963 0.359,-1.676 0,-0.713 0.18,-1.408 0.4,-1.544 0.22,-0.136 0.4,-0.651 0.4,-1.144 0,-0.493 0.149,-1.067 0.33,-1.276 0.182,-0.209 0.58,-1.19 0.883,-2.18 2.598,-8.463 10.862,-19.244 20.023,-26.121 1.669,-1.254 3.167,-2.279 3.328,-2.279 0.16,0 1.077,-0.54 2.036,-1.2 0.959,-0.66 2.027,-1.2 2.372,-1.2 0.345,0 0.628,-0.18 0.628,-0.4 0,-0.22 0.253,-0.4 0.562,-0.4 0.309,0 1.344,-0.386 2.3,-0.857 2.175,-1.072 2.764,-1.305 5.738,-2.267 2.201,-0.712 3.351,-0.984 8.6,-2.031 2.591,-0.517 14.92,-0.523 17.776,-0.008 M 198.5,32.291 c 0.825,0.087 2.175,0.087 3,0 0.825,-0.086 0.15,-0.157 -1.5,-0.157 -1.65,0 -2.325,0.071 -1.5,0.157 m -17.7,3.989 c -1.416,0.512 -6.817,3.88 -7.478,4.664 -0.717,0.851 -0.717,0.851 0.125,0.142 1.068,-0.9 4.682,-3.08 6.653,-4.013 1.14,-0.54 2.12,-1.269 1.4,-1.041 -0.055,0.017 -0.37,0.129 -0.7,0.248 m 37.608,-0.14 c 0.371,0.369 5.592,3.052 5.592,2.874 0,-0.265 -3.211,-2.093 -4.592,-2.614 -0.655,-0.248 -1.105,-0.364 -1,-0.26 m 6.192,3.337 c 0.22,0.216 1.48,1.213 2.8,2.213 2.343,1.777 6.885,6.308 9.131,9.11 l 1.123,1.4 -0.904,-1.4 c -1.286,-1.99 -6.984,-7.825 -9.35,-9.574 -2.145,-1.585 -3.481,-2.42 -2.8,-1.749 M 168.913,44.5 c -2.692,2.6 -5.809,6.276 -6.701,7.9 -0.528,0.962 0.278,0.039 2.27,-2.6 0.997,-1.32 3.187,-3.705 4.866,-5.3 1.68,-1.595 2.945,-2.9 2.811,-2.9 -0.135,0 -1.595,1.305 -3.246,2.9 m 69.517,9.3 c 0.494,0.88 1.07,1.78 1.28,2 0.599,0.628 -0.771,-1.906 -1.514,-2.8 -0.366,-0.44 -0.261,-0.08 0.234,0.8 m -79.05,3.44 c -0.569,1.122 -0.967,2.107 -0.885,2.189 0.082,0.082 0.632,-0.836 1.223,-2.04 0.59,-1.204 0.988,-2.189 0.884,-2.189 -0.104,0 -0.654,0.918 -1.222,2.04 M 241.246,59 c 0.007,0.22 0.36,1.12 0.783,2 0.423,0.88 0.657,1.15 0.52,0.6 -0.282,-1.133 -1.324,-3.212 -1.303,-2.6 m -83.498,1.7 c -0.124,0.385 -0.459,1.33 -0.744,2.1 -0.942,2.549 -1.866,6.757 -1.688,7.685 0.153,0.797 0.182,0.773 0.23,-0.192 0.055,-1.125 1.523,-6.957 1.907,-7.579 0.345,-0.558 0.906,-2.714 0.707,-2.714 -0.102,0 -0.287,0.315 -0.412,0.7 m 86.753,9.1 c 0.004,0.88 0.086,1.193 0.182,0.695 0.096,-0.497 0.092,-1.217 -0.008,-1.6 -0.1,-0.382 -0.179,0.025 -0.174,0.905 m -89.849,4.7 c -0.325,1.215 -0.265,5.925 0.088,6.818 0.156,0.396 0.278,-1.179 0.272,-3.499 -0.013,-4.622 -0.012,-4.615 -0.36,-3.319 m 90.629,2.967 c -0.044,1.797 -0.185,3.597 -0.311,4 -0.214,0.679 -0.198,0.682 0.216,0.039 0.268,-0.416 0.393,-2.013 0.312,-4 l -0.135,-3.306 -0.082,3.267 M 155.268,84.6 c -0.018,0.66 0.233,2.1 0.557,3.2 0.527,1.787 0.564,1.83 0.344,0.4 -0.571,-3.705 -0.867,-4.886 -0.901,-3.6 m 89.225,0.6 c 0,0.77 0.082,1.085 0.183,0.7 0.1,-0.385 0.1,-1.015 0,-1.4 -0.101,-0.385 -0.183,-0.07 -0.183,0.7 m -2.393,8.3 c -0.487,1.237 -0.822,2.311 -0.745,2.389 0.077,0.077 0.547,-0.863 1.045,-2.089 0.498,-1.226 0.833,-2.301 0.745,-2.389 -0.088,-0.087 -0.558,0.852 -1.045,2.089 m -84.872,-1.008 c -0.046,0.473 1.258,3.556 1.43,3.383 0.087,-0.087 -0.192,-0.95 -0.621,-1.917 -0.429,-0.967 -0.793,-1.627 -0.809,-1.466 m 3.521,7.708 c 0.216,0.44 0.685,1.16 1.044,1.6 l 0.651,0.8 -0.393,-0.8 c -0.216,-0.44 -0.685,-1.16 -1.044,-1.6 l -0.651,-0.8 0.393,0.8 m 73.856,6.1 c -1.251,1.477 -1.48,1.871 -0.64,1.1 1.24,-1.138 3.062,-3.4 2.739,-3.4 -0.083,0 -1.028,1.035 -2.099,2.3 M 164.01,105 c 0.919,1.296 3.592,4.208 3.572,3.891 -0.01,-0.16 -0.945,-1.281 -2.079,-2.491 -1.133,-1.21 -1.805,-1.84 -1.493,-1.4 m 5.79,6.165 c 1.138,1.24 3.4,3.062 3.4,2.739 0,-0.083 -1.035,-1.028 -2.3,-2.099 -1.477,-1.251 -1.871,-1.48 -1.1,-0.64 m 59.378,0.735 -1.378,1.5 1.5,-1.378 c 1.396,-1.284 1.684,-1.622 1.378,-1.622 -0.066,0 -0.741,0.675 -1.5,1.5 m -3.097,2.272 c -1.858,1.313 -2.119,1.689 -0.55,0.79 0.732,-0.419 1.519,-0.987 1.749,-1.262 0.591,-0.707 0.313,-0.598 -1.199,0.472 m -3.77,2.388 c -2.14,1.272 -2.4,1.684 -0.438,0.695 0.92,-0.464 1.786,-1.026 1.923,-1.249 0.318,-0.513 0.302,-0.507 -1.485,0.554 m -45.111,0.038 c 0,0.269 4.049,2.286 4.229,2.107 0.082,-0.082 -0.836,-0.632 -2.04,-1.223 -1.204,-0.59 -2.189,-0.988 -2.189,-0.884 m 4.8,2.433 c 0,0.27 2.078,1.025 2.276,0.826 0.091,-0.09 -0.384,-0.356 -1.056,-0.59 -0.671,-0.234 -1.22,-0.34 -1.22,-0.236 m 27,2.569 c -1.107,0.282 -1.123,0.309 -0.2,0.347 0.55,0.022 1.27,-0.134 1.6,-0.347 0.681,-0.44 0.329,-0.44 -1.4,0 m -11.7,1.097 c 1.485,0.077 3.915,0.077 5.4,0 1.485,-0.077 0.27,-0.14 -2.7,-0.14 -2.97,0 -4.185,0.063 -2.7,0.14 m 11.974,19.757 c 0.37,0.19 1.395,0.346 2.276,0.346 0.882,0 1.714,0.18 1.85,0.4 0.136,0.22 0.856,0.4 1.6,0.4 0.744,0 1.464,0.18 1.6,0.4 0.136,0.22 0.599,0.4 1.029,0.4 0.43,0 1.094,0.159 1.476,0.353 0.382,0.195 1.145,0.529 1.695,0.743 15.75,6.133 27.471,17.839 33.647,33.604 0.194,0.495 0.511,1.305 0.703,1.8 0.193,0.495 0.553,1.403 0.8,2.019 0.248,0.615 0.45,1.614 0.45,2.22 0,0.605 0.162,1.272 0.359,1.481 0.435,0.461 0.733,2.496 1.269,8.68 0.686,7.914 -0.519,18.017 -2.825,23.7 -0.179,0.44 -0.735,1.88 -1.236,3.2 -1.607,4.231 -5.961,11.697 -8.289,14.213 -0.373,0.403 -1.481,1.697 -2.463,2.875 -0.981,1.178 -2.749,2.946 -3.927,3.927 -1.178,0.982 -2.472,2.09 -2.875,2.463 -2.516,2.328 -9.982,6.682 -14.213,8.289 -1.32,0.501 -2.76,1.057 -3.2,1.236 -5.683,2.306 -15.786,3.511 -23.7,2.825 -6.184,-0.536 -8.219,-0.834 -8.68,-1.269 -0.209,-0.197 -0.876,-0.359 -1.481,-0.359 -0.606,0 -1.605,-0.202 -2.22,-0.45 -0.616,-0.247 -1.569,-0.628 -2.119,-0.846 -0.55,-0.219 -1.313,-0.556 -1.695,-0.751 -0.382,-0.194 -0.882,-0.353 -1.113,-0.353 -0.23,0 -2.026,-0.8 -3.99,-1.778 -12.944,-6.441 -23.166,-17.71 -28.506,-31.422 -0.214,-0.55 -0.548,-1.313 -0.743,-1.695 -0.194,-0.382 -0.353,-1.046 -0.353,-1.476 0,-0.43 -0.18,-0.893 -0.4,-1.029 -0.22,-0.136 -0.4,-0.831 -0.4,-1.544 0,-0.713 -0.163,-1.467 -0.361,-1.676 -1.659,-1.745 -1.659,-25.015 0,-26.76 0.198,-0.209 0.361,-0.963 0.361,-1.676 0,-0.713 0.18,-1.408 0.4,-1.544 0.22,-0.136 0.4,-0.599 0.4,-1.029 0,-0.43 0.159,-1.094 0.353,-1.476 0.195,-0.382 0.529,-1.145 0.743,-1.695 6.063,-15.568 18.136,-27.641 33.704,-33.704 0.55,-0.214 1.313,-0.548 1.695,-0.743 0.382,-0.194 1.046,-0.353 1.476,-0.353 0.43,0 0.893,-0.18 1.029,-0.4 0.136,-0.22 0.831,-0.4 1.544,-0.4 0.713,0 1.467,-0.163 1.676,-0.361 1.299,-1.235 20.484,-1.9 22.654,-0.785 M 193.4,155.2 c -0.504,0.217 -0.578,0.344 -0.2,0.344 0.33,0 0.96,-0.155 1.4,-0.344 0.504,-0.217 0.578,-0.344 0.2,-0.344 -0.33,0 -0.96,0.155 -1.4,0.344 m 12.2,-0.018 c 0.33,0.223 0.945,0.409 1.367,0.412 1.023,0.008 0.704,-0.221 -0.767,-0.55 -0.876,-0.196 -1.038,-0.159 -0.6,0.138 M 189,156 c -0.504,0.217 -0.578,0.344 -0.2,0.344 0.33,0 0.96,-0.155 1.4,-0.344 0.504,-0.217 0.578,-0.344 0.2,-0.344 -0.33,0 -0.96,0.155 -1.4,0.344 m -3.725,1.073 c -0.949,0.336 -1.654,0.681 -1.568,0.768 0.183,0.182 3.893,-1.036 3.893,-1.279 0,-0.25 -0.455,-0.15 -2.325,0.511 m -4.022,1.58 c -0.74,0.323 -1.252,0.681 -1.137,0.796 0.115,0.115 0.9,-0.156 1.746,-0.602 1.773,-0.936 1.379,-1.061 -0.609,-0.194 m 37.358,0.265 c 1.029,0.676 2.989,1.516 2.989,1.282 0,-0.223 -3.044,-1.8 -3.473,-1.8 -0.168,0 0.05,0.233 0.484,0.518 m -43.307,3.109 c -1.369,0.894 -2.603,1.809 -2.741,2.033 -0.225,0.364 4.28,-2.51 5.217,-3.328 0.87,-0.76 -0.141,-0.231 -2.476,1.295 M 222,160.579 c 0,0.11 0.54,0.48 1.2,0.821 0.66,0.341 1.2,0.531 1.2,0.421 0,-0.11 -0.54,-0.48 -1.2,-0.821 -0.66,-0.341 -1.2,-0.531 -1.2,-0.421 m 2.8,1.548 c 0,0.097 1.027,0.953 2.283,1.901 2.918,2.202 6.687,5.971 8.889,8.889 2.081,2.755 2.605,3.033 0.753,0.399 -2.334,-3.32 -11.925,-12.318 -11.925,-11.189 m -55.477,4.58 c -1.362,1.261 -3.066,3.013 -3.786,3.893 -0.72,0.88 0.436,-0.11 2.568,-2.2 2.133,-2.09 3.881,-3.845 3.886,-3.9 0.022,-0.248 -0.342,0.053 -2.668,2.207 m -6.199,6.993 c -1.144,1.531 -3.03,4.68 -2.456,4.1 0.566,-0.572 3.769,-5.4 3.583,-5.4 -0.086,0 -0.593,0.585 -1.127,1.3 m 77.158,6.089 c 0.591,1.204 1.141,2.122 1.223,2.04 0.179,-0.18 -1.838,-4.229 -2.107,-4.229 -0.104,0 0.294,0.985 0.884,2.189 m -81.659,1.617 c -0.863,2.066 -0.749,2.3 0.224,0.456 0.446,-0.846 0.718,-1.63 0.605,-1.743 -0.113,-0.113 -0.486,0.466 -0.829,1.287 m -1.577,4.04 c -0.354,1.039 -0.574,1.959 -0.49,2.044 0.085,0.084 0.444,-0.697 0.798,-1.736 0.354,-1.039 0.574,-1.959 0.49,-2.044 -0.085,-0.084 -0.444,0.697 -0.798,1.736 m -1.217,3.983 c -0.148,0.586 -0.191,1.143 -0.097,1.237 0.095,0.094 0.292,-0.308 0.439,-0.895 0.148,-0.586 0.191,-1.143 0.097,-1.237 -0.095,-0.094 -0.292,0.308 -0.439,0.895 m -0.8,4.4 c -0.148,0.586 -0.191,1.143 -0.097,1.237 0.095,0.094 0.292,-0.308 0.439,-0.895 0.148,-0.586 0.191,-1.143 0.097,-1.237 -0.095,-0.094 -0.292,0.308 -0.439,0.895 m 0.015,12.371 c 0.329,1.471 0.558,1.79 0.55,0.767 -0.003,-0.422 -0.189,-1.037 -0.412,-1.367 -0.297,-0.438 -0.334,-0.276 -0.138,0.6 m 89.556,0.2 c -0.152,0.691 -0.193,1.341 -0.091,1.442 0.102,0.102 0.3,-0.389 0.441,-1.092 0.141,-0.703 0.181,-1.352 0.091,-1.442 -0.091,-0.091 -0.289,0.401 -0.441,1.092 m -4.71,14.537 c -1.051,2.015 -1.621,3.303 -1.268,2.863 0.762,-0.947 3.485,-6.228 3.304,-6.404 -0.069,-0.067 -0.986,1.526 -2.036,3.541 m -81.49,-2.81 c 0,0.429 1.577,3.473 1.8,3.473 0.234,0 -0.606,-1.96 -1.282,-2.989 -0.285,-0.434 -0.518,-0.652 -0.518,-0.484 m 2.6,5.073 c 0.341,0.66 0.711,1.2 0.821,1.2 0.11,0 -0.08,-0.54 -0.421,-1.2 -0.341,-0.66 -0.711,-1.2 -0.821,-1.2 -0.11,0 0.08,0.54 0.421,1.2 m 2.275,3.484 c 1.708,2.428 7.613,8.333 10.041,10.041 2.634,1.852 2.356,1.328 -0.399,-0.753 -2.918,-2.202 -6.687,-5.971 -8.889,-8.889 -2.081,-2.755 -2.605,-3.033 -0.753,-0.399 M 236.8,226 c -0.47,0.66 -0.764,1.2 -0.654,1.2 0.11,0 0.584,-0.54 1.054,-1.2 0.47,-0.66 0.764,-1.2 0.654,-1.2 -0.11,0 -0.584,0.54 -1.054,1.2 m -5.045,5.9 c -1.124,1.155 -1.927,2.1 -1.784,2.1 0.354,0 4.225,-3.954 4.005,-4.091 -0.097,-0.06 -1.096,0.836 -2.221,1.991 m -5.955,5.135 -1.2,1.031 1.3,-0.86 c 0.715,-0.473 1.3,-0.938 1.3,-1.033 0,-0.3 -0.169,-0.195 -1.4,0.862 m -5.2,2.984 c -4.117,2.253 -4.308,2.656 -0.29,0.614 2.409,-1.225 4.62,-2.628 4.09,-2.595 -0.11,0.006 -1.82,0.898 -3.8,1.981 m -43,-0.621 c 0,0.269 4.049,2.286 4.229,2.107 0.082,-0.082 -0.836,-0.632 -2.04,-1.223 -1.204,-0.59 -2.189,-0.988 -2.189,-0.884 m 28.2,5.402 c -1.019,0.438 0.032,0.438 1.4,0 0.804,-0.257 0.843,-0.323 0.2,-0.332 -0.44,-0.006 -1.16,0.143 -1.6,0.332 m -1.021,19.637 c 7.654,0.725 15.829,3 21.376,5.951 4.078,2.17 8.38,4.827 9.045,5.588 0.11,0.126 0.83,0.701 1.6,1.279 6.589,4.944 14.524,15.793 17.659,24.145 0.476,1.27 1.848,5.848 2.277,7.6 1.278,5.224 1.403,6.438 1.403,13.6 0,7.162 -0.125,8.376 -1.403,13.6 -0.463,1.892 -1.843,6.463 -2.295,7.6 -1.472,3.709 -5.425,11.108 -6.556,12.274 -0.281,0.289 -0.95,1.156 -1.487,1.926 -3.248,4.663 -14.62,14.757 -16.665,14.792 -0.256,0.004 -0.526,0.143 -0.6,0.308 -0.192,0.432 -3.505,2.1 -4.171,2.1 -0.309,0 -0.562,0.18 -0.562,0.4 0,0.22 -0.36,0.4 -0.8,0.4 -0.44,0 -0.8,0.18 -0.8,0.4 0,0.22 -0.362,0.4 -0.805,0.4 -0.443,0 -1.118,0.159 -1.5,0.353 -1.247,0.635 -2.663,1.147 -4.495,1.629 -0.99,0.259 -2.353,0.64 -3.028,0.845 -0.676,0.205 -1.699,0.373 -2.274,0.373 -0.575,0 -1.534,0.185 -2.13,0.412 -0.596,0.227 -4.199,0.415 -8.007,0.42 -6.411,0.007 -9.457,-0.286 -13.561,-1.302 -4.589,-1.136 -4.72,-1.176 -7.5,-2.291 -1.558,-0.625 -6.467,-2.853 -7.255,-3.293 -0.415,-0.232 -1.405,-0.782 -2.2,-1.223 -3.329,-1.846 -9.213,-6.63 -12.403,-10.084 -0.793,-0.859 -1.806,-1.939 -2.251,-2.4 -0.444,-0.461 -1.246,-1.469 -1.78,-2.239 -0.535,-0.77 -1.079,-1.49 -1.21,-1.6 -0.635,-0.536 -3.705,-5.84 -5.003,-8.643 -0.803,-1.737 -1.627,-3.47 -1.829,-3.852 -0.203,-0.382 -0.369,-1.046 -0.369,-1.476 0,-0.43 -0.18,-0.893 -0.4,-1.029 -0.22,-0.136 -0.4,-0.676 -0.4,-1.2 0,-0.524 -0.16,-1.052 -0.356,-1.173 -0.195,-0.121 -0.458,-0.806 -0.583,-1.523 -0.125,-0.717 -0.425,-2.294 -0.667,-3.504 -1.343,-6.728 -1.047,-22.999 0.447,-24.58 0.197,-0.209 0.359,-0.876 0.359,-1.481 0,-0.606 0.202,-1.605 0.45,-2.22 0.749,-1.864 1.047,-2.656 1.552,-4.119 1.233,-3.576 5.295,-10.995 7.768,-14.187 2.721,-3.511 9.26,-10.197 9.983,-10.208 0.194,-0.003 0.644,-0.331 1,-0.73 0.732,-0.82 3.466,-2.732 5.849,-4.089 7.986,-4.547 14.838,-6.812 23.598,-7.797 5.833,-0.656 5.67,-0.654 10.979,-0.152"
       stroke="none"
       fill="#434343"
       fill-rule="evenodd" />
    <path
       id="path2"
       d="M 191.4,33.197 C 173.634,36.799 159.699,50.498 155.996,68 c -0.256,1.21 -0.617,2.83 -0.803,3.6 -0.438,1.813 -0.201,10.364 0.366,13.2 1.172,5.871 1.79,7.843 3.759,12 17.987,37.97 75.485,31.966 84.48,-8.822 0.362,-1.638 0.807,-3.559 0.989,-4.269 0.385,-1.496 0.274,-11.243 -0.152,-13.309 C 239.259,44.303 216.179,28.174 191.4,33.197 m 4.5,121.885 c 0.495,0.096 1.305,0.096 1.8,0 0.495,-0.095 0.09,-0.173 -0.9,-0.173 -0.99,0 -1.395,0.078 -0.9,0.173 m 3.4,-0.006 c 0.385,0.1 1.015,0.1 1.4,0 0.385,-0.101 0.07,-0.183 -0.7,-0.183 -0.77,0 -1.085,0.082 -0.7,0.183 m 2.5,-0.078 c 1.018,0.345 4.262,0.487 3.754,0.165 -0.305,-0.193 -1.364,-0.339 -2.354,-0.325 -0.99,0.014 -1.62,0.086 -1.4,0.16 M 154.909,196.8 c 0,0.99 0.078,1.395 0.173,0.9 0.096,-0.495 0.096,-1.305 0,-1.8 -0.095,-0.495 -0.173,-0.09 -0.173,0.9 m -0.016,3.2 c 0,0.77 0.082,1.085 0.183,0.7 0.1,-0.385 0.1,-1.015 0,-1.4 -0.101,-0.385 -0.183,-0.07 -0.183,0.7 m -0.055,3.2 c -0.014,0.99 0.132,2.049 0.325,2.354 0.216,0.341 0.278,-0.196 0.161,-1.4 -0.264,-2.709 -0.456,-3.087 -0.486,-0.954"
       stroke="none"
       fill="#543c3c"
       fill-rule="evenodd" />
    <path
       id="path3"
       d="m 194.721,277.412 c -0.148,0.148 -1.315,0.41 -2.595,0.583 -2.627,0.354 -6.444,1.357 -8.29,2.178 -5.341,2.375 -9.127,4.424 -9.369,5.071 -0.074,0.196 -0.391,0.356 -0.705,0.356 -0.678,0 -8.805,7.99 -10.172,10 -0.523,0.77 -1.052,1.49 -1.174,1.6 -0.369,0.33 -3.216,5.1 -3.216,5.386 0,0.146 -0.45,1.249 -1,2.451 -0.55,1.203 -1,2.441 -1,2.751 0,0.311 -0.161,0.664 -0.358,0.786 -0.197,0.121 -0.459,0.897 -0.584,1.723 -0.125,0.827 -0.438,2.583 -0.697,3.903 -0.836,4.263 -0.491,18.168 0.476,19.18 0.2,0.209 0.363,0.879 0.363,1.489 0,1.141 0.519,2.451 3.297,8.331 8.654,18.315 31.317,28.505 51.703,23.248 0.88,-0.227 2.098,-0.532 2.706,-0.678 0.608,-0.146 1.204,-0.424 1.324,-0.618 0.119,-0.193 0.488,-0.352 0.819,-0.352 1.142,0 6.959,-3.021 10.551,-5.48 4.071,-2.787 10.979,-10.887 13.399,-15.712 3.835,-7.647 4.704,-11.473 4.727,-20.808 0.014,-6.127 -0.264,-9.443 -0.923,-11 -0.187,-0.44 -0.433,-1.481 -0.548,-2.313 -0.115,-0.832 -0.658,-2.452 -1.207,-3.6 -0.549,-1.148 -1.272,-2.717 -1.608,-3.487 -4.721,-10.822 -16.235,-20.131 -29.44,-23.803 -3.43,-0.954 -15.819,-1.845 -16.479,-1.185"
       stroke="none"
       fill="#63b324"
       fill-rule="evenodd" />
    <path
       id="path4"
       d="m 118.628,0.288 c -1.014,0.261 -1.828,1.1 -1.828,1.883 0,0.346 -0.18,0.629 -0.4,0.629 -0.22,0 -0.4,0.349 -0.4,0.776 0,0.427 -0.18,0.888 -0.4,1.024 -0.555,0.343 -0.555,390.457 0,390.8 0.22,0.136 0.4,0.597 0.4,1.024 0,0.427 0.18,0.776 0.4,0.776 0.22,0 0.4,0.283 0.4,0.629 0,2.106 -5.708,1.971 83.2,1.971 88.908,0 83.2,0.135 83.2,-1.971 0,-0.346 0.18,-0.629 0.4,-0.629 0.22,0 0.4,-0.349 0.4,-0.776 0,-0.427 0.18,-0.888 0.4,-1.024 0.266,-0.164 0.4,-65.73 0.4,-195.4 C 284.8,70.33 284.666,4.764 284.4,4.6 284.18,4.464 284,4.003 284,3.576 284,3.149 283.82,2.8 283.6,2.8 c -0.22,0 -0.4,-0.283 -0.4,-0.629 0,-2.105 5.635,-1.966 -82.571,-2.027 -44.676,-0.03 -81.576,0.034 -82.001,0.144 M 271,200 v 187.4 h -71 -71 l -0.102,-187 c -0.057,-102.85 -0.017,-187.225 0.088,-187.501 0.151,-0.4 14.582,-0.481 71.102,-0.4 L 271,12.6 V 200 M 193.2,20.086 c -1.43,0.206 -3.77,0.649 -5.2,0.983 -1.43,0.335 -3.187,0.701 -3.904,0.814 -0.717,0.113 -1.402,0.366 -1.523,0.561 -0.121,0.196 -0.572,0.356 -1.002,0.356 -0.43,0 -1.094,0.165 -1.476,0.366 -0.382,0.202 -1.415,0.667 -2.295,1.035 -14.604,6.098 -26.508,18.462 -31.774,32.999 -0.279,0.77 -0.648,1.76 -0.821,2.2 -0.172,0.44 -0.504,1.52 -0.738,2.4 -0.233,0.88 -0.543,2.05 -0.688,2.6 -1.054,3.974 -1.572,17.571 -0.838,22 0.868,5.242 2.547,10.478 5.13,16 3.651,7.806 11.204,17.012 17.456,21.276 1.03,0.702 1.933,1.423 2.006,1.601 0.074,0.178 0.374,0.323 0.667,0.323 0.293,0 0.593,0.135 0.667,0.3 0.167,0.376 2.297,1.675 3.233,1.971 0.385,0.122 0.7,0.381 0.7,0.576 0,0.194 0.252,0.353 0.559,0.353 0.308,0 1.523,0.503 2.7,1.117 7.779,4.058 22.196,6.306 31.095,4.85 3.545,-0.58 9.654,-1.927 10.646,-2.347 0.44,-0.187 1.43,-0.56 2.2,-0.829 0.77,-0.269 2.514,-1.007 3.875,-1.64 1.361,-0.633 2.589,-1.151 2.728,-1.151 0.139,0 1.038,-0.54 1.997,-1.2 0.959,-0.66 1.937,-1.2 2.172,-1.2 0.235,0 0.428,-0.18 0.428,-0.4 0,-0.22 0.236,-0.4 0.525,-0.4 0.288,0 0.874,-0.315 1.301,-0.7 0.427,-0.385 1.766,-1.453 2.976,-2.373 1.868,-1.421 4.766,-4.199 8.207,-7.865 0.444,-0.474 1.246,-1.492 1.78,-2.262 0.535,-0.77 1.073,-1.49 1.195,-1.6 1.178,-1.057 5.584,-9.552 7.014,-13.523 10.446,-29.013 -4.544,-62.914 -32.398,-73.272 -0.44,-0.164 -1.25,-0.49 -1.8,-0.725 -0.55,-0.235 -1.72,-0.644 -2.6,-0.909 -0.88,-0.266 -2.05,-0.624 -2.6,-0.797 -0.976,-0.306 -3.511,-0.757 -8.833,-1.571 -3.128,-0.479 -9.141,-0.439 -12.767,0.083 m 12.2,10.957 c 1.54,0.121 2.971,0.385 3.18,0.588 0.209,0.203 0.963,0.369 1.676,0.369 0.713,0 1.408,0.18 1.544,0.4 0.136,0.22 0.771,0.4 1.411,0.4 0.641,0 1.806,0.36 2.589,0.8 0.783,0.44 1.655,0.8 1.937,0.8 0.72,0 4.543,1.882 4.858,2.391 0.143,0.232 0.896,0.687 1.674,1.012 2.311,0.966 12.531,10.098 12.531,11.198 0,0.247 0.54,0.967 1.2,1.599 0.66,0.632 1.2,1.364 1.2,1.626 0,0.262 0.26,0.691 0.577,0.955 1.99,1.651 5.53,11.449 6.293,17.419 1.52,11.887 -1.073,23.668 -7.095,32.236 -0.756,1.076 -1.375,2.102 -1.375,2.281 0,0.836 -11.403,11.283 -12.314,11.283 -0.214,0 -0.604,0.26 -0.867,0.577 -0.619,0.746 -7.617,4.223 -8.498,4.223 -0.371,0 -0.785,0.18 -0.921,0.4 -0.136,0.22 -0.676,0.4 -1.2,0.4 -0.524,0 -1.064,0.18 -1.2,0.4 -0.136,0.22 -0.856,0.4 -1.6,0.4 -0.744,0 -1.464,0.18 -1.6,0.4 -0.136,0.22 -1.216,0.4 -2.4,0.4 -1.184,0 -2.264,0.18 -2.4,0.4 -0.14,0.227 -2.13,0.4 -4.6,0.4 -2.47,0 -4.46,-0.173 -4.6,-0.4 -0.136,-0.22 -1.216,-0.4 -2.4,-0.4 -1.184,0 -2.264,-0.18 -2.4,-0.4 -0.136,-0.22 -0.856,-0.4 -1.6,-0.4 -0.744,0 -1.464,-0.18 -1.6,-0.4 -0.136,-0.22 -0.676,-0.4 -1.2,-0.4 -0.524,0 -1.064,-0.18 -1.2,-0.4 -0.136,-0.22 -0.518,-0.4 -0.849,-0.4 -3.856,0 -21.751,-13.614 -21.751,-16.548 0,-0.322 -0.145,-0.645 -0.323,-0.719 -1.086,-0.447 -4.853,-7.356 -6.157,-11.292 -4.843,-14.611 -2.381,-30.809 6.48,-42.635 2.833,-3.781 10.943,-11.205 13.331,-12.203 0.778,-0.325 1.518,-0.758 1.644,-0.962 0.297,-0.48 4.226,-2.441 4.891,-2.441 0.28,0 1.151,-0.36 1.934,-0.8 0.783,-0.44 1.948,-0.8 2.589,-0.8 0.64,0 1.275,-0.18 1.411,-0.4 0.136,-0.22 0.856,-0.4 1.6,-0.4 0.744,0 1.464,-0.18 1.6,-0.4 0.136,-0.22 1.452,-0.403 2.924,-0.406 1.472,-0.003 2.946,-0.189 3.276,-0.412 0.335,-0.227 1.57,-0.307 2.8,-0.182 1.21,0.123 3.46,0.322 5,0.443 m -12.8,111.744 c -0.44,0.196 -1.448,0.369 -2.24,0.385 -0.792,0.015 -1.962,0.187 -2.6,0.381 -0.638,0.195 -1.97,0.579 -2.96,0.854 -6.128,1.703 -16.461,6.518 -18,8.389 -0.11,0.133 -0.83,0.677 -1.6,1.208 -3.021,2.083 -9.113,8.175 -11.196,11.196 -0.531,0.77 -1.075,1.49 -1.208,1.6 -1.678,1.38 -6.785,12.019 -8.066,16.8 -0.206,0.77 -0.552,2.03 -0.769,2.8 -5.738,20.395 3.984,47.673 21.239,59.594 0.77,0.532 1.49,1.073 1.6,1.201 2.483,2.902 16.68,8.697 24.2,9.878 2.595,0.408 15.413,0.407 18,-10e-4 2.211,-0.349 7.947,-1.767 9.2,-2.275 0.44,-0.178 2.06,-0.804 3.6,-1.391 13.666,-5.21 26.396,-17.94 31.606,-31.606 0.587,-1.54 1.213,-3.16 1.391,-3.6 3.077,-7.596 3.579,-23.544 1.033,-32.8 -5.667,-20.597 -20.568,-35.501 -41.23,-41.235 -4.948,-1.374 -19.908,-2.31 -22,-1.378 m 16.4,11.93 c 3.969,0.69 13.345,4.223 13.994,5.274 0.132,0.213 0.862,0.683 1.623,1.044 0.761,0.361 1.383,0.816 1.383,1.011 0,0.195 0.194,0.354 0.431,0.354 1.695,0 10.929,9.601 12.579,13.078 0.336,0.709 0.781,1.393 0.988,1.521 1.161,0.717 4.462,9.603 5.424,14.601 0.732,3.801 0.738,12.84 0.012,16.8 -0.943,5.138 -4.837,15.2 -5.882,15.2 -0.193,0 -0.352,0.193 -0.352,0.428 0,0.481 -2.049,3.55 -3.587,5.372 -3.443,4.079 -10.206,9.8 -11.585,9.8 -0.235,0 -0.428,0.159 -0.428,0.352 0,1.045 -10.062,4.939 -15.2,5.882 -3.96,0.726 -12.999,0.72 -16.8,-0.012 -4.998,-0.962 -13.884,-4.263 -14.601,-5.424 -0.128,-0.207 -0.812,-0.652 -1.521,-0.988 -3.477,-1.65 -13.078,-10.884 -13.078,-12.579 0,-0.237 -0.159,-0.431 -0.354,-0.431 -0.195,0 -0.65,-0.622 -1.011,-1.383 -0.361,-0.761 -0.831,-1.491 -1.044,-1.623 -2.696,-1.666 -5.711,-13.813 -5.706,-22.994 0.004,-9.181 3.023,-21.337 5.712,-22.998 0.21,-0.13 0.677,-0.858 1.038,-1.619 0.361,-0.761 0.816,-1.383 1.011,-1.383 0.195,0 0.354,-0.194 0.354,-0.431 0,-0.88 4.924,-6.419 7.783,-8.755 1.625,-1.328 3.148,-2.414 3.386,-2.414 0.237,0 0.431,-0.159 0.431,-0.354 0,-0.195 0.622,-0.65 1.383,-1.011 0.761,-0.361 1.489,-0.828 1.619,-1.038 0.702,-1.136 11.83,-5.192 14.275,-5.203 0.728,-0.003 1.593,-0.185 1.923,-0.404 0.748,-0.497 12.459,-0.254 15.8,0.327 m -13,110.326 c -22.627,1.852 -43.872,17.731 -49.984,37.357 -0.308,0.99 -0.684,1.98 -0.834,2.2 -0.151,0.22 -0.397,0.94 -0.546,1.6 -0.15,0.66 -0.455,1.92 -0.679,2.8 -1.811,7.109 -1.82,19.984 -0.019,27.2 0.706,2.824 0.922,3.583 1.255,4.4 0.179,0.44 0.547,1.43 0.816,2.2 4.54,12.984 15.26,24.802 28.67,31.604 2.157,1.094 4.2,1.991 4.541,1.993 0.341,0.001 0.791,0.152 1,0.333 0.209,0.182 1.19,0.563 2.18,0.847 0.99,0.284 2.25,0.656 2.8,0.827 0.98,0.304 2.968,0.702 7.824,1.565 3.119,0.555 10.833,0.555 13.952,0 4.856,-0.863 6.844,-1.261 7.824,-1.565 0.55,-0.171 1.81,-0.543 2.8,-0.827 0.99,-0.284 1.971,-0.665 2.18,-0.847 0.209,-0.181 0.632,-0.33 0.939,-0.33 0.308,0 2.117,-0.754 4.02,-1.676 32.039,-15.515 42.686,-54.888 22.907,-84.711 -3.341,-5.038 -14.179,-15.613 -16.001,-15.613 -0.208,0 -0.438,-0.135 -0.512,-0.3 -0.167,-0.376 -2.297,-1.675 -3.233,-1.971 -0.385,-0.122 -0.7,-0.381 -0.7,-0.576 0,-0.194 -0.265,-0.353 -0.588,-0.353 -0.323,0 -1.178,-0.332 -1.9,-0.737 -6.315,-3.547 -20.013,-6.133 -28.712,-5.42 m 10.2,11.757 c 0.136,0.22 1.216,0.4 2.4,0.4 1.184,0 2.264,0.18 2.4,0.4 0.136,0.22 0.856,0.4 1.6,0.4 0.744,0 1.449,0.156 1.567,0.346 0.117,0.19 0.838,0.447 1.601,0.571 1.714,0.278 7.097,2.797 7.808,3.654 0.287,0.346 0.742,0.629 1.011,0.629 0.269,0 0.815,0.36 1.213,0.8 0.398,0.44 0.924,0.8 1.168,0.8 0.532,0 10.112,9.689 11.273,11.4 0.447,0.66 1.239,1.965 1.76,2.9 0.52,0.935 1.093,1.7 1.273,1.7 0.179,0 0.326,0.54 0.326,1.2 0,0.66 0.18,1.2 0.4,1.2 0.22,0 0.4,0.36 0.4,0.8 0,0.44 0.18,0.8 0.4,0.8 0.22,0 0.4,0.36 0.4,0.8 0,0.44 0.18,0.8 0.4,0.8 0.22,0 0.4,0.439 0.4,0.976 0,0.537 0.18,1.088 0.4,1.224 0.22,0.136 0.4,0.856 0.4,1.6 0,0.744 0.18,1.464 0.4,1.6 0.22,0.136 0.4,1.191 0.4,2.344 0,1.153 0.19,2.286 0.421,2.517 0.761,0.761 -0.012,15.834 -0.858,16.719 -0.2,0.209 -0.363,0.879 -0.363,1.488 0,0.609 -0.36,1.749 -0.8,2.532 -0.44,0.783 -0.8,1.65 -0.8,1.927 0,0.728 -4.055,8.707 -5.215,10.261 -1.606,2.152 -9.3,10.012 -9.8,10.012 -0.254,0 -0.787,0.36 -1.185,0.8 -0.398,0.44 -0.944,0.8 -1.213,0.8 -0.269,0 -0.705,0.26 -0.968,0.577 -0.619,0.746 -7.617,4.223 -8.498,4.223 -0.371,0 -0.785,0.18 -0.921,0.4 -0.136,0.22 -0.676,0.4 -1.2,0.4 -0.524,0 -1.064,0.18 -1.2,0.4 -0.136,0.22 -0.831,0.4 -1.544,0.4 -0.713,0 -1.467,0.163 -1.676,0.363 -0.592,0.566 -4.312,0.913 -9.78,0.913 -5.468,0 -9.188,-0.347 -9.78,-0.913 -0.209,-0.2 -0.963,-0.363 -1.676,-0.363 -0.713,0 -1.408,-0.18 -1.544,-0.4 -0.136,-0.22 -0.676,-0.4 -1.2,-0.4 -0.524,0 -1.064,-0.18 -1.2,-0.4 -0.136,-0.22 -0.576,-0.4 -0.978,-0.4 -0.799,0 -7.437,-3.325 -8.453,-4.235 -0.348,-0.311 -0.841,-0.565 -1.097,-0.565 -0.256,0 -0.69,-0.36 -0.965,-0.8 -0.275,-0.44 -0.745,-0.8 -1.046,-0.8 -0.646,0 -8.861,-8 -8.861,-8.629 0,-0.237 -0.446,-0.85 -0.99,-1.362 -0.977,-0.918 -5.41,-9.357 -5.41,-10.3 0,-0.266 -0.36,-1.126 -0.8,-1.909 -0.44,-0.783 -0.8,-1.948 -0.8,-2.589 0,-0.64 -0.18,-1.275 -0.4,-1.411 -0.22,-0.136 -0.4,-1.216 -0.4,-2.4 0,-1.184 -0.18,-2.264 -0.4,-2.4 -0.237,-0.146 -0.4,-2.596 -0.4,-6 0,-3.404 0.163,-5.854 0.4,-6 0.22,-0.136 0.4,-1.216 0.4,-2.4 0,-1.184 0.18,-2.264 0.4,-2.4 0.22,-0.136 0.4,-0.629 0.4,-1.095 0,-1.136 0.757,-3.247 2.097,-5.846 0.606,-1.177 1.103,-2.46 1.103,-2.851 0,-0.39 0.273,-0.937 0.607,-1.214 0.334,-0.277 0.908,-1.154 1.275,-1.949 1.141,-2.472 11.578,-14.045 12.666,-14.045 0.214,0 0.715,-0.295 1.113,-0.655 0.831,-0.752 3.163,-2.06 6.339,-3.557 1.21,-0.57 2.513,-1.206 2.895,-1.412 0.382,-0.207 1.046,-0.376 1.476,-0.376 0.43,0 0.893,-0.18 1.029,-0.4 0.136,-0.22 0.856,-0.4 1.6,-0.4 0.744,0 1.464,-0.18 1.6,-0.4 0.136,-0.22 1.216,-0.4 2.4,-0.4 1.184,0 2.264,-0.18 2.4,-0.4 0.147,-0.238 2.663,-0.4 6.2,-0.4 3.537,0 6.053,0.162 6.2,0.4"
       stroke="none"
       fill="#241c24"
       fill-rule="evenodd" />
    <path
       id="path5"
       d="m 194,277.189 c -0.33,0.219 -1.248,0.402 -2.04,0.405 -0.792,0.003 -1.962,0.167 -2.6,0.365 -0.638,0.197 -2.24,0.672 -3.56,1.055 -1.32,0.383 -2.58,0.828 -2.8,0.989 -0.22,0.161 -1.12,0.518 -2,0.794 -0.88,0.276 -1.96,0.81 -2.4,1.186 -0.44,0.377 -1.45,0.982 -2.245,1.344 -0.795,0.362 -1.672,0.932 -1.949,1.266 -0.277,0.334 -0.716,0.607 -0.975,0.607 -1.096,0 -11.423,11.298 -12.981,14.2 -0.472,0.88 -1.012,1.87 -1.199,2.2 -1.908,3.36 -3.384,7.577 -2.451,7 0.22,-0.136 0.4,-0.501 0.4,-0.812 0,-0.31 0.45,-1.548 1,-2.751 0.55,-1.202 1,-2.305 1,-2.451 0,-0.286 2.847,-5.056 3.216,-5.386 0.122,-0.11 0.651,-0.83 1.174,-1.6 1.367,-2.01 9.494,-10 10.172,-10 0.314,0 0.631,-0.16 0.705,-0.356 0.242,-0.647 4.028,-2.696 9.369,-5.071 6.436,-2.862 19.377,-3.687 26.764,-1.705 10.931,2.933 20.878,9.594 26.479,17.732 1.283,1.863 2.888,4.659 3.561,6.2 0.336,0.77 1.059,2.339 1.608,3.487 0.549,1.148 1.092,2.768 1.207,3.6 0.115,0.832 0.361,1.873 0.548,2.313 0.991,2.339 1.308,15.141 0.48,19.4 -1.935,9.962 -4.904,15.473 -12.483,23.17 -2.31,2.346 -4.65,4.573 -5.2,4.95 -3.592,2.459 -9.409,5.48 -10.551,5.48 -0.331,0 -0.7,0.159 -0.819,0.352 -0.12,0.194 -0.716,0.472 -1.324,0.618 -0.608,0.146 -1.826,0.451 -2.706,0.678 -6.739,1.738 -15.303,1.739 -22.8,0.002 -11.722,-2.715 -23.785,-12.418 -28.903,-23.25 -2.778,-5.88 -3.297,-7.19 -3.297,-8.331 0,-0.61 -0.163,-1.28 -0.363,-1.489 -0.949,-0.993 -1.319,-14.941 -0.503,-18.98 0.865,-4.283 0.98,-5.318 0.56,-5.058 -0.427,0.264 -0.794,1.938 -1.152,5.258 -0.119,1.1 -0.379,2.171 -0.579,2.38 -0.501,0.525 -0.467,10.908 0.037,11.22 0.22,0.136 0.4,1.216 0.4,2.4 0,1.184 0.18,2.264 0.4,2.4 0.22,0.136 0.4,0.689 0.4,1.228 0,0.539 0.372,1.834 0.828,2.876 1.686,3.865 5.353,11.296 5.572,11.296 0.125,0 0.567,0.575 0.983,1.278 3.279,5.552 14.958,14.13 22.217,16.318 0.99,0.299 1.971,0.692 2.18,0.874 0.209,0.181 0.963,0.33 1.676,0.33 0.713,0 1.408,0.18 1.544,0.4 0.136,0.22 1.216,0.4 2.4,0.4 1.184,0 2.264,0.18 2.4,0.4 0.14,0.227 2.13,0.4 4.6,0.4 2.47,0 4.46,-0.173 4.6,-0.4 0.136,-0.22 1.216,-0.4 2.4,-0.4 1.184,0 2.264,-0.18 2.4,-0.4 0.136,-0.22 0.856,-0.4 1.6,-0.4 0.744,0 1.464,-0.18 1.6,-0.4 0.136,-0.22 0.599,-0.4 1.029,-0.4 0.43,0 1.094,-0.154 1.476,-0.343 0.382,-0.188 2.315,-1.106 4.295,-2.039 6.88,-3.241 13.08,-8.254 17.785,-14.38 1.35,-1.758 5.615,-9.715 5.615,-10.476 0,-0.22 0.36,-1.146 0.8,-2.056 0.44,-0.911 0.8,-2.126 0.8,-2.701 0,-0.575 0.163,-1.216 0.363,-1.425 0.836,-0.874 1.607,-15.17 0.859,-15.918 -0.232,-0.232 -0.422,-1.365 -0.422,-2.518 0,-1.153 -0.18,-2.208 -0.4,-2.344 -0.22,-0.136 -0.4,-0.644 -0.4,-1.129 0,-1.221 -2.221,-6.987 -3.648,-9.471 -0.19,-0.33 -0.841,-1.48 -1.448,-2.556 -0.607,-1.075 -1.315,-2.318 -1.572,-2.762 -0.698,-1.203 -10.65,-11.082 -11.164,-11.082 -0.244,0 -0.77,-0.36 -1.168,-0.8 -0.398,-0.44 -0.944,-0.8 -1.213,-0.8 -0.269,0 -0.72,-0.278 -1.001,-0.617 -1.305,-1.572 -9.582,-4.596 -14.986,-5.475 -3.512,-0.571 -13.484,-0.795 -14.2,-0.319"
       stroke="none"
       fill="#548424"
       fill-rule="evenodd" />
    <path
       id="path6"
       d="m 164.5,13.5 c 19.525,0.057 51.475,0.057 71,0 19.525,-0.057 3.55,-0.104 -35.5,-0.104 -39.05,0 -55.025,0.047 -35.5,0.104 m 29.6,5.991 c 0.825,0.087 2.175,0.087 3,0 0.825,-0.086 0.15,-0.157 -1.5,-0.157 -1.65,0 -2.325,0.071 -1.5,0.157 m 7.7,-0.092 c 0.22,0.074 2.02,0.213 4,0.309 1.98,0.095 3.15,0.038 2.6,-0.128 -0.952,-0.286 -7.435,-0.464 -6.6,-0.181 M 189.4,20 l -1.6,0.286 1.4,0.017 c 0.77,0.01 1.85,-0.127 2.4,-0.303 1.285,-0.412 0.099,-0.412 -2.2,0 m 20.233,0.145 c 0.092,0.08 0.968,0.247 1.946,0.373 1.151,0.147 1.575,0.098 1.2,-0.139 -0.534,-0.339 -3.521,-0.56 -3.146,-0.234 M 184,21.2 c -0.764,0.494 0.058,0.494 1.6,0 l 1,-0.32 -1,-0.034 c -0.55,-0.019 -1.27,0.141 -1.6,0.354 m 30.033,-0.256 c 0.092,0.079 0.707,0.264 1.367,0.412 0.876,0.196 1.038,0.159 0.6,-0.138 -0.54,-0.365 -2.368,-0.62 -1.967,-0.274 m 4.573,1.466 c 0.1,0.162 0.629,0.38 1.176,0.484 0.547,0.105 0.912,0.058 0.812,-0.104 -0.1,-0.162 -0.629,-0.38 -1.176,-0.484 -0.547,-0.105 -0.912,-0.058 -0.812,0.104 m -47.006,4.023 -1,0.815 1.3,-0.634 c 0.715,-0.349 1.3,-0.72 1.3,-0.824 0,-0.398 -0.637,-0.142 -1.6,0.643 m -4.6,2.799 c -2.51,1.897 -2.621,2.221 -0.2,0.584 2.535,-1.715 2.662,-1.82 2.167,-1.805 -0.202,0.006 -1.087,0.556 -1.967,1.221 m 30.464,2.238 c -0.181,0.182 -1.709,0.448 -3.397,0.591 -1.687,0.144 -3.877,0.467 -4.867,0.719 -0.99,0.251 -2.43,0.602 -3.2,0.78 -0.77,0.178 -2.03,0.6 -2.8,0.937 -0.77,0.338 -2.345,1.025 -3.5,1.527 -1.155,0.502 -2.1,1.035 -2.1,1.184 0,0.149 -0.74,0.604 -1.644,1.012 -0.904,0.408 -2.183,1.245 -2.842,1.861 -0.659,0.615 -1.366,1.119 -1.572,1.119 -0.465,0 -7.934,7.67 -7.939,8.153 -0.002,0.194 -0.337,0.644 -0.746,1 -0.408,0.356 -1.152,1.457 -1.653,2.447 -0.501,0.99 -1.064,1.899 -1.251,2.019 -0.632,0.409 -3.035,5.766 -3.938,8.781 -0.494,1.65 -1.06,3.522 -1.257,4.16 -0.502,1.627 -0.468,5.429 0.042,4.64 0.213,-0.33 0.391,-1.176 0.394,-1.88 0.04,-8.374 8.907,-23.005 18.004,-29.708 22.365,-16.478 54.901,-8.576 67.423,16.376 2.199,4.38 4.173,10.656 4.185,13.305 0.005,0.991 0.1,1.162 0.394,0.707 0.491,-0.759 0.508,-2.489 0.037,-3.681 -0.2,-0.506 -0.758,-2.269 -1.24,-3.919 -1.366,-4.674 -4.185,-9.966 -7.797,-14.64 -1.57,-2.03 -7.33,-7.76 -7.802,-7.76 -0.202,0 -0.734,-0.394 -1.182,-0.875 -1.681,-1.804 -9.946,-6.014 -13.316,-6.783 -0.825,-0.188 -2.265,-0.539 -3.2,-0.781 -3.256,-0.84 -12.761,-1.767 -13.236,-1.291 m 40.336,1.882 c 1.32,1.238 2.76,2.452 3.2,2.696 0.913,0.509 -3.496,-3.559 -4.767,-4.398 -0.458,-0.302 0.247,0.464 1.567,1.702 M 160.378,34.7 159,36.2 l 1.596,-1.4 c 0.877,-0.77 1.672,-1.445 1.766,-1.5 0.094,-0.055 -0.003,-0.1 -0.217,-0.1 -0.213,0 -1.008,0.675 -1.767,1.5 m -3.403,3.4 -1.175,1.3 1.3,-1.175 c 1.212,-1.095 1.484,-1.425 1.175,-1.425 -0.069,0 -0.654,0.585 -1.3,1.3 M 241.6,36.925 c 0,0.069 0.573,0.654 1.274,1.3 l 1.275,1.175 -0.975,-1.278 C 242.347,37.037 241.6,36.469 241.6,36.925 M 154.344,41.1 c -1.151,1.389 -1.638,2.1 -1.44,2.1 0.11,0 0.682,-0.63 1.269,-1.4 1.09,-1.429 1.222,-1.968 0.171,-0.7 m 91.483,0.7 c 1.373,1.8 1.641,1.803 0.477,0.005 -0.497,-0.767 -1.048,-1.397 -1.224,-1.4 -0.177,-0.003 0.16,0.625 0.747,1.395 m 1.773,1.92 c 0,0.384 2.045,3.48 2.299,3.48 0.179,0 -0.458,-1.081 -1.76,-2.989 -0.297,-0.434 -0.539,-0.655 -0.539,-0.491 m -97.8,3.88 c -0.341,0.66 -0.531,1.2 -0.421,1.2 0.11,0 0.48,-0.54 0.821,-1.2 0.341,-0.66 0.531,-1.2 0.421,-1.2 -0.11,0 -0.48,0.54 -0.821,1.2 m 100.215,0.2 c 0.002,0.22 0.371,0.85 0.821,1.4 0.543,0.664 0.679,0.731 0.404,0.2 -0.674,-1.305 -1.228,-2.028 -1.225,-1.6 m 7.447,20.8 c 0.134,0.88 0.31,1.675 0.391,1.767 0.303,0.343 0.076,-1.799 -0.272,-2.567 -0.252,-0.558 -0.288,-0.315 -0.119,0.8 M 142.249,68.215 c -0.137,0.358 -0.229,1.221 -0.205,1.918 0.038,1.104 0.089,1.038 0.392,-0.508 0.357,-1.82 0.258,-2.568 -0.187,-1.41 m 11.714,6.083 c -0.616,1.619 0.096,10.187 1.171,14.102 1.211,4.409 4.64,12.448 5.63,13.2 0.145,0.11 0.919,1.19 1.72,2.4 6.052,9.138 18.411,16.889 30.116,18.887 6.447,1.101 15.908,0.308 22.4,-1.876 2.407,-0.809 8.599,-3.785 9.302,-4.469 0.277,-0.269 0.862,-0.604 1.3,-0.743 0.439,-0.139 0.798,-0.409 0.798,-0.599 0,-0.19 0.354,-0.458 0.786,-0.596 0.433,-0.137 2.619,-2.084 4.858,-4.327 3.559,-3.563 4.85,-5.106 6.556,-7.837 0.22,-0.352 0.532,-0.739 0.694,-0.86 2.045,-1.529 6.897,-15.803 6.003,-17.659 -0.424,-0.882 -0.444,-0.867 -0.47,0.369 -0.313,14.911 -16.272,32.517 -33.627,37.099 -5.164,1.363 -13.653,1.848 -17.523,1 -1.032,-0.227 -2.777,-0.601 -3.877,-0.833 -20.342,-4.28 -37.115,-26.024 -35.275,-45.729 0.264,-2.827 0.1,-3.271 -0.562,-1.529 m 91.437,3.475 c 0,3.058 0.133,4.454 0.4,4.187 0.645,-0.644 0.75,-7.235 0.129,-8.067 -0.449,-0.601 -0.529,-0.013 -0.529,3.88 M 258.137,77.4 c 0.002,1.76 0.072,2.43 0.156,1.489 0.085,-0.94 0.084,-2.38 -0.002,-3.2 -0.086,-0.819 -0.155,-0.049 -0.154,1.711 M 141.72,77.6 c 0,1.21 0.075,1.705 0.167,1.1 0.091,-0.605 0.091,-1.595 0,-2.2 -0.092,-0.605 -0.167,-0.11 -0.167,1.1 m 0.286,7.233 c 0.003,0.752 0.186,1.637 0.406,1.967 0.279,0.419 0.321,0.058 0.138,-1.2 -0.325,-2.241 -0.552,-2.56 -0.544,-0.767 M 257.45,86.05 c -0.333,1.667 -0.01,1.99 0.35,0.35 0.152,-0.691 0.193,-1.341 0.091,-1.442 -0.102,-0.102 -0.3,0.389 -0.441,1.092 m -114.644,3.383 c 0.003,0.422 0.189,1.037 0.412,1.367 0.297,0.438 0.334,0.276 0.138,-0.6 -0.329,-1.471 -0.558,-1.79 -0.55,-0.767 m 5.954,15.967 c 0.674,1.305 1.228,2.028 1.225,1.6 -0.002,-0.22 -0.371,-0.85 -0.821,-1.4 -0.543,-0.664 -0.679,-0.731 -0.404,-0.2 m 99.477,4.5 c -0.812,1.265 -1.058,1.808 -0.547,1.206 1.01,-1.188 2.457,-3.506 2.189,-3.506 -0.091,0 -0.83,1.035 -1.642,2.3 m -94.6,2.9 c 1.159,1.796 1.163,1.801 1.161,1.367 -0.001,-0.202 -0.466,-0.907 -1.033,-1.567 l -1.031,-1.2 0.903,1.4 m 90.538,2.5 -1.175,1.3 1.3,-1.175 c 0.715,-0.646 1.3,-1.231 1.3,-1.3 0,-0.309 -0.33,-0.037 -1.425,1.175 m -88.964,-0.585 c 0.014,0.376 2.819,3.388 2.993,3.215 0.074,-0.074 -0.572,-0.892 -1.435,-1.817 -0.863,-0.925 -1.564,-1.554 -1.558,-1.398 m 6.189,6.485 c 0.859,0.88 1.652,1.6 1.762,1.6 0.11,0 -0.503,-0.72 -1.362,-1.6 -0.859,-0.88 -1.652,-1.6 -1.762,-1.6 -0.11,0 0.503,0.72 1.362,1.6 m 76.774,0.107 -1.574,1.692 1.596,-1.4 c 0.877,-0.769 1.672,-1.444 1.766,-1.499 0.094,-0.055 0.085,-0.187 -0.021,-0.293 -0.106,-0.106 -0.901,0.569 -1.767,1.5 m -73.367,2.594 c 0.008,0.305 3.993,3.04 3.993,2.74 0,-0.091 -0.9,-0.813 -2,-1.603 -1.1,-0.79 -1.997,-1.302 -1.993,-1.137 m 15.939,8.715 c 0.74,0.321 1.55,0.577 1.8,0.568 0.25,-0.008 -0.152,-0.278 -0.892,-0.6 -0.74,-0.321 -1.55,-0.577 -1.8,-0.568 -0.25,0.008 0.152,0.278 0.892,0.6 m 37.454,-0.002 c -1.615,0.74 -0.649,0.741 1.054,0.002 0.74,-0.322 1.076,-0.577 0.746,-0.568 -0.33,0.009 -1.14,0.264 -1.8,0.566 m -33.367,1.13 c 0.092,0.079 0.707,0.264 1.367,0.412 0.876,0.196 1.038,0.159 0.6,-0.138 -0.54,-0.365 -2.368,-0.62 -1.967,-0.274 m 28.367,0.274 c -0.438,0.297 -0.276,0.334 0.6,0.138 1.471,-0.329 1.79,-0.558 0.767,-0.55 -0.422,0.003 -1.037,0.189 -1.367,0.412 m -25.567,0.531 c 0.092,0.082 1.067,0.252 2.167,0.379 1.349,0.156 1.674,0.121 1,-0.108 -0.999,-0.34 -3.482,-0.552 -3.167,-0.271 m 5.874,0.941 c 0.719,0.089 1.799,0.087 2.4,-0.004 0.601,-0.091 0.013,-0.164 -1.307,-0.162 -1.32,0.002 -1.812,0.077 -1.093,0.166 m 10.993,-0.003 c 0.605,0.091 1.595,0.091 2.2,0 0.605,-0.092 0.11,-0.167 -1.1,-0.167 -1.21,0 -1.705,0.075 -1.1,0.167 m -5.8,0.402 c 0.715,0.089 1.885,0.089 2.6,0 0.715,-0.088 0.13,-0.161 -1.3,-0.161 -1.43,0 -2.015,0.073 -1.3,0.161 m 0.2,5.998 c 0.605,0.091 1.595,0.091 2.2,0 0.605,-0.092 0.11,-0.167 -1.1,-0.167 -1.21,0 -1.705,0.075 -1.1,0.167 m -8.1,0.534 c -0.43,0.293 -0.146,0.333 1,0.141 1.984,-0.332 2.304,-0.564 0.767,-0.556 -0.642,0.003 -1.437,0.19 -1.767,0.415 m 16.8,-0.021 c 1.542,0.494 2.364,0.494 1.6,0 -0.33,-0.213 -1.05,-0.373 -1.6,-0.354 l -1,0.034 1,0.32 m -21,0.8 c -0.292,0.473 0.099,0.473 1.2,0 0.771,-0.331 0.769,-0.345 -0.076,-0.372 -0.482,-0.015 -0.988,0.152 -1.124,0.372 m 25.6,0 c 1.101,0.473 1.492,0.473 1.2,0 -0.136,-0.22 -0.642,-0.387 -1.124,-0.372 -0.845,0.027 -0.847,0.041 -0.076,0.372 m -43.7,7.646 c -1.363,0.873 -1.805,1.46 -0.6,0.797 0.918,-0.504 2.356,-1.616 2.1,-1.624 -0.11,-0.003 -0.785,0.369 -1.5,0.827 m 64.3,0.887 c 0,0.11 0.72,0.77 1.6,1.467 0.88,0.697 1.6,1.177 1.6,1.067 0,-0.11 -0.72,-0.77 -1.6,-1.467 -0.88,-0.697 -1.6,-1.177 -1.6,-1.067 m -70.103,3.447 c -3.502,2.901 -7.909,7.581 -10.001,10.62 -1.218,1.771 -0.36,0.846 3.061,-3.295 1.679,-2.032 4.716,-5.069 6.748,-6.748 4.259,-3.518 4.529,-3.757 4.244,-3.757 -0.116,0 -1.94,1.431 -4.052,3.18 M 193.4,154.8 c -0.44,0.189 -1.407,0.356 -2.149,0.372 -1.61,0.033 -8.804,2.386 -11.544,3.774 -12.563,6.366 -22.411,19.273 -24.609,32.254 -0.508,3.002 -0.83,14.634 -0.425,15.36 0.18,0.322 0.264,-2.057 0.187,-5.287 -0.082,-3.454 0.05,-6.779 0.319,-8.073 0.253,-1.21 0.653,-3.1 0.889,-4.2 1.789,-8.331 7.972,-18.091 15.148,-23.912 5.35,-4.339 12.227,-7.827 17.784,-9.02 1.1,-0.236 2.99,-0.636 4.2,-0.889 1.293,-0.269 4.616,-0.401 8.063,-0.319 3.225,0.077 5.655,0.008 5.4,-0.154 -0.645,-0.409 -12.284,-0.327 -13.263,0.094 m 45.2,1.731 c 1.32,1.217 3.39,3.27 4.6,4.562 1.21,1.293 1.844,1.891 1.41,1.329 -1.493,-1.931 -4.413,-4.889 -6.41,-6.495 -1.718,-1.382 -1.662,-1.297 0.4,0.604 m -29.376,-0.928 c 2.862,0.485 9.124,2.734 11.931,4.285 1.405,0.777 2.426,1.206 2.27,0.953 -0.855,-1.384 -12.132,-5.683 -14.676,-5.594 -1.204,0.042 -1.153,0.08 0.475,0.356 m 15.566,6.279 c 8.387,6.077 14.296,13.337 17.27,21.217 0.69,1.826 1.336,3.239 1.436,3.138 0.255,-0.254 -1.256,-4.191 -2.663,-6.938 -3.645,-7.116 -9.928,-14.141 -15.4,-17.217 -0.898,-0.504 -1.187,-0.594 -0.643,-0.2 m 21.785,3.45 c 0.616,0.807 1.201,1.468 1.3,1.468 0.278,0 -1.454,-2.34 -1.966,-2.656 -0.25,-0.155 0.05,0.38 0.666,1.188 m -95.222,2.368 c -1.377,2.336 -1.467,2.535 -0.766,1.7 0.813,-0.968 1.513,-2.2 1.251,-2.2 -0.105,0 -0.323,0.225 -0.485,0.5 m -8.286,18.967 c -0.147,0.146 -0.256,0.641 -0.242,1.1 0.024,0.766 0.057,0.756 0.409,-0.125 0.392,-0.979 0.31,-1.453 -0.167,-0.975 M 243.826,188 c 0.705,3.748 0.878,4.312 0.922,3 0.022,-0.66 -0.236,-1.92 -0.572,-2.8 -0.611,-1.596 -0.612,-1.597 -0.35,-0.2 m 13.42,2.4 c 0.019,0.33 0.178,1.05 0.354,1.6 l 0.32,1 0.034,-1 c 0.019,-0.55 -0.141,-1.27 -0.354,-1.6 -0.345,-0.533 -0.384,-0.533 -0.354,0 m -114.997,0.615 c -0.137,0.358 -0.231,1.131 -0.209,1.718 0.033,0.858 0.112,0.762 0.406,-0.493 0.376,-1.601 0.249,-2.387 -0.197,-1.225 M 245,200.223 c 0,4.041 0.122,7.039 0.272,6.662 0.37,-0.932 0.389,-12.969 0.022,-13.547 -0.162,-0.254 -0.294,2.844 -0.294,6.885 M 258.14,200 c 0,1.87 0.069,2.635 0.153,1.7 0.084,-0.935 0.084,-2.465 0,-3.4 -0.084,-0.935 -0.153,-0.17 -0.153,1.7 m -116.42,0 c 0,1.21 0.075,1.705 0.167,1.1 0.091,-0.605 0.091,-1.595 0,-2.2 -0.092,-0.605 -0.167,-0.11 -0.167,1.1 m 0.326,7.6 c -0.019,0.55 0.141,1.27 0.354,1.6 0.494,0.764 0.494,-0.058 0,-1.6 l -0.32,-1 -0.034,1 m 115.603,0 c -0.033,0.33 -0.16,1.05 -0.282,1.6 -0.192,0.864 -0.16,0.903 0.232,0.288 0.249,-0.391 0.376,-1.111 0.282,-1.6 -0.095,-0.488 -0.199,-0.618 -0.232,-0.288 m -102.402,1.149 c -0.089,2.544 4.21,13.821 5.594,14.676 0.253,0.156 -0.176,-0.865 -0.953,-2.27 -1.551,-2.807 -3.8,-9.069 -4.285,-11.931 -0.276,-1.628 -0.314,-1.679 -0.356,-0.475 m 89.054,0.651 c -0.157,0.88 -0.385,2.14 -0.508,2.8 -0.15,0.811 -0.015,0.64 0.416,-0.527 0.352,-0.949 0.58,-2.209 0.508,-2.8 -0.11,-0.907 -0.174,-0.826 -0.416,0.527 m -101.473,2.876 c -0.015,0.482 0.152,0.988 0.372,1.124 0.473,0.292 0.473,-0.099 0,-1.2 -0.331,-0.771 -0.345,-0.769 -0.372,0.076 m 99.757,3.398 c -3.726,11.37 -15.541,23.185 -26.911,26.911 -1.169,0.383 -2.037,0.786 -1.928,0.895 0.11,0.109 1.246,-0.193 2.526,-0.671 12.024,-4.493 22.044,-14.513 26.537,-26.537 0.478,-1.28 0.78,-2.416 0.671,-2.526 -0.109,-0.109 -0.512,0.759 -0.895,1.928 m -80.503,9.759 c 3.076,5.472 10.101,11.755 17.217,15.4 2.747,1.407 6.684,2.918 6.938,2.663 0.101,-0.1 -1.312,-0.746 -3.138,-1.436 -7.88,-2.974 -15.14,-8.883 -21.217,-17.27 -0.394,-0.544 -0.304,-0.255 0.2,0.643 m 89.396,1.572 c -0.366,0.767 -0.583,1.395 -0.482,1.395 0.274,0 1.488,-2.449 1.305,-2.632 -0.087,-0.087 -0.457,0.47 -0.823,1.237 m -1.325,2.295 c -1.377,2.336 -1.467,2.535 -0.766,1.7 0.813,-0.968 1.513,-2.2 1.251,-2.2 -0.105,0 -0.323,0.225 -0.485,0.5 m -99.942,1.1 c 0.754,1.377 3.416,5.169 3.793,5.402 0.224,0.139 -0.435,-0.975 -1.465,-2.475 -1.864,-2.715 -2.981,-4.12 -2.328,-2.927 m 4.189,6.125 c 0,0.069 0.585,0.654 1.3,1.3 l 1.3,1.175 -1.175,-1.3 c -1.095,-1.212 -1.425,-1.484 -1.425,-1.175 m 86.409,4.607 c -2.525,2.567 -3.695,3.924 -2.6,3.014 2.695,-2.239 8.057,-7.883 7.328,-7.714 -0.075,0.017 -2.203,2.132 -4.728,4.7 m -82.218,0.059 c 1.078,1.095 2.02,1.932 2.092,1.859 0.162,-0.161 -3.498,-3.85 -3.821,-3.85 -0.127,0 0.65,0.896 1.729,1.991 m 2.609,2.134 c 0,0.069 0.585,0.654 1.3,1.3 l 1.3,1.175 -1.175,-1.3 c -1.095,-1.212 -1.425,-1.484 -1.425,-1.175 m 27,0.851 c 0.88,0.336 2.14,0.594 2.8,0.572 1.312,-0.044 0.748,-0.217 -3,-0.922 -1.397,-0.262 -1.396,-0.261 0.2,0.35 m 23.322,-0.365 c -0.116,0.117 -1.001,0.367 -1.967,0.557 -1.426,0.28 -1.53,0.351 -0.555,0.382 0.66,0.021 1.92,-0.221 2.8,-0.538 0.992,-0.358 1.283,-0.584 0.767,-0.594 -0.459,-0.01 -0.929,0.077 -1.045,0.193 m -18.184,1.483 c 0.578,0.367 12.615,0.348 13.547,-0.022 0.377,-0.15 -2.621,-0.272 -6.662,-0.272 -4.041,0 -7.139,0.132 -6.885,0.294 m -29.198,0.609 c 0.156,0.253 0.851,0.864 1.544,1.357 0.693,0.494 1.133,0.69 0.976,0.437 -0.156,-0.253 -0.851,-0.864 -1.544,-1.357 -0.693,-0.494 -1.133,-0.69 -0.976,-0.437 m 4.86,3.504 c 0.44,0.359 1.16,0.828 1.6,1.044 l 0.8,0.393 -0.8,-0.651 c -0.44,-0.359 -1.16,-0.828 -1.6,-1.044 l -0.8,-0.393 0.8,0.651 m 61.1,0.239 c -1.363,0.873 -1.805,1.46 -0.6,0.797 0.918,-0.504 2.356,-1.616 2.1,-1.624 -0.11,-0.003 -0.785,0.369 -1.5,0.827 m -3.3,1.954 c -0.77,0.422 -1.256,0.774 -1.08,0.783 0.424,0.022 2.68,-1.151 2.68,-1.393 0,-0.262 -0.023,-0.253 -1.6,0.61 m -36.4,6 c 0.33,0.213 1.05,0.373 1.6,0.354 l 1,-0.034 -1,-0.32 c -1.542,-0.494 -2.364,-0.494 -1.6,0 m 17.6,0 -1,0.32 1,0.034 c 0.55,0.019 1.27,-0.141 1.6,-0.354 0.764,-0.494 -0.058,-0.494 -1.6,0 m -9.7,0.693 c 0.935,0.084 2.465,0.084 3.4,0 0.935,-0.084 0.17,-0.153 -1.7,-0.153 -1.87,0 -2.635,0.069 -1.7,0.153 M 198,264.3 c 0,0.165 0.9,0.3 2,0.3 1.1,0 2,-0.135 2,-0.3 0,-0.165 -0.9,-0.3 -2,-0.3 -1.1,0 -2,0.135 -2,0.3 m -3.5,0.387 c 0.605,0.091 1.595,0.091 2.2,0 0.605,-0.092 0.11,-0.167 -1.1,-0.167 -1.21,0 -1.705,0.075 -1.1,0.167 m 8.8,0 c 0.605,0.091 1.595,0.091 2.2,0 0.605,-0.092 0.11,-0.167 -1.1,-0.167 -1.21,0 -1.705,0.075 -1.1,0.167 m -14.1,0.513 -1,0.32 1,0.012 c 0.55,0.006 1.36,-0.143 1.8,-0.332 l 0.8,-0.344 -0.8,0.012 c -0.44,0.006 -1.25,0.156 -1.8,0.332 m 19.8,0 c 0.44,0.189 1.25,0.338 1.8,0.332 l 1,-0.012 -1,-0.32 c -0.55,-0.176 -1.36,-0.326 -1.8,-0.332 l -0.8,-0.012 0.8,0.344 m 4,0.8 c 0.44,0.189 1.07,0.344 1.4,0.344 0.378,0 0.304,-0.127 -0.2,-0.344 -0.44,-0.189 -1.07,-0.344 -1.4,-0.344 -0.378,0 -0.304,0.127 0.2,0.344 m -30.4,0.8 c -0.504,0.217 -0.578,0.344 -0.2,0.344 0.33,0 0.96,-0.155 1.4,-0.344 0.504,-0.217 0.578,-0.344 0.2,-0.344 -0.33,0 -0.96,0.155 -1.4,0.344 m 33.6,0 c 0.44,0.189 1.07,0.344 1.4,0.344 0.378,0 0.304,-0.127 -0.2,-0.344 -0.44,-0.189 -1.07,-0.344 -1.4,-0.344 -0.378,0 -0.304,0.127 0.2,0.344 m -44.6,4.836 c -0.664,0.543 -0.731,0.679 -0.2,0.404 1.305,-0.674 2.028,-1.228 1.6,-1.225 -0.22,0.002 -0.85,0.371 -1.4,0.821 m -2.8,1.6 c -0.664,0.543 -0.731,0.679 -0.2,0.404 1.305,-0.674 2.028,-1.228 1.6,-1.225 -0.22,0.002 -0.85,0.371 -1.4,0.821 m -2.695,1.689 c -0.712,0.481 -1.297,1.022 -1.3,1.202 -0.006,0.361 2.23,-1.137 2.607,-1.746 0.322,-0.521 0.184,-0.464 -1.307,0.544 m 28.157,1.775 c -0.102,0.165 2.48,0.3 5.738,0.3 3.258,0 5.84,-0.135 5.738,-0.3 -0.102,-0.165 -2.684,-0.3 -5.738,-0.3 -3.054,0 -5.636,0.135 -5.738,0.3 m -33.188,2.374 c -1.056,0.997 -1.864,1.869 -1.796,1.937 0.068,0.068 0.999,-0.681 2.069,-1.664 1.071,-0.983 1.879,-1.854 1.796,-1.937 -0.082,-0.082 -1.014,0.666 -2.069,1.664 m 77.309,-0.172 c 0.981,1.044 1.939,1.898 2.129,1.898 0.357,0 0.289,-0.07 -2.336,-2.398 -1.505,-1.336 -1.496,-1.313 0.207,0.5 M 157,283.099 c -2.272,2.564 -2.258,2.957 0.018,0.524 1.046,-1.12 1.831,-2.102 1.743,-2.183 -0.089,-0.081 -0.881,0.665 -1.761,1.659 M 177.8,282 c -0.398,0.44 -0.599,0.8 -0.445,0.8 0.153,0 0.665,-0.36 1.137,-0.8 0.472,-0.44 0.673,-0.8 0.445,-0.8 -0.227,0 -0.739,0.36 -1.137,0.8 m 45.849,1.121 c 3.797,2.47 3.951,2.562 3.951,2.34 0,-0.289 -6.069,-4.261 -6.511,-4.261 -0.215,0 0.936,0.864 2.56,1.921 M 243,283.6 c 0.859,0.88 1.637,1.6 1.728,1.6 0.337,0 -2.542,-3.134 -2.909,-3.166 -0.21,-0.019 0.322,0.686 1.181,1.566 m -67.711,-0.135 c -0.721,0.355 -1.246,0.712 -1.165,0.792 0.171,0.171 2.676,-1.033 2.676,-1.286 0,-0.242 -0.053,-0.225 -1.511,0.494 m -3.065,1.948 c -0.999,0.755 -0.629,0.75 0.83,-0.011 0.63,-0.328 0.876,-0.592 0.546,-0.587 -0.33,0.006 -0.949,0.275 -1.376,0.598 m -18.523,1.516 c -0.49,0.699 -1.184,1.676 -1.544,2.171 -0.36,0.495 -0.558,0.9 -0.44,0.9 0.312,0 3.207,-4.009 3.026,-4.19 -0.084,-0.084 -0.553,0.419 -1.042,1.119 m 75.532,0.371 c 0.092,0.055 0.707,0.55 1.367,1.1 l 1.2,1 -0.97,-1.1 c -0.533,-0.605 -1.148,-1.1 -1.366,-1.1 -0.219,0 -0.322,0.045 -0.231,0.1 m 18.621,2.3 c 1.808,2.674 2.531,3.477 1.503,1.67 -0.416,-0.732 -1.26,-1.902 -1.874,-2.6 -0.807,-0.918 -0.704,-0.66 0.371,0.93 m -13.42,2.647 c 0.531,0.686 1.046,1.176 1.145,1.088 0.098,-0.088 -0.336,-0.649 -0.966,-1.247 l -1.144,-1.088 0.965,1.247 M 250.015,293 c 0.002,0.22 0.371,0.85 0.821,1.4 0.543,0.664 0.679,0.731 0.404,0.2 -0.674,-1.305 -1.228,-2.028 -1.225,-1.6 M 236,293.755 c 0,0.153 0.36,0.665 0.8,1.137 0.44,0.472 0.8,0.673 0.8,0.445 0,-0.227 -0.36,-0.739 -0.8,-1.137 -0.44,-0.398 -0.8,-0.599 -0.8,-0.445 m -73.872,2.347 c -1.396,1.55 -1.523,2.163 -0.16,0.766 0.716,-0.733 1.226,-1.407 1.135,-1.499 -0.092,-0.091 -0.53,0.238 -0.975,0.733 m 89.51,-0.302 c 0,0.22 0.523,1.39 1.162,2.6 0.639,1.21 1.162,2.02 1.162,1.8 0,-0.22 -0.523,-1.39 -1.162,-2.6 -0.639,-1.21 -1.162,-2.02 -1.162,-1.8 m -14.038,0.355 c 0,0.153 0.36,0.665 0.8,1.137 0.44,0.472 0.8,0.673 0.8,0.445 0,-0.227 -0.36,-0.739 -0.8,-1.137 -0.44,-0.398 -0.8,-0.599 -0.8,-0.445 m -78.536,4.574 c -0.365,0.404 -0.653,1.08 -0.639,1.502 0.021,0.626 0.099,0.584 0.42,-0.22 0.217,-0.543 0.606,-1.119 0.863,-1.278 0.258,-0.159 0.368,-0.39 0.245,-0.514 -0.124,-0.123 -0.523,0.106 -0.889,0.51 m 81.542,0.183 c 0.386,0.612 0.803,1.012 0.926,0.889 0.123,-0.123 -0.193,-0.623 -0.702,-1.112 l -0.926,-0.889 0.702,1.112 m -83.964,5.125 c -0.353,0.707 -0.642,1.608 -0.642,2.001 0,0.393 -0.18,0.826 -0.4,0.962 -0.22,0.136 -0.4,0.856 -0.4,1.6 0,0.744 -0.18,1.464 -0.4,1.6 -0.22,0.136 -0.368,1.182 -0.328,2.324 l 0.072,2.076 0.152,-2 c 0.084,-1.1 0.321,-2.171 0.528,-2.38 0.207,-0.209 0.376,-0.963 0.376,-1.676 0,-0.713 0.18,-1.408 0.4,-1.544 0.22,-0.136 0.4,-0.603 0.4,-1.038 0,-0.434 0.294,-1.239 0.654,-1.789 0.36,-0.549 0.559,-1.094 0.442,-1.21 -0.117,-0.117 -0.501,0.366 -0.854,1.074 M 143.8,306.4 c -0.15,0.473 -0.183,0.95 -0.073,1.06 0.11,0.11 0.323,-0.187 0.473,-0.66 0.15,-0.473 0.183,-0.95 0.073,-1.06 -0.11,-0.11 -0.323,0.187 -0.473,0.66 m 100.568,3.9 c 0.191,1.381 0.219,1.409 0.351,0.351 0.079,-0.632 -0.014,-1.306 -0.207,-1.499 -0.202,-0.202 -0.263,0.288 -0.144,1.148 m 0.826,4.019 0.193,2.281 0.131,-1.956 c 0.072,-1.075 -0.015,-2.102 -0.194,-2.281 -0.178,-0.179 -0.237,0.701 -0.13,1.956 m 12.268,-0.519 c 0.134,0.88 0.31,1.675 0.391,1.767 0.303,0.343 0.076,-1.799 -0.272,-2.567 -0.252,-0.558 -0.288,-0.315 -0.119,0.8 m -115.213,-0.385 c -0.137,0.358 -0.229,1.221 -0.205,1.918 0.038,1.104 0.089,1.038 0.392,-0.508 0.357,-1.82 0.258,-2.568 -0.187,-1.41 m 11.516,3.933 c -0.486,1.264 0.38,14.903 0.986,15.546 0.153,0.162 0.113,-0.828 -0.087,-2.2 -0.2,-1.372 -0.387,-5.059 -0.414,-8.194 -0.05,-5.709 -0.094,-6.173 -0.485,-5.152 M 245.8,322.8 c 0,3.258 0.135,5.84 0.3,5.738 0.165,-0.102 0.3,-2.684 0.3,-5.738 0,-3.054 -0.135,-5.636 -0.3,-5.738 -0.165,-0.102 -0.3,2.48 -0.3,5.738 m 12.337,-0.2 c 0.002,1.76 0.072,2.43 0.156,1.489 0.085,-0.94 0.084,-2.38 -0.002,-3.2 -0.086,-0.819 -0.155,-0.049 -0.154,1.711 m -116.413,0 c 0.002,1.32 0.077,1.812 0.166,1.093 0.089,-0.719 0.087,-1.799 -0.004,-2.4 -0.091,-0.601 -0.164,-0.013 -0.162,1.307 m 0.282,7.633 c 0.003,0.642 0.19,1.437 0.415,1.767 0.293,0.43 0.333,0.146 0.141,-1 -0.332,-1.984 -0.564,-2.304 -0.556,-0.767 m 103.133,0.967 c -0.077,1.1 -0.004,2 0.161,2 0.165,0 0.3,-0.9 0.3,-2 0,-2.581 -0.283,-2.58 -0.461,0 m 12.51,-1 c -0.033,0.44 -0.153,1.25 -0.266,1.8 l -0.206,1 0.429,-0.981 c 0.236,-0.54 0.355,-1.35 0.266,-1.8 -0.159,-0.798 -0.165,-0.798 -0.223,-0.019 M 155.2,334.776 c 0,0.647 0.142,1.265 0.316,1.372 0.174,0.108 0.245,-0.421 0.157,-1.176 -0.197,-1.681 -0.473,-1.795 -0.473,-0.196 m 89.168,0.124 c -0.119,0.86 -0.058,1.35 0.144,1.148 0.193,-0.193 0.286,-0.867 0.207,-1.499 -0.132,-1.058 -0.16,-1.03 -0.351,0.351 m 8.212,12.34 c -0.569,1.122 -0.967,2.107 -0.885,2.189 0.082,0.082 0.632,-0.836 1.223,-2.04 0.59,-1.204 0.988,-2.189 0.884,-2.189 -0.104,0 -0.654,0.918 -1.222,2.04 m -91.78,0.218 c 0,0.216 0.585,0.921 1.3,1.567 l 1.3,1.175 -1.2,-1.398 c -0.66,-0.769 -1.245,-1.474 -1.3,-1.567 -0.055,-0.092 -0.1,0.008 -0.1,0.223 m 77.004,1.338 c -0.63,0.658 -1.069,1.26 -0.975,1.338 0.094,0.078 0.684,-0.46 1.31,-1.196 1.415,-1.661 1.206,-1.75 -0.335,-0.142 M 149.23,351.4 c 0.494,0.88 1.07,1.78 1.28,2 0.599,0.628 -0.771,-1.906 -1.514,-2.8 -0.366,-0.44 -0.261,-0.08 0.234,0.8 m 13.97,-0.616 c 0,0.341 8.755,9.006 8.887,8.796 0.062,-0.099 -1.912,-2.17 -4.387,-4.603 -2.475,-2.432 -4.5,-4.319 -4.5,-4.193 m 68.965,4.421 c -2.439,2.417 -4.326,4.395 -4.193,4.395 0.133,0 2.216,-1.98 4.628,-4.4 2.412,-2.42 4.299,-4.398 4.193,-4.395 -0.106,0.002 -2.189,1.982 -4.628,4.4 m 16.488,-0.814 c -0.579,0.876 -1.053,1.726 -1.053,1.889 0,0.164 0.242,-0.057 0.539,-0.491 1.302,-1.908 1.939,-2.989 1.76,-2.989 -0.106,0 -0.667,0.716 -1.246,1.591 M 153.637,358 c 1.159,1.796 1.163,1.801 1.161,1.367 -0.001,-0.202 -0.466,-0.907 -1.033,-1.567 l -1.031,-1.2 0.903,1.4 M 243,361.6 c -0.859,0.88 -1.391,1.585 -1.181,1.566 0.367,-0.032 3.246,-3.166 2.909,-3.166 -0.091,0 -0.869,0.72 -1.728,1.6 m -87,-0.675 c 0,0.069 0.585,0.654 1.3,1.3 l 1.3,1.175 -1.175,-1.3 C 156.33,360.888 156,360.616 156,360.925 m 19.549,0.767 c 0.541,0.698 2.867,2.026 3.115,1.777 0.074,-0.074 -0.36,-0.382 -0.965,-0.684 -0.604,-0.303 -1.456,-0.828 -1.892,-1.168 -0.735,-0.572 -0.754,-0.567 -0.258,0.075 m 65.205,2.425 c -1.338,1.019 -4.02,3.55 -3.89,3.672 0.075,0.069 1.2,-0.845 2.501,-2.032 2.236,-2.04 2.821,-2.73 1.389,-1.64 M 160.4,365.4 c 0.746,0.77 1.447,1.4 1.557,1.4 0.11,0 -0.411,-0.63 -1.157,-1.4 -0.746,-0.77 -1.447,-1.4 -1.557,-1.4 -0.11,0 0.411,0.63 1.157,1.4 m 20.4,-0.792 c 0,0.289 2.565,1.392 3.238,1.392 0.393,0 0.826,0.18 0.962,0.4 0.136,0.22 0.642,0.379 1.124,0.354 0.81,-0.043 0.816,-0.061 0.076,-0.239 -0.44,-0.106 -0.971,-0.355 -1.18,-0.554 -0.209,-0.198 -0.783,-0.361 -1.276,-0.361 -0.493,0 -0.995,-0.158 -1.114,-0.352 -0.211,-0.341 -1.83,-0.907 -1.83,-0.64 m 37.054,0.394 c -0.63,0.329 -1.44,0.612 -1.8,0.63 -0.438,0.021 -0.484,0.1 -0.139,0.238 0.487,0.196 3.285,-0.902 3.285,-1.289 0,-0.263 -0.083,-0.237 -1.346,0.421 m -30.397,2.291 c 0.105,0.169 0.774,0.307 1.487,0.307 0.713,0 1.467,0.16 1.676,0.355 0.209,0.195 1.423,0.435 2.697,0.534 1.287,0.1 2.088,0.034 1.8,-0.149 -0.284,-0.18 -1.361,-0.331 -2.393,-0.334 -1.032,-0.003 -1.976,-0.167 -2.098,-0.364 -0.121,-0.197 -0.927,-0.425 -1.79,-0.507 -0.863,-0.082 -1.483,-0.011 -1.379,0.158 M 211,367.271 c -0.88,0.208 -2.626,0.508 -3.879,0.666 -1.254,0.159 -2.379,0.388 -2.5,0.509 -0.349,0.349 4.306,-0.107 5.053,-0.496 0.37,-0.192 1.125,-0.35 1.676,-0.35 0.552,0 1.114,-0.18 1.25,-0.4 0.136,-0.22 0.192,-0.379 0.124,-0.354 -0.068,0.025 -0.844,0.216 -1.724,0.425 m 23.785,1.958 -1.385,1.229 1.5,-1.077 c 1.326,-0.951 1.757,-1.381 1.385,-1.381 -0.063,0 -0.738,0.553 -1.5,1.229 M 164.8,368.925 c 0,0.099 0.661,0.684 1.468,1.3 0.808,0.616 1.343,0.916 1.188,0.666 -0.316,-0.512 -2.656,-2.244 -2.656,-1.966 m 4,3.075 c 0.55,0.43 1.18,0.782 1.4,0.782 0.22,0 -0.05,-0.352 -0.6,-0.782 -0.55,-0.43 -1.18,-0.782 -1.4,-0.782 -0.22,0 0.05,0.352 0.6,0.782 m 15.2,6.782 c 0.33,0.223 0.945,0.409 1.367,0.412 1.023,0.008 0.704,-0.221 -0.767,-0.55 -0.876,-0.196 -1.038,-0.159 -0.6,0.138 m 3.221,0.839 c 0.534,0.339 3.521,0.56 3.146,0.234 -0.092,-0.08 -0.968,-0.247 -1.946,-0.373 -1.151,-0.147 -1.575,-0.098 -1.2,0.139 M 211.2,379.6 c -1.384,0.291 -1.386,0.295 -0.2,0.341 0.66,0.026 1.47,-0.128 1.8,-0.341 0.666,-0.43 0.445,-0.43 -1.6,0 m -6,0.8 -2.6,0.262 2.6,0.041 c 1.43,0.022 2.96,-0.114 3.4,-0.303 l 0.8,-0.344 -0.8,0.041 c -0.44,0.023 -1.97,0.159 -3.4,0.303 m -11.7,0.289 c 0.715,0.089 1.885,0.089 2.6,0 0.715,-0.088 0.13,-0.161 -1.3,-0.161 -1.43,0 -2.015,0.073 -1.3,0.161"
       stroke="none"
       fill="#34362f"
       fill-rule="evenodd" />
    <path
       id="path7"
       d="m 164.7,13.1 c 19.415,0.057 51.185,0.057 70.6,0 19.415,-0.057 3.53,-0.104 -35.3,-0.104 -38.83,0 -54.715,0.047 -35.3,0.104 M 128.998,200 c 0,102.63 0.046,144.615 0.102,93.3 0.056,-51.315 0.056,-135.285 0,-186.6 -0.056,-51.315 -0.102,-9.33 -0.102,93.3 m 142,0 c 0,102.63 0.046,144.615 0.102,93.3 0.056,-51.315 0.056,-135.285 0,-186.6 -0.056,-51.315 -0.102,-9.33 -0.102,93.3 M 198.9,31.087 c 0.605,0.091 1.595,0.091 2.2,0 0.605,-0.092 0.11,-0.167 -1.1,-0.167 -1.21,0 -1.705,0.075 -1.1,0.167 m -6.209,0.802 c 0.71,0.088 1.97,0.09 2.8,0.003 0.83,-0.087 0.249,-0.159 -1.291,-0.161 -1.54,-0.002 -2.219,0.069 -1.509,0.158 m 11.6,0 c 0.71,0.088 1.97,0.09 2.8,0.003 0.83,-0.087 0.249,-0.159 -1.291,-0.161 -1.54,-0.002 -2.219,0.069 -1.509,0.158 m -38.713,14.811 -1.378,1.5 1.5,-1.378 c 0.825,-0.759 1.5,-1.434 1.5,-1.5 0,-0.306 -0.338,-0.018 -1.622,1.378 M 245.2,71.976 c 0,0.647 0.142,1.265 0.316,1.372 0.174,0.108 0.245,-0.421 0.157,-1.176 -0.197,-1.681 -0.473,-1.795 -0.473,-0.196 M 142.093,72.4 c 0,0.77 0.082,1.085 0.183,0.7 0.1,-0.385 0.1,-1.015 0,-1.4 -0.101,-0.385 -0.183,-0.07 -0.183,0.7 m 0,10 c 0,0.77 0.082,1.085 0.183,0.7 0.1,-0.385 0.1,-1.015 0,-1.4 -0.101,-0.385 -0.183,-0.07 -0.183,0.7 m 65.307,40.4 -2,0.274 1.876,0.063 c 1.032,0.035 1.988,-0.117 2.124,-0.337 0.136,-0.22 0.192,-0.372 0.124,-0.337 -0.068,0.034 -1.024,0.186 -2.124,0.337 m -15.5,0.282 c 0.495,0.096 1.305,0.096 1.8,0 0.495,-0.095 0.09,-0.173 -0.9,-0.173 -0.99,0 -1.395,0.078 -0.9,0.173 m 8.1,0.518 -4.6,0.24 4.476,0.08 c 2.643,0.047 4.578,-0.084 4.724,-0.32 0.136,-0.22 0.192,-0.364 0.124,-0.32 -0.068,0.044 -2.194,0.188 -4.724,0.32 m -2.495,11.883 c 0.497,0.096 1.217,0.092 1.6,-0.008 0.382,-0.1 -0.025,-0.179 -0.905,-0.174 -0.88,0.004 -1.193,0.086 -0.695,0.182 m 3.395,-0.007 c 0.385,0.1 1.015,0.1 1.4,0 0.385,-0.101 0.07,-0.183 -0.7,-0.183 -0.77,0 -1.085,0.082 -0.7,0.183 m -6.8,6.8 c 0.385,0.1 1.015,0.1 1.4,0 0.385,-0.101 0.07,-0.183 -0.7,-0.183 -0.77,0 -1.085,0.082 -0.7,0.183 m 10.605,0.007 c 0.497,0.096 1.217,0.092 1.6,-0.008 0.382,-0.1 -0.025,-0.179 -0.905,-0.174 -0.88,0.004 -1.193,0.086 -0.695,0.182 m -5.605,11.999 c 0.495,0.096 1.305,0.096 1.8,0 0.495,-0.095 0.09,-0.173 -0.9,-0.173 -0.99,0 -1.395,0.078 -0.9,0.173 M 142.093,194.8 c 0,0.77 0.082,1.085 0.183,0.7 0.1,-0.385 0.1,-1.015 0,-1.4 -0.101,-0.385 -0.183,-0.07 -0.183,0.7 m 12.016,5.2 c 0,0.99 0.078,1.395 0.173,0.9 0.096,-0.495 0.096,-1.305 0,-1.8 -0.095,-0.495 -0.173,-0.09 -0.173,0.9 m 91.6,0 c 0,0.99 0.078,1.395 0.173,0.9 0.096,-0.495 0.096,-1.305 0,-1.8 -0.095,-0.495 -0.173,-0.09 -0.173,0.9 m -103.608,5.4 c 0.004,0.88 0.086,1.193 0.182,0.695 0.096,-0.497 0.092,-1.217 -0.008,-1.6 -0.1,-0.382 -0.179,0.025 -0.174,0.905 m 56.999,40.482 c 0.495,0.096 1.305,0.096 1.8,0 0.495,-0.095 0.09,-0.173 -0.9,-0.173 -0.99,0 -1.395,0.078 -0.9,0.173 m 0,18.8 c 0.495,0.096 1.305,0.096 1.8,0 0.495,-0.095 0.09,-0.173 -0.9,-0.173 -0.99,0 -1.395,0.078 -0.9,0.173 M 142.093,317.6 c 0,0.77 0.082,1.085 0.183,0.7 0.1,-0.385 0.1,-1.015 0,-1.4 -0.101,-0.385 -0.183,-0.07 -0.183,0.7 m 0.008,10.2 c 0.004,0.88 0.086,1.193 0.182,0.695 0.096,-0.497 0.092,-1.217 -0.008,-1.6 -0.1,-0.382 -0.179,0.025 -0.174,0.905 m 56.799,52.887 c 0.605,0.091 1.595,0.091 2.2,0 0.605,-0.092 0.11,-0.167 -1.1,-0.167 -1.21,0 -1.705,0.075 -1.1,0.167 m -34.4,6.413 c 19.525,0.057 51.475,0.057 71,0 19.525,-0.057 3.55,-0.104 -35.5,-0.104 -39.05,0 -55.025,0.047 -35.5,0.104"
       stroke="none"
       fill="#342c34"
       fill-rule="evenodd" />
    <path
       id="path8"
       d="m 129.068,12.666 c -0.148,0.147 -0.268,0.453 -0.268,0.681 0,0.247 0.193,0.22 0.48,-0.067 0.716,-0.716 140.731,-0.696 141.49,0.02 0.428,0.404 0.495,0.384 0.347,-0.1 -0.194,-0.632 -141.42,-1.164 -142.049,-0.534 M 192.4,20.02 c -0.674,0.229 -0.349,0.264 1,0.108 1.1,-0.127 2.075,-0.297 2.167,-0.379 0.315,-0.281 -2.168,-0.069 -3.167,0.271 m 13.4,0.003 c 2.026,0.419 3.663,0.4 2,-0.023 -0.66,-0.168 -1.74,-0.306 -2.4,-0.307 -1.009,-0.001 -0.945,0.052 0.4,0.33 M 187.4,20.8 c -1.019,0.438 0.032,0.438 1.4,0 0.804,-0.257 0.843,-0.323 0.2,-0.332 -0.44,-0.006 -1.16,0.143 -1.6,0.332 m 23.8,0 c 1.368,0.438 2.419,0.438 1.4,0 -0.44,-0.189 -1.16,-0.338 -1.6,-0.332 -0.643,0.009 -0.604,0.075 0.2,0.332 m -26.8,0.8 c -0.533,0.345 -0.533,0.388 0,0.388 0.33,0 0.87,-0.175 1.2,-0.388 0.533,-0.345 0.533,-0.388 0,-0.388 -0.33,0 -0.87,0.175 -1.2,0.388 m -12.5,5.029 c -1.495,0.811 -1.404,1.149 0.1,0.371 0.66,-0.341 1.2,-0.706 1.2,-0.81 0,-0.258 -0.043,-0.243 -1.3,0.439 m 58.3,1.578 c 0.44,0.359 1.16,0.828 1.6,1.044 l 0.8,0.393 -0.8,-0.651 c -0.44,-0.359 -1.16,-0.828 -1.6,-1.044 l -0.8,-0.393 0.8,0.651 m -62.707,1.207 C 166.672,29.972 166,30.515 166,30.62 c 0,0.105 0.72,-0.285 1.6,-0.867 1.397,-0.925 1.87,-1.353 1.493,-1.353 -0.059,0 -0.779,0.456 -1.6,1.014 m 65.307,0.311 c 0,0.099 0.661,0.684 1.468,1.3 0.808,0.616 1.343,0.916 1.188,0.666 -0.316,-0.512 -2.656,-2.244 -2.656,-1.966 m -35.2,1.057 c -0.33,0.223 -1.804,0.409 -3.276,0.412 -1.472,0.003 -2.788,0.186 -2.924,0.406 -0.136,0.22 -0.856,0.4 -1.6,0.4 -0.744,0 -1.464,0.18 -1.6,0.4 -0.136,0.22 -0.771,0.4 -1.411,0.4 -0.641,0 -1.806,0.36 -2.589,0.8 -0.783,0.44 -1.654,0.8 -1.934,0.8 -0.717,0 -4.511,1.932 -5.037,2.565 -0.24,0.289 0.781,-0.063 2.268,-0.783 4.634,-2.243 6.49,-2.982 7.49,-2.982 0.531,0 1.077,-0.18 1.213,-0.4 0.136,-0.22 0.831,-0.4 1.544,-0.4 0.713,0 1.467,-0.166 1.676,-0.369 1.097,-1.065 16.063,-1.065 17.16,0 0.209,0.203 0.963,0.369 1.676,0.369 0.713,0 1.408,0.18 1.544,0.4 0.136,0.22 0.76,0.4 1.386,0.4 0.626,0 1.83,0.34 2.676,0.755 0.846,0.416 2.348,1.081 3.338,1.479 0.99,0.397 2.34,1.085 3,1.529 1.036,0.695 1.121,0.707 0.62,0.084 -0.618,-0.769 -4.224,-2.647 -5.083,-2.647 -0.282,0 -1.154,-0.36 -1.937,-0.8 -0.783,-0.44 -1.948,-0.8 -2.589,-0.8 -0.64,0 -1.275,-0.18 -1.411,-0.4 -0.136,-0.22 -0.831,-0.4 -1.544,-0.4 -0.713,0 -1.467,-0.166 -1.676,-0.369 -0.209,-0.203 -1.64,-0.467 -3.18,-0.588 -1.54,-0.121 -3.79,-0.32 -5,-0.443 -1.23,-0.125 -2.465,-0.045 -2.8,0.182 m -34.015,1.647 -1.385,1.229 1.5,-1.077 c 1.326,-0.951 1.757,-1.381 1.385,-1.381 -0.063,0 -0.738,0.553 -1.5,1.229 m -4.6,4.071 -1.985,2.1 2.1,-1.985 c 1.155,-1.092 2.1,-2.037 2.1,-2.1 0,-0.298 -0.371,0.034 -2.215,1.985 m 81.832,0.115 c 1.2,1.328 2.265,2.356 2.364,2.285 0.1,-0.071 -0.883,-1.157 -2.183,-2.414 l -2.365,-2.286 2.184,2.415 m -66.458,1.973 c -0.747,0.544 -1.989,1.423 -2.759,1.954 -6.031,4.16 -13.635,14.958 -15.954,22.658 -0.497,1.65 -1.071,3.553 -1.275,4.228 -0.204,0.676 -0.342,2.296 -0.306,3.6 l 0.064,2.372 0.294,-2.8 c 0.595,-5.66 2.792,-11.952 5.599,-16.032 0.648,-0.942 1.178,-1.836 1.178,-1.987 0,-1.208 9.708,-11.781 10.816,-11.781 0.165,0 0.877,-0.54 1.584,-1.2 0.707,-0.66 1.525,-1.2 1.819,-1.2 0.293,0 0.645,-0.18 0.781,-0.4 0.438,-0.709 -0.445,-0.427 -1.841,0.588 M 223.8,38 c 0.136,0.22 0.438,0.4 0.671,0.4 1.329,0 9.717,7.49 12.093,10.8 2.324,3.235 3.852,5.672 5.239,8.353 0.811,1.566 1.541,2.847 1.622,2.847 0.402,0 -2.926,-6.62 -3.615,-7.191 -0.335,-0.279 -0.61,-0.721 -0.61,-0.983 0,-0.262 -0.54,-0.994 -1.2,-1.626 -0.66,-0.632 -1.2,-1.344 -1.2,-1.582 0,-0.487 -7.253,-7.71 -8.8,-8.763 -0.55,-0.375 -1.612,-1.126 -2.359,-1.668 C 224.244,37.573 223.362,37.292 223.8,38 m -72.847,8.5 c -1.377,2.336 -1.467,2.535 -0.766,1.7 0.813,-0.968 1.513,-2.2 1.251,-2.2 -0.105,0 -0.323,0.225 -0.485,0.5 m -4.488,8.517 c -0.256,0.561 -0.458,1.237 -0.449,1.502 0.008,0.264 0.281,-0.131 0.606,-0.88 0.683,-1.574 0.539,-2.149 -0.157,-0.622 m 97.135,6.686 c 0,0.056 0.195,0.731 0.433,1.5 0.987,3.183 1.243,4.358 1.653,7.597 0.237,1.87 0.45,5.143 0.473,7.273 0.024,2.249 0.179,3.627 0.369,3.286 C 247.098,80.338 246.18,69.217 245.261,66 244.147,62.102 243.6,60.687 243.6,61.703 m -99.954,1.964 c -0.025,0.367 -0.15,0.997 -0.276,1.4 -0.218,0.695 -0.207,0.696 0.227,0.02 0.251,-0.391 0.376,-1.021 0.276,-1.4 -0.162,-0.619 -0.185,-0.621 -0.227,-0.02 m 113.182,3.966 c 0.016,0.752 0.184,1.727 0.375,2.167 0.223,0.515 0.264,0.087 0.115,-1.2 -0.274,-2.378 -0.529,-2.881 -0.49,-0.967 m -113.964,0.234 c -0.035,0.697 -0.168,1.597 -0.294,2 -0.217,0.692 -0.205,0.693 0.224,0.024 0.251,-0.389 0.383,-1.289 0.295,-2 l -0.161,-1.291 -0.064,1.267 M 257.76,77.4 c 0.001,3.3 0.062,4.597 0.138,2.882 0.075,-1.715 0.074,-4.415 -0.001,-6 -0.076,-1.585 -0.138,-0.182 -0.137,3.118 m -115.614,0 c 0.001,2.2 0.068,3.049 0.149,1.887 0.081,-1.163 0.081,-2.963 -0.002,-4 -0.082,-1.038 -0.148,-0.087 -0.147,2.113 m 11.229,-2.841 c -0.672,2.674 0.723,12.586 2.544,18.078 1.207,3.641 6.072,12.625 6.079,11.225 0.001,-0.186 -0.372,-0.864 -0.83,-1.506 -2.144,-3.012 -4.514,-8.517 -6.178,-14.356 -0.572,-2.003 -1.077,-6.69 -1.133,-10.5 -0.061,-4.162 -0.106,-4.439 -0.482,-2.941 m 92.295,9.613 c -0.07,1.976 -0.214,2.611 -1.482,6.547 -0.375,1.166 -0.591,2.211 -0.479,2.323 0.181,0.181 0.467,-0.677 1.948,-5.842 0.221,-0.77 0.33,-2.21 0.242,-3.2 l -0.159,-1.8 -0.07,1.972 M 142.673,86 c 0.131,0.99 0.303,1.875 0.383,1.967 0.301,0.347 0.072,-2.203 -0.266,-2.967 -0.237,-0.534 -0.276,-0.202 -0.117,1 m 114.383,-0.716 c -0.135,0.504 -0.226,1.456 -0.203,2.116 0.028,0.828 0.144,0.584 0.373,-0.787 0.35,-2.09 0.248,-2.887 -0.17,-1.329 M 143.444,90.2 c 0.329,1.471 0.558,1.79 0.55,0.767 -0.003,-0.422 -0.189,-1.037 -0.412,-1.367 -0.297,-0.438 -0.334,-0.276 -0.138,0.6 m 0.8,3.2 c 0.329,1.471 0.558,1.79 0.55,0.767 -0.003,-0.422 -0.189,-1.037 -0.412,-1.367 -0.297,-0.438 -0.334,-0.276 -0.138,0.6 m 97.549,3.71 c -3.182,6.304 -12.198,17.29 -14.189,17.29 -0.191,0 -0.59,0.225 -0.886,0.5 -1.87,1.733 -8.632,5.306 -11.918,6.296 -0.99,0.299 -1.971,0.692 -2.18,0.874 -0.209,0.181 -0.963,0.33 -1.676,0.33 -0.713,0 -1.408,0.18 -1.544,0.4 -0.136,0.22 -1.216,0.4 -2.4,0.4 -1.184,0 -2.264,0.18 -2.4,0.4 -0.14,0.227 -2.13,0.4 -4.6,0.4 -2.47,0 -4.46,-0.173 -4.6,-0.4 -0.136,-0.22 -0.989,-0.4 -1.895,-0.4 -0.907,0 -2.201,-0.167 -2.877,-0.371 -0.675,-0.204 -2.578,-0.778 -4.228,-1.275 -3.094,-0.933 -9.719,-4.016 -10.668,-4.965 -0.295,-0.295 -0.896,-0.651 -1.334,-0.79 -0.439,-0.139 -0.798,-0.409 -0.798,-0.599 0,-0.19 -0.359,-0.46 -0.798,-0.599 -0.971,-0.309 -9.562,-8.88 -10.022,-10.001 -0.29,-0.705 -0.332,-0.714 -0.355,-0.081 -0.105,2.978 17.742,16.681 21.726,16.681 0.331,0 0.713,0.18 0.849,0.4 0.136,0.22 0.676,0.4 1.2,0.4 0.524,0 1.064,0.18 1.2,0.4 0.136,0.22 0.856,0.4 1.6,0.4 0.744,0 1.464,0.18 1.6,0.4 0.136,0.22 1.216,0.4 2.4,0.4 1.184,0 2.264,0.18 2.4,0.4 0.14,0.227 2.13,0.4 4.6,0.4 2.47,0 4.46,-0.173 4.6,-0.4 0.136,-0.22 1.216,-0.4 2.4,-0.4 1.184,0 2.264,-0.18 2.4,-0.4 0.136,-0.22 0.856,-0.4 1.6,-0.4 0.744,0 1.464,-0.18 1.6,-0.4 0.136,-0.22 0.676,-0.4 1.2,-0.4 0.524,0 1.064,-0.18 1.2,-0.4 0.136,-0.22 0.55,-0.4 0.921,-0.4 0.881,0 7.879,-3.477 8.498,-4.223 0.263,-0.317 0.653,-0.577 0.867,-0.577 0.911,0 12.314,-10.447 12.314,-11.283 0,-0.179 0.62,-1.207 1.377,-2.284 1.471,-2.093 4.773,-8.416 4.525,-8.665 -0.082,-0.082 -0.851,1.242 -1.709,2.942 m 12.651,-0.666 c -0.246,0.707 -0.378,1.356 -0.292,1.441 0.086,0.086 0.357,-0.423 0.604,-1.129 0.246,-0.707 0.378,-1.356 0.292,-1.441 -0.086,-0.086 -0.357,0.423 -0.604,1.129 M 250.6,105.2 c -0.341,0.66 -0.531,1.2 -0.421,1.2 0.11,0 0.48,-0.54 0.821,-1.2 0.341,-0.66 0.531,-1.2 0.421,-1.2 -0.11,0 -0.48,0.54 -0.821,1.2 m -2.4,4 c -0.341,0.66 -0.531,1.2 -0.421,1.2 0.11,0 0.48,-0.54 0.821,-1.2 0.341,-0.66 0.531,-1.2 0.421,-1.2 -0.11,0 -0.48,0.54 -0.821,1.2 m -5.775,7.369 -1.375,1.631 1.555,-1.487 c 0.855,-0.817 1.474,-1.551 1.375,-1.63 -0.099,-0.08 -0.799,0.589 -1.555,1.486 M 156.8,115.846 c 0,0.208 1.125,1.453 2.5,2.767 l 2.5,2.387 -2.4,-2.59 c -1.32,-1.425 -2.445,-2.67 -2.5,-2.767 -0.055,-0.097 -0.1,-0.006 -0.1,0.203 m 82.378,4.054 -1.378,1.5 1.596,-1.4 c 0.877,-0.77 1.672,-1.445 1.766,-1.5 0.094,-0.055 -0.003,-0.1 -0.217,-0.1 -0.213,0 -1.008,0.675 -1.767,1.5 m -74.378,3.449 c 0,0.086 0.63,0.637 1.4,1.224 0.77,0.587 1.398,0.924 1.395,0.747 -0.003,-0.176 -0.633,-0.727 -1.4,-1.224 -0.767,-0.497 -1.395,-0.833 -1.395,-0.747 m 22.4,10.633 c 0.33,0.223 0.945,0.409 1.367,0.412 1.023,0.008 0.704,-0.221 -0.767,-0.55 -0.876,-0.196 -1.038,-0.159 -0.6,0.138 M 211.6,134 c -0.824,0.264 -0.859,0.326 -0.2,0.354 0.44,0.019 1.07,-0.141 1.4,-0.354 0.701,-0.453 0.214,-0.453 -1.2,0 m -20,0.8 c 0.55,0.176 1.45,0.317 2,0.313 0.898,-0.007 0.878,-0.039 -0.2,-0.313 -1.692,-0.431 -3.144,-0.431 -1.8,0 m 15,0 c -1.078,0.274 -1.098,0.306 -0.2,0.313 0.55,0.004 1.45,-0.137 2,-0.313 1.344,-0.431 -0.108,-0.431 -1.8,0 m -8.7,7.495 c 1.155,0.081 3.045,0.081 4.2,0 1.155,-0.081 0.21,-0.147 -2.1,-0.147 -2.31,0 -3.255,0.066 -2.1,0.147 m -7.1,0.505 c -1.367,0.288 -1.372,0.295 -0.2,0.319 0.66,0.014 1.56,-0.13 2,-0.319 0.962,-0.413 0.164,-0.413 -1.8,0 m 16.6,-0.01 c 0.764,0.338 3.314,0.567 2.967,0.266 -0.092,-0.08 -0.977,-0.252 -1.967,-0.383 -1.202,-0.159 -1.534,-0.12 -1,0.117 m -23.8,1.61 c -0.824,0.264 -0.859,0.326 -0.2,0.354 0.44,0.019 1.07,-0.141 1.4,-0.354 0.701,-0.453 0.214,-0.453 -1.2,0 m -8,3 c -0.55,0.314 -0.82,0.572 -0.6,0.572 0.22,0 0.85,-0.258 1.4,-0.572 0.55,-0.314 0.82,-0.572 0.6,-0.572 -0.22,0 -0.85,0.258 -1.4,0.572 m 51.2,1.42 c 1.387,0.941 2.178,1.215 1.2,0.416 -0.55,-0.45 -1.18,-0.819 -1.4,-0.821 -0.22,-0.002 -0.13,0.181 0.2,0.405 m -57.9,2.206 c -0.935,0.561 -1.7,1.114 -1.7,1.229 0,0.216 2.699,-1.317 3.38,-1.919 0.687,-0.608 0.047,-0.345 -1.68,0.69 m 60.5,-0.736 c 0.22,0.21 1.12,0.786 2,1.28 0.88,0.495 1.24,0.6 0.8,0.234 -0.894,-0.743 -3.428,-2.113 -2.8,-1.514 m -36.156,4.075 c -0.335,0.212 0.54,0.268 2.2,0.141 1.516,-0.117 2.831,-0.278 2.923,-0.359 0.365,-0.322 -4.604,-0.111 -5.123,0.218 m 8.556,-0.162 c 0.885,0.308 5.372,0.426 4.904,0.129 -0.277,-0.176 -1.584,-0.308 -2.904,-0.294 -1.32,0.014 -2.22,0.088 -2,0.165 m -40.424,2.706 -1.976,2.091 1.993,-1.8 c 1.095,-0.99 2.07,-1.845 2.166,-1.9 0.096,-0.055 0.088,-0.186 -0.016,-0.291 -0.105,-0.105 -1.08,0.75 -2.167,1.9 m 27.424,-1.714 c -0.409,0.26 -0.09,0.304 1,0.137 1.977,-0.303 2.314,-0.534 0.767,-0.526 -0.642,0.003 -1.437,0.178 -1.767,0.389 m 21,0.016 c 0.88,0.177 2.107,0.517 2.726,0.756 0.619,0.238 1.339,0.419 1.6,0.402 0.982,-0.064 -3.579,-1.506 -4.726,-1.494 -1.023,0.011 -0.964,0.06 0.4,0.336 m 28.183,1.289 c 0.981,1.045 1.836,1.9 1.9,1.9 0.301,0 -0.017,-0.359 -1.783,-2.017 l -1.9,-1.783 1.783,1.9 M 186.2,156 c -0.504,0.217 -0.578,0.344 -0.2,0.344 0.33,0 0.96,-0.155 1.4,-0.344 0.504,-0.217 0.578,-0.344 0.2,-0.344 -0.33,0 -0.96,0.155 -1.4,0.344 m -3.4,1.152 c -3.075,1.222 -5.541,2.429 -5.793,2.836 -0.132,0.215 -0.863,0.686 -1.624,1.047 -0.761,0.361 -1.383,0.844 -1.383,1.073 0,0.229 0.329,0.118 0.731,-0.246 0.403,-0.364 0.921,-0.662 1.152,-0.662 0.23,0 0.647,-0.275 0.926,-0.61 0.543,-0.655 4.436,-2.553 6.891,-3.359 0.825,-0.271 1.5,-0.569 1.5,-0.662 0,-0.288 -0.533,-0.158 -2.4,0.583 m 32.615,-0.411 c 0.489,0.444 3.063,1.314 3.272,1.106 0.086,-0.086 -0.701,-0.449 -1.75,-0.807 -1.048,-0.357 -1.733,-0.492 -1.522,-0.299 m 3.785,1.425 c 0,0.118 0.781,0.57 1.735,1.004 0.954,0.435 1.966,1.069 2.249,1.41 0.282,0.341 0.703,0.62 0.933,0.62 0.231,0 0.749,0.298 1.152,0.662 0.402,0.364 0.731,0.475 0.731,0.246 0,-0.229 -0.622,-0.712 -1.383,-1.073 -0.761,-0.361 -1.488,-0.827 -1.617,-1.035 -0.129,-0.208 -0.901,-0.684 -1.717,-1.057 -0.816,-0.372 -1.618,-0.748 -1.783,-0.834 -0.165,-0.086 -0.3,-0.06 -0.3,0.057 m -62.6,3.434 c -1.083,1.1 -1.797,1.982 -1.585,1.959 0.376,-0.039 4.065,-3.959 3.726,-3.959 -0.094,0 -1.058,0.9 -2.141,2 m 86.583,0.1 c 0.981,1.045 1.836,1.9 1.9,1.9 0.301,0 -0.017,-0.359 -1.783,-2.017 l -1.9,-1.783 1.783,1.9 M 170,164.947 c -2.612,2.19 -7.6,7.744 -7.6,8.461 0,0.138 0.855,-0.78 1.9,-2.039 2.399,-2.892 4.177,-4.67 7.069,-7.069 1.259,-1.045 2.142,-1.893 1.96,-1.884 -0.181,0.008 -1.679,1.147 -3.329,2.531 m 57.882,-1.247 c 0.831,0.715 1.763,1.48 2.073,1.7 1.863,1.326 6.136,6.146 8.008,9.034 0.549,0.846 1.071,1.465 1.161,1.375 0.558,-0.558 -5.963,-8.263 -9.307,-10.995 -3.089,-2.524 -4.55,-3.365 -1.935,-1.114 m -76.374,4.4 c -0.875,1.349 -1.66,2.956 -1.221,2.5 0.561,-0.583 2.211,-3.4 1.992,-3.4 -0.103,0 -0.45,0.405 -0.771,0.9 m 9.527,7.283 c -0.361,0.761 -0.831,1.491 -1.044,1.623 -0.717,0.443 -3.806,7.712 -3.435,8.083 0.09,0.091 0.39,-0.522 0.666,-1.362 0.814,-2.478 2.71,-6.372 3.368,-6.918 0.335,-0.279 0.61,-0.696 0.61,-0.926 0,-0.231 0.298,-0.749 0.662,-1.152 0.364,-0.402 0.475,-0.731 0.246,-0.731 -0.229,0 -0.712,0.622 -1.073,1.383 m -13.77,0.434 c -0.67,1.471 -0.542,1.785 0.182,0.448 0.339,-0.625 0.541,-1.211 0.449,-1.302 -0.091,-0.092 -0.375,0.293 -0.631,0.854 m 92.366,1.19 c 0.811,1.018 2.635,4.865 2.987,6.297 0.149,0.607 0.425,1.199 0.614,1.316 0.976,0.603 -2.461,-7.036 -3.541,-7.872 -0.643,-0.497 -0.647,-0.479 -0.06,0.259 m 13.183,-0.553 c -0.008,0.14 0.249,0.86 0.57,1.6 0.322,0.74 0.585,1.076 0.586,0.746 0.002,-0.576 -1.127,-2.866 -1.156,-2.346 m 1.608,4.146 c -0.006,0.22 0.249,1.12 0.566,2 0.317,0.88 0.585,1.306 0.594,0.946 0.01,-0.36 -0.245,-1.26 -0.566,-2 -0.322,-0.74 -0.589,-1.166 -0.594,-0.946 m -109.976,2.667 c -0.025,0.367 -0.15,0.997 -0.276,1.4 -0.218,0.695 -0.207,0.696 0.227,0.02 0.251,-0.391 0.376,-1.021 0.276,-1.4 -0.162,-0.619 -0.185,-0.621 -0.227,-0.02 m 99.343,2.933 c 0.383,2.118 1.356,5.227 1.378,4.4 0.012,-0.44 -0.342,-1.88 -0.787,-3.2 -0.444,-1.32 -0.71,-1.86 -0.591,-1.2 m -87.96,0.429 c -0.148,0.586 -0.191,1.143 -0.097,1.237 0.095,0.094 0.292,-0.308 0.439,-0.895 0.148,-0.586 0.191,-1.143 0.097,-1.237 -0.095,-0.094 -0.292,0.308 -0.439,0.895 m -0.78,2.386 c -0.137,0.358 -0.228,1.131 -0.203,1.718 0.034,0.799 0.124,0.665 0.358,-0.533 0.331,-1.7 0.258,-2.26 -0.155,-1.185 m 101.791,1.218 c 0.022,0.642 0.193,1.617 0.38,2.167 0.229,0.674 0.264,0.349 0.108,-1 -0.259,-2.25 -0.549,-2.941 -0.488,-1.167 M 142.854,190.4 c -0.035,0.55 -0.158,1.45 -0.271,2 l -0.206,1 0.43,-0.985 c 0.236,-0.541 0.358,-1.441 0.271,-2 l -0.158,-1.015 -0.066,1 m 102.652,4.4 c 0.113,1.87 0.27,3.475 0.35,3.567 0.266,0.307 0.053,-4.553 -0.253,-5.767 -0.167,-0.661 -0.211,0.328 -0.097,2.2 m -91.257,-1.385 c -0.137,0.358 -0.223,1.671 -0.192,2.918 l 0.057,2.267 0.292,-2.8 c 0.304,-2.912 0.266,-3.486 -0.157,-2.385 M 257.761,200 c 0,3.41 0.061,4.805 0.136,3.1 0.075,-1.705 0.075,-4.495 0,-6.2 -0.075,-1.705 -0.136,-0.31 -0.136,3.1 m -115.613,0 c 0,2.31 0.066,3.255 0.147,2.1 0.081,-1.155 0.081,-3.045 0,-4.2 -0.081,-1.155 -0.147,-0.21 -0.147,2.1 m 11.89,3.8 c -0.014,1.32 0.118,2.627 0.294,2.904 0.176,0.276 0.25,-0.624 0.165,-2 -0.21,-3.394 -0.428,-3.824 -0.459,-0.904 m 91.632,-0.4 c -0.044,1.1 -0.164,2.72 -0.268,3.6 l -0.19,1.6 0.41,-1.6 c 0.226,-0.88 0.346,-2.5 0.268,-3.6 l -0.142,-2 -0.078,2 m -102.997,5 c 0.131,0.99 0.303,1.875 0.383,1.967 0.301,0.347 0.072,-2.203 -0.266,-2.967 -0.237,-0.534 -0.276,-0.202 -0.117,1 m 114.38,-0.364 c -0.139,0.695 -0.232,1.737 -0.206,2.314 0.025,0.578 0.208,0.077 0.405,-1.111 0.385,-2.318 0.221,-3.305 -0.199,-1.203 M 154.875,209.4 c -0.012,1.147 1.43,5.708 1.494,4.726 0.017,-0.261 -0.164,-0.981 -0.402,-1.6 -0.239,-0.619 -0.579,-1.846 -0.756,-2.726 -0.276,-1.364 -0.325,-1.423 -0.336,-0.4 m 89.585,1.441 c -0.917,3.67 -0.936,4.258 -0.059,1.81 0.463,-1.292 0.787,-2.714 0.72,-3.159 -0.068,-0.459 -0.355,0.125 -0.661,1.349 m 11.171,4.39 c -0.284,1.109 -0.441,2.092 -0.348,2.186 0.093,0.093 0.402,-0.739 0.686,-1.848 0.284,-1.109 0.441,-2.092 0.348,-2.186 -0.093,-0.093 -0.402,0.739 -0.686,1.848 m -98.591,1.706 c 0.358,1.049 0.721,1.836 0.807,1.75 0.208,-0.209 -0.662,-2.783 -1.106,-3.272 -0.193,-0.211 -0.058,0.474 0.299,1.522 m 85.75,-0.711 c -0.214,0.564 -0.39,1.131 -0.39,1.26 0,0.465 -2.151,4.731 -2.731,5.414 -0.326,0.385 -0.412,0.7 -0.191,0.7 0.455,0 2.611,-4.128 3.499,-6.7 0.628,-1.816 0.467,-2.394 -0.187,-0.674 m -84.681,3.274 c 0.086,0.165 0.462,0.967 0.834,1.783 0.373,0.816 0.849,1.588 1.057,1.717 0.208,0.129 0.674,0.856 1.035,1.617 0.361,0.761 0.844,1.383 1.073,1.383 0.229,0 0.118,-0.329 -0.246,-0.731 -0.364,-0.403 -0.662,-0.921 -0.662,-1.152 0,-0.23 -0.279,-0.651 -0.62,-0.933 -0.341,-0.283 -0.975,-1.295 -1.41,-2.249 -0.434,-0.954 -0.886,-1.735 -1.004,-1.735 -0.117,0 -0.143,0.135 -0.057,0.3 m 95.406,1.91 c -0.123,0.435 -0.346,1.15 -0.495,1.59 -0.149,0.44 0.022,0.294 0.38,-0.324 0.358,-0.618 0.581,-1.334 0.495,-1.59 -0.085,-0.256 -0.256,-0.11 -0.38,0.324 M 146.828,223 c 0,0.22 0.258,0.85 0.572,1.4 0.314,0.55 0.572,0.82 0.572,0.6 0,-0.22 -0.258,-0.85 -0.572,-1.4 -0.314,-0.55 -0.572,-0.82 -0.572,-0.6 m 91.173,2.524 c -3.245,4.881 -7.555,9.19 -12.477,12.474 -0.811,0.541 -1.409,1.05 -1.328,1.132 0.392,0.391 5.283,-3.409 8.404,-6.53 3.121,-3.121 6.921,-8.012 6.53,-8.404 -0.082,-0.081 -0.589,0.517 -1.129,1.328 m -89.586,1.076 c 0.002,0.22 0.371,0.85 0.821,1.4 0.543,0.664 0.679,0.731 0.404,0.2 -0.674,-1.305 -1.228,-2.028 -1.225,-1.6 m 13.985,0.018 c 0,1.618 12.572,13.344 13.409,12.506 0.09,-0.09 -0.529,-0.612 -1.375,-1.161 -2.888,-1.872 -7.708,-6.145 -9.034,-8.008 -0.812,-1.141 -3,-3.575 -3,-3.337 m -11.829,3.682 c 0.817,1.521 2.223,3.558 2.226,3.227 0.004,-0.336 -2.457,-4.327 -2.667,-4.327 -0.083,0 0.116,0.495 0.441,1.1 m 96.173,3.6 c -1.151,1.389 -1.638,2.1 -1.44,2.1 0.11,0 0.682,-0.63 1.269,-1.4 1.09,-1.429 1.222,-1.968 0.171,-0.7 m -2.969,3.8 -1.175,1.3 1.3,-1.175 c 0.715,-0.646 1.3,-1.231 1.3,-1.3 0,-0.309 -0.33,-0.037 -1.425,1.175 M 157,238.8 c 0.859,0.88 1.652,1.6 1.762,1.6 0.11,0 -0.503,-0.72 -1.362,-1.6 -0.859,-0.88 -1.652,-1.6 -1.762,-1.6 -0.11,0 0.503,0.72 1.362,1.6 m 19.748,0.891 c 0.836,1.08 8.475,4.517 7.872,3.541 -0.117,-0.189 -0.709,-0.465 -1.316,-0.614 -1.432,-0.352 -5.279,-2.176 -6.297,-2.987 -0.738,-0.587 -0.756,-0.583 -0.259,0.06 m 46.26,-0.104 c -0.3,0.485 -4.832,2.659 -6.312,3.027 -0.607,0.151 -1.199,0.429 -1.316,0.618 -0.117,0.189 0.56,0.077 1.504,-0.249 2.425,-0.838 6.716,-3.038 6.716,-3.443 0,-0.454 -0.297,-0.431 -0.592,0.047 m -61.433,3.705 c 0.976,1.04 1.861,1.805 1.967,1.7 0.105,-0.106 0.114,-0.237 0.019,-0.292 -0.096,-0.055 -0.981,-0.82 -1.967,-1.7 l -1.794,-1.599 1.775,1.891 m 75.8,0.808 -1.175,1.3 1.3,-1.175 c 0.715,-0.646 1.3,-1.231 1.3,-1.3 0,-0.309 -0.33,-0.037 -1.425,1.175 m -49.975,0.28 c 1.32,0.445 2.76,0.799 3.2,0.787 0.44,-0.011 -0.1,-0.278 -1.2,-0.591 -3.288,-0.937 -4.577,-1.064 -2,-0.196 m 25.745,-0.592 c -0.103,0.104 -1.168,0.452 -2.366,0.774 -1.225,0.329 -1.741,0.591 -1.179,0.599 0.55,0.007 1.99,-0.335 3.2,-0.761 1.21,-0.426 1.825,-0.78 1.367,-0.787 -0.459,-0.007 -0.918,0.072 -1.022,0.175 m -20.545,1.815 c 1.214,0.306 6.074,0.519 5.767,0.253 -0.092,-0.08 -1.697,-0.237 -3.567,-0.35 -1.872,-0.114 -2.861,-0.07 -2.2,0.097 m 11.4,-0.003 -2.6,0.262 2.4,0.022 c 1.32,0.012 2.94,-0.116 3.6,-0.284 1.521,-0.387 0.443,-0.387 -3.4,0 m 30.385,0.829 -1.385,1.229 1.5,-1.077 c 1.326,-0.951 1.757,-1.381 1.385,-1.381 -0.063,0 -0.738,0.553 -1.5,1.229 m -66.585,1.767 c 0.894,0.743 3.428,2.113 2.8,1.514 -0.22,-0.21 -1.12,-0.786 -2,-1.28 -0.88,-0.495 -1.24,-0.6 -0.8,-0.234 m 8.6,4.804 c 0.99,0.53 2.07,0.97 2.4,0.978 0.33,0.008 -0.363,-0.434 -1.54,-0.982 -2.712,-1.262 -3.221,-1.26 -0.86,0.004 m 45.4,0.414 c -0.66,0.303 -0.93,0.552 -0.6,0.554 0.33,0.002 1.05,-0.254 1.6,-0.568 1.265,-0.723 0.589,-0.713 -1,0.014 m -40.254,1.602 c 0.74,0.321 1.64,0.576 2,0.566 0.36,-0.009 -0.066,-0.277 -0.946,-0.594 -2.073,-0.746 -2.794,-0.728 -1.054,0.028 m 33.054,0.795 c -0.88,0.29 -1.33,0.539 -1,0.552 0.33,0.014 1.41,-0.23 2.4,-0.542 0.99,-0.312 1.44,-0.561 1,-0.552 -0.44,0.008 -1.52,0.252 -2.4,0.542 m -25.367,1.138 c 0.092,0.082 1.067,0.252 2.167,0.379 1.349,0.156 1.674,0.121 1,-0.108 -0.999,-0.34 -3.482,-0.552 -3.167,-0.271 m 18.367,0.264 c -0.646,0.216 -0.22,0.253 1.2,0.106 1.21,-0.125 2.275,-0.293 2.367,-0.373 0.32,-0.281 -2.576,-0.063 -3.567,0.267 m -10.7,0.684 c 1.705,0.075 4.495,0.075 6.2,0 1.705,-0.075 0.31,-0.136 -3.1,-0.136 -3.41,0 -4.805,0.061 -3.1,0.136 m -3,7.192 c 0.715,0.089 1.885,0.089 2.6,0 0.715,-0.088 0.13,-0.161 -1.3,-0.161 -1.43,0 -2.015,0.073 -1.3,0.161 m 9.6,0 c 0.715,0.089 1.885,0.089 2.6,0 0.715,-0.088 0.13,-0.161 -1.3,-0.161 -1.43,0 -2.015,0.073 -1.3,0.161 m -19.3,1.711 c -1.019,0.438 0.032,0.438 1.4,0 0.804,-0.257 0.843,-0.323 0.2,-0.332 -0.44,-0.006 -1.16,0.143 -1.6,0.332 m 30.2,0 c 1.368,0.438 2.419,0.438 1.4,0 -0.44,-0.189 -1.16,-0.338 -1.6,-0.332 -0.643,0.009 -0.604,0.075 0.2,0.332 m -46.062,7.185 c -1.025,0.643 -1.981,1.362 -2.127,1.596 -0.24,0.389 3.072,-1.652 3.969,-2.445 0.73,-0.645 0.006,-0.312 -1.842,0.849 m 64.206,0.724 c 0.316,0.512 2.656,2.244 2.656,1.966 0,-0.099 -0.661,-0.684 -1.468,-1.3 -0.808,-0.616 -1.343,-0.916 -1.188,-0.666 m 5.1,4.191 c 0.098,0.055 1.523,1.36 3.167,2.9 l 2.989,2.8 -2.789,-2.9 c -1.534,-1.595 -2.959,-2.9 -3.167,-2.9 -0.208,0 -0.297,0.045 -0.2,0.1 m -78.634,2.69 c -1.3,1.314 -2.285,2.444 -2.187,2.512 0.097,0.067 1.242,-1.008 2.543,-2.39 3.005,-3.19 2.763,-3.274 -0.356,-0.122 m -3.855,4.31 c -1.345,1.487 -2.095,2.5 -1.852,2.5 0.11,0 0.864,-0.81 1.676,-1.8 1.627,-1.986 1.738,-2.428 0.176,-0.7 m 95.927,9.889 c 0.591,1.204 1.141,2.122 1.223,2.04 0.179,-0.18 -1.838,-4.229 -2.107,-4.229 -0.104,0 0.294,0.985 0.884,2.189 m -106.636,9.878 c -0.025,0.367 -0.15,0.997 -0.276,1.4 -0.218,0.695 -0.207,0.696 0.227,0.02 0.251,-0.391 0.376,-1.021 0.276,-1.4 -0.162,-0.619 -0.185,-0.621 -0.227,-0.02 m -0.8,3.2 c -0.025,0.367 -0.15,0.997 -0.276,1.4 -0.218,0.695 -0.207,0.696 0.227,0.02 0.251,-0.391 0.376,-1.021 0.276,-1.4 -0.162,-0.619 -0.185,-0.621 -0.227,-0.02 m 113.182,3.966 c 0.016,0.752 0.184,1.727 0.375,2.167 0.223,0.515 0.264,0.087 0.115,-1.2 -0.274,-2.378 -0.529,-2.881 -0.49,-0.967 M 142.854,312.8 c -0.035,0.55 -0.158,1.45 -0.271,2 l -0.206,1 0.43,-0.985 c 0.236,-0.541 0.358,-1.441 0.271,-2 l -0.158,-1.015 -0.066,1 m 114.906,9.8 c 0.001,3.3 0.062,4.597 0.138,2.882 0.075,-1.715 0.074,-4.415 -0.001,-6 -0.076,-1.585 -0.138,-0.182 -0.137,3.118 m -115.614,0 c 0.001,2.2 0.068,3.049 0.149,1.887 0.081,-1.163 0.081,-2.963 -0.002,-4 -0.082,-1.038 -0.148,-0.087 -0.147,2.113 m 0.536,8.621 c 0.126,0.978 0.293,1.854 0.373,1.946 0.326,0.375 0.105,-2.612 -0.234,-3.146 -0.237,-0.375 -0.286,0.049 -0.139,1.2 m 114.374,-0.737 c -0.135,0.504 -0.226,1.456 -0.203,2.116 0.028,0.828 0.144,0.584 0.373,-0.787 0.35,-2.09 0.248,-2.887 -0.17,-1.329 M 143.444,335.4 c 0.329,1.471 0.558,1.79 0.55,0.767 -0.003,-0.422 -0.189,-1.037 -0.412,-1.367 -0.297,-0.438 -0.334,-0.276 -0.138,0.6 m 0.8,3.2 c 0.329,1.471 0.558,1.79 0.55,0.767 -0.003,-0.422 -0.189,-1.037 -0.412,-1.367 -0.297,-0.438 -0.334,-0.276 -0.138,0.6 m 107.234,10.005 c -0.366,0.767 -0.583,1.395 -0.482,1.395 0.274,0 1.488,-2.449 1.305,-2.632 -0.087,-0.087 -0.457,0.47 -0.823,1.237 m -90.678,-0.48 c 0,0.069 0.585,0.654 1.3,1.3 l 1.3,1.175 -1.175,-1.3 c -1.095,-1.212 -1.425,-1.484 -1.425,-1.175 m -10.851,3.675 c 0.216,0.44 0.685,1.16 1.044,1.6 l 0.651,0.8 -0.393,-0.8 c -0.216,-0.44 -0.685,-1.16 -1.044,-1.6 l -0.651,-0.8 0.393,0.8 m 14.451,0.8 c 0.746,0.77 1.447,1.4 1.557,1.4 0.11,0 -0.411,-0.63 -1.157,-1.4 -0.746,-0.77 -1.447,-1.4 -1.557,-1.4 -0.11,0 0.411,0.63 1.157,1.4 m 67.993,2.9 -4.193,4.3 4.3,-4.193 c 3.994,-3.894 4.482,-4.407 4.193,-4.407 -0.059,0 -1.994,1.935 -4.3,4.3 m -75.593,5.547 c 0,0.209 1.035,1.364 2.3,2.567 l 2.3,2.186 -2.2,-2.391 c -1.21,-1.315 -2.245,-2.47 -2.3,-2.566 -0.055,-0.097 -0.1,-0.005 -0.1,0.204 m 83.789,2.653 -2.789,2.9 2.9,-2.789 c 2.694,-2.591 3.083,-3.011 2.789,-3.011 -0.061,0 -1.366,1.305 -2.9,2.9 m -4.176,3.684 c -0.266,0.321 -2.178,1.698 -4.249,3.06 -2.07,1.362 -3.764,2.55 -3.764,2.64 0,0.217 0.468,-0.064 4,-2.406 3.403,-2.257 5.443,-3.878 4.88,-3.878 -0.21,0 -0.6,0.263 -0.867,0.584 m -38.913,1.712 c 1.375,0.078 3.625,0.078 5,0 1.375,-0.078 0.25,-0.142 -2.5,-0.142 -2.75,0 -3.875,0.064 -2.5,0.142 m -30.606,0.994 c 1.188,1.01 3.506,2.457 3.506,2.189 0,-0.091 -1.035,-0.83 -2.3,-1.642 -1.265,-0.812 -1.808,-1.058 -1.206,-0.547 m 20.506,9.11 c 0.44,0.189 1.07,0.344 1.4,0.344 0.378,0 0.304,-0.127 -0.2,-0.344 -0.44,-0.189 -1.07,-0.344 -1.4,-0.344 -0.378,0 -0.304,0.127 0.2,0.344 m 24,0 c -0.504,0.217 -0.578,0.344 -0.2,0.344 0.33,0 0.96,-0.155 1.4,-0.344 0.504,-0.217 0.578,-0.344 0.2,-0.344 -0.33,0 -0.96,0.155 -1.4,0.344 M 192,380 c 0.55,0.176 1.36,0.32 1.8,0.32 0.633,0 0.592,-0.066 -0.2,-0.32 -0.55,-0.176 -1.36,-0.32 -1.8,-0.32 -0.633,0 -0.592,0.066 0.2,0.32 m 14.4,0 c -0.792,0.254 -0.833,0.32 -0.2,0.32 0.44,0 1.25,-0.144 1.8,-0.32 0.792,-0.254 0.833,-0.32 0.2,-0.32 -0.44,0 -1.25,0.144 -1.8,0.32 m -77.437,6.89 c 0.084,0.411 13.869,0.51 71.037,0.51 57.168,0 70.953,-0.099 71.037,-0.51 0.057,-0.28 0.012,-0.325 -0.1,-0.1 -0.138,0.278 -23.03,0.41 -70.937,0.41 -47.907,0 -70.799,-0.132 -70.937,-0.41 -0.112,-0.225 -0.156,-0.18 -0.1,0.1"
       stroke="none"
       fill="#342c2c"
       fill-rule="evenodd" />
  </g>
</svg>
