<svg id="svg" version="1.1" xmlns="http://www.w3.org/2000/svg" xmlns:xlink="http://www.w3.org/1999/xlink" width="400" height="400" viewBox="0, 0, 400,400"><g id="svgg"><path id="path0" d="M194.000 155.421 C 191.910 155.712,189.480 156.156,188.600 156.408 C 187.720 156.660,186.503 156.962,185.895 157.079 C 185.287 157.196,184.692 157.451,184.571 157.646 C 184.451 157.841,184.099 158.000,183.788 158.000 C 182.506 158.000,177.521 160.760,172.135 164.453 C 167.173 167.855,158.000 180.392,158.000 183.772 C 158.000 184.091,157.841 184.451,157.646 184.571 C 157.451 184.692,157.202 185.287,157.091 185.895 C 156.980 186.503,156.617 187.990,156.283 189.200 C 154.266 196.517,155.106 212.612,157.651 215.380 C 157.843 215.589,158.000 216.005,158.000 216.305 C 158.000 217.140,160.367 221.926,162.047 224.489 C 177.920 248.699,211.427 252.221,231.824 231.824 C 251.151 212.497,249.110 180.838,227.457 164.074 C 224.467 161.759,217.566 158.000,216.305 158.000 C 216.005 158.000,215.589 157.843,215.380 157.651 C 213.288 155.728,201.001 154.447,194.000 155.421 " stroke="none" fill="#fbab43" fill-rule="evenodd"></path><path id="path1" d="M129.200 200.000 L 129.200 386.400 200.000 386.400 L 270.800 386.400 270.800 200.000 L 270.800 13.600 200.000 13.600 L 129.200 13.600 129.200 200.000 M208.976 19.637 C 212.567 20.284,217.397 21.481,218.400 21.972 C 218.730 22.133,219.855 22.515,220.900 22.820 C 221.945 23.125,222.800 23.515,222.800 23.687 C 222.800 23.859,223.052 24.000,223.359 24.000 C 224.256 24.000,229.909 27.091,233.569 29.583 C 237.960 32.573,243.646 38.069,246.415 42.001 C 246.957 42.770,247.516 43.490,247.658 43.600 C 249.032 44.665,253.852 54.182,255.255 58.600 C 255.535 59.480,255.907 60.371,256.082 60.580 C 256.257 60.789,256.400 61.518,256.400 62.200 C 256.400 62.882,256.562 63.611,256.759 63.820 C 258.776 65.955,258.575 84.220,256.443 92.600 C 256.219 93.480,255.916 94.698,255.770 95.306 C 255.624 95.914,255.346 96.510,255.152 96.630 C 254.959 96.749,254.800 97.106,254.800 97.423 C 254.800 99.671,248.842 110.180,245.062 114.600 C 240.565 119.858,231.491 127.600,229.827 127.600 C 229.707 127.600,229.292 127.871,228.905 128.202 C 228.317 128.705,224.120 130.740,221.000 132.035 C 209.102 136.976,190.775 136.974,179.000 132.032 C 176.676 131.056,170.982 128.166,170.867 127.904 C 170.793 127.737,170.558 127.600,170.345 127.600 C 169.984 127.600,165.249 124.549,164.800 124.028 C 164.690 123.900,163.970 123.323,163.200 122.745 C 157.292 118.312,150.863 110.061,147.193 102.200 C 145.164 97.856,143.600 93.482,143.600 92.153 C 143.600 91.717,143.438 91.189,143.241 90.980 C 142.793 90.506,142.482 88.316,142.006 82.300 C 141.496 75.850,142.083 68.392,143.557 62.600 C 143.781 61.720,144.084 60.502,144.230 59.894 C 144.376 59.286,144.654 58.690,144.848 58.570 C 145.041 58.451,145.200 58.001,145.200 57.571 C 145.200 57.141,145.366 56.477,145.569 56.095 C 145.771 55.713,146.579 54.012,147.364 52.315 C 148.717 49.389,151.796 44.030,152.371 43.600 C 152.518 43.490,153.073 42.770,153.604 42.000 C 156.669 37.555,165.202 29.882,169.928 27.321 C 170.738 26.882,172.080 26.135,172.912 25.662 C 173.744 25.188,174.689 24.800,175.012 24.800 C 175.335 24.800,175.600 24.620,175.600 24.400 C 175.600 24.180,175.960 24.000,176.400 24.000 C 176.840 24.000,177.200 23.820,177.200 23.600 C 177.200 23.380,177.562 23.200,178.005 23.200 C 178.448 23.200,179.123 23.041,179.505 22.847 C 181.587 21.788,185.844 20.575,190.600 19.684 C 193.451 19.151,206.098 19.118,208.976 19.637 M198.691 32.289 C 199.401 32.377,200.661 32.379,201.491 32.292 C 202.321 32.205,201.740 32.133,200.200 32.131 C 198.660 32.129,197.981 32.200,198.691 32.289 M175.900 39.029 C 174.405 39.840,174.496 40.178,176.000 39.400 C 176.660 39.059,177.200 38.694,177.200 38.590 C 177.200 38.332,177.157 38.347,175.900 39.029 M224.400 39.311 C 224.400 39.387,224.985 39.878,225.700 40.401 C 226.504 40.990,226.784 41.087,226.433 40.655 C 225.900 39.999,224.400 39.007,224.400 39.311 M227.600 41.654 C 227.710 41.744,229.510 43.429,231.600 45.400 L 235.400 48.982 232.200 45.663 C 230.440 43.838,228.640 42.153,228.200 41.918 C 227.760 41.684,227.490 41.565,227.600 41.654 M167.671 45.751 C 165.872 47.594,164.400 49.244,164.400 49.418 C 164.400 49.591,164.450 49.658,164.510 49.567 C 164.571 49.475,166.132 47.825,167.981 45.900 C 169.829 43.975,171.252 42.400,171.142 42.400 C 171.032 42.400,169.470 43.908,167.671 45.751 M163.123 51.100 C 162.418 51.921,161.890 52.800,162.101 52.800 C 162.183 52.800,162.649 52.260,163.137 51.600 C 164.101 50.296,164.092 49.972,163.123 51.100 M238.839 54.576 C 239.301 55.359,239.756 56.000,239.850 56.000 C 240.134 56.000,238.836 53.669,238.402 53.401 C 238.180 53.264,238.377 53.793,238.839 54.576 M159.380 57.240 C 158.811 58.362,158.413 59.347,158.495 59.429 C 158.577 59.511,159.127 58.593,159.718 57.389 C 160.308 56.185,160.706 55.200,160.602 55.200 C 160.498 55.200,159.948 56.118,159.380 57.240 M244.501 69.800 C 244.505 70.680,244.587 70.993,244.683 70.495 C 244.779 69.998,244.775 69.278,244.675 68.895 C 244.575 68.513,244.496 68.920,244.501 69.800 M245.331 77.400 C 245.333 78.940,245.405 79.521,245.492 78.691 C 245.579 77.861,245.577 76.601,245.489 75.891 C 245.400 75.181,245.329 75.860,245.331 77.400 M244.493 85.200 C 244.493 85.970,244.575 86.285,244.676 85.900 C 244.776 85.515,244.776 84.885,244.676 84.500 C 244.575 84.115,244.493 84.430,244.493 85.200 M241.867 94.067 C 241.505 94.988,241.274 95.807,241.354 95.888 C 241.434 95.968,241.800 95.283,242.167 94.367 C 242.533 93.450,242.764 92.631,242.679 92.546 C 242.594 92.461,242.229 93.145,241.867 94.067 M234.426 106.500 C 233.450 107.655,233.153 108.150,233.765 107.600 C 234.796 106.673,236.617 104.400,236.327 104.400 C 236.257 104.400,235.402 105.345,234.426 106.500 M166.000 107.400 C 166.746 108.170,167.447 108.800,167.557 108.800 C 167.667 108.800,167.146 108.170,166.400 107.400 C 165.654 106.630,164.953 106.000,164.843 106.000 C 164.733 106.000,165.254 106.630,166.000 107.400 M169.400 110.764 C 170.236 111.729,173.200 114.183,173.200 113.910 C 173.200 113.823,172.165 112.872,170.900 111.797 C 169.635 110.721,168.960 110.256,169.400 110.764 M229.375 111.700 L 228.200 113.000 229.500 111.825 C 230.215 111.179,230.800 110.594,230.800 110.525 C 230.800 110.216,230.470 110.488,229.375 111.700 M197.500 122.696 C 198.875 122.774,201.125 122.774,202.500 122.696 C 203.875 122.618,202.750 122.554,200.000 122.554 C 197.250 122.554,196.125 122.618,197.500 122.696 M209.674 142.447 C 210.044 142.641,210.979 142.800,211.750 142.800 C 212.522 142.800,213.264 142.980,213.400 143.200 C 213.536 143.420,214.256 143.600,215.000 143.600 C 215.744 143.600,216.464 143.780,216.600 144.000 C 216.736 144.220,217.199 144.400,217.629 144.400 C 218.059 144.400,218.768 144.580,219.205 144.800 C 219.642 145.020,220.358 145.380,220.795 145.600 C 221.232 145.820,221.789 146.000,222.034 146.000 C 225.182 146.000,238.883 155.512,243.203 160.697 C 244.191 161.883,245.270 163.157,245.600 163.527 C 250.208 168.699,254.693 177.829,256.736 186.200 C 258.044 191.555,258.152 192.607,258.152 200.000 C 258.152 207.393,258.044 208.445,256.736 213.800 C 251.512 235.196,235.196 251.512,213.800 256.736 C 208.445 258.044,207.393 258.152,200.000 258.152 C 195.072 258.152,191.390 257.963,190.000 257.639 C 183.021 256.014,181.885 255.659,176.863 253.532 C 172.821 251.821,165.632 247.571,163.603 245.694 C 163.191 245.312,161.880 244.190,160.690 243.200 C 155.594 238.962,146.000 225.108,146.000 221.987 C 146.000 221.768,145.792 221.187,145.538 220.695 C 144.544 218.774,144.400 218.384,144.400 217.629 C 144.400 217.199,144.220 216.736,144.000 216.600 C 143.780 216.464,143.600 215.769,143.600 215.056 C 143.600 214.343,143.438 213.589,143.241 213.380 C 141.500 211.537,141.500 188.463,143.241 186.620 C 143.438 186.411,143.600 185.657,143.600 184.944 C 143.600 184.231,143.780 183.536,144.000 183.400 C 144.220 183.264,144.400 182.801,144.400 182.371 C 144.400 181.941,144.580 181.232,144.800 180.795 C 145.020 180.358,145.380 179.642,145.600 179.205 C 145.820 178.768,146.000 178.242,146.000 178.037 C 146.000 177.433,148.469 172.432,150.265 169.400 C 154.176 162.793,162.793 154.176,169.400 150.265 C 172.432 148.469,177.433 146.000,178.037 146.000 C 178.242 146.000,178.768 145.820,179.205 145.600 C 179.642 145.380,180.358 145.020,180.795 144.800 C 181.232 144.580,181.941 144.400,182.371 144.400 C 182.801 144.400,183.264 144.220,183.400 144.000 C 183.536 143.780,184.231 143.600,184.944 143.600 C 185.657 143.600,186.411 143.438,186.620 143.241 C 187.983 141.953,207.450 141.283,209.674 142.447 M205.258 264.415 C 213.576 265.248,228.228 269.956,229.133 272.086 C 229.207 272.259,229.442 272.400,229.655 272.400 C 230.016 272.400,234.751 275.451,235.200 275.972 C 235.310 276.100,236.030 276.680,236.800 277.260 C 243.837 282.567,250.691 291.953,254.427 301.400 C 255.565 304.279,256.400 306.959,256.400 307.735 C 256.400 308.233,256.562 308.811,256.759 309.020 C 258.534 310.899,258.534 334.301,256.759 336.180 C 256.562 336.389,256.400 337.056,256.400 337.661 C 256.400 338.267,256.198 339.266,255.950 339.881 C 255.476 341.061,255.025 342.212,254.455 343.700 C 250.426 354.216,242.627 364.195,233.612 370.370 C 231.661 371.707,229.885 372.800,229.665 372.800 C 229.446 372.800,229.207 372.935,229.133 373.100 C 228.945 373.524,224.001 376.000,223.344 376.000 C 223.045 376.000,222.800 376.147,222.800 376.328 C 222.800 376.508,221.889 376.904,220.775 377.207 C 219.661 377.510,218.660 377.903,218.551 378.079 C 218.442 378.256,217.924 378.400,217.400 378.400 C 216.876 378.400,216.336 378.580,216.200 378.800 C 216.064 379.020,215.344 379.200,214.600 379.200 C 213.856 379.200,213.150 379.357,213.031 379.550 C 212.526 380.367,201.742 381.098,195.800 380.719 C 191.538 380.447,189.138 380.092,185.800 379.243 C 184.920 379.019,183.660 378.714,183.000 378.564 C 182.340 378.415,181.620 378.163,181.400 378.004 C 181.180 377.846,180.145 377.471,179.100 377.171 C 178.055 376.871,177.200 376.485,177.200 376.313 C 177.200 376.141,176.840 376.000,176.400 376.000 C 175.960 376.000,175.600 375.820,175.600 375.600 C 175.600 375.380,175.335 375.200,175.012 375.200 C 174.689 375.200,173.789 374.840,173.012 374.400 C 172.235 373.960,170.926 373.218,170.102 372.752 C 167.122 371.064,161.281 366.519,158.812 363.967 C 156.749 361.833,154.457 359.200,153.614 357.995 C 153.078 357.228,152.518 356.510,152.371 356.400 C 151.794 355.969,148.612 350.442,147.304 347.600 C 146.545 345.950,145.760 344.287,145.562 343.905 C 145.363 343.523,145.200 342.878,145.200 342.472 C 145.200 342.066,145.077 341.610,144.926 341.459 C 144.499 341.033,143.613 338.292,143.606 337.380 C 143.603 336.929,143.438 336.389,143.241 336.180 C 141.767 334.620,141.423 317.092,142.751 311.200 C 143.697 307.001,143.931 306.100,144.569 304.200 C 147.949 294.134,155.803 282.756,163.150 277.284 C 163.948 276.690,164.690 276.100,164.800 275.972 C 165.249 275.451,169.984 272.400,170.345 272.400 C 170.558 272.400,170.793 272.259,170.867 272.086 C 170.940 271.914,172.350 271.117,174.000 270.316 C 184.331 265.300,194.649 263.352,205.258 264.415 M192.800 278.000 C 191.416 278.291,191.414 278.295,192.600 278.341 C 193.260 278.367,194.070 278.213,194.400 278.000 C 195.066 277.570,194.845 277.570,192.800 278.000 M185.000 280.029 C 184.120 280.452,183.850 280.686,184.400 280.549 C 185.533 280.267,187.612 279.225,187.000 279.246 C 186.780 279.253,185.880 279.606,185.000 280.029 M212.800 279.410 C 212.800 279.644,214.074 280.160,215.600 280.546 C 216.150 280.685,215.880 280.452,215.000 280.029 C 213.301 279.212,212.800 279.071,212.800 279.410 M179.822 282.174 C 175.022 284.676,167.600 290.280,167.600 291.401 C 167.600 291.566,168.455 290.871,169.500 289.858 C 170.545 288.844,171.850 287.707,172.400 287.331 C 172.950 286.954,173.490 286.542,173.600 286.414 C 174.027 285.918,176.351 284.533,179.800 282.719 C 181.780 281.677,183.188 280.820,182.929 280.813 C 182.670 280.806,181.272 281.418,179.822 282.174 M217.200 280.996 C 217.200 281.103,218.671 281.931,220.469 282.835 C 223.593 284.405,225.545 285.613,226.718 286.700 C 227.014 286.975,227.384 287.200,227.539 287.200 C 227.693 287.200,229.031 288.364,230.510 289.786 C 231.990 291.209,233.200 292.213,233.200 292.018 C 233.200 291.528,229.099 287.886,226.200 285.803 C 222.639 283.243,217.200 280.338,217.200 280.996 M165.799 293.095 C 164.326 294.853,163.502 296.000,163.715 296.000 C 163.991 296.000,167.294 291.961,167.143 291.809 C 167.063 291.730,166.459 292.309,165.799 293.095 M233.600 292.550 C 233.600 292.664,234.455 293.894,235.500 295.283 C 236.545 296.672,237.720 298.257,238.112 298.804 L 238.823 299.800 238.361 298.800 C 237.667 297.295,233.600 291.957,233.600 292.550 M162.048 298.000 C 161.553 298.880,161.226 299.600,161.321 299.600 C 161.416 299.600,161.970 298.880,162.553 298.000 C 163.135 297.120,163.462 296.400,163.279 296.400 C 163.097 296.400,162.543 297.120,162.048 298.000 M160.339 300.888 C 159.461 302.297,158.785 304.001,159.109 303.990 C 159.438 303.980,161.264 300.331,161.048 300.115 C 160.971 300.038,160.652 300.386,160.339 300.888 M157.815 306.215 C 157.430 307.224,157.198 308.132,157.300 308.233 C 157.401 308.335,157.800 307.593,158.185 306.585 C 158.570 305.576,158.802 304.668,158.700 304.567 C 158.599 304.465,158.200 305.207,157.815 306.215 M156.649 309.415 C 156.512 309.773,156.415 310.366,156.434 310.733 C 156.453 311.100,156.627 310.869,156.821 310.220 C 157.198 308.958,157.065 308.333,156.649 309.415 M243.656 312.200 C 243.656 312.640,243.811 313.360,244.000 313.800 L 244.344 314.600 244.344 313.800 C 244.344 313.360,244.189 312.640,244.000 312.200 L 243.656 311.400 243.656 312.200 M244.702 318.600 C 244.807 319.150,244.962 319.600,245.047 319.600 C 245.131 319.600,245.200 319.150,245.200 318.600 C 245.200 318.050,245.045 317.600,244.855 317.600 C 244.666 317.600,244.597 318.050,244.702 318.600 M154.934 320.800 C 154.934 322.450,155.005 323.125,155.091 322.300 C 155.178 321.475,155.178 320.125,155.091 319.300 C 155.005 318.475,154.934 319.150,154.934 320.800 M154.800 326.000 C 154.800 326.880,154.940 327.600,155.111 327.600 C 155.281 327.600,155.352 326.880,155.269 326.000 C 155.185 325.120,155.045 324.400,154.958 324.400 C 154.871 324.400,154.800 325.120,154.800 326.000 M244.655 327.455 C 244.513 328.486,244.474 329.408,244.569 329.502 C 244.663 329.596,244.865 328.839,245.018 327.818 C 245.171 326.798,245.210 325.876,245.104 325.771 C 244.998 325.665,244.796 326.423,244.655 327.455 M155.606 331.233 C 155.609 331.765,155.797 332.470,156.023 332.800 C 156.329 333.248,156.386 333.061,156.246 332.062 C 156.018 330.439,155.598 329.895,155.606 331.233 M243.800 332.000 C 243.648 332.691,243.614 333.347,243.724 333.457 C 243.834 333.567,244.048 333.091,244.200 332.400 C 244.352 331.709,244.386 331.053,244.276 330.943 C 244.166 330.833,243.952 331.309,243.800 332.000 M156.412 334.800 C 156.412 335.130,156.587 335.670,156.800 336.000 C 157.145 336.533,157.188 336.533,157.188 336.000 C 157.188 335.670,157.013 335.130,156.800 334.800 C 156.455 334.267,156.412 334.267,156.412 334.800 M243.000 335.200 C 242.850 335.673,242.817 336.150,242.927 336.260 C 243.037 336.370,243.250 336.073,243.400 335.600 C 243.550 335.127,243.583 334.650,243.473 334.540 C 243.363 334.430,243.150 334.727,243.000 335.200 M241.872 338.619 C 241.502 339.393,241.213 340.246,241.228 340.514 C 241.244 340.781,241.608 340.209,242.037 339.242 C 242.971 337.137,242.831 336.608,241.872 338.619 M161.286 345.900 C 163.977 350.596,172.886 360.000,174.644 360.000 C 175.023 360.000,173.905 358.978,171.822 357.420 C 168.887 355.226,164.625 350.458,162.237 346.700 C 160.601 344.125,159.961 343.587,161.286 345.900 M238.370 345.879 C 235.834 350.067,231.176 355.263,227.503 358.000 C 226.470 358.770,225.619 359.557,225.612 359.749 C 225.606 359.941,225.909 359.851,226.287 359.549 C 226.665 359.247,227.331 358.730,227.766 358.400 C 229.588 357.018,234.764 351.640,236.234 349.600 C 239.124 345.592,239.672 344.739,239.481 344.548 C 239.377 344.443,238.877 345.042,238.370 345.879 M175.200 360.202 C 175.200 360.443,178.291 362.400,178.672 362.400 C 178.830 362.400,178.789 362.237,178.580 362.038 C 178.034 361.517,175.200 359.978,175.200 360.202 M223.700 360.544 C 223.205 360.789,222.800 361.133,222.800 361.309 C 222.800 361.694,224.255 360.959,224.601 360.398 C 224.737 360.179,224.792 360.022,224.724 360.049 C 224.656 360.076,224.195 360.299,223.700 360.544 M182.400 364.162 C 182.400 364.252,183.210 364.601,184.200 364.938 C 186.357 365.673,186.587 365.456,184.551 364.605 C 183.104 364.001,182.400 363.856,182.400 364.162 M215.600 364.631 L 214.600 365.233 215.600 364.968 C 217.052 364.584,218.003 364.024,217.200 364.026 C 216.870 364.027,216.150 364.299,215.600 364.631 M187.400 365.973 C 187.840 366.151,188.830 366.408,189.600 366.545 L 191.000 366.793 189.600 366.227 C 188.830 365.916,187.840 365.659,187.400 365.656 L 186.600 365.651 187.400 365.973 M210.400 366.219 L 209.000 366.776 210.600 366.537 C 211.480 366.405,212.470 366.146,212.800 365.961 C 213.820 365.389,211.989 365.585,210.400 366.219 " stroke="none" fill="#434343" fill-rule="evenodd"></path><path id="path2" d="M191.400 33.197 C 173.634 36.799,159.699 50.498,155.996 68.000 C 155.740 69.210,155.379 70.830,155.193 71.600 C 154.755 73.413,154.992 81.964,155.559 84.800 C 156.731 90.671,157.349 92.643,159.318 96.800 C 177.305 134.770,234.803 128.766,243.798 87.978 C 244.160 86.340,244.605 84.419,244.787 83.709 C 245.172 82.213,245.061 72.466,244.635 70.400 C 239.259 44.303,216.179 28.174,191.400 33.197 M193.700 154.687 C 194.305 154.778,195.295 154.778,195.900 154.687 C 196.505 154.595,196.010 154.520,194.800 154.520 C 193.590 154.520,193.095 154.595,193.700 154.687 M204.100 154.687 C 204.705 154.778,205.695 154.778,206.300 154.687 C 206.905 154.595,206.410 154.520,205.200 154.520 C 203.990 154.520,203.495 154.595,204.100 154.687 M232.173 167.700 C 234.168 169.735,235.881 171.349,235.979 171.287 C 236.191 171.154,229.125 164.000,228.781 164.000 C 228.652 164.000,230.178 165.665,232.173 167.700 M167.391 167.700 L 164.200 171.000 167.500 167.809 C 169.315 166.055,170.800 164.570,170.800 164.509 C 170.800 164.218,170.354 164.635,167.391 167.700 M237.029 173.238 C 237.673 174.029,238.281 174.608,238.379 174.525 C 238.478 174.442,237.951 173.795,237.209 173.087 L 235.858 171.800 237.029 173.238 M245.190 193.119 L 245.383 195.000 245.519 193.447 C 245.593 192.593,245.507 191.747,245.326 191.566 C 245.145 191.385,245.084 192.084,245.190 193.119 M154.520 194.800 C 154.520 196.010,154.595 196.505,154.687 195.900 C 154.778 195.295,154.778 194.305,154.687 193.700 C 154.595 193.095,154.520 193.590,154.520 194.800 M154.520 205.200 C 154.520 206.410,154.595 206.905,154.687 206.300 C 154.778 205.695,154.778 204.705,154.687 204.100 C 154.595 203.495,154.520 203.990,154.520 205.200 M245.190 206.881 C 245.084 207.916,245.145 208.615,245.326 208.434 C 245.507 208.253,245.593 207.407,245.519 206.553 L 245.383 205.000 245.190 206.881 M237.000 226.917 C 235.472 228.982,229.061 235.397,226.822 237.100 C 225.882 237.815,225.243 238.400,225.402 238.400 C 226.627 238.400,238.994 226.016,238.352 225.433 C 238.268 225.357,237.660 226.025,237.000 226.917 M164.000 228.781 C 164.000 229.125,171.154 236.191,171.287 235.979 C 171.349 235.881,169.735 234.168,167.700 232.173 C 165.665 230.178,164.000 228.652,164.000 228.781 M173.087 237.209 C 173.795 237.951,174.442 238.478,174.525 238.379 C 174.608 238.281,174.029 237.673,173.238 237.029 L 171.800 235.858 173.087 237.209 M191.566 245.326 C 191.747 245.507,192.593 245.593,193.447 245.519 L 195.000 245.383 193.119 245.190 C 192.084 245.084,191.385 245.145,191.566 245.326 M206.800 245.200 L 205.000 245.480 206.676 245.540 C 207.598 245.573,208.464 245.420,208.600 245.200 C 208.736 244.980,208.792 244.827,208.724 244.860 C 208.656 244.893,207.790 245.046,206.800 245.200 " stroke="none" fill="#543c3c" fill-rule="evenodd"></path><path id="path3" d="M118.628 0.288 C 117.614 0.549,116.800 1.388,116.800 2.171 C 116.800 2.517,116.620 2.800,116.400 2.800 C 116.180 2.800,116.000 3.149,116.000 3.576 C 116.000 4.003,115.820 4.464,115.600 4.600 C 115.045 4.943,115.045 395.057,115.600 395.400 C 115.820 395.536,116.000 395.997,116.000 396.424 C 116.000 396.851,116.180 397.200,116.400 397.200 C 116.620 397.200,116.800 397.483,116.800 397.829 C 116.800 399.935,111.092 399.800,200.000 399.800 C 288.908 399.800,283.200 399.935,283.200 397.829 C 283.200 397.483,283.380 397.200,283.600 397.200 C 283.820 397.200,284.000 396.851,284.000 396.424 C 284.000 395.997,284.180 395.536,284.400 395.400 C 284.666 395.236,284.800 329.670,284.800 200.000 C 284.800 70.330,284.666 4.764,284.400 4.600 C 284.180 4.464,284.000 4.003,284.000 3.576 C 284.000 3.149,283.820 2.800,283.600 2.800 C 283.380 2.800,283.200 2.517,283.200 2.171 C 283.200 0.066,288.835 0.205,200.629 0.144 C 155.953 0.114,119.053 0.178,118.628 0.288 M271.102 199.800 C 271.198 375.074,271.163 386.631,270.526 387.100 C 269.635 387.756,130.798 387.841,129.574 387.186 C 128.788 386.766,128.284 13.849,129.068 13.066 C 129.215 12.918,161.210 12.843,200.168 12.899 L 271.000 13.000 271.102 199.800 M192.200 20.076 C 188.750 20.707,182.618 22.132,182.200 22.400 C 181.980 22.541,180.990 22.909,180.000 23.217 C 171.674 25.814,158.866 35.262,153.994 42.400 C 153.469 43.170,152.929 43.890,152.796 44.000 C 152.175 44.510,148.779 50.549,147.503 53.411 C 145.189 58.598,143.846 63.053,142.813 68.967 C 142.275 72.048,142.280 83.334,142.821 86.069 C 143.821 91.126,144.109 92.340,144.891 94.800 C 146.488 99.821,151.268 109.485,152.805 110.800 C 152.933 110.910,153.473 111.630,154.004 112.400 C 157.111 116.906,165.529 124.436,170.597 127.243 C 174.240 129.261,178.240 131.180,178.820 131.190 C 179.161 131.195,179.611 131.351,179.820 131.537 C 180.270 131.936,184.969 133.358,187.800 133.953 C 207.137 138.015,226.419 132.401,240.490 118.612 C 265.601 94.005,263.001 52.725,235.000 31.447 C 232.556 29.589,226.998 26.000,226.565 26.000 C 226.481 26.000,225.375 25.501,224.106 24.890 C 222.838 24.280,220.990 23.528,220.000 23.218 C 219.010 22.909,218.020 22.541,217.800 22.400 C 217.348 22.110,211.047 20.677,207.376 20.028 C 204.517 19.523,195.059 19.553,192.200 20.076 M208.600 31.598 C 208.820 31.764,209.540 32.001,210.200 32.125 C 212.985 32.649,214.694 33.126,216.200 33.802 C 221.426 36.145,225.157 38.175,227.595 40.000 C 229.544 41.460,236.800 48.771,236.800 49.276 C 236.800 49.513,237.126 49.997,237.525 50.353 C 239.161 51.813,243.600 59.883,243.600 61.398 C 243.600 61.703,243.780 62.064,244.000 62.200 C 244.220 62.336,244.400 62.876,244.400 63.400 C 244.400 63.924,244.560 64.452,244.756 64.573 C 245.733 65.177,247.265 80.495,246.431 81.329 C 246.194 81.566,246.000 82.883,246.000 84.256 C 246.000 85.629,245.820 86.864,245.600 87.000 C 245.380 87.136,245.200 87.610,245.200 88.053 C 245.200 89.919,240.786 100.691,239.649 101.600 C 239.511 101.710,239.144 102.295,238.832 102.900 C 238.520 103.505,238.115 104.000,237.932 104.000 C 237.750 104.000,237.600 104.245,237.600 104.544 C 237.600 105.232,228.061 114.800,227.375 114.800 C 227.096 114.800,226.807 114.942,226.733 115.114 C 226.049 116.728,217.614 120.694,210.800 122.606 C 205.456 124.106,195.001 124.096,189.200 122.585 C 184.261 121.300,177.026 118.237,175.996 116.995 C 175.724 116.668,175.282 116.400,175.013 116.400 C 174.744 116.400,174.198 116.040,173.800 115.600 C 173.402 115.160,172.876 114.800,172.631 114.800 C 171.816 114.800,163.268 105.840,161.376 103.001 C 158.891 99.275,156.751 94.867,155.646 91.200 C 155.149 89.550,154.575 87.647,154.371 86.972 C 154.167 86.296,154.000 84.822,154.000 83.695 C 154.000 82.569,153.820 81.536,153.600 81.400 C 153.380 81.264,153.200 79.644,153.200 77.800 C 153.200 75.956,153.380 74.336,153.600 74.200 C 153.820 74.064,154.000 72.624,154.000 71.000 C 154.000 69.376,154.180 67.936,154.400 67.800 C 154.620 67.664,154.800 67.190,154.800 66.747 C 154.800 63.966,160.241 52.343,162.474 50.353 C 162.873 49.997,163.200 49.526,163.200 49.306 C 163.200 48.844,171.099 40.800,171.553 40.800 C 171.720 40.800,172.443 40.276,173.161 39.635 C 173.879 38.994,175.036 38.237,175.733 37.952 C 176.430 37.667,177.254 37.185,177.564 36.881 C 177.874 36.578,179.134 35.880,180.364 35.331 C 181.594 34.781,183.230 34.051,184.000 33.708 C 185.313 33.123,186.520 32.783,189.400 32.188 C 190.060 32.051,190.960 31.776,191.400 31.575 C 193.001 30.846,207.627 30.865,208.600 31.598 M191.200 142.867 C 183.064 144.542,179.189 145.788,174.003 148.397 C 158.893 155.999,147.328 170.657,143.860 186.600 C 142.526 192.731,142.400 193.890,142.400 200.000 C 142.400 206.110,142.526 207.269,143.860 213.400 C 145.333 220.173,150.796 231.988,153.570 234.400 C 153.696 234.510,154.425 235.410,155.188 236.400 C 175.636 262.908,216.595 265.015,240.805 240.805 C 268.661 212.949,261.151 166.075,226.000 148.398 C 220.711 145.738,216.746 144.478,208.469 142.825 C 205.914 142.315,193.737 142.344,191.200 142.867 M205.400 154.251 C 207.160 154.365,208.771 154.625,208.980 154.829 C 209.189 155.033,209.943 155.200,210.656 155.200 C 211.369 155.200,212.064 155.380,212.200 155.600 C 212.336 155.820,212.971 156.000,213.611 156.000 C 214.252 156.000,215.417 156.360,216.200 156.800 C 216.983 157.240,217.858 157.600,218.144 157.600 C 218.759 157.600,222.144 159.274,223.119 160.060 C 223.494 160.362,224.430 160.952,225.200 161.371 C 229.529 163.729,237.363 171.745,239.009 175.500 C 239.419 176.435,239.883 177.200,240.041 177.200 C 240.396 177.200,242.400 181.165,242.400 181.866 C 242.400 182.146,242.760 183.017,243.200 183.800 C 243.640 184.583,244.000 185.748,244.000 186.389 C 244.000 187.029,244.180 187.664,244.400 187.800 C 244.620 187.936,244.800 188.631,244.800 189.344 C 244.800 190.057,244.967 190.811,245.171 191.020 C 245.375 191.229,245.635 192.840,245.749 194.600 C 245.862 196.360,246.075 198.672,246.221 199.737 C 246.389 200.966,246.324 201.836,246.043 202.117 C 245.795 202.365,245.600 203.924,245.600 205.656 C 245.600 207.359,245.420 208.864,245.200 209.000 C 244.980 209.136,244.800 209.856,244.800 210.600 C 244.800 211.344,244.620 212.064,244.400 212.200 C 244.180 212.336,244.000 212.971,244.000 213.611 C 244.000 214.252,243.640 215.417,243.200 216.200 C 242.760 216.983,242.400 217.858,242.400 218.144 C 242.400 218.770,240.985 221.563,239.488 223.892 C 238.889 224.823,238.400 225.698,238.400 225.837 C 238.400 226.996,226.996 238.400,225.837 238.400 C 225.698 238.400,224.823 238.889,223.892 239.488 C 221.563 240.985,218.770 242.400,218.144 242.400 C 217.858 242.400,216.983 242.760,216.200 243.200 C 215.417 243.640,214.252 244.000,213.611 244.000 C 212.971 244.000,212.336 244.180,212.200 244.400 C 212.064 244.620,211.344 244.800,210.600 244.800 C 209.856 244.800,209.136 244.980,209.000 245.200 C 208.864 245.420,207.359 245.600,205.656 245.600 C 203.924 245.600,202.365 245.795,202.117 246.043 C 201.836 246.324,200.966 246.389,199.737 246.221 C 198.672 246.075,196.360 245.862,194.600 245.749 C 192.840 245.635,191.229 245.375,191.020 245.171 C 190.811 244.967,190.057 244.800,189.344 244.800 C 188.631 244.800,187.936 244.620,187.800 244.400 C 187.664 244.180,187.029 244.000,186.389 244.000 C 185.748 244.000,184.583 243.640,183.800 243.200 C 183.017 242.760,182.146 242.400,181.866 242.400 C 181.165 242.400,177.200 240.396,177.200 240.041 C 177.200 239.883,176.435 239.419,175.500 239.009 C 171.745 237.363,163.729 229.529,161.371 225.200 C 160.952 224.430,160.362 223.494,160.060 223.119 C 159.274 222.144,157.600 218.759,157.600 218.144 C 157.600 217.858,157.240 216.983,156.800 216.200 C 156.360 215.417,156.000 214.252,156.000 213.611 C 156.000 212.971,155.820 212.336,155.600 212.200 C 155.380 212.064,155.200 211.369,155.200 210.656 C 155.200 209.943,155.033 209.189,154.829 208.980 C 154.625 208.771,154.367 207.160,154.256 205.400 C 154.145 203.640,153.932 201.419,153.782 200.465 C 153.610 199.370,153.674 198.566,153.955 198.285 C 154.210 198.030,154.400 196.432,154.400 194.544 C 154.400 192.731,154.580 191.136,154.800 191.000 C 155.020 190.864,155.200 190.144,155.200 189.400 C 155.200 188.656,155.380 187.936,155.600 187.800 C 155.820 187.664,156.000 187.029,156.000 186.389 C 156.000 185.748,156.323 184.634,156.719 183.912 C 157.114 183.190,157.683 181.835,157.983 180.900 C 158.283 179.965,158.679 179.200,158.864 179.200 C 159.049 179.200,159.200 178.840,159.200 178.400 C 159.200 177.960,159.377 177.600,159.594 177.600 C 159.811 177.600,160.528 176.530,161.188 175.223 C 161.848 173.916,162.634 172.701,162.936 172.523 C 163.237 172.345,163.706 171.775,163.979 171.256 C 164.623 170.031,170.031 164.623,171.256 163.979 C 171.775 163.706,172.345 163.237,172.523 162.936 C 172.701 162.634,173.916 161.848,175.223 161.188 C 176.530 160.528,177.600 159.811,177.600 159.594 C 177.600 159.377,177.960 159.200,178.400 159.200 C 178.840 159.200,179.200 159.049,179.200 158.864 C 179.200 158.679,179.965 158.283,180.900 157.983 C 181.835 157.683,183.190 157.114,183.912 156.719 C 184.634 156.323,185.748 156.000,186.389 156.000 C 187.029 156.000,187.664 155.820,187.800 155.600 C 187.936 155.380,188.656 155.200,189.400 155.200 C 190.144 155.200,190.864 155.020,191.000 154.800 C 191.136 154.580,192.756 154.400,194.600 154.400 C 196.591 154.400,198.062 154.223,198.223 153.963 C 198.394 153.686,199.168 153.621,200.346 153.786 C 201.366 153.928,203.640 154.138,205.400 154.251 M192.000 265.282 C 176.202 267.990,161.721 276.494,153.996 287.600 C 153.460 288.370,152.878 289.180,152.703 289.400 C 150.299 292.415,147.103 298.817,145.244 304.342 C 144.141 307.620,143.812 308.921,142.821 313.931 C 142.590 315.102,142.400 319.004,142.400 322.600 C 142.400 328.708,142.551 330.224,143.678 335.400 C 147.687 353.820,162.479 370.676,180.000 376.792 C 180.770 377.061,181.760 377.428,182.200 377.607 C 183.065 377.960,184.106 378.251,186.600 378.839 C 193.994 380.583,206.066 380.727,212.200 379.146 C 217.982 377.656,219.676 377.141,220.180 376.718 C 220.389 376.543,220.802 376.400,221.099 376.400 C 221.395 376.400,223.257 375.601,225.238 374.624 C 268.630 353.222,268.490 291.664,225.000 270.438 C 215.638 265.868,201.482 263.657,192.000 265.282 M203.684 276.833 C 211.271 277.631,221.398 280.829,223.196 282.995 C 223.472 283.328,223.868 283.600,224.077 283.600 C 226.248 283.600,236.581 293.847,239.203 298.600 C 239.688 299.480,240.245 300.397,240.439 300.637 C 241.392 301.812,244.070 309.018,244.738 312.200 C 245.849 317.496,246.000 318.755,246.000 322.706 C 246.000 340.100,236.205 355.636,220.116 363.763 C 218.116 364.773,216.202 365.600,215.863 365.600 C 215.524 365.600,215.149 365.759,215.030 365.952 C 214.812 366.304,214.198 366.491,210.800 367.240 C 205.182 368.478,193.989 368.706,190.600 367.651 C 189.940 367.445,188.050 366.867,186.400 366.366 C 171.345 361.792,158.290 347.810,155.249 333.000 C 155.023 331.900,154.633 330.010,154.381 328.800 C 152.887 321.604,155.289 308.359,159.388 301.200 C 159.703 300.650,160.347 299.499,160.818 298.642 C 161.290 297.785,162.109 296.616,162.638 296.046 C 163.167 295.475,163.600 294.865,163.600 294.691 C 163.600 293.514,172.489 285.428,175.800 283.593 C 176.680 283.105,177.850 282.399,178.400 282.023 C 178.950 281.647,180.030 281.107,180.800 280.823 C 181.570 280.539,182.829 280.028,183.597 279.688 C 185.950 278.647,190.391 277.592,194.800 277.026 C 197.110 276.729,199.128 276.467,199.284 276.443 C 199.441 276.420,201.421 276.595,203.684 276.833 " stroke="none" fill="#241c24" fill-rule="evenodd"></path><path id="path4" d="M194.681 277.852 C 194.512 278.022,193.434 278.292,192.286 278.453 C 187.211 279.163,180.547 281.808,175.437 285.139 C 169.441 289.049,163.624 295.395,160.718 301.200 C 160.002 302.630,159.307 303.890,159.173 304.000 C 159.039 304.110,158.824 304.560,158.695 305.000 C 158.566 305.440,158.005 307.064,157.448 308.608 C 155.248 314.715,154.313 327.905,155.894 330.542 C 156.007 330.730,156.182 331.540,156.282 332.342 C 156.521 334.240,157.797 338.079,159.493 342.000 C 161.450 346.522,167.695 354.334,171.822 357.420 C 172.690 358.069,173.710 358.879,174.090 359.221 C 174.470 359.562,175.550 360.261,176.490 360.774 C 180.954 363.210,182.510 364.000,182.845 364.000 C 183.045 364.000,183.972 364.333,184.904 364.740 C 193.177 368.352,206.329 368.336,215.400 364.702 C 217.909 363.697,222.534 361.523,222.800 361.224 C 222.910 361.100,223.540 360.729,224.200 360.400 C 224.860 360.071,225.490 359.709,225.600 359.595 C 225.710 359.482,226.790 358.594,228.000 357.622 C 233.009 353.598,238.521 346.707,240.495 342.000 C 242.183 337.977,242.756 336.455,243.134 335.000 C 245.400 326.272,245.572 321.890,243.974 313.600 C 243.179 309.474,240.754 302.816,239.919 302.467 C 239.743 302.393,239.600 302.064,239.600 301.735 C 239.600 299.979,229.022 287.200,227.569 287.200 C 227.398 287.200,227.014 286.975,226.718 286.700 C 224.951 285.062,217.939 281.287,215.000 280.391 C 214.120 280.123,213.229 279.745,213.020 279.552 C 212.811 279.358,212.172 279.200,211.600 279.200 C 211.028 279.200,210.389 279.037,210.180 278.839 C 209.395 278.092,195.336 277.197,194.681 277.852 " stroke="none" fill="#444c3c" fill-rule="evenodd"></path><path id="path5" d="M199.300 154.276 C 199.685 154.376,200.315 154.376,200.700 154.276 C 201.085 154.175,200.770 154.093,200.000 154.093 C 199.230 154.093,198.915 154.175,199.300 154.276 M167.591 167.900 L 164.200 171.400 167.700 168.009 C 170.951 164.859,171.382 164.400,171.091 164.400 C 171.031 164.400,169.456 165.975,167.591 167.900 M230.000 165.800 C 230.746 166.570,231.447 167.200,231.557 167.200 C 231.667 167.200,231.146 166.570,230.400 165.800 C 229.654 165.030,228.953 164.400,228.843 164.400 C 228.733 164.400,229.254 165.030,230.000 165.800 M234.000 169.800 C 234.746 170.570,235.447 171.200,235.557 171.200 C 235.667 171.200,235.146 170.570,234.400 169.800 C 233.654 169.030,232.953 168.400,232.843 168.400 C 232.733 168.400,233.254 169.030,234.000 169.800 M245.309 196.400 C 245.309 197.390,245.387 197.795,245.482 197.300 C 245.578 196.805,245.578 195.995,245.482 195.500 C 245.387 195.005,245.309 195.410,245.309 196.400 M154.093 200.000 C 154.093 200.770,154.175 201.085,154.276 200.700 C 154.376 200.315,154.376 199.685,154.276 199.300 C 154.175 198.915,154.093 199.230,154.093 200.000 M245.701 200.200 C 245.705 201.080,245.787 201.393,245.883 200.895 C 245.979 200.398,245.975 199.678,245.875 199.295 C 245.775 198.913,245.696 199.320,245.701 200.200 M245.309 203.600 C 245.309 204.590,245.387 204.995,245.482 204.500 C 245.578 204.005,245.578 203.195,245.482 202.700 C 245.387 202.205,245.309 202.610,245.309 203.600 M165.600 230.200 C 166.346 230.970,167.047 231.600,167.157 231.600 C 167.267 231.600,166.746 230.970,166.000 230.200 C 165.254 229.430,164.553 228.800,164.443 228.800 C 164.333 228.800,164.854 229.430,165.600 230.200 M169.600 234.200 C 170.346 234.970,171.047 235.600,171.157 235.600 C 171.267 235.600,170.746 234.970,170.000 234.200 C 169.254 233.430,168.553 232.800,168.443 232.800 C 168.333 232.800,168.854 233.430,169.600 234.200 M195.500 245.482 C 195.995 245.578,196.805 245.578,197.300 245.482 C 197.795 245.387,197.390 245.309,196.400 245.309 C 195.410 245.309,195.005 245.387,195.500 245.482 M202.700 245.482 C 203.195 245.578,204.005 245.578,204.500 245.482 C 204.995 245.387,204.590 245.309,203.600 245.309 C 202.610 245.309,202.205 245.387,202.700 245.482 M199.505 245.883 C 200.002 245.979,200.722 245.975,201.105 245.875 C 201.487 245.775,201.080 245.696,200.200 245.701 C 199.320 245.705,199.007 245.787,199.505 245.883 " stroke="none" fill="#865e34" fill-rule="evenodd"></path><path id="path6" d="" stroke="none" fill="#9c6c34" fill-rule="evenodd"></path><path id="path7" d="M129.068 13.066 C 128.284 13.849,128.788 386.766,129.574 387.186 C 130.798 387.841,269.635 387.756,270.526 387.100 C 271.163 386.631,271.198 375.074,271.102 199.800 L 271.000 13.000 200.168 12.899 C 161.210 12.843,129.215 12.918,129.068 13.066 M270.800 200.000 L 270.800 386.400 200.000 386.400 L 129.200 386.400 129.200 200.000 L 129.200 13.600 200.000 13.600 L 270.800 13.600 270.800 200.000 M190.600 19.684 C 185.844 20.575,181.587 21.788,179.505 22.847 C 179.123 23.041,178.448 23.200,178.005 23.200 C 177.562 23.200,177.200 23.380,177.200 23.600 C 177.200 23.820,176.840 24.000,176.400 24.000 C 175.960 24.000,175.600 24.180,175.600 24.400 C 175.600 24.620,175.335 24.800,175.012 24.800 C 174.689 24.800,173.744 25.188,172.912 25.662 C 172.080 26.135,170.738 26.882,169.928 27.321 C 165.202 29.882,156.669 37.555,153.604 42.000 C 153.073 42.770,152.518 43.490,152.371 43.600 C 151.796 44.030,148.717 49.389,147.364 52.315 C 146.579 54.012,145.771 55.713,145.569 56.095 C 145.366 56.477,145.200 57.141,145.200 57.571 C 145.200 58.001,145.041 58.451,144.848 58.570 C 144.654 58.690,144.376 59.286,144.230 59.894 C 144.084 60.502,143.781 61.720,143.557 62.600 C 142.083 68.392,141.496 75.850,142.006 82.300 C 142.482 88.316,142.793 90.506,143.241 90.980 C 143.438 91.189,143.600 91.717,143.600 92.153 C 143.600 93.482,145.164 97.856,147.193 102.200 C 150.863 110.061,157.292 118.312,163.200 122.745 C 163.970 123.323,164.690 123.900,164.800 124.028 C 165.249 124.549,169.984 127.600,170.345 127.600 C 170.558 127.600,170.793 127.737,170.867 127.904 C 170.982 128.166,176.676 131.056,179.000 132.032 C 190.775 136.974,209.102 136.976,221.000 132.035 C 224.120 130.740,228.317 128.705,228.905 128.202 C 229.292 127.871,229.707 127.600,229.827 127.600 C 231.491 127.600,240.565 119.858,245.062 114.600 C 248.842 110.180,254.800 99.671,254.800 97.423 C 254.800 97.106,254.959 96.749,255.152 96.630 C 255.346 96.510,255.624 95.914,255.770 95.306 C 255.916 94.698,256.219 93.480,256.443 92.600 C 258.575 84.220,258.776 65.955,256.759 63.820 C 256.562 63.611,256.400 62.882,256.400 62.200 C 256.400 61.518,256.257 60.789,256.082 60.580 C 255.907 60.371,255.535 59.480,255.255 58.600 C 253.852 54.182,249.032 44.665,247.658 43.600 C 247.516 43.490,246.957 42.770,246.415 42.001 C 243.646 38.069,237.960 32.573,233.569 29.583 C 229.909 27.091,224.256 24.000,223.359 24.000 C 223.052 24.000,222.800 23.859,222.800 23.687 C 222.800 23.515,221.945 23.125,220.900 22.820 C 219.855 22.515,218.730 22.133,218.400 21.972 C 217.397 21.481,212.567 20.284,208.976 19.637 C 206.098 19.118,193.451 19.151,190.600 19.684 M207.376 20.028 C 211.047 20.677,217.348 22.110,217.800 22.400 C 218.020 22.541,219.010 22.909,220.000 23.218 C 220.990 23.528,222.838 24.280,224.106 24.890 C 225.375 25.501,226.481 26.000,226.565 26.000 C 226.998 26.000,232.556 29.589,235.000 31.447 C 263.001 52.725,265.601 94.005,240.490 118.612 C 225.148 133.646,203.820 138.874,183.000 132.703 C 181.460 132.247,180.029 131.722,179.820 131.537 C 179.611 131.351,179.161 131.195,178.820 131.190 C 178.240 131.180,174.240 129.261,170.597 127.243 C 165.529 124.436,157.111 116.906,154.004 112.400 C 153.473 111.630,152.933 110.910,152.805 110.800 C 151.268 109.485,146.488 99.821,144.891 94.800 C 144.109 92.340,143.821 91.126,142.821 86.069 C 141.508 79.429,142.544 67.379,145.096 59.600 C 146.765 54.513,151.378 45.166,152.796 44.000 C 152.929 43.890,153.469 43.170,153.994 42.400 C 158.866 35.262,171.674 25.814,180.000 23.217 C 180.990 22.909,181.980 22.541,182.200 22.400 C 182.618 22.132,188.750 20.707,192.200 20.076 C 195.059 19.553,204.517 19.523,207.376 20.028 M195.000 31.069 C 193.460 31.147,191.840 31.375,191.400 31.575 C 190.960 31.776,190.060 32.051,189.400 32.188 C 186.520 32.783,185.313 33.123,184.000 33.708 C 183.230 34.051,181.594 34.781,180.364 35.331 C 179.134 35.880,177.874 36.578,177.564 36.881 C 177.254 37.185,176.430 37.667,175.733 37.952 C 175.036 38.237,173.879 38.994,173.161 39.635 C 172.443 40.276,171.720 40.800,171.553 40.800 C 171.099 40.800,163.200 48.844,163.200 49.306 C 163.200 49.526,162.873 49.997,162.474 50.353 C 160.241 52.343,154.800 63.966,154.800 66.747 C 154.800 67.190,154.620 67.664,154.400 67.800 C 154.180 67.936,154.000 69.376,154.000 71.000 C 154.000 72.624,153.820 74.064,153.600 74.200 C 153.380 74.336,153.200 75.956,153.200 77.800 C 153.200 79.644,153.380 81.264,153.600 81.400 C 153.820 81.536,154.000 82.569,154.000 83.695 C 154.000 84.822,154.167 86.296,154.371 86.972 C 154.575 87.647,155.149 89.550,155.646 91.200 C 156.751 94.867,158.891 99.275,161.376 103.001 C 163.268 105.840,171.816 114.800,172.631 114.800 C 172.876 114.800,173.402 115.160,173.800 115.600 C 174.198 116.040,174.744 116.400,175.013 116.400 C 175.282 116.400,175.724 116.668,175.996 116.995 C 177.026 118.237,184.261 121.300,189.200 122.585 C 195.001 124.096,205.456 124.106,210.800 122.606 C 217.614 120.694,226.049 116.728,226.733 115.114 C 226.807 114.942,227.096 114.800,227.375 114.800 C 228.061 114.800,237.600 105.232,237.600 104.544 C 237.600 104.245,237.750 104.000,237.932 104.000 C 238.115 104.000,238.520 103.505,238.832 102.900 C 239.144 102.295,239.511 101.710,239.649 101.600 C 240.786 100.691,245.200 89.919,245.200 88.053 C 245.200 87.610,245.380 87.136,245.600 87.000 C 245.820 86.864,246.000 85.629,246.000 84.256 C 246.000 82.883,246.194 81.566,246.431 81.329 C 247.265 80.495,245.733 65.177,244.756 64.573 C 244.560 64.452,244.400 63.924,244.400 63.400 C 244.400 62.876,244.220 62.336,244.000 62.200 C 243.780 62.064,243.600 61.703,243.600 61.398 C 243.600 59.883,239.161 51.813,237.525 50.353 C 237.126 49.997,236.800 49.513,236.800 49.276 C 236.800 48.771,229.544 41.460,227.595 40.000 C 225.157 38.175,221.426 36.145,216.200 33.802 C 214.694 33.126,212.985 32.649,210.200 32.125 C 209.540 32.001,208.820 31.764,208.600 31.598 C 208.113 31.232,198.873 30.872,195.000 31.069 M204.671 32.413 C 219.359 34.353,229.871 40.829,238.309 53.136 C 255.176 77.737,240.410 114.604,211.000 121.319 C 205.436 122.590,203.876 122.800,200.069 122.793 C 181.403 122.757,164.431 111.068,157.683 93.600 C 150.509 75.030,156.721 53.296,172.600 41.414 C 181.977 34.397,194.046 31.010,204.671 32.413 M194.000 142.028 C 189.085 142.499,187.051 142.833,186.620 143.241 C 186.411 143.438,185.657 143.600,184.944 143.600 C 184.231 143.600,183.536 143.780,183.400 144.000 C 183.264 144.220,182.801 144.400,182.371 144.400 C 181.941 144.400,181.232 144.580,180.795 144.800 C 180.358 145.020,179.642 145.380,179.205 145.600 C 178.768 145.820,178.242 146.000,178.037 146.000 C 177.433 146.000,172.432 148.469,169.400 150.265 C 162.793 154.176,154.176 162.793,150.265 169.400 C 148.469 172.432,146.000 177.433,146.000 178.037 C 146.000 178.242,145.820 178.768,145.600 179.205 C 145.380 179.642,145.020 180.358,144.800 180.795 C 144.580 181.232,144.400 181.941,144.400 182.371 C 144.400 182.801,144.220 183.264,144.000 183.400 C 143.780 183.536,143.600 184.231,143.600 184.944 C 143.600 185.657,143.438 186.411,143.241 186.620 C 141.500 188.463,141.500 211.537,143.241 213.380 C 143.438 213.589,143.600 214.343,143.600 215.056 C 143.600 215.769,143.780 216.464,144.000 216.600 C 144.220 216.736,144.400 217.199,144.400 217.629 C 144.400 218.384,144.544 218.774,145.538 220.695 C 145.792 221.187,146.000 221.768,146.000 221.987 C 146.000 225.108,155.594 238.962,160.690 243.200 C 161.880 244.190,163.191 245.312,163.603 245.694 C 165.632 247.571,172.821 251.821,176.863 253.532 C 181.885 255.659,183.021 256.014,190.000 257.639 C 191.390 257.963,195.072 258.152,200.000 258.152 C 207.393 258.152,208.445 258.044,213.800 256.736 C 235.196 251.512,251.512 235.196,256.736 213.800 C 258.044 208.445,258.152 207.393,258.152 200.000 C 258.152 192.607,258.044 191.555,256.736 186.200 C 254.693 177.829,250.208 168.699,245.600 163.527 C 245.270 163.157,244.191 161.883,243.203 160.697 C 238.883 155.512,225.182 146.000,222.034 146.000 C 221.789 146.000,221.232 145.820,220.795 145.600 C 220.358 145.380,219.642 145.020,219.205 144.800 C 218.768 144.580,218.059 144.400,217.629 144.400 C 217.199 144.400,216.736 144.220,216.600 144.000 C 216.464 143.780,215.744 143.600,215.000 143.600 C 214.256 143.600,213.536 143.420,213.400 143.200 C 213.264 142.980,212.522 142.800,211.750 142.800 C 210.979 142.800,210.044 142.641,209.674 142.447 C 208.693 141.934,197.970 141.647,194.000 142.028 M208.469 142.825 C 216.746 144.478,220.711 145.738,226.000 148.398 C 237.069 153.964,246.155 163.041,251.618 173.987 C 266.984 204.782,252.408 242.062,220.273 254.158 C 197.310 262.801,169.754 255.283,155.188 236.400 C 154.425 235.410,153.696 234.510,153.570 234.400 C 150.796 231.988,145.333 220.173,143.860 213.400 C 142.526 207.269,142.400 206.110,142.400 200.000 C 142.400 193.890,142.526 192.731,143.860 186.600 C 147.328 170.657,158.893 155.999,174.003 148.397 C 179.189 145.788,183.064 144.542,191.200 142.867 C 193.737 142.344,205.914 142.315,208.469 142.825 M198.252 153.916 C 198.144 154.090,198.718 154.167,199.528 154.087 C 201.742 153.869,202.005 153.667,200.124 153.632 C 199.202 153.614,198.359 153.742,198.252 153.916 M225.800 161.857 C 227.837 163.664,228.587 164.191,227.802 163.263 C 227.366 162.748,226.647 162.141,226.204 161.914 C 225.762 161.687,225.580 161.662,225.800 161.857 M236.000 171.458 C 236.000 171.674,236.585 172.379,237.300 173.025 L 238.600 174.200 237.400 172.802 C 236.740 172.033,236.155 171.328,236.100 171.235 C 236.045 171.143,236.000 171.243,236.000 171.458 M153.759 198.562 C 153.641 198.871,153.607 199.726,153.683 200.462 C 153.806 201.635,153.847 201.566,154.015 199.900 C 154.211 197.952,154.139 197.574,153.759 198.562 M245.993 200.281 C 245.887 201.425,245.947 202.215,246.126 202.035 C 246.305 201.856,246.391 200.919,246.318 199.954 L 246.185 198.200 245.993 200.281 M161.914 226.204 C 162.141 226.647,162.748 227.366,163.263 227.802 C 164.167 228.566,164.165 228.552,163.206 227.397 C 161.613 225.479,161.479 225.355,161.914 226.204 M232.391 232.700 L 229.000 236.200 232.500 232.809 C 235.751 229.659,236.182 229.200,235.891 229.200 C 235.831 229.200,234.256 230.775,232.391 232.700 M171.235 236.100 C 171.328 236.155,172.033 236.740,172.802 237.400 L 174.200 238.600 173.025 237.300 C 172.379 236.585,171.674 236.000,171.458 236.000 C 171.243 236.000,171.143 236.045,171.235 236.100 M200.200 246.000 L 198.200 246.274 200.076 246.337 C 201.108 246.372,202.064 246.220,202.200 246.000 C 202.336 245.780,202.392 245.628,202.324 245.663 C 202.256 245.697,201.300 245.849,200.200 246.000 M194.000 264.460 C 189.817 264.896,182.754 266.554,179.459 267.874 C 176.086 269.226,171.029 271.705,170.867 272.086 C 170.793 272.259,170.558 272.400,170.345 272.400 C 169.984 272.400,165.249 275.451,164.800 275.972 C 164.690 276.100,163.948 276.690,163.150 277.284 C 155.803 282.756,147.949 294.134,144.569 304.200 C 143.931 306.100,143.697 307.001,142.751 311.200 C 141.423 317.092,141.767 334.620,143.241 336.180 C 143.438 336.389,143.603 336.929,143.606 337.380 C 143.613 338.292,144.499 341.033,144.926 341.459 C 145.077 341.610,145.200 342.066,145.200 342.472 C 145.200 342.878,145.363 343.523,145.562 343.905 C 145.760 344.287,146.545 345.950,147.304 347.600 C 148.612 350.442,151.794 355.969,152.371 356.400 C 152.518 356.510,153.078 357.228,153.614 357.995 C 154.457 359.200,156.749 361.833,158.812 363.967 C 161.281 366.519,167.122 371.064,170.102 372.752 C 170.926 373.218,172.235 373.960,173.012 374.400 C 173.789 374.840,174.689 375.200,175.012 375.200 C 175.335 375.200,175.600 375.380,175.600 375.600 C 175.600 375.820,175.960 376.000,176.400 376.000 C 176.840 376.000,177.200 376.141,177.200 376.313 C 177.200 376.485,178.055 376.871,179.100 377.171 C 180.145 377.471,181.180 377.846,181.400 378.004 C 181.620 378.163,182.340 378.415,183.000 378.564 C 183.660 378.714,184.920 379.019,185.800 379.243 C 189.138 380.092,191.538 380.447,195.800 380.719 C 201.742 381.098,212.526 380.367,213.031 379.550 C 213.150 379.357,213.856 379.200,214.600 379.200 C 215.344 379.200,216.064 379.020,216.200 378.800 C 216.336 378.580,216.876 378.400,217.400 378.400 C 217.924 378.400,218.442 378.256,218.551 378.079 C 218.660 377.903,219.661 377.510,220.775 377.207 C 221.889 376.904,222.800 376.508,222.800 376.328 C 222.800 376.147,223.045 376.000,223.344 376.000 C 224.001 376.000,228.945 373.524,229.133 373.100 C 229.207 372.935,229.446 372.800,229.665 372.800 C 229.885 372.800,231.661 371.707,233.612 370.370 C 242.627 364.195,250.426 354.216,254.455 343.700 C 255.025 342.212,255.476 341.061,255.950 339.881 C 256.198 339.266,256.400 338.267,256.400 337.661 C 256.400 337.056,256.562 336.389,256.759 336.180 C 258.534 334.301,258.534 310.899,256.759 309.020 C 256.562 308.811,256.400 308.233,256.400 307.735 C 256.400 306.959,255.565 304.279,254.427 301.400 C 250.691 291.953,243.837 282.567,236.800 277.260 C 236.030 276.680,235.310 276.100,235.200 275.972 C 234.751 275.451,230.016 272.400,229.655 272.400 C 229.442 272.400,229.207 272.259,229.133 272.086 C 229.060 271.914,227.830 271.179,226.400 270.453 C 216.594 265.475,204.945 263.320,194.000 264.460 M207.554 265.241 C 257.388 273.545,275.309 332.371,238.229 365.930 C 233.782 369.955,223.236 376.400,221.099 376.400 C 220.802 376.400,220.389 376.543,220.180 376.718 C 219.676 377.141,217.982 377.656,212.200 379.146 C 207.752 380.293,195.837 380.593,190.800 379.685 C 186.969 378.995,183.616 378.185,182.200 377.607 C 181.760 377.428,180.770 377.061,180.000 376.792 C 162.479 370.676,147.687 353.820,143.678 335.400 C 142.551 330.224,142.400 328.708,142.400 322.600 C 142.400 319.004,142.590 315.102,142.821 313.931 C 143.812 308.921,144.141 307.620,145.244 304.342 C 147.103 298.817,150.299 292.415,152.703 289.400 C 152.878 289.180,153.460 288.370,153.996 287.600 C 160.637 278.052,173.871 269.419,186.400 266.462 C 193.491 264.788,201.918 264.302,207.554 265.241 M194.800 277.026 C 190.391 277.592,185.950 278.647,183.597 279.688 C 182.829 280.028,181.570 280.539,180.800 280.823 C 180.030 281.107,178.950 281.647,178.400 282.023 C 177.850 282.399,176.680 283.105,175.800 283.593 C 172.489 285.428,163.600 293.514,163.600 294.691 C 163.600 294.865,163.167 295.475,162.638 296.046 C 162.109 296.616,161.290 297.785,160.818 298.642 C 160.347 299.499,159.703 300.650,159.388 301.200 C 155.289 308.359,152.887 321.604,154.381 328.800 C 154.633 330.010,155.023 331.900,155.249 333.000 C 158.290 347.810,171.345 361.792,186.400 366.366 C 188.050 366.867,189.940 367.445,190.600 367.651 C 193.989 368.706,205.182 368.478,210.800 367.240 C 214.198 366.491,214.812 366.304,215.030 365.952 C 215.149 365.759,215.524 365.600,215.863 365.600 C 216.746 365.600,223.323 362.216,226.177 360.293 C 230.926 357.093,237.493 349.979,239.924 345.400 C 244.140 337.460,246.000 330.512,246.000 322.706 C 246.000 318.755,245.849 317.496,244.738 312.200 C 244.070 309.018,241.392 301.812,240.439 300.637 C 240.245 300.397,239.688 299.480,239.203 298.600 C 236.581 293.847,226.248 283.600,224.077 283.600 C 223.868 283.600,223.472 283.328,223.196 282.995 C 221.077 280.442,203.909 275.738,199.284 276.443 C 199.128 276.467,197.110 276.729,194.800 277.026 M204.800 277.778 C 221.394 278.980,237.147 291.455,242.710 307.800 C 243.484 310.076,243.796 311.361,244.779 316.331 C 245.317 319.055,245.323 326.683,244.789 329.123 C 244.562 330.155,244.186 331.900,243.952 333.000 C 243.422 335.493,242.128 339.354,241.205 341.200 C 240.820 341.970,240.259 343.140,239.958 343.800 C 237.803 348.529,227.556 359.951,225.431 359.993 C 225.229 359.997,224.779 360.251,224.431 360.559 C 218.528 365.784,202.785 368.904,191.904 367.007 C 186.535 366.071,177.981 362.694,175.569 360.559 C 175.221 360.251,174.802 360.000,174.637 360.000 C 172.376 360.000,159.600 345.396,159.600 342.811 C 159.600 342.627,159.255 341.784,158.834 340.938 C 153.451 330.131,153.597 314.628,159.190 303.200 C 160.368 300.794,162.740 296.718,163.148 296.400 C 163.289 296.290,163.889 295.550,164.480 294.756 C 172.281 284.281,189.231 276.207,200.800 277.454 C 201.350 277.513,203.150 277.659,204.800 277.778 " stroke="none" fill="#343434" fill-rule="evenodd"></path><path id="path8" d="M199.100 154.682 C 199.595 154.778,200.405 154.778,200.900 154.682 C 201.395 154.587,200.990 154.509,200.000 154.509 C 199.010 154.509,198.605 154.587,199.100 154.682 M192.800 155.217 C 191.935 155.409,192.546 155.446,194.400 155.312 C 196.050 155.193,197.475 155.029,197.567 154.948 C 197.858 154.690,194.257 154.893,192.800 155.217 M202.833 154.951 C 202.925 155.034,204.260 155.202,205.800 155.326 C 207.952 155.498,208.230 155.469,207.000 155.198 C 205.383 154.842,202.526 154.673,202.833 154.951 M189.000 156.000 C 188.496 156.217,188.422 156.344,188.800 156.344 C 189.130 156.344,189.760 156.189,190.200 156.000 C 190.704 155.783,190.778 155.656,190.400 155.656 C 190.070 155.656,189.440 155.811,189.000 156.000 M209.800 156.000 C 210.240 156.189,210.870 156.344,211.200 156.344 C 211.578 156.344,211.504 156.217,211.000 156.000 C 210.560 155.811,209.930 155.656,209.600 155.656 C 209.222 155.656,209.296 155.783,209.800 156.000 M186.000 156.800 C 185.176 157.064,185.141 157.126,185.800 157.154 C 186.240 157.173,186.870 157.013,187.200 156.800 C 187.901 156.347,187.414 156.347,186.000 156.800 M213.000 156.800 C 213.440 156.989,214.070 157.144,214.400 157.144 C 214.778 157.144,214.704 157.017,214.200 156.800 C 213.760 156.611,213.130 156.456,212.800 156.456 C 212.422 156.456,212.496 156.583,213.000 156.800 M177.700 160.446 C 176.337 161.319,175.895 161.906,177.100 161.243 C 178.018 160.739,179.456 159.627,179.200 159.619 C 179.090 159.616,178.415 159.988,177.700 160.446 M173.355 163.235 C 171.431 164.763,171.173 165.036,172.200 164.460 C 173.213 163.891,175.481 162.005,175.155 162.002 C 175.020 162.001,174.210 162.556,173.355 163.235 M167.791 168.100 L 164.600 171.400 167.900 168.209 C 169.715 166.455,171.200 164.970,171.200 164.909 C 171.200 164.618,170.754 165.035,167.791 168.100 M231.800 168.000 C 233.550 169.760,235.071 171.200,235.181 171.200 C 235.291 171.200,233.950 169.760,232.200 168.000 C 230.450 166.240,228.929 164.800,228.819 164.800 C 228.709 164.800,230.050 166.240,231.800 168.000 M163.575 172.900 C 162.132 174.731,161.703 175.640,162.961 174.200 C 163.978 173.038,164.947 171.600,164.714 171.600 C 164.651 171.600,164.139 172.185,163.575 172.900 M238.200 176.000 C 238.541 176.660,238.911 177.200,239.021 177.200 C 239.131 177.200,238.941 176.660,238.600 176.000 C 238.259 175.340,237.889 174.800,237.779 174.800 C 237.669 174.800,237.859 175.340,238.200 176.000 M160.953 176.900 C 159.576 179.236,159.486 179.435,160.187 178.600 C 161.000 177.632,161.700 176.400,161.438 176.400 C 161.333 176.400,161.115 176.625,160.953 176.900 M156.846 185.667 C 156.821 186.034,156.696 186.664,156.570 187.067 C 156.352 187.762,156.363 187.763,156.797 187.087 C 157.048 186.696,157.173 186.066,157.073 185.687 C 156.911 185.068,156.888 185.066,156.846 185.667 M155.829 189.429 C 155.681 190.015,155.638 190.572,155.732 190.666 C 155.827 190.760,156.024 190.358,156.171 189.771 C 156.319 189.185,156.362 188.628,156.268 188.534 C 156.173 188.440,155.976 188.842,155.829 189.429 M244.447 192.433 C 244.473 193.185,244.641 194.340,244.820 195.000 C 245.035 195.789,245.070 195.378,244.923 193.800 C 244.677 191.155,244.373 190.281,244.447 192.433 M154.992 194.138 C 154.839 195.569,154.793 196.978,154.890 197.270 C 154.987 197.561,155.190 196.468,155.342 194.841 C 155.493 193.214,155.539 191.805,155.443 191.710 C 155.348 191.615,155.145 192.708,154.992 194.138 M154.509 200.000 C 154.509 200.990,154.587 201.395,154.682 200.900 C 154.778 200.405,154.778 199.595,154.682 199.100 C 154.587 198.605,154.509 199.010,154.509 200.000 M245.309 200.000 C 245.309 200.990,245.387 201.395,245.482 200.900 C 245.578 200.405,245.578 199.595,245.482 199.100 C 245.387 198.605,245.309 199.010,245.309 200.000 M154.823 204.033 C 154.836 204.785,155.005 206.120,155.198 207.000 C 155.469 208.230,155.498 207.952,155.326 205.800 C 155.087 202.820,154.785 201.758,154.823 204.033 M244.585 206.185 C 244.430 207.423,244.393 208.527,244.503 208.637 C 244.613 208.747,244.830 207.823,244.985 206.585 C 245.139 205.346,245.176 204.243,245.066 204.133 C 244.956 204.023,244.739 204.946,244.585 206.185 M155.656 209.600 C 155.656 209.930,155.811 210.560,156.000 211.000 C 156.217 211.504,156.344 211.578,156.344 211.200 C 156.344 210.870,156.189 210.240,156.000 209.800 C 155.783 209.296,155.656 209.222,155.656 209.600 M243.849 210.215 C 243.712 210.573,243.615 211.166,243.634 211.533 C 243.653 211.900,243.827 211.669,244.021 211.020 C 244.398 209.758,244.265 209.133,243.849 210.215 M156.456 212.800 C 156.456 213.130,156.611 213.760,156.800 214.200 C 157.017 214.704,157.144 214.778,157.144 214.400 C 157.144 214.070,156.989 213.440,156.800 213.000 C 156.583 212.496,156.456 212.422,156.456 212.800 M231.794 231.819 C 229.591 234.079,228.061 235.780,228.394 235.599 C 229.134 235.198,236.000 228.204,236.000 227.852 C 236.000 227.492,236.170 227.332,231.794 231.819 M167.800 232.000 C 169.550 233.760,171.071 235.200,171.181 235.200 C 171.291 235.200,169.950 233.760,168.200 232.000 C 166.450 230.240,164.929 228.800,164.819 228.800 C 164.709 228.800,166.050 230.240,167.800 232.000 M174.800 237.779 C 174.800 237.889,175.340 238.259,176.000 238.600 C 176.660 238.941,177.200 239.131,177.200 239.021 C 177.200 238.911,176.660 238.541,176.000 238.200 C 175.340 237.859,174.800 237.669,174.800 237.779 M210.000 244.018 C 209.562 244.315,209.724 244.352,210.600 244.156 C 212.071 243.827,212.390 243.598,211.367 243.606 C 210.945 243.609,210.330 243.795,210.000 244.018 M191.233 244.550 C 191.325 244.632,192.480 244.800,193.800 244.923 C 195.378 245.070,195.789 245.035,195.000 244.820 C 193.766 244.485,190.936 244.282,191.233 244.550 M205.000 244.800 C 203.234 245.249,205.245 245.269,207.400 244.823 L 209.000 244.492 207.600 244.493 C 206.830 244.494,205.660 244.632,205.000 244.800 M199.100 245.482 C 199.595 245.578,200.405 245.578,200.900 245.482 C 201.395 245.387,200.990 245.309,200.000 245.309 C 199.010 245.309,198.605 245.387,199.100 245.482 " stroke="none" fill="#a47434" fill-rule="evenodd"></path></g></svg>