<?xml version="1.0" encoding="UTF-8" standalone="no"?>
<svg
   id="svg"
   version="1.1"
   width="170"
   height="400"
   viewBox="0 0 170 400"
   sodipodi:docname="traffic-light-icon-protected-movement-allowed.svg"
   inkscape:version="1.2.1 (9c6d41e410, 2022-07-14)"
   xmlns:inkscape="http://www.inkscape.org/namespaces/inkscape"
   xmlns:sodipodi="http://sodipodi.sourceforge.net/DTD/sodipodi-0.dtd"
   xmlns="http://www.w3.org/2000/svg"
   xmlns:svg="http://www.w3.org/2000/svg">
  <defs
     id="defs149" />
  <sodipodi:namedview
     id="namedview147"
     pagecolor="#ffffff"
     bordercolor="#000000"
     borderopacity="0.25"
     inkscape:showpageshadow="2"
     inkscape:pageopacity="0.0"
     inkscape:pagecheckerboard="0"
     inkscape:deskcolor="#d1d1d1"
     showgrid="false"
     inkscape:zoom="2.5675"
     inkscape:cx="153.84615"
     inkscape:cy="172.93087"
     inkscape:window-width="5160"
     inkscape:window-height="2054"
     inkscape:window-x="-11"
     inkscape:window-y="-11"
     inkscape:window-maximized="1"
     inkscape:current-layer="svg" />
  <g
     id="svgg"
     transform="translate(-115.18375,-0.13661111)">
    <path
       id="path0"
       d="m 194,155.421 c -2.09,0.291 -4.52,0.735 -5.4,0.987 -0.88,0.252 -2.097,0.554 -2.705,0.671 -0.608,0.117 -1.203,0.372 -1.324,0.567 -0.12,0.195 -0.472,0.354 -0.783,0.354 -1.282,0 -6.267,2.76 -11.653,6.453 -4.962,3.402 -14.135,15.939 -14.135,19.319 0,0.319 -0.159,0.679 -0.354,0.799 -0.195,0.121 -0.444,0.716 -0.555,1.324 -0.111,0.608 -0.474,2.095 -0.808,3.305 -2.017,7.317 -1.177,23.412 1.368,26.18 0.192,0.209 0.349,0.625 0.349,0.925 0,0.835 2.367,5.621 4.047,8.184 15.873,24.21 49.38,27.732 69.777,7.335 19.327,-19.327 17.286,-50.986 -4.367,-67.75 -2.99,-2.315 -9.891,-6.074 -11.152,-6.074 -0.3,0 -0.716,-0.157 -0.925,-0.349 -2.092,-1.923 -14.379,-3.204 -21.38,-2.23"
       stroke="none"
       fill="#fbab43"
       fill-rule="evenodd"
       style="fill:#835b2c;fill-opacity:1" />
    <path
       id="path1"
       d="m 130,200 v 186.4 h 70 70 V 200 13.6 H 200 130 V 200 M 206,19.219 c 5.297,0.484 7.338,0.805 7.78,1.222 0.209,0.197 0.974,0.359 1.7,0.359 0.726,0 1.32,0.18 1.32,0.4 0,0.22 0.54,0.4 1.2,0.4 0.66,0 1.2,0.18 1.2,0.4 0,0.22 0.45,0.4 1,0.4 0.55,0 1,0.18 1,0.4 0,0.22 0.439,0.4 0.976,0.4 0.537,0 1.088,0.18 1.224,0.4 0.136,0.22 0.597,0.4 1.024,0.4 0.427,0 0.776,0.18 0.776,0.4 0,0.22 0.36,0.4 0.8,0.4 0.44,0 0.8,0.18 0.8,0.4 0,0.22 0.36,0.4 0.8,0.4 0.44,0 0.8,0.152 0.8,0.337 0,0.186 0.855,0.77 1.9,1.3 1.045,0.529 2.08,1.097 2.3,1.262 4.938,3.698 6.953,5.411 9.7,8.243 1.815,1.871 3.3,3.573 3.3,3.783 0,0.21 0.324,0.672 0.719,1.028 0.395,0.356 1.152,1.277 1.681,2.047 0.529,0.77 1.06,1.49 1.181,1.6 0.12,0.11 0.444,0.605 0.719,1.1 0.275,0.495 0.725,1.305 1,1.8 0.275,0.495 0.59,0.99 0.7,1.1 0.209,0.209 2.693,5.614 3.217,7 3.1,8.201 4.437,17.841 3.649,26.306 -0.412,4.419 -1.95,12.045 -2.843,14.094 -0.192,0.44 -0.616,1.52 -0.943,2.4 -1.105,2.974 -2.067,5 -2.374,5 -0.168,0 -0.306,0.36 -0.306,0.8 0,0.44 -0.159,0.8 -0.353,0.8 -0.195,0 -0.454,0.315 -0.576,0.7 -0.269,0.849 -1.485,2.874 -2.171,3.616 -0.275,0.298 -0.5,0.689 -0.5,0.87 0,0.181 -0.54,0.907 -1.2,1.614 -0.66,0.707 -1.2,1.432 -1.2,1.613 0,0.592 -8.226,8.629 -10.236,10 -1.08,0.737 -2.024,1.486 -2.097,1.664 -0.074,0.178 -0.389,0.323 -0.7,0.323 -0.312,0 -0.567,0.159 -0.567,0.353 0,0.195 -0.315,0.454 -0.7,0.576 -0.936,0.296 -3.066,1.595 -3.233,1.971 -0.074,0.165 -0.479,0.3 -0.9,0.3 -0.422,0 -0.767,0.18 -0.767,0.4 0,0.22 -0.36,0.4 -0.8,0.4 -0.44,0 -0.8,0.18 -0.8,0.4 0,0.22 -0.36,0.4 -0.8,0.4 -0.44,0 -0.8,0.18 -0.8,0.4 0,0.22 -0.349,0.4 -0.776,0.4 -0.427,0 -0.888,0.18 -1.024,0.4 -0.136,0.22 -0.687,0.4 -1.224,0.4 -0.537,0 -0.976,0.18 -0.976,0.4 0,0.22 -0.439,0.4 -0.976,0.4 -0.537,0 -1.088,0.18 -1.224,0.4 -0.136,0.22 -0.856,0.4 -1.6,0.4 -0.744,0 -1.452,0.161 -1.574,0.358 -0.121,0.197 -0.987,0.47 -1.923,0.607 -0.937,0.137 -3.143,0.457 -4.903,0.71 -4.161,0.6 -10.328,0.604 -14.6,0.01 -6.336,-0.881 -6.805,-0.969 -7.026,-1.327 -0.122,-0.197 -0.841,-0.358 -1.598,-0.358 -0.757,0 -1.376,-0.18 -1.376,-0.4 0,-0.22 -0.439,-0.4 -0.976,-0.4 -0.537,0 -1.088,-0.18 -1.224,-0.4 -0.136,-0.22 -0.676,-0.4 -1.2,-0.4 -0.524,0 -1.064,-0.18 -1.2,-0.4 -0.136,-0.22 -0.597,-0.4 -1.024,-0.4 -0.427,0 -0.776,-0.18 -0.776,-0.4 0,-0.22 -0.36,-0.4 -0.8,-0.4 -0.44,0 -0.8,-0.18 -0.8,-0.4 0,-0.22 -0.36,-0.4 -0.8,-0.4 -0.44,0 -0.8,-0.18 -0.8,-0.4 0,-0.22 -0.36,-0.4 -0.8,-0.4 -0.44,0 -0.8,-0.18 -0.8,-0.4 0,-0.22 -0.236,-0.4 -0.525,-0.4 -0.288,0 -0.911,-0.36 -1.383,-0.8 -0.472,-0.44 -1.136,-0.8 -1.475,-0.8 -0.339,0 -0.617,-0.138 -0.617,-0.306 0,-0.168 -0.72,-0.75 -1.6,-1.294 -0.88,-0.544 -1.6,-1.126 -1.6,-1.294 0,-0.168 -0.185,-0.306 -0.411,-0.306 -0.777,0 -7.466,-6.419 -9.425,-9.045 -0.638,-0.855 -1.272,-1.645 -1.41,-1.755 -0.138,-0.11 -1.172,-1.64 -2.298,-3.4 -1.126,-1.76 -2.23,-3.417 -2.452,-3.683 -0.222,-0.266 -0.404,-0.665 -0.404,-0.888 0,-0.223 -0.383,-1.085 -0.852,-1.917 -1.258,-2.235 -3.548,-8.773 -3.548,-10.132 0,-0.649 -0.18,-1.18 -0.4,-1.18 -0.22,0 -0.4,-0.709 -0.4,-1.576 0,-0.867 -0.18,-1.688 -0.4,-1.824 -0.22,-0.136 -0.4,-1.641 -0.4,-3.344 0,-1.703 -0.193,-3.289 -0.43,-3.526 -0.595,-0.595 0.187,-13.619 0.86,-14.31 0.204,-0.209 0.37,-1.154 0.37,-2.1 0,-0.946 0.18,-1.72 0.4,-1.72 0.22,0 0.4,-0.538 0.4,-1.195 0,-3.645 6.887,-17.632 10.07,-20.452 0.401,-0.356 0.73,-0.818 0.73,-1.028 0,-1.711 11.041,-11.104 16.1,-13.696 0.605,-0.31 1.1,-0.714 1.1,-0.897 0,-0.182 0.36,-0.332 0.8,-0.332 0.44,0 0.8,-0.18 0.8,-0.4 0,-0.22 0.36,-0.4 0.8,-0.4 0.44,0 0.8,-0.18 0.8,-0.4 0,-0.22 0.349,-0.4 0.776,-0.4 0.427,0 0.888,-0.18 1.024,-0.4 0.136,-0.22 0.687,-0.4 1.224,-0.4 0.537,0 0.976,-0.18 0.976,-0.4 0,-0.22 0.439,-0.4 0.976,-0.4 0.537,0 1.088,-0.18 1.224,-0.4 0.136,-0.22 0.687,-0.4 1.224,-0.4 0.537,0 0.976,-0.18 0.976,-0.4 0,-0.22 0.594,-0.4 1.32,-0.4 0.726,0 1.491,-0.162 1.7,-0.359 0.467,-0.441 2.724,-0.773 8.079,-1.188 2.254,-0.174 4.234,-0.455 4.4,-0.622 0.165,-0.168 1.021,-0.183 1.901,-0.033 0.88,0.15 3.31,0.43 5.4,0.621 M 204.2,141.6 c 0.136,0.22 1.587,0.4 3.224,0.4 1.717,0 2.976,0.169 2.976,0.4 0,0.22 0.799,0.4 1.776,0.4 0.977,0 1.888,0.18 2.024,0.4 0.136,0.22 0.783,0.4 1.439,0.4 2.102,0 15.161,5.576 15.161,6.473 0,0.18 0.193,0.327 0.428,0.327 0.404,0 3.235,1.828 4.927,3.182 1.716,1.373 9.321,9.11 10.24,10.418 0.541,0.77 1.274,1.718 1.63,2.107 0.356,0.388 0.901,1.198 1.21,1.8 0.31,0.601 0.654,1.183 0.764,1.293 0.72,0.718 3.333,5.929 4.714,9.4 5.203,13.082 5.246,29.514 0.111,42.6 -1.251,3.189 -4.525,9.6 -4.902,9.6 -0.177,0 -0.322,0.193 -0.322,0.428 0,0.402 -1.813,3.212 -3.182,4.93 -0.804,1.009 -9.251,9.456 -10.26,10.26 -1.718,1.369 -4.528,3.182 -4.93,3.182 -0.235,0 -0.428,0.145 -0.428,0.322 0,0.377 -6.411,3.651 -9.6,4.902 -13.086,5.135 -29.518,5.092 -42.6,-0.111 -3.471,-1.381 -8.682,-3.994 -9.4,-4.714 -0.11,-0.11 -0.695,-0.455 -1.3,-0.767 -0.605,-0.312 -1.1,-0.717 -1.1,-0.9 0,-0.182 -0.193,-0.332 -0.429,-0.332 -0.235,0 -0.665,-0.225 -0.955,-0.5 -0.954,-0.905 -2.222,-1.9 -2.422,-1.9 -0.29,0 -8.594,-8.304 -8.594,-8.595 0,-0.137 -0.539,-0.824 -1.198,-1.527 -0.659,-0.703 -1.199,-1.503 -1.2,-1.778 -0.001,-0.275 -0.152,-0.5 -0.334,-0.5 -0.183,0 -0.582,-0.495 -0.886,-1.1 -0.304,-0.605 -0.897,-1.609 -1.317,-2.231 -2.046,-3.031 -5.865,-12.296 -5.865,-14.23 0,-0.656 -0.18,-1.303 -0.4,-1.439 -0.22,-0.136 -0.4,-1.047 -0.4,-2.024 0,-0.977 -0.18,-1.776 -0.4,-1.776 -0.23,0 -0.4,-1.24 -0.4,-2.92 0,-1.606 -0.193,-3.113 -0.429,-3.349 -0.616,-0.616 0.207,-14.531 0.859,-14.531 0.204,0 0.37,-0.799 0.37,-1.776 0,-0.977 0.18,-1.888 0.4,-2.024 0.22,-0.136 0.4,-0.78 0.4,-1.432 0,-2.013 4.934,-13.706 6.401,-15.168 0.11,-0.11 0.454,-0.692 0.764,-1.293 0.309,-0.602 0.854,-1.412 1.21,-1.8 0.356,-0.389 1.091,-1.337 1.633,-2.107 1.277,-1.813 8.579,-9.115 10.392,-10.392 0.77,-0.542 1.718,-1.277 2.107,-1.633 0.388,-0.356 1.198,-0.894 1.8,-1.197 0.601,-0.302 1.602,-0.893 2.224,-1.313 2.963,-2.001 12.343,-5.865 14.237,-5.865 0.652,0 1.296,-0.18 1.432,-0.4 0.136,-0.22 1.047,-0.4 2.024,-0.4 0.977,0 1.776,-0.18 1.776,-0.4 0,-0.229 1.237,-0.403 2.9,-0.406 1.595,-0.003 3.17,-0.181 3.5,-0.394 0.794,-0.513 7.883,-0.513 8.2,0 m 3.4,122.813 c 3.831,0.438 5.598,0.755 6.6,1.184 0.746,0.32 1.54,0.518 4.3,1.073 0.605,0.121 1.1,0.38 1.1,0.575 0,0.195 0.439,0.355 0.976,0.355 0.537,0 1.088,0.18 1.224,0.4 0.136,0.22 0.597,0.4 1.024,0.4 0.427,0 0.776,0.18 0.776,0.4 0,0.22 0.36,0.4 0.8,0.4 0.44,0 0.8,0.18 0.8,0.4 0,0.22 0.36,0.4 0.8,0.4 0.44,0 0.8,0.18 0.8,0.4 0,0.22 0.36,0.4 0.8,0.4 0.44,0 0.8,0.159 0.8,0.353 0,0.195 0.315,0.454 0.7,0.576 0.841,0.266 2.871,1.482 3.602,2.157 0.29,0.267 1.061,0.801 1.713,1.186 0.652,0.385 1.185,0.842 1.185,1.014 0,0.173 0.185,0.314 0.411,0.314 0.782,0 8.01,6.942 9.579,9.2 0.534,0.77 1.252,1.67 1.594,2 0.342,0.33 0.876,1.095 1.186,1.7 0.311,0.605 0.715,1.1 0.898,1.1 0.182,0 0.332,0.278 0.332,0.617 0,0.339 0.36,1.003 0.8,1.475 0.44,0.472 0.8,1.095 0.8,1.383 0,0.289 0.18,0.525 0.4,0.525 0.22,0 0.4,0.36 0.4,0.8 0,0.44 0.18,0.8 0.4,0.8 0.22,0 0.4,0.253 0.4,0.562 0,0.309 0.386,1.344 0.857,2.3 2.37,4.808 4.11,11.523 4.783,18.461 0.839,8.657 -0.861,20.816 -3.687,26.372 -0.194,0.382 -0.353,0.869 -0.353,1.082 0,0.655 -2.488,5.727 -3.676,7.495 -0.618,0.92 -1.124,1.865 -1.124,2.1 0,0.235 -0.15,0.428 -0.332,0.428 -0.183,0 -0.588,0.495 -0.9,1.1 -0.313,0.605 -1.063,1.577 -1.668,2.16 -0.605,0.584 -1.1,1.252 -1.1,1.485 0,1.34 -11.04,11.062 -15,13.21 -0.88,0.477 -2.14,1.209 -2.8,1.627 -0.66,0.418 -1.515,0.773 -1.9,0.789 -0.385,0.016 -0.7,0.209 -0.7,0.429 0,0.22 -0.36,0.4 -0.8,0.4 -0.44,0 -0.8,0.18 -0.8,0.4 0,0.22 -0.54,0.4 -1.2,0.4 -0.66,0 -1.2,0.18 -1.2,0.4 0,0.22 -0.45,0.4 -1,0.4 -0.55,0 -1,0.18 -1,0.4 0,0.22 -0.54,0.4 -1.2,0.4 -0.66,0 -1.2,0.18 -1.2,0.4 0,0.22 -0.619,0.4 -1.376,0.4 -0.757,0 -1.488,0.18 -1.624,0.4 -0.136,0.22 -0.921,0.4 -1.744,0.4 -0.823,0 -1.667,0.168 -1.876,0.373 -1.059,1.038 -18.876,1.031 -19.96,-0.009 -0.209,-0.2 -1.143,-0.364 -2.076,-0.364 -0.933,0 -1.808,-0.18 -1.944,-0.4 -0.136,-0.22 -0.867,-0.4 -1.624,-0.4 -0.757,0 -1.376,-0.18 -1.376,-0.4 0,-0.22 -0.439,-0.4 -0.976,-0.4 -0.537,0 -1.088,-0.18 -1.224,-0.4 -0.136,-0.22 -0.687,-0.4 -1.224,-0.4 -0.537,0 -0.976,-0.18 -0.976,-0.4 0,-0.22 -0.343,-0.4 -0.762,-0.4 -0.419,0 -1.544,-0.386 -2.5,-0.857 -0.956,-0.471 -2.188,-1.056 -2.738,-1.3 -0.55,-0.244 -1.18,-0.584 -1.4,-0.756 -0.22,-0.173 -1.48,-0.951 -2.8,-1.73 -4.449,-2.626 -14.2,-11.318 -14.2,-12.658 0,-0.223 -0.328,-0.696 -0.728,-1.052 -0.936,-0.831 -4.072,-5.472 -4.072,-6.025 0,-0.232 -0.152,-0.422 -0.337,-0.422 -0.839,0 -5.663,-11.95 -5.663,-14.027 0,-0.645 -0.18,-1.173 -0.4,-1.173 -0.22,0 -0.4,-0.81 -0.4,-1.8 0,-0.99 -0.167,-1.8 -0.371,-1.8 -0.203,0 -0.475,-1.575 -0.604,-3.5 -0.653,-9.792 -0.672,-10.613 -0.255,-11.03 0.237,-0.237 0.43,-1.823 0.43,-3.526 0,-1.703 0.18,-3.208 0.4,-3.344 0.22,-0.136 0.4,-0.957 0.4,-1.824 0,-0.867 0.18,-1.576 0.4,-1.576 0.22,0 0.4,-0.536 0.4,-1.191 0,-1.269 2.437,-8.135 3.664,-10.321 0.405,-0.722 0.736,-1.577 0.736,-1.9 0,-0.323 0.158,-0.588 0.351,-0.588 0.194,0 0.576,-0.54 0.849,-1.2 0.273,-0.66 0.655,-1.2 0.849,-1.2 0.193,0 0.351,-0.36 0.351,-0.8 0,-0.44 0.141,-0.8 0.314,-0.8 0.172,0 0.629,-0.533 1.014,-1.185 0.385,-0.652 0.919,-1.417 1.186,-1.7 0.267,-0.283 0.981,-1.178 1.586,-1.988 2.25,-3.014 7.597,-7.995 11.5,-10.713 0.77,-0.537 1.49,-1.074 1.6,-1.195 0.353,-0.387 2.577,-1.661 3.3,-1.89 0.385,-0.122 0.7,-0.381 0.7,-0.576 0,-0.194 0.36,-0.353 0.8,-0.353 0.44,0 0.8,-0.18 0.8,-0.4 0,-0.22 0.36,-0.4 0.8,-0.4 0.44,0 0.8,-0.18 0.8,-0.4 0,-0.22 0.36,-0.4 0.8,-0.4 0.44,0 0.8,-0.18 0.8,-0.4 0,-0.22 0.349,-0.4 0.776,-0.4 0.427,0 0.888,-0.18 1.024,-0.4 0.136,-0.22 0.676,-0.4 1.2,-0.4 0.524,0 1.064,-0.18 1.2,-0.4 0.136,-0.22 0.676,-0.4 1.2,-0.4 0.524,0 1.064,-0.18 1.2,-0.4 0.136,-0.22 0.766,-0.4 1.4,-0.4 0.634,0 1.252,-0.161 1.374,-0.358 0.249,-0.403 1.916,-0.682 7.426,-1.245 2.09,-0.213 4.07,-0.469 4.4,-0.569 0.684,-0.208 5.566,0.078 10,0.585"
       stroke="none"
       fill="#444343"
       fill-rule="evenodd" />
    <path
       id="path2"
       d="m 118.628,0.288 c -1.014,0.261 -1.828,1.1 -1.828,1.883 0,0.346 -0.18,0.629 -0.4,0.629 -0.22,0 -0.4,0.349 -0.4,0.776 0,0.427 -0.18,0.888 -0.4,1.024 -0.555,0.343 -0.555,390.457 0,390.8 0.22,0.136 0.4,0.597 0.4,1.024 0,0.427 0.18,0.776 0.4,0.776 0.22,0 0.4,0.283 0.4,0.629 0,2.106 -5.708,1.971 83.2,1.971 88.908,0 83.2,0.135 83.2,-1.971 0,-0.346 0.18,-0.629 0.4,-0.629 0.22,0 0.4,-0.349 0.4,-0.776 0,-0.427 0.18,-0.888 0.4,-1.024 0.266,-0.164 0.4,-65.73 0.4,-195.4 C 284.8,70.33 284.666,4.764 284.4,4.6 284.18,4.464 284,4.003 284,3.576 284,3.149 283.82,2.8 283.6,2.8 c -0.22,0 -0.4,-0.283 -0.4,-0.629 0,-2.105 5.635,-1.966 -82.571,-2.027 -44.676,-0.03 -81.576,0.034 -82.001,0.144 M 271.001,13.7 c 0.12,0.495 0.168,84.69 0.108,187.1 L 271,387 l -70.776,0.101 c -56.356,0.081 -70.84,-10e-4 -71.094,-0.4 -0.366,-0.578 -0.454,-372.313 -0.087,-373.268 0.22,-0.574 6.847,-0.633 70.992,-0.633 h 70.75 l 0.216,0.9 M 191.6,20.067 c -10.155,2.091 -14.965,3.831 -21.389,7.736 -36.491,22.186 -37.543,74.506 -1.969,98.007 13.579,8.97 30.735,11.758 46.758,7.598 2.178,-0.565 3.171,-0.882 5.6,-1.787 7.565,-2.816 16.052,-8.518 21.603,-14.514 2.632,-2.842 6.197,-7.295 6.197,-7.739 0,-0.123 0.506,-0.976 1.125,-1.896 14.47,-21.513 9.563,-55.334 -10.58,-72.92 -9.469,-8.267 -16.801,-11.717 -30.876,-14.527 -2.552,-0.509 -13.932,-0.481 -16.469,0.042 m 12.436,11.957 c 46.287,5.839 57.214,66.557 15.564,86.481 -40.567,19.405 -81.686,-26.35 -58.338,-64.915 4.236,-6.996 16.942,-17.99 20.791,-17.99 0.213,0 0.89,-0.26 1.505,-0.578 4.343,-2.246 14.57,-3.743 20.478,-2.998 M 194.2,142.401 c -8.762,0.932 -24.203,6.356 -25.333,8.899 -0.074,0.165 -0.304,0.3 -0.512,0.3 -0.631,0 -6.794,4.928 -9.311,7.444 -2.516,2.517 -7.444,8.68 -7.444,9.311 0,0.208 -0.135,0.438 -0.3,0.512 -0.835,0.371 -4.704,8.305 -6.208,12.733 -5.436,15.999 -2.743,37.572 6.214,49.783 0.168,0.229 1.228,1.677 2.355,3.217 25.573,34.937 79.251,29.713 98.652,-9.6 11.788,-23.888 3.988,-56.254 -17.113,-71.01 -0.77,-0.538 -1.72,-1.251 -2.112,-1.584 C 225.246,145.73 207.01,141.039 194.2,142.401 M 201.8,154 c 0.136,0.22 1.756,0.4 3.6,0.4 1.844,0 3.452,0.16 3.573,0.356 0.121,0.195 0.896,0.471 1.723,0.611 3.628,0.618 4.123,0.741 4.331,1.077 0.121,0.196 0.57,0.356 0.997,0.356 0.427,0 0.776,0.18 0.776,0.4 0,0.22 0.405,0.416 0.9,0.436 0.495,0.02 1.8,0.552 2.9,1.181 1.1,0.63 2.81,1.593 3.8,2.139 0.99,0.547 2.323,1.455 2.962,2.019 0.639,0.564 1.284,1.025 1.433,1.025 0.39,0 7.205,6.764 7.205,7.151 0,0.178 0.461,0.848 1.025,1.487 0.564,0.639 1.479,1.972 2.034,2.962 0.554,0.99 1.518,2.7 2.142,3.8 0.624,1.1 1.149,2.405 1.166,2.9 0.018,0.495 0.213,0.9 0.433,0.9 0.22,0 0.4,0.349 0.4,0.776 0,0.427 0.18,0.888 0.4,1.024 0.22,0.136 0.4,0.766 0.4,1.4 0,0.634 0.18,1.264 0.4,1.4 0.22,0.136 0.4,0.856 0.4,1.6 0,0.744 0.18,1.464 0.4,1.6 0.22,0.136 0.4,1.756 0.4,3.6 0,1.844 0.18,3.464 0.4,3.6 0.22,0.136 0.4,0.946 0.4,1.8 0,0.854 -0.18,1.664 -0.4,1.8 -0.22,0.136 -0.4,1.756 -0.4,3.6 0,1.844 -0.18,3.464 -0.4,3.6 -0.22,0.136 -0.4,0.856 -0.4,1.6 0,0.744 -0.18,1.464 -0.4,1.6 -0.22,0.136 -0.4,0.629 -0.4,1.095 0,1.115 -0.873,3.505 -1.28,3.505 -0.176,0 -0.32,0.362 -0.32,0.805 0,0.443 -0.154,1.118 -0.343,1.5 -1.06,2.148 -1.829,3.518 -2.073,3.695 -0.152,0.11 -0.677,0.989 -1.166,1.954 -0.489,0.964 -1.323,2.187 -1.854,2.718 -0.53,0.53 -0.964,1.134 -0.964,1.34 0,0.491 -6.697,7.188 -7.188,7.188 -0.206,0 -0.81,0.434 -1.34,0.964 -0.531,0.531 -1.754,1.365 -2.718,1.854 -0.965,0.489 -1.844,1.014 -1.954,1.166 -0.177,0.244 -1.547,1.013 -3.695,2.073 -0.382,0.189 -1.057,0.343 -1.5,0.343 -0.443,0 -0.805,0.144 -0.805,0.32 0,0.407 -2.39,1.28 -3.505,1.28 -0.466,0 -0.959,0.18 -1.095,0.4 -0.136,0.22 -0.856,0.4 -1.6,0.4 -0.744,0 -1.464,0.18 -1.6,0.4 -0.136,0.22 -1.756,0.4 -3.6,0.4 -1.844,0 -3.464,0.18 -3.6,0.4 -0.136,0.22 -0.946,0.4 -1.8,0.4 -0.854,0 -1.664,-0.18 -1.8,-0.4 -0.136,-0.22 -1.756,-0.4 -3.6,-0.4 -1.844,0 -3.464,-0.18 -3.6,-0.4 -0.136,-0.22 -0.856,-0.4 -1.6,-0.4 -0.744,0 -1.464,-0.18 -1.6,-0.4 -0.136,-0.22 -0.766,-0.4 -1.4,-0.4 -0.634,0 -1.264,-0.18 -1.4,-0.4 -0.136,-0.22 -0.597,-0.4 -1.024,-0.4 -0.427,0 -0.776,-0.18 -0.776,-0.4 0,-0.22 -0.405,-0.415 -0.9,-0.433 -0.495,-0.017 -1.8,-0.542 -2.9,-1.166 -1.1,-0.624 -2.81,-1.588 -3.8,-2.142 -0.99,-0.555 -2.323,-1.47 -2.962,-2.034 -0.639,-0.564 -1.309,-1.025 -1.487,-1.025 -0.387,0 -7.151,-6.815 -7.151,-7.205 0,-0.149 -0.461,-0.794 -1.025,-1.433 -0.564,-0.639 -1.472,-1.972 -2.019,-2.962 -0.546,-0.99 -1.509,-2.7 -2.139,-3.8 -0.629,-1.1 -1.161,-2.405 -1.181,-2.9 -0.02,-0.495 -0.216,-0.9 -0.436,-0.9 -0.22,0 -0.4,-0.349 -0.4,-0.776 0,-0.427 -0.16,-0.876 -0.356,-0.997 -0.336,-0.208 -0.459,-0.703 -1.077,-4.331 -0.14,-0.827 -0.416,-1.602 -0.611,-1.723 -0.196,-0.121 -0.356,-1.729 -0.356,-3.573 0,-1.844 -0.18,-3.464 -0.4,-3.6 -0.504,-0.311 -0.526,-3.111 -0.029,-3.62 0.204,-0.209 0.459,-1.82 0.567,-3.58 0.237,-3.865 0.627,-6.131 1.106,-6.427 0.196,-0.121 0.356,-0.744 0.356,-1.384 0,-0.641 0.36,-1.806 0.8,-2.589 0.44,-0.783 0.816,-1.734 0.836,-2.112 0.02,-0.378 0.551,-1.588 1.181,-2.688 0.629,-1.1 1.537,-2.72 2.018,-3.6 2.322,-4.251 10.714,-12.643 14.965,-14.965 0.88,-0.481 2.5,-1.389 3.6,-2.018 1.1,-0.63 2.31,-1.161 2.688,-1.181 0.378,-0.02 1.329,-0.396 2.112,-0.836 0.783,-0.44 1.948,-0.8 2.589,-0.8 0.64,0 1.263,-0.16 1.384,-0.356 0.296,-0.479 2.562,-0.869 6.427,-1.106 1.76,-0.108 3.371,-0.363 3.58,-0.567 0.509,-0.497 3.309,-0.475 3.62,0.029 M 193,265.027 c -0.22,0.091 -1.48,0.33 -2.8,0.533 -34.162,5.242 -56.1,41.573 -45.241,74.924 11.716,35.983 54.668,51.321 86.393,30.85 44.81,-28.915 30.3,-96.507 -22.776,-106.096 -2.258,-0.408 -14.686,-0.576 -15.576,-0.211 m 17.6,12.94 c 0.66,0.241 2.605,0.889 4.323,1.44 6.665,2.139 12.21,5.767 17.962,11.751 6.702,6.973 9.954,13.228 11.978,23.042 0.635,3.078 0.871,12.505 0.373,14.9 -0.24,1.155 -0.644,3.135 -0.897,4.4 -3.153,15.717 -18.163,30.275 -34.739,33.692 -1.21,0.249 -2.968,0.623 -3.906,0.831 -2.28,0.504 -8.717,0.479 -11.363,-0.044 -5.219,-1.032 -6.3,-1.297 -9.059,-2.218 -10.295,-3.438 -20.223,-11.722 -25.12,-20.961 -4.232,-7.984 -5.51,-13.089 -5.507,-22 0.002,-6.808 0.158,-7.993 1.86,-14.2 4.04,-14.735 20.447,-28.897 36.095,-31.159 2.304,-0.333 16.809,0.091 18,0.526"
       stroke="none"
       fill="#241c24"
       fill-rule="evenodd" />
    <path
       id="path3"
       d="m 194.8,33.031 c -0.55,0.098 -1.997,0.358 -3.217,0.577 -13.315,2.398 -26.237,12.347 -31.939,24.592 -0.512,1.1 -1.092,2.313 -1.288,2.695 C 158.16,61.277 158,61.864 158,62.2 c 0,0.336 -0.162,0.923 -0.361,1.305 -0.371,0.714 -0.819,2.351 -1.63,5.959 -0.577,2.564 -0.598,13.988 -0.028,15.485 0.23,0.607 0.419,1.634 0.419,2.282 0,0.649 0.158,1.492 0.351,1.874 0.193,0.382 0.565,1.415 0.826,2.295 0.949,3.193 4.626,10.693 5.589,11.4 0.15,0.11 0.71,0.83 1.245,1.6 1.034,1.489 1.367,1.865 4.756,5.358 14.228,14.668 41.728,16.311 57.796,3.452 6.947,-5.559 11.484,-11.601 14.726,-19.61 0.222,-0.55 0.563,-1.313 0.758,-1.695 0.194,-0.382 0.353,-1.136 0.353,-1.676 0,-0.54 0.161,-1.081 0.358,-1.203 1.617,-0.999 1.617,-22.253 0,-23.252 -0.197,-0.122 -0.358,-0.663 -0.358,-1.203 0,-0.54 -0.159,-1.294 -0.353,-1.676 -0.195,-0.382 -0.532,-1.145 -0.75,-1.695 C 236.258,47.465 224.454,37.386 209.6,33.794 207.089,33.187 196.883,32.661 194.8,33.031 M 245.293,196 c 0,0.77 0.082,1.085 0.183,0.7 0.1,-0.385 0.1,-1.015 0,-1.4 -0.101,-0.385 -0.183,-0.07 -0.183,0.7 m 0,8 c 0,0.77 0.082,1.085 0.183,0.7 0.1,-0.385 0.1,-1.015 0,-1.4 -0.101,-0.385 -0.183,-0.07 -0.183,0.7 M 195.3,245.476 c 0.385,0.1 1.015,0.1 1.4,0 0.385,-0.101 0.07,-0.183 -0.7,-0.183 -0.77,0 -1.085,0.082 -0.7,0.183 m 8,0 c 0.385,0.1 1.015,0.1 1.4,0 0.385,-0.101 0.07,-0.183 -0.7,-0.183 -0.77,0 -1.085,0.082 -0.7,0.183"
       stroke="none"
       fill="#742c34"
       fill-rule="evenodd"
       style="fill:#732c34;fill-opacity:1" />
    <path
       id="path4"
       d="m 193,278.188 c -32.754,5.706 -48.518,41.974 -30.257,69.612 10.946,16.566 32.759,23.879 51.764,17.354 7.142,-2.452 12.67,-5.972 17.937,-11.419 29.657,-30.679 2.423,-82.839 -39.444,-75.547"
       stroke="none"
       fill="#445b34"
       fill-rule="evenodd"
       style="fill:#445b34;fill-opacity:1" />
    <path
       id="path5"
       d="m 129.043,13.433 c -0.367,0.955 -0.279,372.69 0.087,373.268 0.254,0.399 14.738,0.481 71.094,0.4 L 271,387 271.109,200.8 c 0.06,-102.41 0.012,-186.605 -0.108,-187.1 l -0.216,-0.9 h -70.75 c -64.145,0 -70.772,0.059 -70.992,0.633 M 270,200 V 386.4 H 200 130 V 200 13.6 h 70 70 V 200 M 198.699,18.631 c -0.166,0.167 -2.146,0.448 -4.4,0.622 -5.355,0.415 -7.612,0.747 -8.079,1.188 -0.209,0.197 -0.974,0.359 -1.7,0.359 -0.726,0 -1.32,0.18 -1.32,0.4 0,0.22 -0.439,0.4 -0.976,0.4 -0.537,0 -1.088,0.18 -1.224,0.4 -0.136,0.22 -0.687,0.4 -1.224,0.4 -0.537,0 -0.976,0.18 -0.976,0.4 0,0.22 -0.439,0.4 -0.976,0.4 -0.537,0 -1.088,0.18 -1.224,0.4 -0.136,0.22 -0.597,0.4 -1.024,0.4 -0.427,0 -0.776,0.18 -0.776,0.4 0,0.22 -0.36,0.4 -0.8,0.4 -0.44,0 -0.8,0.18 -0.8,0.4 0,0.22 -0.36,0.4 -0.8,0.4 -0.44,0 -0.8,0.15 -0.8,0.332 0,0.183 -0.495,0.587 -1.1,0.897 -5.059,2.592 -16.1,11.985 -16.1,13.696 0,0.21 -0.329,0.672 -0.73,1.028 -3.183,2.82 -10.07,16.807 -10.07,20.452 0,0.657 -0.18,1.195 -0.4,1.195 -0.22,0 -0.4,0.774 -0.4,1.72 0,0.946 -0.166,1.891 -0.37,2.1 -0.673,0.691 -1.455,13.715 -0.86,14.31 0.237,0.237 0.43,1.823 0.43,3.526 0,1.703 0.18,3.208 0.4,3.344 0.22,0.136 0.4,0.957 0.4,1.824 0,0.867 0.18,1.576 0.4,1.576 0.22,0 0.4,0.531 0.4,1.18 0,1.359 2.29,7.897 3.548,10.132 0.469,0.832 0.852,1.694 0.852,1.917 0,0.223 0.182,0.622 0.404,0.888 0.222,0.266 1.326,1.923 2.452,3.683 1.126,1.76 2.16,3.29 2.298,3.4 0.138,0.11 0.772,0.9 1.41,1.755 1.959,2.626 8.648,9.045 9.425,9.045 0.226,0 0.411,0.138 0.411,0.306 0,0.168 0.72,0.75 1.6,1.294 0.88,0.544 1.6,1.126 1.6,1.294 0,0.168 0.278,0.306 0.617,0.306 0.339,0 1.003,0.36 1.475,0.8 0.472,0.44 1.095,0.8 1.383,0.8 0.289,0 0.525,0.18 0.525,0.4 0,0.22 0.36,0.4 0.8,0.4 0.44,0 0.8,0.18 0.8,0.4 0,0.22 0.36,0.4 0.8,0.4 0.44,0 0.8,0.18 0.8,0.4 0,0.22 0.36,0.4 0.8,0.4 0.44,0 0.8,0.18 0.8,0.4 0,0.22 0.349,0.4 0.776,0.4 0.427,0 0.888,0.18 1.024,0.4 0.136,0.22 0.676,0.4 1.2,0.4 0.524,0 1.064,0.18 1.2,0.4 0.136,0.22 0.687,0.4 1.224,0.4 0.537,0 0.976,0.18 0.976,0.4 0,0.22 0.619,0.4 1.376,0.4 0.757,0 1.476,0.161 1.598,0.358 0.221,0.358 0.69,0.446 7.026,1.327 4.272,0.594 10.439,0.59 14.6,-0.01 1.76,-0.253 3.966,-0.573 4.903,-0.71 0.936,-0.137 1.802,-0.41 1.923,-0.607 0.122,-0.197 0.83,-0.358 1.574,-0.358 0.744,0 1.464,-0.18 1.6,-0.4 0.136,-0.22 0.687,-0.4 1.224,-0.4 0.537,0 0.976,-0.18 0.976,-0.4 0,-0.22 0.439,-0.4 0.976,-0.4 0.537,0 1.088,-0.18 1.224,-0.4 0.136,-0.22 0.597,-0.4 1.024,-0.4 0.427,0 0.776,-0.18 0.776,-0.4 0,-0.22 0.36,-0.4 0.8,-0.4 0.44,0 0.8,-0.18 0.8,-0.4 0,-0.22 0.36,-0.4 0.8,-0.4 0.44,0 0.8,-0.18 0.8,-0.4 0,-0.22 0.345,-0.4 0.767,-0.4 0.421,0 0.826,-0.135 0.9,-0.3 0.167,-0.376 2.297,-1.675 3.233,-1.971 0.385,-0.122 0.7,-0.381 0.7,-0.576 0,-0.194 0.255,-0.353 0.567,-0.353 0.311,0 0.626,-0.145 0.7,-0.323 0.073,-0.178 1.017,-0.927 2.097,-1.664 2.01,-1.371 10.236,-9.408 10.236,-10 0,-0.181 0.54,-0.906 1.2,-1.613 0.66,-0.707 1.2,-1.433 1.2,-1.614 0,-0.181 0.225,-0.572 0.5,-0.87 0.686,-0.742 1.902,-2.767 2.171,-3.616 0.122,-0.385 0.381,-0.7 0.576,-0.7 0.194,0 0.353,-0.36 0.353,-0.8 0,-0.44 0.138,-0.8 0.306,-0.8 0.307,0 1.269,-2.026 2.374,-5 0.327,-0.88 0.751,-1.96 0.943,-2.4 0.893,-2.049 2.431,-9.675 2.843,-14.094 0.788,-8.465 -0.549,-18.105 -3.649,-26.306 -0.524,-1.386 -3.008,-6.791 -3.217,-7 -0.11,-0.11 -0.425,-0.605 -0.7,-1.1 -0.275,-0.495 -0.725,-1.305 -1,-1.8 -0.275,-0.495 -0.599,-0.99 -0.719,-1.1 -0.121,-0.11 -0.652,-0.83 -1.181,-1.6 -0.529,-0.77 -1.286,-1.691 -1.681,-2.047 -0.395,-0.356 -0.719,-0.818 -0.719,-1.028 0,-0.21 -1.485,-1.912 -3.3,-3.783 -2.747,-2.832 -4.762,-4.545 -9.7,-8.243 -0.22,-0.165 -1.255,-0.733 -2.3,-1.262 -1.045,-0.53 -1.9,-1.114 -1.9,-1.3 0,-0.185 -0.36,-0.337 -0.8,-0.337 -0.44,0 -0.8,-0.18 -0.8,-0.4 0,-0.22 -0.36,-0.4 -0.8,-0.4 -0.44,0 -0.8,-0.18 -0.8,-0.4 0,-0.22 -0.349,-0.4 -0.776,-0.4 -0.427,0 -0.888,-0.18 -1.024,-0.4 -0.136,-0.22 -0.687,-0.4 -1.224,-0.4 -0.537,0 -0.976,-0.18 -0.976,-0.4 0,-0.22 -0.45,-0.4 -1,-0.4 -0.55,0 -1,-0.18 -1,-0.4 0,-0.22 -0.54,-0.4 -1.2,-0.4 -0.66,0 -1.2,-0.18 -1.2,-0.4 0,-0.22 -0.594,-0.4 -1.32,-0.4 -0.726,0 -1.491,-0.162 -1.7,-0.359 -0.442,-0.417 -2.483,-0.738 -7.78,-1.222 -2.09,-0.191 -4.52,-0.471 -5.4,-0.621 -0.88,-0.15 -1.736,-0.135 -1.901,0.033 m 9.37,1.394 c 14.075,2.81 21.407,6.26 30.876,14.527 20.143,17.586 25.05,51.407 10.58,72.92 -0.619,0.92 -1.125,1.773 -1.125,1.896 0,0.444 -3.565,4.897 -6.197,7.739 -5.551,5.996 -14.038,11.698 -21.603,14.514 -2.429,0.905 -3.422,1.222 -5.6,1.787 -16.023,4.16 -33.179,1.372 -46.758,-7.598 -35.574,-23.501 -34.522,-75.821 1.969,-98.007 6.424,-3.905 11.234,-5.645 21.389,-7.736 2.537,-0.523 13.917,-0.551 16.469,-0.042 M 198.9,31.887 c 0.605,0.091 1.595,0.091 2.2,0 0.605,-0.092 0.11,-0.167 -1.1,-0.167 -1.21,0 -1.705,0.075 -1.1,0.167 m -6.8,0.789 c 0.385,0.1 1.015,0.1 1.4,0 0.385,-0.101 0.07,-0.183 -0.7,-0.183 -0.77,0 -1.085,0.082 -0.7,0.183 m 14.4,0 c 0.385,0.1 1.015,0.1 1.4,0 0.385,-0.101 0.07,-0.183 -0.7,-0.183 -0.77,0 -1.085,0.082 -0.7,0.183 m -25.876,3.537 c -0.999,0.755 -0.629,0.75 0.83,-0.011 0.63,-0.328 0.876,-0.592 0.546,-0.587 -0.33,0.006 -0.949,0.275 -1.376,0.598 M 218.4,36.124 c 1.328,0.689 2.4,1.088 2.4,0.893 0,-0.241 -2.463,-1.417 -2.961,-1.415 -0.242,0.002 0.011,0.236 0.561,0.522 m -43.674,3.437 c -1.007,0.638 -1.947,1.35 -2.09,1.581 -0.21,0.339 3.537,-2 4.131,-2.579 0.483,-0.472 -0.419,-0.031 -2.041,0.998 M 224.2,39.076 c 1.334,1.227 3.554,2.619 2.801,1.757 -0.44,-0.503 -1.34,-1.187 -2,-1.52 -0.661,-0.332 -1.021,-0.439 -0.801,-0.237 m 5.726,4.437 c 1.169,1.038 3.033,2.877 4.141,4.087 1.109,1.21 1.656,1.66 1.214,1 -0.959,-1.435 -6.65,-7.005 -7.138,-6.987 -0.189,0.007 0.614,0.862 1.783,1.9 m -62.16,1.795 c -0.871,0.931 -1.941,2.142 -2.376,2.692 -0.436,0.55 0.326,-0.162 1.692,-1.583 1.367,-1.421 2.437,-2.632 2.377,-2.692 -0.06,-0.059 -0.822,0.653 -1.693,1.583 M 163.32,50.5 c -0.451,0.495 -1.045,1.35 -1.319,1.9 -0.584,1.171 -0.183,0.783 1.341,-1.3 1.23,-1.679 1.219,-1.963 -0.022,-0.6 m 74.33,1.9 c 2.071,3.194 2.782,3.98 1.528,1.69 -0.515,-0.941 -1.449,-2.291 -2.075,-3 -0.8,-0.907 -0.638,-0.517 0.547,1.31 m -78.667,5.234 c -0.785,1.558 -1.372,2.988 -1.305,3.177 0.067,0.189 0.783,-1.086 1.592,-2.833 1.824,-3.943 1.638,-4.166 -0.287,-0.344 m -3.69,11.566 c 0,0.77 0.082,1.085 0.183,0.7 0.1,-0.385 0.1,-1.015 0,-1.4 -0.101,-0.385 -0.183,-0.07 -0.183,0.7 m -0.749,8.4 c 0,2.09 0.068,2.945 0.15,1.9 0.082,-1.045 0.082,-2.755 0,-3.8 -0.082,-1.045 -0.15,-0.19 -0.15,1.9 m 90.802,0.2 c 0.001,2.2 0.068,3.049 0.149,1.887 0.081,-1.163 0.081,-2.963 -0.002,-4 -0.082,-1.038 -0.148,-0.087 -0.147,2.113 m -90.053,7.8 c 0,0.77 0.082,1.085 0.183,0.7 0.1,-0.385 0.1,-1.015 0,-1.4 -0.101,-0.385 -0.183,-0.07 -0.183,0.7 m 2.326,8.4 c 0.019,0.603 2.327,5.23 2.362,4.736 0.011,-0.145 -0.521,-1.405 -1.181,-2.8 -0.66,-1.395 -1.191,-2.266 -1.181,-1.936 m 2.959,6.275 c 0.339,0.701 0.816,1.397 1.059,1.548 0.537,0.332 -0.042,-0.808 -1.027,-2.023 -0.602,-0.743 -0.604,-0.709 -0.032,0.475 m 2.797,4.257 c 0.616,0.807 1.201,1.468 1.3,1.468 0.278,0 -1.454,-2.34 -1.966,-2.656 -0.25,-0.155 0.05,0.38 0.666,1.188 m 72.781,0.168 c -0.597,0.825 -2.901,3.299 -5.12,5.498 -2.22,2.199 -3.316,3.427 -2.436,2.73 2.887,-2.288 9.649,-9.728 8.841,-9.728 -0.11,0 -0.688,0.675 -1.285,1.5 m -70.956,1.944 c 0,0.208 1.305,1.633 2.9,3.167 l 2.9,2.789 -2.8,-2.989 c -1.54,-1.644 -2.845,-3.069 -2.9,-3.167 -0.055,-0.097 -0.1,-0.008 -0.1,0.2 M 196,141.6 c -0.33,0.213 -1.905,0.391 -3.5,0.394 -1.663,0.003 -2.9,0.177 -2.9,0.406 0,0.22 -0.799,0.4 -1.776,0.4 -0.977,0 -1.888,0.18 -2.024,0.4 -0.136,0.22 -0.78,0.4 -1.432,0.4 -1.894,0 -11.274,3.864 -14.237,5.865 -0.622,0.42 -1.623,1.011 -2.224,1.313 -0.602,0.303 -1.412,0.841 -1.8,1.197 -0.389,0.356 -1.337,1.091 -2.107,1.633 -1.813,1.277 -9.115,8.579 -10.392,10.392 -0.542,0.77 -1.277,1.718 -1.633,2.107 -0.356,0.388 -0.901,1.198 -1.21,1.8 -0.31,0.601 -0.654,1.183 -0.764,1.293 -1.467,1.462 -6.401,13.155 -6.401,15.168 0,0.652 -0.18,1.296 -0.4,1.432 -0.22,0.136 -0.4,1.047 -0.4,2.024 0,0.977 -0.166,1.776 -0.37,1.776 -0.652,0 -1.475,13.915 -0.859,14.531 0.236,0.236 0.429,1.743 0.429,3.349 0,1.68 0.17,2.92 0.4,2.92 0.22,0 0.4,0.799 0.4,1.776 0,0.977 0.18,1.888 0.4,2.024 0.22,0.136 0.4,0.783 0.4,1.439 0,1.934 3.819,11.199 5.865,14.23 0.42,0.622 1.013,1.626 1.317,2.231 0.304,0.605 0.703,1.1 0.886,1.1 0.182,0 0.333,0.225 0.334,0.5 10e-4,0.275 0.541,1.075 1.2,1.778 0.659,0.703 1.198,1.39 1.198,1.527 0,0.291 8.304,8.595 8.594,8.595 0.2,0 1.468,0.995 2.422,1.9 0.29,0.275 0.72,0.5 0.955,0.5 0.236,0 0.429,0.15 0.429,0.332 0,0.183 0.495,0.588 1.1,0.9 0.605,0.312 1.19,0.657 1.3,0.767 0.718,0.72 5.929,3.333 9.4,4.714 13.082,5.203 29.514,5.246 42.6,0.111 3.189,-1.251 9.6,-4.525 9.6,-4.902 0,-0.177 0.193,-0.322 0.428,-0.322 0.402,0 3.212,-1.813 4.93,-3.182 1.009,-0.804 9.456,-9.251 10.26,-10.26 1.369,-1.718 3.182,-4.528 3.182,-4.93 0,-0.235 0.145,-0.428 0.322,-0.428 0.377,0 3.651,-6.411 4.902,-9.6 5.135,-13.086 5.092,-29.518 -0.111,-42.6 -1.381,-3.471 -3.994,-8.682 -4.714,-9.4 -0.11,-0.11 -0.454,-0.692 -0.764,-1.293 -0.309,-0.602 -0.854,-1.412 -1.21,-1.8 -0.356,-0.389 -1.089,-1.337 -1.63,-2.107 -0.919,-1.308 -8.524,-9.045 -10.24,-10.418 -1.692,-1.354 -4.523,-3.182 -4.927,-3.182 -0.235,0 -0.428,-0.147 -0.428,-0.327 0,-0.897 -13.059,-6.473 -15.161,-6.473 -0.656,0 -1.303,-0.18 -1.439,-0.4 -0.136,-0.22 -1.047,-0.4 -2.024,-0.4 -0.977,0 -1.776,-0.18 -1.776,-0.4 0,-0.231 -1.259,-0.4 -2.976,-0.4 -1.637,0 -3.088,-0.18 -3.224,-0.4 -0.317,-0.513 -7.406,-0.513 -8.2,0 m 15.4,1.66 c 7.371,1.463 17.86,5.887 21.688,9.146 0.392,0.333 1.342,1.046 2.112,1.584 21.101,14.756 28.901,47.122 17.113,71.01 -19.401,39.313 -73.079,44.537 -98.652,9.6 -1.127,-1.54 -2.187,-2.988 -2.355,-3.217 -8.957,-12.211 -11.65,-33.784 -6.214,-49.783 1.504,-4.428 5.373,-12.362 6.208,-12.733 0.165,-0.074 0.3,-0.304 0.3,-0.512 0,-0.631 4.928,-6.794 7.444,-9.311 2.517,-2.516 8.68,-7.444 9.311,-7.444 0.208,0 0.438,-0.135 0.512,-0.3 0.371,-0.835 8.305,-4.704 12.733,-6.208 8.993,-3.056 20.178,-3.743 29.8,-1.832 m -13.138,10.64 c -0.102,0.165 0.68,0.3 1.738,0.3 1.058,0 1.84,-0.135 1.738,-0.3 -0.102,-0.165 -0.884,-0.3 -1.738,-0.3 -0.854,0 -1.636,0.135 -1.738,0.3 m 8.138,0.656 c 0,0.086 0.617,0.229 1.372,0.317 0.755,0.088 1.284,0.017 1.176,-0.157 -0.193,-0.313 -2.548,-0.461 -2.548,-0.16 m -52.533,43.711 c -0.366,0.365 -0.338,3.242 0.033,3.471 0.165,0.102 0.3,-0.697 0.3,-1.776 0,-1.079 -0.015,-1.962 -0.033,-1.962 -0.019,0 -0.154,0.12 -0.3,0.267 M 245.8,200 c 0,1.058 0.135,1.84 0.3,1.738 0.165,-0.102 0.3,-0.884 0.3,-1.738 0,-0.854 -0.135,-1.636 -0.3,-1.738 -0.165,-0.102 -0.3,0.68 -0.3,1.738 m -91.4,7.576 c 0,0.647 0.142,1.265 0.316,1.372 0.174,0.108 0.245,-0.421 0.157,-1.176 -0.197,-1.681 -0.473,-1.795 -0.473,-0.196 m 43.862,38.524 c 0.102,0.165 0.884,0.3 1.738,0.3 0.854,0 1.636,-0.135 1.738,-0.3 0.102,-0.165 -0.68,-0.3 -1.738,-0.3 -1.058,0 -1.84,0.135 -1.738,0.3 m -0.662,17.728 c -0.33,0.1 -2.31,0.356 -4.4,0.569 -5.51,0.563 -7.177,0.842 -7.426,1.245 -0.122,0.197 -0.74,0.358 -1.374,0.358 -0.634,0 -1.264,0.18 -1.4,0.4 -0.136,0.22 -0.676,0.4 -1.2,0.4 -0.524,0 -1.064,0.18 -1.2,0.4 -0.136,0.22 -0.676,0.4 -1.2,0.4 -0.524,0 -1.064,0.18 -1.2,0.4 -0.136,0.22 -0.597,0.4 -1.024,0.4 -0.427,0 -0.776,0.18 -0.776,0.4 0,0.22 -0.36,0.4 -0.8,0.4 -0.44,0 -0.8,0.18 -0.8,0.4 0,0.22 -0.36,0.4 -0.8,0.4 -0.44,0 -0.8,0.18 -0.8,0.4 0,0.22 -0.36,0.4 -0.8,0.4 -0.44,0 -0.8,0.159 -0.8,0.353 0,0.195 -0.315,0.454 -0.7,0.576 -0.723,0.229 -2.947,1.503 -3.3,1.89 -0.11,0.121 -0.83,0.658 -1.6,1.195 -3.903,2.718 -9.25,7.699 -11.5,10.713 -0.605,0.81 -1.319,1.705 -1.586,1.988 -0.267,0.283 -0.801,1.048 -1.186,1.7 -0.385,0.652 -0.842,1.185 -1.014,1.185 -0.173,0 -0.314,0.36 -0.314,0.8 0,0.44 -0.158,0.8 -0.351,0.8 -0.194,0 -0.576,0.54 -0.849,1.2 -0.273,0.66 -0.655,1.2 -0.849,1.2 -0.193,0 -0.351,0.265 -0.351,0.588 0,0.323 -0.331,1.178 -0.736,1.9 -1.227,2.186 -3.664,9.052 -3.664,10.321 0,0.655 -0.18,1.191 -0.4,1.191 -0.22,0 -0.4,0.709 -0.4,1.576 0,0.867 -0.18,1.688 -0.4,1.824 -0.22,0.136 -0.4,1.641 -0.4,3.344 0,1.703 -0.193,3.289 -0.43,3.526 -0.417,0.417 -0.398,1.238 0.255,11.03 0.129,1.925 0.401,3.5 0.604,3.5 0.204,0 0.371,0.81 0.371,1.8 0,0.99 0.18,1.8 0.4,1.8 0.22,0 0.4,0.528 0.4,1.173 0,2.077 4.824,14.027 5.663,14.027 0.185,0 0.337,0.19 0.337,0.422 0,0.553 3.136,5.194 4.072,6.025 0.4,0.356 0.728,0.829 0.728,1.052 0,1.34 9.751,10.032 14.2,12.658 1.32,0.779 2.58,1.557 2.8,1.73 0.22,0.172 0.85,0.512 1.4,0.756 0.55,0.244 1.782,0.829 2.738,1.3 0.956,0.471 2.081,0.857 2.5,0.857 0.419,0 0.762,0.18 0.762,0.4 0,0.22 0.439,0.4 0.976,0.4 0.537,0 1.088,0.18 1.224,0.4 0.136,0.22 0.687,0.4 1.224,0.4 0.537,0 0.976,0.18 0.976,0.4 0,0.22 0.619,0.4 1.376,0.4 0.757,0 1.488,0.18 1.624,0.4 0.136,0.22 1.011,0.4 1.944,0.4 0.933,0 1.867,0.164 2.076,0.364 1.084,1.04 18.901,1.047 19.96,0.009 0.209,-0.205 1.053,-0.373 1.876,-0.373 0.823,0 1.608,-0.18 1.744,-0.4 0.136,-0.22 0.867,-0.4 1.624,-0.4 0.757,0 1.376,-0.18 1.376,-0.4 0,-0.22 0.54,-0.4 1.2,-0.4 0.66,0 1.2,-0.18 1.2,-0.4 0,-0.22 0.45,-0.4 1,-0.4 0.55,0 1,-0.18 1,-0.4 0,-0.22 0.54,-0.4 1.2,-0.4 0.66,0 1.2,-0.18 1.2,-0.4 0,-0.22 0.36,-0.4 0.8,-0.4 0.44,0 0.8,-0.18 0.8,-0.4 0,-0.22 0.315,-0.413 0.7,-0.429 0.385,-0.016 1.24,-0.371 1.9,-0.789 0.66,-0.418 1.92,-1.15 2.8,-1.627 3.96,-2.148 15,-11.87 15,-13.21 0,-0.233 0.495,-0.901 1.1,-1.485 0.605,-0.583 1.355,-1.555 1.668,-2.16 0.312,-0.605 0.717,-1.1 0.9,-1.1 0.182,0 0.332,-0.193 0.332,-0.428 0,-0.235 0.506,-1.18 1.124,-2.1 1.188,-1.768 3.676,-6.84 3.676,-7.495 0,-0.213 0.159,-0.7 0.353,-1.082 2.826,-5.556 4.526,-17.715 3.687,-26.372 -0.673,-6.938 -2.413,-13.653 -4.783,-18.461 -0.471,-0.956 -0.857,-1.991 -0.857,-2.3 0,-0.309 -0.18,-0.562 -0.4,-0.562 -0.22,0 -0.4,-0.36 -0.4,-0.8 0,-0.44 -0.18,-0.8 -0.4,-0.8 -0.22,0 -0.4,-0.236 -0.4,-0.525 0,-0.288 -0.36,-0.911 -0.8,-1.383 -0.44,-0.472 -0.8,-1.136 -0.8,-1.475 0,-0.339 -0.15,-0.617 -0.332,-0.617 -0.183,0 -0.587,-0.495 -0.898,-1.1 -0.31,-0.605 -0.844,-1.37 -1.186,-1.7 -0.342,-0.33 -1.06,-1.23 -1.594,-2 -1.569,-2.258 -8.797,-9.2 -9.579,-9.2 -0.226,0 -0.411,-0.141 -0.411,-0.314 0,-0.172 -0.533,-0.629 -1.185,-1.014 -0.652,-0.385 -1.423,-0.919 -1.713,-1.186 -0.731,-0.675 -2.761,-1.891 -3.602,-2.157 -0.385,-0.122 -0.7,-0.381 -0.7,-0.576 0,-0.194 -0.36,-0.353 -0.8,-0.353 -0.44,0 -0.8,-0.18 -0.8,-0.4 0,-0.22 -0.36,-0.4 -0.8,-0.4 -0.44,0 -0.8,-0.18 -0.8,-0.4 0,-0.22 -0.36,-0.4 -0.8,-0.4 -0.44,0 -0.8,-0.18 -0.8,-0.4 0,-0.22 -0.349,-0.4 -0.776,-0.4 -0.427,0 -0.888,-0.18 -1.024,-0.4 -0.136,-0.22 -0.687,-0.4 -1.224,-0.4 -0.537,0 -0.976,-0.16 -0.976,-0.355 0,-0.195 -0.495,-0.454 -1.1,-0.575 -2.76,-0.555 -3.554,-0.753 -4.3,-1.073 -2.01,-0.861 -15.023,-2.248 -16.6,-1.769 m 10.976,1.41 c 43.006,7.77 63.171,54.122 39.211,90.13 -21.741,32.673 -71.134,33.444 -94.408,1.474 -25.275,-34.718 -5.049,-84.857 36.821,-91.282 1.32,-0.203 2.58,-0.442 2.8,-0.533 0.89,-0.365 13.318,-0.197 15.576,0.211 M 192.6,277.441 c -13.806,1.995 -26.972,11.92 -33.556,25.293 -1.968,3.997 -2.336,4.98 -3.391,9.066 -2.034,7.87 -1.261,19.732 1.772,27.2 5.241,12.906 15.298,22.57 27.847,26.761 2.759,0.921 3.84,1.186 9.059,2.218 2.646,0.523 9.083,0.548 11.363,0.044 0.938,-0.208 2.696,-0.582 3.906,-0.831 16.576,-3.417 31.586,-17.975 34.739,-33.692 0.253,-1.265 0.657,-3.245 0.897,-4.4 1.262,-6.072 -0.276,-17.534 -3.314,-24.7 -4.726,-11.151 -15.796,-21.397 -26.999,-24.993 -1.718,-0.551 -3.663,-1.199 -4.323,-1.44 -1.191,-0.435 -15.696,-0.859 -18,-0.526 m 14.4,0.751 c 28.416,5.125 44.82,32.739 35.382,59.564 -4.495,12.778 -14.804,22.91 -27.875,27.398 -25.282,8.68 -52.599,-6.724 -58.439,-32.954 -6.793,-30.514 20.534,-59.491 50.932,-54.008"
       stroke="none"
       fill="#3b3c3b"
       fill-rule="evenodd" />
    <path
       id="path6"
       d="m 194,32.463 c -4.746,0.966 -5.972,1.269 -8.2,2.023 -14.691,4.974 -26.781,18.181 -29.766,32.514 -0.275,1.32 -0.665,3.155 -0.867,4.077 -0.202,0.923 -0.367,3.845 -0.367,6.494 0,4.36 0.215,6.118 1.2,9.829 l 0.318,1.2 0.041,-1.274 c 0.023,-0.701 -0.148,-1.77 -0.378,-2.377 -0.57,-1.497 -0.549,-12.921 0.028,-15.485 0.811,-3.608 1.259,-5.245 1.63,-5.959 0.199,-0.382 0.361,-0.969 0.361,-1.305 0,-0.336 0.16,-0.923 0.356,-1.305 0.196,-0.382 0.776,-1.595 1.288,-2.695 16.258,-34.912 67.786,-33.028 82.053,3 0.218,0.55 0.555,1.313 0.75,1.695 0.194,0.382 0.353,1.136 0.353,1.676 0,0.54 0.18,1.093 0.4,1.229 1.775,1.097 -1.996,-8.025 -5.513,-13.334 -6.233,-9.41 -17.391,-17.139 -27.687,-19.178 -1.21,-0.24 -3.159,-0.628 -4.331,-0.862 -2.518,-0.504 -9.118,-0.483 -11.669,0.037 m 49.6,34.844 c 0,0.573 0.194,1.548 0.431,2.167 0.246,0.644 0.441,4.208 0.454,8.326 0.013,3.965 0.161,6.751 0.33,6.2 0.571,-1.868 0.415,-11.254 -0.24,-14.391 -0.674,-3.233 -0.975,-3.943 -0.975,-2.302 m 0.296,18.426 c -0.163,0.403 -0.296,1.247 -0.296,1.876 0,0.629 -0.18,1.255 -0.4,1.391 -0.22,0.136 -0.4,0.689 -0.4,1.229 0,0.54 -0.159,1.294 -0.353,1.676 -0.195,0.382 -0.536,1.145 -0.758,1.695 -3.242,8.009 -7.779,14.051 -14.726,19.61 -16.068,12.859 -43.568,11.216 -57.796,-3.452 -3.389,-3.493 -3.722,-3.869 -4.756,-5.358 -0.535,-0.77 -1.095,-1.49 -1.245,-1.6 -0.956,-0.702 -4.62,-8.167 -5.596,-11.4 -0.884,-2.93 -0.846,-2.847 -1.06,-2.271 -0.108,0.291 0.2,1.615 0.684,2.942 13.276,36.411 60.622,41.597 81.519,8.929 2.341,-3.66 5.888,-13.21 5.61,-15.108 -0.117,-0.802 -0.16,-0.818 -0.427,-0.159 m -49.391,68.954 c 0.609,0.092 1.509,0.09 2,-0.005 0.492,-0.095 -0.005,-0.171 -1.105,-0.168 -1.1,0.003 -1.503,0.081 -0.895,0.173 m 9.2,0 c 0.609,0.092 1.509,0.09 2,-0.005 0.492,-0.095 -0.005,-0.171 -1.105,-0.168 -1.1,0.003 -1.503,0.081 -0.895,0.173 M 232.8,168.2 c 1.417,1.43 2.667,2.6 2.777,2.6 0.11,0 -0.96,-1.17 -2.377,-2.6 -1.417,-1.43 -2.667,-2.6 -2.777,-2.6 -0.11,0 0.96,1.17 2.377,2.6 m -78.286,27.2 c 0.003,1.1 0.081,1.503 0.173,0.895 0.092,-0.609 0.09,-1.509 -0.005,-2 -0.095,-0.492 -0.171,0.005 -0.168,1.105 m 0,9.2 c 0.003,1.1 0.081,1.503 0.173,0.895 0.092,-0.609 0.09,-1.509 -0.005,-2 -0.095,-0.492 -0.171,0.005 -0.168,1.105 m 77.677,27.9 -3.191,3.3 3.3,-3.191 c 3.065,-2.963 3.482,-3.409 3.191,-3.409 -0.061,0 -1.546,1.485 -3.3,3.3 M 168,233 c 1.417,1.43 2.667,2.6 2.777,2.6 0.11,0 -0.96,-1.17 -2.377,-2.6 -1.417,-1.43 -2.667,-2.6 -2.777,-2.6 -0.11,0 0.96,1.17 2.377,2.6"
       stroke="none"
       fill="#662c34"
       fill-rule="evenodd" />
    <path
       id="path7"
       d="m 199.3,154.276 c 0.385,0.1 1.015,0.1 1.4,0 0.385,-0.101 0.07,-0.183 -0.7,-0.183 -0.77,0 -1.085,0.082 -0.7,0.183 m -8.1,0.919 c -0.409,0.26 -0.09,0.304 1,0.137 1.977,-0.303 2.314,-0.534 0.767,-0.526 -0.642,0.003 -1.437,0.178 -1.767,0.389 m 14.833,-0.252 c 0.092,0.079 0.887,0.254 1.767,0.389 1.09,0.167 1.409,0.123 1,-0.137 -0.547,-0.349 -3.155,-0.586 -2.767,-0.252 m 9.567,2.457 c 0.55,0.314 1.18,0.572 1.4,0.572 0.22,0 -0.05,-0.258 -0.6,-0.572 -0.55,-0.314 -1.18,-0.572 -1.4,-0.572 -0.22,0 0.05,0.258 0.6,0.572 m 16.799,10.8 c 1.86,1.98 3.455,3.69 3.545,3.8 0.09,0.11 -0.027,-0.16 -0.262,-0.6 -0.234,-0.44 -1.829,-2.15 -3.545,-3.8 l -3.118,-3 3.38,3.6 m -64.813,-0.3 -2.186,2.3 2.3,-2.186 c 2.137,-2.032 2.483,-2.414 2.186,-2.414 -0.062,0 -1.097,1.035 -2.3,2.3 m -12.537,23.515 c -0.137,0.358 -0.228,1.131 -0.203,1.718 0.034,0.799 0.124,0.665 0.358,-0.533 0.331,-1.7 0.258,-2.26 -0.155,-1.185 m 89.844,1.385 c 0,0.77 0.082,1.085 0.183,0.7 0.1,-0.385 0.1,-1.015 0,-1.4 -0.101,-0.385 -0.183,-0.07 -0.183,0.7 m -90.8,7.2 c 0,0.77 0.082,1.085 0.183,0.7 0.1,-0.385 0.1,-1.015 0,-1.4 -0.101,-0.385 -0.183,-0.07 -0.183,0.7 m 91.6,0 c 0,0.77 0.082,1.085 0.183,0.7 0.1,-0.385 0.1,-1.015 0,-1.4 -0.101,-0.385 -0.183,-0.07 -0.183,0.7 m -90.887,7.033 c 0.003,0.642 0.178,1.437 0.389,1.767 0.26,0.409 0.304,0.09 0.137,-1 -0.303,-1.977 -0.534,-2.314 -0.526,-0.767 m 2.022,7.967 c 0,0.22 0.258,0.85 0.572,1.4 0.314,0.55 0.572,0.82 0.572,0.6 0,-0.22 -0.258,-0.85 -0.572,-1.4 -0.314,-0.55 -0.572,-0.82 -0.572,-0.6 m 75.163,17.3 -3.391,3.5 3.5,-3.391 c 3.251,-3.15 3.682,-3.609 3.391,-3.609 -0.06,0 -1.635,1.575 -3.5,3.5 M 167.6,232.137 c 1.65,1.716 3.36,3.311 3.8,3.545 0.44,0.235 0.71,0.352 0.6,0.262 -0.11,-0.09 -1.82,-1.685 -3.8,-3.545 l -3.6,-3.38 3,3.118 m 24.5,12.939 c 0.385,0.1 1.015,0.1 1.4,0 0.385,-0.101 0.07,-0.183 -0.7,-0.183 -0.77,0 -1.085,0.082 -0.7,0.183 m 7.2,0.8 c 0.385,0.1 1.015,0.1 1.4,0 0.385,-0.101 0.07,-0.183 -0.7,-0.183 -0.77,0 -1.085,0.082 -0.7,0.183"
       stroke="none"
       fill="#9c6c34"
       fill-rule="evenodd" />
    <path
       id="path8"
       d="m 199.1,154.682 c 0.495,0.096 1.305,0.096 1.8,0 0.495,-0.095 0.09,-0.173 -0.9,-0.173 -0.99,0 -1.395,0.078 -0.9,0.173 m -6.3,0.535 c -0.865,0.192 -0.254,0.229 1.6,0.095 1.65,-0.119 3.075,-0.283 3.167,-0.364 0.291,-0.258 -3.31,-0.055 -4.767,0.269 m 10.033,-0.266 c 0.092,0.083 1.427,0.251 2.967,0.375 2.152,0.172 2.43,0.143 1.2,-0.128 -1.617,-0.356 -4.474,-0.525 -4.167,-0.247 M 189,156 c -0.504,0.217 -0.578,0.344 -0.2,0.344 0.33,0 0.96,-0.155 1.4,-0.344 0.504,-0.217 0.578,-0.344 0.2,-0.344 -0.33,0 -0.96,0.155 -1.4,0.344 m 20.8,0 c 0.44,0.189 1.07,0.344 1.4,0.344 0.378,0 0.304,-0.127 -0.2,-0.344 -0.44,-0.189 -1.07,-0.344 -1.4,-0.344 -0.378,0 -0.304,0.127 0.2,0.344 m -23.8,0.8 c -0.824,0.264 -0.859,0.326 -0.2,0.354 0.44,0.019 1.07,-0.141 1.4,-0.354 0.701,-0.453 0.214,-0.453 -1.2,0 m 27,0 c 0.44,0.189 1.07,0.344 1.4,0.344 0.378,0 0.304,-0.127 -0.2,-0.344 -0.44,-0.189 -1.07,-0.344 -1.4,-0.344 -0.378,0 -0.304,0.127 0.2,0.344 m -35.3,3.646 c -1.363,0.873 -1.805,1.46 -0.6,0.797 0.918,-0.504 2.356,-1.616 2.1,-1.624 -0.11,-0.003 -0.785,0.369 -1.5,0.827 m -4.345,2.789 c -1.924,1.528 -2.182,1.801 -1.155,1.225 1.013,-0.569 3.281,-2.455 2.955,-2.458 -0.135,-0.001 -0.945,0.554 -1.8,1.233 m -5.564,4.865 -3.191,3.3 3.3,-3.191 c 1.815,-1.754 3.3,-3.239 3.3,-3.3 0,-0.291 -0.446,0.126 -3.409,3.191 M 231.8,168 c 1.75,1.76 3.271,3.2 3.381,3.2 0.11,0 -1.231,-1.44 -2.981,-3.2 -1.75,-1.76 -3.271,-3.2 -3.381,-3.2 -0.11,0 1.231,1.44 2.981,3.2 m -68.225,4.9 c -1.443,1.831 -1.872,2.74 -0.614,1.3 1.017,-1.162 1.986,-2.6 1.753,-2.6 -0.063,0 -0.575,0.585 -1.139,1.3 M 238.2,176 c 0.341,0.66 0.711,1.2 0.821,1.2 0.11,0 -0.08,-0.54 -0.421,-1.2 -0.341,-0.66 -0.711,-1.2 -0.821,-1.2 -0.11,0 0.08,0.54 0.421,1.2 m -77.247,0.9 c -1.377,2.336 -1.467,2.535 -0.766,1.7 0.813,-0.968 1.513,-2.2 1.251,-2.2 -0.105,0 -0.323,0.225 -0.485,0.5 m -4.107,8.767 c -0.025,0.367 -0.15,0.997 -0.276,1.4 -0.218,0.695 -0.207,0.696 0.227,0.02 0.251,-0.391 0.376,-1.021 0.276,-1.4 -0.162,-0.619 -0.185,-0.621 -0.227,-0.02 m -1.017,3.762 c -0.148,0.586 -0.191,1.143 -0.097,1.237 0.095,0.094 0.292,-0.308 0.439,-0.895 0.148,-0.586 0.191,-1.143 0.097,-1.237 -0.095,-0.094 -0.292,0.308 -0.439,0.895 m 88.618,3.004 c 0.026,0.752 0.194,1.907 0.373,2.567 0.215,0.789 0.25,0.378 0.103,-1.2 -0.246,-2.645 -0.55,-3.519 -0.476,-1.367 m -89.455,1.705 c -0.153,1.431 -0.199,2.84 -0.102,3.132 0.097,0.291 0.3,-0.802 0.452,-2.429 0.151,-1.627 0.197,-3.036 0.101,-3.131 -0.095,-0.095 -0.298,0.998 -0.451,2.428 M 154.509,200 c 0,0.99 0.078,1.395 0.173,0.9 0.096,-0.495 0.096,-1.305 0,-1.8 -0.095,-0.495 -0.173,-0.09 -0.173,0.9 m 90.8,0 c 0,0.99 0.078,1.395 0.173,0.9 0.096,-0.495 0.096,-1.305 0,-1.8 -0.095,-0.495 -0.173,-0.09 -0.173,0.9 m -90.486,4.033 c 0.013,0.752 0.182,2.087 0.375,2.967 0.271,1.23 0.3,0.952 0.128,-1.2 -0.239,-2.98 -0.541,-4.042 -0.503,-1.767 m 89.762,2.152 c -0.155,1.238 -0.192,2.342 -0.082,2.452 0.11,0.11 0.327,-0.814 0.482,-2.052 0.154,-1.239 0.191,-2.342 0.081,-2.452 -0.11,-0.11 -0.327,0.813 -0.481,2.052 m -88.929,3.415 c 0,0.33 0.155,0.96 0.344,1.4 0.217,0.504 0.344,0.578 0.344,0.2 0,-0.33 -0.155,-0.96 -0.344,-1.4 -0.217,-0.504 -0.344,-0.578 -0.344,-0.2 m 88.193,0.615 c -0.137,0.358 -0.234,0.951 -0.215,1.318 0.019,0.367 0.193,0.136 0.387,-0.513 0.377,-1.262 0.244,-1.887 -0.172,-0.805 m -87.393,2.585 c 0,0.33 0.155,0.96 0.344,1.4 0.217,0.504 0.344,0.578 0.344,0.2 0,-0.33 -0.155,-0.96 -0.344,-1.4 -0.217,-0.504 -0.344,-0.578 -0.344,-0.2 m 75.338,19.019 c -2.203,2.26 -3.733,3.961 -3.4,3.78 0.74,-0.401 7.606,-7.395 7.606,-7.747 0,-0.36 0.17,-0.52 -4.206,3.967 M 167.8,232 c 1.75,1.76 3.271,3.2 3.381,3.2 0.11,0 -1.231,-1.44 -2.981,-3.2 -1.75,-1.76 -3.271,-3.2 -3.381,-3.2 -0.11,0 1.231,1.44 2.981,3.2 m 7,5.779 c 0,0.11 0.54,0.48 1.2,0.821 0.66,0.341 1.2,0.531 1.2,0.421 0,-0.11 -0.54,-0.48 -1.2,-0.821 -0.66,-0.341 -1.2,-0.531 -1.2,-0.421 m 35.2,6.239 c -0.438,0.297 -0.276,0.334 0.6,0.138 1.471,-0.329 1.79,-0.558 0.767,-0.55 -0.422,0.003 -1.037,0.189 -1.367,0.412 m -18.767,0.532 c 0.092,0.082 1.247,0.25 2.567,0.373 1.578,0.147 1.989,0.112 1.2,-0.103 -1.234,-0.335 -4.064,-0.538 -3.767,-0.27 M 205,244.8 c -1.766,0.449 0.245,0.469 2.4,0.023 l 1.6,-0.331 -1.4,0.001 c -0.77,0.001 -1.94,0.139 -2.6,0.307 m -5.9,0.682 c 0.495,0.096 1.305,0.096 1.8,0 0.495,-0.095 0.09,-0.173 -0.9,-0.173 -0.99,0 -1.395,0.078 -0.9,0.173"
       stroke="none"
       fill="#a47434"
       fill-rule="evenodd" />
    <g
       id="g11563"
       transform="translate(-0.38947977,244.69329)">
      <rect
         style="fill:#63b224;stroke-width:1.0768"
         id="rect8564"
         width="24"
         height="89.970787"
         x="188.12074"
         y="32.716652"
         rx="12"
         ry="12" />
      <rect
         style="fill:#63b224;stroke-width:0.918096"
         id="rect8564-8"
         width="22.58828"
         height="69.492088"
         x="161.49823"
         y="-119.55895"
         rx="13.383554"
         ry="13.381572"
         transform="matrix(0.71589715,0.69820575,-0.70506291,0.70914476,0,0)" />
      <rect
         style="fill:#63b224;stroke-width:0.918104"
         id="rect8564-8-6"
         width="22.588764"
         height="69.491882"
         x="-121.66687"
         y="-232.90294"
         rx="13.383842"
         ry="13.381532"
         transform="matrix(-0.69691043,0.71715818,-0.70943882,-0.70476703,0,0)" />
    </g>
  </g>
</svg>
