<?xml version="1.0" encoding="UTF-8" standalone="no"?>
<svg
   id="svg"
   version="1.1"
   width="170"
   height="400"
   viewBox="0 0 170 400"
   sodipodi:docname="traffic-light-icon-unknown.svg"
   inkscape:version="1.2.1 (9c6d41e410, 2022-07-14)"
   xmlns:inkscape="http://www.inkscape.org/namespaces/inkscape"
   xmlns:sodipodi="http://sodipodi.sourceforge.net/DTD/sodipodi-0.dtd"
   xmlns="http://www.w3.org/2000/svg"
   xmlns:svg="http://www.w3.org/2000/svg">
  <defs
     id="defs15" />
  <sodipodi:namedview
     id="namedview13"
     pagecolor="#ffffff"
     bordercolor="#000000"
     borderopacity="0.25"
     inkscape:showpageshadow="2"
     inkscape:pageopacity="0.0"
     inkscape:pagecheckerboard="0"
     inkscape:deskcolor="#d1d1d1"
     showgrid="false"
     inkscape:zoom="2.5675"
     inkscape:cx="200.19474"
     inkscape:cy="199.80526"
     inkscape:window-width="5160"
     inkscape:window-height="2054"
     inkscape:window-x="-11"
     inkscape:window-y="-11"
     inkscape:window-maximized="1"
     inkscape:current-layer="svgg" />
  <g
     id="svgg">
    <path
       id="path0"
       d="m 3.4442449,0.15138889 c -1.0139985,0.261 -1.8279973,1.10000001 -1.8279973,1.88300001 0,0.346 -0.1799997,0.629 -0.3999994,0.629 -0.21999967,0 -0.3999994,0.349 -0.3999994,0.776 0,0.427 -0.17999974,0.888 -0.39999941,1.024 -0.55499919,0.343 -0.55499919,390.4570011 0,390.8000011 0.21999967,0.136 0.39999941,0.597 0.39999941,1.024 0,0.427 0.17999973,0.776 0.3999994,0.776 0.2199997,0 0.3999994,0.283 0.3999994,0.629 0,2.106 -5.7079916,1.971 83.1998774,1.971 88.907865,0 83.199875,0.135 83.199875,-1.971 0,-0.346 0.18,-0.629 0.4,-0.629 0.22,0 0.4,-0.349 0.4,-0.776 0,-0.427 0.18,-0.888 0.4,-1.024 0.266,-0.164 0.4,-65.73 0.4,-195.4 0,-129.670001 -0.134,-195.2360011 -0.4,-195.4000011 -0.22,-0.136 -0.4,-0.597 -0.4,-1.024 0,-0.427 -0.18,-0.776 -0.4,-0.776 -0.22,0 -0.4,-0.283 -0.4,-0.629 0,-2.10500001 5.63499,-1.96600001 -82.570876,-2.02700001 -44.675934,-0.03 -81.5758797,0.034 -82.0008791,0.144 M 155.81602,199.86339 v 187.4 H 84.816125 13.81623 l -0.102,-187 c -0.057,-102.850001 -0.017,-187.225001 0.088,-187.501001 0.150999,-0.4 14.581978,-0.481 71.101895,-0.4 l 70.911895,0.101 V 199.86339 M 78.016135,19.949389 c -1.429998,0.206 -3.769994,0.649 -5.199992,0.983 -1.429998,0.335 -3.186996,0.701 -3.903995,0.814 -0.716999,0.113 -1.401998,0.366 -1.522997,0.561 -0.121,0.196 -0.571999,0.356 -1.001999,0.356 -0.429999,0 -1.093998,0.165 -1.475998,0.366 -0.381999,0.202 -1.414998,0.667 -2.294996,1.035 -14.603979,6.098 -26.507961,18.462 -31.773953,32.999 -0.279,0.77 -0.648,1.76 -0.820999,2.2 -0.172,0.44 -0.504,1.52 -0.737999,2.4 -0.233,0.88 -0.542999,2.05 -0.687999,2.6 -1.053999,3.974 -1.571998,17.571 -0.837999,22 0.867999,5.242 2.546996,10.478 5.129993,16.000001 3.650994,7.806 11.203983,17.012 17.455974,21.276 1.029998,0.702 1.932997,1.423 2.005997,1.601 0.074,0.178 0.373999,0.323 0.666999,0.323 0.292999,0 0.592999,0.135 0.666999,0.3 0.167,0.376 2.296996,1.675 3.232995,1.971 0.385,0.122 0.699999,0.381 0.699999,0.576 0,0.194 0.252,0.353 0.558999,0.353 0.308,0 1.522998,0.503 2.699996,1.117 7.778989,4.058 22.195968,6.306 31.094954,4.85 3.544995,-0.58 9.653986,-1.927 10.645986,-2.347 0.44,-0.187 1.43,-0.56 2.2,-0.829 0.76999,-0.269 2.51399,-1.007 3.87499,-1.64 1.361,-0.633 2.589,-1.151 2.728,-1.151 0.139,0 1.03799,-0.54 1.99699,-1.2 0.959,-0.66 1.937,-1.2 2.172,-1.2 0.235,0 0.428,-0.18 0.428,-0.4 0,-0.22 0.236,-0.4 0.525,-0.4 0.288,0 0.874,-0.315 1.301,-0.7 0.427,-0.385 1.76599,-1.453 2.97599,-2.373 1.868,-1.421 4.76599,-4.199 8.20699,-7.865 0.444,-0.474 1.246,-1.492 1.78,-2.262 0.535,-0.77 1.073,-1.49 1.195,-1.6 1.17799,-1.057 5.58399,-9.552 7.01399,-13.523001 10.44598,-29.013 -4.544,-62.914 -32.39796,-73.272 -0.44,-0.164 -1.25,-0.49 -1.79999,-0.725 -0.55,-0.235 -1.72,-0.644 -2.6,-0.909 -0.88,-0.266 -2.05,-0.624 -2.599997,-0.797 -0.975998,-0.306 -3.510995,-0.757 -8.832987,-1.571 -3.127995,-0.479 -9.140986,-0.439 -12.766981,0.083 m 12.199982,11.512 c 1.759997,0.184 3.964994,0.53 4.899993,0.768 0.934998,0.239 2.374996,0.588 3.199995,0.776 0.824999,0.188 2.219995,0.66 3.099995,1.048 5.16099,2.277 6.19999,2.782 6.19999,3.013 0,0.14 0.78,0.645 1.733,1.121 0.953,0.476 2.078,1.249 2.5,1.718 0.42199,0.469 1.06299,0.966 1.42499,1.105 0.915,0.352 6.24699,5.5 7.93899,7.665 0.768,0.983 1.533,1.848 1.7,1.921 0.167,0.074 0.303,0.329 0.303,0.569 0,0.239 0.247,0.719 0.548,1.067 0.862,0.993 2.65199,4.398 2.65199,5.045 0,0.322 0.135,0.587 0.3,0.589 0.401,0.004 1.3,1.978 1.3,2.853 0,0.383 0.18,0.808 0.4,0.944 0.22,0.136 0.4,0.676 0.4,1.2 0,0.524 0.18,1.064 0.4,1.2 0.22,0.136 0.4,0.856 0.4,1.6 0,0.744 0.18,1.464 0.4,1.6 0.22,0.136 0.4,1.576 0.4,3.2 0,1.624 0.18,3.064 0.4,3.2 0.221,0.136 0.4,1.93 0.4,4 0,2.07 -0.179,3.864 -0.4,4 -0.22,0.136 -0.4,1.396 -0.4,2.8 0,1.404 -0.18,2.664 -0.4,2.8 -0.22,0.136 -0.4,0.837 -0.4,1.557 0,0.72 -0.123,1.433 -0.274,1.584 -0.391,0.39 -1.313,3.133 -1.32,3.926 -0.003,0.366 -0.145,0.726 -0.315,0.8 -0.17,0.073 -0.997,1.573 -1.838,3.333 -0.84099,1.760001 -1.64699,3.290001 -1.79099,3.400001 -0.448,0.342 -2.062,2.751 -2.062,3.078 0,0.489 -8.93599,9.322 -9.43099,9.322 -0.245,0 -0.77099,0.36 -1.16899,0.8 -0.398,0.44 -0.944,0.8 -1.213,0.8 -0.269,0 -0.726,0.286 -1.016,0.635 -0.732,0.882 -6.55499,3.767 -8.97099,4.443 -5.42599,1.52 -6.365988,1.722 -7.995986,1.722 -0.965999,0 -1.867997,0.18 -2.003997,0.4 -0.327999,0.531 -10.471985,0.531 -10.799984,0 -0.136,-0.22 -1.037999,-0.4 -2.003997,-0.4 -1.636998,0 -2.839996,-0.261 -7.995988,-1.733 -2.172997,-0.62 -7.861989,-3.437 -8.972987,-4.443 -0.38,-0.343 -0.872999,-0.624 -1.096998,-0.624 -0.223,0 -0.731999,-0.36 -1.129999,-0.8 -0.397999,-0.44 -0.923998,-0.8 -1.168998,-0.8 -1.003999,0 -10.630984,-10.445 -10.630984,-11.535 0,-0.202 -0.26,-0.583 -0.577,-0.846 -1.344998,-1.116 -5.822991,-11.515001 -5.822991,-13.522001 0,-0.467 -0.18,-0.961 -0.399999,-1.097 -0.22,-0.136 -0.4,-1.396 -0.4,-2.8 0,-1.404 -0.18,-2.664 -0.399999,-2.8 -0.221,-0.136 -0.4,-1.93 -0.4,-4 0,-2.07 0.179,-3.864 0.4,-4 0.219999,-0.136 0.399999,-1.576 0.399999,-3.2 0,-1.624 0.18,-3.064 0.4,-3.2 0.219999,-0.136 0.399999,-0.831 0.399999,-1.544 0,-0.713 0.152,-1.467 0.337,-1.676 0.185999,-0.209 0.645999,-1.395 1.022998,-2.635 0.377999,-1.241 0.939999,-2.591 1.249998,-3 0.311,-0.41 0.569999,-1.06 0.576999,-1.445 0.007,-0.385 0.172,-0.7 0.366,-0.7 0.194999,0 0.468999,-0.315 0.609999,-0.7 1.215998,-3.319 10.499984,-14.5 12.040982,-14.5 0.251,0 0.892999,-0.465 1.425998,-1.034 0.533999,-0.569 1.723997,-1.379 2.645996,-1.799 0.920999,-0.421 1.779998,-0.933 1.906997,-1.139 0.217,-0.352 2.339997,-1.425 6.016991,-3.041 0.879999,-0.386 2.274997,-0.857 3.099996,-1.045 0.824999,-0.188 2.264997,-0.541 3.199995,-0.785 3.703995,-0.965 10.554985,-1.297 15.699977,-0.759 M 77.416136,142.65039 c -0.439999,0.196 -1.447998,0.369 -2.239997,0.385 -0.791999,0.015 -1.961997,0.187 -2.599996,0.381 -0.637999,0.195 -1.969997,0.579 -2.959996,0.854 -6.127991,1.703 -16.460975,6.518 -17.999973,8.389 -0.11,0.133 -0.829999,0.677 -1.599998,1.208 -3.020995,2.083 -9.112986,8.175 -11.195983,11.196 -0.530999,0.77 -1.074999,1.49 -1.207998,1.6 -1.677998,1.38 -6.78499,12.019 -8.065989,16.8 -0.205999,0.77 -0.551999,2.03 -0.768998,2.8 -5.737992,20.395 3.983994,47.673 21.238968,59.594 0.769999,0.532 1.489998,1.073 1.599998,1.201 2.482996,2.902 16.679975,8.697 24.199964,9.878 2.594996,0.408 15.412978,0.407 17.999974,-0.001 2.210996,-0.349 7.946988,-1.767 9.199988,-2.275 0.44,-0.178 2.06,-0.804 3.59999,-1.391 13.66598,-5.21 26.39596,-17.94 31.60596,-31.606 0.587,-1.54 1.21299,-3.16 1.39099,-3.6 3.077,-7.596 3.579,-23.544 1.033,-32.8 -5.66699,-20.597 -20.56797,-35.501 -41.229937,-41.235 -4.947992,-1.374 -19.90797,-2.31 -21.999967,-1.378 m 15.693977,12.054 c 3.912994,0.904 5.184992,1.284 8.305987,2.481 1.76,0.675 3.82999,1.582 4.59999,2.016 0.77,0.433 1.76,0.989 2.2,1.235 6.04099,3.379 12.69598,10.036 16.02398,16.027 3.18999,5.744 4.25599,8.57 5.78799,15.346 0.605,2.674 0.618,14.878 0.017,16 -0.236,0.441 -0.429,1.255 -0.429,1.809 0,0.554 -0.157,1.421 -0.349,1.926 -0.192,0.506 -0.564,1.639 -0.826,2.519 -2.109,7.066 -7.82299,15.681 -13.58198,20.478 -5.01099,4.175 -10.79098,7.439 -15.842976,8.947 -0.879999,0.262 -2.012997,0.634 -2.518996,0.826 -0.504999,0.192 -1.371998,0.349 -1.925997,0.349 -0.554,0 -1.367998,0.193 -1.808998,0.429 -1.121998,0.601 -13.32598,0.588 -15.999976,-0.017 -6.77599,-1.532 -9.601986,-2.598 -15.345978,-5.788 -5.990991,-3.328 -12.647981,-9.983 -16.026976,-16.024 -0.246,-0.44 -0.801999,-1.43 -1.234998,-2.2 -0.953999,-1.695 -3.088996,-7.193 -3.649995,-9.4 -1.126998,-4.431 -1.287998,-5.872 -1.287998,-11.506 0,-4.089 0.207,-7.016 0.628999,-8.894 0.346,-1.54 0.771999,-3.43 0.945999,-4.2 0.540999,-2.388 3.509995,-9.101 4.421993,-10 0.112,-0.11 0.428,-0.605 0.702999,-1.1 0.275,-0.495 0.724999,-1.302 0.999999,-1.794 1.679997,-3.002 9.203986,-10.526 12.205982,-12.206 0.491999,-0.275 1.298998,-0.725 1.793997,-1 0.494999,-0.275 0.989999,-0.591 1.099999,-0.703 0.892998,-0.906 7.588988,-3.871 9.999985,-4.428 0.769999,-0.178 2.479996,-0.58 3.799994,-0.894 2.957996,-0.704 14.582979,-0.861 17.293975,-0.234 m -12.293982,110.202 c -22.626967,1.852 -43.871935,17.731 -49.983926,37.357 -0.308,0.99 -0.683999,1.98 -0.833999,2.2 -0.151,0.22 -0.397,0.94 -0.545999,1.6 -0.15,0.66 -0.455,1.92 -0.678999,2.8 -1.810998,7.109 -1.819998,19.984 -0.019,27.2 0.705999,2.824 0.921998,3.583 1.254998,4.4 0.179,0.44 0.546999,1.43 0.815999,2.2 4.539993,12.984 15.259977,24.802 28.669957,31.604 2.156997,1.094 4.199994,1.991 4.540994,1.993 0.340999,0.001 0.790998,0.152 0.999998,0.333 0.209,0.182 1.189998,0.563 2.179997,0.847 0.989998,0.284 2.249997,0.656 2.799996,0.827 0.979998,0.304 2.967995,0.702 7.823988,1.565 3.118996,0.555 10.832984,0.555 13.95198,0 4.855993,-0.863 6.84399,-1.261 7.823988,-1.565 0.549997,-0.171 1.809997,-0.543 2.799997,-0.827 0.99,-0.284 1.971,-0.665 2.18,-0.847 0.209,-0.181 0.63199,-0.33 0.93899,-0.33 0.308,0 2.117,-0.754 4.02,-1.676 32.03895,-15.515 42.68594,-54.888 22.90696,-84.711 -3.34099,-5.038 -14.17897,-15.613 -16.00097,-15.613 -0.208,0 -0.438,-0.135 -0.512,-0.3 -0.167,-0.376 -2.297,-1.675 -3.233,-1.971 -0.385,-0.122 -0.7,-0.381 -0.7,-0.576 0,-0.194 -0.26499,-0.353 -0.58799,-0.353 -0.323,0 -1.178,-0.332 -1.9,-0.737 -6.31499,-3.547 -20.012972,-6.133 -28.711959,-5.42 m 9.399986,11.955 c 11.894983,1.49 19.240973,5.176 27.599963,13.852 4.05399,4.208 8.59998,10.609 8.59998,12.111 0,0.263 0.156,0.65 0.346,0.859 0.481,0.528 2.27,5.452 3.117,8.58 1.59,5.873 0.511,23.78 -1.509,25.028 -0.195,0.121 -0.354,0.53 -0.354,0.91 0,3.862 -11.87698,19.88 -15.62198,21.069 -0.428,0.136 -0.77799,0.403 -0.77799,0.593 0,0.19 -0.359,0.46 -0.798,0.599 -0.438,0.139 -1.038,0.495 -1.333,0.789 -0.76,0.76 -6.85399,3.778 -9.46899,4.69 -13.098978,4.565 -28.702955,2.737 -39.859939,-4.67 -0.846998,-0.563 -1.882997,-1.244 -2.302996,-1.515 -16.843975,-10.875 -24.240965,-38.475 -15.002978,-55.988 0.201,-0.382 0.365999,-0.889 0.365999,-1.128 0,-0.238 0.54,-1.218 1.199999,-2.177 0.659999,-0.959 1.199998,-1.868 1.199998,-2.019 0,-0.694 4.657993,-6.297 7.665988,-9.223 3.944995,-3.836 7.20299,-6.145 11.533983,-8.175 4.095994,-1.92 5.258993,-2.383 5.986992,-2.383 0.420999,0 0.864998,-0.16 0.985998,-0.356 0.800999,-1.296 12.373982,-2.204 18.426973,-1.446"
       stroke="none"
       fill="#241c24"
       fill-rule="evenodd" />
    <path
       id="path1"
       d="m 80.416131,32.304389 c -8.934986,1.408 -13.24098,2.863 -19.401971,6.558 -5.021993,3.013 -14.197979,12.038 -14.197979,13.966 0,0.16 -0.506999,1.043 -1.127998,1.963 -1.326998,1.968 -2.871996,5.219 -2.871996,6.044 0,0.319 -0.18,0.692 -0.4,0.828 -0.219999,0.136 -0.399999,0.676 -0.399999,1.2 0,0.524 -0.16,1.052 -0.355999,1.173 -0.361,0.223 -0.429,0.523 -1.311998,5.827 -0.564,3.39 -0.675999,11.19 -0.204,14.2 0.503999,3.217 1.830997,8.193 2.341996,8.78 0.181,0.209 0.33,0.625 0.33,0.925 0,2.402 5.424992,10.722001 9.994985,15.327001 21.865968,22.037 58.172918,16.233 72.484898,-11.587001 0.83599,-1.626 1.51999,-3.173 1.51999,-3.439 0,-0.266 0.271,-1.026 0.602,-1.689 2.547,-5.107 3.238,-17.915 1.371,-25.417 -0.81,-3.256 -1.327,-4.917 -1.643,-5.28 -0.181,-0.209 -0.33,-0.705 -0.33,-1.102 0,-2.09 -5.70899,-10.926 -9.72398,-15.051 -9.11599,-9.365 -24.943966,-15.073 -36.675949,-13.226"
       stroke="none"
       fill="#fb244b"
       fill-rule="evenodd"
       style="fill:#543c3c;fill-opacity:1" />
    <path
       id="path2"
       d="m 14.516229,13.328389 c -0.853999,0.344 -0.720999,372.764001 0.132999,373.092001 0.826999,0.318 139.506792,0.318 140.333792,0 0.972,-0.373 0.972,-372.741001 0,-373.114001 -0.757,-0.291 -139.746792,-0.269 -140.466791,0.022 m 78.875883,6.177 c 6.155991,1.121 11.193988,2.621 14.761978,4.394 0.846,0.42 1.791,0.764 2.1,0.764 0.309,0 0.562,0.18 0.562,0.4 0,0.22 0.36,0.4 0.8,0.4 0.43999,0 0.79999,0.159 0.79999,0.353 0,0.195 0.315,0.457 0.7,0.583 3.994,1.307 14.41498,10.22 18.08598,15.469 0.536,0.767 1.096,1.485 1.24299,1.595 1.012,0.757 5.56,9.365 6.76199,12.8 0.269,0.77 0.635,1.76 0.813,2.2 3.324,8.223 4.002,22.5 1.538,32.4 -3.12599,12.562001 -10.92598,24.980001 -19.94197,31.745001 -0.77,0.578 -1.49,1.155 -1.6,1.283 -0.449,0.521 -5.18399,3.572 -5.54499,3.572 -0.213,0 -0.448,0.144 -0.522,0.319 -0.16,0.383 -6.04999,3.224 -9.13298,4.405 -15.121982,5.794 -36.85895,3.846 -49.071932,-4.396 -0.919999,-0.62 -1.791998,-1.128 -1.937997,-1.128 -1.073999,0 -8.761987,-6.462 -12.193982,-10.25 -4.604994,-5.082 -9.695986,-13.349 -11.178984,-18.150001 -0.305999,-0.99 -0.704999,-1.971 -0.886999,-2.18 -0.180999,-0.209 -0.329999,-0.783 -0.329999,-1.276 0,-0.493 -0.18,-1.008 -0.399999,-1.144 -0.22,-0.136 -0.4,-0.831 -0.4,-1.544 0,-0.713 -0.162,-1.467 -0.358999,-1.676 -1.673998,-1.772 -1.673998,-24.588 0,-26.36 0.196999,-0.209 0.358999,-0.963 0.358999,-1.676 0,-0.713 0.18,-1.408 0.4,-1.544 0.219999,-0.136 0.399999,-0.599 0.399999,-1.029 0,-0.43 0.18,-1.139 0.399999,-1.576 0.22,-0.437 0.579999,-1.153 0.799999,-1.59 0.22,-0.437 0.4,-1.042 0.4,-1.344 0,-0.519 1.966997,-4.507 3.973994,-8.061 0.852998,-1.509 4.890993,-7.096 5.804991,-8.031 0.232,-0.237 0.964999,-1.047 1.629998,-1.8 1.927997,-2.182 9.735985,-8.769 10.394984,-8.769 0.139,0 1.003999,-0.511 1.923998,-1.135 0.919998,-0.624 2.256996,-1.388 2.971995,-1.697 0.714999,-0.31 1.299998,-0.699 1.299998,-0.866 0,-0.166 0.253,-0.302 0.561999,-0.302 0.309,0 1.253999,-0.344 2.099997,-0.764 3.548995,-1.764 9.107987,-3.429 14.537979,-4.356 3.140995,-0.535 14.507979,-0.561 17.375974,-0.038 m 0.697999,122.812001 c 0.37,0.19 1.166999,0.346 1.770998,0.346 0.603999,0 1.650997,0.168 2.326996,0.373 0.674999,0.205 2.037995,0.586 3.027995,0.845 0.99,0.26 2.205,0.633 2.7,0.828 0.495,0.195 1.30499,0.505 1.79999,0.69 14.90398,5.572 27.81496,18.485 33.55695,33.564 0.189,0.495 0.498,1.305 0.688,1.8 0.746,1.949 1.255,3.794 1.255,4.548 0,0.436 0.162,0.963 0.359,1.172 1.713,1.813 1.713,24.947 0,26.76 -0.197,0.209 -0.359,0.876 -0.359,1.481 0,0.606 -0.202,1.605 -0.45,2.22 -0.498,1.24 -0.975,2.458 -1.493,3.819 -5.76799,15.146 -18.81297,28.209 -33.45695,33.504 -0.44,0.159 -1.24999,0.471 -1.79999,0.693 -0.55,0.222 -1.503,0.606 -2.119,0.853 -0.615,0.248 -1.614,0.45 -2.219997,0.45 -0.604999,0 -1.271998,0.162 -1.480998,0.359 -0.990998,0.936 -12.374981,1.712 -18.079973,1.233 -6.281991,-0.528 -8.225988,-0.804 -8.679987,-1.233 -0.209,-0.197 -0.735999,-0.359 -1.171999,-0.359 -0.787998,0 -2.742996,-0.551 -4.647993,-1.309 -0.549999,-0.219 -1.359998,-0.522 -1.799997,-0.672 -13.92898,-4.779 -27.748959,-18.625 -33.454951,-33.519 -0.189999,-0.495 -0.503999,-1.305 -0.698999,-1.8 -0.337999,-0.857 -0.893998,-2.831 -1.662997,-5.9 -1.898997,-7.584 -1.738998,-19.498 0.373999,-27.8 0.224,-0.88 0.526999,-2.098 0.672999,-2.706 0.146,-0.608 0.424,-1.204 0.617999,-1.324 0.193,-0.119 0.352,-0.569 0.352,-0.999 0,-0.43 0.157,-1.094 0.348999,-1.476 0.192,-0.382 1.264998,-2.597 2.384997,-4.922 5.334992,-11.081 14.957978,-20.704 26.038961,-26.039 2.324997,-1.12 4.539994,-2.193 4.921993,-2.385 0.382,-0.192 1.045999,-0.349 1.475998,-0.349 0.429999,0 0.879999,-0.159 0.998998,-0.352 0.12,-0.194 0.715999,-0.472 1.323998,-0.618 0.608,-0.146 1.825998,-0.449 2.705997,-0.673 3.277995,-0.834 5.696991,-1.236 9.199986,-1.527 4.216994,-0.35 13.69998,-0.076 14.673978,0.424 m -16.073976,12.746 c -0.823999,0.264 -0.858999,0.326 -0.2,0.354 0.44,0.019 1.069999,-0.141 1.399998,-0.354 0.700999,-0.453 0.214,-0.453 -1.199998,0 m 12.399982,-0.018 c 0.329999,0.223 0.944998,0.409 1.366998,0.412 1.022998,0.008 0.703999,-0.221 -0.766999,-0.55 -0.875999,-0.196 -1.037999,-0.159 -0.599999,0.138 m -31.104954,7.429 c -1.151999,0.775 -2.094997,1.497 -2.094997,1.604 0,0.106 0.989998,-0.464 2.199996,-1.268 1.921998,-1.276 2.486997,-1.747 2.094997,-1.747 -0.058,0 -1.047998,0.635 -2.199996,1.411 m 50.337927,-0.081 c 0.092,0.071 0.797,0.537 1.567,1.036 l 1.39999,0.907 -1.12199,-1.036 c -0.618,-0.57 -1.323,-1.037 -1.567,-1.037 -0.244,0 -0.369,0.058 -0.278,0.13 m -56.808918,5.494 c -1.772997,1.774 -3.223995,3.386 -3.223995,3.583 0,0.197 0.832999,-0.532 1.850997,-1.621 1.018999,-1.088 2.634996,-2.7 3.590995,-3.582 0.956998,-0.882 1.574998,-1.604 1.372998,-1.604 -0.201,0 -1.816997,1.451 -3.590995,3.224 m 62.040908,-1.556 c 1.026,0.953 2.619,2.542 3.54,3.532 l 1.67399,1.8 -1.62899,-2.044 c -0.897,-1.124 -2.49,-2.713 -3.54,-3.532 l -1.91,-1.488 1.865,1.732 m -67.1779,7.632 c -1.459998,2.156 -1.774998,2.7 -1.566998,2.7 0.092,0 0.823999,-0.99 1.626998,-2.2 0.803998,-1.21 1.377998,-2.2 1.275998,-2.2 -0.101,0 -0.702999,0.765 -1.335998,1.7 m 73.51189,-0.6 c 0.523,0.715 1.014,1.3 1.09,1.3 0.304,0 -0.688,-1.5 -1.344,-2.033 -0.432,-0.351 -0.335,-0.071 0.254,0.733 m -81.152879,19.367 c -0.025,0.367 -0.15,0.997 -0.276,1.4 -0.217999,0.695 -0.206999,0.696 0.227,0.02 0.251,-0.391 0.375999,-1.021 0.276,-1.4 -0.162,-0.619 -0.185,-0.621 -0.227,-0.02 m -0.202,13.333 c 0.329,1.471 0.557999,1.79 0.549999,0.767 -0.003,-0.422 -0.188999,-1.037 -0.411999,-1.367 -0.297,-0.438 -0.333999,-0.276 -0.138,0.6 m 89.604869,-0.385 c -0.137,0.358 -0.234,0.951 -0.215,1.318 0.019,0.367 0.193,0.136 0.387,-0.513 0.377,-1.262 0.244,-1.887 -0.172,-0.805 m -6.03499,17.22 c -0.373,0.569 -0.587,1.126 -0.475,1.237 0.111,0.111 0.49,-0.354 0.842,-1.035 0.778,-1.504 0.563,-1.622 -0.367,-0.202 m -76.21389,2.076 c 0,0.244 0.467,0.949 1.036999,1.567 l 1.035998,1.122 -0.906998,-1.4 c -1.180999,-1.823 -1.165999,-1.806 -1.165999,-1.289 m 73.99889,1.389 c -0.589,0.804 -0.686,1.084 -0.254,0.733 0.656,-0.533 1.648,-2.033 1.344,-2.033 -0.076,0 -0.567,0.585 -1.09,1.3 m -4.79199,5.424 c -2.508,2.563 -3.06,3.257 -1.628,2.048 1.851,-1.562 6.02599,-6.019 5.57299,-5.948 -0.084,0.013 -1.85899,1.768 -3.94499,3.9 m -65.382905,-1.814 c 0.818999,1.05 2.407996,2.643 3.531995,3.54 l 2.043997,1.629 -1.799998,-1.674 c -0.989998,-0.921 -2.578996,-2.514 -3.531995,-3.54 l -1.731997,-1.865 1.487998,1.91 m 6.54299,6.035 c 0.532999,0.656 2.032997,1.648 2.032997,1.344 0,-0.076 -0.584999,-0.567 -1.299998,-1.09 -0.803999,-0.589 -1.083998,-0.686 -0.732999,-0.254 m 53.432925,0.505 c -0.719,0.612 -0.866,0.855 -0.367,0.607 0.733,-0.364 2.10799,-1.681 1.71599,-1.643 -0.082,0.008 -0.68899,0.474 -1.34899,1.036 m -3.4,2.183 -1,0.815 1.3,-0.634 c 0.715,-0.349 1.3,-0.72 1.3,-0.824 0,-0.398 -0.637,-0.142 -1.6,0.643 m -17.199973,5.985 c -0.438,0.297 -0.276,0.334 0.599999,0.138 1.470998,-0.329 1.789997,-0.558 0.766999,-0.55 -0.422,0.003 -1.036999,0.189 -1.366998,0.412 m 0.599999,19.824 c 4.128994,0.379 10.837984,1.921 14.399974,3.309 4.198,1.635 11.72999,5.651 13.07399,6.97 0.28899,0.285 1.33599,1.082 2.32599,1.773 17.37698,12.121 26.16496,38.219 20.44297,60.706 -0.224,0.88 -0.527,2.098 -0.673,2.706 -0.146,0.608 -0.424,1.204 -0.618,1.324 -0.193,0.119 -0.352,0.569 -0.352,0.999 0,0.43 -0.163,1.094 -0.362,1.476 -0.19799,0.382 -0.98299,2.045 -1.74199,3.695 -1.308,2.842 -4.49,8.369 -5.067,8.8 -0.14699,0.11 -0.70699,0.828 -1.24299,1.595 -3.167,4.528 -11.63099,12.146 -16.31398,14.684 -0.81,0.439 -2.152,1.186 -2.98399,1.659 -0.832,0.474 -1.777,0.862 -2.1,0.862 -0.323,0 -0.588,0.18 -0.588,0.4 0,0.22 -0.272,0.4 -0.605,0.4 -0.333,0 -0.918,0.159 -1.3,0.353 -0.658,0.335 -1.767,0.803 -3.79499,1.601 -1.543,0.608 -6.383993,1.807 -9.723988,2.409 -3.105996,0.56 -14.664979,0.567 -17.444975,0.011 -1.171998,-0.234 -3.120995,-0.613 -4.330993,-0.842 -1.209998,-0.229 -2.559996,-0.552 -2.999996,-0.718 -0.439999,-0.167 -1.519997,-0.52 -2.399996,-0.785 -2.991996,-0.901 -9.576986,-4.009 -12.071982,-5.697 -0.919999,-0.623 -1.772998,-1.132 -1.895998,-1.132 -0.643999,0 -5.681991,-4.187 -8.865987,-7.369 -6.23299,-6.228 -11.329983,-13.993 -13.41198,-20.431 -0.283999,-0.88 -0.660999,-1.771 -0.835999,-1.98 -0.174999,-0.209 -0.317999,-0.783 -0.317999,-1.276 0,-0.493 -0.18,-1.008 -0.399999,-1.144 -0.22,-0.136 -0.4,-0.831 -0.4,-1.544 0,-0.713 -0.162,-1.467 -0.358999,-1.676 -1.686998,-1.786 -1.686998,-24.574 0,-26.36 0.196999,-0.209 0.358999,-0.963 0.358999,-1.676 0,-0.713 0.18,-1.408 0.4,-1.544 0.219999,-0.136 0.399999,-0.651 0.399999,-1.144 0,-0.493 0.143,-1.067 0.317999,-1.276 0.175,-0.209 0.554,-1.1 0.840999,-1.98 2.348997,-7.195 14.887978,-24.6 17.721974,-24.6 0.291,0 0.718999,-0.321 2.852996,-2.138 2.635996,-2.244 10.218985,-6.074 15.065978,-7.609 6.39299,-2.023 8.612987,-2.497 14.199979,-3.029 3.522995,-0.335 5.124992,-0.303 10.799984,0.218 m -10.999984,12.968 c -29.303957,2.914 -48.085929,33.469 -37.488945,60.99 12.926981,33.574 57.278916,39.702 78.743883,10.88 2.104,-2.826 6.34499,-10.741 6.34499,-11.843 0,-0.246 0.164,-0.76 0.364,-1.142 2.635,-5.033 2.664,-21.084 0.05,-27.895 -7.09399,-18.483 -20.60897,-29.231 -39.013941,-31.027 -4.014994,-0.392 -4.714993,-0.389 -8.999987,0.037"
       stroke="none"
       fill="#434541"
       fill-rule="evenodd" />
    <path
       id="path3"
       d="m 79.489133,154.92339 c -0.165,0.165 -1.238998,0.432 -2.386997,0.593 -2.651996,0.371 -4.273993,0.72 -5.285992,1.137 -0.439999,0.181 -1.429998,0.556 -2.199997,0.833 -12.003982,4.322 -22.854966,15.173 -27.17696,27.177 -0.276999,0.77 -0.651999,1.76 -0.832998,2.2 -0.348,0.844 -0.577999,1.821 -1.270998,5.4 -0.785999,4.052 -0.414,16.805 0.517999,17.78 0.199999,0.209 0.362999,0.974 0.362999,1.7 0,0.726 0.141,1.32 0.313,1.32 0.172,0 0.562999,0.855 0.868999,1.9 0.304999,1.045 0.884998,2.49 1.286998,3.212 0.401999,0.722 0.730999,1.577 0.730999,1.9 0,0.323 0.158999,0.588 0.352999,0.588 0.195,0 0.453999,0.315 0.575999,0.7 0.233,0.737 1.510998,2.959 1.896997,3.3 0.125,0.11 0.785999,1.022 1.468998,2.027 2.988996,4.394 11.178984,11.477 14.604979,12.631 0.384999,0.129 0.699999,0.394 0.699999,0.589 0,0.194 0.252999,0.353 0.561999,0.353 0.308999,0 1.343998,0.386 2.299996,0.857 0.955999,0.471 2.187997,1.032 2.737996,1.246 0.55,0.215 1.312998,0.549 1.694998,0.744 0.381999,0.194 1.225998,0.353 1.875997,0.353 0.649999,0 1.292998,0.18 1.428998,0.4 0.136,0.22 1.125998,0.4 2.199997,0.4 1.073998,0 2.063997,0.18 2.199997,0.4 0.135999,0.22 0.686999,0.4 1.223998,0.4 0.536999,0 0.975998,-0.18 0.975998,-0.4 0,-0.22 0.27,-0.4 0.599999,-0.4 0.33,0 0.6,0.18 0.6,0.4 0,0.222 1.066998,0.4 2.399996,0.4 1.332998,0 2.399996,-0.178 2.399996,-0.4 0,-0.578 1.101999,-0.493 1.300999,0.1 0.134999,0.4 0.446999,0.4 1.561997,0 0.766999,-0.275 2.134997,-0.5 3.041996,-0.5 0.905998,0 1.758997,-0.18 1.894997,-0.4 0.136,-0.22 0.778999,-0.4 1.428998,-0.4 0.649999,0 1.493998,-0.159 1.875997,-0.353 0.686999,-0.35 2.045995,-0.92 3.794995,-1.593 1.954,-0.753 3.37199,-1.478 4.97199,-2.542 0.92,-0.611 1.788,-1.112 1.93,-1.112 1.648,0 13.79798,-12.15 13.79798,-13.798 0,-0.142 0.501,-1.01 1.112,-1.93 1.221,-1.835 1.82499,-3.096 3.38799,-7.072 0.216,-0.55 0.552,-1.313 0.747,-1.695 0.194,-0.382 0.353,-1.226 0.353,-1.876 0,-0.65 0.18,-1.293 0.4,-1.429 0.22,-0.136 0.4,-0.989 0.4,-1.895 0,-0.907 0.225,-2.275 0.5,-3.042 0.4,-1.115 0.4,-1.427 0,-1.562 -0.593,-0.199 -0.678,-1.301 -0.1,-1.301 0.222,0 0.4,-1.067 0.4,-2.4 0,-1.333 -0.178,-2.4 -0.4,-2.4 -0.22,0 -0.4,-0.27 -0.4,-0.6 0,-0.33 0.18,-0.6 0.4,-0.6 0.22,0 0.4,-0.439 0.4,-0.976 0,-0.537 -0.18,-1.088 -0.4,-1.224 -0.22,-0.136 -0.4,-1.126 -0.4,-2.2 0,-1.074 -0.18,-2.064 -0.4,-2.2 -0.22,-0.136 -0.4,-0.779 -0.4,-1.429 0,-0.65 -0.159,-1.494 -0.353,-1.876 -0.195,-0.382 -0.529,-1.145 -0.744,-1.695 -0.214,-0.55 -0.775,-1.782 -1.246,-2.738 -0.471,-0.956 -0.85699,-1.991 -0.85699,-2.3 0,-0.309 -0.159,-0.562 -0.353,-0.562 -0.195,0 -0.46,-0.315 -0.589,-0.7 -1.154,-3.426 -8.23699,-11.616 -12.63098,-14.605 -1.005,-0.683 -1.917,-1.344 -2.027,-1.469 -0.341,-0.386 -2.563,-1.664 -3.3,-1.897 -0.385,-0.122 -0.7,-0.381 -0.7,-0.576 0,-0.194 -0.265,-0.353 -0.58799,-0.353 -0.323,0 -1.178,-0.329 -1.9,-0.731 -0.722,-0.402 -2.167,-0.982 -3.211997,-1.287 -1.044999,-0.306 -1.899997,-0.697 -1.899997,-0.869 0,-0.172 -0.594,-0.313 -1.319999,-0.313 -0.725998,0 -1.490997,-0.163 -1.699997,-0.363 -0.765999,-0.732 -14.862978,-1.62 -15.506977,-0.977"
       stroke="none"
       fill="#544b3b"
       fill-rule="evenodd" />
    <path
       id="path4"
       d="m 79.817132,31.892389 c -3.221995,0.373 -8.338987,1.449 -9.800985,2.061 -0.549999,0.231 -1.850997,0.738 -2.890996,1.127 -2.238997,0.838 -7.622989,3.964 -9.270986,5.382 -0.638999,0.551 -1.292998,1.001 -1.452998,1.001 -0.441999,0 -7.584989,7.265 -7.584989,7.714 0,0.216 -0.316999,0.683 -0.704999,1.039 -2.362996,2.167 -7.694989,13.487 -7.694989,16.338 0,0.412 -0.165999,0.92 -0.368999,1.129 -1.314998,1.355 -1.126998,14.535 0.292,20.38 0.989998,4.082 4.627993,12.682001 5.667991,13.400001 0.159,0.11 0.520999,0.639 0.802999,1.175 1.487998,2.821 8.101988,9.575 12.023982,12.277 15.603977,10.751 35.862947,10.787 51.842927,0.091 2.72199,-1.821 10.93898,-9.644 10.93898,-10.413 0,-0.2 0.36,-0.75 0.8,-1.222 0.44,-0.472 0.8,-1.095 0.8,-1.383 0,-0.289 0.149,-0.525 0.331,-0.525 0.47,0 3.85899,-6.973001 4.66699,-9.600001 1.303,-4.242 1.492,-5.022 1.883,-7.8 4.20699,-29.852 -20.61197,-55.605 -50.279928,-52.171 m 9.121987,0.389 c 14.801981,2.148 24.574961,7.686 32.426951,18.375 2.436,3.315 5.44999,8.805 5.44999,9.925 0,0.397 0.149,0.893 0.33,1.102 0.316,0.363 0.833,2.024 1.643,5.28 1.867,7.502 1.176,20.31 -1.371,25.417 -0.331,0.663 -0.602,1.423 -0.602,1.689 0,0.266 -0.684,1.813 -1.51999,3.439 -14.31198,27.820001 -50.61893,33.624001 -72.484898,11.587001 -4.569993,-4.605 -9.994985,-12.925001 -9.994985,-15.327001 0,-0.3 -0.149,-0.716 -0.33,-0.925 -0.510999,-0.587 -1.837997,-5.563 -2.341996,-8.78 -0.471999,-3.01 -0.36,-10.81 0.204,-14.2 0.882998,-5.304 0.950998,-5.604 1.311998,-5.827 0.195999,-0.121 0.355999,-0.649 0.355999,-1.173 0,-0.524 0.18,-1.064 0.399999,-1.2 0.22,-0.136 0.4,-0.509 0.4,-0.828 0,-0.825 1.544998,-4.076 2.871996,-6.044 0.620999,-0.92 1.127998,-1.803 1.127998,-1.963 0,-1.122 7.436989,-9.252 10.597984,-11.585 5.415992,-3.998 12.367982,-7.082 18.401973,-8.162 7.29399,-1.307 8.941987,-1.407 13.122981,-0.8"
       stroke="none"
       fill="#ab243c"
       fill-rule="evenodd" />
    <path
       id="path5"
       d="m 129.21606,196.86339 c 0,0.33 0.18,0.6 0.4,0.6 0.22,0 0.4,-0.27 0.4,-0.6 0,-0.33 -0.18,-0.6 -0.4,-0.6 -0.22,0 -0.4,0.27 -0.4,0.6 m 0,6 c 0,0.33 0.18,0.6 0.4,0.6 0.22,0 0.4,-0.27 0.4,-0.6 0,-0.33 -0.18,-0.6 -0.4,-0.6 -0.22,0 -0.4,0.27 -0.4,0.6 m -47.99993,41.8 c 0,0.22 0.27,0.4 0.599999,0.4 0.33,0 0.6,-0.18 0.6,-0.4 0,-0.22 -0.27,-0.4 -0.6,-0.4 -0.329999,0 -0.599999,0.18 -0.599999,0.4 m 5.999991,0 c 0,0.22 0.27,0.4 0.6,0.4 0.329999,0 0.599999,-0.18 0.599999,-0.4 0,-0.22 -0.27,-0.4 -0.599999,-0.4 -0.33,0 -0.6,0.18 -0.6,0.4"
       stroke="none"
       fill="#5c4c36"
       fill-rule="evenodd" />
    <path
       id="path6"
       d="m 13.80223,12.762389 c -0.105,0.276 -0.145,84.651 -0.088,187.501001 l 0.102,187 h 70.966895 c 62.725905,0 70.988895,-0.07 71.164895,-0.6 0.163,-0.493 0.09,-0.511 -0.409,-0.099 -0.483,0.398 -15.06598,0.48 -70.964895,0.4 l -70.357896,-0.101 v -187 -187.000001 l 70.357896,-0.101 c 55.898915,-0.08 70.481895,0.002 70.964895,0.4 0.499,0.412 0.572,0.394 0.409,-0.099 -0.273,-0.826 -141.833791,-1.125 -142.14579,-0.301 m 63.013907,7.101 c -1.403998,0.45 0.063,0.465 2.199997,0.023 l 1.599997,-0.331 -1.399998,-0.006 c -0.769999,-0.003 -1.849997,0.138 -2.399996,0.314 m 13.799979,0.023 c 2.136997,0.442 3.603995,0.427 2.199997,-0.023 -0.549999,-0.176 -1.629997,-0.317 -2.399996,-0.314 l -1.399998,0.006 1.599997,0.331 m -18.399972,0.777 c -1.018999,0.438 0.032,0.438 1.399997,0 0.803999,-0.257 0.842999,-0.323 0.2,-0.332 -0.439999,-0.006 -1.159998,0.143 -1.599997,0.332 m 23.799964,0 c 1.367998,0.438 2.418997,0.438 1.399998,0 -0.439999,-0.189 -1.159998,-0.338 -1.599997,-0.332 -0.642999,0.009 -0.603999,0.075 0.199999,0.332 m -26.99996,0.8 -0.799999,0.344 0.799999,0.022 c 0.44,0.012 1.069999,-0.153 1.399998,-0.366 0.794999,-0.514 -0.203999,-0.514 -1.399998,0 m -12.299982,5.029 c -1.494997,0.811 -1.403998,1.149 0.1,0.371 0.659999,-0.341 1.199998,-0.706 1.199998,-0.81 0,-0.258 -0.043,-0.243 -1.299998,0.439 m 56.499914,0.306 c 0,0.1 0.945,0.775 2.1,1.499 1.155,0.725 3.225,2.187 4.59999,3.249 2.353,1.817 3.557,2.335 1.6,0.688 -1.674,-1.409 -8.29999,-5.749 -8.29999,-5.436 m -60.803907,2.428 c -1.427998,0.969 -3.225995,2.33 -3.995994,3.024 -0.769999,0.694 -0.228,0.392 1.203998,-0.671 1.431998,-1.062 3.276995,-2.348 4.099994,-2.856 1.279998,-0.791 1.796997,-1.26 1.391998,-1.26 -0.058,0 -1.272998,0.793 -2.699996,1.763 m 70.403897,4.281 c 0,0.305 5.30299,5.587 5.45499,5.434 0.067,-0.067 -1.133,-1.367 -2.666,-2.889 -1.53399,-1.522 -2.78899,-2.667 -2.78899,-2.545 m -79.189884,2.946 c -1.189999,1.205 -2.083997,2.246 -1.986997,2.315 0.098,0.068 1.150998,-0.917 2.339996,-2.19 2.742996,-2.934 2.503996,-3.018 -0.352999,-0.125 m -4.065994,4.51 c -1.268998,1.532 -1.724998,2.242 -1.262998,1.965 0.511999,-0.307 2.287996,-2.665 2.007997,-2.665 -0.091,0 -0.426,0.315 -0.744999,0.7 m 92.661868,3.412 c 0.38599,0.612 0.80299,1.012 0.92599,0.889 0.123,-0.123 -0.193,-0.623 -0.702,-1.112 l -0.92599,-0.889 0.702,1.112 m -97.152862,3.079 c -0.578999,0.876 -1.052998,1.726 -1.052998,1.889 0,0.164 0.242,-0.057 0.538999,-0.491 1.301998,-1.908 1.938997,-2.989 1.759997,-2.989 -0.105999,0 -0.666999,0.716 -1.245998,1.591 m 101.224852,3.804 c 0.366,0.767 0.736,1.324 0.823,1.237 0.183,-0.183 -1.031,-2.632 -1.305,-2.632 -0.101,0 0.116,0.628 0.482,1.395 m -104.410847,2.305 c -0.525999,1.155 -1.072998,2.55 -1.213998,3.1 l -0.257,1 0.477999,-1 c 0.262,-0.55 0.832999,-1.81 1.267999,-2.8 0.434999,-0.99 0.860998,-1.935 0.947998,-2.1 0.086,-0.165 0.062,-0.3 -0.055,-0.3 -0.116,0 -0.641999,0.945 -1.167998,2.1 m -2.620996,6.767 c -0.025,0.367 -0.15,0.997 -0.276,1.4 -0.217999,0.695 -0.206999,0.696 0.227,0.02 0.251,-0.391 0.375999,-1.021 0.276,-1.4 -0.162,-0.619 -0.185,-0.621 -0.227,-0.02 m -0.791999,3 c -0.029,0.477 -0.158,1.197 -0.284,1.6 -0.217999,0.694 -0.205999,0.695 0.226,0.021 0.251,-0.391 0.379,-1.111 0.285,-1.6 -0.172,-0.887 -0.172,-0.887 -0.227,-0.021 m 113.173832,3.966 c 0.016,0.862 0.181,1.927 0.368,2.367 0.212,0.498 0.255,-0.031 0.116,-1.4 -0.268,-2.635 -0.523,-3.143 -0.484,-0.967 m -113.968831,0.167 c -0.039,0.55 -0.17,1.45 -0.291999,2 -0.191,0.862 -0.159,0.902 0.229999,0.291 0.249,-0.389 0.38,-1.289 0.292,-2 -0.125,-1.004 -0.176,-1.069 -0.23,-0.291 m 114.902831,9.8 c 0,3.52 0.062,4.906 0.136,3.081 0.074,-1.825 0.074,-4.705 -0.001,-6.4 -0.075,-1.695 -0.136,-0.201 -0.135,3.319 m -115.60683,0 c 0.001,2.86 0.065,3.978 0.142,2.483 0.077,-1.494 0.077,-3.834 -10e-4,-5.2 -0.078,-1.365 -0.141,-0.143 -0.141,2.717 m 0.526999,8.8 c 0.127,1.1 0.295,2.075 0.374,2.167 0.298999,0.347 0.072,-2.603 -0.259,-3.367 -0.222999,-0.515 -0.263999,-0.087 -0.115,1.2 m 114.373831,-0.916 c -0.135,0.504 -0.225,1.546 -0.201,2.316 0.034,1.069 0.12,0.88 0.363,-0.798 0.335,-2.31 0.254,-3.069 -0.162,-1.518 m -113.597832,5.116 c 0.317,1.725 0.544,2.051 0.536,0.767 -0.003,-0.532 -0.183,-1.237 -0.4,-1.567 -0.275999,-0.422 -0.316999,-0.185 -0.136,0.8 m 0.785999,3 c 0.329,1.471 0.557999,1.79 0.549999,0.767 -0.003,-0.422 -0.188999,-1.037 -0.411999,-1.367 -0.297,-0.438 -0.334,-0.276 -0.138,0.6 m 110.683833,1.673 c -0.92999,3.004 -0.93899,3.104 -0.124,1.353 0.454,-0.976 0.774,-2.023 0.711,-2.327 -0.063,-0.303 -0.328,0.135 -0.587,0.974 m -2.65599,6.746001 c -0.94,1.97 -0.808,2.305 0.175,0.443 0.446,-0.846 0.74,-1.608 0.654,-1.695 -0.087,-0.086 -0.46,0.477 -0.829,1.252 m -104.671848,0.328 c 0,0.433 1.987997,4.253 2.212997,4.253 0.11,0 -0.274,-0.945 -0.853999,-2.1 -1.115998,-2.221 -1.358998,-2.606 -1.358998,-2.153 m 102.999848,3.053 c -0.341,0.66 -0.531,1.2 -0.421,1.2 0.11,0 0.48,-0.54 0.821,-1.2 0.341,-0.66 0.531,-1.2 0.421,-1.2 -0.11,0 -0.48,0.54 -0.821,1.2 m -1.492,2.5 c -0.875,1.349 -1.65999,2.956 -1.221,2.5 0.561,-0.583 2.211,-3.4 1.992,-3.4 -0.103,0 -0.45,0.405 -0.771,0.9 m -95.177857,5 c 0.430999,0.605 1.198998,1.46 1.706997,1.9 0.508,0.44 0.235,-0.055 -0.604999,-1.1 -1.657997,-2.061 -2.368996,-2.578 -1.101998,-0.8 m 88.494867,3.869 -1.375,1.631 1.555,-1.487 c 0.855,-0.817 1.474,-1.551 1.375,-1.63 -0.099,-0.08 -0.799,0.589 -1.555,1.486 m -83.024875,2.136 c 1.759997,1.703 3.649994,3.453 4.199994,3.888 0.549999,0.436 -0.799999,-0.956 -2.999996,-3.093 -2.199997,-2.138 -4.089994,-3.887 -4.199994,-3.889 -0.11,-0.001 1.239998,1.391 2.999996,3.094 m 79.974885,0.93 c -0.646,0.679 -2.228,2.029 -3.515,3 -1.286,0.971 -2.20299,1.765 -2.03699,1.765 0.16599,0 0.94799,-0.493 1.73899,-1.096 2.159,-1.645 5.69299,-4.904 5.31699,-4.904 -0.18099,0 -0.85799,0.556 -1.50399,1.235 m -74.574893,3.714 c 0,0.086 0.629999,0.637 1.399998,1.224 0.769999,0.587 1.397998,0.924 1.394998,0.747 -0.003,-0.176 -0.632999,-0.727 -1.399998,-1.224 -0.766999,-0.497 -1.394998,-0.833 -1.394998,-0.747 m 64.399903,3.884 -1,0.815 1.3,-0.634 c 0.715,-0.349 1.3,-0.72 1.3,-0.824 0,-0.398 -0.637,-0.142 -1.6,0.643 m -45.199931,5.949 c 0.329999,0.223 0.944998,0.409 1.366998,0.412 1.022998,0.008 0.703999,-0.221 -0.766999,-0.55 -0.875999,-0.196 -1.037999,-0.159 -0.599999,0.138 m 30.999954,0.018 c -0.503999,0.217 -0.577999,0.344 -0.2,0.344 0.33,0 0.959997,-0.155 1.399997,-0.344 0.504,-0.217 0.578,-0.344 0.2,-0.344 -0.33,0 -0.96,0.155 -1.399997,0.344 m -27.999959,0.8 c 0.44,0.189 1.159998,0.338 1.599998,0.332 0.642999,-0.009 0.603999,-0.075 -0.2,-0.332 -1.367998,-0.438 -2.418996,-0.438 -1.399998,0 m 24.599964,0 c -0.803999,0.257 -0.842999,0.323 -0.2,0.332 0.44,0.006 1.159998,-0.143 1.599998,-0.332 1.018998,-0.438 -0.032,-0.438 -1.399998,0 m -20.19997,0.8 c 0.659999,0.168 1.649997,0.305 2.199996,0.305 0.891999,0 0.869999,-0.033 -0.199999,-0.305 -0.659999,-0.168 -1.649998,-0.305 -2.199997,-0.305 -0.891999,0 -0.869999,0.033 0.2,0.305 m 15.199977,0 -1.199998,0.305 1.199998,0.008 c 0.659999,0.004 1.649998,-0.137 2.199997,-0.313 l 0.999999,-0.32 -0.999999,0.007 c -0.549999,0.004 -1.539998,0.145 -2.199997,0.313 m -7.299989,0.676 c 0.384999,0.1 1.014999,0.1 1.399998,0 0.384999,-0.101 0.07,-0.183 -0.699999,-0.183 -0.769999,0 -1.084998,0.082 -0.699999,0.183 m -1.999997,6.821 c 1.484998,0.077 3.914994,0.077 5.399992,0 1.484998,-0.077 0.27,-0.14 -2.699996,-0.14 -2.969996,0 -4.184994,0.063 -2.699996,0.14 m -6.69999,0.503 -1.599998,0.286 1.399998,0.029 c 0.769999,0.016 1.759998,-0.126 2.199997,-0.315 0.942999,-0.405 0.262,-0.405 -1.999997,0 m 16.799975,-0.02 c 0.760999,0.346 3.716995,0.584 3.366995,0.271 -0.092,-0.082 -1.066998,-0.258 -2.166997,-0.392 -1.345998,-0.164 -1.738997,-0.124 -1.199998,0.121 m 4.999993,0.802 c 0.329999,0.223 0.944998,0.409 1.366998,0.412 1.022998,0.008 0.703999,-0.221 -0.766999,-0.55 -0.875999,-0.196 -1.037999,-0.159 -0.599999,0.138 m -28.799958,0.818 c -0.823999,0.264 -0.858999,0.326 -0.2,0.354 0.44,0.019 1.069999,-0.141 1.399998,-0.354 0.700999,-0.453 0.214,-0.453 -1.199998,0 m 33.799951,0.612 c 2.073,0.746 2.794,0.728 1.054,-0.028 -0.74,-0.321 -1.64,-0.576 -2,-0.566 -0.36,0.009 0.066,0.277 0.946,0.594 m -40.99994,1.988 c -2.360997,1.264 -1.851997,1.266 0.859999,0.004 1.176998,-0.548 1.869997,-0.99 1.539997,-0.982 -0.329999,0.008 -1.409998,0.448 -2.399996,0.978 m 45.54593,-0.384 c 0.74,0.321 1.46,0.578 1.6,0.57 0.52,-0.029 -1.77,-1.158 -2.346,-1.156 -0.33,10e-4 0.006,0.264 0.746,0.586 m -48.945925,2.011 c -0.659999,0.343 -1.379998,0.808 -1.599998,1.034 -0.22,0.226 0.365,0.016 1.299998,-0.466 0.934999,-0.482 1.699998,-0.948 1.699998,-1.035 0,-0.24 -0.1,-0.207 -1.399998,0.467 m 53.799925,0.193 c 1.38699,0.941 2.17799,1.215 1.19999,0.416 -0.55,-0.45 -1.17999,-0.819 -1.39999,-0.821 -0.22,-0.002 -0.13,0.181 0.2,0.405 m -57.899919,2.206 c -0.934999,0.561 -1.699998,1.114 -1.699998,1.229 0,0.216 2.698996,-1.317 3.379995,-1.919 0.686999,-0.608 0.047,-0.345 -1.679997,0.69 m 60.519909,-0.69 c 0.628,0.556 3.38,2.143 3.38,1.95 0,-0.241 -3.106,-2.286 -3.471,-2.286 -0.159,0 -0.118,0.151 0.091,0.336 m 3.924,2.373 c 0.316,0.512 2.65599,2.244 2.65599,1.966 0,-0.099 -0.661,-0.684 -1.468,-1.3 -0.80799,-0.616 -1.34299,-0.916 -1.18799,-0.666 m -42.343942,2.366 c -1.319998,0.314 -3.029995,0.716 -3.799994,0.894 -2.410997,0.557 -9.106987,3.522 -9.999985,4.428 -0.11,0.112 -0.605,0.428 -1.099999,0.703 -0.494999,0.275 -1.301998,0.725 -1.793997,1 -3.001996,1.68 -10.525985,9.204 -12.205982,12.206 -0.275,0.492 -0.724999,1.299 -0.999999,1.794 -0.274999,0.495 -0.590999,0.99 -0.702999,1.1 -0.911998,0.899 -3.880994,7.612 -4.421993,10 -0.174,0.77 -0.599999,2.66 -0.945999,4.2 -0.421999,1.878 -0.628999,4.805 -0.628999,8.894 0,5.634 0.161,7.075 1.287998,11.506 0.560999,2.207 2.695996,7.705 3.649995,9.4 0.432999,0.77 0.988998,1.76 1.234998,2.2 3.378995,6.041 10.035985,12.696 16.026976,16.024 5.743992,3.19 8.569988,4.256 15.345978,5.788 2.673996,0.605 14.877978,0.618 15.999976,0.017 0.441,-0.236 1.254998,-0.429 1.808998,-0.429 0.553999,0 1.420998,-0.157 1.925997,-0.349 0.505999,-0.192 1.638997,-0.564 2.518996,-0.826 3.348996,-1 7.640986,-3.108 11.599986,-5.698 5.23399,-3.425 10.49498,-9.084 13.87398,-14.927 1.57599,-2.724 3.25099,-6.454 3.95099,-8.8 0.262,-0.88 0.634,-2.013 0.826,-2.519 0.192,-0.505 0.349,-1.372 0.349,-1.926 0,-0.554 0.193,-1.368 0.429,-1.809 0.601,-1.122 0.588,-13.326 -0.017,-16 -1.532,-6.776 -2.598,-9.602 -5.78799,-15.346 -3.328,-5.991 -9.98299,-12.648 -16.02398,-16.027 -0.44,-0.246 -1.43,-0.802 -2.2,-1.235 -1.69499,-0.954 -7.192986,-3.089 -9.399982,-3.65 -4.459994,-1.134 -5.904992,-1.284 -11.905983,-1.236 -4.057994,0.033 -7.393989,0.266 -8.893987,0.623 m -31.929953,3.995 c -2.346996,2.346 -4.193994,4.339 -4.104994,4.429 0.089,0.089 0.943999,-0.697 1.898998,-1.746 0.954998,-1.05 2.015997,-2.188 2.357996,-2.531 0.343,-0.342 1.480998,-1.403 2.530996,-2.358 1.048999,-0.955 1.834998,-1.81 1.745998,-1.899 -0.09,-0.089 -2.082997,1.758 -4.428994,4.105 m 48.209929,-3.854 c 6.80099,1.334 9.685986,2.402 16.245976,6.01 2.87,1.579 8.48899,6.396 11.16998,9.577 3.659,4.339 6.98199,10.341 8.52599,15.397 0.269,0.88 0.628,1.96 0.798,2.4 1.602,4.146 1.556,17.11 -0.081,23.2 -0.449,1.67 -0.504,1.824 -1.939,5.4 -4.36099,10.87 -13.92998,20.439 -24.79996,24.8 -3.575995,1.435 -3.729995,1.49 -5.399992,1.939 -6.089991,1.637 -19.053972,1.683 -23.199966,0.081 -0.44,-0.17 -1.519998,-0.529 -2.399997,-0.798 -5.055992,-1.544 -11.057983,-4.867 -15.396977,-8.526 -3.180995,-2.681 -7.997988,-8.3 -9.576986,-11.17 -6.76399,-12.296 -8.088988,-22.099 -4.853993,-35.926 0.655999,-2.804 2.234997,-6.383 4.961993,-11.244 2.659996,-4.742 10.598984,-12.672 15.113978,-15.097 2.963995,-1.592 5.287992,-2.754 6.75199,-3.377 2.648996,-1.128 2.704996,-1.144 8.599987,-2.454 2.927996,-0.65 12.572982,-0.782 15.479977,-0.212 m 31.228956,1.733 c 1.27,1.228 3.31499,3.272 4.54599,4.542 l 2.236,2.309 -2.098,-2.4 c -1.155,-1.32 -3.19999,-3.364 -4.54599,-4.542 l -2.447,-2.142 2.309,2.233 m 7.48199,8.239 c 0.466,0.653 1.051,1.314 1.3,1.468 0.24999,0.155 -0.05,-0.38 -0.666,-1.188 -1.337,-1.753 -1.841,-1.976 -0.634,-0.28 m -94.482864,2.912 c -0.874998,1.349 -1.659997,2.956 -1.220998,2.5 0.560999,-0.583 2.210997,-3.4 1.991997,-3.4 -0.103,0 -0.449999,0.405 -0.770999,0.9 m -2.391996,4 c -0.637999,0.996 -1.172998,2.3 -0.943999,2.3 0.081,0 0.523,-0.72 0.980999,-1.6 0.906999,-1.74 0.885999,-2.142 -0.037,-0.7 m -2.240997,4.519 c -0.480999,0.992 -0.872998,2.023 -0.870998,2.292 0.002,0.269 0.455999,-0.482 1.007998,-1.669 0.552999,-1.187 0.944999,-2.218 0.871999,-2.291 -0.073,-0.074 -0.526999,0.677 -1.008999,1.668 m 105.938847,-0.165 c -0.008,0.14 0.249,0.86 0.57,1.6 0.322,0.74 0.585,1.076 0.586,0.746 0.002,-0.576 -1.127,-2.866 -1.156,-2.346 m 1.61099,4.062 c -0.014,0.174 0.32,1.434 0.741,2.8 0.422,1.366 0.88,3 1.02,3.631 0.139,0.631 0.334,1.067 0.432,0.968 0.099,-0.098 -0.158,-1.425 -0.571,-2.947 -0.755,-2.788 -1.575,-5.038 -1.622,-4.452 m -109.978833,2.751 c -0.025,0.367 -0.15,0.997 -0.276,1.4 -0.217999,0.695 -0.206999,0.696 0.227,0.02 0.251,-0.391 0.375999,-1.021 0.276,-1.4 -0.162,-0.619 -0.185,-0.621 -0.227,-0.02 m 112.393833,6.766 c 0.022,0.752 0.19,1.817 0.373,2.367 0.216,0.646 0.253,0.22 0.106,-1.2 -0.26,-2.517 -0.538,-3.193 -0.479,-1.167 m -113.980831,0.167 c -0.039,0.66 -0.163,1.65 -0.275999,2.2 l -0.206,1 0.430999,-0.986 c 0.236,-0.542 0.36,-1.532 0.275,-2.2 l -0.155,-1.214 -0.069,1.2 m 114.901831,9.8 c 0,3.41 0.061,4.805 0.136,3.1 0.075,-1.705 0.075,-4.495 0,-6.2 -0.075,-1.705 -0.136,-0.31 -0.136,3.1 m -115.60383,0 c 0,2.97 0.063,4.185 0.14,2.7 0.077,-1.485 0.077,-3.915 0,-5.4 -0.077,-1.485 -0.14,-0.27 -0.14,2.7 m 0.502,8.6 c 0.133999,1.1 0.309999,2.075 0.391999,2.167 0.312999,0.35 0.075,-2.606 -0.271,-3.367 -0.244999,-0.539 -0.284999,-0.146 -0.120999,1.2 m 114.39383,-0.564 c -0.139,0.695 -0.232,1.737 -0.206,2.314 0.025,0.578 0.208,0.077 0.405,-1.111 0.385,-2.318 0.221,-3.305 -0.199,-1.203 m -113.608832,4.964 c 0.329,1.471 0.558,1.79 0.55,0.767 -0.003,-0.422 -0.189,-1.037 -0.412,-1.367 -0.296999,-0.438 -0.333999,-0.276 -0.138,0.6 m 112.186832,2.231 c -0.284,1.109 -0.441,2.092 -0.348,2.186 0.093,0.093 0.402,-0.739 0.686,-1.848 0.284,-1.109 0.441,-2.092 0.348,-2.186 -0.093,-0.093 -0.402,0.739 -0.686,1.848 m -111.212833,1.223 c -0.01,0.36 0.245,1.26 0.565999,2 0.755999,1.74 0.773999,1.019 0.028,-1.054 -0.316999,-0.88 -0.584999,-1.306 -0.593999,-0.946 m 1.603998,4.746 c 0.014,0.596 1.924997,4.438 1.959997,3.94 0.01,-0.143 -0.43,-1.223 -0.977999,-2.4 -0.547999,-1.177 -0.989998,-1.87 -0.981998,-1.54 m 107.090845,1.381 c -0.371,1 -0.596,1.819 -0.499,1.819 0.279,0 1.417,-2.906 1.289,-3.291 -0.064,-0.191 -0.419,0.471 -0.79,1.472 m -104.697849,4.019 c 0.002,0.22 0.370999,0.85 0.820999,1.4 0.542999,0.664 0.678999,0.731 0.403999,0.2 -0.673999,-1.305 -1.227998,-2.028 -1.224998,-1.6 m 101.370849,2.7 -0.634,1.3 0.815,-1 c 0.785,-0.963 1.041,-1.6 0.643,-1.6 -0.104,0 -0.475,0.585 -0.824,1.3 m -98.968853,1.41 c 0.518,0.941 1.444998,2.291 2.058997,3 0.615,0.71 0.291,0.03 -0.719998,-1.51 -2.190997,-3.339 -2.620997,-3.817 -1.338999,-1.49 m 95.926863,3.19 c -1.269,1.532 -1.725,2.242 -1.263,1.965 0.512,-0.307 2.28799,-2.665 2.00799,-2.665 -0.091,0 -0.42599,0.315 -0.74499,0.7 m -89.931871,4.8 c 2.890995,3.125 2.991995,3.222 2.347996,2.251 -0.771999,-1.162 -3.918994,-4.551 -4.225994,-4.551 -0.137999,0 0.707999,1.035 1.877998,2.3 m 83.787881,2.224 c -3.018,3.071 -3.621,3.81 -1.921,2.355 2.05799,-1.762 6.93399,-6.936 6.46099,-6.855 -0.077,0.013 -2.12,2.038 -4.53999,4.5 m -79.024888,2.368 c 0.975998,1.04 1.860997,1.805 1.966997,1.7 0.105,-0.106 0.114,-0.237 0.019,-0.292 -0.096,-0.055 -0.980999,-0.82 -1.966997,-1.7 l -1.793998,-1.599 1.774998,1.891 m 72.809888,3.14 -1.38499,1.231 1.28799,-0.85 c 1.142,-0.754 2.005,-1.613 1.62,-1.613 -0.076,0 -0.761,0.554 -1.523,1.232 m -66.584898,1.764 c 0.893999,0.743 3.427995,2.113 2.799996,1.514 -0.219999,-0.21 -1.119998,-0.786 -1.999997,-1.28 -0.879998,-0.495 -1.239998,-0.6 -0.799999,-0.234 m 61.299908,1.633 c -0.605,0.328 -1.1,0.681 -1.1,0.784 0,0.386 0.632,0.144 1.6,-0.613 1.189,-0.93 1.011,-0.991 -0.5,-0.171 m -52.69992,3.171 c 0.989998,0.53 2.069997,0.97 2.399996,0.978 0.33,0.008 -0.362999,-0.434 -1.539997,-0.982 -2.711996,-1.262 -3.220996,-1.26 -0.859999,0.004 m 45.99993,0.2 c -0.99,0.415 -1.597,0.765 -1.349,0.778 0.567,0.028 3.349,-1.121 3.349,-1.383 0,-0.247 0.112,-0.281 -2,0.605 m -41.199937,1.674 c 1.545997,0.655 6.51399,1.945 6.71499,1.744 0.099,-0.098 -0.337,-0.293 -0.967999,-0.432 -0.630999,-0.14 -2.264996,-0.598 -3.630994,-1.02 -2.685996,-0.829 -3.720995,-0.971 -2.115997,-0.292 m 33.39995,0.937 c -0.879998,0.29 -1.329998,0.539 -0.999998,0.552 0.329999,0.014 1.409998,-0.23 2.399995,-0.542 0.99,-0.312 1.44,-0.561 1,-0.552 -0.44,0.008 -1.52,0.252 -2.399997,0.542 m -25.766962,1.135 c 0.092,0.08 1.156999,0.248 2.366997,0.373 1.419998,0.147 1.845997,0.11 1.199998,-0.106 -0.990998,-0.33 -3.886994,-0.548 -3.566995,-0.267 m 18.766973,0.267 c -0.645999,0.216 -0.22,0.253 1.199998,0.106 1.209998,-0.125 2.274997,-0.293 2.366997,-0.373 0.319999,-0.281 -2.575997,-0.063 -3.566995,0.267 m -10.699984,0.684 c 1.704997,0.075 4.494993,0.075 6.19999,0 1.704998,-0.075 0.31,-0.136 -3.099995,-0.136 -3.409995,0 -4.804993,0.061 -3.099995,0.136 m -5.299993,7.287 c -0.549999,0.167 0.53,0.215 2.399997,0.106 1.869997,-0.108 3.474995,-0.263 3.566995,-0.344 0.314999,-0.276 -4.967993,-0.066 -5.966992,0.238 m 10.832984,-0.238 c 0.092,0.081 1.696998,0.236 3.566995,0.344 1.869997,0.109 2.949996,0.061 2.399997,-0.106 -0.998999,-0.304 -6.281991,-0.514 -5.966992,-0.238 m -15.232977,1.049 c -0.409,0.26 -0.09,0.304 0.999998,0.137 1.976997,-0.303 2.313997,-0.534 0.766999,-0.526 -0.641999,0.003 -1.436998,0.178 -1.766997,0.389 m 22.832966,-0.252 c 0.092,0.079 0.886999,0.254 1.766998,0.389 1.089998,0.167 1.408998,0.123 0.999998,-0.137 -0.546999,-0.349 -3.154995,-0.586 -2.766996,-0.252 m -25.832962,1.057 c -1.018998,0.438 0.032,0.438 1.399998,0 0.803999,-0.257 0.842999,-0.323 0.2,-0.332 -0.439999,-0.006 -1.159998,0.143 -1.599998,0.332 m 30.199956,0 c 1.367996,0.438 2.418996,0.438 1.399996,0 -0.44,-0.189 -1.159997,-0.338 -1.599996,-0.332 -0.642999,0.009 -0.603999,0.075 0.2,0.332 m -46.695931,7.627 c -1.368998,0.894 -2.602997,1.809 -2.740996,2.033 -0.225,0.364 4.279993,-2.51 5.216992,-3.328 0.869999,-0.76 -0.141,-0.231 -2.475996,1.295 m 64.839907,0.282 c 0.316,0.512 2.65599,2.244 2.65599,1.966 0,-0.099 -0.661,-0.684 -1.46799,-1.3 -0.808,-0.616 -1.343,-0.916 -1.188,-0.666 m -38.343946,2.317 c -4.313994,0.554 -5.946992,0.859 -7.19999,1.344 -0.439999,0.171 -1.429998,0.536 -2.199997,0.813 -3.057995,1.098 -3.995994,1.48 -4.246993,1.731 -0.364,0.363 1.941997,-0.323 3.016995,-0.898 3.668995,-1.964 14.435979,-3.422 20.52997,-2.781 13.751981,1.446 24.091961,7.284 33.229951,18.765 1.068,1.342 1.065,1.325 -0.076,-0.4 -8.61999,-13.031 -26.422961,-20.711 -43.053936,-18.574 m -33.94395,3.424 c -2.138997,2.007 -3.833995,3.705 -3.765995,3.773 0.068,0.068 1.905997,-1.574 4.084994,-3.65 2.178997,-2.075 3.873994,-3.773 3.765995,-3.773 -0.108,0 -1.946998,1.642 -4.084994,3.65 m 80.511876,1.45 c 1.668,1.705 3.112,3.05 3.21,2.988 0.215,-0.134 -5.65299,-6.088 -5.99999,-6.088 -0.133,0 1.123,1.395 2.78999,3.1 m -63.044902,0.407 c -0.921999,0.601 -2.446997,1.543 -3.387995,2.093 -3.302995,1.931 -13.53498,12.651 -13.53498,14.181 0,0.151 -0.539999,1.06 -1.199998,2.019 -0.659999,0.959 -1.199999,1.939 -1.199999,2.177 0,0.239 -0.164999,0.746 -0.365999,1.128 -2.180997,4.134 -4.087994,11.947 -3.976994,16.295 0.038,1.48 0.143999,1.064 0.410999,-1.6 0.361,-3.603 1.851997,-9.983 2.885996,-12.345 4.066994,-9.289 10.299985,-17.226 16.645975,-21.196 0.989999,-0.62 2.783996,-1.741 3.986994,-2.493 1.201999,-0.751 2.011997,-1.363 1.799998,-1.359 -0.213,0.004 -1.141999,0.499 -2.063997,1.1 m -22.567967,3.593 c -1.344998,1.487 -2.094997,2.5 -1.851997,2.5 0.11,0 0.863999,-0.81 1.675997,-1.8 1.626998,-1.986 1.737998,-2.428 0.176,-0.7 m 92.618859,4.3 c 1.393,2.052 1.678,2.295 0.903,0.771 -0.343,-0.676 -0.928,-1.481 -1.29899,-1.789 -0.371,-0.308 -0.193,0.15 0.39599,1.018 m 3.308,5.589 c 0.591,1.204 1.141,2.122 1.223,2.04 0.179,-0.18 -1.838,-4.229 -2.107,-4.229 -0.104,0 0.294,0.985 0.884,2.189 m -11.82498,3.411 c 1.59899,2.901 1.82799,3.347 2.25599,4.4 0.223,0.55 0.672,1.63 0.998,2.4 0.549,1.297 1.433,4.008 2.087,6.4 0.15,0.55 0.521,2.98 0.824,5.4 l 0.551,4.4 -0.185,-3.735 c -0.234,-4.746 -2.423,-13.087 -3.842,-14.645 -0.19,-0.209 -0.346,-0.592 -0.346,-0.852 0,-0.467 -2.51099,-4.844 -3.05299,-5.32 -0.155,-0.136 0.164,0.562 0.71,1.552 m 14.77298,2.815 c -0.017,0.119 0.32399,1.199 0.75599,2.4 0.432,1.202 0.778,1.825 0.77,1.385 -0.014,-0.723 -1.45599,-4.298 -1.52599,-3.785 m -109.583843,3.652 c -0.025,0.367 -0.15,0.997 -0.276,1.4 -0.217999,0.695 -0.206999,0.696 0.227,0.02 0.251,-0.391 0.375999,-1.021 0.276,-1.4 -0.162,-0.619 -0.185,-0.621 -0.227,-0.02 m -0.791999,3 c -0.029,0.477 -0.158,1.197 -0.284,1.6 -0.217999,0.694 -0.205999,0.695 0.226,0.021 0.251,-0.391 0.379,-1.111 0.285,-1.6 -0.172,-0.887 -0.172,-0.887 -0.227,-0.021 m 113.173832,3.966 c 0.016,0.862 0.181,1.927 0.368,2.367 0.212,0.498 0.255,-0.031 0.116,-1.4 -0.268,-2.635 -0.523,-3.143 -0.484,-0.967 m -113.973831,0.167 c -0.035,0.55 -0.158,1.45 -0.270999,2 l -0.206,1 0.429999,-0.985 c 0.236,-0.541 0.358,-1.441 0.271,-2 l -0.158,-1.015 -0.066,1 m 114.907831,9.8 c 0,3.52 0.062,4.906 0.136,3.081 0.074,-1.825 0.074,-4.705 -0.001,-6.4 -0.075,-1.695 -0.136,-0.201 -0.135,3.319 m -115.60683,0 c 0.001,2.86 0.065,3.978 0.142,2.483 0.077,-1.494 0.077,-3.834 -10e-4,-5.2 -0.078,-1.365 -0.141,-0.143 -0.141,2.717 m 11.874983,2.233 c 0.016,1.412 0.174999,3.377 0.353999,4.367 0.212,1.175 0.251,0.342 0.115,-2.4 -0.236,-4.715 -0.514999,-5.884 -0.468999,-1.967 m 91.561867,0.067 c -0.018,4.743 -1.784,11.971 -3.973,16.262 -0.99399,1.95 -1.66399,3.638 -1.44399,3.638 0.292,0 3.02499,-5.805 3.02499,-6.424 0,-0.339 0.167,-0.787 0.371,-0.996 1.1,-1.128 3.213,-14.58 2.289,-14.58 -0.143,0 -0.264,0.945 -0.268,2.1 m -102.94185,6.3 c 0.324999,2.241 0.551999,2.56 0.543999,0.767 -0.003,-0.752 -0.186,-1.637 -0.406,-1.967 -0.278999,-0.419 -0.320999,-0.058 -0.137999,1.2 m 114.40583,-0.716 c -0.135,0.504 -0.225,1.546 -0.201,2.316 0.034,1.069 0.12,0.88 0.363,-0.798 0.335,-2.31 0.254,-3.069 -0.162,-1.518 m -102.199848,1.316 c 0,0.44 0.154999,1.16 0.343999,1.6 l 0.344,0.8 v -0.8 c 0,-0.44 -0.155,-1.16 -0.344,-1.6 l -0.343999,-0.8 v 0.8 m -11.397984,3.8 c 0.317,1.725 0.544,2.051 0.536,0.767 -0.003,-0.532 -0.183,-1.237 -0.4,-1.567 -0.275999,-0.422 -0.316999,-0.185 -0.136,0.8 m 12.295982,-0.4 c 1.344998,7.455 10.216985,20.131 17.282975,24.693 0.419999,0.271 1.456998,0.953 2.305996,1.517 2.018997,1.34 7.696989,4.19 8.347988,4.19 0.28,0 -1.208998,-0.859 -3.309995,-1.909 -11.883983,-5.943 -18.741972,-13.754 -23.958965,-27.291 -0.466999,-1.21 -0.766999,-1.75 -0.667999,-1.2 m -11.509983,3.4 c 0.329,1.471 0.557999,1.79 0.549999,0.767 -0.003,-0.422 -0.188999,-1.037 -0.411999,-1.367 -0.297,-0.438 -0.334,-0.276 -0.138,0.6 m 110.683833,1.673 c -0.92999,3.004 -0.93899,3.104 -0.124,1.353 0.454,-0.976 0.774,-2.023 0.711,-2.327 -0.063,-0.303 -0.328,0.135 -0.587,0.974 m -108.418836,4.827 c 0.086,0.165 0.464999,0.975 0.842999,1.8 0.376999,0.825 0.777998,1.5 0.889998,1.5 0.113,0 0.135,-0.135 0.049,-0.3 -0.086,-0.165 -0.464999,-0.975 -0.842999,-1.8 -0.376999,-0.825 -0.777998,-1.5 -0.889998,-1.5 -0.113,0 -0.135,0.135 -0.049,0.3 m 91.503866,2.772 c -0.958,1.458 -2.883,3.86 -4.27799,5.338 -1.394,1.478 -2.535,2.816 -2.535,2.974 0,0.945 6.98599,-7.25 8.30599,-9.744 1.025,-1.935 0.202,-1.146 -1.493,1.432 m 13.06898,1.539 c -0.59,1.204 -0.988,2.189 -0.884,2.189 0.269,0 2.286,-4.049 2.107,-4.229 -0.082,-0.082 -0.632,0.836 -1.223,2.04 m -101.88185,1.109 c 0,0.384 2.044997,3.48 2.298996,3.48 0.179,0 -0.457999,-1.081 -1.759997,-2.989 -0.296999,-0.434 -0.538999,-0.655 -0.538999,-0.491 m 99.08685,3.68 c -0.786,1.21 -1.30499,2.2 -1.15399,2.2 0.151,0 0.46299,-0.315 0.69399,-0.7 0.231,-0.385 0.829,-1.375 1.329,-2.2 1.4,-2.309 0.738,-1.776 -0.869,0.7 m -18.46797,2.98 c -2.74099,3.028 -15.253976,9.482 -18.742971,9.666 -0.685999,0.037 -0.722999,0.087 -0.17,0.231 1.461998,0.381 12.082981,-4.009 13.761981,-5.688 0.295,-0.295 0.896,-0.651 1.334,-0.79 0.439,-0.139 0.798,-0.409 0.798,-0.599 0,-0.19 0.315,-0.45 0.69999,-0.577 0.893,-0.294 3.486,-2.571 3.225,-2.831 -0.108,-0.108 -0.516,0.156 -0.906,0.588 m -75.878887,0.736 c 0.492999,0.693 1.103998,1.388 1.356998,1.544 0.253,0.157 0.057,-0.283 -0.436999,-0.976 -0.493,-0.693 -1.103999,-1.388 -1.356998,-1.544 -0.253,-0.157 -0.057,0.283 0.436999,0.976 m 86.868867,5.435 -2.99099,3.249 3.29099,-3.191 c 1.81,-1.754 3.291,-3.239 3.291,-3.3 0,-0.472 -1.022,0.451 -3.591,3.242 m -82.208874,-0.151 c 1.305998,1.32 2.453996,2.4 2.550996,2.4 0.34,0 -4.155994,-4.71 -4.537993,-4.755 -0.214,-0.025 0.680999,1.035 1.986997,2.355 m 26.99796,3.037 c 0.767999,0.355 2.027997,0.72 2.799996,0.812 1.268998,0.15 1.231998,0.112 -0.397999,-0.403 -3.036996,-0.961 -3.925995,-1.112 -2.401997,-0.409 m 50.814924,1.147 c -0.266,0.321 -2.178,1.698 -4.24899,3.06 -2.07,1.362 -3.764,2.55 -3.764,2.64 0,0.217 0.468,-0.064 4,-2.406 3.40299,-2.257 5.44299,-3.878 4.87999,-3.878 -0.21,0 -0.6,0.263 -0.867,0.584 m -46.25993,0.103 c 1.339998,1.34 18.353972,1.34 19.69397,0 0.144,-0.144 -0.707998,-0.133 -1.892997,0.025 -1.184998,0.159 -4.763993,0.288 -7.953988,0.288 -3.189995,0 -6.76899,-0.129 -7.953988,-0.288 -1.184999,-0.158 -2.036997,-0.169 -1.892997,-0.025 m -25.517963,0.969 c 0.323,0.523 5.734992,4.117 7.364989,4.891 0.769999,0.365 1.053999,0.437 0.631999,0.159 -6.87099,-4.523 -8.184988,-5.353 -7.996988,-5.05 m 61.857913,5.324 c -1.254,0.692 -1.631,1.121 -0.681,0.775 0.986,-0.36 2.50199,-1.369 1.97699,-1.316 -0.214,0.022 -0.79699,0.265 -1.29599,0.541 m -11.692987,4.638 c -0.437999,0.297 -0.275999,0.334 0.599997,0.138 1.471,-0.329 1.79,-0.558 0.767,-0.55 -0.422,0.003 -1.036997,0.189 -1.366997,0.412 m -27.599959,0.782 c 1.367998,0.438 2.418996,0.438 1.399998,0 -0.44,-0.189 -1.159998,-0.338 -1.599998,-0.332 -0.642999,0.009 -0.603999,0.075 0.2,0.332 m 24.199964,0 -0.799999,0.344 h 0.799999 c 0.44,0 1.159998,-0.155 1.599998,-0.344 l 0.799999,-0.344 h -0.799999 c -0.44,0 -1.159998,0.155 -1.599998,0.344 m -19.599971,0.8 c 1.691998,0.431 3.143995,0.431 1.799997,0 -0.549999,-0.176 -1.449997,-0.317 -1.999997,-0.313 -0.897998,0.007 -0.877998,0.039 0.2,0.313 m 14.599979,0 c -1.343998,0.431 0.107999,0.431 1.799997,0 1.077998,-0.274 1.097998,-0.306 0.2,-0.313 -0.55,-0.004 -1.449998,0.137 -1.999997,0.313"
       stroke="none"
       fill="#342c2c"
       fill-rule="evenodd" />
    <path
       id="path7"
       d="m 79.452133,31.519389 c -1.520998,0.195 -3.320995,0.532 -3.999994,0.748 l -1.235998,0.393 1.399998,-0.21 c 13.27098,-1.99 22.796966,-0.252 33.629951,6.134 5.18199,3.056 12.71998,10.876 15.23598,15.807 0.434,0.852 0.87,1.469 0.969,1.37 0.30199,-0.301 -0.973,-2.401 -4.066,-6.698 -1.39,-1.93 -7.45199,-8 -7.98999,-8 -0.242,0 -0.873,-0.462 -1.403,-1.026 -0.52999,-0.564 -1.59699,-1.314 -2.36999,-1.667 -0.773,-0.353 -1.712,-0.901 -2.087,-1.219 -0.924,-0.784 -4.33099,-2.488 -4.97499,-2.488 -0.286,0 -1.161,-0.36 -1.944,-0.8 -0.782997,-0.44 -1.856996,-0.8 -2.385995,-0.8 -0.528999,0 -1.468998,-0.194 -2.087997,-0.431 -3.179995,-1.216 -11.541983,-1.774 -16.689975,-1.113 m -7.773989,1.436 c -0.735999,0.09 -1.955997,0.512 -2.711996,0.936 -0.755999,0.425 -1.543997,0.772 -1.749997,0.772 -0.626999,0 -4.736993,1.974 -5.000993,2.402 -0.135999,0.22 -1.001998,0.744 -1.922997,1.165 -0.921999,0.42 -2.111997,1.23 -2.645996,1.799 -0.532999,0.569 -1.166998,1.034 -1.407998,1.034 -0.517999,0 -7.421989,6.854 -7.421989,7.369 0,0.194 1.640998,-1.294 3.646995,-3.308 2.005997,-2.014 3.777994,-3.661 3.937994,-3.661 0.16,0 0.813999,-0.45 1.452998,-1.001 3.127995,-2.693 9.682985,-5.908 14.961978,-7.338 1.460998,-0.396 1.122998,-0.446 -1.137999,-0.169 m -24.090964,17.212 c -1.196998,1.351 -2.092997,2.907 -1.827997,3.172 0.108999,0.109 0.507999,-0.403 0.886998,-1.139 0.378,-0.735 1.050999,-1.653 1.492998,-2.04 0.442999,-0.386 0.717999,-0.789 0.611999,-0.895 -0.106,-0.107 -0.629999,0.299 -1.163998,0.902 m -2.780996,4.309 c -0.850999,1.024 -3.189995,5.895 -3.189995,6.64 0,0.385 -0.18,0.811 -0.4,0.947 -0.219999,0.136 -0.399999,0.676 -0.399999,1.2 0,0.524 -0.18,1.064 -0.4,1.2 -0.219999,0.136 -0.399999,0.831 -0.399999,1.544 0,0.713 -0.166,1.467 -0.368999,1.676 -1.137999,1.173 -1.135999,17.979 0.003,19.16 0.200999,0.209 0.365999,0.963 0.365999,1.676 0,0.713 0.18,1.408 0.399999,1.544 0.22,0.136 0.4,0.676 0.4,1.2 0,0.524 0.18,1.064 0.399999,1.2 0.22,0.136 0.4,0.55 0.4,0.921 0,0.881 3.476995,7.879001 4.222993,8.498001 0.317,0.263 0.577,0.699 0.577,0.968 0,0.269 0.359999,0.815 0.799998,1.213 0.44,0.398 0.799999,0.924 0.799999,1.169 0,0.487 8.429988,9.031 8.910987,9.031 0.163,0 1.178998,0.62 2.255997,1.377 3.496995,2.458 10.922984,5.867 11.506983,5.282 0.121,-0.121 -0.296,-0.342 -0.926999,-0.49 -3.734994,-0.879 -11.499983,-5.497 -15.323977,-9.113 -3.471995,-3.282 -6.74699,-7.009 -7.628989,-8.681 -0.282,-0.536 -0.643999,-1.065 -0.802999,-1.175 -1.039998,-0.718 -4.677993,-9.318001 -5.667991,-13.400001 -1.418998,-5.845 -1.606998,-19.025 -0.292,-20.38 0.203,-0.209 0.368999,-0.717 0.368999,-1.129 0,-1.304 2.000997,-6.779 3.577995,-9.791 1.560998,-2.982 1.689998,-3.346 0.811999,-2.287 m 81.609876,3.543 c 0,0.086 0.356,0.941 0.791,1.9 0.435,0.959 0.795,1.457 0.8,1.105 0.009,-0.657 -1.116,-3.161 -1.42,-3.161 -0.094,0 -0.171,0.07 -0.171,0.156 m 2.897,7.955 c 0.212,0.929 0.518,2.949 0.68,4.489 l 0.294,2.8 0.064,-2.876 c 0.036,-1.582 -0.115,-2.988 -0.335,-3.124 -0.22,-0.136 -0.4,-0.766 -0.4,-1.4 0,-0.634 -0.155,-1.249 -0.344,-1.366 -0.19,-0.117 -0.171,0.548 0.041,1.477 m 1.246,11.408 c -0.032,2.135 -0.213,5.178 -0.403,6.764 -0.19,1.585 -0.224,2.755 -0.076,2.6 0.562,-0.591 1.356,-12.423 0.866,-12.914 -0.182,-0.182 -0.356,1.416 -0.387,3.55 m -1.283,10.807 c -0.033,0.51 -0.215,1.23 -0.405,1.6 -0.612,1.197 -0.922,2.963 -0.471,2.684 0.229,-0.142 0.416,-0.661 0.416,-1.154 0,-0.493 0.194,-1.09 0.431,-1.327 0.237,-0.237 0.354,-0.948 0.26,-1.58 -0.137,-0.921 -0.183,-0.965 -0.231,-0.223 m -2.159,6.56 c -0.385,0.907 -0.625,1.723 -0.534,1.814 0.25,0.25 1.53,-2.612 1.371,-3.066 -0.076,-0.219 -0.453,0.345 -0.837,1.252 m -2.55799,5.264001 c -0.38,0.798 -0.838,1.45 -1.017,1.45 -0.179,0 -0.326,0.202 -0.326,0.449 0,0.715 1.097,-0.359 1.793,-1.756 0.336,-0.673001 0.52699,-1.306001 0.426,-1.407001 -0.102,-0.102 -0.496,0.467 -0.876,1.264001 m -2.264,3.467 c -0.374,0.435 -0.679,0.946 -0.679,1.134 0,1.87 -11.29798,11.106 -16.91897,13.831 -1.716,0.832 -3.04,1.592 -2.942,1.69 0.305,0.305 8.53799,-4.075 9.78999,-5.208 0.40399,-0.365 0.90299,-0.664 1.10899,-0.664 0.491,0 8.51799,-8.209 9.70999,-9.931 1.03,-1.488 0.982,-2.08 -0.069,-0.852 m -22.878967,17.183 c -0.503999,0.217 -0.577999,0.344 -0.199999,0.344 0.329999,0 0.959996,-0.155 1.399996,-0.344 0.504,-0.217 0.578,-0.344 0.2,-0.344 -0.33,0 -0.959997,0.155 -1.399997,0.344 m -27.799959,0.8 c 0.33,0.213 1.049999,0.373 1.599998,0.354 l 0.999999,-0.034 -0.999999,-0.32 c -1.541998,-0.494 -2.363996,-0.494 -1.599998,0 m 24.799964,0 -0.999999,0.32 0.999999,0.034 c 0.549999,0.019 1.269998,-0.141 1.599998,-0.354 0.763998,-0.494 -0.058,-0.494 -1.599998,0 m -21.578968,0.821 c 0.533999,0.339 3.520995,0.56 3.145995,0.234 -0.092,-0.08 -0.967999,-0.247 -1.945997,-0.373 -1.150998,-0.147 -1.574998,-0.098 -1.199998,0.139 m 18.378973,-0.021 c -1.383998,0.291 -1.385998,0.295 -0.2,0.341 0.659999,0.026 1.469998,-0.128 1.799997,-0.341 0.665999,-0.43 0.445,-0.43 -1.599997,0 m -13.461981,0.894 c 0.609,0.388 10.160985,0.393 10.399985,0.006 0.102,-0.165 -2.299996,-0.3 -5.337992,-0.3 -3.037996,0 -5.315992,0.132 -5.061993,0.294"
       stroke="none"
       fill="#4c2424"
       fill-rule="evenodd" />
    <path
       id="path8"
       d="m 14.278229,12.963389 c -0.102,0.165 31.251954,0.25 69.675897,0.189 38.423944,-0.06 70.266894,-0.012 70.761894,0.108 l 0.9,0.218 v 186.385001 186.385 l -0.9,0.218 c -0.495,0.12 -32.33795,0.168 -70.761894,0.108 -38.423943,-0.061 -69.777897,0.024 -69.675897,0.189 0.335999,0.545 140.711791,0.366 141.257791,-0.18 0.7,-0.7 0.7,-372.740001 0,-373.440001 -0.546,-0.546 -140.921792,-0.725 -141.257791,-0.18 m 71.137895,6.539 c 8.943987,0.338 13.47098,1.075 18.349976,2.987 0.852,0.334 1.62099,0.536 1.70899,0.448 0.436,-0.435 -6.592986,-2.432 -12.082978,-3.432 -1.332998,-0.243 -5.382992,-0.408 -8.999986,-0.366 l -6.575991,0.076 7.599989,0.287 m -10.599984,0.254 c -3.728995,0.439 -14.399979,3.959 -14.399979,4.749 0,0.113 0.135,0.141 0.3,0.063 4.111993,-1.953 8.276987,-3.217 15.299977,-4.643 1.853997,-0.377 1.266998,-0.46 -1.199998,-0.169 m -19.599971,7.343 c -0.663999,0.543 -0.730999,0.679 -0.2,0.404 1.304998,-0.674 2.027997,-1.228 1.599998,-1.225 -0.22,0.002 -0.849999,0.371 -1.399998,0.821 m 60.443911,0.941 c 0.097,0.097 0.892,0.642 1.766,1.21 l 1.58999,1.032 -1.38499,-1.209 c -1.081,-0.945 -2.765,-1.827 -1.971,-1.033 m -64.281906,1.485 -0.761999,0.862 1.099999,-0.708 c 1.133998,-0.73 1.348998,-1.016 0.761999,-1.016 -0.186,0 -0.680999,0.388 -1.099999,0.862 m -4.588993,3.609 c -1.827997,1.58 -3.873994,3.501 -4.547993,4.27 -0.673999,0.768 -1.404998,1.597 -1.624998,1.841 -2.218997,2.459 -1.205998,1.63 2.205997,-1.804 2.306996,-2.321 5.003993,-4.878 5.993991,-5.682 0.989999,-0.803 1.686998,-1.468 1.547998,-1.478 -0.139,-0.01 -1.746998,1.274 -3.574995,2.853 m 78.053889,2.329 c 3.98499,3.969 8.37298,9.121 8.37298,9.832 0,0.123 0.502,0.976 1.115,1.896 0.613,0.92 1.46,2.34 1.882,3.156 0.422,0.817 0.845,1.408 0.939,1.314 0.205,-0.206 -3.481,-6.751 -4.347,-7.717 -0.336,-0.374 -1.05399,-1.309 -1.59499,-2.076 -1.741,-2.469 -7.07699,-7.958 -9.79099,-10.073 -0.658,-0.512 0.883,1.138 3.424,3.668 m -88.254874,9.018 c -1.027998,1.441 -1.787997,2.699 -1.688997,2.798 0.098,0.099 1.013998,-1.08 2.034997,-2.618 2.341996,-3.529 2.124996,-3.642 -0.346,-0.18 m 103.861844,16.182 c 0.012,0.33 0.177,0.96 0.366,1.4 l 0.344,0.8 0.022,-0.8 c 0.012,-0.44 -0.153,-1.07 -0.366,-1.4 -0.345,-0.533 -0.385,-0.533 -0.366,0 m -111.766832,0.267 c -0.147,0.146 -0.256,0.641 -0.242,1.1 0.024,0.766 0.057,0.756 0.408999,-0.125 0.392,-0.979 0.31,-1.453 -0.166999,-0.975 m 112.566832,2.933 c 0.012,0.33 0.177,0.96 0.366,1.4 l 0.344,0.8 0.022,-0.8 c 0.012,-0.44 -0.153,-1.07 -0.366,-1.4 -0.345,-0.533 -0.385,-0.533 -0.366,0 m -113.366831,0.267 c -0.147,0.146 -0.249,0.821 -0.226,1.5 l 0.041,1.233 0.328,-1.397 c 0.342999,-1.456 0.306999,-1.787 -0.143,-1.336 m -0.810999,4.217 c -0.135,0.504 -0.226,1.636 -0.202,2.516 0.038,1.378 0.092,1.271 0.389,-0.772 0.354999,-2.429 0.251999,-3.382 -0.187,-1.744 m 114.99683,-0.284 c 0.023,0.44 0.179,1.34 0.347,2 l 0.305,1.2 0.042,-1.4 c 0.022,-0.77 -0.134,-1.67 -0.347,-2 -0.319,-0.494 -0.38,-0.458 -0.347,0.2 m 0.878,9.2 c 0.002,1.54 0.074,2.121 0.161,1.291 0.087,-0.83 0.085,-2.09 -0.003,-2.8 -0.089,-0.71 -0.16,-0.031 -0.158,1.509 m -116.416829,0 c 0.003,1.1 0.081,1.503 0.173,0.895 0.092,-0.609 0.09,-1.509 -0.005,-2 -0.095,-0.492 -0.171,0.005 -0.168,1.105 m 0.313999,6.633 c 0.016,0.972 0.186,2.127 0.38,2.567 0.223,0.508 0.265999,-0.076 0.116,-1.6 -0.284,-2.901 -0.534,-3.388 -0.496,-0.967 m 115.41883,1.304 c -0.169,1.065 -0.215,2.028 -0.103,2.141 0.292,0.291 0.761,-2.454 0.57,-3.338 -0.087,-0.407 -0.298,0.131 -0.467,1.197 m -114.646831,3.973 c 0,0.573 0.187,1.158 0.416,1.3 0.272999,0.169 0.321999,-0.133 0.143999,-0.876 -0.367999,-1.533 -0.559999,-1.678 -0.559999,-0.424 m 113.828831,0.519 c -0.148,0.586 -0.178,1.155 -0.068,1.265 0.11,0.11 0.32,-0.279 0.468,-0.865 0.147,-0.587 0.177,-1.156 0.067,-1.266 -0.11,-0.11 -0.32,0.279 -0.467,0.866 m -113.000832,2.847 c -0.015,0.482 0.152,0.988 0.372,1.124 0.472999,0.292 0.472999,-0.099 0,-1.2 -0.331,-0.771 -0.345,-0.769 -0.372,0.076 m 112.200832,0.353 c -0.148,0.586 -0.178,1.155 -0.068,1.265 0.11,0.11 0.32,-0.279 0.468,-0.865 0.147,-0.587 0.177,-1.156 0.067,-1.266 -0.11,-0.11 -0.32,0.279 -0.467,0.866 m -2.62999,7.573001 c -0.233,0.612 -0.518,1.267 -0.635,1.456 -0.116,0.188 -0.115,0.342 0.002,0.342 0.349,0 1.512,-2.456001 1.275,-2.693001 -0.12,-0.12 -0.409,0.283 -0.642,0.895001 m -2.106,4.322 c -1.794,3.425 -4.13199,6.794 -7.09299,10.22 -1.54,1.782 -2.8,3.362 -2.8,3.509 0,0.148 0.374,-0.163 0.831,-0.692 0.457,-0.528 1.405,-1.591 2.106,-2.361 3.008,-3.303 8.71599,-12.08 8.19499,-12.601 -0.083,-0.083 -0.641,0.783 -1.239,1.925 m -101.446851,1.976 c 0.590999,1.123 1.953997,2.899 1.953997,2.545 0,-0.33 -2.049997,-3.445 -2.266996,-3.445 -0.089,0 0.052,0.405 0.312999,0.9 m 2.928996,4.432 c 0.615999,0.807 1.200998,1.468 1.299998,1.468 0.278,0 -1.453998,-2.34 -1.965997,-2.656 -0.25,-0.155 0.05,0.38 0.665999,1.188 m 2.025997,2.652 c 4.126994,5.082 13.67898,13.469 14.455979,12.692 0.115999,-0.116 -0.209,-0.433 -0.722999,-0.705 -2.245997,-1.187 -6.050991,-4.386 -10.132985,-8.518 -2.419997,-2.449 -4.039994,-4.01 -3.599995,-3.469 m 83.398878,7.314 c -1.43,1.326 -2.22,2.161 -1.756,1.856 1.27,-0.835 4.68699,-3.958 4.50999,-4.122 -0.084,-0.08 -1.32399,0.94 -2.75399,2.266 m -5.76099,4.349 c -3.366,2.38 -3.155,2.597 0.283,0.291 2.96199,-1.987 2.85299,-1.9 2.64499,-2.091 -0.092,-0.083 -1.40999,0.727 -2.92799,1.8 m -61.838911,1.896 c 1.552997,1.303 7.127989,3.983 10.172985,4.893 1.701997,0.508 0.716999,-0.175 -1.172999,-0.813 -1.747997,-0.591 -6.891989,-3.042 -8.799987,-4.193 l -1.199998,-0.725 0.999999,0.838 m 57.399911,0.894 c -0.66,0.458 -0.92999,0.727 -0.6,0.598 0.33,-0.129 0.915,-0.346 1.3,-0.481 0.385,-0.136 0.7,-0.406 0.7,-0.601 0,-0.477 -0.028,-0.467 -1.4,0.484 m -3.29999,1.589 c -0.935,0.439 -1.7,0.893 -1.7,1.009 0,0.117 0.135,0.142 0.3,0.056 0.165,-0.086 0.975,-0.465 1.8,-0.843 0.825,-0.377 1.5,-0.767 1.5,-0.867 0,-0.248 0.016,-0.253 -1.9,0.645 m -4.1,1.649 c -1.69099,0.712 -2.55199,1.049 -3.79999,1.491 l -1.2,0.425 1.322,-0.232 c 1.528,-0.268 6.17499,-2.13 5.27799,-2.115 -0.33,0.006 -1.05,0.2 -1.6,0.431 m -38.366939,1.269 c 0.092,0.079 0.706999,0.264 1.366998,0.412 0.875999,0.196 1.037999,0.159 0.6,-0.138 -0.54,-0.365 -2.367997,-0.62 -1.966998,-0.274 m 3.566995,1.056 c 1.367998,0.438 2.418997,0.438 1.399998,0 -0.439999,-0.189 -1.159998,-0.338 -1.599997,-0.332 -0.643,0.009 -0.604,0.075 0.199999,0.332 m 27.39996,0 c -1.018999,0.438 0.032,0.438 1.399998,0 0.803996,-0.257 0.842996,-0.323 0.199999,-0.332 -0.439999,-0.006 -1.159998,0.143 -1.599997,0.332 m -23.599965,0.823 c 2.025997,0.419 3.662994,0.4 1.999997,-0.023 -0.659999,-0.168 -1.739998,-0.306 -2.399997,-0.307 -1.008998,-0.001 -0.944998,0.052 0.4,0.33 m 19.399971,-0.003 c -0.673999,0.229 -0.348999,0.264 0.999999,0.108 1.099998,-0.127 2.074996,-0.297 2.166996,-0.379 0.315,-0.281 -2.167996,-0.069 -3.166995,0.271 m -12.499982,0.815 c 2.034997,0.157 5.364993,0.157 7.39999,0 3.070995,-0.237 2.441996,-0.285 -3.699995,-0.285 -6.141991,0 -6.77099,0.048 -3.699995,0.285 m 2.599997,6.252 c 0.604999,0.091 1.594997,0.091 2.199996,0 0.604999,-0.092 0.11,-0.167 -1.099998,-0.167 -1.209998,0 -1.704997,0.075 -1.099998,0.167 m -8.099988,0.529 c -0.418,0.281 0.067,0.323 1.599997,0.139 1.209998,-0.145 2.274997,-0.329 2.366997,-0.409 0.402999,-0.353 -3.428995,-0.092 -3.966994,0.27 m 14.432978,-0.272 c 0.092,0.079 1.156999,0.255 2.366997,0.39 1.469998,0.164 2.000997,0.118 1.599997,-0.138 -0.543999,-0.348 -4.357993,-0.59 -3.966994,-0.252 m -18.432973,1.056 c -0.763998,0.494 0.058,0.494 1.599998,0 l 0.999999,-0.32 -0.999999,-0.034 c -0.549999,-0.019 -1.269998,0.141 -1.599998,0.354 m 24.032965,-0.257 c 0.092,0.078 0.796999,0.258 1.566998,0.399 0.984998,0.181 1.221998,0.14 0.799999,-0.136 -0.542,-0.356 -2.762996,-0.603 -2.366997,-0.263 m -27.23296,1.057 c -0.794999,0.514 0.204,0.514 1.399998,0 l 0.799999,-0.344 -0.799999,-0.022 c -0.439999,-0.012 -1.069998,0.153 -1.399998,0.366 m 31.399954,0 c 1.195997,0.514 2.194997,0.514 1.399997,0 -0.33,-0.213 -0.96,-0.378 -1.399997,-0.366 l -0.799999,0.022 0.799999,0.344 m 8.999987,3.2 c 1.21,0.639 2.38,1.162 2.6,1.162 0.22,0 -0.59,-0.523 -1.8,-1.162 -1.21,-0.639 -2.38,-1.162 -2.6,-1.162 -0.22,0 0.59,0.523 1.8,1.162 m -49.599927,0.4 c -0.769999,0.422 -1.219998,0.766 -0.999999,0.766 0.22,0 1.029999,-0.344 1.799998,-0.766 0.769998,-0.422 1.219998,-0.766 0.999998,-0.766 -0.22,0 -1.029998,0.344 -1.799997,0.766 m -4.717993,2.577 c -6.493991,4.003 -12.801981,9.838 -16.926975,15.657 -2.414997,3.406 -4.566994,6.966 -4.211994,6.966 0.12,0 0.876999,-1.125 1.680997,-2.5 2.204997,-3.77 5.324993,-7.745 8.827987,-11.248 3.502995,-3.503 7.477989,-6.623 11.247984,-8.828 2.137997,-1.251 2.886996,-1.824 2.381996,-1.824 -0.066,0 -1.415998,0.799 -2.999995,1.777 m 58.31791,-1.01 c 0.963,0.785 1.6,1.041 1.6,0.643 0,-0.104 -0.585,-0.475 -1.3,-0.824 l -1.29999,-0.634 0.99999,0.815 m 2.79,1.506 c 5.70999,4.194 7.44699,5.62 10.18198,8.355 2.735,2.735 4.161,4.472 8.35499,10.182 0.526,0.717 0.503,0.603 -0.083,-0.41 -3.56599,-6.163 -11.88098,-14.478 -18.04397,-18.044 -1.013,-0.586 -1.127,-0.609 -0.41,-0.083 m 19.21897,20.027 c 0.005,0.165 0.376,0.75 0.824,1.3 l 0.815,1 -0.634,-1.3 c -0.603,-1.235 -1.025,-1.655 -1.005,-1 m -102.536848,3.919 c -0.939998,1.97 -0.807998,2.305 0.175,0.443 0.445999,-0.846 0.739999,-1.608 0.653999,-1.695 -0.087,-0.086 -0.459999,0.477 -0.828999,1.252 m 104.961848,0.381 c 0,0.22 0.344,1.03 0.766,1.8 0.422,0.77 0.766,1.22 0.766,1 0,-0.22 -0.344,-1.03 -0.766,-1.8 -0.422,-0.77 -0.766,-1.22 -0.766,-1 m -108.560842,8.753 c -0.15,0.392 -0.262,1.013 -0.248,1.38 0.017,0.442 0.156,0.341 0.411999,-0.299 0.212,-0.531 0.324,-1.152 0.248,-1.38 -0.076,-0.227 -0.261,-0.093 -0.411999,0.299 m -0.823999,3.262 c -0.137,0.358 -0.233,1.041 -0.213,1.518 0.026,0.614 0.149,0.475 0.423,-0.477 0.397999,-1.384 0.234999,-2.198 -0.21,-1.041 m 113.590831,0.451 c 0.368,1.533 0.56,1.678 0.56,0.424 0,-0.573 -0.187,-1.158 -0.416,-1.3 -0.273,-0.169 -0.322,0.133 -0.144,0.876 m 0.819,4.334 c 0.134,1.1 0.31,2.075 0.392,2.167 0.313,0.35 0.075,-2.606 -0.271,-3.367 -0.245,-0.539 -0.285,-0.146 -0.121,1.2 m -115.20983,-0.785 c -0.137,0.358 -0.228,1.401 -0.202,2.318 0.046,1.651 0.05,1.646 0.405,-0.494 0.359999,-2.169 0.262999,-3.038 -0.203,-1.824 m 115.87883,8.985 c 0,1.43 0.073,2.015 0.161,1.3 0.089,-0.715 0.089,-1.885 0,-2.6 -0.088,-0.715 -0.161,-0.13 -0.161,1.3 m -116.407829,0 c 0,1.21 0.075,1.705 0.167,1.1 0.091,-0.605 0.091,-1.595 0,-2.2 -0.092,-0.605 -0.167,-0.11 -0.167,1.1 m 0.285999,6.833 c 0.003,0.972 0.179,2.037 0.39,2.367 0.256,0.401 0.301999,-0.13 0.138,-1.6 -0.307,-2.748 -0.536,-3.08 -0.528,-0.767 m 115.65783,-0.183 c -0.035,0.468 -0.159,1.457 -0.275,2.2 -0.193,1.236 -0.174,1.267 0.219,0.364 0.237,-0.542 0.36,-1.532 0.275,-2.2 -0.092,-0.717 -0.181,-0.866 -0.219,-0.364 m -114.857831,4.983 c 0.003,0.532 0.183,1.237 0.4,1.567 0.275999,0.422 0.316999,0.185 0.135999,-0.8 -0.316999,-1.725 -0.543999,-2.051 -0.535999,-0.767 m 114.047831,0.034 c -0.029,0.367 -0.17,0.997 -0.313,1.4 -0.2,0.566 -0.146,0.629 0.234,0.279 0.271,-0.249 0.412,-0.879 0.313,-1.4 -0.098,-0.52 -0.204,-0.646 -0.234,-0.279 m -113.219832,3.333 c -0.012,0.44 0.153,1.07 0.366,1.4 0.513999,0.795 0.513999,-0.204 0,-1.4 l -0.344,-0.8 -0.022,0.8 m 112.194832,0.829 c -0.148,0.586 -0.178,1.155 -0.068,1.265 0.11,0.11 0.32,-0.279 0.468,-0.865 0.147,-0.587 0.177,-1.156 0.067,-1.266 -0.11,-0.11 -0.32,0.279 -0.467,0.866 m -109.790835,6.371 c 0,0.22 0.522999,1.39 1.161998,2.6 0.638999,1.21 1.161998,2.02 1.161998,1.8 0,-0.22 -0.522999,-1.39 -1.161998,-2.6 -0.638999,-1.21 -1.161998,-2.02 -1.161998,-1.8 m 2.911995,6 c 0.324,0.66 0.880999,1.56 1.238998,2 0.608,0.748 0.612,0.722 0.061,-0.4 -0.323999,-0.66 -0.880998,-1.56 -1.238998,-2 -0.607999,-0.748 -0.611999,-0.722 -0.061,0.4 m 99.79685,3.295 c -0.961,1.482 -3.05399,4.27 -4.65199,6.195 -3.093,3.727 -8.18299,8.194 -12.59998,11.057 -1.482,0.961 -2.695,1.826 -2.695,1.924 0,0.22 0.364,0.005 3.6,-2.126 6.88999,-4.538 13.54098,-11.591 18.14597,-19.245 0.166,-0.275 0.222,-0.5 0.125,-0.5 -0.098,0 -0.963,1.213 -1.924,2.695 m -97.355853,0.705 c 2.863995,4.655 9.379986,11.439 14.450978,15.045 3.386995,2.407 6.95799,4.569 6.95799,4.212 0,-0.12 -1.124998,-0.877 -2.499996,-1.681 -5.919992,-3.463 -12.444982,-9.343 -16.618976,-14.976 -2.505996,-3.383 -3.383995,-4.38 -2.289996,-2.6 m 23.808965,20.6 c 1.209998,0.639 2.379996,1.162 2.599996,1.162 0.219999,0 -0.589999,-0.523 -1.799998,-1.162 -1.209998,-0.639 -2.379996,-1.162 -2.599996,-1.162 -0.219999,0 0.589999,0.523 1.799998,1.162 m 40.199938,3.2 -0.799997,0.344 0.799997,0.022 c 0.44,0.012 1.07,-0.153 1.4,-0.366 0.795,-0.514 -0.204,-0.514 -1.4,0 m -28.809955,0.784 c 0.142,0.229 0.726999,0.416 1.299998,0.416 1.253998,0 1.108998,-0.192 -0.424,-0.56 -0.742998,-0.178 -1.044998,-0.129 -0.875998,0.144 m 25.409962,0.016 -0.999998,0.32 1.075998,0.04 c 0.591999,0.022 1.187998,-0.14 1.323998,-0.36 0.281,-0.455 0.02,-0.455 -1.399998,0 m -21.399968,0.78 c 0.760999,0.346 3.716994,0.584 3.366995,0.271 -0.092,-0.082 -1.066999,-0.258 -2.166997,-0.392 -1.345998,-0.164 -1.738997,-0.124 -1.199998,0.121 m 16.599975,0.02 -1.399998,0.295 1.399998,0.024 c 0.769999,0.014 1.759998,-0.13 2.199997,-0.319 l 0.799999,-0.344 -0.799999,0.025 c -0.439999,0.013 -1.429998,0.157 -2.199997,0.319 m -8.499987,0.689 c 0.714999,0.089 1.884997,0.089 2.599996,0 0.714999,-0.088 0.13,-0.161 -1.299998,-0.161 -1.429998,0 -2.014997,0.073 -1.299998,0.161 m -2.299997,6.114 c -1.946997,0.194 -1.050998,0.276 3.566995,0.328 3.390995,0.038 6.090991,0.004 5.999991,-0.075 -0.365999,-0.318 -7.125989,-0.496 -9.566986,-0.253 m -6.79999,0.797 -0.999998,0.32 h 0.999998 c 0.55,0 1.449998,-0.144 1.999997,-0.32 l 0.999999,-0.32 h -0.999999 c -0.549999,0 -1.449997,0.144 -1.999997,0.32 m 18.799973,0 c 0.549999,0.176 1.449997,0.32 1.999997,0.32 h 0.999998 l -0.999998,-0.32 c -0.55,-0.176 -1.449998,-0.32 -1.999997,-0.32 h -0.999999 l 0.999999,0.32 m -22.399967,0.8 c -0.533,0.345 -0.533,0.388 0,0.388 0.329999,0 0.869998,-0.175 1.199998,-0.388 0.532999,-0.345 0.532999,-0.388 0,-0.388 -0.33,0 -0.869999,0.175 -1.199998,0.388 m 26.79996,0 c 0.33,0.213 0.869999,0.388 1.199998,0.388 0.533,0 0.533,-0.043 0,-0.388 -0.329999,-0.213 -0.869998,-0.388 -1.199998,-0.388 -0.532999,0 -0.532999,0.043 0,0.388 m -29.799956,0.8 c -0.503999,0.217 -0.577999,0.344 -0.2,0.344 0.33,0 0.959999,-0.155 1.399998,-0.344 0.504,-0.217 0.577999,-0.344 0.2,-0.344 -0.33,0 -0.959999,0.155 -1.399998,0.344 m 34.34495,0.45 c 1.29,0.436 2.433,0.706 2.54,0.599 0.208,-0.209 -3.745,-1.468 -4.458,-1.42 -0.235,0.015 0.628,0.385 1.918,0.821 m -41.544939,2.259 c -3.726995,1.748 -9.799986,5.308 -9.799986,5.744 0,0.166 0.944999,-0.323 2.099997,-1.086 2.739996,-1.811 9.659986,-5.367 10.441985,-5.367 0.335999,0 0.721999,-0.18 0.857998,-0.4 0.411,-0.665 -0.253999,-0.46 -3.599994,1.109 m 46.157929,-0.672 c 0.967,0.429 1.83,0.708 1.917,0.621 0.173,-0.172 -2.91,-1.476 -3.383,-1.43 -0.16099,0.016 0.499,0.38 1.466,0.809 m 4.245,1.968 c 0.134,0.217 0.41,0.395 0.613,0.395 0.36399,0 3.94899,2.151 6.08399,3.651 0.605,0.425 1.09999,0.622 1.09999,0.437 0,-0.184 -1.48099,-1.225 -3.29099,-2.312 -3.62499,-2.176 -4.88399,-2.783 -4.50599,-2.171 m 9.39698,5.861 c 6.08399,4.829 12.19398,12.281 16.34198,19.934 0.239,0.44 0.439,0.611 0.446,0.379 0.084,-2.911 -11.09099,-16.704 -16.38798,-20.227 -1.68,-1.117 -1.707,-1.123 -0.4,-0.086 m -36.499944,0.416 c 0.495,0.096 1.304998,0.096 1.799998,0 0.494999,-0.095 0.09,-0.173 -0.899999,-0.173 -0.989999,0 -1.394998,0.078 -0.899999,0.173 m -39.796941,3.818 c -2.017997,2.035 -4.053994,4.24 -4.524993,4.9 -0.471,0.66 0.221999,0.03 1.540997,-1.4 1.317998,-1.43 3.536995,-3.635 4.929993,-4.9 1.393998,-1.265 2.350997,-2.3 2.127997,-2.3 -0.223,0 -2.056997,1.665 -4.073994,3.7 m 36.001947,-3.413 c 0.608999,0.092 1.508998,0.09 1.999997,-0.005 0.491999,-0.095 -0.005,-0.171 -1.104998,-0.168 -1.099999,0.003 -1.502998,0.081 -0.894999,0.173 m 7.599989,0 c 0.608999,0.092 1.508997,0.09 1.999997,-0.005 0.491999,-0.095 -0.005,-0.171 -1.104999,-0.168 -1.099998,0.003 -1.502997,0.081 -0.894998,0.173 m -12.504982,0.513 c -1.343998,0.431 0.108,0.431 1.799997,0 1.077999,-0.274 1.097999,-0.306 0.2,-0.313 -0.549999,-0.004 -1.449998,0.137 -1.999997,0.313 m 17.399974,0 c 1.691998,0.431 3.143996,0.431 1.799998,0 -0.549999,-0.176 -1.449998,-0.317 -1.999997,-0.313 -0.897999,0.007 -0.877999,0.039 0.199999,0.313 m -20.399969,0.8 c -0.504,0.217 -0.578,0.344 -0.2,0.344 0.329999,0 0.959998,-0.155 1.399998,-0.344 0.503999,-0.217 0.577999,-0.344 0.199999,-0.344 -0.329999,0 -0.959998,0.155 -1.399997,0.344 m 23.999964,0 c 0.44,0.189 1.069999,0.344 1.399998,0.344 0.378,0 0.304,-0.127 -0.2,-0.344 -0.439999,-0.189 -1.069998,-0.344 -1.399998,-0.344 -0.377999,0 -0.303999,0.127 0.2,0.344 m -27.799959,1.2 c -1.834997,1.005 -1.349998,1.01 0.855999,0.009 0.958998,-0.435 1.473998,-0.788 1.143998,-0.783 -0.329999,0.004 -1.229998,0.352 -1.999997,0.774 m 31.545954,-0.184 c 0.739997,0.321 1.459997,0.578 1.599997,0.57 0.52,-0.029 -1.769997,-1.158 -2.345996,-1.156 -0.33,10e-4 0.006,0.264 0.745999,0.586 m 4.443997,1.81 c 1.42399,0.674 2.85299,1.438 3.17599,1.699 0.462,0.373 0.522,0.366 0.282,-0.034 -0.352,-0.585 -4.76899,-2.891 -5.53699,-2.891 -0.281,0 0.654,0.552 2.079,1.226 m -40.063945,-0.012 c -0.810999,0.428 -1.609997,1.005 -1.776997,1.282 -0.239,0.399 -0.177,0.403 0.296999,0.019 0.33,-0.267 1.399998,-0.848 2.376997,-1.291 0.976998,-0.444 1.506998,-0.802 1.176998,-0.798 -0.329999,0.005 -1.262998,0.36 -2.073997,0.788 m -3.725994,2.262 c -2.130997,1.144 -5.526992,3.979 -8.599988,7.181 l -2.999995,3.126 3.600994,-3.392 c 4.077994,-3.841 5.286993,-4.823 7.698989,-6.257 0.934999,-0.555 1.699998,-1.083 1.699998,-1.172 0,-0.228 -0.057,-0.207 -1.399998,0.514 m 47.799929,-0.157 c 0,0.08 0.945,0.756 2.1,1.501 3.17899,2.051 9.30898,8.18 11.56898,11.567 2.356,3.53 2.69,3.92 1.724,2.013 -2.216,-4.375 -15.39298,-17.285 -15.39298,-15.081 m -71.024895,4.949 c -0.615999,0.808 -0.915999,1.343 -0.665999,1.188 0.511999,-0.316 2.243997,-2.656 1.965997,-2.656 -0.099,0 -0.683999,0.661 -1.299998,1.468 m -1.858997,2.62 c -0.864999,1.334 -1.567998,2.712 -1.382998,2.712 0.291999,0 2.330996,-3.27 2.150996,-3.449 -0.097,-0.097 -0.441999,0.235 -0.767998,0.737 m 11.912982,5.125 c -0.844999,1.108 -1.447998,2.101 -1.340998,2.209 0.163,0.162 1.467998,-1.55 2.831996,-3.714 0.743999,-1.181 -0.067,-0.362 -1.490998,1.505 m -2.860996,4.605 c -0.585999,1 -0.997998,1.886 -0.914998,1.968 0.082,0.082 0.643999,-0.736 1.247998,-1.818 1.381998,-2.475 1.103998,-2.601 -0.333,-0.15 m -2.502996,5.427 c -0.782999,2.09 -0.819999,2.853 -0.057,1.197 0.444999,-0.967 0.719999,-1.847 0.611999,-1.956 -0.109,-0.108 -0.358999,0.233 -0.554999,0.759 m 98.368852,-0.445 c 0.012,0.33 0.177,0.96 0.366,1.4 l 0.344,0.8 0.022,-0.8 c 0.012,-0.44 -0.153,-1.07 -0.366,-1.4 -0.345,-0.533 -0.385,-0.533 -0.366,0 m -111.766832,0.267 c -0.147,0.146 -0.256,0.641 -0.242,1.1 0.024,0.766 0.057,0.756 0.408999,-0.125 0.392,-0.979 0.31,-1.453 -0.166999,-0.975 m 112.566832,2.933 c 0.012,0.33 0.177,0.96 0.366,1.4 l 0.344,0.8 0.022,-0.8 c 0.012,-0.44 -0.153,-1.07 -0.366,-1.4 -0.345,-0.533 -0.385,-0.533 -0.366,0 m -113.366831,0.267 c -0.147,0.146 -0.249,0.821 -0.226,1.5 l 0.041,1.233 0.328,-1.397 c 0.342999,-1.456 0.306999,-1.787 -0.143,-1.336 m 12.782981,1.383 c -0.332999,1.667 -0.01,1.99 0.35,0.35 0.151999,-0.691 0.192999,-1.341 0.091,-1.442 -0.101999,-0.102 -0.299999,0.389 -0.440999,1.092 m 87.80587,-0.65 c 0,0.44 0.155,1.16 0.344,1.6 l 0.344,0.8 v -0.8 c 0,-0.44 -0.155,-1.16 -0.344,-1.6 l -0.344,-0.8 v 0.8 m 13.61898,3 c 0.011,0.55 0.157,1.54 0.325,2.2 l 0.305,1.2 0.02,-1.4 c 0.01,-0.77 -0.136,-1.76 -0.325,-2.2 -0.312,-0.726 -0.342,-0.707 -0.325,0.2 m -115.01883,0.484 c -0.135,0.504 -0.226,1.636 -0.202,2.516 0.038,1.378 0.092,1.271 0.389,-0.772 0.354999,-2.429 0.251999,-3.382 -0.187,-1.744 m 12.725981,0.898 c -0.152999,1.02 -0.187999,1.945 -0.078,2.055 0.11,0.11 0.325,-0.635 0.478,-1.655 0.153,-1.021 0.187999,-1.945 0.078,-2.055 -0.11,-0.11 -0.325,0.634 -0.478,1.655 m 89.676869,0.018 c 0.134,1.1 0.31,2.075 0.392,2.167 0.313,0.35 0.075,-2.606 -0.271,-3.367 -0.245,-0.539 -0.285,-0.146 -0.121,1.2 m -90.322868,5.3 c -0.075,1.265 -0.033,3.65 0.092,5.3 0.193,2.54 0.239,2.187 0.3,-2.3 0.074,-5.421 -0.149,-7.126 -0.392,-3 m 91.002868,2.9 c 0,4.111 0.055,4.693 0.23,2.437 0.127,-1.63 0.128,-4.06 10e-4,-5.4 -0.149,-1.58 -0.23,-0.538 -0.231,2.963 m 12.79198,-0.2 c 0.002,1.54 0.074,2.121 0.161,1.291 0.087,-0.83 0.085,-2.09 -0.003,-2.8 -0.089,-0.71 -0.16,-0.031 -0.158,1.509 m -116.410829,0.2 c 0,1.21 0.075,1.705 0.167,1.1 0.091,-0.605 0.091,-1.595 0,-2.2 -0.092,-0.605 -0.167,-0.11 -0.167,1.1 m 0.307999,6.433 c 0.016,0.972 0.186,2.127 0.38,2.567 0.223,0.508 0.265999,-0.076 0.116,-1.6 -0.284,-2.901 -0.534,-3.388 -0.496,-0.967 m 12.846981,0.367 c -0.01,0.77 0.136,1.76 0.325,2.2 0.456999,1.064 0.456999,-0.603 0,-2.4 l -0.305,-1.2 -0.02,1.4 m 89.970869,-0.184 c -0.025,0.449 -0.321,1.873 -0.658,3.165 -0.336,1.291 -0.546,2.544 -0.467,2.782 0.233,0.698 1.569,-5.226 1.361,-6.032 -0.167,-0.643 -0.195,-0.633 -0.236,0.085 m 12.81798,-0.166 c -0.035,0.358 -0.166,1.257 -0.291,2 -0.185,1.105 -0.144,1.221 0.225,0.641 0.248,-0.389 0.379,-1.289 0.291,-2 -0.089,-0.71 -0.19,-0.998 -0.225,-0.641 m -102.00785,4.15 c 0,0.44 0.155,1.16 0.344,1.6 l 0.343999,0.8 v -0.8 c 0,-0.44 -0.154999,-1.16 -0.343999,-1.6 l -0.344,-0.8 v 0.8 m -12.855981,0.91 c 0,0.683 0.177,1.352 0.394,1.486 0.245999,0.152 0.299999,-0.251 0.143,-1.076 -0.337,-1.769 -0.537,-1.921 -0.537,-0.41 m 113.828831,0.719 c -0.148,0.586 -0.178,1.155 -0.068,1.265 0.11,0.11 0.32,-0.279 0.468,-0.865 0.147,-0.587 0.177,-1.156 0.067,-1.266 -0.11,-0.11 -0.32,0.279 -0.467,0.866 m -113.000832,2.847 c -0.015,0.482 0.152,0.988 0.372,1.124 0.472999,0.292 0.472999,-0.099 0,-1.2 -0.331,-0.771 -0.345,-0.769 -0.372,0.076 m 112.200832,0.353 c -0.148,0.586 -0.178,1.155 -0.068,1.265 0.11,0.11 0.32,-0.279 0.468,-0.865 0.147,-0.587 0.177,-1.156 0.067,-1.266 -0.11,-0.11 -0.32,0.279 -0.467,0.866 m -16.44697,6.875 c -1.563,2.941 -5.315,7.57 -8.80899,10.868 -1.965,1.854 -3.033,2.999 -2.373,2.544 3.625,-2.501 12.98698,-13.863 12.12899,-14.72 -0.09,-0.091 -0.516,0.498 -0.947,1.308 m -78.394888,1.271 c 0.334,0.646 0.788999,1.286 1.010999,1.424 0.222,0.137 0.025,-0.392 -0.436999,-1.175 -1.012999,-1.717 -1.425998,-1.896 -0.574,-0.249 m 90.916868,2.099 c -0.538,1.169 -1.727,3.344 -2.641,4.833 -0.915,1.489 -1.66,2.839 -1.655,3 0.01,0.418 2.252,-3.2 4.105,-6.628 0.868,-1.606 1.487,-3.013 1.374,-3.125 -0.113,-0.113 -0.645,0.751 -1.183,1.92 m -104.303848,-0.254 c 0,0.452 1.265998,2.647 1.430998,2.482 0.189,-0.188 -0.983998,-2.702 -1.259998,-2.702 -0.094,0 -0.171,0.099 -0.171,0.22 m 15.649977,1.38 c 1.096999,1.698 6.88499,7.744 8.549988,8.932 0.659999,0.47 -0.704999,-1.032 -3.031996,-3.338 -2.327997,-2.307 -4.724993,-4.824 -5.326992,-5.594 l -1.094999,-1.4 0.903999,1.4 m -13.24998,2.907 c 0,0.372 3.253995,5.079 3.701994,5.356 0.2,0.124 -0.400999,-0.92 -1.336998,-2.319 -1.881997,-2.815 -2.364996,-3.435 -2.364996,-3.037 m 95.799861,5.637 c -1.373,1.895 -1.795,2.716 -0.951,1.849 0.878,-0.902 2.457,-3.222 2.295,-3.372 -0.079,-0.073 -0.684,0.612 -1.344,1.523 m -91.174868,1.127 c 1.211998,1.676 7.798988,8.076 9.574986,9.304 1.537997,1.063 1.529997,1.047 -0.2,-0.413 -0.989998,-0.836 -3.678995,-3.419 -5.974991,-5.741 -2.296997,-2.321 -3.826995,-3.739 -3.399995,-3.15 m 84.974878,5.646 c -4.102,3.985 -4.197,4.3 -0.209,0.686 1.92399,-1.743 4.85499,-4.822 4.55599,-4.785 -0.081,0.01 -2.037,1.854 -4.34699,4.099 m -59.599916,-1.521 c 0,0.274 2.448997,1.488 2.631997,1.305 0.087,-0.087 -0.47,-0.457 -1.236999,-0.823 -0.766998,-0.366 -1.394998,-0.583 -1.394998,-0.482 m 38.399946,0.604 c -0.77,0.422 -1.22,0.766 -1,0.766 0.22,0 1.03,-0.344 1.8,-0.766 0.77,-0.422 1.21999,-0.766 1,-0.766 -0.22,0 -1.03,0.344 -1.8,0.766 m -4.999995,1.82 c -1.539997,0.517 -2.519996,0.949 -2.177997,0.96 0.702999,0.023 5.577992,-1.565 5.577992,-1.817 0,-0.252 -0.39,-0.154 -3.399995,0.857 m -26.79996,0.394 c 0.659999,0.303 1.559997,0.546 1.999997,0.541 0.439999,-0.005 -0.01,-0.264 -0.999999,-0.576 -2.220996,-0.699 -2.577996,-0.687 -0.999998,0.035 m 5.099992,1.262 c 0.385,0.1 1.014999,0.1 1.399998,0 0.385,-0.101 0.07,-0.183 -0.699999,-0.183 -0.769999,0 -1.084998,0.082 -0.699999,0.183 m 15.199978,0 c 0.384999,0.1 1.014998,0.1 1.399998,0 0.384999,-0.101 0.07,-0.183 -0.699999,-0.183 -0.769999,0 -1.084999,0.082 -0.699999,0.183 m 25.401965,3.226 c -1.484,1.009 -2.623,1.91 -2.531,2.002 0.201,0.201 4.87299,-2.929 5.22799,-3.502 0.35,-0.567 0.303,-0.541 -2.69699,1.5 m -65.612906,-0.272 c 0.488999,0.509 0.988999,0.825 1.111998,0.702 0.123,-0.123 -0.276999,-0.54 -0.888998,-0.926 l -1.111999,-0.702 0.888999,0.926 m 61.210906,2.999 c -0.605,0.328 -1.09999,0.681 -1.09999,0.784 0,0.386 0.63199,0.144 1.59999,-0.613 1.189,-0.93 1.011,-0.991 -0.5,-0.171 m -55.499914,0.367 c 0,0.274 2.448996,1.488 2.631996,1.305 0.087,-0.087 -0.47,-0.457 -1.236998,-0.823 -0.766999,-0.366 -1.394998,-0.583 -1.394998,-0.482 m 6.940989,3.278 c 0.385,0.385 3.135996,1.316 3.858995,1.306 0.329999,-0.005 -0.383,-0.362 -1.584998,-0.794 -2.379996,-0.856 -2.687996,-0.926 -2.273997,-0.512 m 39.258945,0.443 c -1.262,0.421 -1.726,0.721 -1.258,0.813 0.409,0.08 0.94,-0.052 1.18,-0.292 0.241,-0.241 0.751,-0.438 1.134,-0.438 0.383,0 0.80799,-0.18 0.94399,-0.4 0.136,-0.22 0.192,-0.389 0.124,-0.375 -0.068,0.013 -1.02399,0.325 -2.12399,0.692 m -34.409952,1.267 c 0.142,0.229 0.726999,0.416 1.299998,0.416 1.253999,0 1.108999,-0.192 -0.423999,-0.56 -0.742999,-0.178 -1.044998,-0.129 -0.875999,0.144 m 30.209956,0.016 -0.999999,0.32 0.999999,0.034 c 0.549999,0.019 1.269996,-0.141 1.599996,-0.354 0.764,-0.494 -0.058,-0.494 -1.599996,0 m -26.99996,0.797 c 0.763998,0.331 3.713994,0.558 3.366995,0.259 -0.092,-0.079 -1.066999,-0.247 -2.166997,-0.374 -1.286998,-0.149 -1.714998,-0.108 -1.199998,0.115 m 22.999966,0.078 c -1.209999,0.206 -3.999994,0.526 -6.199991,0.712 l -3.999994,0.337 4.199994,-0.144 c 4.369993,-0.15 8.191987,-0.639 8.660987,-1.108 0.306999,-0.307 0.342999,-0.309 -2.660996,0.203 m -18.399973,0.751 c 0.961998,0.283 8.216988,0.454 7.399989,0.174 -0.22,-0.076 -2.199997,-0.212 -4.399994,-0.303 -2.199996,-0.091 -3.549994,-0.033 -2.999995,0.129"
       stroke="none"
       fill="#342c34"
       fill-rule="evenodd" />
  </g>
</svg>
