<?xml version="1.0" encoding="UTF-8" standalone="no"?>
<svg
   id="svg"
   version="1.1"
   width="170"
   height="400"
   viewBox="0 0 170 400"
   sodipodi:docname="traffic-light-icon-yellow-red-1.svg"
   inkscape:version="1.2.1 (9c6d41e410, 2022-07-14)"
   xmlns:inkscape="http://www.inkscape.org/namespaces/inkscape"
   xmlns:sodipodi="http://sodipodi.sourceforge.net/DTD/sodipodi-0.dtd"
   xmlns="http://www.w3.org/2000/svg"
   xmlns:svg="http://www.w3.org/2000/svg">
  <defs
     id="defs15" />
  <sodipodi:namedview
     id="namedview13"
     pagecolor="#ffffff"
     bordercolor="#000000"
     borderopacity="0.25"
     inkscape:showpageshadow="2"
     inkscape:pageopacity="0.0"
     inkscape:pagecheckerboard="0"
     inkscape:deskcolor="#d1d1d1"
     showgrid="false"
     inkscape:zoom="2.5675"
     inkscape:cx="200.19474"
     inkscape:cy="199.80526"
     inkscape:window-width="5160"
     inkscape:window-height="2054"
     inkscape:window-x="-11"
     inkscape:window-y="-11"
     inkscape:window-maximized="1"
     inkscape:current-layer="svgg" />
  <g
     id="svgg">
    <path
       id="path0"
       d="m 78.81625,155.28439 c -2.09,0.291 -4.52,0.735 -5.4,0.987 -0.88,0.252 -2.097,0.554 -2.705,0.671 -0.608,0.117 -1.203,0.372 -1.324,0.567 -0.12,0.195 -0.472,0.354 -0.783,0.354 -1.282,0 -6.267,2.76 -11.653,6.453 -4.962,3.402 -14.135,15.939 -14.135,19.319 0,0.319 -0.159,0.679 -0.354,0.799 -0.195,0.121 -0.444,0.716 -0.555,1.324 -0.111,0.608 -0.474,2.095 -0.808,3.305 -2.017,7.317 -1.177,23.412 1.368,26.18 0.192,0.209 0.349,0.625 0.349,0.925 0,0.835 2.367,5.621 4.047,8.184 15.873,24.21 49.38,27.732 69.777,7.335 19.327,-19.327 17.286,-50.986 -4.367,-67.75 -2.99,-2.315 -9.891,-6.074 -11.152,-6.074 -0.3,0 -0.716,-0.157 -0.925,-0.349 -2.092,-1.923 -14.379,-3.204 -21.38,-2.23"
       stroke="none"
       fill="#fbab43"
       fill-rule="evenodd" />
    <path
       id="path1"
       d="m 14.01625,199.86339 v 186.4 h 70.8 70.8 v -186.4 -186.400001 h -70.8 -70.8 V 199.86339 m 79.776,-180.363001 c 3.591,0.647 8.421,1.844 9.424,2.335 0.33,0.161 1.455,0.543 2.5,0.848 1.045,0.305 1.9,0.695 1.9,0.867 0,0.172 0.252,0.313 0.559,0.313 0.897,0 6.55,3.091 10.21,5.583 4.391,2.99 10.077,8.486 12.846,12.418 0.542,0.769 1.101,1.489 1.243,1.599 1.374,1.065 6.194,10.582 7.597,15 0.28,0.88 0.652,1.771 0.827,1.98 0.175,0.209 0.318,0.938 0.318,1.62 0,0.682 0.162,1.411 0.359,1.62 2.017,2.135 1.816,20.4 -0.316,28.78 -0.224,0.88 -0.527,2.098 -0.673,2.706 -0.146,0.608 -0.424,1.204 -0.618,1.324 -0.193,0.119 -0.352,0.476 -0.352,0.793 0,2.248 -5.958,12.757001 -9.738,17.177001 -4.497,5.258 -13.571,13 -15.235,13 -0.12,0 -0.535,0.271 -0.922,0.602 -0.588,0.503 -4.785,2.538 -7.905,3.833 -11.898,4.941 -30.225,4.939 -42,-0.003 -2.324,-0.976 -8.018,-3.866 -8.133,-4.128 -0.074,-0.167 -0.309,-0.304 -0.522,-0.304 -0.361,0 -5.096,-3.051 -5.545,-3.572 -0.11,-0.128 -0.83,-0.705 -1.6,-1.283 -5.908,-4.433 -12.337,-12.684 -16.007,-20.545 -2.029,-4.344001 -3.593,-8.718001 -3.593,-10.047001 0,-0.436 -0.162,-0.964 -0.359,-1.173 -0.448,-0.474 -0.759,-2.664 -1.235,-8.68 -0.51,-6.45 0.077,-13.908 1.551,-19.7 0.224,-0.88 0.527,-2.098 0.673,-2.706 0.146,-0.608 0.424,-1.204 0.618,-1.324 0.193,-0.119 0.352,-0.569 0.352,-0.999 0,-0.43 0.166,-1.094 0.369,-1.476 0.202,-0.382 1.01,-2.083 1.795,-3.78 1.353,-2.926 4.432,-8.285 5.007,-8.715 0.147,-0.11 0.702,-0.83 1.233,-1.6 3.065,-4.445 11.598,-12.118 16.324,-14.679 0.81,-0.439 2.152,-1.186 2.984,-1.659 0.832,-0.474 1.777,-0.862 2.1,-0.862 0.323,0 0.588,-0.18 0.588,-0.4 0,-0.22 0.36,-0.4 0.8,-0.4 0.44,0 0.8,-0.18 0.8,-0.4 0,-0.22 0.362,-0.4 0.805,-0.4 0.443,0 1.118,-0.159 1.5,-0.353 2.082,-1.059 6.339,-2.272 11.095,-3.163 2.851,-0.533 15.498,-0.566 18.376,-0.047 m -10.285,12.652 c 0.71,0.088 1.97,0.09 2.8,0.003 0.83,-0.087 0.249,-0.159 -1.291,-0.161 -1.54,-0.002 -2.219,0.069 -1.509,0.158 m -22.791,6.74 c -1.495,0.811 -1.404,1.149 0.1,0.371 0.66,-0.341 1.2,-0.706 1.2,-0.81 0,-0.258 -0.043,-0.243 -1.3,0.439 m 48.5,0.282 c 0,0.076 0.585,0.567 1.3,1.09 0.804,0.589 1.084,0.686 0.733,0.254 -0.533,-0.656 -2.033,-1.648 -2.033,-1.344 m 3.2,2.343 c 0.11,0.09 1.91,1.775 4,3.746 l 3.8,3.582 -3.2,-3.319 c -1.76,-1.825 -3.56,-3.51 -4,-3.745 -0.44,-0.234 -0.71,-0.353 -0.6,-0.264 m -59.929,4.097 c -1.799,1.843 -3.271,3.493 -3.271,3.667 0,0.173 0.05,0.24 0.11,0.149 0.061,-0.092 1.622,-1.742 3.471,-3.667 1.848,-1.925 3.271,-3.5 3.161,-3.5 -0.11,0 -1.672,1.508 -3.471,3.351 m -4.548,5.349 c -0.705,0.821 -1.233,1.7 -1.022,1.7 0.082,0 0.548,-0.54 1.036,-1.2 0.964,-1.304 0.955,-1.628 -0.014,-0.5 m 75.716,3.476 c 0.462,0.783 0.917,1.424 1.011,1.424 0.284,0 -1.014,-2.331 -1.448,-2.599 -0.222,-0.137 -0.025,0.392 0.437,1.175 m -79.459,2.664 c -0.569,1.122 -0.967,2.107 -0.885,2.189 0.082,0.082 0.632,-0.836 1.223,-2.04 0.59,-1.204 0.988,-2.189 0.884,-2.189 -0.104,0 -0.654,0.918 -1.222,2.04 m 85.121,12.56 c 0.004,0.88 0.086,1.193 0.182,0.695 0.096,-0.497 0.092,-1.217 -0.008,-1.6 -0.1,-0.382 -0.179,0.025 -0.174,0.905 m 0.83,7.6 c 0.002,1.54 0.074,2.121 0.161,1.291 0.087,-0.83 0.085,-2.09 -0.003,-2.8 -0.089,-0.71 -0.16,-0.031 -0.158,1.509 m -0.838,7.8 c 0,0.77 0.082,1.085 0.183,0.7 0.1,-0.385 0.1,-1.015 0,-1.4 -0.101,-0.385 -0.183,-0.07 -0.183,0.7 m -2.626,8.867 c -0.362,0.921 -0.593,1.74 -0.513,1.821 0.08,0.08 0.446,-0.605 0.813,-1.521 0.366,-0.917 0.597,-1.736 0.512,-1.821 -0.085,-0.085 -0.45,0.599 -0.812,1.521 m -7.441,12.433001 c -0.976,1.155 -1.273,1.65 -0.661,1.1 1.031,-0.927 2.852,-3.2 2.562,-3.2 -0.07,0 -0.925,0.945 -1.901,2.1 m -68.426,0.9 c 0.746,0.77 1.447,1.4 1.557,1.4 0.11,0 -0.411,-0.63 -1.157,-1.4 -0.746,-0.77 -1.447,-1.4 -1.557,-1.4 -0.11,0 0.411,0.63 1.157,1.4 m 3.4,3.364 c 0.836,0.965 3.8,3.419 3.8,3.146 0,-0.087 -1.035,-1.038 -2.3,-2.113 -1.265,-1.076 -1.94,-1.541 -1.5,-1.033 m 59.975,0.936 -1.175,1.3 1.3,-1.175 c 0.715,-0.646 1.3,-1.231 1.3,-1.3 0,-0.309 -0.33,-0.037 -1.425,1.175 m -31.875,10.996 c 1.375,0.078 3.625,0.078 5,0 1.375,-0.078 0.25,-0.142 -2.5,-0.142 -2.75,0 -3.875,0.064 -2.5,0.142 m 12.174,19.751 c 0.37,0.194 1.305,0.353 2.076,0.353 0.772,0 1.514,0.18 1.65,0.4 0.136,0.22 0.856,0.4 1.6,0.4 0.744,0 1.464,0.18 1.6,0.4 0.136,0.22 0.599,0.4 1.029,0.4 0.43,0 1.139,0.18 1.576,0.4 0.437,0.22 1.153,0.58 1.59,0.8 0.437,0.22 0.994,0.4 1.239,0.4 3.148,0 16.849,9.512 21.169,14.697 0.988,1.186 2.067,2.46 2.397,2.83 4.608,5.172 9.093,14.302 11.136,22.673 1.308,5.355 1.416,6.407 1.416,13.8 0,7.393 -0.108,8.445 -1.416,13.8 -5.224,21.396 -21.54,37.712 -42.936,42.936 -5.355,1.308 -6.407,1.416 -13.8,1.416 -4.928,0 -8.61,-0.189 -10,-0.513 -6.979,-1.625 -8.115,-1.98 -13.137,-4.107 -4.042,-1.711 -11.231,-5.961 -13.26,-7.838 -0.412,-0.382 -1.723,-1.504 -2.913,-2.494 -5.096,-4.238 -14.69,-18.092 -14.69,-21.213 0,-0.219 -0.208,-0.8 -0.462,-1.292 -0.994,-1.921 -1.138,-2.311 -1.138,-3.066 0,-0.43 -0.18,-0.893 -0.4,-1.029 -0.22,-0.136 -0.4,-0.831 -0.4,-1.544 0,-0.713 -0.162,-1.467 -0.359,-1.676 -1.741,-1.843 -1.741,-24.917 0,-26.76 0.197,-0.209 0.359,-0.963 0.359,-1.676 0,-0.713 0.18,-1.408 0.4,-1.544 0.22,-0.136 0.4,-0.599 0.4,-1.029 0,-0.43 0.18,-1.139 0.4,-1.576 0.22,-0.437 0.58,-1.153 0.8,-1.59 0.22,-0.437 0.4,-0.963 0.4,-1.168 0,-0.604 2.469,-5.605 4.265,-8.637 3.911,-6.607 12.528,-15.224 19.135,-19.135 3.032,-1.796 8.033,-4.265 8.637,-4.265 0.205,0 0.731,-0.18 1.168,-0.4 0.437,-0.22 1.153,-0.58 1.59,-0.8 0.437,-0.22 1.146,-0.4 1.576,-0.4 0.43,0 0.893,-0.18 1.029,-0.4 0.136,-0.22 0.831,-0.4 1.544,-0.4 0.713,0 1.467,-0.162 1.676,-0.359 1.363,-1.288 20.83,-1.958 23.054,-0.794 m -4.416,121.968 c 8.318,0.833 22.97,5.541 23.875,7.671 0.074,0.173 0.309,0.314 0.522,0.314 0.361,0 5.096,3.051 5.545,3.572 0.11,0.128 0.83,0.708 1.6,1.288 7.037,5.307 13.891,14.693 17.627,24.14 1.138,2.879 1.973,5.559 1.973,6.335 0,0.498 0.162,1.076 0.359,1.285 1.775,1.879 1.775,25.281 0,27.16 -0.197,0.209 -0.359,0.876 -0.359,1.481 0,0.606 -0.202,1.605 -0.45,2.22 -0.474,1.18 -0.925,2.331 -1.495,3.819 -4.029,10.516 -11.828,20.495 -20.843,26.67 -1.951,1.337 -3.727,2.43 -3.947,2.43 -0.219,0 -0.458,0.135 -0.532,0.3 -0.188,0.424 -5.132,2.9 -5.789,2.9 -0.299,0 -0.544,0.147 -0.544,0.328 0,0.18 -0.911,0.576 -2.025,0.879 -1.114,0.303 -2.115,0.696 -2.224,0.872 -0.109,0.177 -0.627,0.321 -1.151,0.321 -0.524,0 -1.064,0.18 -1.2,0.4 -0.136,0.22 -0.856,0.4 -1.6,0.4 -0.744,0 -1.45,0.157 -1.569,0.35 -0.505,0.817 -11.289,1.548 -17.231,1.169 -4.262,-0.272 -6.662,-0.627 -10,-1.476 -0.88,-0.224 -2.14,-0.529 -2.8,-0.679 -0.66,-0.149 -1.38,-0.401 -1.6,-0.56 -0.22,-0.158 -1.255,-0.533 -2.3,-0.833 -1.045,-0.3 -1.9,-0.686 -1.9,-0.858 0,-0.172 -0.36,-0.313 -0.8,-0.313 -0.44,0 -0.8,-0.18 -0.8,-0.4 0,-0.22 -0.265,-0.4 -0.588,-0.4 -0.323,0 -1.223,-0.36 -2,-0.8 -0.777,-0.44 -2.086,-1.182 -2.91,-1.648 -2.98,-1.688 -8.821,-6.233 -11.29,-8.785 -2.063,-2.134 -4.355,-4.767 -5.198,-5.972 -0.536,-0.767 -1.096,-1.485 -1.243,-1.595 -0.577,-0.431 -3.759,-5.958 -5.067,-8.8 -0.759,-1.65 -1.544,-3.313 -1.742,-3.695 -0.199,-0.382 -0.362,-1.027 -0.362,-1.433 0,-0.406 -0.123,-0.862 -0.274,-1.013 -0.427,-0.426 -1.313,-3.167 -1.32,-4.079 -0.003,-0.451 -0.168,-0.991 -0.365,-1.2 -1.474,-1.56 -1.818,-19.088 -0.49,-24.98 0.946,-4.199 1.18,-5.1 1.818,-7 3.38,-10.066 11.234,-21.444 18.581,-26.916 0.798,-0.594 1.54,-1.184 1.65,-1.312 0.449,-0.521 5.184,-3.572 5.545,-3.572 0.213,0 0.448,-0.141 0.522,-0.314 0.073,-0.172 1.483,-0.969 3.133,-1.77 10.331,-5.016 20.649,-6.964 31.258,-5.901 m -12.458,13.585 c -1.384,0.291 -1.386,0.295 -0.2,0.341 0.66,0.026 1.47,-0.128 1.8,-0.341 0.666,-0.43 0.445,-0.43 -1.6,0 m -7.8,2.029 c -0.88,0.423 -1.15,0.657 -0.6,0.52 1.133,-0.282 3.212,-1.324 2.6,-1.303 -0.22,0.007 -1.12,0.36 -2,0.783 m 27.8,-0.619 c 0,0.234 1.274,0.75 2.8,1.136 0.55,0.139 0.28,-0.094 -0.6,-0.517 -1.699,-0.817 -2.2,-0.958 -2.2,-0.619 m -32.978,2.764 c -4.8,2.502 -12.222,8.106 -12.222,9.227 0,0.165 0.855,-0.53 1.9,-1.543 1.045,-1.014 2.35,-2.151 2.9,-2.527 0.55,-0.377 1.09,-0.789 1.2,-0.917 0.427,-0.496 2.751,-1.881 6.2,-3.695 1.98,-1.042 3.388,-1.899 3.129,-1.906 -0.259,-0.007 -1.657,0.605 -3.107,1.361 m 37.378,-1.178 c 0,0.107 1.471,0.935 3.269,1.839 3.124,1.57 5.076,2.778 6.249,3.865 0.296,0.275 0.666,0.5 0.821,0.5 0.154,0 1.492,1.164 2.971,2.586 1.48,1.423 2.69,2.427 2.69,2.232 0,-0.49 -4.101,-4.132 -7,-6.215 -3.561,-2.56 -9,-5.465 -9,-4.807 m -51.401,12.099 c -1.473,1.758 -2.297,2.905 -2.084,2.905 0.276,0 3.579,-4.039 3.428,-4.191 -0.08,-0.079 -0.684,0.5 -1.344,1.286 m 67.801,-0.545 c 0,0.114 0.855,1.344 1.9,2.733 1.045,1.389 2.22,2.974 2.612,3.521 l 0.711,0.996 -0.462,-1 c -0.694,-1.505 -4.761,-6.843 -4.761,-6.25 m -71.552,5.45 c -0.495,0.88 -0.822,1.6 -0.727,1.6 0.095,0 0.649,-0.72 1.232,-1.6 0.582,-0.88 0.909,-1.6 0.726,-1.6 -0.182,0 -0.736,0.72 -1.231,1.6 m -1.709,2.888 c -0.878,1.409 -1.554,3.113 -1.23,3.102 0.329,-0.01 2.155,-3.659 1.939,-3.875 -0.077,-0.077 -0.396,0.271 -0.709,0.773 m -2.524,5.327 c -0.385,1.009 -0.617,1.917 -0.515,2.018 0.101,0.102 0.5,-0.64 0.885,-1.648 0.385,-1.009 0.617,-1.917 0.515,-2.018 -0.101,-0.102 -0.5,0.64 -0.885,1.648 m -1.166,3.2 c -0.137,0.358 -0.234,0.951 -0.215,1.318 0.019,0.367 0.193,0.136 0.387,-0.513 0.377,-1.262 0.244,-1.887 -0.172,-0.805 m 87.007,2.785 c 0,0.44 0.155,1.16 0.344,1.6 l 0.344,0.8 v -0.8 c 0,-0.44 -0.155,-1.16 -0.344,-1.6 l -0.344,-0.8 v 0.8 m 1.046,6.4 c 0.105,0.55 0.26,1 0.345,1 0.084,0 0.153,-0.45 0.153,-1 0,-0.55 -0.155,-1 -0.345,-1 -0.189,0 -0.258,0.45 -0.153,1 m -89.768,2.2 c 0,1.65 0.071,2.325 0.157,1.5 0.087,-0.825 0.087,-2.175 0,-3 -0.086,-0.825 -0.157,-0.15 -0.157,1.5 m -0.134,5.2 c 0,0.88 0.14,1.6 0.311,1.6 0.17,0 0.241,-0.72 0.158,-1.6 -0.084,-0.88 -0.224,-1.6 -0.311,-1.6 -0.087,0 -0.158,0.72 -0.158,1.6 m 89.855,1.455 c -0.142,1.031 -0.181,1.953 -0.086,2.047 0.094,0.094 0.296,-0.663 0.449,-1.684 0.153,-1.02 0.192,-1.942 0.086,-2.047 -0.106,-0.106 -0.308,0.652 -0.449,1.684 m -89.049,3.778 c 0.003,0.532 0.191,1.237 0.417,1.567 0.306,0.448 0.363,0.261 0.223,-0.738 -0.228,-1.623 -0.648,-2.167 -0.64,-0.829 m 88.194,0.767 c -0.152,0.691 -0.186,1.347 -0.076,1.457 0.11,0.11 0.324,-0.366 0.476,-1.057 0.152,-0.691 0.186,-1.347 0.076,-1.457 -0.11,-0.11 -0.324,0.366 -0.476,1.057 m -87.388,2.8 c 0,0.33 0.175,0.87 0.388,1.2 0.345,0.533 0.388,0.533 0.388,0 0,-0.33 -0.175,-0.87 -0.388,-1.2 -0.345,-0.533 -0.388,-0.533 -0.388,0 m 86.588,0.4 c -0.15,0.473 -0.183,0.95 -0.073,1.06 0.11,0.11 0.323,-0.187 0.473,-0.66 0.15,-0.473 0.183,-0.95 0.073,-1.06 -0.11,-0.11 -0.323,0.187 -0.473,0.66 m -1.128,3.419 c -0.37,0.774 -0.659,1.627 -0.644,1.895 0.016,0.267 0.38,-0.305 0.809,-1.272 0.934,-2.105 0.794,-2.634 -0.165,-0.623 m -80.586,7.281 c 2.691,4.696 11.6,14.1 13.358,14.1 0.379,0 -0.739,-1.022 -2.822,-2.58 -2.935,-2.194 -7.197,-6.962 -9.585,-10.72 -1.636,-2.575 -2.276,-3.113 -0.951,-0.8 m 77.084,-0.021 c -2.536,4.188 -7.194,9.384 -10.867,12.121 -1.033,0.77 -1.884,1.557 -1.891,1.749 -0.006,0.192 0.297,0.102 0.675,-0.2 0.378,-0.302 1.044,-0.819 1.479,-1.149 1.822,-1.382 6.998,-6.76 8.468,-8.8 2.89,-4.008 3.438,-4.861 3.247,-5.052 -0.104,-0.105 -0.604,0.494 -1.111,1.331 m -63.17,14.323 c 0,0.241 3.091,2.198 3.472,2.198 0.158,0 0.117,-0.163 -0.092,-0.362 -0.546,-0.521 -3.38,-2.06 -3.38,-1.836 m 48.5,0.342 c -0.495,0.245 -0.9,0.589 -0.9,0.765 0,0.385 1.455,-0.35 1.801,-0.911 0.136,-0.219 0.191,-0.376 0.123,-0.349 -0.068,0.027 -0.529,0.25 -1.024,0.495 m -41.3,3.618 c 0,0.09 0.81,0.439 1.8,0.776 2.157,0.735 2.387,0.518 0.351,-0.333 -1.447,-0.604 -2.151,-0.749 -2.151,-0.443 m 33.2,0.469 -1,0.602 1,-0.265 c 1.452,-0.384 2.403,-0.944 1.6,-0.942 -0.33,0.001 -1.05,0.273 -1.6,0.605 m -28.2,1.342 c 0.44,0.178 1.43,0.435 2.2,0.572 l 1.4,0.248 -1.4,-0.566 c -0.77,-0.311 -1.76,-0.568 -2.2,-0.571 l -0.8,-0.005 0.8,0.322 m 23,0.246 -1.4,0.557 1.6,-0.239 c 0.88,-0.132 1.87,-0.391 2.2,-0.576 1.02,-0.572 -0.811,-0.376 -2.4,0.258"
       stroke="none"
       fill="#434343"
       fill-rule="evenodd" />
    <path
       id="path2"
       d="m 76.21625,33.060389 c -17.766,3.602 -31.701,17.301 -35.404,34.803 -0.256,1.21 -0.617,2.83 -0.803,3.6 -0.438,1.813 -0.201,10.364 0.366,13.2 1.172,5.871 1.79,7.843 3.759,12 17.987,37.970001 75.485,31.966001 84.48,-8.822 0.362,-1.638 0.807,-3.559 0.989,-4.269 0.385,-1.496 0.274,-11.243 -0.152,-13.309 -5.376,-26.097 -28.456,-42.226 -53.235,-37.203 m 2.3,121.490001 c 0.605,0.091 1.595,0.091 2.2,0 0.605,-0.092 0.11,-0.167 -1.1,-0.167 -1.21,0 -1.705,0.075 -1.1,0.167 m 10.4,0 c 0.605,0.091 1.595,0.091 2.2,0 0.605,-0.092 0.11,-0.167 -1.1,-0.167 -1.21,0 -1.705,0.075 -1.1,0.167 m 28.073,13.013 c 1.995,2.035 3.708,3.649 3.806,3.587 0.212,-0.133 -6.854,-7.287 -7.198,-7.287 -0.129,0 1.397,1.665 3.392,3.7 m -64.782,0 -3.191,3.3 3.3,-3.191 c 1.815,-1.754 3.3,-3.239 3.3,-3.3 0,-0.291 -0.446,0.126 -3.409,3.191 m 69.638,5.538 c 0.644,0.791 1.252,1.37 1.35,1.287 0.099,-0.083 -0.428,-0.73 -1.17,-1.438 l -1.351,-1.287 1.171,1.438 m 8.161,19.881 0.193,1.881 0.136,-1.553 c 0.074,-0.854 -0.012,-1.7 -0.193,-1.881 -0.181,-0.181 -0.242,0.518 -0.136,1.553 m -90.67,1.681 c 0,1.21 0.075,1.705 0.167,1.1 0.091,-0.605 0.091,-1.595 0,-2.2 -0.092,-0.605 -0.167,-0.11 -0.167,1.1 m 0,10.4 c 0,1.21 0.075,1.705 0.167,1.1 0.091,-0.605 0.091,-1.595 0,-2.2 -0.092,-0.605 -0.167,-0.11 -0.167,1.1 m 90.67,1.681 c -0.106,1.035 -0.045,1.734 0.136,1.553 0.181,-0.181 0.267,-1.027 0.193,-1.881 l -0.136,-1.553 -0.193,1.881 m -8.19,20.036 c -1.528,2.065 -7.939,8.48 -10.178,10.183 -0.94,0.715 -1.579,1.3 -1.42,1.3 1.225,0 13.592,-12.384 12.95,-12.967 -0.084,-0.076 -0.692,0.592 -1.352,1.484 m -73,1.864 c 0,0.344 7.154,7.41 7.287,7.198 0.062,-0.098 -1.552,-1.811 -3.587,-3.806 -2.035,-1.995 -3.7,-3.521 -3.7,-3.392 m 9.087,8.428 c 0.708,0.742 1.355,1.269 1.438,1.17 0.083,-0.098 -0.496,-0.706 -1.287,-1.35 l -1.438,-1.171 1.287,1.351 m 18.479,8.117 c 0.181,0.181 1.027,0.267 1.881,0.193 l 1.553,-0.136 -1.881,-0.193 c -1.035,-0.106 -1.734,-0.045 -1.553,0.136 m 15.234,-0.126 -1.8,0.28 1.676,0.06 c 0.922,0.033 1.788,-0.12 1.924,-0.34 0.136,-0.22 0.192,-0.373 0.124,-0.34 -0.068,0.033 -0.934,0.186 -1.924,0.34"
       stroke="none"
       fill="#543c3c"
       fill-rule="evenodd"
       style="fill:#fb244b;fill-opacity:1" />
    <path
       id="path3"
       d="m 3.44425,0.15138889 c -1.014,0.261 -1.828,1.10000001 -1.828,1.88300001 0,0.346 -0.18,0.629 -0.4,0.629 -0.22,0 -0.4,0.349 -0.4,0.776 0,0.427 -0.18,0.888 -0.4,1.024 -0.555,0.343 -0.555,390.4570011 0,390.8000011 0.22,0.136 0.4,0.597 0.4,1.024 0,0.427 0.18,0.776 0.4,0.776 0.22,0 0.4,0.283 0.4,0.629 0,2.106 -5.708,1.971 83.2,1.971 88.908,0 83.2,0.135 83.2,-1.971 0,-0.346 0.18,-0.629 0.4,-0.629 0.22,0 0.4,-0.349 0.4,-0.776 0,-0.427 0.18,-0.888 0.4,-1.024 0.266,-0.164 0.4,-65.73 0.4,-195.4 0,-129.670001 -0.134,-195.2360011 -0.4,-195.4000011 -0.22,-0.136 -0.4,-0.597 -0.4,-1.024 0,-0.427 -0.18,-0.776 -0.4,-0.776 -0.22,0 -0.4,-0.283 -0.4,-0.629 0,-2.10500001 5.635,-1.96600001 -82.571,-2.02700001 -44.676,-0.03 -81.576,0.034 -82.001,0.144 M 155.91825,199.66339 c 0.096,175.274 0.061,186.831 -0.576,187.3 -0.891,0.656 -139.728,0.741 -140.952,0.086 -0.786,-0.42 -1.29,-373.337001 -0.506,-374.120001 0.147,-0.148 32.142,-0.223 71.1,-0.167 l 70.832,0.101 0.102,186.800001 M 77.01625,19.939389 c -3.45,0.631 -9.582,2.056 -10,2.324 -0.22,0.141 -1.21,0.509 -2.2,0.817 -8.326,2.597 -21.134,12.045 -26.006,19.183 -0.525,0.77 -1.065,1.49 -1.198,1.6 -0.621,0.51 -4.017,6.549 -5.293,9.411 -2.314,5.187 -3.657,9.642 -4.69,15.556 -0.538,3.081 -0.533,14.367 0.008,17.102 1,5.057 1.288,6.271 2.07,8.731 1.597,5.021 6.377,14.685001 7.914,16.000001 0.128,0.11 0.668,0.83 1.199,1.6 3.107,4.506 11.525,12.036 16.593,14.843 3.643,2.018 7.643,3.937 8.223,3.947 0.341,0.005 0.791,0.161 1,0.347 0.45,0.399 5.149,1.821 7.98,2.416 19.337,4.062 38.619,-1.552 52.69,-15.341 25.111,-24.607001 22.511,-65.887001 -5.49,-87.165001 -2.444,-1.858 -8.002,-5.447 -8.435,-5.447 -0.084,0 -1.19,-0.499 -2.459,-1.11 -1.268,-0.61 -3.116,-1.362 -4.106,-1.672 -0.99,-0.309 -1.98,-0.677 -2.2,-0.818 -0.452,-0.29 -6.753,-1.723 -10.424,-2.372 -2.859,-0.505 -12.317,-0.475 -15.176,0.048 m 16.4,11.522 c 0.22,0.166 0.94,0.403 1.6,0.527 2.785,0.524 4.494,1.001 6,1.677 5.226,2.343 8.957,4.373 11.395,6.198 1.949,1.46 9.205,8.771 9.205,9.276 0,0.237 0.326,0.721 0.725,1.077 1.636,1.46 6.075,9.53 6.075,11.045 0,0.305 0.18,0.666 0.4,0.802 0.22,0.136 0.4,0.676 0.4,1.2 0,0.524 0.16,1.052 0.356,1.173 0.977,0.604 2.509,15.922 1.675,16.756 -0.237,0.237 -0.431,1.554 -0.431,2.927 0,1.373 -0.18,2.608 -0.4,2.744 -0.22,0.136 -0.4,0.61 -0.4,1.053 0,1.866 -4.414,12.638001 -5.551,13.547001 -0.138,0.11 -0.505,0.695 -0.817,1.3 -0.312,0.605 -0.717,1.1 -0.9,1.1 -0.182,0 -0.332,0.245 -0.332,0.544 0,0.688 -9.539,10.256 -10.225,10.256 -0.279,0 -0.568,0.142 -0.642,0.314 -0.684,1.614 -9.119,5.58 -15.933,7.492 -5.344,1.5 -15.799,1.49 -21.6,-0.021 -4.939,-1.285 -12.174,-4.348 -13.204,-5.59 -0.272,-0.327 -0.714,-0.595 -0.983,-0.595 -0.269,0 -0.815,-0.36 -1.213,-0.8 -0.398,-0.44 -0.924,-0.8 -1.169,-0.8 -0.815,0 -9.363,-8.96 -11.255,-11.799 -2.485,-3.726001 -4.625,-8.134001 -5.73,-11.801001 -0.497,-1.65 -1.071,-3.553 -1.275,-4.228 -0.204,-0.676 -0.371,-2.15 -0.371,-3.277 0,-1.126 -0.18,-2.159 -0.4,-2.295 -0.22,-0.136 -0.4,-1.756 -0.4,-3.6 0,-1.844 0.18,-3.464 0.4,-3.6 0.22,-0.136 0.4,-1.576 0.4,-3.2 0,-1.624 0.18,-3.064 0.4,-3.2 0.22,-0.136 0.4,-0.61 0.4,-1.053 0,-2.781 5.441,-14.404 7.674,-16.394 0.399,-0.356 0.726,-0.827 0.726,-1.047 0,-0.462 7.899,-8.506 8.353,-8.506 0.167,0 0.89,-0.524 1.608,-1.165 0.718,-0.641 1.875,-1.398 2.572,-1.683 0.697,-0.285 1.521,-0.767 1.831,-1.071 0.31,-0.303 1.57,-1.001 2.8,-1.55 1.23,-0.55 2.866,-1.28 3.636,-1.623 1.313,-0.585 2.52,-0.925 5.4,-1.52 0.66,-0.137 1.56,-0.412 2,-0.613 1.601,-0.729 16.227,-0.71 17.2,0.023 m -17.4,111.269001 c -8.136,1.675 -12.011,2.921 -17.197,5.53 -15.11,7.602 -26.675,22.26 -30.143,38.203 -1.334,6.131 -1.46,7.29 -1.46,13.4 0,6.11 0.126,7.269 1.46,13.4 1.473,6.773 6.936,18.588 9.71,21 0.126,0.11 0.855,1.01 1.618,2 20.448,26.508 61.407,28.615 85.617,4.405 27.856,-27.856 20.346,-74.73 -14.805,-92.407 -5.289,-2.66 -9.254,-3.92 -17.531,-5.573 -2.555,-0.51 -14.732,-0.481 -17.269,0.042 m 14.2,11.384 c 1.76,0.114 3.371,0.374 3.58,0.578 0.209,0.204 0.963,0.371 1.676,0.371 0.713,0 1.408,0.18 1.544,0.4 0.136,0.22 0.771,0.4 1.411,0.4 0.641,0 1.806,0.36 2.589,0.8 0.783,0.44 1.658,0.8 1.944,0.8 0.615,0 4,1.674 4.975,2.46 0.375,0.302 1.311,0.892 2.081,1.311 4.329,2.358 12.163,10.374 13.809,14.129 0.41,0.935 0.874,1.7 1.032,1.7 0.355,0 2.359,3.965 2.359,4.666 0,0.28 0.36,1.151 0.8,1.934 0.44,0.783 0.8,1.948 0.8,2.589 0,0.64 0.18,1.275 0.4,1.411 0.22,0.136 0.4,0.831 0.4,1.544 0,0.713 0.167,1.467 0.371,1.676 0.204,0.209 0.464,1.82 0.578,3.58 0.113,1.76 0.326,4.072 0.472,5.137 0.168,1.229 0.103,2.099 -0.178,2.38 -0.248,0.248 -0.443,1.807 -0.443,3.539 0,1.703 -0.18,3.208 -0.4,3.344 -0.22,0.136 -0.4,0.856 -0.4,1.6 0,0.744 -0.18,1.464 -0.4,1.6 -0.22,0.136 -0.4,0.771 -0.4,1.411 0,0.641 -0.36,1.806 -0.8,2.589 -0.44,0.783 -0.8,1.658 -0.8,1.944 0,0.626 -1.415,3.419 -2.912,5.748 -0.599,0.931 -1.088,1.806 -1.088,1.945 0,1.159 -11.404,12.563 -12.563,12.563 -0.139,0 -1.014,0.489 -1.945,1.088 -2.329,1.497 -5.122,2.912 -5.748,2.912 -0.286,0 -1.161,0.36 -1.944,0.8 -0.783,0.44 -1.948,0.8 -2.589,0.8 -0.64,0 -1.275,0.18 -1.411,0.4 -0.136,0.22 -0.856,0.4 -1.6,0.4 -0.744,0 -1.464,0.18 -1.6,0.4 -0.136,0.22 -1.641,0.4 -3.344,0.4 -1.732,0 -3.291,0.195 -3.539,0.443 -0.281,0.281 -1.151,0.346 -2.38,0.178 -1.065,-0.146 -3.377,-0.359 -5.137,-0.472 -1.76,-0.114 -3.371,-0.374 -3.58,-0.578 -0.209,-0.204 -0.963,-0.371 -1.676,-0.371 -0.713,0 -1.408,-0.18 -1.544,-0.4 -0.136,-0.22 -0.771,-0.4 -1.411,-0.4 -0.641,0 -1.806,-0.36 -2.589,-0.8 -0.783,-0.44 -1.654,-0.8 -1.934,-0.8 -0.701,0 -4.666,-2.004 -4.666,-2.359 0,-0.158 -0.765,-0.622 -1.7,-1.032 -3.755,-1.646 -11.771,-9.48 -14.129,-13.809 -0.419,-0.77 -1.009,-1.706 -1.311,-2.081 -0.786,-0.975 -2.46,-4.36 -2.46,-4.975 0,-0.286 -0.36,-1.161 -0.8,-1.944 -0.44,-0.783 -0.8,-1.948 -0.8,-2.589 0,-0.64 -0.18,-1.275 -0.4,-1.411 -0.22,-0.136 -0.4,-0.831 -0.4,-1.544 0,-0.713 -0.167,-1.467 -0.371,-1.676 -0.204,-0.209 -0.462,-1.82 -0.573,-3.58 -0.111,-1.76 -0.324,-3.981 -0.474,-4.935 -0.172,-1.095 -0.108,-1.899 0.173,-2.18 0.255,-0.255 0.445,-1.853 0.445,-3.741 0,-1.813 0.18,-3.408 0.4,-3.544 0.22,-0.136 0.4,-0.856 0.4,-1.6 0,-0.744 0.18,-1.464 0.4,-1.6 0.22,-0.136 0.4,-0.771 0.4,-1.411 0,-0.641 0.323,-1.755 0.719,-2.477 0.395,-0.722 0.964,-2.077 1.264,-3.012 0.3,-0.935 0.696,-1.7 0.881,-1.7 0.185,0 0.336,-0.36 0.336,-0.8 0,-0.44 0.177,-0.8 0.394,-0.8 0.217,0 0.934,-1.07 1.594,-2.377 0.66,-1.307 1.446,-2.522 1.748,-2.7 0.301,-0.178 0.77,-0.748 1.043,-1.267 0.644,-1.225 6.052,-6.633 7.277,-7.277 0.519,-0.273 1.089,-0.742 1.267,-1.043 0.178,-0.302 1.393,-1.088 2.7,-1.748 1.307,-0.66 2.377,-1.377 2.377,-1.594 0,-0.217 0.36,-0.394 0.8,-0.394 0.44,0 0.8,-0.151 0.8,-0.336 0,-0.185 0.765,-0.581 1.7,-0.881 0.935,-0.3 2.29,-0.869 3.012,-1.264 0.722,-0.396 1.836,-0.719 2.477,-0.719 0.64,0 1.275,-0.18 1.411,-0.4 0.136,-0.22 0.856,-0.4 1.6,-0.4 0.744,0 1.464,-0.18 1.6,-0.4 0.136,-0.22 1.756,-0.4 3.6,-0.4 1.991,0 3.462,-0.177 3.623,-0.437 0.171,-0.277 0.945,-0.342 2.123,-0.177 1.02,0.142 3.294,0.352 5.054,0.465 m -13.4,111.031 c -15.798,2.708 -30.279,11.212 -38.004,22.318 -0.536,0.77 -1.118,1.58 -1.293,1.8 -2.404,3.015 -5.6,9.417 -7.459,14.942 -1.103,3.278 -1.432,4.579 -2.423,9.589 -0.231,1.171 -0.421,5.073 -0.421,8.669 0,6.108 0.151,7.624 1.278,12.8 4.009,18.42 18.801,35.276 36.322,41.392 0.77,0.269 1.76,0.636 2.2,0.815 0.865,0.353 1.906,0.644 4.4,1.232 7.394,1.744 19.466,1.888 25.6,0.307 5.782,-1.49 7.476,-2.005 7.98,-2.428 0.209,-0.175 0.622,-0.318 0.919,-0.318 0.296,0 2.158,-0.799 4.139,-1.776 43.392,-21.402 43.252,-82.96 -0.238,-104.186 -9.362,-4.57 -23.518,-6.781 -33,-5.156 m 11.684,11.551 c 7.587,0.798 17.714,3.996 19.512,6.162 0.276,0.333 0.672,0.605 0.881,0.605 2.171,0 12.504,10.247 15.126,15 0.485,0.88 1.042,1.797 1.236,2.037 0.953,1.175 3.631,8.381 4.299,11.563 1.111,5.296 1.262,6.555 1.262,10.506 0,17.394 -9.795,32.93 -25.884,41.057 -2,1.01 -3.914,1.837 -4.253,1.837 -0.339,0 -0.714,0.159 -0.833,0.352 -0.218,0.352 -0.832,0.539 -4.23,1.288 -5.618,1.238 -16.811,1.466 -20.2,0.411 -0.66,-0.206 -2.55,-0.784 -4.2,-1.285 -15.055,-4.574 -28.11,-18.556 -31.151,-33.366 -0.226,-1.1 -0.616,-2.99 -0.868,-4.2 -1.494,-7.196 0.908,-20.441 5.007,-27.6 0.315,-0.55 0.959,-1.701 1.43,-2.558 0.472,-0.857 1.291,-2.026 1.82,-2.596 0.529,-0.571 0.962,-1.181 0.962,-1.355 0,-1.177 8.889,-9.263 12.2,-11.098 0.88,-0.488 2.05,-1.194 2.6,-1.57 0.55,-0.376 1.63,-0.916 2.4,-1.2 0.77,-0.284 2.029,-0.795 2.797,-1.135 2.353,-1.041 6.794,-2.096 11.203,-2.662 2.31,-0.297 4.328,-0.559 4.484,-0.583 0.157,-0.023 2.137,0.152 4.4,0.39"
       stroke="none"
       fill="#241c24"
       fill-rule="evenodd" />
    <path
       id="path4"
       d="m 79.49725,277.71539 c -0.169,0.17 -1.247,0.44 -2.395,0.601 -5.075,0.71 -11.739,3.355 -16.849,6.686 -5.996,3.91 -11.813,10.256 -14.719,16.061 -0.716,1.43 -1.411,2.69 -1.545,2.8 -0.134,0.11 -0.349,0.56 -0.478,1 -0.129,0.44 -0.69,2.064 -1.247,3.608 -2.2,6.107 -3.135,19.297 -1.554,21.934 0.113,0.188 0.288,0.998 0.388,1.8 0.239,1.898 1.515,5.737 3.211,9.658 1.957,4.522 8.202,12.334 12.329,15.42 0.868,0.649 1.888,1.459 2.268,1.801 0.38,0.341 1.46,1.04 2.4,1.553 4.464,2.436 6.02,3.226 6.355,3.226 0.2,0 1.127,0.333 2.059,0.74 8.273,3.612 21.425,3.596 30.496,-0.038 2.509,-1.005 7.134,-3.179 7.4,-3.478 0.11,-0.124 0.74,-0.495 1.4,-0.824 0.66,-0.329 1.29,-0.691 1.4,-0.805 0.11,-0.113 1.19,-1.001 2.4,-1.973 5.009,-4.024 10.521,-10.915 12.495,-15.622 1.688,-4.023 2.261,-5.545 2.639,-7 2.266,-8.728 2.438,-13.11 0.84,-21.4 -0.795,-4.126 -3.22,-10.784 -4.055,-11.133 -0.176,-0.074 -0.319,-0.403 -0.319,-0.732 0,-1.756 -10.578,-14.535 -12.031,-14.535 -0.171,0 -0.555,-0.225 -0.851,-0.5 -1.767,-1.638 -8.779,-5.413 -11.718,-6.309 -0.88,-0.268 -1.771,-0.646 -1.98,-0.839 -0.209,-0.194 -0.848,-0.352 -1.42,-0.352 -0.572,0 -1.211,-0.163 -1.42,-0.361 -0.785,-0.747 -14.844,-1.642 -15.499,-0.987"
       stroke="none"
       fill="#444c3c"
       fill-rule="evenodd" />
    <path
       id="path5"
       d="m 84.11625,154.13939 c 0.385,0.1 1.015,0.1 1.4,0 0.385,-0.101 0.07,-0.183 -0.7,-0.183 -0.77,0 -1.085,0.082 -0.7,0.183 m -31.709,13.624 -3.391,3.5 3.5,-3.391 c 3.251,-3.15 3.682,-3.609 3.391,-3.609 -0.06,0 -1.635,1.575 -3.5,3.5 m 62.409,-2.1 c 0.746,0.77 1.447,1.4 1.557,1.4 0.11,0 -0.411,-0.63 -1.157,-1.4 -0.746,-0.77 -1.447,-1.4 -1.557,-1.4 -0.11,0 0.411,0.63 1.157,1.4 m 4,4 c 0.746,0.77 1.447,1.4 1.557,1.4 0.11,0 -0.411,-0.63 -1.157,-1.4 -0.746,-0.77 -1.447,-1.4 -1.557,-1.4 -0.11,0 0.411,0.63 1.157,1.4 m 11.309,26.6 c 0,0.99 0.078,1.395 0.173,0.9 0.096,-0.495 0.096,-1.305 0,-1.8 -0.095,-0.495 -0.173,-0.09 -0.173,0.9 m -91.216,3.6 c 0,0.77 0.082,1.085 0.183,0.7 0.1,-0.385 0.1,-1.015 0,-1.4 -0.101,-0.385 -0.183,-0.07 -0.183,0.7 m 91.608,0.2 c 0.004,0.88 0.086,1.193 0.182,0.695 0.096,-0.497 0.092,-1.217 -0.008,-1.6 -0.1,-0.382 -0.179,0.025 -0.174,0.905 m -0.392,3.4 c 0,0.99 0.078,1.395 0.173,0.9 0.096,-0.495 0.096,-1.305 0,-1.8 -0.095,-0.495 -0.173,-0.09 -0.173,0.9 m -79.709,26.6 c 0.746,0.77 1.447,1.4 1.557,1.4 0.11,0 -0.411,-0.63 -1.157,-1.4 -0.746,-0.77 -1.447,-1.4 -1.557,-1.4 -0.11,0 0.411,0.63 1.157,1.4 m 4,4 c 0.746,0.77 1.447,1.4 1.557,1.4 0.11,0 -0.411,-0.63 -1.157,-1.4 -0.746,-0.77 -1.447,-1.4 -1.557,-1.4 -0.11,0 0.411,0.63 1.157,1.4 m 25.9,11.282 c 0.495,0.096 1.305,0.096 1.8,0 0.495,-0.095 0.09,-0.173 -0.9,-0.173 -0.99,0 -1.395,0.078 -0.9,0.173 m 7.2,0 c 0.495,0.096 1.305,0.096 1.8,0 0.495,-0.095 0.09,-0.173 -0.9,-0.173 -0.99,0 -1.395,0.078 -0.9,0.173 m -3.195,0.401 c 0.497,0.096 1.217,0.092 1.6,-0.008 0.382,-0.1 -0.025,-0.179 -0.905,-0.174 -0.88,0.004 -1.193,0.086 -0.695,0.182"
       stroke="none"
       fill="#865e34"
       fill-rule="evenodd" />
    <path
       id="path6"
       d=""
       stroke="none"
       fill="#9c6c34"
       fill-rule="evenodd" />
    <path
       id="path7"
       d="m 13.88425,12.929389 c -0.784,0.783 -0.28,373.700001 0.506,374.120001 1.224,0.655 140.061,0.57 140.952,-0.086 0.637,-0.469 0.672,-12.026 0.576,-187.3 l -0.102,-186.800001 -70.832,-0.101 c -38.958,-0.056 -70.953,0.019 -71.1,0.167 m 141.732,186.934001 v 186.4 h -70.8 -70.8 v -186.4 -186.400001 h 70.8 70.8 V 199.86339 m -80.2,-180.316001 c -4.756,0.891 -9.013,2.104 -11.095,3.163 -0.382,0.194 -1.057,0.353 -1.5,0.353 -0.443,0 -0.805,0.18 -0.805,0.4 0,0.22 -0.36,0.4 -0.8,0.4 -0.44,0 -0.8,0.18 -0.8,0.4 0,0.22 -0.265,0.4 -0.588,0.4 -0.323,0 -1.268,0.388 -2.1,0.862 -0.832,0.473 -2.174,1.22 -2.984,1.659 -4.726,2.561 -13.259,10.234 -16.324,14.679 -0.531,0.77 -1.086,1.49 -1.233,1.6 -0.575,0.43 -3.654,5.789 -5.007,8.715 -0.785,1.697 -1.593,3.398 -1.795,3.78 -0.203,0.382 -0.369,1.046 -0.369,1.476 0,0.43 -0.159,0.88 -0.352,0.999 -0.194,0.12 -0.472,0.716 -0.618,1.324 -0.146,0.608 -0.449,1.826 -0.673,2.706 -1.474,5.792 -2.061,13.25 -1.551,19.7 0.476,6.016 0.787,8.206 1.235,8.68 0.197,0.209 0.359,0.737 0.359,1.173 0,1.329 1.564,5.703 3.593,10.047001 3.67,7.861 10.099,16.112 16.007,20.545 0.77,0.578 1.49,1.155 1.6,1.283 0.449,0.521 5.184,3.572 5.545,3.572 0.213,0 0.448,0.137 0.522,0.304 0.115,0.262 5.809,3.152 8.133,4.128 11.775,4.942 30.102,4.944 42,0.003 3.12,-1.295 7.317,-3.33 7.905,-3.833 0.387,-0.331 0.802,-0.602 0.922,-0.602 1.664,0 10.738,-7.742 15.235,-13 3.78,-4.42 9.738,-14.929001 9.738,-17.177001 0,-0.317 0.159,-0.674 0.352,-0.793 0.194,-0.12 0.472,-0.716 0.618,-1.324 0.146,-0.608 0.449,-1.826 0.673,-2.706 2.132,-8.38 2.333,-26.645 0.316,-28.78 -0.197,-0.209 -0.359,-0.938 -0.359,-1.62 0,-0.682 -0.143,-1.411 -0.318,-1.62 -0.175,-0.209 -0.547,-1.1 -0.827,-1.98 -1.403,-4.418 -6.223,-13.935 -7.597,-15 -0.142,-0.11 -0.701,-0.83 -1.243,-1.599 -2.769,-3.932 -8.455,-9.428 -12.846,-12.418 -3.66,-2.492 -9.313,-5.583 -10.21,-5.583 -0.307,0 -0.559,-0.141 -0.559,-0.313 0,-0.172 -0.855,-0.562 -1.9,-0.867 -1.045,-0.305 -2.17,-0.687 -2.5,-0.848 -1.003,-0.491 -5.833,-1.688 -9.424,-2.335 -2.878,-0.519 -15.525,-0.486 -18.376,0.047 m 16.776,0.344 c 3.671,0.649 9.972,2.082 10.424,2.372 0.22,0.141 1.21,0.509 2.2,0.818 0.99,0.31 2.838,1.062 4.106,1.672 1.269,0.611 2.375,1.11 2.459,1.11 0.433,0 5.991,3.589 8.435,5.447 28.001,21.278 30.601,62.558 5.49,87.165001 -15.342,15.034 -36.67,20.262 -57.49,14.091 -1.54,-0.456 -2.971,-0.981 -3.18,-1.166 -0.209,-0.186 -0.659,-0.342 -1,-0.347 -0.58,-0.01 -4.58,-1.929 -8.223,-3.947 -5.068,-2.807 -13.486,-10.337 -16.593,-14.843 -0.531,-0.77 -1.071,-1.49 -1.199,-1.6 -1.537,-1.315 -6.317,-10.979001 -7.914,-16.000001 -0.782,-2.46 -1.07,-3.674 -2.07,-8.731 -1.313,-6.64 -0.277,-18.69 2.275,-26.469 1.669,-5.087 6.282,-14.434 7.7,-15.6 0.133,-0.11 0.673,-0.83 1.198,-1.6 4.872,-7.138 17.68,-16.586 26.006,-19.183 0.99,-0.308 1.98,-0.676 2.2,-0.817 0.418,-0.268 6.55,-1.693 10,-2.324 2.859,-0.523 12.317,-0.553 15.176,-0.048 m -12.376,11.041 c -1.54,0.078 -3.16,0.306 -3.6,0.506 -0.44,0.201 -1.34,0.476 -2,0.613 -2.88,0.595 -4.087,0.935 -5.4,1.52 -0.77,0.343 -2.406,1.073 -3.636,1.623 -1.23,0.549 -2.49,1.247 -2.8,1.55 -0.31,0.304 -1.134,0.786 -1.831,1.071 -0.697,0.285 -1.854,1.042 -2.572,1.683 -0.718,0.641 -1.441,1.165 -1.608,1.165 -0.454,0 -8.353,8.044 -8.353,8.506 0,0.22 -0.327,0.691 -0.726,1.047 -2.233,1.99 -7.674,13.613 -7.674,16.394 0,0.443 -0.18,0.917 -0.4,1.053 -0.22,0.136 -0.4,1.576 -0.4,3.2 0,1.624 -0.18,3.064 -0.4,3.2 -0.22,0.136 -0.4,1.756 -0.4,3.6 0,1.844 0.18,3.464 0.4,3.6 0.22,0.136 0.4,1.169 0.4,2.295 0,1.127 0.167,2.601 0.371,3.277 0.204,0.675 0.778,2.578 1.275,4.228 1.105,3.667 3.245,8.075 5.73,11.801001 1.892,2.839 10.44,11.799 11.255,11.799 0.245,0 0.771,0.36 1.169,0.8 0.398,0.44 0.944,0.8 1.213,0.8 0.269,0 0.711,0.268 0.983,0.595 1.03,1.242 8.265,4.305 13.204,5.59 5.801,1.511 16.256,1.521 21.6,0.021 6.814,-1.912 15.249,-5.878 15.933,-7.492 0.074,-0.172 0.363,-0.314 0.642,-0.314 0.686,0 10.225,-9.568 10.225,-10.256 0,-0.299 0.15,-0.544 0.332,-0.544 0.183,0 0.588,-0.495 0.9,-1.1 0.312,-0.605 0.679,-1.19 0.817,-1.3 1.137,-0.909 5.551,-11.681001 5.551,-13.547001 0,-0.443 0.18,-0.917 0.4,-1.053 0.22,-0.136 0.4,-1.371 0.4,-2.744 0,-1.373 0.194,-2.69 0.431,-2.927 0.834,-0.834 -0.698,-16.152 -1.675,-16.756 -0.196,-0.121 -0.356,-0.649 -0.356,-1.173 0,-0.524 -0.18,-1.064 -0.4,-1.2 -0.22,-0.136 -0.4,-0.497 -0.4,-0.802 0,-1.515 -4.439,-9.585 -6.075,-11.045 -0.399,-0.356 -0.725,-0.84 -0.725,-1.077 0,-0.505 -7.256,-7.816 -9.205,-9.276 -2.438,-1.825 -6.169,-3.855 -11.395,-6.198 -1.506,-0.676 -3.215,-1.153 -6,-1.677 -0.66,-0.124 -1.38,-0.361 -1.6,-0.527 -0.487,-0.366 -9.727,-0.726 -13.6,-0.529 m 9.671,1.344 c 14.688,1.94 25.2,8.416 33.638,20.723 16.867,24.601 2.101,61.468001 -27.309,68.183001 -5.564,1.271 -7.124,1.481 -10.931,1.474 -18.666,-0.036 -35.638,-11.725 -42.386,-29.193001 -7.174,-18.57 -0.962,-40.304 14.917,-52.186 9.377,-7.017 21.446,-10.404 32.071,-9.001 m -10.671,109.615001 c -4.915,0.471 -6.949,0.805 -7.38,1.213 -0.209,0.197 -0.963,0.359 -1.676,0.359 -0.713,0 -1.408,0.18 -1.544,0.4 -0.136,0.22 -0.599,0.4 -1.029,0.4 -0.43,0 -1.139,0.18 -1.576,0.4 -0.437,0.22 -1.153,0.58 -1.59,0.8 -0.437,0.22 -0.963,0.4 -1.168,0.4 -0.604,0 -5.605,2.469 -8.637,4.265 -6.607,3.911 -15.224,12.528 -19.135,19.135 -1.796,3.032 -4.265,8.033 -4.265,8.637 0,0.205 -0.18,0.731 -0.4,1.168 -0.22,0.437 -0.58,1.153 -0.8,1.59 -0.22,0.437 -0.4,1.146 -0.4,1.576 0,0.43 -0.18,0.893 -0.4,1.029 -0.22,0.136 -0.4,0.831 -0.4,1.544 0,0.713 -0.162,1.467 -0.359,1.676 -1.741,1.843 -1.741,24.917 0,26.76 0.197,0.209 0.359,0.963 0.359,1.676 0,0.713 0.18,1.408 0.4,1.544 0.22,0.136 0.4,0.599 0.4,1.029 0,0.755 0.144,1.145 1.138,3.066 0.254,0.492 0.462,1.073 0.462,1.292 0,3.121 9.594,16.975 14.69,21.213 1.19,0.99 2.501,2.112 2.913,2.494 2.029,1.877 9.218,6.127 13.26,7.838 5.022,2.127 6.158,2.482 13.137,4.107 1.39,0.324 5.072,0.513 10,0.513 7.393,0 8.445,-0.108 13.8,-1.416 21.396,-5.224 37.712,-21.54 42.936,-42.936 1.308,-5.355 1.416,-6.407 1.416,-13.8 0,-7.393 -0.108,-8.445 -1.416,-13.8 -2.043,-8.371 -6.528,-17.501 -11.136,-22.673 -0.33,-0.37 -1.409,-1.644 -2.397,-2.83 -4.32,-5.185 -18.021,-14.697 -21.169,-14.697 -0.245,0 -0.802,-0.18 -1.239,-0.4 -0.437,-0.22 -1.153,-0.58 -1.59,-0.8 -0.437,-0.22 -1.146,-0.4 -1.576,-0.4 -0.43,0 -0.893,-0.18 -1.029,-0.4 -0.136,-0.22 -0.856,-0.4 -1.6,-0.4 -0.744,0 -1.464,-0.18 -1.6,-0.4 -0.136,-0.22 -0.878,-0.4 -1.65,-0.4 -0.771,0 -1.706,-0.159 -2.076,-0.353 -0.981,-0.513 -11.704,-0.8 -15.674,-0.419 m 14.469,0.797 c 8.277,1.653 12.242,2.913 17.531,5.573 11.069,5.566 20.155,14.643 25.618,25.589 15.366,30.795 0.79,68.075 -31.345,80.171 -22.963,8.643 -50.519,1.125 -65.085,-17.758 -0.763,-0.99 -1.492,-1.89 -1.618,-2 -2.774,-2.412 -8.237,-14.227 -9.71,-21 -1.334,-6.131 -1.46,-7.29 -1.46,-13.4 0,-6.11 0.126,-7.269 1.46,-13.4 3.468,-15.943 15.033,-30.601 30.143,-38.203 5.186,-2.609 9.061,-3.855 17.197,-5.53 2.537,-0.523 14.714,-0.552 17.269,-0.042 m -10.217,11.091 c -0.108,0.174 0.466,0.251 1.276,0.171 2.214,-0.218 2.477,-0.42 0.596,-0.455 -0.922,-0.018 -1.765,0.11 -1.872,0.284 m 27.548,7.941 c 2.037,1.807 2.787,2.334 2.002,1.406 -0.436,-0.515 -1.155,-1.122 -1.598,-1.349 -0.442,-0.227 -0.624,-0.252 -0.404,-0.057 m 10.2,9.601 c 0,0.216 0.585,0.921 1.3,1.567 l 1.3,1.175 -1.2,-1.398 c -0.66,-0.769 -1.245,-1.474 -1.3,-1.567 -0.055,-0.092 -0.1,0.008 -0.1,0.223 m -82.241,27.104 c -0.118,0.309 -0.152,1.164 -0.076,1.9 0.123,1.173 0.164,1.104 0.332,-0.562 0.196,-1.948 0.124,-2.326 -0.256,-1.338 m 92.234,1.719 c -0.106,1.144 -0.046,1.934 0.133,1.754 0.179,-0.179 0.265,-1.116 0.192,-2.081 l -0.133,-1.754 -0.192,2.081 m -84.079,25.923 c 0.227,0.443 0.834,1.162 1.349,1.598 0.904,0.764 0.902,0.75 -0.057,-0.405 -1.593,-1.918 -1.727,-2.042 -1.292,-1.193 m 70.477,6.496 -3.391,3.5 3.5,-3.391 c 3.251,-3.15 3.682,-3.609 3.391,-3.609 -0.06,0 -1.635,1.575 -3.5,3.5 m -61.156,3.4 c 0.093,0.055 0.798,0.64 1.567,1.3 l 1.398,1.2 -1.175,-1.3 c -0.646,-0.715 -1.351,-1.3 -1.567,-1.3 -0.215,0 -0.315,0.045 -0.223,0.1 m 28.965,9.9 -2,0.274 1.876,0.063 c 1.032,0.035 1.988,-0.117 2.124,-0.337 0.136,-0.22 0.192,-0.372 0.124,-0.337 -0.068,0.034 -1.024,0.186 -2.124,0.337 m -6.2,18.46 c -4.183,0.436 -11.246,2.094 -14.541,3.414 -3.373,1.352 -8.43,3.831 -8.592,4.212 -0.074,0.173 -0.309,0.314 -0.522,0.314 -0.361,0 -5.096,3.051 -5.545,3.572 -0.11,0.128 -0.852,0.718 -1.65,1.312 -7.347,5.472 -15.201,16.85 -18.581,26.916 -0.638,1.9 -0.872,2.801 -1.818,7 -1.328,5.892 -0.984,23.42 0.49,24.98 0.197,0.209 0.362,0.749 0.365,1.2 0.007,0.912 0.893,3.653 1.32,4.079 0.151,0.151 0.274,0.607 0.274,1.013 0,0.406 0.163,1.051 0.362,1.433 0.198,0.382 0.983,2.045 1.742,3.695 1.308,2.842 4.49,8.369 5.067,8.8 0.147,0.11 0.707,0.828 1.243,1.595 0.843,1.205 3.135,3.838 5.198,5.972 2.469,2.552 8.31,7.097 11.29,8.785 0.824,0.466 2.133,1.208 2.91,1.648 0.777,0.44 1.677,0.8 2,0.8 0.323,0 0.588,0.18 0.588,0.4 0,0.22 0.36,0.4 0.8,0.4 0.44,0 0.8,0.141 0.8,0.313 0,0.172 0.855,0.558 1.9,0.858 1.045,0.3 2.08,0.675 2.3,0.833 0.22,0.159 0.94,0.411 1.6,0.56 0.66,0.15 1.92,0.455 2.8,0.679 3.338,0.849 5.738,1.204 10,1.476 5.942,0.379 16.726,-0.352 17.231,-1.169 0.119,-0.193 0.825,-0.35 1.569,-0.35 0.744,0 1.464,-0.18 1.6,-0.4 0.136,-0.22 0.676,-0.4 1.2,-0.4 0.524,0 1.042,-0.144 1.151,-0.321 0.109,-0.176 1.11,-0.569 2.224,-0.872 1.114,-0.303 2.025,-0.699 2.025,-0.879 0,-0.181 0.245,-0.328 0.544,-0.328 0.657,0 5.601,-2.476 5.789,-2.9 0.074,-0.165 0.313,-0.3 0.532,-0.3 0.22,0 1.996,-1.093 3.947,-2.43 9.015,-6.175 16.814,-16.154 20.843,-26.67 0.57,-1.488 1.021,-2.639 1.495,-3.819 0.248,-0.615 0.45,-1.614 0.45,-2.22 0,-0.605 0.162,-1.272 0.359,-1.481 1.775,-1.879 1.775,-25.281 0,-27.16 -0.197,-0.209 -0.359,-0.787 -0.359,-1.285 0,-0.776 -0.835,-3.456 -1.973,-6.335 -3.736,-9.447 -10.59,-18.833 -17.627,-24.14 -0.77,-0.58 -1.49,-1.16 -1.6,-1.288 -0.449,-0.521 -5.184,-3.572 -5.545,-3.572 -0.213,0 -0.448,-0.141 -0.522,-0.314 -0.073,-0.172 -1.303,-0.907 -2.733,-1.633 -9.806,-4.978 -21.455,-7.133 -32.4,-5.993 m 13.554,0.781 c 49.834,8.304 67.755,67.13 30.675,100.689 -4.447,4.025 -14.993,10.47 -17.13,10.47 -0.297,0 -0.71,0.143 -0.919,0.318 -0.504,0.423 -2.198,0.938 -7.98,2.428 -4.448,1.147 -16.363,1.447 -21.4,0.539 -3.831,-0.69 -7.184,-1.5 -8.6,-2.078 -0.44,-0.179 -1.43,-0.546 -2.2,-0.815 -17.521,-6.116 -32.313,-22.972 -36.322,-41.392 -1.127,-5.176 -1.278,-6.692 -1.278,-12.8 0,-3.596 0.19,-7.498 0.421,-8.669 0.991,-5.01 1.32,-6.311 2.423,-9.589 1.859,-5.525 5.055,-11.927 7.459,-14.942 0.175,-0.22 0.757,-1.03 1.293,-1.8 6.641,-9.548 19.875,-18.181 32.404,-21.138 7.091,-1.674 15.518,-2.16 21.154,-1.221 m -12.754,11.785 c -4.409,0.566 -8.85,1.621 -11.203,2.662 -0.768,0.34 -2.027,0.851 -2.797,1.135 -0.77,0.284 -1.85,0.824 -2.4,1.2 -0.55,0.376 -1.72,1.082 -2.6,1.57 -3.311,1.835 -12.2,9.921 -12.2,11.098 0,0.174 -0.433,0.784 -0.962,1.355 -0.529,0.57 -1.348,1.739 -1.82,2.596 -0.471,0.857 -1.115,2.008 -1.43,2.558 -4.099,7.159 -6.501,20.404 -5.007,27.6 0.252,1.21 0.642,3.1 0.868,4.2 3.041,14.81 16.096,28.792 31.151,33.366 1.65,0.501 3.54,1.079 4.2,1.285 3.389,1.055 14.582,0.827 20.2,-0.411 3.398,-0.749 4.012,-0.936 4.23,-1.288 0.119,-0.193 0.494,-0.352 0.833,-0.352 0.883,0 7.46,-3.384 10.314,-5.307 4.749,-3.2 11.316,-10.314 13.747,-14.893 4.216,-7.94 6.076,-14.888 6.076,-22.694 0,-3.951 -0.151,-5.21 -1.262,-10.506 -0.668,-3.182 -3.346,-10.388 -4.299,-11.563 -0.194,-0.24 -0.751,-1.157 -1.236,-2.037 -2.622,-4.753 -12.955,-15 -15.126,-15 -0.209,0 -0.605,-0.272 -0.881,-0.605 -2.119,-2.553 -19.287,-7.257 -23.912,-6.552 -0.156,0.024 -2.174,0.286 -4.484,0.583 m 10,0.752 c 16.594,1.202 32.347,13.677 37.91,30.022 0.774,2.276 1.086,3.561 2.069,8.531 0.538,2.724 0.544,10.352 0.01,12.792 -0.227,1.032 -0.603,2.777 -0.837,3.877 -0.53,2.493 -1.824,6.354 -2.747,8.2 -0.385,0.77 -0.946,1.94 -1.247,2.6 -2.155,4.729 -12.402,16.151 -14.527,16.193 -0.202,0.004 -0.652,0.258 -1,0.566 -5.903,5.225 -21.646,8.345 -32.527,6.448 -5.369,-0.936 -13.923,-4.313 -16.335,-6.448 -0.348,-0.308 -0.767,-0.559 -0.932,-0.559 -2.261,0 -15.037,-14.604 -15.037,-17.189 0,-0.184 -0.345,-1.027 -0.766,-1.873 -5.383,-10.807 -5.237,-26.31 0.356,-37.738 1.178,-2.406 3.55,-6.482 3.958,-6.8 0.141,-0.11 0.741,-0.85 1.332,-1.644 7.801,-10.475 24.751,-18.549 36.32,-17.302 0.55,0.059 2.35,0.205 4,0.324"
       stroke="none"
       fill="#343434"
       fill-rule="evenodd" />
    <path
       id="path8"
       d="m 83.91625,154.54539 c 0.495,0.096 1.305,0.096 1.8,0 0.495,-0.095 0.09,-0.173 -0.9,-0.173 -0.99,0 -1.395,0.078 -0.9,0.173 m -6.3,0.535 c -0.865,0.192 -0.254,0.229 1.6,0.095 1.65,-0.119 3.075,-0.283 3.167,-0.364 0.291,-0.258 -3.31,-0.055 -4.767,0.269 m 10.033,-0.266 c 0.092,0.083 1.427,0.251 2.967,0.375 2.152,0.172 2.43,0.143 1.2,-0.128 -1.617,-0.356 -4.474,-0.525 -4.167,-0.247 m -13.833,1.049 c -0.504,0.217 -0.578,0.344 -0.2,0.344 0.33,0 0.96,-0.155 1.4,-0.344 0.504,-0.217 0.578,-0.344 0.2,-0.344 -0.33,0 -0.96,0.155 -1.4,0.344 m 20.8,0 c 0.44,0.189 1.07,0.344 1.4,0.344 0.378,0 0.304,-0.127 -0.2,-0.344 -0.44,-0.189 -1.07,-0.344 -1.4,-0.344 -0.378,0 -0.304,0.127 0.2,0.344 m -23.8,0.8 c -0.824,0.264 -0.859,0.326 -0.2,0.354 0.44,0.019 1.07,-0.141 1.4,-0.354 0.701,-0.453 0.214,-0.453 -1.2,0 m 27,0 c 0.44,0.189 1.07,0.344 1.4,0.344 0.378,0 0.304,-0.127 -0.2,-0.344 -0.44,-0.189 -1.07,-0.344 -1.4,-0.344 -0.378,0 -0.304,0.127 0.2,0.344 m -35.3,3.646 c -1.363,0.873 -1.805,1.46 -0.6,0.797 0.918,-0.504 2.356,-1.616 2.1,-1.624 -0.11,-0.003 -0.785,0.369 -1.5,0.827 m -4.345,2.789 c -1.924,1.528 -2.182,1.801 -1.155,1.225 1.013,-0.569 3.281,-2.455 2.955,-2.458 -0.135,-0.001 -0.945,0.554 -1.8,1.233 m -5.564,4.865 -3.191,3.3 3.3,-3.191 c 1.815,-1.754 3.3,-3.239 3.3,-3.3 0,-0.291 -0.446,0.126 -3.409,3.191 m 64.009,-0.1 c 1.75,1.76 3.271,3.2 3.381,3.2 0.11,0 -1.231,-1.44 -2.981,-3.2 -1.75,-1.76 -3.271,-3.2 -3.381,-3.2 -0.11,0 1.231,1.44 2.981,3.2 m -68.225,4.9 c -1.443,1.831 -1.872,2.74 -0.614,1.3 1.017,-1.162 1.986,-2.6 1.753,-2.6 -0.063,0 -0.575,0.585 -1.139,1.3 m 74.625,3.1 c 0.341,0.66 0.711,1.2 0.821,1.2 0.11,0 -0.08,-0.54 -0.421,-1.2 -0.341,-0.66 -0.711,-1.2 -0.821,-1.2 -0.11,0 0.08,0.54 0.421,1.2 m -77.247,0.9 c -1.377,2.336 -1.467,2.535 -0.766,1.7 0.813,-0.968 1.513,-2.2 1.251,-2.2 -0.105,0 -0.323,0.225 -0.485,0.5 m -4.107,8.767 c -0.025,0.367 -0.15,0.997 -0.276,1.4 -0.218,0.695 -0.207,0.696 0.227,0.02 0.251,-0.391 0.376,-1.021 0.276,-1.4 -0.162,-0.619 -0.185,-0.621 -0.227,-0.02 m -1.017,3.762 c -0.148,0.586 -0.191,1.143 -0.097,1.237 0.095,0.094 0.292,-0.308 0.439,-0.895 0.148,-0.586 0.191,-1.143 0.097,-1.237 -0.095,-0.094 -0.292,0.308 -0.439,0.895 m 88.618,3.004 c 0.026,0.752 0.194,1.907 0.373,2.567 0.215,0.789 0.25,0.378 0.103,-1.2 -0.246,-2.645 -0.55,-3.519 -0.476,-1.367 m -89.455,1.705 c -0.153,1.431 -0.199,2.84 -0.102,3.132 0.097,0.291 0.3,-0.802 0.452,-2.429 0.151,-1.627 0.197,-3.036 0.101,-3.131 -0.095,-0.095 -0.298,0.998 -0.451,2.428 m -0.483,5.862 c 0,0.99 0.078,1.395 0.173,0.9 0.096,-0.495 0.096,-1.305 0,-1.8 -0.095,-0.495 -0.173,-0.09 -0.173,0.9 m 90.8,0 c 0,0.99 0.078,1.395 0.173,0.9 0.096,-0.495 0.096,-1.305 0,-1.8 -0.095,-0.495 -0.173,-0.09 -0.173,0.9 m -90.486,4.033 c 0.013,0.752 0.182,2.087 0.375,2.967 0.271,1.23 0.3,0.952 0.128,-1.2 -0.239,-2.98 -0.541,-4.042 -0.503,-1.767 m 89.762,2.152 c -0.155,1.238 -0.192,2.342 -0.082,2.452 0.11,0.11 0.327,-0.814 0.482,-2.052 0.154,-1.239 0.191,-2.342 0.081,-2.452 -0.11,-0.11 -0.327,0.813 -0.481,2.052 m -88.929,3.415 c 0,0.33 0.155,0.96 0.344,1.4 0.217,0.504 0.344,0.578 0.344,0.2 0,-0.33 -0.155,-0.96 -0.344,-1.4 -0.217,-0.504 -0.344,-0.578 -0.344,-0.2 m 88.193,0.615 c -0.137,0.358 -0.234,0.951 -0.215,1.318 0.019,0.367 0.193,0.136 0.387,-0.513 0.377,-1.262 0.244,-1.887 -0.172,-0.805 m -87.393,2.585 c 0,0.33 0.155,0.96 0.344,1.4 0.217,0.504 0.344,0.578 0.344,0.2 0,-0.33 -0.155,-0.96 -0.344,-1.4 -0.217,-0.504 -0.344,-0.578 -0.344,-0.2 m 75.338,19.019 c -2.203,2.26 -3.733,3.961 -3.4,3.78 0.74,-0.401 7.606,-7.395 7.606,-7.747 0,-0.36 0.17,-0.52 -4.206,3.967 m -63.994,0.181 c 1.75,1.76 3.271,3.2 3.381,3.2 0.11,0 -1.231,-1.44 -2.981,-3.2 -1.75,-1.76 -3.271,-3.2 -3.381,-3.2 -0.11,0 1.231,1.44 2.981,3.2 m 7,5.779 c 0,0.11 0.54,0.48 1.2,0.821 0.66,0.341 1.2,0.531 1.2,0.421 0,-0.11 -0.54,-0.48 -1.2,-0.821 -0.66,-0.341 -1.2,-0.531 -1.2,-0.421 m 35.2,6.239 c -0.438,0.297 -0.276,0.334 0.6,0.138 1.471,-0.329 1.79,-0.558 0.767,-0.55 -0.422,0.003 -1.037,0.189 -1.367,0.412 m -18.767,0.532 c 0.092,0.082 1.247,0.25 2.567,0.373 1.578,0.147 1.989,0.112 1.2,-0.103 -1.234,-0.335 -4.064,-0.538 -3.767,-0.27 m 13.767,0.25 c -1.766,0.449 0.245,0.469 2.4,0.023 l 1.6,-0.331 -1.4,0.001 c -0.77,0.001 -1.94,0.139 -2.6,0.307 m -5.9,0.682 c 0.495,0.096 1.305,0.096 1.8,0 0.495,-0.095 0.09,-0.173 -0.9,-0.173 -0.99,0 -1.395,0.078 -0.9,0.173"
       stroke="none"
       fill="#a47434"
       fill-rule="evenodd" />
  </g>
</svg>
