<?xml version="1.0" encoding="UTF-8" standalone="no"?>
<svg
   id="svg"
   version="1.1"
   width="170"
   height="400"
   viewBox="0 0 170 400"
   sodipodi:docname="traffic-light-icon-green.svg"
   inkscape:version="1.2.1 (9c6d41e410, 2022-07-14)"
   xmlns:inkscape="http://www.inkscape.org/namespaces/inkscape"
   xmlns:sodipodi="http://sodipodi.sourceforge.net/DTD/sodipodi-0.dtd"
   xmlns="http://www.w3.org/2000/svg"
   xmlns:svg="http://www.w3.org/2000/svg">
  <defs
     id="defs204" />
  <sodipodi:namedview
     id="namedview202"
     pagecolor="#ffffff"
     bordercolor="#000000"
     borderopacity="0.25"
     inkscape:showpageshadow="2"
     inkscape:pageopacity="0.0"
     inkscape:pagecheckerboard="0"
     inkscape:deskcolor="#d1d1d1"
     showgrid="false"
     inkscape:zoom="3.1466252"
     inkscape:cx="269.81288"
     inkscape:cy="200.85011"
     inkscape:window-width="5160"
     inkscape:window-height="2054"
     inkscape:window-x="-11"
     inkscape:window-y="-11"
     inkscape:window-maximized="1"
     inkscape:current-layer="svg" />
  <g
     id="svgg"
     transform="translate(-115.18375,-0.13661111)">
    <path
       id="path0"
       d="m 194.613,277.179 c -0.143,0.231 -1.229,0.421 -2.413,0.421 -1.184,0 -2.264,0.18 -2.4,0.4 -0.136,0.22 -0.644,0.4 -1.129,0.4 -0.485,0 -1.825,0.36 -2.977,0.8 -1.152,0.44 -3.021,1.154 -4.155,1.588 -1.133,0.433 -2.708,1.231 -3.5,1.773 -0.791,0.542 -1.934,1.206 -2.539,1.476 -0.605,0.27 -1.1,0.63 -1.1,0.8 0,0.17 -0.369,0.426 -0.819,0.569 -1.633,0.518 -12.381,11.97 -12.381,13.192 0,0.142 -0.54,1.043 -1.2,2.002 -0.66,0.959 -1.2,1.931 -1.2,2.16 0,0.229 -0.448,1.396 -0.996,2.594 -2.739,5.987 -4.068,17.48 -2.85,24.646 0.492,2.898 1.5,6.967 1.834,7.4 0.169,0.22 0.531,1.092 0.804,1.939 2.91,9.029 12.315,19.227 22.367,24.253 9.157,4.578 20.357,5.805 30.718,3.366 4.96,-1.169 11.305,-3.945 14.523,-6.356 0.99,-0.742 1.99,-1.361 2.223,-1.375 0.517,-0.033 8.313,-8.032 9.977,-10.237 1.47,-1.948 5.4,-9.7 5.4,-10.652 0,-0.38 0.158,-0.789 0.352,-0.908 0.193,-0.12 0.657,-1.615 1.03,-3.324 0.374,-1.708 0.846,-3.861 1.049,-4.783 0.503,-2.287 0.466,-10.778 -0.059,-13.392 -0.235,-1.172 -0.702,-3.481 -1.037,-5.131 -0.336,-1.65 -1.133,-4.015 -1.772,-5.256 -0.64,-1.241 -1.163,-2.444 -1.163,-2.673 0,-0.393 -1.254,-2.614 -3.541,-6.271 -1.088,-1.739 -10.196,-11 -10.819,-11 -0.211,0 -0.626,-0.225 -0.922,-0.5 -2.668,-2.473 -11.884,-6.7 -14.609,-6.7 -0.412,0 -0.92,-0.163 -1.129,-0.363 -0.866,-0.828 -15.101,-1.613 -15.567,-0.858"
       stroke="none"
       fill="#63b224"
       fill-rule="evenodd" />
    <path
       id="path1"
       d="m 129.7,13.465 c -0.399,0.161 -0.5,37.848 -0.5,186.561 v 186.359 l 0.9,0.217 c 0.495,0.119 32.31,0.168 70.7,0.107 l 69.8,-0.109 0.1,-186.376 c 0.081,-148.837 0,-186.44 -0.4,-186.694 -0.535,-0.34 -139.759,-0.404 -140.6,-0.065 m 78.654,6.17 c 5.805,0.955 11.293,2.567 14.984,4.401 0.846,0.42 1.791,0.764 2.1,0.764 0.309,0 0.562,0.18 0.562,0.4 0,0.22 0.36,0.4 0.8,0.4 0.44,0 0.8,0.18 0.8,0.4 0,0.22 0.193,0.4 0.428,0.4 0.235,0 1.213,0.54 2.172,1.2 0.959,0.66 1.838,1.2 1.954,1.2 0.115,0 1.433,0.914 2.928,2.03 8.58,6.408 16.077,16.337 19.309,25.57 0.269,0.77 0.635,1.76 0.813,2.2 2.087,5.164 3.359,14.632 2.981,22.2 -1.301,26.095 -20.605,48.54 -46.241,53.766 -13.976,2.849 -31.054,0.085 -41.016,-6.638 -0.92,-0.62 -1.791,-1.128 -1.937,-1.128 -1.015,0 -8.973,-6.687 -12.195,-10.248 -4.614,-5.099 -9.697,-13.352 -11.179,-18.152 -0.306,-0.99 -0.705,-1.971 -0.887,-2.18 -0.181,-0.209 -0.33,-0.783 -0.33,-1.276 0,-0.493 -0.18,-1.008 -0.4,-1.144 -0.22,-0.136 -0.4,-0.831 -0.4,-1.544 0,-0.713 -0.162,-1.467 -0.359,-1.676 -1.661,-1.758 -1.661,-24.602 0,-26.36 0.197,-0.209 0.359,-0.963 0.359,-1.676 0,-0.713 0.18,-1.408 0.4,-1.544 0.22,-0.136 0.4,-0.599 0.4,-1.029 0,-0.43 0.18,-1.139 0.4,-1.576 0.22,-0.437 0.58,-1.153 0.8,-1.59 0.22,-0.437 0.4,-0.982 0.4,-1.211 0,-1.412 4.209,-8.886 7.543,-13.394 2.984,-4.035 12.971,-13.4 14.289,-13.4 0.123,0 0.976,-0.503 1.896,-1.119 5.354,-3.582 13.289,-6.521 21.672,-8.027 2.881,-0.518 13.847,-0.53 16.954,-0.019 m 0.92,122.82 c 0.37,0.19 1.167,0.345 1.771,0.345 0.604,0 1.651,0.165 2.327,0.366 7.426,2.216 7.28,2.163 12.028,4.414 13.813,6.55 23.996,17.967 29.808,33.42 0.561,1.492 1.76,6.292 2.349,9.4 1.094,5.782 0.546,21.557 -0.798,22.98 -0.197,0.209 -0.359,0.963 -0.359,1.676 0,0.713 -0.18,1.408 -0.4,1.544 -0.22,0.136 -0.4,0.599 -0.4,1.029 0,0.43 -0.159,1.094 -0.353,1.476 -0.195,0.382 -0.529,1.145 -0.743,1.695 -6.063,15.568 -18.136,27.641 -33.704,33.704 -0.55,0.214 -1.313,0.548 -1.695,0.743 -0.382,0.194 -1.046,0.353 -1.476,0.353 -0.43,0 -0.893,0.18 -1.029,0.4 -0.136,0.22 -0.831,0.4 -1.544,0.4 -0.713,0 -1.467,0.162 -1.676,0.359 -1.423,1.344 -17.198,1.892 -22.98,0.798 -3.497,-0.662 -7.922,-1.781 -9.5,-2.403 -0.495,-0.195 -1.305,-0.502 -1.8,-0.682 -14.626,-5.33 -26.647,-17.334 -33.519,-33.472 -4.019,-9.438 -4.87,-24.414 -2.024,-35.6 0.224,-0.88 0.527,-2.098 0.673,-2.706 0.146,-0.608 0.424,-1.204 0.618,-1.324 0.193,-0.119 0.352,-0.569 0.352,-0.999 0,-0.43 0.162,-1.094 0.36,-1.476 0.198,-0.382 1.096,-2.277 1.997,-4.212 5.42,-11.641 15.485,-21.706 27.126,-27.126 1.935,-0.901 3.83,-1.799 4.212,-1.997 0.382,-0.198 1.046,-0.36 1.476,-0.36 0.43,0 0.88,-0.159 0.999,-0.352 0.12,-0.194 0.716,-0.472 1.324,-0.618 0.608,-0.146 1.826,-0.449 2.706,-0.673 3.386,-0.862 5.734,-1.24 9.4,-1.515 4.487,-0.338 13.512,-0.08 14.474,0.413 M 204,264.41 c 10.835,0.96 25.088,6.008 29.674,10.511 0.289,0.285 1.336,1.082 2.326,1.773 2.851,1.988 8.33,7.527 10.392,10.506 0.533,0.77 1.09,1.49 1.237,1.6 1.012,0.757 5.56,9.365 6.762,12.8 0.269,0.77 0.635,1.76 0.813,2.2 3.203,7.923 3.943,23.059 1.58,32.3 -0.787,3.075 -1.336,4.912 -1.584,5.3 -0.141,0.22 -0.509,1.21 -0.817,2.2 -0.963,3.087 -5.654,11.978 -6.754,12.8 -0.147,0.11 -0.707,0.828 -1.243,1.595 -3.193,4.566 -11.589,12.109 -16.414,14.746 -10.833,5.921 -16.853,7.593 -28.572,7.934 -7.23,0.21 -11.915,-0.302 -17,-1.857 -0.55,-0.169 -1.72,-0.523 -2.6,-0.789 -2.949,-0.889 -9.489,-3.982 -12.072,-5.71 -0.92,-0.616 -1.773,-1.119 -1.896,-1.119 -1.314,0 -11.285,-9.345 -14.297,-13.4 -3.312,-4.459 -6.878,-10.855 -7.916,-14.2 -0.307,-0.99 -0.707,-1.971 -0.889,-2.18 -0.181,-0.209 -0.33,-0.783 -0.33,-1.276 0,-0.493 -0.18,-1.008 -0.4,-1.144 -0.22,-0.136 -0.4,-0.831 -0.4,-1.544 0,-0.713 -0.162,-1.467 -0.359,-1.676 -1.674,-1.772 -1.674,-24.588 0,-26.36 0.197,-0.209 0.359,-0.963 0.359,-1.676 0,-0.713 0.18,-1.408 0.4,-1.544 0.22,-0.136 0.4,-0.599 0.4,-1.029 0,-0.43 0.18,-1.139 0.4,-1.576 0.22,-0.437 0.58,-1.153 0.8,-1.59 0.22,-0.437 0.4,-1.006 0.4,-1.265 0,-4.081 11.157,-18.938 17.979,-23.94 0.75,-0.55 1.827,-1.383 2.392,-1.851 6.091,-5.041 18.374,-9.509 28.829,-10.485 2.09,-0.196 3.89,-0.379 4,-0.408 0.11,-0.029 2.27,0.13 4.8,0.354 m -6.7,12.287 c 1.485,0.077 3.915,0.077 5.4,0 1.485,-0.077 0.27,-0.14 -2.7,-0.14 -2.97,0 -4.185,0.063 -2.7,0.14 m -6.395,0.79 c 0.609,0.092 1.509,0.09 2,-0.005 0.492,-0.095 -0.005,-0.171 -1.105,-0.168 -1.1,0.003 -1.503,0.081 -0.895,0.173 m 16.595,-0.005 c 0.495,0.096 1.305,0.096 1.8,0 0.495,-0.095 0.09,-0.173 -0.9,-0.173 -0.99,0 -1.395,0.078 -0.9,0.173 m -20.855,0.846 c -0.112,0.18 0.328,0.249 0.976,0.154 0.649,-0.095 1.179,-0.242 1.179,-0.327 0,-0.305 -1.957,-0.148 -2.155,0.173 m 24.555,-0.173 c 0,0.085 0.53,0.232 1.179,0.327 0.648,0.095 1.088,0.026 0.976,-0.154 -0.198,-0.321 -2.155,-0.478 -2.155,-0.173 m 18,9.245 c 1.195,1.21 2.263,2.2 2.373,2.2 0.11,0 -0.778,-0.99 -1.973,-2.2 -1.195,-1.21 -2.263,-2.2 -2.373,-2.2 -0.11,0 0.778,0.99 1.973,2.2 m -61.607,2.9 -4.593,4.7 4.7,-4.593 c 2.585,-2.527 4.7,-4.642 4.7,-4.7 0,-0.289 -0.54,0.227 -4.807,4.593 m 67.607,3.025 c 0,0.069 0.585,0.654 1.3,1.3 l 1.3,1.175 -1.175,-1.3 c -1.095,-1.212 -1.425,-1.484 -1.425,-1.175 m 9.168,17.375 c 0.191,1.381 0.219,1.409 0.351,0.351 0.079,-0.632 -0.014,-1.306 -0.207,-1.499 -0.202,-0.202 -0.263,0.288 -0.144,1.148 m 0.946,3.9 c 0.003,1.1 0.081,1.503 0.173,0.895 0.092,-0.609 0.09,-1.509 -0.005,-2 -0.095,-0.492 -0.171,0.005 -0.168,1.105 m 0,16 c 0.003,1.1 0.081,1.503 0.173,0.895 0.092,-0.609 0.09,-1.509 -0.005,-2 -0.095,-0.492 -0.171,0.005 -0.168,1.105"
       stroke="none"
       fill="#434343"
       fill-rule="evenodd" />
    <path
       id="path2"
       d="m 194.6,155.428 c -0.44,0.103 -1.88,0.384 -3.2,0.624 -30.469,5.537 -45.543,40.299 -29.378,67.748 0.518,0.88 1.049,1.69 1.179,1.8 0.131,0.11 0.678,0.83 1.216,1.6 2.472,3.539 7.852,8.409 12.143,10.992 2.693,1.622 7.249,3.808 7.935,3.808 0.3,0 0.716,0.149 0.925,0.33 0.413,0.359 2.333,0.942 5.78,1.752 1.333,0.314 4.801,0.518 8.8,0.518 3.999,0 7.467,-0.204 8.8,-0.518 3.447,-0.81 5.367,-1.393 5.78,-1.752 0.209,-0.181 0.659,-0.335 1,-0.34 1.193,-0.02 8.747,-4.063 11.42,-6.112 2.062,-1.581 7.297,-6.816 8.878,-8.878 2.049,-2.673 6.092,-10.227 6.112,-11.42 0.005,-0.341 0.159,-0.791 0.34,-1 0.359,-0.413 0.942,-2.333 1.752,-5.78 0.314,-1.333 0.518,-4.801 0.518,-8.8 0,-3.999 -0.204,-7.467 -0.518,-8.8 -0.81,-3.447 -1.393,-5.367 -1.752,-5.78 -0.181,-0.209 -0.33,-0.625 -0.33,-0.925 0,-0.686 -2.186,-5.242 -3.808,-7.935 -2.583,-4.291 -7.453,-9.671 -10.992,-12.143 -0.77,-0.538 -1.49,-1.085 -1.6,-1.216 -0.258,-0.305 -2.812,-1.808 -5.56,-3.271 -6.294,-3.352 -19.997,-5.776 -25.44,-4.502"
       stroke="none"
       fill="#835b2c"
       fill-rule="evenodd" />
    <path
       id="path3"
       d="m 118.628,0.288 c -1.014,0.261 -1.828,1.1 -1.828,1.883 0,0.346 -0.18,0.629 -0.4,0.629 -0.22,0 -0.4,0.349 -0.4,0.776 0,0.427 -0.18,0.888 -0.4,1.024 -0.555,0.343 -0.555,390.457 0,390.8 0.22,0.136 0.4,0.597 0.4,1.024 0,0.427 0.18,0.776 0.4,0.776 0.22,0 0.4,0.283 0.4,0.629 0,2.106 -5.708,1.971 83.2,1.971 88.908,0 83.2,0.135 83.2,-1.971 0,-0.346 0.18,-0.629 0.4,-0.629 0.22,0 0.4,-0.349 0.4,-0.776 0,-0.427 0.18,-0.888 0.4,-1.024 0.266,-0.164 0.4,-65.73 0.4,-195.4 C 284.8,70.33 284.666,4.764 284.4,4.6 284.18,4.464 284,4.003 284,3.576 284,3.149 283.82,2.8 283.6,2.8 c -0.22,0 -0.4,-0.283 -0.4,-0.629 0,-2.105 5.635,-1.966 -82.571,-2.027 -44.676,-0.03 -81.576,0.034 -82.001,0.144 M 270.3,12.652 271.201,12.894 271.1,200.147 271,387.4 l -70.776,0.101 c -56.356,0.081 -70.84,-10e-4 -71.094,-0.4 -0.752,-1.185 -0.384,-373.83 0.37,-374.269 0.759,-0.442 139.162,-0.619 140.8,-0.18 m -77.5,7.418 c -3.432,0.569 -6.506,1.186 -7.6,1.526 -0.55,0.171 -1.81,0.543 -2.8,0.827 -0.99,0.284 -1.971,0.665 -2.18,0.847 -0.209,0.181 -0.632,0.33 -0.939,0.33 -4.422,0 -19.826,11.555 -25.331,19 -6.036,8.166 -8.75,14.639 -11.125,26.531 -0.55,2.755 -0.55,13.783 0,16.538 2.178,10.907 4.414,16.619 9.497,24.262 3.617,5.437 15.047,16.469 17.063,16.469 0.149,0 1.056,0.54 2.015,1.2 0.959,0.66 1.858,1.2 1.997,1.2 0.139,0 1.367,0.518 2.728,1.152 9.519,4.431 22.765,6.441 31.651,4.801 7.213,-1.332 14.039,-3.438 17.975,-5.548 4.614,-2.472 5.379,-2.941 8.252,-5.058 4.178,-3.078 9.771,-8.55 12.007,-11.747 0.538,-0.77 1.251,-1.72 1.584,-2.112 3.632,-4.265 8.02,-15.455 9.593,-24.455 0.518,-2.967 0.54,-13.925 0.033,-16.502 -0.209,-1.062 -0.59,-3.011 -0.847,-4.331 -1.171,-6.001 -6.793,-18.85 -9.189,-21 -0.122,-0.11 -0.658,-0.83 -1.191,-1.6 -2.469,-3.572 -12.945,-13.2 -14.362,-13.2 -0.2,0 -0.424,-0.135 -0.498,-0.3 -0.536,-1.207 -10.611,-5.722 -16.133,-7.23 -7.037,-1.921 -16.256,-2.586 -22.2,-1.6 m 16.952,12.761 c 2.207,0.45 4.831,1.148 5.831,1.551 0.999,0.404 2.422,0.963 3.161,1.242 7.38,2.795 17.042,11.735 21.447,19.846 7.262,13.372 7.549,28.552 0.797,42.199 -12.296,24.852 -43.454,33.126 -66.483,17.654 -3.369,-2.263 -10.694,-9.229 -11.122,-10.575 -0.13,-0.412 -0.393,-0.748 -0.583,-0.748 -0.19,0 -0.46,-0.359 -0.599,-0.798 -0.139,-0.438 -0.495,-1.039 -0.79,-1.334 -0.296,-0.295 -1.338,-2.142 -2.317,-4.103 -7.263,-14.544 -6.576,-29.669 2.013,-44.365 9.374,-16.039 29.374,-24.496 48.645,-20.569 m -16.627,109.777 c -0.115,0.115 -1.36,0.366 -2.767,0.558 -2.607,0.357 -7.113,1.42 -8.558,2.021 -0.44,0.183 -1.43,0.562 -2.2,0.843 -15.042,5.489 -28.081,18.528 -33.57,33.57 -0.281,0.77 -0.66,1.76 -0.843,2.2 -1.501,3.61 -2.407,9.348 -2.656,16.8 -0.256,7.679 0.641,14.227 2.684,19.6 0.167,0.44 0.534,1.43 0.815,2.2 6.251,17.131 21.969,31.228 39.57,35.49 6.04,1.462 8.138,1.71 14.494,1.71 6.02,0 7.18,-0.127 13.306,-1.46 6.775,-1.474 18.625,-6.954 21,-9.712 0.11,-0.128 0.92,-0.761 1.8,-1.407 2.063,-1.514 7.307,-6.758 8.821,-8.821 0.646,-0.88 1.279,-1.69 1.407,-1.8 2.758,-2.375 8.238,-14.225 9.712,-21 1.333,-6.126 1.46,-7.286 1.46,-13.306 0,-24.21 -15.275,-46.418 -37.2,-54.085 -0.77,-0.269 -1.76,-0.627 -2.2,-0.794 -2.208,-0.84 -5.01,-1.507 -10.024,-2.389 -2.441,-0.429 -14.663,-0.606 -15.051,-0.218 m 15.475,12.515 c 4.038,0.862 5.238,1.181 7,1.861 2.59,0.999 6.977,3.16 7.133,3.514 0.074,0.166 0.311,0.302 0.528,0.302 0.339,0 2.897,1.628 4.69,2.983 3.478,2.631 8.976,8.713 10.68,11.817 0.423,0.77 0.863,1.49 0.977,1.6 0.239,0.23 2.74,5.403 3.191,6.6 0.166,0.44 0.504,1.303 0.751,1.919 0.248,0.615 0.45,1.524 0.45,2.02 0,0.495 0.163,1.072 0.361,1.281 1.291,1.358 1.291,20.602 0,21.96 -0.198,0.209 -0.361,0.786 -0.361,1.281 0,0.496 -0.202,1.405 -0.45,2.02 -0.247,0.616 -0.583,1.479 -0.747,1.919 -4.304,11.59 -15.013,22.299 -26.603,26.603 -0.44,0.164 -1.303,0.5 -1.919,0.747 -0.615,0.248 -1.524,0.45 -2.02,0.45 -0.495,0 -1.072,0.163 -1.281,0.361 -1.013,0.963 -15.756,1.358 -19.58,0.525 -4.682,-1.02 -5.468,-1.235 -7.6,-2.073 -1.305,-0.514 -6.383,-2.979 -6.6,-3.205 -0.11,-0.114 -0.83,-0.554 -1.6,-0.977 -3.104,-1.704 -9.186,-7.202 -11.817,-10.68 -1.355,-1.793 -2.983,-4.351 -2.983,-4.69 0,-0.217 -0.136,-0.454 -0.302,-0.528 -0.354,-0.156 -2.515,-4.543 -3.514,-7.133 -0.674,-1.745 -0.953,-2.791 -1.87,-7 -0.554,-2.543 -0.568,-14.562 -0.02,-17.2 0.673,-3.243 1.719,-6.771 2.127,-7.18 0.208,-0.209 0.379,-0.679 0.379,-1.044 0,-0.59 2.283,-5.468 2.798,-5.976 0.111,-0.11 0.449,-0.65 0.751,-1.2 2.535,-4.616 10.235,-12.316 14.851,-14.851 0.55,-0.302 1.09,-0.64 1.2,-0.751 0.508,-0.515 5.386,-2.798 5.976,-2.798 0.365,0 0.835,-0.171 1.044,-0.379 0.471,-0.471 4.533,-1.615 7.074,-1.994 1.042,-0.155 2.025,-0.413 2.185,-0.572 0.419,-0.42 12.752,-0.038 15.121,0.468 m -16.2,110.252 c -6.143,0.886 -11.54,2.432 -16.275,4.66 -1.361,0.641 -2.589,1.165 -2.728,1.165 -0.139,0 -1.038,0.54 -1.997,1.2 -0.959,0.66 -1.937,1.2 -2.172,1.2 -0.235,0 -0.428,0.18 -0.428,0.4 0,0.22 -0.185,0.4 -0.411,0.4 -0.466,0 -4.991,3.438 -7.348,5.582 -5.108,4.647 -9.381,10.331 -12.643,16.818 -2.66,5.29 -3.92,9.255 -5.573,17.531 -0.55,2.755 -0.55,13.783 0,16.538 2.201,11.023 4.548,16.939 9.726,24.514 6.683,9.776 17.953,18.351 28.649,21.797 4.439,1.43 4.927,1.56 7.6,2.019 1.43,0.246 3.368,0.617 4.306,0.824 4.104,0.907 12.814,0.417 19.294,-1.085 1.43,-0.331 3.05,-0.691 3.6,-0.8 0.55,-0.109 1.36,-0.347 1.8,-0.528 0.44,-0.181 1.43,-0.543 2.2,-0.804 28.562,-9.678 44.449,-42.885 34.719,-72.567 -1.386,-4.231 -4.869,-11.483 -6.219,-12.952 -0.275,-0.299 -0.5,-0.698 -0.5,-0.887 0,-0.189 -0.231,-0.581 -0.513,-0.871 -0.282,-0.291 -0.953,-1.159 -1.491,-1.929 -0.538,-0.77 -1.343,-1.778 -1.787,-2.239 -0.445,-0.461 -1.458,-1.541 -2.252,-2.4 -2.073,-2.244 -5.134,-5.037 -6.757,-6.165 -0.77,-0.536 -1.718,-1.265 -2.107,-1.621 -0.388,-0.356 -1.198,-0.895 -1.8,-1.199 -0.601,-0.303 -1.845,-1.052 -2.765,-1.664 -0.92,-0.611 -1.767,-1.112 -1.882,-1.112 -0.116,0 -1.343,-0.533 -2.728,-1.185 -8.895,-4.187 -21.647,-6.064 -31.518,-4.64 m 13.8,11.425 c 0.136,0.22 0.989,0.4 1.895,0.4 0.907,0 2.201,0.167 2.877,0.371 0.675,0.204 2.578,0.778 4.228,1.275 6.465,1.947 11.226,5.032 17.7,11.469 2.585,2.57 4.7,4.878 4.7,5.13 0,0.251 0.299,0.704 0.665,1.006 0.366,0.302 0.994,1.29 1.395,2.196 0.402,0.906 1.003,1.873 1.335,2.149 0.333,0.276 0.605,0.822 0.605,1.212 0,0.391 0.54,1.737 1.2,2.992 0.66,1.255 1.2,2.612 1.2,3.017 0,0.405 0.18,0.847 0.4,0.983 0.22,0.136 0.4,0.856 0.4,1.6 0,0.744 0.18,1.464 0.4,1.6 0.22,0.136 0.4,1.126 0.4,2.2 0,1.074 0.18,2.064 0.4,2.2 0.237,0.146 0.4,2.596 0.4,6 0,3.404 -0.163,5.854 -0.4,6 -0.22,0.136 -0.4,1.216 -0.4,2.4 0,1.184 -0.18,2.264 -0.4,2.4 -0.22,0.136 -0.4,0.771 -0.4,1.411 0,0.641 -0.36,1.806 -0.8,2.589 -0.44,0.783 -0.8,1.764 -0.8,2.179 0,0.415 -0.138,0.814 -0.306,0.888 -0.168,0.073 -1.079,1.741 -2.024,3.706 -0.946,1.965 -2.203,4.189 -2.795,4.942 -1.905,2.426 -9.816,10.485 -10.291,10.485 -0.253,0 -0.786,0.36 -1.184,0.8 -0.398,0.44 -0.907,0.8 -1.13,0.8 -0.224,0 -0.717,0.281 -1.097,0.624 -6.517,5.898 -23.401,8.694 -35.373,5.858 -3.976,-0.942 -12.363,-4.633 -13.419,-5.905 -0.263,-0.317 -0.699,-0.577 -0.968,-0.577 -0.269,0 -0.815,-0.36 -1.213,-0.8 -0.398,-0.44 -0.931,-0.8 -1.184,-0.8 -0.482,0 -8.459,-8.137 -10.253,-10.458 -0.911,-1.179 -3.139,-5.581 -5.895,-11.653 -0.478,-1.051 -0.868,-2.345 -0.868,-2.876 0,-0.531 -0.18,-1.077 -0.4,-1.213 -0.22,-0.136 -0.4,-1.191 -0.4,-2.344 0,-1.153 -0.19,-2.286 -0.422,-2.518 -0.754,-0.754 0.018,-15.438 0.859,-16.318 0.2,-0.209 0.363,-0.963 0.363,-1.676 0,-0.713 0.18,-1.408 0.4,-1.544 0.22,-0.136 0.4,-0.578 0.4,-0.983 0,-0.405 0.54,-1.762 1.2,-3.017 0.66,-1.255 1.2,-2.601 1.2,-2.992 0,-0.39 0.279,-0.942 0.62,-1.224 0.341,-0.283 0.955,-1.25 1.365,-2.149 0.411,-0.899 1.212,-2.071 1.781,-2.605 0.569,-0.533 1.034,-1.166 1.034,-1.406 0,-0.634 8.712,-9.094 10.6,-10.293 2.687,-1.707 4.335,-2.657 5.8,-3.34 3.715,-1.734 4.881,-2.191 5.587,-2.191 0.421,0 0.865,-0.16 0.986,-0.356 0.253,-0.41 2.231,-0.805 5.527,-1.106 1.265,-0.115 2.3,-0.373 2.3,-0.574 0,-0.506 11.887,-0.471 12.2,0.036"
       stroke="none"
       fill="#241c24"
       fill-rule="evenodd" />
    <path
       id="path4"
       d="M 191.734,33.392 C 178.075,35.871 166.222,44.858 160.001,57.451 158.9,59.68 158,61.707 158,61.957 c 0,0.249 -0.162,0.766 -0.361,1.148 -0.199,0.382 -0.547,1.415 -0.775,2.295 -0.227,0.88 -0.65,2.5 -0.939,3.6 -0.689,2.624 -0.662,13.542 0.042,17 7.181,35.284 50.7,48.483 75.833,23 4.194,-4.253 10.2,-13.544 10.2,-15.78 0,-0.237 0.162,-0.743 0.361,-1.125 0.199,-0.382 0.547,-1.415 0.775,-2.295 0.227,-0.88 0.65,-2.5 0.939,-3.6 0.719,-2.738 0.702,-14.426 -0.025,-17.6 -5.609,-24.483 -28.08,-39.605 -52.316,-35.208"
       stroke="none"
       fill="#732c34"
       fill-rule="evenodd" />
    <path
       id="path5"
       d="m 195.639,32.451 c -1.849,0.197 -3.919,0.534 -4.6,0.75 L 189.8,33.593 191,33.38 c 5.405,-0.961 14.744,-0.6 21.4,0.828 l 1,0.215 L 212.435,34 c -2.81,-1.23 -11.915,-2.07 -16.796,-1.549 m -9.164,1.822 c -2.564,0.907 -1.816,1.011 0.941,0.131 1.311,-0.418 2.024,-0.756 1.584,-0.751 -0.44,0.006 -1.576,0.285 -2.525,0.62 m 28.125,0.71 c 2.01,0.868 3.308,1.067 1.6,0.246 -0.88,-0.423 -1.87,-0.768 -2.2,-0.767 -0.33,0.002 -0.06,0.236 0.6,0.521 m -33.328,1.289 c -1.17,0.553 -2.05,1.083 -1.956,1.177 0.094,0.094 1.321,-0.374 2.727,-1.039 1.406,-0.665 2.287,-1.195 1.957,-1.176 -0.33,0.018 -1.557,0.485 -2.728,1.038 m -3.772,1.957 c -0.605,0.328 -1.1,0.681 -1.1,0.784 0,0.386 0.632,0.144 1.6,-0.613 1.189,-0.93 1.011,-0.991 -0.5,-0.171 m 43.7,-0.439 c 0,0.104 0.585,0.475 1.3,0.824 l 1.3,0.634 -1,-0.815 c -0.963,-0.785 -1.6,-1.041 -1.6,-0.643 m 3,1.674 c 0.22,0.208 1.469,1.179 2.775,2.157 4.123,3.087 8.803,8.219 11.382,12.479 0.5,0.825 0.994,1.5 1.098,1.5 1.144,0 -6.317,-9.284 -9.951,-12.383 -2.496,-2.128 -6.83,-5.195 -5.304,-3.753 m -53.159,3.334 c -1.258,1.101 -2.164,2.002 -2.013,2.002 0.151,0 0.947,-0.607 1.769,-1.349 0.821,-0.743 1.832,-1.539 2.245,-1.77 0.413,-0.232 0.647,-0.525 0.519,-0.653 -0.127,-0.128 -1.261,0.669 -2.52,1.77 m -4.641,4.477 c -2.512,2.833 -5.566,7.125 -5.071,7.125 0.087,0 0.796,-0.961 1.575,-2.135 0.78,-1.174 2.445,-3.244 3.7,-4.6 1.255,-1.356 2.128,-2.455 1.939,-2.443 -0.189,0.013 -1.153,0.936 -2.143,2.053 m -6.722,9.785 c -0.645,1.287 -1.296,2.79 -1.446,3.34 -0.15,0.55 0.452,-0.429 1.338,-2.176 0.886,-1.747 1.537,-3.25 1.447,-3.341 -0.091,-0.09 -0.693,0.889 -1.339,2.177 m 82.344,4.265 c -0.045,0.663 1.329,4.422 1.466,4.012 0.078,-0.235 -0.215,-1.307 -0.651,-2.382 -0.436,-1.075 -0.803,-1.809 -0.815,-1.63 m -85.393,3.304 c -0.148,0.586 -0.178,1.155 -0.068,1.265 0.11,0.11 0.32,-0.279 0.468,-0.865 0.147,-0.587 0.177,-1.156 0.067,-1.266 -0.11,-0.11 -0.32,0.279 -0.467,0.866 M 243.656,67 c 0,0.44 0.155,1.16 0.344,1.6 l 0.344,0.8 v -0.8 c 0,-0.44 -0.155,-1.16 -0.344,-1.6 l -0.344,-0.8 V 67 m -87.768,0.333 c -0.158,0.403 -0.277,1.123 -0.263,1.6 0.024,0.823 0.046,0.817 0.415,-0.108 0.214,-0.536 0.333,-1.256 0.263,-1.6 -0.104,-0.514 -0.178,-0.495 -0.415,0.108 M 244.6,77.4 c 0,3.876 0.117,6.632 0.26,6.124 0.143,-0.508 0.26,-3.264 0.26,-6.124 0,-2.86 -0.117,-5.616 -0.26,-6.124 -0.143,-0.508 -0.26,2.248 -0.26,6.124 m -89.55,-5.35 c -0.343,1.714 -0.263,10.373 0.104,11.309 0.164,0.417 0.286,-2.237 0.272,-5.9 -0.029,-7.312 -0.02,-7.189 -0.376,-5.409 M 155.668,86 c -0.006,0.55 0.143,1.36 0.332,1.8 l 0.344,0.8 -0.012,-0.8 C 156.326,87.36 156.176,86.55 156,86 l -0.32,-1 -0.012,1 m 88.132,0.8 c -0.152,0.691 -0.186,1.347 -0.076,1.457 0.11,0.11 0.324,-0.366 0.476,-1.057 0.152,-0.691 0.186,-1.347 0.076,-1.457 -0.11,-0.11 -0.324,0.366 -0.476,1.057 m -87.388,2.8 c 0,0.33 0.175,0.87 0.388,1.2 0.345,0.533 0.388,0.533 0.388,0 0,-0.33 -0.175,-0.87 -0.388,-1.2 -0.345,-0.533 -0.388,-0.533 -0.388,0 m 86.661,0.153 c -0.15,0.392 -0.262,1.013 -0.248,1.38 0.017,0.442 0.156,0.341 0.412,-0.299 0.212,-0.531 0.324,-1.152 0.248,-1.38 -0.076,-0.227 -0.261,-0.093 -0.412,0.299 M 157.259,92 c 0,0.33 0.334,1.32 0.741,2.2 0.407,0.88 0.741,1.33 0.741,1 0,-0.33 -0.334,-1.32 -0.741,-2.2 -0.407,-0.88 -0.741,-1.33 -0.741,-1 m 82.885,5.5 c -1.397,3.024 -5.224,8.34 -8.241,11.448 -1.703,1.755 -3.033,3.255 -2.955,3.333 0.689,0.689 9.59,-10.574 11.445,-14.481 0.313,-0.66 0.633,-1.335 0.712,-1.5 0.078,-0.165 0.05,-0.3 -0.063,-0.3 -0.112,0 -0.516,0.675 -0.898,1.5 m -79.533,2.1 c 4.084,7.463 17.113,19.258 21.189,19.183 0.22,-0.005 -0.95,-0.723 -2.6,-1.597 -6.149,-3.256 -12.159,-8.628 -16.057,-14.351 -2.009,-2.949 -3.229,-4.508 -2.532,-3.235 m 64.989,14.652 c -1.43,1.014 -4.22,2.629 -6.2,3.588 -1.98,0.959 -3.371,1.747 -3.09,1.752 1.209,0.019 8.227,-3.946 11.29,-6.38 1.82,-1.446 0.642,-0.833 -2,1.04 m -41.649,5.352 c 0.962,0.444 2.222,0.901 2.8,1.017 0.577,0.116 0.149,-0.157 -0.951,-0.607 -2.736,-1.119 -4,-1.399 -1.849,-0.41 m 30.809,0.169 c -2.352,2.353 -16.089,3.011 -25.76,1.235 -0.665,-0.122 -0.422,0.037 0.544,0.356 5.279,1.748 15.049,1.653 22.031,-0.213 2.854,-0.763 4.703,-1.513 3.792,-1.539 -0.239,-0.007 -0.511,0.066 -0.607,0.161 M 231.8,168 c 0.859,0.88 1.652,1.6 1.762,1.6 0.11,0 -0.503,-0.72 -1.362,-1.6 -0.859,-0.88 -1.652,-1.6 -1.762,-1.6 -0.11,0 0.503,0.72 1.362,1.6 m -64,64 c 0.859,0.88 1.652,1.6 1.762,1.6 0.11,0 -0.503,-0.72 -1.362,-1.6 -0.859,-0.88 -1.652,-1.6 -1.762,-1.6 -0.11,0 0.503,0.72 1.362,1.6"
       stroke="none"
       fill="#5a3030"
       fill-rule="evenodd" />
    <path
       id="path6"
       d="m 129.5,12.832 c -0.754,0.439 -1.122,373.084 -0.37,374.269 0.254,0.399 14.738,0.481 71.094,0.4 L 271,387.4 271.1,200.147 271.201,12.894 270.3,12.652 c -1.638,-0.439 -140.041,-0.262 -140.8,0.18 m 140.8,0.698 c 0.4,0.254 0.481,37.857 0.4,186.694 l -0.1,186.376 -69.8,0.109 c -38.39,0.061 -70.205,0.012 -70.7,-0.107 l -0.9,-0.217 V 200.026 c 0,-148.713 0.101,-186.4 0.5,-186.561 0.841,-0.339 140.065,-0.275 140.6,0.065 m -78.9,6.124 c -8.383,1.506 -16.318,4.445 -21.672,8.027 -0.92,0.616 -1.773,1.119 -1.896,1.119 -1.318,0 -11.305,9.365 -14.289,13.4 -3.334,4.508 -7.543,11.982 -7.543,13.394 0,0.229 -0.18,0.774 -0.4,1.211 -0.22,0.437 -0.58,1.153 -0.8,1.59 -0.22,0.437 -0.4,1.146 -0.4,1.576 0,0.43 -0.18,0.893 -0.4,1.029 -0.22,0.136 -0.4,0.831 -0.4,1.544 0,0.713 -0.162,1.467 -0.359,1.676 -1.661,1.758 -1.661,24.602 0,26.36 0.197,0.209 0.359,0.963 0.359,1.676 0,0.713 0.18,1.408 0.4,1.544 0.22,0.136 0.4,0.651 0.4,1.144 0,0.493 0.149,1.067 0.33,1.276 0.182,0.209 0.581,1.19 0.887,2.18 1.482,4.8 6.565,13.053 11.179,18.152 3.222,3.561 11.18,10.248 12.195,10.248 0.146,0 1.017,0.508 1.937,1.128 7.97,5.379 22.253,8.639 33.516,7.651 25.837,-2.268 46.077,-19.52 52.299,-44.579 2.458,-9.898 1.779,-24.192 -1.539,-32.4 -0.178,-0.44 -0.544,-1.43 -0.813,-2.2 -3.232,-9.233 -10.729,-19.162 -19.309,-25.57 -1.495,-1.116 -2.813,-2.03 -2.928,-2.03 -0.116,0 -0.995,-0.54 -1.954,-1.2 -0.959,-0.66 -1.937,-1.2 -2.172,-1.2 -0.235,0 -0.428,-0.18 -0.428,-0.4 0,-0.22 -0.36,-0.4 -0.8,-0.4 -0.44,0 -0.8,-0.18 -0.8,-0.4 0,-0.22 -0.253,-0.4 -0.562,-0.4 -0.309,0 -1.254,-0.344 -2.1,-0.764 -8.022,-3.987 -22.83,-6.019 -31.938,-4.382 m 15.354,0.366 c 7.904,1.254 12.425,2.599 18.246,5.428 4.149,2.016 5.944,3.027 6.133,3.452 0.074,0.165 0.298,0.3 0.498,0.3 1.417,0 11.893,9.628 14.362,13.2 0.533,0.77 1.069,1.49 1.191,1.6 2.396,2.15 8.018,14.999 9.189,21 0.257,1.32 0.638,3.269 0.847,4.331 2.281,11.596 -2.71,32.833 -9.626,40.957 -0.333,0.392 -1.046,1.342 -1.584,2.112 -2.236,3.197 -7.829,8.669 -12.007,11.747 -2.873,2.117 -3.638,2.586 -8.252,5.058 -3.936,2.11 -10.762,4.216 -17.975,5.548 -8.886,1.64 -22.132,-0.37 -31.651,-4.801 -1.361,-0.634 -2.589,-1.152 -2.728,-1.152 -0.139,0 -1.038,-0.54 -1.997,-1.2 -0.959,-0.66 -1.866,-1.2 -2.015,-1.2 -2.016,0 -13.446,-11.032 -17.063,-16.469 -5.083,-7.643 -7.319,-13.355 -9.497,-24.262 -0.55,-2.755 -0.55,-13.783 0,-16.538 2.375,-11.892 5.089,-18.365 11.125,-26.531 5.505,-7.445 20.909,-19 25.331,-19 0.307,0 0.73,-0.149 0.939,-0.33 0.209,-0.182 1.19,-0.563 2.18,-0.847 0.99,-0.284 2.25,-0.656 2.8,-0.827 1.094,-0.34 4.168,-0.957 7.6,-1.526 3.122,-0.518 10.832,-0.545 13.954,-0.05 m -8.063,11.869 c 0.71,0.088 1.97,0.09 2.8,0.003 0.83,-0.087 0.249,-0.159 -1.291,-0.161 -1.54,-0.002 -2.219,0.069 -1.509,0.158 m 18.942,3.464 c 0.408,0.373 5.167,2.638 5.167,2.459 0,-0.225 -4.621,-2.612 -5.055,-2.612 -0.153,0 -0.203,0.069 -0.112,0.153 M 179.5,36.427 c -0.825,0.436 -1.5,0.881 -1.5,0.991 0,0.178 3.159,-1.299 3.567,-1.667 0.46,-0.417 -0.742,-0.023 -2.067,0.676 m 44.9,2.497 c 0,0.093 0.765,0.674 1.7,1.291 0.935,0.617 1.489,0.865 1.231,0.553 -0.497,-0.601 -2.931,-2.132 -2.931,-1.844 m -59.222,8.976 -1.378,1.5 1.5,-1.378 c 0.825,-0.759 1.5,-1.434 1.5,-1.5 0,-0.306 -0.338,-0.018 -1.622,1.378 M 234,47.064 c 0,0.218 0.495,0.833 1.1,1.366 l 1.1,0.97 -1,-1.2 c -0.55,-0.66 -1.045,-1.275 -1.1,-1.367 -0.055,-0.091 -0.1,0.012 -0.1,0.231 m 2.975,3.868 c 0.616,0.807 1.201,1.468 1.3,1.468 0.278,0 -1.454,-2.34 -1.966,-2.656 -0.25,-0.155 0.05,0.38 0.666,1.188 m -74.777,0.67 c -0.4,0.442 -0.632,0.897 -0.516,1.013 0.115,0.115 0.508,-0.246 0.873,-0.803 0.797,-1.216 0.638,-1.31 -0.357,-0.21 m -4.748,8.789 c -0.903,2.256 -0.763,2.592 0.187,0.451 0.429,-0.967 0.708,-1.83 0.621,-1.917 -0.087,-0.087 -0.45,0.573 -0.808,1.466 m -2.557,9.209 c 0,0.77 0.082,1.085 0.183,0.7 0.1,-0.385 0.1,-1.015 0,-1.4 -0.101,-0.385 -0.183,-0.07 -0.183,0.7 m 90,0 c 0,0.77 0.082,1.085 0.183,0.7 0.1,-0.385 0.1,-1.015 0,-1.4 -0.101,-0.385 -0.183,-0.07 -0.183,0.7 m -90.753,8 c 0,1.87 0.069,2.635 0.153,1.7 0.084,-0.935 0.084,-2.465 0,-3.4 -0.084,-0.935 -0.153,-0.17 -0.153,1.7 m 91.602,0.2 c -10e-4,1.98 0.066,2.84 0.15,1.912 0.084,-0.928 0.085,-2.548 0.003,-3.6 -0.083,-1.052 -0.152,-0.292 -0.153,1.688 m -90.849,7.4 c 0,0.77 0.082,1.085 0.183,0.7 0.1,-0.385 0.1,-1.015 0,-1.4 -0.101,-0.385 -0.183,-0.07 -0.183,0.7 m 90,0 c 0,0.77 0.082,1.085 0.183,0.7 0.1,-0.385 0.1,-1.015 0,-1.4 -0.101,-0.385 -0.183,-0.07 -0.183,0.7 m -84.42,15.4 c 0.25,0.55 0.611,1 0.8,1 0.19,0 0.051,-0.45 -0.31,-1 -0.36,-0.55 -0.72,-1 -0.8,-1 -0.08,0 0.059,0.45 0.31,1 m 75.468,4.7 c -0.729,0.935 -1.006,1.446 -0.615,1.136 0.777,-0.617 2.447,-2.836 2.135,-2.836 -0.107,0 -0.79,0.765 -1.52,1.7 m -72.427,-0.296 c 0.227,0.443 0.834,1.162 1.349,1.598 0.904,0.764 0.902,0.75 -0.057,-0.405 -1.593,-1.918 -1.727,-2.042 -1.292,-1.193 m 63.886,8.831 -1.2,1.031 1.3,-0.86 c 0.715,-0.473 1.3,-0.938 1.3,-1.033 0,-0.3 -0.169,-0.195 -1.4,0.862 m -16.6,7.783 c -0.438,0.297 -0.276,0.334 0.6,0.138 1.471,-0.329 1.79,-0.558 0.767,-0.55 -0.422,0.003 -1.037,0.189 -1.367,0.412 m -13.3,1.478 c 1.375,0.078 3.625,0.078 5,0 1.375,-0.078 0.25,-0.142 -2.5,-0.142 -2.75,0 -3.875,0.064 -2.5,0.142 m -2.7,18.946 c -3.666,0.275 -6.014,0.653 -9.4,1.515 -0.88,0.224 -2.098,0.527 -2.706,0.673 -0.608,0.146 -1.204,0.424 -1.324,0.618 -0.119,0.193 -0.569,0.352 -0.999,0.352 -0.43,0 -1.094,0.162 -1.476,0.36 -0.382,0.198 -2.277,1.096 -4.212,1.997 -11.641,5.42 -21.706,15.485 -27.126,27.126 -0.901,1.935 -1.799,3.83 -1.997,4.212 -0.198,0.382 -0.36,1.046 -0.36,1.476 0,0.43 -0.159,0.88 -0.352,0.999 -0.194,0.12 -0.472,0.716 -0.618,1.324 -0.146,0.608 -0.449,1.826 -0.673,2.706 -2.846,11.186 -1.995,26.162 2.024,35.6 6.872,16.138 18.893,28.142 33.519,33.472 0.495,0.18 1.305,0.487 1.8,0.682 1.578,0.622 6.003,1.741 9.5,2.403 5.782,1.094 21.557,0.546 22.98,-0.798 0.209,-0.197 0.963,-0.359 1.676,-0.359 0.713,0 1.408,-0.18 1.544,-0.4 0.136,-0.22 0.599,-0.4 1.029,-0.4 0.43,0 1.094,-0.159 1.476,-0.353 0.382,-0.195 1.145,-0.529 1.695,-0.743 15.568,-6.063 27.641,-18.136 33.704,-33.704 0.214,-0.55 0.548,-1.313 0.743,-1.695 0.194,-0.382 0.353,-1.046 0.353,-1.476 0,-0.43 0.18,-0.893 0.4,-1.029 0.22,-0.136 0.4,-0.831 0.4,-1.544 0,-0.713 0.162,-1.467 0.359,-1.676 1.344,-1.423 1.892,-17.198 0.798,-22.98 -0.589,-3.108 -1.788,-7.908 -2.349,-9.4 -5.812,-15.453 -15.995,-26.87 -29.808,-33.42 -4.748,-2.251 -4.602,-2.198 -12.028,-4.414 -0.676,-0.201 -1.723,-0.366 -2.327,-0.366 -0.604,0 -1.401,-0.155 -1.771,-0.345 -0.962,-0.493 -9.987,-0.751 -14.474,-0.413 m 13.376,0.784 c 5.014,0.882 7.816,1.549 10.024,2.389 0.44,0.167 1.43,0.525 2.2,0.794 16.731,5.85 31.248,22.06 35.503,39.642 1.449,5.987 1.697,8.101 1.697,14.443 0,6.02 -0.127,7.18 -1.46,13.306 -1.474,6.775 -6.954,18.625 -9.712,21 -0.128,0.11 -0.761,0.92 -1.407,1.8 -1.514,2.063 -6.758,7.307 -8.821,8.821 -0.88,0.646 -1.69,1.279 -1.8,1.407 -2.375,2.758 -14.225,8.238 -21,9.712 -6.126,1.333 -7.286,1.46 -13.306,1.46 -24.291,0 -45.92,-14.882 -54.064,-37.2 -0.281,-0.77 -0.648,-1.76 -0.815,-2.2 -3.262,-8.578 -3.703,-22.678 -1.033,-33 0.37,-1.43 0.822,-2.96 1.005,-3.4 0.183,-0.44 0.562,-1.43 0.843,-2.2 5.489,-15.042 18.528,-28.081 33.57,-33.57 0.77,-0.281 1.76,-0.66 2.2,-0.843 1.445,-0.601 5.951,-1.664 8.558,-2.021 1.407,-0.192 2.652,-0.443 2.767,-0.558 0.388,-0.388 12.61,-0.211 15.051,0.218 M 168.115,167.3 c -1.862,1.815 -3.58,3.66 -3.816,4.1 -0.236,0.44 0.516,-0.233 1.671,-1.494 1.155,-1.262 3.004,-3.107 4.108,-4.1 1.105,-0.994 1.877,-1.806 1.716,-1.806 -0.16,0 -1.816,1.485 -3.679,3.3 m 60.32,-2.8 c 0.093,0.055 0.798,0.64 1.567,1.3 l 1.398,1.2 -1.175,-1.3 c -0.646,-0.715 -1.351,-1.3 -1.567,-1.3 -0.215,0 -0.315,0.045 -0.223,0.1 m 4.765,4.425 c 0,0.069 0.585,0.654 1.3,1.3 l 1.3,1.175 -1.175,-1.3 c -1.095,-1.212 -1.425,-1.484 -1.425,-1.175 m -68.8,59.733 c 0,0.216 0.585,0.921 1.3,1.567 l 1.3,1.175 -1.2,-1.398 c -0.66,-0.769 -1.245,-1.474 -1.3,-1.567 -0.055,-0.092 -0.1,0.008 -0.1,0.223 m 4.4,4.667 c 0,0.069 0.585,0.654 1.3,1.3 l 1.3,1.175 -1.175,-1.3 c -1.095,-1.212 -1.425,-1.484 -1.425,-1.175 m 26.4,31.139 c -10.455,0.976 -22.738,5.444 -28.829,10.485 -0.565,0.468 -1.642,1.301 -2.392,1.851 -6.822,5.002 -17.979,19.859 -17.979,23.94 0,0.259 -0.18,0.828 -0.4,1.265 -0.22,0.437 -0.58,1.153 -0.8,1.59 -0.22,0.437 -0.4,1.146 -0.4,1.576 0,0.43 -0.18,0.893 -0.4,1.029 -0.22,0.136 -0.4,0.831 -0.4,1.544 0,0.713 -0.162,1.467 -0.359,1.676 -1.674,1.772 -1.674,24.588 0,26.36 0.197,0.209 0.359,0.963 0.359,1.676 0,0.713 0.18,1.408 0.4,1.544 0.22,0.136 0.4,0.651 0.4,1.144 0,0.493 0.149,1.067 0.33,1.276 0.182,0.209 0.582,1.19 0.889,2.18 1.038,3.345 4.604,9.741 7.916,14.2 3.012,4.055 12.983,13.4 14.297,13.4 0.123,0 0.976,0.503 1.896,1.119 2.583,1.728 9.123,4.821 12.072,5.71 0.88,0.266 2.05,0.62 2.6,0.789 9.282,2.839 23.964,2.582 33.4,-0.587 3.613,-1.213 7.812,-3.107 12.172,-5.49 4.825,-2.637 13.221,-10.18 16.414,-14.746 0.536,-0.767 1.096,-1.485 1.243,-1.595 1.1,-0.822 5.791,-9.713 6.754,-12.8 0.308,-0.99 0.676,-1.98 0.817,-2.2 0.248,-0.388 0.797,-2.225 1.584,-5.3 2.363,-9.241 1.623,-24.377 -1.58,-32.3 -0.178,-0.44 -0.544,-1.43 -0.813,-2.2 -1.202,-3.435 -5.75,-12.043 -6.762,-12.8 -0.147,-0.11 -0.704,-0.83 -1.237,-1.6 -2.062,-2.979 -7.541,-8.518 -10.392,-10.506 -0.99,-0.691 -2.037,-1.488 -2.326,-1.773 -2.586,-2.538 -12.116,-6.871 -19.474,-8.855 -3.492,-0.941 -13.815,-2.324 -15,-2.01 -0.11,0.029 -1.91,0.212 -4,0.408 m 16,1.527 c 4.897,1.004 9.181,2.359 12.718,4.024 1.385,0.652 2.612,1.185 2.728,1.185 0.115,0 0.962,0.501 1.882,1.112 0.92,0.612 2.164,1.361 2.765,1.664 0.602,0.304 1.412,0.843 1.8,1.199 0.389,0.356 1.337,1.085 2.107,1.621 1.623,1.128 4.684,3.921 6.757,6.165 0.794,0.859 1.807,1.939 2.252,2.4 0.444,0.461 1.249,1.469 1.787,2.239 0.538,0.77 1.209,1.638 1.491,1.929 0.282,0.29 0.513,0.682 0.513,0.871 0,0.189 0.225,0.588 0.5,0.887 2.162,2.353 6.545,12.716 7.83,18.513 6.245,28.18 -9.962,58.071 -36.33,67.006 -0.77,0.261 -1.76,0.623 -2.2,0.804 -0.44,0.181 -1.25,0.419 -1.8,0.528 -0.55,0.109 -2.17,0.469 -3.6,0.8 -6.48,1.502 -15.19,1.992 -19.294,1.085 -0.938,-0.207 -2.876,-0.578 -4.306,-0.824 -2.673,-0.459 -3.161,-0.589 -7.6,-2.019 -17.888,-5.763 -33.311,-22.855 -37.34,-41.38 -1.332,-6.122 -1.46,-7.281 -1.46,-13.2 0,-5.919 0.128,-7.078 1.46,-13.2 2.767,-12.72 10.311,-24.309 21.429,-32.918 1.478,-1.145 2.873,-2.082 3.1,-2.082 0.226,0 0.411,-0.18 0.411,-0.4 0,-0.22 0.193,-0.4 0.428,-0.4 0.235,0 1.213,-0.54 2.172,-1.2 0.959,-0.66 1.858,-1.2 1.997,-1.2 0.139,0 1.367,-0.524 2.728,-1.165 10.252,-4.825 23.7,-6.375 35.075,-4.044 M 173,284.808 c -0.88,0.626 -3.49,3.083 -5.8,5.458 l -4.2,4.32 4.85,-4.593 c 2.667,-2.526 5.367,-4.992 6,-5.479 1.639,-1.262 1.05,-1.059 -0.85,0.294 m 59.4,5.392 c 2.743,2.75 5.078,5 5.188,5 0.11,0 -2.045,-2.25 -4.788,-5 -2.743,-2.75 -5.078,-5 -5.188,-5 -0.11,0 2.045,2.25 4.788,5 m -70.596,6.196 c -0.63,0.658 -1.069,1.26 -0.975,1.338 0.094,0.078 0.684,-0.46 1.31,-1.196 1.415,-1.661 1.206,-1.75 -0.335,-0.142 m -6.448,12.975 c -0.121,0.314 -0.152,0.989 -0.07,1.5 0.109,0.683 0.202,0.533 0.351,-0.571 0.21,-1.553 0.099,-1.919 -0.281,-0.929 m -0.795,3.187 c -0.118,0.307 -0.153,1.252 -0.078,2.1 0.127,1.429 0.151,1.388 0.327,-0.558 0.194,-2.144 0.131,-2.533 -0.249,-1.542 m -0.718,4.475 c -0.351,0.914 -0.3,11.285 0.057,11.505 0.165,0.101 0.3,-2.588 0.3,-5.977 0,-3.389 -0.026,-6.161 -0.057,-6.161 -0.032,0 -0.167,0.285 -0.3,0.633 M 245.8,322.6 c 0,3.368 0.135,6.04 0.3,5.938 0.165,-0.102 0.3,-2.774 0.3,-5.938 0,-3.164 -0.135,-5.836 -0.3,-5.938 -0.165,-0.102 -0.3,2.57 -0.3,5.938 m -91.354,8.476 c -0.025,1.142 0.092,2.162 0.261,2.267 0.169,0.104 0.25,-0.56 0.179,-1.477 -0.207,-2.691 -0.39,-3.019 -0.44,-0.79 m 0.76,3.757 c 0.003,0.532 0.183,1.237 0.4,1.567 0.276,0.422 0.317,0.185 0.136,-0.8 -0.317,-1.725 -0.544,-2.051 -0.536,-0.767 m 6.623,14.005 c 0.644,0.791 1.252,1.37 1.35,1.287 0.099,-0.083 -0.428,-0.73 -1.17,-1.438 l -1.351,-1.287 1.171,1.438 m 5.571,6.362 c 2.412,2.42 4.476,4.4 4.586,4.4 0.11,0 -1.774,-1.98 -4.186,-4.4 -2.412,-2.42 -4.476,-4.4 -4.586,-4.4 -0.11,0 1.774,1.98 4.186,4.4 m 64.793,0.1 -4.393,4.5 4.5,-4.393 c 4.18,-4.081 4.682,-4.607 4.393,-4.607 -0.059,0 -2.084,2.025 -4.5,4.5 m -13.793,9.496 c -0.33,0.212 -1.549,0.685 -2.709,1.052 -1.16,0.367 -2.035,0.741 -1.944,0.832 0.251,0.252 4.107,-1.082 4.929,-1.705 0.827,-0.627 0.627,-0.757 -0.276,-0.179 m -35.773,0.744 c 0.901,0.787 7.944,2.66 7.539,2.004 -0.117,-0.189 -0.608,-0.347 -1.09,-0.35 -0.482,-0.003 -1.686,-0.293 -2.676,-0.645 -2.818,-1 -4.179,-1.364 -3.773,-1.009 m 28.773,1.551 c -0.66,0.094 -1.349,0.315 -1.532,0.492 -0.183,0.177 0.409,0.186 1.316,0.02 1.343,-0.246 3.023,-0.946 1.783,-0.743 -0.202,0.033 -0.907,0.137 -1.567,0.231 m -19.695,1.196 c 0.609,0.092 1.509,0.09 2,-0.005 0.492,-0.095 -0.005,-0.171 -1.105,-0.168 -1.1,0.003 -1.503,0.081 -0.895,0.173 m 14.8,0 c 0.609,0.092 1.509,0.09 2,-0.005 0.492,-0.095 -0.005,-0.171 -1.105,-0.168 -1.1,0.003 -1.503,0.081 -0.895,0.173 m -8.805,0.809 c 1.265,0.079 3.335,0.079 4.6,0 1.265,-0.08 0.23,-0.145 -2.3,-0.145 -2.53,0 -3.565,0.065 -2.3,0.145"
       stroke="none"
       fill="#342c34"
       fill-rule="evenodd" />
    <path
       id="path7"
       d="m 194.076,155.14 c -0.508,0.143 2.158,0.26 5.924,0.26 3.766,0 6.432,-0.117 5.924,-0.26 -0.508,-0.143 -3.174,-0.26 -5.924,-0.26 -2.75,0 -5.416,0.117 -5.924,0.26 M 189.6,156 c -0.758,0.49 0.47,0.49 2,0 0.98,-0.314 0.976,-0.321 -0.2,-0.354 -0.66,-0.019 -1.47,0.141 -1.8,0.354 m 18.8,0 c 1.53,0.49 2.758,0.49 2,0 -0.33,-0.213 -1.14,-0.373 -1.8,-0.354 -1.176,0.033 -1.18,0.04 -0.2,0.354 m -22.725,1.073 c -0.949,0.336 -1.644,0.692 -1.544,0.791 0.195,0.195 4.269,-1.055 4.269,-1.31 0,-0.284 -0.986,-0.096 -2.725,0.519 m 25.925,-0.519 c 0,0.19 3.826,1.457 4.275,1.416 0.553,-0.05 -2.832,-1.509 -3.575,-1.54 -0.385,-0.017 -0.7,0.039 -0.7,0.124 m 7.2,2.735 c 2.822,1.425 6.48,3.529 6.8,3.911 0.11,0.131 0.828,0.678 1.595,1.214 4.999,3.496 9.84,9.508 13.516,16.786 0.723,1.43 1.195,2.15 1.05,1.6 -2.223,-8.41 -16.285,-22.478 -24.561,-24.572 -0.55,-0.139 0.17,0.338 1.6,1.061 m -42.415,2.231 c -5.754,3.423 -11.718,9.409 -14.925,14.98 -1.681,2.921 -1.027,2.26 1.373,-1.387 2.766,-4.203 8.077,-9.514 12.28,-12.28 1.808,-1.19 3.287,-2.224 3.287,-2.298 0,-0.206 -0.071,-0.171 -2.015,0.985 M 157,186 c -0.375,1.129 -0.596,2.137 -0.492,2.241 0.104,0.105 0.493,-0.737 0.863,-1.87 0.371,-1.132 0.592,-2.141 0.492,-2.241 -0.1,-0.1 -0.488,0.741 -0.863,1.87 m 85.812,0.4 c 0,0.33 0.175,0.87 0.388,1.2 0.345,0.533 0.388,0.533 0.388,0 0,-0.33 -0.175,-0.87 -0.388,-1.2 -0.345,-0.533 -0.388,-0.533 -0.388,0 m 0.856,3 c 0.006,0.44 0.156,1.25 0.332,1.8 l 0.32,1 0.012,-1 c 0.006,-0.55 -0.143,-1.36 -0.332,-1.8 l -0.344,-0.8 0.012,0.8 m -87.795,0.353 c -0.15,0.392 -0.257,1.193 -0.237,1.78 0.034,0.995 0.062,0.976 0.421,-0.27 0.416,-1.444 0.266,-2.681 -0.184,-1.51 M 244.6,200 c 0,3.986 0.117,6.832 0.26,6.324 0.143,-0.508 0.26,-3.354 0.26,-6.324 0,-2.97 -0.117,-5.816 -0.26,-6.324 -0.143,-0.508 -0.26,2.338 -0.26,6.324 m -89.55,-5.55 c -0.32,1.6 -0.252,10.259 0.09,11.474 0.143,0.508 0.26,-2.147 0.26,-5.9 0,-7.48 0.007,-7.361 -0.35,-5.574 m 0.596,14.15 c -0.019,0.66 0.141,1.47 0.354,1.8 0.49,0.758 0.49,-0.47 0,-2 -0.314,-0.98 -0.321,-0.976 -0.354,0.2 m 88.176,0.822 c -0.15,0.803 -0.184,1.55 -0.074,1.66 0.11,0.11 0.324,-0.457 0.474,-1.26 0.151,-0.803 0.184,-1.549 0.074,-1.659 -0.11,-0.11 -0.323,0.456 -0.474,1.259 M 156.43,212.3 c 0.031,0.743 1.49,4.128 1.54,3.575 0.041,-0.449 -1.226,-4.275 -1.416,-4.275 -0.085,0 -0.141,0.315 -0.124,0.7 m 86.57,0.5 c -0.15,0.473 -0.183,0.95 -0.073,1.06 0.11,0.11 0.323,-0.187 0.473,-0.66 0.15,-0.473 0.183,-0.95 0.073,-1.06 -0.11,-0.11 -0.323,0.187 -0.473,0.66 m -0.733,1.867 c -0.147,0.146 -0.272,0.551 -0.277,0.9 -0.019,1.203 -4.05,8.744 -6.112,11.433 -2.877,3.752 -8.739,9.103 -12.078,11.026 -3.174,1.827 -7.614,3.954 -8.276,3.964 -0.372,0.005 -0.8,0.209 -0.95,0.453 -0.82,1.326 8.596,-3.237 12.026,-5.828 5.525,-4.174 10.491,-9.913 13.412,-15.5 2.155,-4.121 3.352,-7.546 2.255,-6.448 m -84.039,2.533 c 2.094,8.276 16.162,22.338 24.572,24.561 0.55,0.145 -0.17,-0.327 -1.6,-1.05 -7.278,-3.676 -13.29,-8.517 -16.786,-13.516 -0.536,-0.767 -1.083,-1.485 -1.214,-1.595 -0.382,-0.32 -2.486,-3.978 -3.911,-6.8 -0.723,-1.43 -1.2,-2.15 -1.061,-1.6 m 28.172,26 c 0.33,0.213 0.87,0.388 1.2,0.388 0.533,0 0.533,-0.043 0,-0.388 -0.33,-0.213 -0.87,-0.388 -1.2,-0.388 -0.533,0 -0.533,0.043 0,0.388 m 26,0 c -0.533,0.345 -0.533,0.388 0,0.388 0.33,0 0.87,-0.175 1.2,-0.388 0.533,-0.345 0.533,-0.388 0,-0.388 -0.33,0 -0.87,0.175 -1.2,0.388 m -22.8,0.8 c 0.33,0.213 1.05,0.373 1.6,0.354 l 1,-0.034 -1,-0.32 c -1.542,-0.494 -2.364,-0.494 -1.6,0 m 19.2,0 -1,0.32 1,0.012 c 0.55,0.006 1.36,-0.143 1.8,-0.332 l 0.8,-0.344 -0.8,0.012 c -0.44,0.006 -1.25,0.156 -1.8,0.332 m -15.124,0.86 c 0.508,0.143 3.354,0.26 6.324,0.26 2.97,0 5.816,-0.117 6.324,-0.26 0.508,-0.143 -2.338,-0.26 -6.324,-0.26 -3.986,0 -6.832,0.117 -6.324,0.26 m -37.827,64.555 c -0.137,0.358 -0.231,1.041 -0.208,1.518 0.026,0.548 0.162,0.353 0.369,-0.53 0.35,-1.487 0.255,-2.07 -0.161,-0.988 m -0.888,3.143 c -0.118,0.307 -0.153,1.252 -0.078,2.1 0.127,1.429 0.151,1.388 0.327,-0.558 0.194,-2.144 0.131,-2.533 -0.249,-1.542 m 89.829,1.361 0.193,1.881 0.136,-1.553 c 0.074,-0.854 -0.012,-1.7 -0.193,-1.881 -0.181,-0.181 -0.242,0.518 -0.136,1.553 m 0.72,7.017 c 0.172,6.979 0.35,7.774 0.417,1.864 0.033,-2.97 -0.071,-5.609 -0.233,-5.864 -0.162,-0.255 -0.245,1.545 -0.184,4 m -91.243,-3.869 c -0.364,0.364 -0.328,10.617 0.039,11.196 0.162,0.254 0.294,-2.221 0.294,-5.5 0,-3.279 -0.015,-5.962 -0.033,-5.963 -0.019,0 -0.154,0.12 -0.3,0.267 m 0.579,13.809 c -0.025,1.032 0.096,1.965 0.27,2.072 0.174,0.108 0.254,-0.466 0.177,-1.276 -0.234,-2.474 -0.398,-2.765 -0.447,-0.796 m 90.018,0.191 c -0.035,0.697 -0.168,1.597 -0.294,2 -0.217,0.692 -0.205,0.693 0.224,0.024 0.251,-0.389 0.383,-1.289 0.295,-2 l -0.161,-1.291 -0.064,1.267 m -89.264,3.909 c 0,0.537 0.147,1.068 0.328,1.179 0.18,0.112 0.249,-0.328 0.154,-0.976 -0.21,-1.43 -0.482,-1.544 -0.482,-0.203 m 88.454,-0.309 c -0.029,0.477 -0.158,1.197 -0.284,1.6 -0.218,0.694 -0.206,0.695 0.226,0.021 0.251,-0.391 0.379,-1.111 0.285,-1.6 -0.172,-0.887 -0.172,-0.887 -0.227,-0.021 m -81.66,14.336 c 1.593,1.918 1.727,2.042 1.292,1.193 -0.227,-0.443 -0.834,-1.162 -1.349,-1.598 -0.904,-0.764 -0.902,-0.75 0.057,0.405 M 167.6,355 c 2.081,2.09 3.874,3.8 3.984,3.8 0.11,0 -1.503,-1.71 -3.584,-3.8 -2.081,-2.09 -3.874,-3.8 -3.984,-3.8 -0.11,0 1.503,1.71 3.584,3.8 m 64.392,0.1 -3.792,3.9 3.9,-3.792 c 3.622,-3.522 4.082,-4.008 3.792,-4.008 -0.059,0 -1.814,1.755 -3.9,3.9 m -44.44,11.812 c 0.193,0.193 0.867,0.286 1.499,0.207 1.058,-0.132 1.03,-0.16 -0.351,-0.351 -0.86,-0.119 -1.35,-0.058 -1.148,0.144 m 23.848,-0.112 -1.2,0.305 1.076,0.048 c 0.592,0.026 1.188,-0.133 1.324,-0.353 0.136,-0.22 0.192,-0.379 0.124,-0.353 -0.068,0.026 -0.664,0.185 -1.324,0.353 m -20.635,0.926 c 0.179,0.179 1.116,0.265 2.081,0.192 l 1.754,-0.133 -2.081,-0.192 c -1.144,-0.106 -1.934,-0.046 -1.754,0.133 m 16.635,-0.126 -2,0.274 1.876,0.063 c 1.032,0.035 1.988,-0.117 2.124,-0.337 0.136,-0.22 0.192,-0.372 0.124,-0.337 -0.068,0.034 -1.024,0.186 -2.124,0.337 m -11.938,0.9 c 0.239,0.387 8.59,0.381 9.201,-0.006 0.255,-0.162 -1.753,-0.294 -4.461,-0.294 -2.708,0 -4.841,0.135 -4.74,0.3"
       stroke="none"
       fill="#644c2c"
       fill-rule="evenodd" />
    <path
       id="path8"
       d="m 193.6,32.392 c -0.564,0.177 0.307,0.222 2,0.105 1.65,-0.114 3.075,-0.273 3.167,-0.352 0.32,-0.278 -4.175,-0.063 -5.167,0.247 m 7.633,-0.247 c 0.092,0.079 1.517,0.238 3.167,0.352 1.693,0.117 2.564,0.072 2,-0.105 -0.992,-0.31 -5.487,-0.525 -5.167,-0.247 M 189.4,33.2 c -1.019,0.438 0.032,0.438 1.4,0 0.804,-0.257 0.843,-0.323 0.2,-0.332 -0.44,-0.006 -1.16,0.143 -1.6,0.332 m -4.2,1.2 c -2.385,1.001 -1.555,1.016 1,0.018 1.1,-0.429 1.73,-0.779 1.4,-0.777 -0.33,0.002 -1.41,0.344 -2.4,0.759 M 212.6,34 c 0.44,0.189 1.07,0.344 1.4,0.344 0.378,0 0.304,-0.127 -0.2,-0.344 -0.44,-0.189 -1.07,-0.344 -1.4,-0.344 -0.378,0 -0.304,0.127 0.2,0.344 m -31.4,2 c -0.77,0.422 -1.22,0.766 -1,0.766 0.22,0 1.03,-0.344 1.8,-0.766 0.77,-0.422 1.22,-0.766 1,-0.766 -0.22,0 -1.03,0.344 -1.8,0.766 m -2.9,1.429 c -1.495,0.811 -1.404,1.149 0.1,0.371 0.66,-0.341 1.2,-0.706 1.2,-0.81 0,-0.258 -0.043,-0.243 -1.3,0.439 m 44.3,0.778 c 0.44,0.359 1.16,0.828 1.6,1.044 l 0.8,0.393 -0.8,-0.651 c -0.44,-0.359 -1.16,-0.828 -1.6,-1.044 l -0.8,-0.393 0.8,0.651 m -49.2,2.428 -1.2,1.031 1.3,-0.86 c 0.715,-0.473 1.3,-0.938 1.3,-1.033 0,-0.3 -0.169,-0.195 -1.4,0.862 m 54.6,1.273 c 0.99,0.886 1.877,1.537 1.971,1.447 0.177,-0.169 -0.514,-0.764 -2.571,-2.213 -0.66,-0.464 -0.39,-0.12 0.6,0.766 m -57.538,0.932 c -0.736,0.669 -1.264,1.291 -1.173,1.382 0.091,0.092 0.774,-0.461 1.517,-1.228 1.66,-1.713 1.466,-1.8 -0.344,-0.154 m 61.92,2.96 c 1.178,1.32 3.038,3.57 4.132,5 1.094,1.43 1.921,2.387 1.838,2.128 -0.256,-0.797 -5.007,-6.644 -6.605,-8.128 -0.946,-0.879 -0.71,-0.507 0.635,1 m -66.397,1.493 c -0.982,1.131 -2.024,2.427 -2.317,2.881 -0.319,0.495 -0.183,0.425 0.337,-0.174 0.479,-0.55 1.593,-1.775 2.476,-2.723 0.883,-0.948 1.535,-1.795 1.448,-1.882 -0.088,-0.087 -0.962,0.767 -1.944,1.898 m -5.371,7.342 c -0.373,0.569 -0.609,1.103 -0.525,1.187 0.084,0.085 0.469,-0.381 0.855,-1.034 0.862,-1.46 0.604,-1.579 -0.33,-0.153 m 79.335,1.734 c 0.792,1.526 1.501,2.714 1.576,2.64 0.208,-0.208 -1.999,-4.573 -2.539,-5.021 -0.262,-0.217 0.172,0.854 0.963,2.381 m -82.491,4.935 c -0.93,2.436 -0.778,2.9 0.178,0.543 0.436,-1.074 0.722,-2.023 0.636,-2.109 -0.086,-0.086 -0.452,0.619 -0.814,1.566 m -1.194,3.396 c -0.495,1.825 -0.656,3.068 -0.325,2.5 0.395,-0.675 0.929,-3.2 0.678,-3.2 -0.09,0 -0.248,0.315 -0.353,0.7 m 87.288,0.587 c 0.185,1.111 0.241,1.168 0.367,0.367 0.082,-0.521 -0.016,-1.111 -0.218,-1.313 -0.222,-0.222 -0.28,0.152 -0.149,0.946 m 0.73,3.134 c 0.126,0.978 0.293,1.854 0.373,1.946 0.326,0.375 0.105,-2.612 -0.234,-3.146 -0.237,-0.375 -0.286,0.049 -0.139,1.2 M 155.26,68.85 c -0.033,0.577 -0.149,1.658 -0.259,2.4 l -0.198,1.35 0.421,-1.343 c 0.231,-0.738 0.348,-1.818 0.258,-2.4 l -0.162,-1.057 -0.06,1.05 m 90.095,8.55 c 0.001,2.86 0.065,3.978 0.142,2.483 0.077,-1.494 0.077,-3.834 -0.001,-5.2 -0.078,-1.365 -0.141,-0.143 -0.141,2.717 m -90.804,-0.2 c 0,2.53 0.065,3.565 0.145,2.3 0.079,-1.265 0.079,-3.335 0,-4.6 -0.08,-1.265 -0.145,-0.23 -0.145,2.3 m 0.531,7.4 c 0.127,1.1 0.295,2.075 0.374,2.167 0.299,0.347 0.072,-2.603 -0.259,-3.367 -0.223,-0.515 -0.264,-0.087 -0.115,1.2 m 89.382,0.867 c -0.035,0.697 -0.168,1.597 -0.294,2 -0.217,0.692 -0.205,0.693 0.224,0.024 0.251,-0.389 0.383,-1.289 0.295,-2 l -0.161,-1.291 -0.064,1.267 m -0.81,3.6 c -0.029,0.477 -0.158,1.197 -0.284,1.6 -0.218,0.694 -0.206,0.695 0.226,0.021 0.251,-0.391 0.379,-1.111 0.285,-1.6 -0.172,-0.887 -0.172,-0.887 -0.227,-0.021 m -5.78,13.033 c -1.069,1.671 -1.385,2.353 -0.745,1.61 1.09,-1.264 3.078,-4.51 2.762,-4.51 -0.088,0 -0.996,1.305 -2.017,2.9 M 161.6,101.915 c 0,0.173 0.548,0.938 1.219,1.7 l 1.219,1.385 -1.072,-1.7 c -1.063,-1.686 -1.366,-1.993 -1.366,-1.385 m 3.956,5.171 c 1.835,2.258 5.03,5.256 7.006,6.573 0.681,0.454 0.428,0.148 -0.562,-0.679 -0.99,-0.827 -3.226,-2.961 -4.969,-4.742 -2.249,-2.298 -2.678,-2.633 -1.475,-1.152 m 67.071,1.627 c -2.056,2.26 -2.432,2.783 -1.068,1.487 1.885,-1.791 4.718,-5.02 4.375,-4.987 -0.074,0.007 -1.562,1.582 -3.307,3.5 M 227,113.632 c -2.504,1.893 -2.64,2.275 -0.2,0.562 1.21,-0.849 2.275,-1.601 2.367,-1.669 0.091,-0.069 0.001,-0.12 -0.2,-0.114 -0.202,0.006 -1.087,0.556 -1.967,1.221 m -5.6,3.592 c -3.08,1.72 -3.28,2.144 -0.287,0.608 1.747,-0.896 3.75,-2.23 3.287,-2.189 -0.11,0.01 -1.46,0.722 -3,1.581 m -43.8,-0.227 c 0,0.271 3.249,1.887 3.43,1.706 0.084,-0.084 -0.654,-0.544 -1.639,-1.022 -0.985,-0.479 -1.791,-0.787 -1.791,-0.684 m 8.4,3.785 c 0.33,0.223 0.945,0.409 1.367,0.412 1.023,0.008 0.704,-0.221 -0.767,-0.55 -0.876,-0.196 -1.038,-0.159 -0.6,0.138 m 7,1.628 c 0.77,0.321 4.507,0.541 4.167,0.245 -0.092,-0.079 -1.247,-0.242 -2.567,-0.362 -1.449,-0.131 -2.083,-0.085 -1.6,0.117 m 11.6,-0.01 -2,0.274 1.8,0.035 c 0.99,0.019 2.16,-0.12 2.6,-0.309 0.913,-0.392 0.462,-0.392 -2.4,0 m -7.3,32.297 c 1.485,0.077 3.915,0.077 5.4,0 1.485,-0.077 0.27,-0.14 -2.7,-0.14 -2.97,0 -4.185,0.063 -2.7,0.14 m -7.679,0.882 c -0.375,0.237 0.049,0.286 1.2,0.139 0.978,-0.126 1.854,-0.293 1.946,-0.373 0.375,-0.326 -2.612,-0.105 -3.146,0.234 m 18.479,-0.103 c 0.385,0.1 1.015,0.1 1.4,0 0.385,-0.101 0.07,-0.183 -0.7,-0.183 -0.77,0 -1.085,0.082 -0.7,0.183 m -38.325,10.624 -1.175,1.3 1.3,-1.175 c 1.212,-1.095 1.484,-1.425 1.175,-1.425 -0.069,0 -0.654,0.585 -1.3,1.3 m -4,4 -1.175,1.3 1.3,-1.175 c 0.715,-0.646 1.3,-1.231 1.3,-1.3 0,-0.309 -0.33,-0.037 -1.425,1.175 m 67.825,-0.375 c 0,0.069 0.585,0.654 1.3,1.3 l 1.3,1.175 -1.175,-1.3 c -1.095,-1.212 -1.425,-1.484 -1.425,-1.175 m -78.151,20.09 c -0.137,0.358 -0.226,1.221 -0.199,1.918 0.042,1.054 0.1,0.965 0.349,-0.533 0.318,-1.914 0.26,-2.452 -0.15,-1.385 M 245.359,200 c 0,3.19 0.062,4.495 0.138,2.9 0.076,-1.595 0.076,-4.205 0,-5.8 -0.076,-1.595 -0.138,-0.29 -0.138,2.9 m -90.802,0 c 0,2.97 0.063,4.185 0.14,2.7 0.077,-1.485 0.077,-3.915 0,-5.4 -0.077,-1.485 -0.14,-0.27 -0.14,2.7 m 0.736,8.8 c 0,0.77 0.082,1.085 0.183,0.7 0.1,-0.385 0.1,-1.015 0,-1.4 -0.101,-0.385 -0.183,-0.07 -0.183,0.7 m 79.282,20.5 -1.175,1.3 1.3,-1.175 c 0.715,-0.646 1.3,-1.231 1.3,-1.3 0,-0.309 -0.33,-0.037 -1.425,1.175 m -2.597,3 -1.378,1.5 1.5,-1.378 c 1.396,-1.284 1.684,-1.622 1.378,-1.622 -0.066,0 -0.741,0.675 -1.5,1.5 m -62.378,1.425 c 0,0.069 0.585,0.654 1.3,1.3 l 1.3,1.175 -1.175,-1.3 c -1.095,-1.212 -1.425,-1.484 -1.425,-1.175 m 59.375,1.175 -1.175,1.3 1.3,-1.175 c 1.212,-1.095 1.484,-1.425 1.175,-1.425 -0.069,0 -0.654,0.585 -1.3,1.3 M 197.1,245.497 c 1.595,0.076 4.205,0.076 5.8,0 1.595,-0.076 0.29,-0.138 -2.9,-0.138 -3.19,0 -4.495,0.062 -2.9,0.138"
       stroke="none"
       fill="#422c32"
       fill-rule="evenodd" />
  </g>
</svg>
