<?xml version="1.0" encoding="UTF-8" standalone="no"?>
<svg
   id="svg"
   version="1.1"
   width="170"
   height="400"
   viewBox="0 0 170 400"
   sodipodi:docname="traffic-light-icon-red-1.svg"
   inkscape:version="1.2.1 (9c6d41e410, 2022-07-14)"
   xmlns:inkscape="http://www.inkscape.org/namespaces/inkscape"
   xmlns:sodipodi="http://sodipodi.sourceforge.net/DTD/sodipodi-0.dtd"
   xmlns="http://www.w3.org/2000/svg"
   xmlns:svg="http://www.w3.org/2000/svg">
  <defs
     id="defs1310" />
  <sodipodi:namedview
     id="namedview1308"
     pagecolor="#ffffff"
     bordercolor="#000000"
     borderopacity="0.25"
     inkscape:showpageshadow="2"
     inkscape:pageopacity="0.0"
     inkscape:pagecheckerboard="0"
     inkscape:deskcolor="#d1d1d1"
     showgrid="false"
     inkscape:zoom="0.59"
     inkscape:cx="200"
     inkscape:cy="200"
     inkscape:window-width="5160"
     inkscape:window-height="2054"
     inkscape:window-x="-11"
     inkscape:window-y="-11"
     inkscape:window-maximized="1"
     inkscape:current-layer="svg" />
  <g
     id="svgg"
     transform="translate(-115.18375,-0.13661111)">
    <path
       id="path0"
       d="m 118.628,0.288 c -1.014,0.261 -1.828,1.1 -1.828,1.883 0,0.346 -0.18,0.629 -0.4,0.629 -0.22,0 -0.4,0.349 -0.4,0.776 0,0.427 -0.18,0.888 -0.4,1.024 -0.555,0.343 -0.555,390.457 0,390.8 0.22,0.136 0.4,0.597 0.4,1.024 0,0.427 0.18,0.776 0.4,0.776 0.22,0 0.4,0.283 0.4,0.629 0,2.106 -5.708,1.971 83.2,1.971 88.908,0 83.2,0.135 83.2,-1.971 0,-0.346 0.18,-0.629 0.4,-0.629 0.22,0 0.4,-0.349 0.4,-0.776 0,-0.427 0.18,-0.888 0.4,-1.024 0.266,-0.164 0.4,-65.73 0.4,-195.4 C 284.8,70.33 284.666,4.764 284.4,4.6 284.18,4.464 284,4.003 284,3.576 284,3.149 283.82,2.8 283.6,2.8 c -0.22,0 -0.4,-0.283 -0.4,-0.629 0,-2.105 5.635,-1.966 -82.571,-2.027 -44.676,-0.03 -81.576,0.034 -82.001,0.144 M 271,200 v 187.4 h -71 -71 l -0.102,-187 c -0.057,-102.85 -0.017,-187.225 0.088,-187.501 0.151,-0.4 14.582,-0.481 71.102,-0.4 L 271,12.6 V 200 M 193.2,20.086 c -1.43,0.206 -3.77,0.649 -5.2,0.983 -1.43,0.335 -3.187,0.701 -3.904,0.814 -0.717,0.113 -1.402,0.366 -1.523,0.561 -0.121,0.196 -0.572,0.356 -1.002,0.356 -0.43,0 -1.094,0.165 -1.476,0.366 -0.382,0.202 -1.415,0.667 -2.295,1.035 -14.604,6.098 -26.508,18.462 -31.774,32.999 -0.279,0.77 -0.648,1.76 -0.821,2.2 -0.172,0.44 -0.504,1.52 -0.738,2.4 -0.233,0.88 -0.543,2.05 -0.688,2.6 -1.054,3.974 -1.572,17.571 -0.838,22 0.868,5.242 2.547,10.478 5.13,16 3.651,7.806 11.204,17.012 17.456,21.276 1.03,0.702 1.933,1.423 2.006,1.601 0.074,0.178 0.374,0.323 0.667,0.323 0.293,0 0.593,0.135 0.667,0.3 0.167,0.376 2.297,1.675 3.233,1.971 0.385,0.122 0.7,0.381 0.7,0.576 0,0.194 0.252,0.353 0.559,0.353 0.308,0 1.523,0.503 2.7,1.117 7.779,4.058 22.196,6.306 31.095,4.85 3.545,-0.58 9.654,-1.927 10.646,-2.347 0.44,-0.187 1.43,-0.56 2.2,-0.829 0.77,-0.269 2.514,-1.007 3.875,-1.64 1.361,-0.633 2.589,-1.151 2.728,-1.151 0.139,0 1.038,-0.54 1.997,-1.2 0.959,-0.66 1.937,-1.2 2.172,-1.2 0.235,0 0.428,-0.18 0.428,-0.4 0,-0.22 0.236,-0.4 0.525,-0.4 0.288,0 0.874,-0.315 1.301,-0.7 0.427,-0.385 1.766,-1.453 2.976,-2.373 1.868,-1.421 4.766,-4.199 8.207,-7.865 0.444,-0.474 1.246,-1.492 1.78,-2.262 0.535,-0.77 1.073,-1.49 1.195,-1.6 1.178,-1.057 5.584,-9.552 7.014,-13.523 10.446,-29.013 -4.544,-62.914 -32.398,-73.272 -0.44,-0.164 -1.25,-0.49 -1.8,-0.725 -0.55,-0.235 -1.72,-0.644 -2.6,-0.909 -0.88,-0.266 -2.05,-0.624 -2.6,-0.797 -0.976,-0.306 -3.511,-0.757 -8.833,-1.571 -3.128,-0.479 -9.141,-0.439 -12.767,0.083 m 12.2,11.512 c 1.76,0.184 3.965,0.53 4.9,0.768 0.935,0.239 2.375,0.588 3.2,0.776 0.825,0.188 2.22,0.66 3.1,1.048 5.161,2.277 6.2,2.782 6.2,3.013 0,0.14 0.78,0.645 1.733,1.121 0.953,0.476 2.078,1.249 2.5,1.718 0.422,0.469 1.063,0.966 1.425,1.105 0.915,0.352 6.247,5.5 7.939,7.665 0.768,0.983 1.533,1.848 1.7,1.921 0.167,0.074 0.303,0.329 0.303,0.569 0,0.239 0.247,0.719 0.548,1.067 0.862,0.993 2.652,4.398 2.652,5.045 0,0.322 0.135,0.587 0.3,0.589 0.401,0.004 1.3,1.978 1.3,2.853 0,0.383 0.18,0.808 0.4,0.944 0.22,0.136 0.4,0.676 0.4,1.2 0,0.524 0.18,1.064 0.4,1.2 0.22,0.136 0.4,0.856 0.4,1.6 0,0.744 0.18,1.464 0.4,1.6 0.22,0.136 0.4,1.576 0.4,3.2 0,1.624 0.18,3.064 0.4,3.2 0.221,0.136 0.4,1.93 0.4,4 0,2.07 -0.179,3.864 -0.4,4 -0.22,0.136 -0.4,1.396 -0.4,2.8 0,1.404 -0.18,2.664 -0.4,2.8 -0.22,0.136 -0.4,0.837 -0.4,1.557 0,0.72 -0.123,1.433 -0.274,1.584 -0.391,0.39 -1.313,3.133 -1.32,3.926 -0.003,0.366 -0.145,0.726 -0.315,0.8 -0.17,0.073 -0.997,1.573 -1.838,3.333 -0.841,1.76 -1.647,3.29 -1.791,3.4 -0.448,0.342 -2.062,2.751 -2.062,3.078 0,0.489 -8.936,9.322 -9.431,9.322 -0.245,0 -0.771,0.36 -1.169,0.8 -0.398,0.44 -0.944,0.8 -1.213,0.8 -0.269,0 -0.726,0.286 -1.016,0.635 -0.732,0.882 -6.555,3.767 -8.971,4.443 -5.426,1.52 -6.366,1.722 -7.996,1.722 -0.966,0 -1.868,0.18 -2.004,0.4 -0.328,0.531 -10.472,0.531 -10.8,0 -0.136,-0.22 -1.038,-0.4 -2.004,-0.4 -1.637,0 -2.84,-0.261 -7.996,-1.733 -2.173,-0.62 -7.862,-3.437 -8.973,-4.443 -0.38,-0.343 -0.873,-0.624 -1.097,-0.624 -0.223,0 -0.732,-0.36 -1.13,-0.8 -0.398,-0.44 -0.924,-0.8 -1.169,-0.8 -1.004,0 -10.631,-10.445 -10.631,-11.535 0,-0.202 -0.26,-0.583 -0.577,-0.846 -1.345,-1.116 -5.823,-11.515 -5.823,-13.522 0,-0.467 -0.18,-0.961 -0.4,-1.097 -0.22,-0.136 -0.4,-1.396 -0.4,-2.8 0,-1.404 -0.18,-2.664 -0.4,-2.8 -0.221,-0.136 -0.4,-1.93 -0.4,-4 0,-2.07 0.179,-3.864 0.4,-4 0.22,-0.136 0.4,-1.576 0.4,-3.2 0,-1.624 0.18,-3.064 0.4,-3.2 0.22,-0.136 0.4,-0.831 0.4,-1.544 0,-0.713 0.152,-1.467 0.337,-1.676 0.186,-0.209 0.646,-1.395 1.023,-2.635 0.378,-1.241 0.94,-2.591 1.25,-3 0.311,-0.41 0.57,-1.06 0.577,-1.445 0.007,-0.385 0.172,-0.7 0.366,-0.7 0.195,0 0.469,-0.315 0.61,-0.7 1.216,-3.319 10.5,-14.5 12.041,-14.5 0.251,0 0.893,-0.465 1.426,-1.034 0.534,-0.569 1.724,-1.379 2.646,-1.799 0.921,-0.421 1.78,-0.933 1.907,-1.139 0.217,-0.352 2.34,-1.425 6.017,-3.041 0.88,-0.386 2.275,-0.857 3.1,-1.045 0.825,-0.188 2.265,-0.541 3.2,-0.785 3.704,-0.965 10.555,-1.297 15.7,-0.759 m -12.8,111.189 c -0.44,0.196 -1.448,0.369 -2.24,0.385 -0.792,0.015 -1.962,0.187 -2.6,0.381 -0.638,0.195 -1.97,0.579 -2.96,0.854 -6.128,1.703 -16.461,6.518 -18,8.389 -0.11,0.133 -0.83,0.677 -1.6,1.208 -3.021,2.083 -9.113,8.175 -11.196,11.196 -0.531,0.77 -1.075,1.49 -1.208,1.6 -1.678,1.38 -6.785,12.019 -8.066,16.8 -0.206,0.77 -0.552,2.03 -0.769,2.8 -5.738,20.395 3.984,47.673 21.239,59.594 0.77,0.532 1.49,1.073 1.6,1.201 2.483,2.902 16.68,8.697 24.2,9.878 2.595,0.408 15.413,0.407 18,-10e-4 2.211,-0.349 7.947,-1.767 9.2,-2.275 0.44,-0.178 2.06,-0.804 3.6,-1.391 13.666,-5.21 26.396,-17.94 31.606,-31.606 0.587,-1.54 1.213,-3.16 1.391,-3.6 3.077,-7.596 3.579,-23.544 1.033,-32.8 -5.667,-20.597 -20.568,-35.501 -41.23,-41.235 -4.948,-1.374 -19.908,-2.31 -22,-1.378 m 15.694,12.054 c 3.913,0.904 5.185,1.284 8.306,2.481 1.76,0.675 3.83,1.582 4.6,2.016 0.77,0.433 1.76,0.989 2.2,1.235 6.041,3.379 12.696,10.036 16.024,16.027 3.19,5.744 4.256,8.57 5.788,15.346 0.605,2.674 0.618,14.878 0.017,16 -0.236,0.441 -0.429,1.255 -0.429,1.809 0,0.554 -0.157,1.421 -0.349,1.926 -0.192,0.506 -0.564,1.639 -0.826,2.519 -2.109,7.066 -7.823,15.681 -13.582,20.478 -5.011,4.175 -10.791,7.439 -15.843,8.947 -0.88,0.262 -2.013,0.634 -2.519,0.826 -0.505,0.192 -1.372,0.349 -1.926,0.349 -0.554,0 -1.368,0.193 -1.809,0.429 -1.122,0.601 -13.326,0.588 -16,-0.017 -6.776,-1.532 -9.602,-2.598 -15.346,-5.788 -5.991,-3.328 -12.648,-9.983 -16.027,-16.024 -0.246,-0.44 -0.802,-1.43 -1.235,-2.2 -0.954,-1.695 -3.089,-7.193 -3.65,-9.4 -1.127,-4.431 -1.288,-5.872 -1.288,-11.506 0,-4.089 0.207,-7.016 0.629,-8.894 0.346,-1.54 0.772,-3.43 0.946,-4.2 0.541,-2.388 3.51,-9.101 4.422,-10 0.112,-0.11 0.428,-0.605 0.703,-1.1 0.275,-0.495 0.725,-1.302 1,-1.794 1.68,-3.002 9.204,-10.526 12.206,-12.206 0.492,-0.275 1.299,-0.725 1.794,-1 0.495,-0.275 0.99,-0.591 1.1,-0.703 0.893,-0.906 7.589,-3.871 10,-4.428 0.77,-0.178 2.48,-0.58 3.8,-0.894 2.958,-0.704 14.583,-0.861 17.294,-0.234 M 196,265.043 c -22.627,1.852 -43.872,17.731 -49.984,37.357 -0.308,0.99 -0.684,1.98 -0.834,2.2 -0.151,0.22 -0.397,0.94 -0.546,1.6 -0.15,0.66 -0.455,1.92 -0.679,2.8 -1.811,7.109 -1.82,19.984 -0.019,27.2 0.706,2.824 0.922,3.583 1.255,4.4 0.179,0.44 0.547,1.43 0.816,2.2 4.54,12.984 15.26,24.802 28.67,31.604 2.157,1.094 4.2,1.991 4.541,1.993 0.341,0.001 0.791,0.152 1,0.333 0.209,0.182 1.19,0.563 2.18,0.847 0.99,0.284 2.25,0.656 2.8,0.827 0.98,0.304 2.968,0.702 7.824,1.565 3.119,0.555 10.833,0.555 13.952,0 4.856,-0.863 6.844,-1.261 7.824,-1.565 0.55,-0.171 1.81,-0.543 2.8,-0.827 0.99,-0.284 1.971,-0.665 2.18,-0.847 0.209,-0.181 0.632,-0.33 0.939,-0.33 0.308,0 2.117,-0.754 4.02,-1.676 32.039,-15.515 42.686,-54.888 22.907,-84.711 -3.341,-5.038 -14.179,-15.613 -16.001,-15.613 -0.208,0 -0.438,-0.135 -0.512,-0.3 -0.167,-0.376 -2.297,-1.675 -3.233,-1.971 -0.385,-0.122 -0.7,-0.381 -0.7,-0.576 0,-0.194 -0.265,-0.353 -0.588,-0.353 -0.323,0 -1.178,-0.332 -1.9,-0.737 -6.315,-3.547 -20.013,-6.133 -28.712,-5.42 m 9.4,11.955 c 11.895,1.49 19.241,5.176 27.6,13.852 4.054,4.208 8.6,10.609 8.6,12.111 0,0.263 0.156,0.65 0.346,0.859 0.481,0.528 2.27,5.452 3.117,8.58 1.59,5.873 0.511,23.78 -1.509,25.028 -0.195,0.121 -0.354,0.53 -0.354,0.91 0,3.862 -11.877,19.88 -15.622,21.069 -0.428,0.136 -0.778,0.403 -0.778,0.593 0,0.19 -0.359,0.46 -0.798,0.599 -0.438,0.139 -1.038,0.495 -1.333,0.789 -0.76,0.76 -6.854,3.778 -9.469,4.69 -13.099,4.565 -28.703,2.737 -39.86,-4.67 -0.847,-0.563 -1.883,-1.244 -2.303,-1.515 -16.844,-10.875 -24.241,-38.475 -15.003,-55.988 0.201,-0.382 0.366,-0.889 0.366,-1.128 0,-0.238 0.54,-1.218 1.2,-2.177 0.66,-0.959 1.2,-1.868 1.2,-2.019 0,-0.694 4.658,-6.297 7.666,-9.223 3.945,-3.836 7.203,-6.145 11.534,-8.175 4.096,-1.92 5.259,-2.383 5.987,-2.383 0.421,0 0.865,-0.16 0.986,-0.356 0.801,-1.296 12.374,-2.204 18.427,-1.446"
       stroke="none"
       fill="#241c24"
       fill-rule="evenodd" />
    <path
       id="path1"
       d="m 195.6,32.441 c -8.935,1.408 -13.241,2.863 -19.402,6.558 C 171.176,42.012 162,51.037 162,52.965 c 0,0.16 -0.507,1.043 -1.128,1.963 -1.327,1.968 -2.872,5.219 -2.872,6.044 0,0.319 -0.18,0.692 -0.4,0.828 -0.22,0.136 -0.4,0.676 -0.4,1.2 0,0.524 -0.16,1.052 -0.356,1.173 -0.361,0.223 -0.429,0.523 -1.312,5.827 -0.564,3.39 -0.676,11.19 -0.204,14.2 0.504,3.217 1.831,8.193 2.342,8.78 0.181,0.209 0.33,0.625 0.33,0.925 0,2.402 5.425,10.722 9.995,15.327 21.866,22.037 58.173,16.233 72.485,-11.587 0.836,-1.626 1.52,-3.173 1.52,-3.439 0,-0.266 0.271,-1.026 0.602,-1.689 2.547,-5.107 3.238,-17.915 1.371,-25.417 -0.81,-3.256 -1.327,-4.917 -1.643,-5.28 C 242.149,61.611 242,61.115 242,60.718 242,58.628 236.291,49.792 232.276,45.667 223.16,36.302 207.332,30.594 195.6,32.441"
       stroke="none"
       fill="#fb244b"
       fill-rule="evenodd" />
    <path
       id="path2"
       d="m 129.7,13.465 c -0.854,0.344 -0.721,372.764 0.133,373.092 0.827,0.318 139.507,0.318 140.334,0 0.972,-0.373 0.972,-372.741 0,-373.114 C 269.41,13.152 130.42,13.174 129.7,13.465 m 78.876,6.177 c 6.156,1.121 11.194,2.621 14.762,4.394 0.846,0.42 1.791,0.764 2.1,0.764 0.309,0 0.562,0.18 0.562,0.4 0,0.22 0.36,0.4 0.8,0.4 0.44,0 0.8,0.159 0.8,0.353 0,0.195 0.315,0.457 0.7,0.583 3.994,1.307 14.415,10.22 18.086,15.469 0.536,0.767 1.096,1.485 1.243,1.595 1.012,0.757 5.56,9.365 6.762,12.8 0.269,0.77 0.635,1.76 0.813,2.2 3.324,8.223 4.002,22.5 1.538,32.4 -3.126,12.562 -10.926,24.98 -19.942,31.745 -0.77,0.578 -1.49,1.155 -1.6,1.283 -0.449,0.521 -5.184,3.572 -5.545,3.572 -0.213,0 -0.448,0.144 -0.522,0.319 -0.16,0.383 -6.05,3.224 -9.133,4.405 -15.122,5.794 -36.859,3.846 -49.072,-4.396 -0.92,-0.62 -1.792,-1.128 -1.938,-1.128 -1.074,0 -8.762,-6.462 -12.194,-10.25 -4.605,-5.082 -9.696,-13.349 -11.179,-18.15 -0.306,-0.99 -0.705,-1.971 -0.887,-2.18 -0.181,-0.209 -0.33,-0.783 -0.33,-1.276 0,-0.493 -0.18,-1.008 -0.4,-1.144 -0.22,-0.136 -0.4,-0.831 -0.4,-1.544 0,-0.713 -0.162,-1.467 -0.359,-1.676 -1.674,-1.772 -1.674,-24.588 0,-26.36 0.197,-0.209 0.359,-0.963 0.359,-1.676 0,-0.713 0.18,-1.408 0.4,-1.544 0.22,-0.136 0.4,-0.599 0.4,-1.029 0,-0.43 0.18,-1.139 0.4,-1.576 0.22,-0.437 0.58,-1.153 0.8,-1.59 0.22,-0.437 0.4,-1.042 0.4,-1.344 0,-0.519 1.967,-4.507 3.974,-8.061 0.853,-1.509 4.891,-7.096 5.805,-8.031 0.232,-0.237 0.965,-1.047 1.63,-1.8 1.928,-2.182 9.736,-8.769 10.395,-8.769 0.139,0 1.004,-0.511 1.924,-1.135 0.92,-0.624 2.257,-1.388 2.972,-1.697 0.715,-0.31 1.3,-0.699 1.3,-0.866 0,-0.166 0.253,-0.302 0.562,-0.302 0.309,0 1.254,-0.344 2.1,-0.764 3.549,-1.764 9.108,-3.429 14.538,-4.356 3.141,-0.535 14.508,-0.561 17.376,-0.038 m 0.698,122.812 c 0.37,0.19 1.167,0.346 1.771,0.346 0.604,0 1.651,0.168 2.327,0.373 0.675,0.205 2.038,0.586 3.028,0.845 0.99,0.26 2.205,0.633 2.7,0.828 0.495,0.195 1.305,0.505 1.8,0.69 14.904,5.572 27.815,18.485 33.557,33.564 0.189,0.495 0.498,1.305 0.688,1.8 0.746,1.949 1.255,3.794 1.255,4.548 0,0.436 0.162,0.963 0.359,1.172 1.713,1.813 1.713,24.947 0,26.76 -0.197,0.209 -0.359,0.876 -0.359,1.481 0,0.606 -0.202,1.605 -0.45,2.22 -0.498,1.24 -0.975,2.458 -1.493,3.819 -5.768,15.146 -18.813,28.209 -33.457,33.504 -0.44,0.159 -1.25,0.471 -1.8,0.693 -0.55,0.222 -1.503,0.606 -2.119,0.853 -0.615,0.248 -1.614,0.45 -2.22,0.45 -0.605,0 -1.272,0.162 -1.481,0.359 -0.991,0.936 -12.375,1.712 -18.08,1.233 -6.282,-0.528 -8.226,-0.804 -8.68,-1.233 -0.209,-0.197 -0.736,-0.359 -1.172,-0.359 -0.788,0 -2.743,-0.551 -4.648,-1.309 -0.55,-0.219 -1.36,-0.522 -1.8,-0.672 -13.929,-4.779 -27.749,-18.625 -33.455,-33.519 -0.19,-0.495 -0.504,-1.305 -0.699,-1.8 -0.338,-0.857 -0.894,-2.831 -1.663,-5.9 -1.899,-7.584 -1.739,-19.498 0.374,-27.8 0.224,-0.88 0.527,-2.098 0.673,-2.706 0.146,-0.608 0.424,-1.204 0.618,-1.324 0.193,-0.119 0.352,-0.569 0.352,-0.999 0,-0.43 0.157,-1.094 0.349,-1.476 0.192,-0.382 1.265,-2.597 2.385,-4.922 5.335,-11.081 14.958,-20.704 26.039,-26.039 2.325,-1.12 4.54,-2.193 4.922,-2.385 0.382,-0.192 1.046,-0.349 1.476,-0.349 0.43,0 0.88,-0.159 0.999,-0.352 0.12,-0.194 0.716,-0.472 1.324,-0.618 0.608,-0.146 1.826,-0.449 2.706,-0.673 3.278,-0.834 5.697,-1.236 9.2,-1.527 4.217,-0.35 13.7,-0.076 14.674,0.424 M 193.2,155.2 c -0.824,0.264 -0.859,0.326 -0.2,0.354 0.44,0.019 1.07,-0.141 1.4,-0.354 0.701,-0.453 0.214,-0.453 -1.2,0 m 12.4,-0.018 c 0.33,0.223 0.945,0.409 1.367,0.412 1.023,0.008 0.704,-0.221 -0.767,-0.55 -0.876,-0.196 -1.038,-0.159 -0.6,0.138 m -31.105,7.429 c -1.152,0.775 -2.095,1.497 -2.095,1.604 0,0.106 0.99,-0.464 2.2,-1.268 1.922,-1.276 2.487,-1.747 2.095,-1.747 -0.058,0 -1.048,0.635 -2.2,1.411 m 50.338,-0.081 c 0.092,0.071 0.797,0.537 1.567,1.036 l 1.4,0.907 -1.122,-1.036 c -0.618,-0.57 -1.323,-1.037 -1.567,-1.037 -0.244,0 -0.369,0.058 -0.278,0.13 m -56.809,5.494 c -1.773,1.774 -3.224,3.386 -3.224,3.583 0,0.197 0.833,-0.532 1.851,-1.621 1.019,-1.088 2.635,-2.7 3.591,-3.582 0.957,-0.882 1.575,-1.604 1.373,-1.604 -0.201,0 -1.817,1.451 -3.591,3.224 m 62.041,-1.556 c 1.026,0.953 2.619,2.542 3.54,3.532 l 1.674,1.8 -1.629,-2.044 c -0.897,-1.124 -2.49,-2.713 -3.54,-3.532 l -1.91,-1.488 1.865,1.732 m -67.178,7.632 c -1.46,2.156 -1.775,2.7 -1.567,2.7 0.092,0 0.824,-0.99 1.627,-2.2 0.804,-1.21 1.378,-2.2 1.276,-2.2 -0.101,0 -0.703,0.765 -1.336,1.7 m 73.512,-0.6 c 0.523,0.715 1.014,1.3 1.09,1.3 0.304,0 -0.688,-1.5 -1.344,-2.033 -0.432,-0.351 -0.335,-0.071 0.254,0.733 m -81.153,19.367 c -0.025,0.367 -0.15,0.997 -0.276,1.4 -0.218,0.695 -0.207,0.696 0.227,0.02 0.251,-0.391 0.376,-1.021 0.276,-1.4 -0.162,-0.619 -0.185,-0.621 -0.227,-0.02 m -0.202,13.333 c 0.329,1.471 0.558,1.79 0.55,0.767 -0.003,-0.422 -0.189,-1.037 -0.412,-1.367 -0.297,-0.438 -0.334,-0.276 -0.138,0.6 m 89.605,-0.385 c -0.137,0.358 -0.234,0.951 -0.215,1.318 0.019,0.367 0.193,0.136 0.387,-0.513 0.377,-1.262 0.244,-1.887 -0.172,-0.805 m -6.035,17.22 c -0.373,0.569 -0.587,1.126 -0.475,1.237 0.111,0.111 0.49,-0.354 0.842,-1.035 0.778,-1.504 0.563,-1.622 -0.367,-0.202 m -76.214,2.076 c 0,0.244 0.467,0.949 1.037,1.567 l 1.036,1.122 -0.907,-1.4 c -1.181,-1.823 -1.166,-1.806 -1.166,-1.289 m 73.999,1.389 c -0.589,0.804 -0.686,1.084 -0.254,0.733 0.656,-0.533 1.648,-2.033 1.344,-2.033 -0.076,0 -0.567,0.585 -1.09,1.3 m -4.792,5.424 c -2.508,2.563 -3.06,3.257 -1.628,2.048 1.851,-1.562 6.026,-6.019 5.573,-5.948 -0.084,0.013 -1.859,1.768 -3.945,3.9 m -65.383,-1.814 c 0.819,1.05 2.408,2.643 3.532,3.54 l 2.044,1.629 -1.8,-1.674 c -0.99,-0.921 -2.579,-2.514 -3.532,-3.54 l -1.732,-1.865 1.488,1.91 m 6.543,6.035 c 0.533,0.656 2.033,1.648 2.033,1.344 0,-0.076 -0.585,-0.567 -1.3,-1.09 -0.804,-0.589 -1.084,-0.686 -0.733,-0.254 m 53.433,0.505 c -0.719,0.612 -0.866,0.855 -0.367,0.607 0.733,-0.364 2.108,-1.681 1.716,-1.643 -0.082,0.008 -0.689,0.474 -1.349,1.036 m -3.4,2.183 -1,0.815 1.3,-0.634 c 0.715,-0.349 1.3,-0.72 1.3,-0.824 0,-0.398 -0.637,-0.142 -1.6,0.643 m -17.2,5.985 c -0.438,0.297 -0.276,0.334 0.6,0.138 1.471,-0.329 1.79,-0.558 0.767,-0.55 -0.422,0.003 -1.037,0.189 -1.367,0.412 m 0.6,19.824 c 4.129,0.379 10.838,1.921 14.4,3.309 4.198,1.635 11.73,5.651 13.074,6.97 0.289,0.285 1.336,1.082 2.326,1.773 17.377,12.121 26.165,38.219 20.443,60.706 -0.224,0.88 -0.527,2.098 -0.673,2.706 -0.146,0.608 -0.424,1.204 -0.618,1.324 -0.193,0.119 -0.352,0.569 -0.352,0.999 0,0.43 -0.163,1.094 -0.362,1.476 -0.198,0.382 -0.983,2.045 -1.742,3.695 -1.308,2.842 -4.49,8.369 -5.067,8.8 -0.147,0.11 -0.707,0.828 -1.243,1.595 -3.167,4.528 -11.631,12.146 -16.314,14.684 -0.81,0.439 -2.152,1.186 -2.984,1.659 -0.832,0.474 -1.777,0.862 -2.1,0.862 -0.323,0 -0.588,0.18 -0.588,0.4 0,0.22 -0.272,0.4 -0.605,0.4 -0.333,0 -0.918,0.159 -1.3,0.353 -0.658,0.335 -1.767,0.803 -3.795,1.601 -1.543,0.608 -6.384,1.807 -9.724,2.409 -3.106,0.56 -14.665,0.567 -17.445,0.011 -1.172,-0.234 -3.121,-0.613 -4.331,-0.842 -1.21,-0.229 -2.56,-0.552 -3,-0.718 -0.44,-0.167 -1.52,-0.52 -2.4,-0.785 -2.992,-0.901 -9.577,-4.009 -12.072,-5.697 -0.92,-0.623 -1.773,-1.132 -1.896,-1.132 -0.644,0 -5.682,-4.187 -8.866,-7.369 -6.233,-6.228 -11.33,-13.993 -13.412,-20.431 -0.284,-0.88 -0.661,-1.771 -0.836,-1.98 -0.175,-0.209 -0.318,-0.783 -0.318,-1.276 0,-0.493 -0.18,-1.008 -0.4,-1.144 -0.22,-0.136 -0.4,-0.831 -0.4,-1.544 0,-0.713 -0.162,-1.467 -0.359,-1.676 -1.687,-1.786 -1.687,-24.574 0,-26.36 0.197,-0.209 0.359,-0.963 0.359,-1.676 0,-0.713 0.18,-1.408 0.4,-1.544 0.22,-0.136 0.4,-0.651 0.4,-1.144 0,-0.493 0.143,-1.067 0.318,-1.276 0.175,-0.209 0.554,-1.1 0.841,-1.98 2.349,-7.195 14.888,-24.6 17.722,-24.6 0.291,0 0.719,-0.321 2.853,-2.138 2.636,-2.244 10.219,-6.074 15.066,-7.609 6.393,-2.023 8.613,-2.497 14.2,-3.029 3.523,-0.335 5.125,-0.303 10.8,0.218 m -11,12.968 c -29.304,2.914 -48.086,33.469 -37.489,60.99 12.927,33.574 57.279,39.702 78.744,10.88 2.104,-2.826 6.345,-10.741 6.345,-11.843 0,-0.246 0.164,-0.76 0.364,-1.142 2.635,-5.033 2.664,-21.084 0.05,-27.895 -7.094,-18.483 -20.609,-29.231 -39.014,-31.027 -4.015,-0.392 -4.715,-0.389 -9,0.037"
       stroke="none"
       fill="#434541"
       fill-rule="evenodd" />
    <path
       id="path3"
       d="m 194.673,155.06 c -0.165,0.165 -1.239,0.432 -2.387,0.593 -2.652,0.371 -4.274,0.72 -5.286,1.137 -0.44,0.181 -1.43,0.556 -2.2,0.833 -12.004,4.322 -22.855,15.173 -27.177,27.177 -0.277,0.77 -0.652,1.76 -0.833,2.2 -0.348,0.844 -0.578,1.821 -1.271,5.4 -0.786,4.052 -0.414,16.805 0.518,17.78 0.2,0.209 0.363,0.974 0.363,1.7 0,0.726 0.141,1.32 0.313,1.32 0.172,0 0.563,0.855 0.869,1.9 0.305,1.045 0.885,2.49 1.287,3.212 0.402,0.722 0.731,1.577 0.731,1.9 0,0.323 0.159,0.588 0.353,0.588 0.195,0 0.454,0.315 0.576,0.7 0.233,0.737 1.511,2.959 1.897,3.3 0.125,0.11 0.786,1.022 1.469,2.027 2.989,4.394 11.179,11.477 14.605,12.631 0.385,0.129 0.7,0.394 0.7,0.589 0,0.194 0.253,0.353 0.562,0.353 0.309,0 1.344,0.386 2.3,0.857 0.956,0.471 2.188,1.032 2.738,1.246 0.55,0.215 1.313,0.549 1.695,0.744 0.382,0.194 1.226,0.353 1.876,0.353 0.65,0 1.293,0.18 1.429,0.4 0.136,0.22 1.126,0.4 2.2,0.4 1.074,0 2.064,0.18 2.2,0.4 0.136,0.22 0.687,0.4 1.224,0.4 0.537,0 0.976,-0.18 0.976,-0.4 0,-0.22 0.27,-0.4 0.6,-0.4 0.33,0 0.6,0.18 0.6,0.4 0,0.222 1.067,0.4 2.4,0.4 1.333,0 2.4,-0.178 2.4,-0.4 0,-0.578 1.102,-0.493 1.301,0.1 0.135,0.4 0.447,0.4 1.562,0 0.767,-0.275 2.135,-0.5 3.042,-0.5 0.906,0 1.759,-0.18 1.895,-0.4 0.136,-0.22 0.779,-0.4 1.429,-0.4 0.65,0 1.494,-0.159 1.876,-0.353 0.687,-0.35 2.046,-0.92 3.795,-1.593 1.954,-0.753 3.372,-1.478 4.972,-2.542 0.92,-0.611 1.788,-1.112 1.93,-1.112 1.648,0 13.798,-12.15 13.798,-13.798 0,-0.142 0.501,-1.01 1.112,-1.93 1.221,-1.835 1.825,-3.096 3.388,-7.072 0.216,-0.55 0.552,-1.313 0.747,-1.695 0.194,-0.382 0.353,-1.226 0.353,-1.876 0,-0.65 0.18,-1.293 0.4,-1.429 0.22,-0.136 0.4,-0.989 0.4,-1.895 0,-0.907 0.225,-2.275 0.5,-3.042 0.4,-1.115 0.4,-1.427 0,-1.562 -0.593,-0.199 -0.678,-1.301 -0.1,-1.301 0.222,0 0.4,-1.067 0.4,-2.4 0,-1.333 -0.178,-2.4 -0.4,-2.4 -0.22,0 -0.4,-0.27 -0.4,-0.6 0,-0.33 0.18,-0.6 0.4,-0.6 0.22,0 0.4,-0.439 0.4,-0.976 0,-0.537 -0.18,-1.088 -0.4,-1.224 -0.22,-0.136 -0.4,-1.126 -0.4,-2.2 0,-1.074 -0.18,-2.064 -0.4,-2.2 -0.22,-0.136 -0.4,-0.779 -0.4,-1.429 0,-0.65 -0.159,-1.494 -0.353,-1.876 -0.195,-0.382 -0.529,-1.145 -0.744,-1.695 -0.214,-0.55 -0.775,-1.782 -1.246,-2.738 -0.471,-0.956 -0.857,-1.991 -0.857,-2.3 0,-0.309 -0.159,-0.562 -0.353,-0.562 -0.195,0 -0.46,-0.315 -0.589,-0.7 -1.154,-3.426 -8.237,-11.616 -12.631,-14.605 -1.005,-0.683 -1.917,-1.344 -2.027,-1.469 -0.341,-0.386 -2.563,-1.664 -3.3,-1.897 -0.385,-0.122 -0.7,-0.381 -0.7,-0.576 0,-0.194 -0.265,-0.353 -0.588,-0.353 -0.323,0 -1.178,-0.329 -1.9,-0.731 -0.722,-0.402 -2.167,-0.982 -3.212,-1.287 -1.045,-0.306 -1.9,-0.697 -1.9,-0.869 0,-0.172 -0.594,-0.313 -1.32,-0.313 -0.726,0 -1.491,-0.163 -1.7,-0.363 -0.766,-0.732 -14.863,-1.62 -15.507,-0.977"
       stroke="none"
       fill="#544b3b"
       fill-rule="evenodd" />
    <path
       id="path4"
       d="m 195.001,32.029 c -3.222,0.373 -8.339,1.449 -9.801,2.061 -0.55,0.231 -1.851,0.738 -2.891,1.127 -2.239,0.838 -7.623,3.964 -9.271,5.382 -0.639,0.551 -1.293,1.001 -1.453,1.001 -0.442,0 -7.585,7.265 -7.585,7.714 0,0.216 -0.317,0.683 -0.705,1.039 -2.363,2.167 -7.695,13.487 -7.695,16.338 0,0.412 -0.166,0.92 -0.369,1.129 -1.315,1.355 -1.127,14.535 0.292,20.38 0.99,4.082 4.628,12.682 5.668,13.4 0.159,0.11 0.521,0.639 0.803,1.175 1.488,2.821 8.102,9.575 12.024,12.277 15.604,10.751 35.863,10.787 51.843,0.091 2.722,-1.821 10.939,-9.644 10.939,-10.413 0,-0.2 0.36,-0.75 0.8,-1.222 0.44,-0.472 0.8,-1.095 0.8,-1.383 0,-0.289 0.149,-0.525 0.331,-0.525 0.47,0 3.859,-6.973 4.667,-9.6 1.303,-4.242 1.492,-5.022 1.883,-7.8 4.207,-29.852 -20.612,-55.605 -50.28,-52.171 m 9.122,0.389 c 14.802,2.148 24.575,7.686 32.427,18.375 2.436,3.315 5.45,8.805 5.45,9.925 0,0.397 0.149,0.893 0.33,1.102 0.316,0.363 0.833,2.024 1.643,5.28 1.867,7.502 1.176,20.31 -1.371,25.417 -0.331,0.663 -0.602,1.423 -0.602,1.689 0,0.266 -0.684,1.813 -1.52,3.439 -14.312,27.82 -50.619,33.624 -72.485,11.587 C 163.425,104.627 158,96.307 158,93.905 c 0,-0.3 -0.149,-0.716 -0.33,-0.925 -0.511,-0.587 -1.838,-5.563 -2.342,-8.78 -0.472,-3.01 -0.36,-10.81 0.204,-14.2 0.883,-5.304 0.951,-5.604 1.312,-5.827 0.196,-0.121 0.356,-0.649 0.356,-1.173 0,-0.524 0.18,-1.064 0.4,-1.2 0.22,-0.136 0.4,-0.509 0.4,-0.828 0,-0.825 1.545,-4.076 2.872,-6.044 0.621,-0.92 1.128,-1.803 1.128,-1.963 0,-1.122 7.437,-9.252 10.598,-11.585 5.416,-3.998 12.368,-7.082 18.402,-8.162 7.294,-1.307 8.942,-1.407 13.123,-0.8"
       stroke="none"
       fill="#ab243c"
       fill-rule="evenodd" />
    <path
       id="path5"
       d="m 244.4,197 c 0,0.33 0.18,0.6 0.4,0.6 0.22,0 0.4,-0.27 0.4,-0.6 0,-0.33 -0.18,-0.6 -0.4,-0.6 -0.22,0 -0.4,0.27 -0.4,0.6 m 0,6 c 0,0.33 0.18,0.6 0.4,0.6 0.22,0 0.4,-0.27 0.4,-0.6 0,-0.33 -0.18,-0.6 -0.4,-0.6 -0.22,0 -0.4,0.27 -0.4,0.6 m -48,41.8 c 0,0.22 0.27,0.4 0.6,0.4 0.33,0 0.6,-0.18 0.6,-0.4 0,-0.22 -0.27,-0.4 -0.6,-0.4 -0.33,0 -0.6,0.18 -0.6,0.4 m 6,0 c 0,0.22 0.27,0.4 0.6,0.4 0.33,0 0.6,-0.18 0.6,-0.4 0,-0.22 -0.27,-0.4 -0.6,-0.4 -0.33,0 -0.6,0.18 -0.6,0.4"
       stroke="none"
       fill="#5c4c36"
       fill-rule="evenodd" />
    <path
       id="path6"
       d="m 128.986,12.899 c -0.105,0.276 -0.145,84.651 -0.088,187.501 l 0.102,187 h 70.967 c 62.726,0 70.989,-0.07 71.165,-0.6 0.163,-0.493 0.09,-0.511 -0.409,-0.099 -0.483,0.398 -15.066,0.48 -70.965,0.4 L 129.4,387 V 200 13 l 70.358,-0.101 c 55.899,-0.08 70.482,0.002 70.965,0.4 0.499,0.412 0.572,0.394 0.409,-0.099 -0.273,-0.826 -141.834,-1.125 -142.146,-0.301 M 192,20 c -1.404,0.45 0.063,0.465 2.2,0.023 l 1.6,-0.331 -1.4,-0.006 C 193.63,19.683 192.55,19.824 192,20 m 13.8,0.023 c 2.137,0.442 3.604,0.427 2.2,-0.023 -0.55,-0.176 -1.63,-0.317 -2.4,-0.314 l -1.4,0.006 1.6,0.331 M 187.4,20.8 c -1.019,0.438 0.032,0.438 1.4,0 0.804,-0.257 0.843,-0.323 0.2,-0.332 -0.44,-0.006 -1.16,0.143 -1.6,0.332 m 23.8,0 c 1.368,0.438 2.419,0.438 1.4,0 -0.44,-0.189 -1.16,-0.338 -1.6,-0.332 -0.643,0.009 -0.604,0.075 0.2,0.332 m -27,0.8 -0.8,0.344 0.8,0.022 c 0.44,0.012 1.07,-0.153 1.4,-0.366 0.795,-0.514 -0.204,-0.514 -1.4,0 m -12.3,5.029 c -1.495,0.811 -1.404,1.149 0.1,0.371 0.66,-0.341 1.2,-0.706 1.2,-0.81 0,-0.258 -0.043,-0.243 -1.3,0.439 m 56.5,0.306 c 0,0.1 0.945,0.775 2.1,1.499 1.155,0.725 3.225,2.187 4.6,3.249 2.353,1.817 3.557,2.335 1.6,0.688 -1.674,-1.409 -8.3,-5.749 -8.3,-5.436 m -60.804,2.428 c -1.428,0.969 -3.226,2.33 -3.996,3.024 -0.77,0.694 -0.228,0.392 1.204,-0.671 1.432,-1.062 3.277,-2.348 4.1,-2.856 1.28,-0.791 1.797,-1.26 1.392,-1.26 -0.058,0 -1.273,0.793 -2.7,1.763 M 238,33.644 c 0,0.305 5.303,5.587 5.455,5.434 0.067,-0.067 -1.133,-1.367 -2.666,-2.889 C 239.255,34.667 238,33.522 238,33.644 m -79.19,2.946 c -1.19,1.205 -2.084,2.246 -1.987,2.315 0.098,0.068 1.151,-0.917 2.34,-2.19 2.743,-2.934 2.504,-3.018 -0.353,-0.125 m -4.066,4.51 c -1.269,1.532 -1.725,2.242 -1.263,1.965 0.512,-0.307 2.288,-2.665 2.008,-2.665 -0.091,0 -0.426,0.315 -0.745,0.7 m 92.662,3.412 c 0.386,0.612 0.803,1.012 0.926,0.889 0.123,-0.123 -0.193,-0.623 -0.702,-1.112 l -0.926,-0.889 0.702,1.112 m -97.153,3.079 c -0.579,0.876 -1.053,1.726 -1.053,1.889 0,0.164 0.242,-0.057 0.539,-0.491 1.302,-1.908 1.939,-2.989 1.76,-2.989 -0.106,0 -0.667,0.716 -1.246,1.591 m 101.225,3.804 c 0.366,0.767 0.736,1.324 0.823,1.237 C 252.484,52.449 251.27,50 250.996,50 c -0.101,0 0.116,0.628 0.482,1.395 M 147.067,53.7 c -0.526,1.155 -1.073,2.55 -1.214,3.1 l -0.257,1 0.478,-1 c 0.262,-0.55 0.833,-1.81 1.268,-2.8 0.435,-0.99 0.861,-1.935 0.948,-2.1 0.086,-0.165 0.062,-0.3 -0.055,-0.3 -0.116,0 -0.642,0.945 -1.168,2.1 m -2.621,6.767 c -0.025,0.367 -0.15,0.997 -0.276,1.4 -0.218,0.695 -0.207,0.696 0.227,0.02 0.251,-0.391 0.376,-1.021 0.276,-1.4 -0.162,-0.619 -0.185,-0.621 -0.227,-0.02 m -0.792,3 c -0.029,0.477 -0.158,1.197 -0.284,1.6 -0.218,0.694 -0.206,0.695 0.226,0.021 0.251,-0.391 0.379,-1.111 0.285,-1.6 -0.172,-0.887 -0.172,-0.887 -0.227,-0.021 m 113.174,3.966 c 0.016,0.862 0.181,1.927 0.368,2.367 0.212,0.498 0.255,-0.031 0.116,-1.4 -0.268,-2.635 -0.523,-3.143 -0.484,-0.967 M 142.859,67.6 c -0.039,0.55 -0.17,1.45 -0.292,2 -0.191,0.862 -0.159,0.902 0.23,0.291 0.249,-0.389 0.38,-1.289 0.292,-2 -0.125,-1.004 -0.176,-1.069 -0.23,-0.291 m 114.903,9.8 c 0,3.52 0.062,4.906 0.136,3.081 0.074,-1.825 0.074,-4.705 -0.001,-6.4 -0.075,-1.695 -0.136,-0.201 -0.135,3.319 m -115.607,0 c 0.001,2.86 0.065,3.978 0.142,2.483 0.077,-1.494 0.077,-3.834 -0.001,-5.2 -0.078,-1.365 -0.141,-0.143 -0.141,2.717 m 0.527,8.8 c 0.127,1.1 0.295,2.075 0.374,2.167 0.299,0.347 0.072,-2.603 -0.259,-3.367 -0.223,-0.515 -0.264,-0.087 -0.115,1.2 m 114.374,-0.916 c -0.135,0.504 -0.225,1.546 -0.201,2.316 0.034,1.069 0.12,0.88 0.363,-0.798 0.335,-2.31 0.254,-3.069 -0.162,-1.518 M 143.458,90.4 c 0.317,1.725 0.544,2.051 0.536,0.767 -0.003,-0.532 -0.183,-1.237 -0.4,-1.567 -0.276,-0.422 -0.317,-0.185 -0.136,0.8 m 0.786,3 c 0.329,1.471 0.558,1.79 0.55,0.767 -0.003,-0.422 -0.189,-1.037 -0.412,-1.367 -0.297,-0.438 -0.334,-0.276 -0.138,0.6 m 110.684,1.673 c -0.93,3.004 -0.939,3.104 -0.124,1.353 0.454,-0.976 0.774,-2.023 0.711,-2.327 -0.063,-0.303 -0.328,0.135 -0.587,0.974 m -2.656,6.746 c -0.94,1.97 -0.808,2.305 0.175,0.443 0.446,-0.846 0.74,-1.608 0.654,-1.695 -0.087,-0.086 -0.46,0.477 -0.829,1.252 M 147.6,102.147 c 0,0.433 1.988,4.253 2.213,4.253 0.11,0 -0.274,-0.945 -0.854,-2.1 -1.116,-2.221 -1.359,-2.606 -1.359,-2.153 m 103,3.053 c -0.341,0.66 -0.531,1.2 -0.421,1.2 0.11,0 0.48,-0.54 0.821,-1.2 0.341,-0.66 0.531,-1.2 0.421,-1.2 -0.11,0 -0.48,0.54 -0.821,1.2 m -1.492,2.5 c -0.875,1.349 -1.66,2.956 -1.221,2.5 0.561,-0.583 2.211,-3.4 1.992,-3.4 -0.103,0 -0.45,0.405 -0.771,0.9 m -95.178,5 c 0.431,0.605 1.199,1.46 1.707,1.9 0.508,0.44 0.235,-0.055 -0.605,-1.1 -1.658,-2.061 -2.369,-2.578 -1.102,-0.8 m 88.495,3.869 -1.375,1.631 1.555,-1.487 c 0.855,-0.817 1.474,-1.551 1.375,-1.63 -0.099,-0.08 -0.799,0.589 -1.555,1.486 m -83.025,2.136 c 1.76,1.703 3.65,3.453 4.2,3.888 0.55,0.436 -0.8,-0.956 -3,-3.093 -2.2,-2.138 -4.09,-3.887 -4.2,-3.889 -0.11,-0.001 1.24,1.391 3,3.094 m 79.975,0.93 c -0.646,0.679 -2.228,2.029 -3.515,3 -1.286,0.971 -2.203,1.765 -2.037,1.765 0.166,0 0.948,-0.493 1.739,-1.096 2.159,-1.645 5.693,-4.904 5.317,-4.904 -0.181,0 -0.858,0.556 -1.504,1.235 m -74.575,3.714 c 0,0.086 0.63,0.637 1.4,1.224 0.77,0.587 1.398,0.924 1.395,0.747 -0.003,-0.176 -0.633,-0.727 -1.4,-1.224 -0.767,-0.497 -1.395,-0.833 -1.395,-0.747 m 64.4,3.884 -1,0.815 1.3,-0.634 c 0.715,-0.349 1.3,-0.72 1.3,-0.824 0,-0.398 -0.637,-0.142 -1.6,0.643 m -45.2,5.949 c 0.33,0.223 0.945,0.409 1.367,0.412 1.023,0.008 0.704,-0.221 -0.767,-0.55 -0.876,-0.196 -1.038,-0.159 -0.6,0.138 m 31,0.018 c -0.504,0.217 -0.578,0.344 -0.2,0.344 0.33,0 0.96,-0.155 1.4,-0.344 0.504,-0.217 0.578,-0.344 0.2,-0.344 -0.33,0 -0.96,0.155 -1.4,0.344 m -28,0.8 c 0.44,0.189 1.16,0.338 1.6,0.332 0.643,-0.009 0.604,-0.075 -0.2,-0.332 -1.368,-0.438 -2.419,-0.438 -1.4,0 m 24.6,0 c -0.804,0.257 -0.843,0.323 -0.2,0.332 0.44,0.006 1.16,-0.143 1.6,-0.332 1.019,-0.438 -0.032,-0.438 -1.4,0 m -20.2,0.8 c 0.66,0.168 1.65,0.305 2.2,0.305 0.892,0 0.87,-0.033 -0.2,-0.305 -0.66,-0.168 -1.65,-0.305 -2.2,-0.305 -0.892,0 -0.87,0.033 0.2,0.305 m 15.2,0 -1.2,0.305 1.2,0.008 c 0.66,0.004 1.65,-0.137 2.2,-0.313 l 1,-0.32 -1,0.007 c -0.55,0.004 -1.54,0.145 -2.2,0.313 m -7.3,0.676 c 0.385,0.1 1.015,0.1 1.4,0 0.385,-0.101 0.07,-0.183 -0.7,-0.183 -0.77,0 -1.085,0.082 -0.7,0.183 m -2,6.821 c 1.485,0.077 3.915,0.077 5.4,0 1.485,-0.077 0.27,-0.14 -2.7,-0.14 -2.97,0 -4.185,0.063 -2.7,0.14 m -6.7,0.503 -1.6,0.286 1.4,0.029 c 0.77,0.016 1.76,-0.126 2.2,-0.315 0.943,-0.405 0.262,-0.405 -2,0 m 16.8,-0.02 c 0.761,0.346 3.717,0.584 3.367,0.271 -0.092,-0.082 -1.067,-0.258 -2.167,-0.392 -1.346,-0.164 -1.739,-0.124 -1.2,0.121 m 5,0.802 c 0.33,0.223 0.945,0.409 1.367,0.412 1.023,0.008 0.704,-0.221 -0.767,-0.55 -0.876,-0.196 -1.038,-0.159 -0.6,0.138 m -28.8,0.818 c -0.824,0.264 -0.859,0.326 -0.2,0.354 0.44,0.019 1.07,-0.141 1.4,-0.354 0.701,-0.453 0.214,-0.453 -1.2,0 m 33.8,0.612 c 2.073,0.746 2.794,0.728 1.054,-0.028 -0.74,-0.321 -1.64,-0.576 -2,-0.566 -0.36,0.009 0.066,0.277 0.946,0.594 m -41,1.988 c -2.361,1.264 -1.852,1.266 0.86,0.004 1.177,-0.548 1.87,-0.99 1.54,-0.982 -0.33,0.008 -1.41,0.448 -2.4,0.978 m 45.546,-0.384 c 0.74,0.321 1.46,0.578 1.6,0.57 0.52,-0.029 -1.77,-1.158 -2.346,-1.156 -0.33,0.001 0.006,0.264 0.746,0.586 M 173,148.627 c -0.66,0.343 -1.38,0.808 -1.6,1.034 -0.22,0.226 0.365,0.016 1.3,-0.466 0.935,-0.482 1.7,-0.948 1.7,-1.035 0,-0.24 -0.1,-0.207 -1.4,0.467 m 53.8,0.193 c 1.387,0.941 2.178,1.215 1.2,0.416 -0.55,-0.45 -1.18,-0.819 -1.4,-0.821 -0.22,-0.002 -0.13,0.181 0.2,0.405 m -57.9,2.206 c -0.935,0.561 -1.7,1.114 -1.7,1.229 0,0.216 2.699,-1.317 3.38,-1.919 0.687,-0.608 0.047,-0.345 -1.68,0.69 m 60.52,-0.69 c 0.628,0.556 3.38,2.143 3.38,1.95 0,-0.241 -3.106,-2.286 -3.471,-2.286 -0.159,0 -0.118,0.151 0.091,0.336 m 3.924,2.373 c 0.316,0.512 2.656,2.244 2.656,1.966 0,-0.099 -0.661,-0.684 -1.468,-1.3 -0.808,-0.616 -1.343,-0.916 -1.188,-0.666 M 191,155.075 c -1.32,0.314 -3.03,0.716 -3.8,0.894 -2.411,0.557 -9.107,3.522 -10,4.428 -0.11,0.112 -0.605,0.428 -1.1,0.703 -0.495,0.275 -1.302,0.725 -1.794,1 -3.002,1.68 -10.526,9.204 -12.206,12.206 -0.275,0.492 -0.725,1.299 -1,1.794 -0.275,0.495 -0.591,0.99 -0.703,1.1 -0.912,0.899 -3.881,7.612 -4.422,10 -0.174,0.77 -0.6,2.66 -0.946,4.2 -0.422,1.878 -0.629,4.805 -0.629,8.894 0,5.634 0.161,7.075 1.288,11.506 0.561,2.207 2.696,7.705 3.65,9.4 0.433,0.77 0.989,1.76 1.235,2.2 3.379,6.041 10.036,12.696 16.027,16.024 5.744,3.19 8.57,4.256 15.346,5.788 2.674,0.605 14.878,0.618 16,0.017 0.441,-0.236 1.255,-0.429 1.809,-0.429 0.554,0 1.421,-0.157 1.926,-0.349 0.506,-0.192 1.639,-0.564 2.519,-0.826 3.349,-1 7.641,-3.108 11.6,-5.698 5.234,-3.425 10.495,-9.084 13.874,-14.927 1.576,-2.724 3.251,-6.454 3.951,-8.8 0.262,-0.88 0.634,-2.013 0.826,-2.519 0.192,-0.505 0.349,-1.372 0.349,-1.926 0,-0.554 0.193,-1.368 0.429,-1.809 0.601,-1.122 0.588,-13.326 -0.017,-16 -1.532,-6.776 -2.598,-9.602 -5.788,-15.346 -3.328,-5.991 -9.983,-12.648 -16.024,-16.027 -0.44,-0.246 -1.43,-0.802 -2.2,-1.235 -1.695,-0.954 -7.193,-3.089 -9.4,-3.65 -4.46,-1.134 -5.905,-1.284 -11.906,-1.236 -4.058,0.033 -7.394,0.266 -8.894,0.623 m -31.93,3.995 c -2.347,2.346 -4.194,4.339 -4.105,4.429 0.089,0.089 0.944,-0.697 1.899,-1.746 0.955,-1.05 2.016,-2.188 2.358,-2.531 0.343,-0.342 1.481,-1.403 2.531,-2.358 1.049,-0.955 1.835,-1.81 1.746,-1.899 -0.09,-0.089 -2.083,1.758 -4.429,4.105 m 48.21,-3.854 c 6.801,1.334 9.686,2.402 16.246,6.01 2.87,1.579 8.489,6.396 11.17,9.577 3.659,4.339 6.982,10.341 8.526,15.397 0.269,0.88 0.628,1.96 0.798,2.4 1.602,4.146 1.556,17.11 -0.081,23.2 -0.449,1.67 -0.504,1.824 -1.939,5.4 -4.361,10.87 -13.93,20.439 -24.8,24.8 -3.576,1.435 -3.73,1.49 -5.4,1.939 -6.09,1.637 -19.054,1.683 -23.2,0.081 -0.44,-0.17 -1.52,-0.529 -2.4,-0.798 -5.056,-1.544 -11.058,-4.867 -15.397,-8.526 -3.181,-2.681 -7.998,-8.3 -9.577,-11.17 -6.764,-12.296 -8.089,-22.099 -4.854,-35.926 0.656,-2.804 2.235,-6.383 4.962,-11.244 2.66,-4.742 10.599,-12.672 15.114,-15.097 2.964,-1.592 5.288,-2.754 6.752,-3.377 2.649,-1.128 2.705,-1.144 8.6,-2.454 2.928,-0.65 12.573,-0.782 15.48,-0.212 m 31.229,1.733 c 1.27,1.228 3.315,3.272 4.546,4.542 l 2.236,2.309 -2.098,-2.4 c -1.155,-1.32 -3.2,-3.364 -4.546,-4.542 l -2.447,-2.142 2.309,2.233 m 7.482,8.239 c 0.466,0.653 1.051,1.314 1.3,1.468 0.25,0.155 -0.05,-0.38 -0.666,-1.188 -1.337,-1.753 -1.841,-1.976 -0.634,-0.28 m -94.483,2.912 c -0.875,1.349 -1.66,2.956 -1.221,2.5 0.561,-0.583 2.211,-3.4 1.992,-3.4 -0.103,0 -0.45,0.405 -0.771,0.9 m -2.392,4 c -0.638,0.996 -1.173,2.3 -0.944,2.3 0.081,0 0.523,-0.72 0.981,-1.6 0.907,-1.74 0.886,-2.142 -0.037,-0.7 m -2.241,4.519 c -0.481,0.992 -0.873,2.023 -0.871,2.292 0.002,0.269 0.456,-0.482 1.008,-1.669 0.553,-1.187 0.945,-2.218 0.872,-2.291 -0.073,-0.074 -0.527,0.677 -1.009,1.668 m 105.939,-0.165 c -0.008,0.14 0.249,0.86 0.57,1.6 0.322,0.74 0.585,1.076 0.586,0.746 0.002,-0.576 -1.127,-2.866 -1.156,-2.346 m 1.611,4.062 c -0.014,0.174 0.32,1.434 0.741,2.8 0.422,1.366 0.88,3 1.02,3.631 0.139,0.631 0.334,1.067 0.432,0.968 0.099,-0.098 -0.158,-1.425 -0.571,-2.947 -0.755,-2.788 -1.575,-5.038 -1.622,-4.452 m -109.979,2.751 c -0.025,0.367 -0.15,0.997 -0.276,1.4 -0.218,0.695 -0.207,0.696 0.227,0.02 0.251,-0.391 0.376,-1.021 0.276,-1.4 -0.162,-0.619 -0.185,-0.621 -0.227,-0.02 m 112.394,6.766 c 0.022,0.752 0.19,1.817 0.373,2.367 0.216,0.646 0.253,0.22 0.106,-1.2 -0.26,-2.517 -0.538,-3.193 -0.479,-1.167 M 142.859,190.2 c -0.039,0.66 -0.163,1.65 -0.276,2.2 l -0.206,1 0.431,-0.986 c 0.236,-0.542 0.36,-1.532 0.275,-2.2 l -0.155,-1.214 -0.069,1.2 m 114.902,9.8 c 0,3.41 0.061,4.805 0.136,3.1 0.075,-1.705 0.075,-4.495 0,-6.2 -0.075,-1.705 -0.136,-0.31 -0.136,3.1 m -115.604,0 c 0,2.97 0.063,4.185 0.14,2.7 0.077,-1.485 0.077,-3.915 0,-5.4 -0.077,-1.485 -0.14,-0.27 -0.14,2.7 m 0.502,8.6 c 0.134,1.1 0.31,2.075 0.392,2.167 0.313,0.35 0.075,-2.606 -0.271,-3.367 -0.245,-0.539 -0.285,-0.146 -0.121,1.2 m 114.394,-0.564 c -0.139,0.695 -0.232,1.737 -0.206,2.314 0.025,0.578 0.208,0.077 0.405,-1.111 0.385,-2.318 0.221,-3.305 -0.199,-1.203 M 143.444,213 c 0.329,1.471 0.558,1.79 0.55,0.767 -0.003,-0.422 -0.189,-1.037 -0.412,-1.367 -0.297,-0.438 -0.334,-0.276 -0.138,0.6 m 112.187,2.231 c -0.284,1.109 -0.441,2.092 -0.348,2.186 0.093,0.093 0.402,-0.739 0.686,-1.848 0.284,-1.109 0.441,-2.092 0.348,-2.186 -0.093,-0.093 -0.402,0.739 -0.686,1.848 m -111.213,1.223 c -0.01,0.36 0.245,1.26 0.566,2 0.756,1.74 0.774,1.019 0.028,-1.054 -0.317,-0.88 -0.585,-1.306 -0.594,-0.946 m 1.604,4.746 c 0.014,0.596 1.925,4.438 1.96,3.94 0.01,-0.143 -0.43,-1.223 -0.978,-2.4 -0.548,-1.177 -0.99,-1.87 -0.982,-1.54 m 107.091,1.381 c -0.371,1 -0.596,1.819 -0.499,1.819 0.279,0 1.417,-2.906 1.289,-3.291 -0.064,-0.191 -0.419,0.471 -0.79,1.472 M 148.415,226.6 c 0.002,0.22 0.371,0.85 0.821,1.4 0.543,0.664 0.679,0.731 0.404,0.2 -0.674,-1.305 -1.228,-2.028 -1.225,-1.6 m 101.371,2.7 -0.634,1.3 0.815,-1 c 0.785,-0.963 1.041,-1.6 0.643,-1.6 -0.104,0 -0.475,0.585 -0.824,1.3 m -98.969,1.41 c 0.518,0.941 1.445,2.291 2.059,3 0.615,0.71 0.291,0.03 -0.72,-1.51 -2.191,-3.339 -2.621,-3.817 -1.339,-1.49 m 95.927,3.19 c -1.269,1.532 -1.725,2.242 -1.263,1.965 0.512,-0.307 2.288,-2.665 2.008,-2.665 -0.091,0 -0.426,0.315 -0.745,0.7 m -89.932,4.8 c 2.891,3.125 2.992,3.222 2.348,2.251 -0.772,-1.162 -3.919,-4.551 -4.226,-4.551 -0.138,0 0.708,1.035 1.878,2.3 m 83.788,2.224 c -3.018,3.071 -3.621,3.81 -1.921,2.355 2.058,-1.762 6.934,-6.936 6.461,-6.855 -0.077,0.013 -2.12,2.038 -4.54,4.5 m -79.025,2.368 c 0.976,1.04 1.861,1.805 1.967,1.7 0.105,-0.106 0.114,-0.237 0.019,-0.292 -0.096,-0.055 -0.981,-0.82 -1.967,-1.7 l -1.794,-1.599 1.775,1.891 m 72.81,3.14 -1.385,1.231 1.288,-0.85 c 1.142,-0.754 2.005,-1.613 1.62,-1.613 -0.076,0 -0.761,0.554 -1.523,1.232 m -66.585,1.764 c 0.894,0.743 3.428,2.113 2.8,1.514 -0.22,-0.21 -1.12,-0.786 -2,-1.28 -0.88,-0.495 -1.24,-0.6 -0.8,-0.234 m 61.3,1.633 c -0.605,0.328 -1.1,0.681 -1.1,0.784 0,0.386 0.632,0.144 1.6,-0.613 1.189,-0.93 1.011,-0.991 -0.5,-0.171 M 176.4,253 c 0.99,0.53 2.07,0.97 2.4,0.978 0.33,0.008 -0.363,-0.434 -1.54,-0.982 -2.712,-1.262 -3.221,-1.26 -0.86,0.004 m 46,0.2 c -0.99,0.415 -1.597,0.765 -1.349,0.778 0.567,0.028 3.349,-1.121 3.349,-1.383 0,-0.247 0.112,-0.281 -2,0.605 m -41.2,1.674 c 1.546,0.655 6.514,1.945 6.715,1.744 0.099,-0.098 -0.337,-0.293 -0.968,-0.432 -0.631,-0.14 -2.265,-0.598 -3.631,-1.02 -2.686,-0.829 -3.721,-0.971 -2.116,-0.292 m 33.4,0.937 c -0.88,0.29 -1.33,0.539 -1,0.552 0.33,0.014 1.41,-0.23 2.4,-0.542 0.99,-0.312 1.44,-0.561 1,-0.552 -0.44,0.008 -1.52,0.252 -2.4,0.542 m -25.767,1.135 c 0.092,0.08 1.157,0.248 2.367,0.373 1.42,0.147 1.846,0.11 1.2,-0.106 -0.991,-0.33 -3.887,-0.548 -3.567,-0.267 m 18.767,0.267 c -0.646,0.216 -0.22,0.253 1.2,0.106 1.21,-0.125 2.275,-0.293 2.367,-0.373 0.32,-0.281 -2.576,-0.063 -3.567,0.267 m -10.7,0.684 c 1.705,0.075 4.495,0.075 6.2,0 1.705,-0.075 0.31,-0.136 -3.1,-0.136 -3.41,0 -4.805,0.061 -3.1,0.136 m -5.3,7.287 c -0.55,0.167 0.53,0.215 2.4,0.106 1.87,-0.108 3.475,-0.263 3.567,-0.344 0.315,-0.276 -4.968,-0.066 -5.967,0.238 m 10.833,-0.238 c 0.092,0.081 1.697,0.236 3.567,0.344 1.87,0.109 2.95,0.061 2.4,-0.106 -0.999,-0.304 -6.282,-0.514 -5.967,-0.238 m -15.233,1.049 c -0.409,0.26 -0.09,0.304 1,0.137 1.977,-0.303 2.314,-0.534 0.767,-0.526 -0.642,0.003 -1.437,0.178 -1.767,0.389 m 22.833,-0.252 c 0.092,0.079 0.887,0.254 1.767,0.389 1.09,0.167 1.409,0.123 1,-0.137 -0.547,-0.349 -3.155,-0.586 -2.767,-0.252 M 184.2,266.8 c -1.019,0.438 0.032,0.438 1.4,0 0.804,-0.257 0.843,-0.323 0.2,-0.332 -0.44,-0.006 -1.16,0.143 -1.6,0.332 m 30.2,0 c 1.368,0.438 2.419,0.438 1.4,0 -0.44,-0.189 -1.16,-0.338 -1.6,-0.332 -0.643,0.009 -0.604,0.075 0.2,0.332 m -46.696,7.627 c -1.369,0.894 -2.603,1.809 -2.741,2.033 -0.225,0.364 4.28,-2.51 5.217,-3.328 0.87,-0.76 -0.141,-0.231 -2.476,1.295 m 64.84,0.282 c 0.316,0.512 2.656,2.244 2.656,1.966 0,-0.099 -0.661,-0.684 -1.468,-1.3 -0.808,-0.616 -1.343,-0.916 -1.188,-0.666 m -38.344,2.317 c -4.314,0.554 -5.947,0.859 -7.2,1.344 -0.44,0.171 -1.43,0.536 -2.2,0.813 -3.058,1.098 -3.996,1.48 -4.247,1.731 -0.364,0.363 1.942,-0.323 3.017,-0.898 3.669,-1.964 14.436,-3.422 20.53,-2.781 13.752,1.446 24.092,7.284 33.23,18.765 1.068,1.342 1.065,1.325 -0.076,-0.4 -8.62,-13.031 -26.423,-20.711 -43.054,-18.574 m -33.944,3.424 c -2.139,2.007 -3.834,3.705 -3.766,3.773 0.068,0.068 1.906,-1.574 4.085,-3.65 2.179,-2.075 3.874,-3.773 3.766,-3.773 -0.108,0 -1.947,1.642 -4.085,3.65 m 80.512,1.45 c 1.668,1.705 3.112,3.05 3.21,2.988 0.215,-0.134 -5.653,-6.088 -6,-6.088 -0.133,0 1.123,1.395 2.79,3.1 m -63.045,0.407 c -0.922,0.601 -2.447,1.543 -3.388,2.093 -3.303,1.931 -13.535,12.651 -13.535,14.181 0,0.151 -0.54,1.06 -1.2,2.019 -0.66,0.959 -1.2,1.939 -1.2,2.177 0,0.239 -0.165,0.746 -0.366,1.128 -2.181,4.134 -4.088,11.947 -3.977,16.295 0.038,1.48 0.144,1.064 0.411,-1.6 0.361,-3.603 1.852,-9.983 2.886,-12.345 4.067,-9.289 10.3,-17.226 16.646,-21.196 0.99,-0.62 2.784,-1.741 3.987,-2.493 1.202,-0.751 2.012,-1.363 1.8,-1.359 -0.213,0.004 -1.142,0.499 -2.064,1.1 m -22.568,3.593 c -1.345,1.487 -2.095,2.5 -1.852,2.5 0.11,0 0.864,-0.81 1.676,-1.8 1.627,-1.986 1.738,-2.428 0.176,-0.7 m 92.619,4.3 c 1.393,2.052 1.678,2.295 0.903,0.771 -0.343,-0.676 -0.928,-1.481 -1.299,-1.789 -0.371,-0.308 -0.193,0.15 0.396,1.018 m 3.308,5.589 c 0.591,1.204 1.141,2.122 1.223,2.04 0.179,-0.18 -1.838,-4.229 -2.107,-4.229 -0.104,0 0.294,0.985 0.884,2.189 m -11.825,3.411 c 1.599,2.901 1.828,3.347 2.256,4.4 0.223,0.55 0.672,1.63 0.998,2.4 0.549,1.297 1.433,4.008 2.087,6.4 0.15,0.55 0.521,2.98 0.824,5.4 l 0.551,4.4 -0.185,-3.735 c -0.234,-4.746 -2.423,-13.087 -3.842,-14.645 -0.19,-0.209 -0.346,-0.592 -0.346,-0.852 0,-0.467 -2.511,-4.844 -3.053,-5.32 -0.155,-0.136 0.164,0.562 0.71,1.552 m 14.773,2.815 c -0.017,0.119 0.324,1.199 0.756,2.4 0.432,1.202 0.778,1.825 0.77,1.385 -0.014,-0.723 -1.456,-4.298 -1.526,-3.785 m -109.584,3.652 c -0.025,0.367 -0.15,0.997 -0.276,1.4 -0.218,0.695 -0.207,0.696 0.227,0.02 0.251,-0.391 0.376,-1.021 0.276,-1.4 -0.162,-0.619 -0.185,-0.621 -0.227,-0.02 m -0.792,3 c -0.029,0.477 -0.158,1.197 -0.284,1.6 -0.218,0.694 -0.206,0.695 0.226,0.021 0.251,-0.391 0.379,-1.111 0.285,-1.6 -0.172,-0.887 -0.172,-0.887 -0.227,-0.021 m 113.174,3.966 c 0.016,0.862 0.181,1.927 0.368,2.367 0.212,0.498 0.255,-0.031 0.116,-1.4 -0.268,-2.635 -0.523,-3.143 -0.484,-0.967 M 142.854,312.8 c -0.035,0.55 -0.158,1.45 -0.271,2 l -0.206,1 0.43,-0.985 c 0.236,-0.541 0.358,-1.441 0.271,-2 l -0.158,-1.015 -0.066,1 m 114.908,9.8 c 0,3.52 0.062,4.906 0.136,3.081 0.074,-1.825 0.074,-4.705 -0.001,-6.4 -0.075,-1.695 -0.136,-0.201 -0.135,3.319 m -115.607,0 c 0.001,2.86 0.065,3.978 0.142,2.483 0.077,-1.494 0.077,-3.834 -0.001,-5.2 -0.078,-1.365 -0.141,-0.143 -0.141,2.717 m 11.875,2.233 c 0.016,1.412 0.175,3.377 0.354,4.367 0.212,1.175 0.251,0.342 0.115,-2.4 -0.236,-4.715 -0.515,-5.884 -0.469,-1.967 m 91.562,0.067 c -0.018,4.743 -1.784,11.971 -3.973,16.262 -0.994,1.95 -1.664,3.638 -1.444,3.638 0.292,0 3.025,-5.805 3.025,-6.424 0,-0.339 0.167,-0.787 0.371,-0.996 1.1,-1.128 3.213,-14.58 2.289,-14.58 -0.143,0 -0.264,0.945 -0.268,2.1 m -102.942,6.3 c 0.325,2.241 0.552,2.56 0.544,0.767 -0.003,-0.752 -0.186,-1.637 -0.406,-1.967 -0.279,-0.419 -0.321,-0.058 -0.138,1.2 m 114.406,-0.716 c -0.135,0.504 -0.225,1.546 -0.201,2.316 0.034,1.069 0.12,0.88 0.363,-0.798 0.335,-2.31 0.254,-3.069 -0.162,-1.518 m -102.2,1.316 c 0,0.44 0.155,1.16 0.344,1.6 l 0.344,0.8 v -0.8 c 0,-0.44 -0.155,-1.16 -0.344,-1.6 l -0.344,-0.8 v 0.8 m -11.398,3.8 c 0.317,1.725 0.544,2.051 0.536,0.767 -0.003,-0.532 -0.183,-1.237 -0.4,-1.567 -0.276,-0.422 -0.317,-0.185 -0.136,0.8 m 12.296,-0.4 c 1.345,7.455 10.217,20.131 17.283,24.693 0.42,0.271 1.457,0.953 2.306,1.517 2.019,1.34 7.697,4.19 8.348,4.19 0.28,0 -1.209,-0.859 -3.31,-1.909 -11.884,-5.943 -18.742,-13.754 -23.959,-27.291 -0.467,-1.21 -0.767,-1.75 -0.668,-1.2 m -11.51,3.4 c 0.329,1.471 0.558,1.79 0.55,0.767 -0.003,-0.422 -0.189,-1.037 -0.412,-1.367 -0.297,-0.438 -0.334,-0.276 -0.138,0.6 m 110.684,1.673 c -0.93,3.004 -0.939,3.104 -0.124,1.353 0.454,-0.976 0.774,-2.023 0.711,-2.327 -0.063,-0.303 -0.328,0.135 -0.587,0.974 M 146.509,345.1 c 0.086,0.165 0.465,0.975 0.843,1.8 0.377,0.825 0.778,1.5 0.89,1.5 0.113,0 0.135,-0.135 0.049,-0.3 -0.086,-0.165 -0.465,-0.975 -0.843,-1.8 -0.377,-0.825 -0.778,-1.5 -0.89,-1.5 -0.113,0 -0.135,0.135 -0.049,0.3 m 91.504,2.772 c -0.958,1.458 -2.883,3.86 -4.278,5.338 -1.394,1.478 -2.535,2.816 -2.535,2.974 0,0.945 6.986,-7.25 8.306,-9.744 1.025,-1.935 0.202,-1.146 -1.493,1.432 m 13.069,1.539 c -0.59,1.204 -0.988,2.189 -0.884,2.189 0.269,0 2.286,-4.049 2.107,-4.229 -0.082,-0.082 -0.632,0.836 -1.223,2.04 M 149.2,350.52 c 0,0.384 2.045,3.48 2.299,3.48 0.179,0 -0.458,-1.081 -1.76,-2.989 -0.297,-0.434 -0.539,-0.655 -0.539,-0.491 m 99.087,3.68 c -0.786,1.21 -1.305,2.2 -1.154,2.2 0.151,0 0.463,-0.315 0.694,-0.7 0.231,-0.385 0.829,-1.375 1.329,-2.2 1.4,-2.309 0.738,-1.776 -0.869,0.7 m -18.468,2.98 c -2.741,3.028 -15.254,9.482 -18.743,9.666 -0.686,0.037 -0.723,0.087 -0.17,0.231 1.462,0.381 12.083,-4.009 13.762,-5.688 0.295,-0.295 0.896,-0.651 1.334,-0.79 0.439,-0.139 0.798,-0.409 0.798,-0.599 0,-0.19 0.315,-0.45 0.7,-0.577 0.893,-0.294 3.486,-2.571 3.225,-2.831 -0.108,-0.108 -0.516,0.156 -0.906,0.588 m -75.879,0.736 c 0.493,0.693 1.104,1.388 1.357,1.544 0.253,0.157 0.057,-0.283 -0.437,-0.976 -0.493,-0.693 -1.104,-1.388 -1.357,-1.544 -0.253,-0.157 -0.057,0.283 0.437,0.976 m 86.869,5.435 -2.991,3.249 3.291,-3.191 c 1.81,-1.754 3.291,-3.239 3.291,-3.3 0,-0.472 -1.022,0.451 -3.591,3.242 M 158.6,363.2 c 1.306,1.32 2.454,2.4 2.551,2.4 0.34,0 -4.156,-4.71 -4.538,-4.755 -0.214,-0.025 0.681,1.035 1.987,2.355 m 26.998,3.037 c 0.768,0.355 2.028,0.72 2.8,0.812 1.269,0.15 1.232,0.112 -0.398,-0.403 -3.037,-0.961 -3.926,-1.112 -2.402,-0.409 m 50.815,1.147 c -0.266,0.321 -2.178,1.698 -4.249,3.06 -2.07,1.362 -3.764,2.55 -3.764,2.64 0,0.217 0.468,-0.064 4,-2.406 3.403,-2.257 5.443,-3.878 4.88,-3.878 -0.21,0 -0.6,0.263 -0.867,0.584 m -46.26,0.103 c 1.34,1.34 18.354,1.34 19.694,0 0.144,-0.144 -0.708,-0.133 -1.893,0.025 -1.185,0.159 -4.764,0.288 -7.954,0.288 -3.19,0 -6.769,-0.129 -7.954,-0.288 -1.185,-0.158 -2.037,-0.169 -1.893,-0.025 m -25.518,0.969 c 0.323,0.523 5.735,4.117 7.365,4.891 0.77,0.365 1.054,0.437 0.632,0.159 -6.871,-4.523 -8.185,-5.353 -7.997,-5.05 m 61.858,5.324 c -1.254,0.692 -1.631,1.121 -0.681,0.775 0.986,-0.36 2.502,-1.369 1.977,-1.316 -0.214,0.022 -0.797,0.265 -1.296,0.541 m -11.693,4.638 c -0.438,0.297 -0.276,0.334 0.6,0.138 1.471,-0.329 1.79,-0.558 0.767,-0.55 -0.422,0.003 -1.037,0.189 -1.367,0.412 m -27.6,0.782 c 1.368,0.438 2.419,0.438 1.4,0 -0.44,-0.189 -1.16,-0.338 -1.6,-0.332 -0.643,0.009 -0.604,0.075 0.2,0.332 m 24.2,0 -0.8,0.344 h 0.8 c 0.44,0 1.16,-0.155 1.6,-0.344 l 0.8,-0.344 H 213 c -0.44,0 -1.16,0.155 -1.6,0.344 m -19.6,0.8 c 1.692,0.431 3.144,0.431 1.8,0 -0.55,-0.176 -1.45,-0.317 -2,-0.313 -0.898,0.007 -0.878,0.039 0.2,0.313 m 14.6,0 c -1.344,0.431 0.108,0.431 1.8,0 1.078,-0.274 1.098,-0.306 0.2,-0.313 -0.55,-0.004 -1.45,0.137 -2,0.313"
       stroke="none"
       fill="#342c2c"
       fill-rule="evenodd" />
    <path
       id="path7"
       d="m 194.636,31.656 c -1.521,0.195 -3.321,0.532 -4,0.748 l -1.236,0.393 1.4,-0.21 c 13.271,-1.99 22.797,-0.252 33.63,6.134 5.182,3.056 12.72,10.876 15.236,15.807 0.434,0.852 0.87,1.469 0.969,1.37 0.302,-0.301 -0.973,-2.401 -4.066,-6.698 -1.39,-1.93 -7.452,-8 -7.99,-8 -0.242,0 -0.873,-0.462 -1.403,-1.026 -0.53,-0.564 -1.597,-1.314 -2.37,-1.667 -0.773,-0.353 -1.712,-0.901 -2.087,-1.219 -0.924,-0.784 -4.331,-2.488 -4.975,-2.488 -0.286,0 -1.161,-0.36 -1.944,-0.8 -0.783,-0.44 -1.857,-0.8 -2.386,-0.8 -0.529,0 -1.469,-0.194 -2.088,-0.431 -3.18,-1.216 -11.542,-1.774 -16.69,-1.113 m -7.774,1.436 c -0.736,0.09 -1.956,0.512 -2.712,0.936 -0.756,0.425 -1.544,0.772 -1.75,0.772 -0.627,0 -4.737,1.974 -5.001,2.402 -0.136,0.22 -1.002,0.744 -1.923,1.165 -0.922,0.42 -2.112,1.23 -2.646,1.799 -0.533,0.569 -1.167,1.034 -1.408,1.034 -0.518,0 -7.422,6.854 -7.422,7.369 0,0.194 1.641,-1.294 3.647,-3.308 2.006,-2.014 3.778,-3.661 3.938,-3.661 0.16,0 0.814,-0.45 1.453,-1.001 3.128,-2.693 9.683,-5.908 14.962,-7.338 1.461,-0.396 1.123,-0.446 -1.138,-0.169 m -24.091,17.212 c -1.197,1.351 -2.093,2.907 -1.828,3.172 0.109,0.109 0.508,-0.403 0.887,-1.139 0.378,-0.735 1.051,-1.653 1.493,-2.04 0.443,-0.386 0.718,-0.789 0.612,-0.895 -0.106,-0.107 -0.63,0.299 -1.164,0.902 m -2.781,4.309 c -0.851,1.024 -3.19,5.895 -3.19,6.64 0,0.385 -0.18,0.811 -0.4,0.947 -0.22,0.136 -0.4,0.676 -0.4,1.2 0,0.524 -0.18,1.064 -0.4,1.2 -0.22,0.136 -0.4,0.831 -0.4,1.544 0,0.713 -0.166,1.467 -0.369,1.676 -1.138,1.173 -1.136,17.979 0.003,19.16 0.201,0.209 0.366,0.963 0.366,1.676 0,0.713 0.18,1.408 0.4,1.544 0.22,0.136 0.4,0.676 0.4,1.2 0,0.524 0.18,1.064 0.4,1.2 0.22,0.136 0.4,0.55 0.4,0.921 0,0.881 3.477,7.879 4.223,8.498 0.317,0.263 0.577,0.699 0.577,0.968 0,0.269 0.36,0.815 0.8,1.213 0.44,0.398 0.8,0.924 0.8,1.169 0,0.487 8.43,9.031 8.911,9.031 0.163,0 1.179,0.62 2.256,1.377 3.497,2.458 10.923,5.867 11.507,5.282 0.121,-0.121 -0.296,-0.342 -0.927,-0.49 -3.735,-0.879 -11.5,-5.497 -15.324,-9.113 -3.472,-3.282 -6.747,-7.009 -7.629,-8.681 -0.282,-0.536 -0.644,-1.065 -0.803,-1.175 -1.04,-0.718 -4.678,-9.318 -5.668,-13.4 -1.419,-5.845 -1.607,-19.025 -0.292,-20.38 0.203,-0.209 0.369,-0.717 0.369,-1.129 0,-1.304 2.001,-6.779 3.578,-9.791 1.561,-2.982 1.69,-3.346 0.812,-2.287 m 81.61,3.543 c 0,0.086 0.356,0.941 0.791,1.9 0.435,0.959 0.795,1.457 0.8,1.105 C 243.2,60.504 242.075,58 241.771,58 c -0.094,0 -0.171,0.07 -0.171,0.156 m 2.897,7.955 c 0.212,0.929 0.518,2.949 0.68,4.489 l 0.294,2.8 0.064,-2.876 c 0.036,-1.582 -0.115,-2.988 -0.335,-3.124 -0.22,-0.136 -0.4,-0.766 -0.4,-1.4 0,-0.634 -0.155,-1.249 -0.344,-1.366 -0.19,-0.117 -0.171,0.548 0.041,1.477 m 1.246,11.408 c -0.032,2.135 -0.213,5.178 -0.403,6.764 -0.19,1.585 -0.224,2.755 -0.076,2.6 0.562,-0.591 1.356,-12.423 0.866,-12.914 -0.182,-0.182 -0.356,1.416 -0.387,3.55 m -1.283,10.807 c -0.033,0.51 -0.215,1.23 -0.405,1.6 -0.612,1.197 -0.922,2.963 -0.471,2.684 0.229,-0.142 0.416,-0.661 0.416,-1.154 0,-0.493 0.194,-1.09 0.431,-1.327 0.237,-0.237 0.354,-0.948 0.26,-1.58 -0.137,-0.921 -0.183,-0.965 -0.231,-0.223 m -2.159,6.56 c -0.385,0.907 -0.625,1.723 -0.534,1.814 0.25,0.25 1.53,-2.612 1.371,-3.066 -0.076,-0.219 -0.453,0.345 -0.837,1.252 m -2.558,5.264 c -0.38,0.798 -0.838,1.45 -1.017,1.45 -0.179,0 -0.326,0.202 -0.326,0.449 0,0.715 1.097,-0.359 1.793,-1.756 0.336,-0.673 0.527,-1.306 0.426,-1.407 -0.102,-0.102 -0.496,0.467 -0.876,1.264 m -2.264,3.467 c -0.374,0.435 -0.679,0.946 -0.679,1.134 0,1.87 -11.298,11.106 -16.919,13.831 -1.716,0.832 -3.04,1.592 -2.942,1.69 0.305,0.305 8.538,-4.075 9.79,-5.208 0.404,-0.365 0.903,-0.664 1.109,-0.664 0.491,0 8.518,-8.209 9.71,-9.931 1.03,-1.488 0.982,-2.08 -0.069,-0.852 M 214.6,120.8 c -0.504,0.217 -0.578,0.344 -0.2,0.344 0.33,0 0.96,-0.155 1.4,-0.344 0.504,-0.217 0.578,-0.344 0.2,-0.344 -0.33,0 -0.96,0.155 -1.4,0.344 m -27.8,0.8 c 0.33,0.213 1.05,0.373 1.6,0.354 l 1,-0.034 -1,-0.32 c -1.542,-0.494 -2.364,-0.494 -1.6,0 m 24.8,0 -1,0.32 1,0.034 c 0.55,0.019 1.27,-0.141 1.6,-0.354 0.764,-0.494 -0.058,-0.494 -1.6,0 m -21.579,0.821 c 0.534,0.339 3.521,0.56 3.146,0.234 -0.092,-0.08 -0.968,-0.247 -1.946,-0.373 -1.151,-0.147 -1.575,-0.098 -1.2,0.139 M 208.4,122.4 c -1.384,0.291 -1.386,0.295 -0.2,0.341 0.66,0.026 1.47,-0.128 1.8,-0.341 0.666,-0.43 0.445,-0.43 -1.6,0 m -13.462,0.894 c 0.609,0.388 10.161,0.393 10.4,0.006 0.102,-0.165 -2.3,-0.3 -5.338,-0.3 -3.038,0 -5.316,0.132 -5.062,0.294"
       stroke="none"
       fill="#4c2424"
       fill-rule="evenodd" />
    <path
       id="path8"
       d="m 129.462,13.1 c -0.102,0.165 31.252,0.25 69.676,0.189 38.424,-0.06 70.267,-0.012 70.762,0.108 l 0.9,0.218 V 200 386.385 l -0.9,0.218 c -0.495,0.12 -32.338,0.168 -70.762,0.108 -38.424,-0.061 -69.778,0.024 -69.676,0.189 0.336,0.545 140.712,0.366 141.258,-0.18 0.7,-0.7 0.7,-372.74 0,-373.44 -0.546,-0.546 -140.922,-0.725 -141.258,-0.18 m 71.138,6.539 c 8.944,0.338 13.471,1.075 18.35,2.987 0.852,0.334 1.621,0.536 1.709,0.448 0.436,-0.435 -6.593,-2.432 -12.083,-3.432 -1.333,-0.243 -5.383,-0.408 -9,-0.366 l -6.576,0.076 7.6,0.287 M 190,19.893 c -3.729,0.439 -14.4,3.959 -14.4,4.749 0,0.113 0.135,0.141 0.3,0.063 4.112,-1.953 8.277,-3.217 15.3,-4.643 1.854,-0.377 1.267,-0.46 -1.2,-0.169 m -19.6,7.343 c -0.664,0.543 -0.731,0.679 -0.2,0.404 1.305,-0.674 2.028,-1.228 1.6,-1.225 -0.22,0.002 -0.85,0.371 -1.4,0.821 m 60.444,0.941 c 0.097,0.097 0.892,0.642 1.766,1.21 l 1.59,1.032 -1.385,-1.209 c -1.081,-0.945 -2.765,-1.827 -1.971,-1.033 m -64.282,1.485 -0.762,0.862 1.1,-0.708 c 1.134,-0.73 1.349,-1.016 0.762,-1.016 -0.186,0 -0.681,0.388 -1.1,0.862 m -4.589,3.609 c -1.828,1.58 -3.874,3.501 -4.548,4.27 -0.674,0.768 -1.405,1.597 -1.625,1.841 -2.219,2.459 -1.206,1.63 2.206,-1.804 2.307,-2.321 5.004,-4.878 5.994,-5.682 0.99,-0.803 1.687,-1.468 1.548,-1.478 -0.139,-0.01 -1.747,1.274 -3.575,2.853 m 78.054,2.329 c 3.985,3.969 8.373,9.121 8.373,9.832 0,0.123 0.502,0.976 1.115,1.896 0.613,0.92 1.46,2.34 1.882,3.156 0.422,0.817 0.845,1.408 0.939,1.314 0.205,-0.206 -3.481,-6.751 -4.347,-7.717 -0.336,-0.374 -1.054,-1.309 -1.595,-2.076 -1.741,-2.469 -7.077,-7.958 -9.791,-10.073 -0.658,-0.512 0.883,1.138 3.424,3.668 m -88.255,9.018 c -1.028,1.441 -1.788,2.699 -1.689,2.798 0.098,0.099 1.014,-1.08 2.035,-2.618 2.342,-3.529 2.125,-3.642 -0.346,-0.18 M 255.634,60.8 c 0.012,0.33 0.177,0.96 0.366,1.4 l 0.344,0.8 0.022,-0.8 c 0.012,-0.44 -0.153,-1.07 -0.366,-1.4 -0.345,-0.533 -0.385,-0.533 -0.366,0 m -111.767,0.267 c -0.147,0.146 -0.256,0.641 -0.242,1.1 0.024,0.766 0.057,0.756 0.409,-0.125 0.392,-0.979 0.31,-1.453 -0.167,-0.975 M 256.434,64 c 0.012,0.33 0.177,0.96 0.366,1.4 l 0.344,0.8 0.022,-0.8 c 0.012,-0.44 -0.153,-1.07 -0.366,-1.4 -0.345,-0.533 -0.385,-0.533 -0.366,0 m -113.367,0.267 c -0.147,0.146 -0.249,0.821 -0.226,1.5 l 0.041,1.233 0.328,-1.397 c 0.343,-1.456 0.307,-1.787 -0.143,-1.336 m -0.811,4.217 c -0.135,0.504 -0.226,1.636 -0.202,2.516 0.038,1.378 0.092,1.271 0.389,-0.772 0.355,-2.429 0.252,-3.382 -0.187,-1.744 M 257.253,68.2 c 0.023,0.44 0.179,1.34 0.347,2 l 0.305,1.2 0.042,-1.4 c 0.022,-0.77 -0.134,-1.67 -0.347,-2 -0.319,-0.494 -0.38,-0.458 -0.347,0.2 m 0.878,9.2 c 0.002,1.54 0.074,2.121 0.161,1.291 0.087,-0.83 0.085,-2.09 -0.003,-2.8 -0.089,-0.71 -0.16,-0.031 -0.158,1.509 m -116.417,0 c 0.003,1.1 0.081,1.503 0.173,0.895 0.092,-0.609 0.09,-1.509 -0.005,-2 -0.095,-0.492 -0.171,0.005 -0.168,1.105 m 0.314,6.633 c 0.016,0.972 0.186,2.127 0.38,2.567 0.223,0.508 0.266,-0.076 0.116,-1.6 -0.284,-2.901 -0.534,-3.388 -0.496,-0.967 m 115.419,1.304 c -0.169,1.065 -0.215,2.028 -0.103,2.141 0.292,0.291 0.761,-2.454 0.57,-3.338 -0.087,-0.407 -0.298,0.131 -0.467,1.197 M 142.8,89.31 c 0,0.573 0.187,1.158 0.416,1.3 0.273,0.169 0.322,-0.133 0.144,-0.876 -0.368,-1.533 -0.56,-1.678 -0.56,-0.424 m 113.829,0.519 c -0.148,0.586 -0.178,1.155 -0.068,1.265 0.11,0.11 0.32,-0.279 0.468,-0.865 0.147,-0.587 0.177,-1.156 0.067,-1.266 -0.11,-0.11 -0.32,0.279 -0.467,0.866 m -113.001,2.847 c -0.015,0.482 0.152,0.988 0.372,1.124 0.473,0.292 0.473,-0.099 0,-1.2 -0.331,-0.771 -0.345,-0.769 -0.372,0.076 m 112.201,0.353 c -0.148,0.586 -0.178,1.155 -0.068,1.265 0.11,0.11 0.32,-0.279 0.468,-0.865 0.147,-0.587 0.177,-1.156 0.067,-1.266 -0.11,-0.11 -0.32,0.279 -0.467,0.866 m -2.63,7.573 c -0.233,0.612 -0.518,1.267 -0.635,1.456 -0.116,0.188 -0.115,0.342 0.002,0.342 0.349,0 1.512,-2.456 1.275,-2.693 -0.12,-0.12 -0.409,0.283 -0.642,0.895 m -2.106,4.322 c -1.794,3.425 -4.132,6.794 -7.093,10.22 -1.54,1.782 -2.8,3.362 -2.8,3.509 0,0.148 0.374,-0.163 0.831,-0.692 0.457,-0.528 1.405,-1.591 2.106,-2.361 3.008,-3.303 8.716,-12.08 8.195,-12.601 -0.083,-0.083 -0.641,0.783 -1.239,1.925 M 149.646,106.9 c 0.591,1.123 1.954,2.899 1.954,2.545 0,-0.33 -2.05,-3.445 -2.267,-3.445 -0.089,0 0.052,0.405 0.313,0.9 m 2.929,4.432 c 0.616,0.807 1.201,1.468 1.3,1.468 0.278,0 -1.454,-2.34 -1.966,-2.656 -0.25,-0.155 0.05,0.38 0.666,1.188 m 2.026,2.652 c 4.127,5.082 13.679,13.469 14.456,12.692 0.116,-0.116 -0.209,-0.433 -0.723,-0.705 -2.246,-1.187 -6.051,-4.386 -10.133,-8.518 -2.42,-2.449 -4.04,-4.01 -3.6,-3.469 M 238,121.298 c -1.43,1.326 -2.22,2.161 -1.756,1.856 1.27,-0.835 4.687,-3.958 4.51,-4.122 -0.084,-0.08 -1.324,0.94 -2.754,2.266 m -5.761,4.349 c -3.366,2.38 -3.155,2.597 0.283,0.291 2.962,-1.987 2.853,-1.9 2.645,-2.091 -0.092,-0.083 -1.41,0.727 -2.928,1.8 m -61.839,1.896 c 1.553,1.303 7.128,3.983 10.173,4.893 1.702,0.508 0.717,-0.175 -1.173,-0.813 -1.748,-0.591 -6.892,-3.042 -8.8,-4.193 l -1.2,-0.725 1,0.838 m 57.4,0.894 c -0.66,0.458 -0.93,0.727 -0.6,0.598 0.33,-0.129 0.915,-0.346 1.3,-0.481 0.385,-0.136 0.7,-0.406 0.7,-0.601 0,-0.477 -0.028,-0.467 -1.4,0.484 m -3.3,1.589 c -0.935,0.439 -1.7,0.893 -1.7,1.009 0,0.117 0.135,0.142 0.3,0.056 0.165,-0.086 0.975,-0.465 1.8,-0.843 0.825,-0.377 1.5,-0.767 1.5,-0.867 0,-0.248 0.016,-0.253 -1.9,0.645 m -4.1,1.649 c -1.691,0.712 -2.552,1.049 -3.8,1.491 l -1.2,0.425 1.322,-0.232 c 1.528,-0.268 6.175,-2.13 5.278,-2.115 -0.33,0.006 -1.05,0.2 -1.6,0.431 m -38.367,1.269 c 0.092,0.079 0.707,0.264 1.367,0.412 0.876,0.196 1.038,0.159 0.6,-0.138 -0.54,-0.365 -2.368,-0.62 -1.967,-0.274 M 185.6,134 c 1.368,0.438 2.419,0.438 1.4,0 -0.44,-0.189 -1.16,-0.338 -1.6,-0.332 -0.643,0.009 -0.604,0.075 0.2,0.332 m 27.4,0 c -1.019,0.438 0.032,0.438 1.4,0 0.804,-0.257 0.843,-0.323 0.2,-0.332 -0.44,-0.006 -1.16,0.143 -1.6,0.332 m -23.6,0.823 c 2.026,0.419 3.663,0.4 2,-0.023 -0.66,-0.168 -1.74,-0.306 -2.4,-0.307 -1.009,-0.001 -0.945,0.052 0.4,0.33 m 19.4,-0.003 c -0.674,0.229 -0.349,0.264 1,0.108 1.1,-0.127 2.075,-0.297 2.167,-0.379 0.315,-0.281 -2.168,-0.069 -3.167,0.271 m -12.5,0.815 c 2.035,0.157 5.365,0.157 7.4,0 3.071,-0.237 2.442,-0.285 -3.7,-0.285 -6.142,0 -6.771,0.048 -3.7,0.285 m 2.6,6.252 c 0.605,0.091 1.595,0.091 2.2,0 0.605,-0.092 0.11,-0.167 -1.1,-0.167 -1.21,0 -1.705,0.075 -1.1,0.167 m -8.1,0.529 c -0.418,0.281 0.067,0.323 1.6,0.139 1.21,-0.145 2.275,-0.329 2.367,-0.409 0.403,-0.353 -3.429,-0.092 -3.967,0.27 m 14.433,-0.272 c 0.092,0.079 1.157,0.255 2.367,0.39 1.47,0.164 2.001,0.118 1.6,-0.138 -0.544,-0.348 -4.358,-0.59 -3.967,-0.252 M 186.8,143.2 c -0.764,0.494 0.058,0.494 1.6,0 l 1,-0.32 -1,-0.034 c -0.55,-0.019 -1.27,0.141 -1.6,0.354 m 24.033,-0.257 c 0.092,0.078 0.797,0.258 1.567,0.399 0.985,0.181 1.222,0.14 0.8,-0.136 -0.542,-0.356 -2.763,-0.603 -2.367,-0.263 M 183.6,144 c -0.795,0.514 0.204,0.514 1.4,0 l 0.8,-0.344 -0.8,-0.022 c -0.44,-0.012 -1.07,0.153 -1.4,0.366 m 31.4,0 c 1.196,0.514 2.195,0.514 1.4,0 -0.33,-0.213 -0.96,-0.378 -1.4,-0.366 l -0.8,0.022 0.8,0.344 m 9,3.2 c 1.21,0.639 2.38,1.162 2.6,1.162 0.22,0 -0.59,-0.523 -1.8,-1.162 -1.21,-0.639 -2.38,-1.162 -2.6,-1.162 -0.22,0 0.59,0.523 1.8,1.162 m -49.6,0.4 c -0.77,0.422 -1.22,0.766 -1,0.766 0.22,0 1.03,-0.344 1.8,-0.766 0.77,-0.422 1.22,-0.766 1,-0.766 -0.22,0 -1.03,0.344 -1.8,0.766 m -4.718,2.577 c -6.494,4.003 -12.802,9.838 -16.927,15.657 -2.415,3.406 -4.567,6.966 -4.212,6.966 0.12,0 0.877,-1.125 1.681,-2.5 2.205,-3.77 5.325,-7.745 8.828,-11.248 3.503,-3.503 7.478,-6.623 11.248,-8.828 2.138,-1.251 2.887,-1.824 2.382,-1.824 -0.066,0 -1.416,0.799 -3,1.777 M 228,149.167 c 0.963,0.785 1.6,1.041 1.6,0.643 0,-0.104 -0.585,-0.475 -1.3,-0.824 l -1.3,-0.634 1,0.815 m 2.79,1.506 c 5.71,4.194 7.447,5.62 10.182,8.355 2.735,2.735 4.161,4.472 8.355,10.182 0.526,0.717 0.503,0.603 -0.083,-0.41 -3.566,-6.163 -11.881,-14.478 -18.044,-18.044 -1.013,-0.586 -1.127,-0.609 -0.41,-0.083 m 19.219,20.027 c 0.005,0.165 0.376,0.75 0.824,1.3 l 0.815,1 -0.634,-1.3 c -0.603,-1.235 -1.025,-1.655 -1.005,-1 m -102.537,3.919 c -0.94,1.97 -0.808,2.305 0.175,0.443 0.446,-0.846 0.74,-1.608 0.654,-1.695 -0.087,-0.086 -0.46,0.477 -0.829,1.252 M 252.434,175 c 0,0.22 0.344,1.03 0.766,1.8 0.422,0.77 0.766,1.22 0.766,1 0,-0.22 -0.344,-1.03 -0.766,-1.8 -0.422,-0.77 -0.766,-1.22 -0.766,-1 m -108.561,8.753 c -0.15,0.392 -0.262,1.013 -0.248,1.38 0.017,0.442 0.156,0.341 0.412,-0.299 0.212,-0.531 0.324,-1.152 0.248,-1.38 -0.076,-0.227 -0.261,-0.093 -0.412,0.299 m -0.824,3.262 c -0.137,0.358 -0.233,1.041 -0.213,1.518 0.026,0.614 0.149,0.475 0.423,-0.477 0.398,-1.384 0.235,-2.198 -0.21,-1.041 m 113.591,0.451 c 0.368,1.533 0.56,1.678 0.56,0.424 0,-0.573 -0.187,-1.158 -0.416,-1.3 -0.273,-0.169 -0.322,0.133 -0.144,0.876 m 0.819,4.334 c 0.134,1.1 0.31,2.075 0.392,2.167 0.313,0.35 0.075,-2.606 -0.271,-3.367 -0.245,-0.539 -0.285,-0.146 -0.121,1.2 m -115.21,-0.785 c -0.137,0.358 -0.228,1.401 -0.202,2.318 0.046,1.651 0.05,1.646 0.405,-0.494 0.36,-2.169 0.263,-3.038 -0.203,-1.824 M 258.128,200 c 0,1.43 0.073,2.015 0.161,1.3 0.089,-0.715 0.089,-1.885 0,-2.6 -0.088,-0.715 -0.161,-0.13 -0.161,1.3 m -116.408,0 c 0,1.21 0.075,1.705 0.167,1.1 0.091,-0.605 0.091,-1.595 0,-2.2 -0.092,-0.605 -0.167,-0.11 -0.167,1.1 m 0.286,6.833 c 0.003,0.972 0.179,2.037 0.39,2.367 0.256,0.401 0.302,-0.13 0.138,-1.6 -0.307,-2.748 -0.536,-3.08 -0.528,-0.767 m 115.658,-0.183 c -0.035,0.468 -0.159,1.457 -0.275,2.2 -0.193,1.236 -0.174,1.267 0.219,0.364 0.237,-0.542 0.36,-1.532 0.275,-2.2 -0.092,-0.717 -0.181,-0.866 -0.219,-0.364 m -114.858,4.983 c 0.003,0.532 0.183,1.237 0.4,1.567 0.276,0.422 0.317,0.185 0.136,-0.8 -0.317,-1.725 -0.544,-2.051 -0.536,-0.767 m 114.048,0.034 c -0.029,0.367 -0.17,0.997 -0.313,1.4 -0.2,0.566 -0.146,0.629 0.234,0.279 0.271,-0.249 0.412,-0.879 0.313,-1.4 -0.098,-0.52 -0.204,-0.646 -0.234,-0.279 M 143.634,215 c -0.012,0.44 0.153,1.07 0.366,1.4 0.514,0.795 0.514,-0.204 0,-1.4 l -0.344,-0.8 -0.022,0.8 m 112.195,0.829 c -0.148,0.586 -0.178,1.155 -0.068,1.265 0.11,0.11 0.32,-0.279 0.468,-0.865 0.147,-0.587 0.177,-1.156 0.067,-1.266 -0.11,-0.11 -0.32,0.279 -0.467,0.866 M 146.038,222.2 c 0,0.22 0.523,1.39 1.162,2.6 0.639,1.21 1.162,2.02 1.162,1.8 0,-0.22 -0.523,-1.39 -1.162,-2.6 -0.639,-1.21 -1.162,-2.02 -1.162,-1.8 m 2.912,6 c 0.324,0.66 0.881,1.56 1.239,2 0.608,0.748 0.612,0.722 0.061,-0.4 -0.324,-0.66 -0.881,-1.56 -1.239,-2 -0.608,-0.748 -0.612,-0.722 -0.061,0.4 m 99.797,3.295 c -0.961,1.482 -3.054,4.27 -4.652,6.195 -3.093,3.727 -8.183,8.194 -12.6,11.057 -1.482,0.961 -2.695,1.826 -2.695,1.924 0,0.22 0.364,0.005 3.6,-2.126 6.89,-4.538 13.541,-11.591 18.146,-19.245 0.166,-0.275 0.222,-0.5 0.125,-0.5 -0.098,0 -0.963,1.213 -1.924,2.695 m -97.356,0.705 c 2.864,4.655 9.38,11.439 14.451,15.045 3.387,2.407 6.958,4.569 6.958,4.212 0,-0.12 -1.125,-0.877 -2.5,-1.681 -5.92,-3.463 -12.445,-9.343 -16.619,-14.976 -2.506,-3.383 -3.384,-4.38 -2.29,-2.6 m 23.809,20.6 c 1.21,0.639 2.38,1.162 2.6,1.162 0.22,0 -0.59,-0.523 -1.8,-1.162 -1.21,-0.639 -2.38,-1.162 -2.6,-1.162 -0.22,0 0.59,0.523 1.8,1.162 m 40.2,3.2 -0.8,0.344 0.8,0.022 c 0.44,0.012 1.07,-0.153 1.4,-0.366 0.795,-0.514 -0.204,-0.514 -1.4,0 m -28.81,0.784 c 0.142,0.229 0.727,0.416 1.3,0.416 1.254,0 1.109,-0.192 -0.424,-0.56 -0.743,-0.178 -1.045,-0.129 -0.876,0.144 m 25.41,0.016 -1,0.32 1.076,0.04 c 0.592,0.022 1.188,-0.14 1.324,-0.36 0.281,-0.455 0.02,-0.455 -1.4,0 m -21.4,0.78 c 0.761,0.346 3.717,0.584 3.367,0.271 -0.092,-0.082 -1.067,-0.258 -2.167,-0.392 -1.346,-0.164 -1.739,-0.124 -1.2,0.121 m 16.6,0.02 -1.4,0.295 1.4,0.024 c 0.77,0.014 1.76,-0.13 2.2,-0.319 l 0.8,-0.344 -0.8,0.025 c -0.44,0.013 -1.43,0.157 -2.2,0.319 m -8.5,0.689 c 0.715,0.089 1.885,0.089 2.6,0 0.715,-0.088 0.13,-0.161 -1.3,-0.161 -1.43,0 -2.015,0.073 -1.3,0.161 m -2.3,6.114 c -1.947,0.194 -1.051,0.276 3.567,0.328 3.391,0.038 6.091,0.004 6,-0.075 -0.366,-0.318 -7.126,-0.496 -9.567,-0.253 m -6.8,0.797 -1,0.32 h 1 c 0.55,0 1.45,-0.144 2,-0.32 l 1,-0.32 h -1 c -0.55,0 -1.45,0.144 -2,0.32 m 18.8,0 c 0.55,0.176 1.45,0.32 2,0.32 h 1 l -1,-0.32 c -0.55,-0.176 -1.45,-0.32 -2,-0.32 h -1 l 1,0.32 M 186,266 c -0.533,0.345 -0.533,0.388 0,0.388 0.33,0 0.87,-0.175 1.2,-0.388 0.533,-0.345 0.533,-0.388 0,-0.388 -0.33,0 -0.87,0.175 -1.2,0.388 m 26.8,0 c 0.33,0.213 0.87,0.388 1.2,0.388 0.533,0 0.533,-0.043 0,-0.388 -0.33,-0.213 -0.87,-0.388 -1.2,-0.388 -0.533,0 -0.533,0.043 0,0.388 m -29.8,0.8 c -0.504,0.217 -0.578,0.344 -0.2,0.344 0.33,0 0.96,-0.155 1.4,-0.344 0.504,-0.217 0.578,-0.344 0.2,-0.344 -0.33,0 -0.96,0.155 -1.4,0.344 m 34.345,0.45 c 1.29,0.436 2.433,0.706 2.54,0.599 0.208,-0.209 -3.745,-1.468 -4.458,-1.42 -0.235,0.015 0.628,0.385 1.918,0.821 m -41.545,2.259 c -3.727,1.748 -9.8,5.308 -9.8,5.744 0,0.166 0.945,-0.323 2.1,-1.086 2.74,-1.811 9.66,-5.367 10.442,-5.367 0.336,0 0.722,-0.18 0.858,-0.4 0.411,-0.665 -0.254,-0.46 -3.6,1.109 m 46.158,-0.672 c 0.967,0.429 1.83,0.708 1.917,0.621 0.173,-0.172 -2.91,-1.476 -3.383,-1.43 -0.161,0.016 0.499,0.38 1.466,0.809 m 4.245,1.968 c 0.134,0.217 0.41,0.395 0.613,0.395 0.364,0 3.949,2.151 6.084,3.651 0.605,0.425 1.1,0.622 1.1,0.437 0,-0.184 -1.481,-1.225 -3.291,-2.312 -3.625,-2.176 -4.884,-2.783 -4.506,-2.171 m 9.397,5.861 c 6.084,4.829 12.194,12.281 16.342,19.934 0.239,0.44 0.439,0.611 0.446,0.379 0.084,-2.911 -11.091,-16.704 -16.388,-20.227 -1.68,-1.117 -1.707,-1.123 -0.4,-0.086 m -36.5,0.416 c 0.495,0.096 1.305,0.096 1.8,0 0.495,-0.095 0.09,-0.173 -0.9,-0.173 -0.99,0 -1.395,0.078 -0.9,0.173 m -39.797,3.818 c -2.018,2.035 -4.054,4.24 -4.525,4.9 -0.471,0.66 0.222,0.03 1.541,-1.4 1.318,-1.43 3.537,-3.635 4.93,-4.9 1.394,-1.265 2.351,-2.3 2.128,-2.3 -0.223,0 -2.057,1.665 -4.074,3.7 m 36.002,-3.413 c 0.609,0.092 1.509,0.09 2,-0.005 0.492,-0.095 -0.005,-0.171 -1.105,-0.168 -1.1,0.003 -1.503,0.081 -0.895,0.173 m 7.6,0 c 0.609,0.092 1.509,0.09 2,-0.005 0.492,-0.095 -0.005,-0.171 -1.105,-0.168 -1.1,0.003 -1.503,0.081 -0.895,0.173 M 190.4,278 c -1.344,0.431 0.108,0.431 1.8,0 1.078,-0.274 1.098,-0.306 0.2,-0.313 -0.55,-0.004 -1.45,0.137 -2,0.313 m 17.4,0 c 1.692,0.431 3.144,0.431 1.8,0 -0.55,-0.176 -1.45,-0.317 -2,-0.313 -0.898,0.007 -0.878,0.039 0.2,0.313 m -20.4,0.8 c -0.504,0.217 -0.578,0.344 -0.2,0.344 0.33,0 0.96,-0.155 1.4,-0.344 0.504,-0.217 0.578,-0.344 0.2,-0.344 -0.33,0 -0.96,0.155 -1.4,0.344 m 24,0 c 0.44,0.189 1.07,0.344 1.4,0.344 0.378,0 0.304,-0.127 -0.2,-0.344 -0.44,-0.189 -1.07,-0.344 -1.4,-0.344 -0.378,0 -0.304,0.127 0.2,0.344 m -27.8,1.2 c -1.835,1.005 -1.35,1.01 0.856,0.009 0.959,-0.435 1.474,-0.788 1.144,-0.783 -0.33,0.004 -1.23,0.352 -2,0.774 m 31.546,-0.184 c 0.74,0.321 1.46,0.578 1.6,0.57 0.52,-0.029 -1.77,-1.158 -2.346,-1.156 -0.33,10e-4 0.006,0.264 0.746,0.586 m 4.444,1.81 c 1.424,0.674 2.853,1.438 3.176,1.699 0.462,0.373 0.522,0.366 0.282,-0.034 -0.352,-0.585 -4.769,-2.891 -5.537,-2.891 -0.281,0 0.654,0.552 2.079,1.226 m -40.064,-0.012 c -0.811,0.428 -1.61,1.005 -1.777,1.282 -0.239,0.399 -0.177,0.403 0.297,0.019 0.33,-0.267 1.4,-0.848 2.377,-1.291 0.977,-0.444 1.507,-0.802 1.177,-0.798 -0.33,0.005 -1.263,0.36 -2.074,0.788 m -3.726,2.262 c -2.131,1.144 -5.527,3.979 -8.6,7.181 l -3,3.126 3.601,-3.392 c 4.078,-3.841 5.287,-4.823 7.699,-6.257 0.935,-0.555 1.7,-1.083 1.7,-1.172 0,-0.228 -0.057,-0.207 -1.4,0.514 m 47.8,-0.157 c 0,0.08 0.945,0.756 2.1,1.501 3.179,2.051 9.309,8.18 11.569,11.567 2.356,3.53 2.69,3.92 1.724,2.013 -2.216,-4.375 -15.393,-17.285 -15.393,-15.081 m -71.025,4.949 c -0.616,0.808 -0.916,1.343 -0.666,1.188 0.512,-0.316 2.244,-2.656 1.966,-2.656 -0.099,0 -0.684,0.661 -1.3,1.468 m -1.859,2.62 c -0.865,1.334 -1.568,2.712 -1.383,2.712 0.292,0 2.331,-3.27 2.151,-3.449 -0.097,-0.097 -0.442,0.235 -0.768,0.737 m 11.913,5.125 c -0.845,1.108 -1.448,2.101 -1.341,2.209 0.163,0.162 1.468,-1.55 2.832,-3.714 0.744,-1.181 -0.067,-0.362 -1.491,1.505 m -2.861,4.605 c -0.586,1 -0.998,1.886 -0.915,1.968 0.082,0.082 0.644,-0.736 1.248,-1.818 1.382,-2.475 1.104,-2.601 -0.333,-0.15 m -2.503,5.427 c -0.783,2.09 -0.82,2.853 -0.057,1.197 0.445,-0.967 0.72,-1.847 0.612,-1.956 -0.109,-0.108 -0.359,0.233 -0.555,0.759 M 255.634,306 c 0.012,0.33 0.177,0.96 0.366,1.4 l 0.344,0.8 0.022,-0.8 c 0.012,-0.44 -0.153,-1.07 -0.366,-1.4 -0.345,-0.533 -0.385,-0.533 -0.366,0 m -111.767,0.267 c -0.147,0.146 -0.256,0.641 -0.242,1.1 0.024,0.766 0.057,0.756 0.409,-0.125 0.392,-0.979 0.31,-1.453 -0.167,-0.975 m 112.567,2.933 c 0.012,0.33 0.177,0.96 0.366,1.4 l 0.344,0.8 0.022,-0.8 c 0.012,-0.44 -0.153,-1.07 -0.366,-1.4 -0.345,-0.533 -0.385,-0.533 -0.366,0 m -113.367,0.267 c -0.147,0.146 -0.249,0.821 -0.226,1.5 l 0.041,1.233 0.328,-1.397 c 0.343,-1.456 0.307,-1.787 -0.143,-1.336 m 12.783,1.383 c -0.333,1.667 -0.01,1.99 0.35,0.35 0.152,-0.691 0.193,-1.341 0.091,-1.442 -0.102,-0.102 -0.3,0.389 -0.441,1.092 m 87.806,-0.65 c 0,0.44 0.155,1.16 0.344,1.6 l 0.344,0.8 v -0.8 c 0,-0.44 -0.155,-1.16 -0.344,-1.6 l -0.344,-0.8 v 0.8 m 13.619,3 c 0.011,0.55 0.157,1.54 0.325,2.2 l 0.305,1.2 0.02,-1.4 c 0.01,-0.77 -0.136,-1.76 -0.325,-2.2 -0.312,-0.726 -0.342,-0.707 -0.325,0.2 m -115.019,0.484 c -0.135,0.504 -0.226,1.636 -0.202,2.516 0.038,1.378 0.092,1.271 0.389,-0.772 0.355,-2.429 0.252,-3.382 -0.187,-1.744 m 12.726,0.898 c -0.153,1.02 -0.188,1.945 -0.078,2.055 0.11,0.11 0.325,-0.635 0.478,-1.655 0.153,-1.021 0.188,-1.945 0.078,-2.055 -0.11,-0.11 -0.325,0.634 -0.478,1.655 m 89.677,0.018 c 0.134,1.1 0.31,2.075 0.392,2.167 0.313,0.35 0.075,-2.606 -0.271,-3.367 -0.245,-0.539 -0.285,-0.146 -0.121,1.2 m -90.323,5.3 c -0.075,1.265 -0.033,3.65 0.092,5.3 0.193,2.54 0.239,2.187 0.3,-2.3 0.074,-5.421 -0.149,-7.126 -0.392,-3 m 91.003,2.9 c 0,4.111 0.055,4.693 0.23,2.437 0.127,-1.63 0.128,-4.06 0.001,-5.4 -0.149,-1.58 -0.23,-0.538 -0.231,2.963 m 12.792,-0.2 c 0.002,1.54 0.074,2.121 0.161,1.291 0.087,-0.83 0.085,-2.09 -0.003,-2.8 -0.089,-0.71 -0.16,-0.031 -0.158,1.509 m -116.411,0.2 c 0,1.21 0.075,1.705 0.167,1.1 0.091,-0.605 0.091,-1.595 0,-2.2 -0.092,-0.605 -0.167,-0.11 -0.167,1.1 m 0.308,6.433 c 0.016,0.972 0.186,2.127 0.38,2.567 0.223,0.508 0.266,-0.076 0.116,-1.6 -0.284,-2.901 -0.534,-3.388 -0.496,-0.967 m 12.847,0.367 c -0.01,0.77 0.136,1.76 0.325,2.2 0.457,1.064 0.457,-0.603 0,-2.4 l -0.305,-1.2 -0.02,1.4 m 89.971,-0.184 c -0.025,0.449 -0.321,1.873 -0.658,3.165 -0.336,1.291 -0.546,2.544 -0.467,2.782 0.233,0.698 1.569,-5.226 1.361,-6.032 -0.167,-0.643 -0.195,-0.633 -0.236,0.085 m 12.818,-0.166 c -0.035,0.358 -0.166,1.257 -0.291,2 -0.185,1.105 -0.144,1.221 0.225,0.641 0.248,-0.389 0.379,-1.289 0.291,-2 -0.089,-0.71 -0.19,-0.998 -0.225,-0.641 m -102.008,4.15 c 0,0.44 0.155,1.16 0.344,1.6 l 0.344,0.8 V 335 c 0,-0.44 -0.155,-1.16 -0.344,-1.6 l -0.344,-0.8 v 0.8 m -12.856,0.91 c 0,0.683 0.177,1.352 0.394,1.486 0.246,0.152 0.3,-0.251 0.143,-1.076 -0.337,-1.769 -0.537,-1.921 -0.537,-0.41 m 113.829,0.719 c -0.148,0.586 -0.178,1.155 -0.068,1.265 0.11,0.11 0.32,-0.279 0.468,-0.865 0.147,-0.587 0.177,-1.156 0.067,-1.266 -0.11,-0.11 -0.32,0.279 -0.467,0.866 m -113.001,2.847 c -0.015,0.482 0.152,0.988 0.372,1.124 0.473,0.292 0.473,-0.099 0,-1.2 -0.331,-0.771 -0.345,-0.769 -0.372,0.076 m 112.201,0.353 c -0.148,0.586 -0.178,1.155 -0.068,1.265 0.11,0.11 0.32,-0.279 0.468,-0.865 0.147,-0.587 0.177,-1.156 0.067,-1.266 -0.11,-0.11 -0.32,0.279 -0.467,0.866 m -16.447,6.875 c -1.563,2.941 -5.315,7.57 -8.809,10.868 -1.965,1.854 -3.033,2.999 -2.373,2.544 3.625,-2.501 12.987,-13.863 12.129,-14.72 -0.09,-0.091 -0.516,0.498 -0.947,1.308 m -78.395,1.271 c 0.334,0.646 0.789,1.286 1.011,1.424 0.222,0.137 0.025,-0.392 -0.437,-1.175 -1.013,-1.717 -1.426,-1.896 -0.574,-0.249 m 90.917,2.099 c -0.538,1.169 -1.727,3.344 -2.641,4.833 -0.915,1.489 -1.66,2.839 -1.655,3 0.01,0.418 2.252,-3.2 4.105,-6.628 0.868,-1.606 1.487,-3.013 1.374,-3.125 -0.113,-0.113 -0.645,0.751 -1.183,1.92 M 147.6,348.22 c 0,0.452 1.266,2.647 1.431,2.482 0.189,-0.188 -0.984,-2.702 -1.26,-2.702 -0.094,0 -0.171,0.099 -0.171,0.22 m 15.65,1.38 c 1.097,1.698 6.885,7.744 8.55,8.932 0.66,0.47 -0.705,-1.032 -3.032,-3.338 -2.328,-2.307 -4.725,-4.824 -5.327,-5.594 l -1.095,-1.4 0.904,1.4 M 150,352.507 c 0,0.372 3.254,5.079 3.702,5.356 0.2,0.124 -0.401,-0.92 -1.337,-2.319 -1.882,-2.815 -2.365,-3.435 -2.365,-3.037 m 95.8,5.637 c -1.373,1.895 -1.795,2.716 -0.951,1.849 0.878,-0.902 2.457,-3.222 2.295,-3.372 -0.079,-0.073 -0.684,0.612 -1.344,1.523 m -91.175,1.127 c 1.212,1.676 7.799,8.076 9.575,9.304 1.538,1.063 1.53,1.047 -0.2,-0.413 -0.99,-0.836 -3.679,-3.419 -5.975,-5.741 -2.297,-2.321 -3.827,-3.739 -3.4,-3.15 m 84.975,5.646 c -4.102,3.985 -4.197,4.3 -0.209,0.686 1.924,-1.743 4.855,-4.822 4.556,-4.785 -0.081,0.01 -2.037,1.854 -4.347,4.099 M 180,363.396 c 0,0.274 2.449,1.488 2.632,1.305 0.087,-0.087 -0.47,-0.457 -1.237,-0.823 C 180.628,363.512 180,363.295 180,363.396 M 218.4,364 c -0.77,0.422 -1.22,0.766 -1,0.766 0.22,0 1.03,-0.344 1.8,-0.766 0.77,-0.422 1.22,-0.766 1,-0.766 -0.22,0 -1.03,0.344 -1.8,0.766 m -5,1.82 c -1.54,0.517 -2.52,0.949 -2.178,0.96 0.703,0.023 5.578,-1.565 5.578,-1.817 0,-0.252 -0.39,-0.154 -3.4,0.857 m -26.8,0.394 c 0.66,0.303 1.56,0.546 2,0.541 0.44,-0.005 -0.01,-0.264 -1,-0.576 -2.221,-0.699 -2.578,-0.687 -1,0.035 m 5.1,1.262 c 0.385,0.1 1.015,0.1 1.4,0 0.385,-0.101 0.07,-0.183 -0.7,-0.183 -0.77,0 -1.085,0.082 -0.7,0.183 m 15.2,0 c 0.385,0.1 1.015,0.1 1.4,0 0.385,-0.101 0.07,-0.183 -0.7,-0.183 -0.77,0 -1.085,0.082 -0.7,0.183 m 25.402,3.226 c -1.484,1.009 -2.623,1.91 -2.531,2.002 0.201,0.201 4.873,-2.929 5.228,-3.502 0.35,-0.567 0.303,-0.541 -2.697,1.5 m -65.613,-0.272 c 0.489,0.509 0.989,0.825 1.112,0.702 0.123,-0.123 -0.277,-0.54 -0.889,-0.926 l -1.112,-0.702 0.889,0.926 m 61.211,2.999 c -0.605,0.328 -1.1,0.681 -1.1,0.784 0,0.386 0.632,0.144 1.6,-0.613 1.189,-0.93 1.011,-0.991 -0.5,-0.171 m -55.5,0.367 c 0,0.274 2.449,1.488 2.632,1.305 0.087,-0.087 -0.47,-0.457 -1.237,-0.823 -0.767,-0.366 -1.395,-0.583 -1.395,-0.482 m 6.941,3.278 c 0.385,0.385 3.136,1.316 3.859,1.306 0.33,-0.005 -0.383,-0.362 -1.585,-0.794 -2.38,-0.856 -2.688,-0.926 -2.274,-0.512 m 39.259,0.443 c -1.262,0.421 -1.726,0.721 -1.258,0.813 0.409,0.08 0.94,-0.052 1.18,-0.292 0.241,-0.241 0.751,-0.438 1.134,-0.438 0.383,0 0.808,-0.18 0.944,-0.4 0.136,-0.22 0.192,-0.389 0.124,-0.375 -0.068,0.013 -1.024,0.325 -2.124,0.692 m -34.41,1.267 c 0.142,0.229 0.727,0.416 1.3,0.416 1.254,0 1.109,-0.192 -0.424,-0.56 -0.743,-0.178 -1.045,-0.129 -0.876,0.144 m 30.21,0.016 -1,0.32 1,0.034 c 0.55,0.019 1.27,-0.141 1.6,-0.354 0.764,-0.494 -0.058,-0.494 -1.6,0 m -27,0.797 c 0.764,0.331 3.714,0.558 3.367,0.259 -0.092,-0.079 -1.067,-0.247 -2.167,-0.374 -1.287,-0.149 -1.715,-0.108 -1.2,0.115 m 23,0.078 c -1.21,0.206 -4,0.526 -6.2,0.712 l -4,0.337 4.2,-0.144 c 4.37,-0.15 8.192,-0.639 8.661,-1.108 0.307,-0.307 0.343,-0.309 -2.661,0.203 m -18.4,0.751 c 0.962,0.283 8.217,0.454 7.4,0.174 -0.22,-0.076 -2.2,-0.212 -4.4,-0.303 -2.2,-0.091 -3.55,-0.033 -3,0.129"
       stroke="none"
       fill="#342c34"
       fill-rule="evenodd" />
  </g>
</svg>
